<?xml version="1.0" encoding="utf-8"?>
<!-- Generator: Adobe Illustrator 24.2.0, SVG Export Plug-In . SVG Version: 6.00 Build 0)  -->
<svg version="1.1" id="Capa_2" xmlns="http://www.w3.org/2000/svg" xmlns:xlink="http://www.w3.org/1999/xlink" x="0px" y="0px"
	 viewBox="0 0 560 555" style="enable-background:new 0 0 560 555;" xml:space="preserve">
<style type="text/css">
	.st0{fill-rule:evenodd;clip-rule:evenodd;fill:#010101;}
	.st1{fill-rule:evenodd;clip-rule:evenodd;fill:#D8B100;}
	.st2{fill-rule:evenodd;clip-rule:evenodd;fill:#D4B11A;}
	.st3{fill-rule:evenodd;clip-rule:evenodd;fill:#D4AD09;}
	.st4{fill-rule:evenodd;clip-rule:evenodd;fill:#010102;}
	.st5{fill-rule:evenodd;clip-rule:evenodd;fill:#020202;}
	.st6{fill-rule:evenodd;clip-rule:evenodd;fill:#020203;}
	.st7{fill-rule:evenodd;clip-rule:evenodd;fill:#030201;}
	.st8{fill-rule:evenodd;clip-rule:evenodd;fill:#DCB30E;}
	.st9{fill-rule:evenodd;clip-rule:evenodd;fill:#D0B21F;}
	.st10{fill-rule:evenodd;clip-rule:evenodd;fill:#E0BA00;}
	.st11{fill-rule:evenodd;clip-rule:evenodd;fill:#DAB804;}
	.st12{fill-rule:evenodd;clip-rule:evenodd;fill:#E0B10E;}
	.st13{fill-rule:evenodd;clip-rule:evenodd;fill:#E4BA1D;}
	.st14{fill-rule:evenodd;clip-rule:evenodd;fill:#D7B920;}
	.st15{fill-rule:evenodd;clip-rule:evenodd;fill:#D5B216;}
	.st16{fill-rule:evenodd;clip-rule:evenodd;fill:#D8B519;}
	.st17{fill-rule:evenodd;clip-rule:evenodd;fill:#DDB713;}
	.st18{fill-rule:evenodd;clip-rule:evenodd;fill:#EC171F;}
	.st19{fill-rule:evenodd;clip-rule:evenodd;fill:#FEFEFE;}
	.st20{fill-rule:evenodd;clip-rule:evenodd;fill:#FEE611;}
	.st21{fill-rule:evenodd;clip-rule:evenodd;fill:#DA121C;}
	.st22{fill-rule:evenodd;clip-rule:evenodd;fill:#E4D515;}
	.st23{fill-rule:evenodd;clip-rule:evenodd;fill:#E60E19;}
	.st24{fill-rule:evenodd;clip-rule:evenodd;fill:#E80816;}
	.st25{fill-rule:evenodd;clip-rule:evenodd;fill:#C9003A;}
	.st26{fill-rule:evenodd;clip-rule:evenodd;fill:#0E238B;}
	.st27{fill-rule:evenodd;clip-rule:evenodd;fill:#8C0B53;}
	.st28{fill-rule:evenodd;clip-rule:evenodd;fill:#08258A;}
	.st29{fill-rule:evenodd;clip-rule:evenodd;fill:#06268B;}
	.st30{fill-rule:evenodd;clip-rule:evenodd;fill:#D70041;}
	.st31{fill-rule:evenodd;clip-rule:evenodd;fill:#072682;}
	.st32{fill-rule:evenodd;clip-rule:evenodd;fill:#E0BA0B;}
	.st33{fill-rule:evenodd;clip-rule:evenodd;fill:#F9E90D;}
	.st34{fill-rule:evenodd;clip-rule:evenodd;fill:#FCEC12;}
	.st35{fill-rule:evenodd;clip-rule:evenodd;fill:#E3101E;}
	.st36{fill-rule:evenodd;clip-rule:evenodd;fill:#E30E16;}
	.st37{fill-rule:evenodd;clip-rule:evenodd;fill:#F7841A;}
	.st38{fill-rule:evenodd;clip-rule:evenodd;fill:#FCF311;}
	.st39{fill-rule:evenodd;clip-rule:evenodd;fill:#E9081E;}
	.st40{fill-rule:evenodd;clip-rule:evenodd;fill:#E40D18;}
	.st41{fill-rule:evenodd;clip-rule:evenodd;fill:#F27216;}
	.st42{fill-rule:evenodd;clip-rule:evenodd;fill:#FAF111;}
	.st43{fill-rule:evenodd;clip-rule:evenodd;fill:#F27E21;}
	.st44{fill-rule:evenodd;clip-rule:evenodd;fill:#E49321;}
	.st45{fill-rule:evenodd;clip-rule:evenodd;fill:#FDEC17;}
	.st46{fill-rule:evenodd;clip-rule:evenodd;fill:#DF7B23;}
	.st47{fill-rule:evenodd;clip-rule:evenodd;fill:#F18A14;}
	.st48{fill-rule:evenodd;clip-rule:evenodd;fill:#F06C1D;}
	.st49{fill-rule:evenodd;clip-rule:evenodd;fill:#E8121A;}
	.st50{fill-rule:evenodd;clip-rule:evenodd;fill:#FEF11A;}
	.st51{fill-rule:evenodd;clip-rule:evenodd;fill:#FADA15;}
	.st52{fill-rule:evenodd;clip-rule:evenodd;fill:#E90C17;}
	.st53{fill-rule:evenodd;clip-rule:evenodd;fill:#F4181F;}
	.st54{fill-rule:evenodd;clip-rule:evenodd;fill:#FCE617;}
	.st55{fill-rule:evenodd;clip-rule:evenodd;fill:#FDEE2B;}
	.st56{fill-rule:evenodd;clip-rule:evenodd;fill:#D20035;}
	.st57{fill-rule:evenodd;clip-rule:evenodd;fill:#D00039;}
	.st58{fill-rule:evenodd;clip-rule:evenodd;fill:#C40342;}
	.st59{fill-rule:evenodd;clip-rule:evenodd;fill:#9C8A2B;}
	.st60{fill-rule:evenodd;clip-rule:evenodd;fill:#615638;}
	.st61{fill-rule:evenodd;clip-rule:evenodd;fill:#998628;}
	.st62{fill-rule:evenodd;clip-rule:evenodd;fill:#736727;}
	.st63{fill-rule:evenodd;clip-rule:evenodd;fill:#464733;}
	.st64{fill-rule:evenodd;clip-rule:evenodd;fill:#9C8623;}
	.st65{fill-rule:evenodd;clip-rule:evenodd;fill:#9A8013;}
	.st66{fill-rule:evenodd;clip-rule:evenodd;fill:#685D39;}
	.st67{fill-rule:evenodd;clip-rule:evenodd;fill:#8C7E2D;}
	.st68{fill-rule:evenodd;clip-rule:evenodd;fill:#927D2A;}
	.st69{fill-rule:evenodd;clip-rule:evenodd;fill:#4B4A44;}
	.st70{fill-rule:evenodd;clip-rule:evenodd;fill:#8E7717;}
	.st71{fill-rule:evenodd;clip-rule:evenodd;fill:#918029;}
	.st72{fill-rule:evenodd;clip-rule:evenodd;fill:#8A7C26;}
	.st73{fill-rule:evenodd;clip-rule:evenodd;fill:#927C27;}
	.st74{fill-rule:evenodd;clip-rule:evenodd;fill:#8C8125;}
	.st75{fill-rule:evenodd;clip-rule:evenodd;fill:#7A6D2A;}
	.st76{fill-rule:evenodd;clip-rule:evenodd;fill:#685B38;}
	.st77{fill-rule:evenodd;clip-rule:evenodd;fill:#948131;}
	.st78{fill-rule:evenodd;clip-rule:evenodd;fill:#998933;}
	.st79{fill-rule:evenodd;clip-rule:evenodd;fill:#7B5D15;}
	.st80{fill-rule:evenodd;clip-rule:evenodd;fill:#A5802A;}
	.st81{fill-rule:evenodd;clip-rule:evenodd;fill:#9D8822;}
	.st82{fill-rule:evenodd;clip-rule:evenodd;fill:#00258F;}
	.st83{fill-rule:evenodd;clip-rule:evenodd;fill:#102290;}
	.st84{fill-rule:evenodd;clip-rule:evenodd;fill:#D20031;}
	.st85{fill-rule:evenodd;clip-rule:evenodd;fill:#C60043;}
	.st86{fill-rule:evenodd;clip-rule:evenodd;fill:#A65823;}
	.st87{fill-rule:evenodd;clip-rule:evenodd;fill:#AE6824;}
	.st88{fill-rule:evenodd;clip-rule:evenodd;fill:#A36722;}
	.st89{fill-rule:evenodd;clip-rule:evenodd;fill:#A5731C;}
	.st90{fill-rule:evenodd;clip-rule:evenodd;fill:#AA7015;}
	.st91{fill-rule:evenodd;clip-rule:evenodd;fill:#B47B26;}
	.st92{fill-rule:evenodd;clip-rule:evenodd;fill:#96711E;}
	.st93{fill-rule:evenodd;clip-rule:evenodd;fill:#EB0E23;}
	.st94{fill-rule:evenodd;clip-rule:evenodd;fill:#E70E1E;}
	.st95{fill-rule:evenodd;clip-rule:evenodd;fill:#FEEE16;}
	.st96{fill-rule:evenodd;clip-rule:evenodd;fill:#F8E909;}
	.st97{fill-rule:evenodd;clip-rule:evenodd;fill:#FDED15;}
	.st98{fill-rule:evenodd;clip-rule:evenodd;fill:#F7E810;}
	.st99{fill-rule:evenodd;clip-rule:evenodd;fill:#EE1523;}
	.st100{fill-rule:evenodd;clip-rule:evenodd;fill:#EB0D20;}
	.st101{fill-rule:evenodd;clip-rule:evenodd;fill:#050409;}
	.st102{fill-rule:evenodd;clip-rule:evenodd;fill:#D7B007;}
	.st103{fill-rule:evenodd;clip-rule:evenodd;fill:#D9B613;}
	.st104{fill-rule:evenodd;clip-rule:evenodd;fill:#E1BB13;}
	.st105{fill-rule:evenodd;clip-rule:evenodd;fill:#DDB716;}
	.st106{fill-rule:evenodd;clip-rule:evenodd;fill:#CEA90B;}
	.st107{fill-rule:evenodd;clip-rule:evenodd;fill:#C8A50E;}
	.st108{fill-rule:evenodd;clip-rule:evenodd;fill:#75671B;}
</style>
<g>
	<path class="st0" d="M358.7,20.8c3.8,3.1,8.1,5.6,12.3,8.2c15.1,9.2,31.6,14.5,49.2,16c11.5,1,23.1,1.6,34.6,0.7
		c10.6-0.8,20.8-3.4,30.7-7c4.6-1.6,4.6-1.6,7.3,2.3c3.4,4.9,7.1,9.6,10.8,14.2c2.9,3.6,5.2,7.7,7.7,11.6c0.7,1.1,0,1.7-0.5,2.4
		c-6.8,8.9-13.1,18.1-18,28.2c-9.8,20.2-14.4,41.5-13.2,63.9c1.7,32.2,13.3,60.9,31.3,87.3c6.4,9.4,13.9,17.9,22,25.9
		c1.3,1.3,1.5,1.9,0.1,3.4c-7.6,7.6-15.1,15.4-22.6,23.1c-0.8,0.8-1.1,1.6-1,2.7c1.1,15.2,0.7,30.3-1.2,45.3
		c-5.7,43.3-23.7,80.2-57.5,108.7c-20.6,17.4-44.4,29.1-70.1,36.7c-16.5,4.9-33.4,8.1-50.6,9.5c-3.4,0.3-6.9,0.6-10.3,0.8
		c-1,0.1-1.6,0.6-2.2,1.1c-11.3,10.2-23.2,19.7-35.4,28.8c-1.1,0.8-1.8,1-3.1,0.1c-12.2-9-24.1-18.6-35.4-28.8
		c-1-0.9-1.9-1.2-3.2-1.3c-37.9-2.5-74.1-11-107-30.7c-41.3-24.6-67-60.6-77.6-107.5c-4.4-19.4-5.5-39.1-4.5-58.8
		c0.2-4.2-0.7-7-3.7-9.9c-6.8-6.6-13.3-13.5-20-20.2c-0.5-0.5-1.2-0.8-1.2-1.7c1-1.9,2.4-3.4,3.9-4.8c18-17.9,31-39,40.2-62.6
		c5.3-13.7,8.6-27.9,9.8-42.7c1.6-20.2-1.2-39.8-8.6-58.7c-5.2-13.3-12.8-25.2-21.4-36.5c-2.1-2.7-2.1-2.8-0.3-5.7
		c3.1-5,6.4-9.9,10.2-14.4c3.1-3.7,5.8-7.7,8.6-11.6c1.6-2.4,1.9-2.5,4.6-1.5c8.8,3.1,17.7,5.9,27.1,7c7.4,0.9,14.8,1.6,22.3,0.8
		c4.4-0.5,8.9-0.2,13.3-0.5c17.6-1.2,34.3-5.5,49.7-14.1c4.6-2.6,9.1-5.4,13.5-8.4c0.8-0.6,1.8-0.9,2.6-1.5c0.1,0,0.3,0,0.4,0
		c1.2,0.4,2.3,1,3.4,1.8c12.1,8.6,24.8,16,39.1,20.6c8.4,2.7,16.9,4.4,25.7,5.1c19.6,1.6,38.3-1.4,56.3-9.2
		c9-3.9,17.4-8.8,25.4-14.4c2-1.4,4-2.8,6.2-3.9C358.4,20.8,358.5,20.8,358.7,20.8z"/>
	<path class="st1" d="M453.5,440c-0.3,0.3-0.6,0.6-0.9,0.9c-0.3,0.2-1.2-0.1-0.8,0.8c-0.2,0.2-0.3,0.3-0.5,0.5c-0.9,0.5-1.4,1.3-2,2
		c-9.3,8.9-19.7,16.2-30.9,22.5c-22.5,12.7-46.8,20.2-72.3,24.2c-10.1,1.6-20.4,2.6-30.6,3c-1.2,0-2,0.7-2.8,1.4
		c-9.8,9-20.2,17.5-30.7,25.7c-1.2,0.9-1.9,0.9-3.1,0c-10.6-8.2-21-16.7-30.9-25.8c-0.9-0.8-1.8-1.2-3.1-1.2
		c-23.3-1.1-46.1-4.8-68.2-12.2c-26-8.7-49.4-21.7-68.9-41.1c-21.3-21.2-34.6-46.8-41.2-76c-4.4-19.3-5.5-38.9-4.3-58.7
		c0.1-0.9-0.1-1.8,0.2-2.6c1.1-4.1-0.6-6.9-3.6-9.7c-5.5-5.2-10.5-10.8-15.8-16.2c-1.2-1.2-1.1-1.8,0-3c24.2-26.6,40.4-57.4,46.8-93
		c7.5-41.4-1.8-78.9-26.5-112.8c-1-1.4-1-2.2,0-3.5c3.7-4.7,7.4-9.5,11-14.3c0.7-0.9,1.3-0.6,2-0.4c29.6,9.5,59.3,7.9,89,0.8
		c12.6-3,24-9,34.8-16.1c1.4-0.9,2.3-1,3.7,0c15.3,10.5,31.8,18.3,50.1,22.2c6.5,1.4,13.2,2.3,19.8,2.5c0.4,0,0.8,0.1,1.3,0.2
		c3.3,0.5,6.6,0.5,9.9,0c6.5-0.6,13-1,19.4-2.3c19.1-3.7,36.3-11.7,52.2-22.6c1.6-1.1,2.5-1,4.1,0c18.7,12.4,39.2,19.2,61.5,20.7
		c11.2,0.8,22.4,1.3,33.6,0.4c9.6-0.7,19-2.8,28.2-5.9c1.4-0.5,2.1-0.3,3,0.9c3.4,4.6,7,9.1,10.5,13.6c1,1.3,1,2.2,0,3.5
		c-14.3,19.4-23.8,40.9-27.4,64.8c-3.3,21.8-1.4,43.3,4.7,64.4c8.4,29,22.8,54.6,43.3,76.8c1.1,1.2,0.9,1.7-0.1,2.7
		c-6.2,6.3-12.3,12.7-18.4,19c-1,1-1.4,1.9-1.3,3.4c1.8,22.8,0.8,45.5-4.6,67.8c-5.8,24-16.4,45.6-32.5,64.4c-1.5,1.7-3.1,3.3-4.7,5
		c-0.3,0.2-0.5,0.3-0.7,0c-0.2-0.2-0.2-0.5-0.1-0.8c-0.2,0.3-0.1,0.6,0.1,0.9C455.2,438.3,454.1,439,453.5,440z"/>
	<path class="st2" d="M285,60.4c-3.3,0.8-6.6,0.8-9.9,0C278.4,60.4,281.7,60.4,285,60.4z"/>
	<path class="st3" d="M455.6,437.1c0.2,0,0.5,0,0.7,0c-0.8,1.2-1.7,2.2-2.9,2.9C453.7,438.7,454.4,437.7,455.6,437.1L455.6,437.1z"
		/>
	<path class="st3" d="M449.2,444.2c-0.1-0.9,1.2-1.1,1-2.2c-0.1-0.4,0.1-0.4,1,0.2C450.8,443.1,450,443.7,449.2,444.2z"/>
	<path class="st3" d="M451.7,441.7c-0.3-0.5-0.5-1-0.3-1.7c0.4,0.2,0.5,1,1.1,0.9C452.5,441.4,452.2,441.7,451.7,441.7z"/>
	<path class="st4" d="M93,229c5.1-11,8.9-22.4,11.8-34.1c2.6-10.4,4.1-21,4.8-31.7c0-0.5,0-1,0-1.5c-0.1-4.1-0.2-8.3,0.1-12.4
		c-0.2-11.7-2-23.1-4.9-34.4c-3.8-14.5-9.6-28.1-17.2-40.9c-0.4-0.7-1-1.3-1-2.2c3.9,0.6,7.7,1.2,11.5,1.7
		c10.4,1.4,20.8,1.1,31.2,0.8c14.9-0.5,29.6-2.3,43.9-6.7c9.5-2.9,18.6-6.9,27.2-11.8c1.2-0.7,2-0.7,3.3,0
		c19.3,11.6,40.1,19.2,62.6,21.3c0.4,0,0.8,0.2,1.3,0.3c0.5,0.4,0.1,1.1,0.4,1.5c0.1,0.1,0.3,0.3,0.4,0.4c0.9,0.3,1.9-0.3,2.8,0.2
		c0.3,0.2,0.7,0.4,0.7,0.8c0,0.4-0.4,0.6-0.8,0.6c-1.1,0.2-2.1,0.1-3.2,0.2c-9.2-0.3-18-2.2-26.8-4.6c-6.7-1.8-13.2-4.2-19.6-7
		c-6.1-2.8-12.1-5.7-17.8-9.1c-1.3-0.8-2.4-0.4-3.6,0.2c-6.3,3.3-12.7,6.3-19.5,8.7c-4.9,1.7-9.8,3.2-14.8,4.5
		c-8.7,2.1-17.6,3.2-26.6,4c-10.1,0.9-20.2,0.9-30.3,0.7c-4,0-8-0.5-12-1c-0.8-0.1-1.5-0.4-2.6,0.1c7.7,14.4,13.4,29.5,16.6,45.5
		c0.1,0.7,0.2,1.5,0.5,2.2c1.2,6.4,2,12.9,2.4,19.4c0.1,2.9,0.4,5.9,0.4,8.8c0.1,7.8-0.5,15.5-1.5,23.1c-0.1,0.5-0.3,1-0.3,1.5
		c0,0.3,0,0.5,0,0.8c-2.2,15.4-6.4,30.3-12.1,44.8c-1.1,2.7-1,2.8,2,2.8c20.5,0,41.1,0,61.6,0c0.7,0,1.4,0,2.2,0c0.3,0,0.5,0,0.8,0
		c18.3,0,36.5,0.1,54.8,0c17.4-0.1,34.7,0,52.1,0c4.4,0,4.1,0.2,4.1-4.1c0-13.8,0-27.6,0-41.3c0-0.9,0-1.7,0.1-2.6
		c0-18.5,0-37,0-55.4c-0.1-11.9,0-23.9,0-35.8c0-0.7,0-1.4,0-2.1c0-2.6-0.2-2.7-2.7-3.2c-0.5-0.1-1-0.1-1.5-0.3
		c-0.8-0.5-1.2-1.4-1-2.2c0.2-0.9,1.2-0.8,1.8-0.7c1.9,0.3,3.8-0.2,5.8-0.2c1.1,0,2.3,0.1,3.3,1.2c-1.3,0.4-2.4,0.9-3.6,0.7
		c-0.3,0,0,0.4-0.1,0.1c0,0,0.1-0.1,0.2-0.1c1.4-0.1,2.9,0.1,4-1.3c0.6-0.7,4,0.1,4.6,0.9c0.5,0.7,0,1-0.5,1.3
		c-0.9,0.3-1.8,0.2-2.7,0.2c-1.1,0.3-2.5-0.7-3.3,0.9c-0.1,0.9,0,1.7,0,2.6c0,46,0,91.9,0,137.9c0,1.1-0.1,2.2,0.2,3.2
		c0.4,0.8,1.2,0.7,1.9,0.7c0.8,0,1.6,0,2.4,0c57.4,0,114.9,0,172.3,0c2.8,0,5.6-0.4,8.3,0.6c0.4,0.9,0.9,1.9,1.3,2.8
		c-0.5,0.7-1.3,0.4-2,0.4c-123.7,0-247.5,0-371.2,0c-0.5,0-1,0.1-1.5,0C92.5,230.2,92.2,229.8,93,229z"/>
	<path class="st5" d="M480.2,299.6c0.1,0.1,0.2,0.1,0.1,0.3c0.4,1-0.1,2.2,0.4,3.2c1.4,7.2,1.2,14.6,1,21.9
		c-0.4,22.2-4.2,43.7-13.4,64c-12.4,27.8-32.7,48.3-59.2,62.8c-19.7,10.8-40.8,17.2-62.8,21.1c-18,3.2-36.2,4.6-54.4,4.4
		c-12.1-0.1-24.3,0.3-36.4-0.2c-34.1-1.2-67.2-7-98.1-22.3c-26.3-13-47.3-31.8-61.1-58c-8.4-15.9-13.2-32.8-15.6-50.5
		c-1.6-12.3-2.1-24.7-1.4-37.2c0.1-2.2,0.4-4.3,0.9-6.4c0.7-3.5,0.7-3.5,4.5-3.5c130.6,0,261.2,0,391.8,0
		C477.8,299.2,479,298.9,480.2,299.6z"/>
	<path class="st0" d="M323,290.5c-0.1-0.7-0.2-1.4-0.2-2.1c0-15.7,0-31.4,0-47.2c0-1.7,0.4-2.3,2.2-2.3c6.6,0.1,13.2,0,19.8,0.1
		c1.2,0,2.4,0,3.7,0.1c8.5,0.8,12.2,3.8,14.4,11.9c0.4,1.3,0.4,2.5,0,3.8c-0.7,2.7-1.7,5.3-4,7.2c-0.6,0.5-0.4,0.8,0.1,1.1
		c5.7,3.8,6.5,9.3,5,15.4c-1.5,6.2-5.7,9.7-11.8,11.3c-0.3,0.1-0.7,0.2-1,0.4c-1.4,0.7-3,0.6-4.4,0.6c-7.6,0.1-15.2,0-22.8,0
		C323.7,290.8,323.3,290.8,323,290.5z"/>
	<path class="st6" d="M267.6,80.3c1.2,0,2.4,0,3.7,0c-0.6-1.1-1.3-0.6-2-0.6c-0.8,0.1-1.8,0.5-2-0.8c0.2,0,0.4,0,0.4,0
		c-0.1,0-0.2,0-0.4,0c-0.3,0-0.1,0.4-0.2,0.1c0-0.1,0-0.1,0.1,0c-0.9-0.5,0.1-1.1-0.1-1.7c0.6,0,1.2-0.1,1.7-0.1
		c1.3,0,2.5-0.4,3.7,0.2c0.1,0.1,0.2,0.2,0.2,0.3c-0.8,0.5-1.8,0.2-2.6,0.8c-0.2,0.1,0.2,0.4,0,0.1c-0.1-0.1,0-0.1,0.1-0.2
		c1.6-0.9,3.3-0.1,5-0.7c8.5,0,17.1-0.3,25.6-1.5c20-2.9,38.6-9.9,55.9-20.3c1.5-0.9,2.6-0.9,4,0c17.1,9.7,35.5,15.3,55.1,17.2
		c14.1,1.4,28.2,1.9,42.4,0.8c5.4-0.4,10.7-1.4,16.1-2.4c-0.1,1.2-0.8,2-1.3,2.8c-11.8,20.1-19.1,41.7-21.4,64.9
		c-2.3,23.6,0.8,46.5,7.9,69c2.1,6.5,4.6,12.8,7.1,19.2c-0.8,0.5-1.5,0.5-2.4,0.2c-1.6-0.6-3.3-0.2-5-0.2c-58.5,0-117.1,0-175.6-0.1
		c-0.9,0-2.3,0.9-2.6-0.9c0.1,0,0.3-0.1,0.4-0.1c0.1,0,0.3,0,0.4,0c5.7,0.1,11.4,0,17.1,0c0.3,0,0.5,0,0.8,0c6.3,0,12.6,0,18.9,0
		c0.3,0,0.5,0,0.8,0c6.3-0.1,12.7-0.1,19,0c0.3,0,0.5,0,0.8,0c6.1-0.1,12.3-0.1,18.4,0c0.3,0,0.5,0,0.8,0c0.3,0,0.5,0,0.8,0
		c6.3,0,12.6,0,18.8,0c0.3,0,0.5,0,0.8,0c6.3,0,12.7,0,19,0c0.3,0,0.6,0,0.8,0c6.3,0,12.7,0,19,0c0.3,0,0.5,0,0.8,0
		c6.3,0,12.5,0,18.8,0c0.3,0,0.5,0,0.8,0c7,0,14.1,0,21.1,0c2.6,0,2.7-0.1,1.7-2.5c-5.9-14.6-10-29.6-12.3-45.2c-1.7-12-2-24-1.2-36
		c1.2-19.2,6.3-37.4,14.1-54.9c1.6-3.5,3.4-6.8,5.2-10.7c-9,1.3-17.6,1.7-26.3,1.5c-0.7,0-1.5,0-2.2,0c-0.4,0-0.8,0-1.1,0.1
		c-6.6-0.2-13.3-0.3-19.8-1.3c-6.2-0.3-12.3-1.4-18.4-2.6c-0.2,0-0.5-0.1-0.7-0.1c-6.5-1.4-12.9-3.4-19.2-5.6
		c-0.3-0.1-0.6-0.3-0.9-0.4c-6.1-2.6-12.3-5-18.1-8.4c-0.2-0.1-0.3-0.2-0.5-0.3c-0.3-0.2-0.6-0.3-1-0.2c-0.3,0.1-0.5,0.2-0.7,0.4
		c-6.1,3.7-12.4,6.9-19,9.6c-0.4,0.2-0.8,0.4-1.1,0.6c-5.9,2.5-12,4.6-18.2,6.3c-0.2,0.1-0.4,0.1-0.6,0.2c-0.5,0.1-1.1,0.2-1.6,0.4
		c-5.5,1.6-11.2,2.5-16.9,3.4c-0.2,0.1-0.4,0.1-0.7,0.1c-0.2,0-0.5,0-0.7,0.1c-0.2,0-0.5,0-0.7,0c-0.7,0-1.4,0.2-2,0.4
		c-1.8,0.1-3.7,0.4-5.5,0.5c-1,0.1-2.2,0.2-3-0.6c-0.6-1.5-2.5-1.7-4-1c-1.1,0.6-2.6,0.6-3.9,0.7c-0.7,0.1-1.4-0.2-2-0.4
		c1.5-0.2,3-0.1,4.4-0.9c-1.8-0.4-3.3-1-5.2-0.1c-1.1,0.5-2.7-0.3-4.1-0.2c-0.4,0-0.7,0-0.8,0.4c-0.1,0.7,0.5,0.2,0.7,0.3
		c1.1,1-0.8,0.5-0.6,1C270.4,81.7,269,81.6,267.6,80.3z"/>
	<path class="st0" d="M276.5,291.2c-8.8-0.1-15.7-3.9-19.3-12c-5-11.2-4.9-22.5,2.6-32.7c8.8-12,28.1-10.9,35.3,1.6
		c0.9,1.6,0.7,2.3-1,2.9c-2.3,0.9-4.6,2.1-6.8,3.2c-0.9,0.5-1.5,0.5-2.2-0.5c-4-6-12.6-6-16.7,0c-3.9,5.6-3.8,16.3,0.1,21.9
		c3.7,5.5,12.6,6.6,16.8-0.1c1-1.7,1.9-1.9,3.4-0.8c1.9,1.3,3.9,2.5,5.9,3.5c1.2,0.6,1.2,1.2,0.6,2.3
		C291,287.9,284.7,291.2,276.5,291.2z"/>
	<path class="st0" d="M207.4,250.5c0,2.3,0,4.6,0,6.9c0.5,0.9,1.4,0.6,2.1,0.6c3.6,0,7.3,0,10.9,0c0.7,0,1.4-0.3,2,0.3
		c0,2.9-0.1,5.7,0.1,8.6c0.1,1.6-0.3,2.3-2.1,2.2c-3.8-0.1-7.6,0-11.4-0.1c-1.3,0-1.7,0.4-1.7,1.7c0.1,5.8,0,11.6,0.1,17.4
		c0,1.6-0.3,2.3-2.1,2.2c-2.4-0.2-4.9-0.1-7.3,0c-1.3,0-1.8-0.3-1.8-1.7c0-16.1,0-32.2,0-48.2c0-1.2,0.3-1.6,1.5-1.6
		c11.3,0,22.7,0,34,0c1.3,0,1.5,0.6,1.5,1.7c-0.1,3.1,0,6.2,0,9.3c-0.5,0.8-1.3,0.4-2,0.4c-7.2,0-14.3,0-21.5,0
		C209,250.3,208.2,250.1,207.4,250.5z"/>
	<path class="st7" d="M480.2,299.6c-131.6,0-263.3,0-394.9,0c-1.2,0-2.5-0.1-3.7,0.1c-1.8,0.3-0.2,2.3-1.4,3c0-1.1,0-2.1,0.1-3.2
		c0.1-0.3,0.3-0.4,0.6-0.4c0.7,0,1.4,0,2.2,0c131.4,0,262.9,0,394.3,0c0.9,0,1.9-0.2,2.7,0.2C480.2,299.4,480.2,299.5,480.2,299.6z"
		/>
	<path class="st8" d="M480.1,299.2c-0.8,0-1.6,0.1-2.4,0.1c-131.7,0-263.4,0-395.1,0c-0.8,0-1.6,0.1-2.4,0.1c0.2-0.5,0.5-0.6,1-0.7
		c0.7,0,1.4,0,2.2,0c131.5,0,263.1,0,394.6,0c0.7,0,1.4,0.1,2.1,0.1c0,0,0.1,0.1,0.1,0.2C480.2,299.1,480.2,299.2,480.1,299.2z"/>
	<path class="st9" d="M93,229c-0.1,0.5-0.4,1.2,0.6,1.2c0.6,0,1.1,0,1.7,0c123.3,0,246.5,0,369.8,0c1,0,2-0.1,3-0.1
		c-0.3,0.7-0.9,0.6-1.5,0.6c-1.1,0-2.3,0-3.4,0c-122.6,0-245.3,0-367.9,0c-0.6,0-1.3,0.1-1.9,0C92,230.4,92,229.8,93,229z"/>
	<path class="st10" d="M322.5,290.6c-0.6-0.5-0.4-1.2-0.4-1.8c0-16.2,0-32.4,0-48.6c0-0.3,0-0.5,0.4-0.8
		C322.5,256.4,322.5,273.5,322.5,290.6L322.5,290.6z"/>
	<path class="st11" d="M323,290.5c6,0,12-0.1,18,0c3.4,0,6.8,0,10.3-0.4c0.3,0,0.6,0.1,0.8,0.1c0,0.1,0,0.2,0.1,0.3
		c-1.2,0.2-2.3,0.5-3.5,0.5c-8.1,0-16.3,0-24.4,0c-0.6,0-1.3,0.2-1.8-0.4l0,0C322.7,290.5,322.8,290.5,323,290.5z"/>
	<path class="st12" d="M270.5,477.7c9.7,0,19.3,0,29,0c0,0.1,0,0.1,0,0.2c-9.7,0-19.4,0-29.1,0C270.4,477.8,270.4,477.7,270.5,477.7
		z"/>
	<path class="st13" d="M207.4,250.5c0.4-1.1,1.4-0.5,2-0.5c7.9-0.1,15.9-0.1,23.8-0.1c-0.6,1-1.5,0.6-2.3,0.6
		C223.1,250.5,215.3,250.5,207.4,250.5z"/>
	<path class="st14" d="M222.5,258.4c-4.5,0-8.9,0-13.4-0.1c-0.6,0-1.7,0.5-1.6-0.9c1.1,0.7,2.4,0.4,3.5,0.4c3.2,0,6.4,0,9.6,0
		C221.2,257.8,222,257.5,222.5,258.4z"/>
	<path class="st15" d="M109.5,149.2c0.3,4.1,0.2,8.3-0.1,12.4C109,157.5,108.9,153.4,109.5,149.2z"/>
	<path class="st4" d="M275.5,77.7c-1.7,0.8-3.5,0.2-5.2,0.8c0.7-1.1,1.8-0.7,2.7-0.9C273.9,77.6,274.7,77.7,275.5,77.7z"/>
	<path class="st16" d="M272.8,77.3c-1.2-0.1-2.5-0.1-3.7-0.2c1.3-0.5,2.6-0.3,3.8-0.1c0,0,0,0.1,0,0.2
		C272.9,77.2,272.8,77.3,272.8,77.3z"/>
	<path class="st17" d="M362.9,254.8c0-1.3,0-2.5,0-3.8C363.8,252.3,363.7,253.5,362.9,254.8z"/>
	<path class="st3" d="M455.6,437.1c-0.9-1.2,0.1-1.5,1-2.2C456.5,435.9,455.5,436.2,455.6,437.1L455.6,437.1z"/>
	<path class="st7" d="M480.6,303.1c-0.8-1-0.3-2.1-0.4-3.2C480.7,300.9,480.6,302,480.6,303.1z"/>
	<path class="st18" d="M111.4,177.9c-0.1-0.1,0-0.2,0.1-0.3c0.8-0.3,1.6-0.1,2.3-0.1c16.9,0,33.9,0,50.3,0c-0.2,0-0.8,0-1.4,0
		c-16.3,0-32.7,0-49,0c-0.7,0-1.8,0.7-2.1-0.7c0.8-8.6,1.6-17.1,1.3-25.7c-0.3-8.3-0.9-16.6-2.5-24.7c-0.1-0.5-0.1-1-0.1-1.5
		c-0.5-1.3,0.2-1.9,1.4-2c0.9-0.1,1.7,0,2.6,0c15.8,0,31.6,0,47.4,0c1,0,2,0.3,2.8-0.7c0.5-1,0.3-2.1,0.3-3.2c0-14.1,0-28.2,0-42.3
		c0-1.3-0.3-2.6,0.8-3.6c9.3-2.6,18.5-5.5,27.2-9.8c2.6-1.3,5.1-2.6,7.7-3.9c0.7-0.4,1.3-0.6,2.2-0.1c5.8,3.6,12.1,6.5,18.3,9.5
		c0.2,0.4,0.2,0.8,0.1,1.1c-0.2,0.8-0.2,1.7-0.2,2.6c0,15.5,0,31,0,46.6c0,0.9-0.2,1.9,0.3,2.7c0.2,0.3,0.5,0.6,0.8,0.8
		c0.9,0.4,1.8,0.3,2.8,0.3c16.2,0,32.5,0,48.7,0c0.8,0,1.6,0,2.4,0c1.4,0,2,0.6,2,2.1c0,17.2,0,34.3,0,51.5c0,0.3,0,0.6-0.1,0.8
		c-1,0.9-2.2,0.6-3.3,0.6c-16.6,0-33.3,0-49.9,0c-1,0-2-0.2-2.9,0.3c-0.1,0.2-0.3,0.4-0.4,0.7c-0.4,0.9-0.2,1.8-0.2,2.8
		c0,13.4,0,26.9,0,40.3c0,1.1,0.1,2.1-0.1,3.2c0,0.3-0.1,0.5-0.3,0.8c-0.4,0.5-0.9,0.6-1.5,0.5c-16.4-0.1-32.7,0-49.1,0
		c-0.5,0-1,0-1.5,0.2c-1.5,0.2-2.3,0-2.3-1.9c0.1-14.8,0-29.7,0.1-44.5c0-0.5-0.3-1.1,0.1-1.4c-0.5,0.5-0.1,1.4-0.2,2.1
		c0,14.6,0,29.1,0,43.7c0,0.8,0.2,1.6-0.2,2.3l-0.2,0.1l-0.2-0.1c-1.1-1-0.8-2.4-0.8-3.6c0-13.4,0-26.9,0-40.3c0-0.7,0-1.4,0-2.2
		c0-1.3-0.6-1.8-1.9-1.8c-0.7,0-1.4,0-2.2,0c-15.3,0-30.6,0-45.9,0C113.8,178.8,112.4,179.2,111.4,177.9z"/>
	<path class="st19" d="M111.4,177.9c16.5,0,33,0,49.5,0.1c4.8,0,4.7,0,4.8,4.8c0,14.6,0,29.3,0,43.9c-1.9,0-3.7,0.1-5.6,0.1
		c-20,0-40,0-60.1,0c-0.7,0-1.4,0-2.4,0C104.4,210.9,109,194.7,111.4,177.9z"/>
	<path class="st19" d="M165.7,73c0,15.8,0,31.5,0,47.3c0,0.9-0.1,1.7-0.1,2.6c-0.4,0.6-1.1,0.3-1.6,0.3c-17.5,0-34.9,0-52.4,0
		c-0.5,0-1.2,0.2-1.6-0.3c-1.6-6.6-3.2-13.2-5.4-19.7c-3-8.8-6.8-17.3-11.2-25.6c-0.2-0.4-0.6-0.8-0.5-1.4c3.8,0.4,7.5,0.9,11.3,1.1
		c20.5,1.1,40.9,0.3,61-4.3C165.3,72.9,165.5,73,165.7,73z"/>
	<path class="st19" d="M278,177.9c0,15.8,0,31.6,0.1,47.3c0,1.8-0.9,1.5-2,1.5c-11.4,0-22.8,0-34.2,0c-7,0-13.9-0.1-20.9-0.1
		c0-0.3-1,0-0.5-0.7l-0.1,0c0.2-0.8,0.1-1.6,0.1-2.3c0-14.4,0-28.9,0-43.3c0-0.7-0.3-1.6,0.3-2.2l-0.1,0.1c0.2-0.2,0.4-0.4,0.7-0.5
		c6.4-0.2,12.9-0.1,19.3-0.1c11.5,0,22.9,0,34.4,0C276.1,177.7,277.1,177.5,278,177.9z"/>
	<path class="st19" d="M220.8,69.1c0.1-0.1,0.1-0.3,0.2-0.4c9.4,3.9,19,7.2,29,9.2c5.8,1.2,11.7,2.3,17.6,2.5
		c1.6,0.5,3.2,0.4,4.9,0.3c0.2,0,0.4,0.1,0.6,0.1c1.6,0.1,3.6-0.3,4.6,0.5c1.1,1,0.3,3.1,0.3,4.7c0,12.2,0,24.3-0.1,36.5
		c-0.4,0.9-1.2,0.6-1.9,0.6c-17.8,0-35.6,0-53.5,0c-0.5,0-1,0.2-1.4-0.3c-0.1-0.1-0.2-0.2-0.3-0.4c-0.6-0.4-0.3-1.1-0.3-1.6
		c0-16.7,0-33.4,0-50.1C220.6,70.2,220.4,69.6,220.8,69.1z"/>
	<path class="st20" d="M288,80.7c3,0.2,6-0.5,9-0.5c1-0.1,1.2,0.5,1.2,1.3c-0.1,1.1,0,2.3,0,3.4c0,45.1,0,90.1,0,135.2
		c0,1.1,0,2.2,0,3.2c0,0.3,0.2,0.6,0.1,0.8c-0.2,0.7,0.1,0.9,0.7,1c0.2,0.4,0.2,0.8-0.2,1.2c-0.4,0.2-0.9,0.1-1.3,0.1
		c-2.2-0.8-4.4-1.1-6.7-0.8c-2.8,0.3-5.6,0.1-8.4,0.8c-0.3,0.1-0.6,0.1-0.9-0.1l0,0c-0.3-0.8-0.2-1.7-0.2-2.6c0-47.2,0-94.4,0-141.6
		c0.5-2.1,2.2-0.8,3.3-1.1c0.1,0,0.1,0.1,0.2,0.1c0.2-0.1,0.2-0.2,0.1-0.3c0.1-0.1,0.2-0.2,0.4-0.2C286.1,80.7,287.1,80.7,288,80.7z
		"/>
	<path class="st21" d="M221.2,122.8c18.1,0,36.1,0,54.2-0.1c0.8,0,1.7,0.1,2.5-0.2c0,3.9,0.1,7.7,0.1,11.6c0,13.9,0,27.8,0,41.7
		c0,0.7-0.1,1.4-0.1,2.1c-18.3,0-36.6,0-55,0c-0.6,0-1.1-0.1-1.7-0.1c0.6-0.7,1.5-0.3,2.2-0.3c17.3,0,34.5,0,51.8,0
		c0.8,0,1.6,0.2,2.3-0.2c0-17.3,0-34.6,0.1-51.9c0-2-1-2-2.4-2c-17.2,0-34.5,0-51.7,0C222.8,123.3,221.8,123.7,221.2,122.8z"/>
	<path class="st22" d="M281.7,81.6c0,0.9-0.1,1.9-0.1,2.8c0,46.4,0,92.8,0,139.2c0,0.9-0.1,1.9-0.1,2.8c-0.1,0-0.2-0.1-0.3-0.2
		c0-0.8,0.1-1.6,0.1-2.4c0-46.8,0-93.6,0-140.4c0-0.7-0.1-1.4-0.1-2.1c0.1-0.2,0.2-0.3,0.4-0.3C281.7,81.2,281.7,81.4,281.7,81.6z"
		/>
	<path class="st23" d="M220.5,226c0.1,0.3,0.6,0.3,0.5,0.7c-9.9,0-19.8,0.1-29.7,0.1c-8.4,0-16.8-0.1-25.2-0.1c0-16,0-32.1,0-48.5
		c0.6,1.1,0.4,1.9,0.4,2.6c0,14.5,0,29,0,43.5c0,1.8,0.6,2.4,2.2,2.1c0.5-0.3,1.1-0.2,1.7-0.2c15.8,0,31.6,0,47.5,0
		c0.6,0,1.2-0.1,1.7,0.2C219.8,226.2,220.2,226.1,220.5,226z"/>
	<path class="st21" d="M110,122.8c18.5,0,37,0,55.6,0c-0.6,1-1.6,0.5-2.4,0.5c-16.9,0-33.7,0-50.6,0c-1,0-2.3-0.3-2.3,1.4
		C110,124.2,110,123.5,110,122.8z"/>
	<path class="st24" d="M111.7,176.7c0.7,0.9,1.7,0.5,2.6,0.5c16.2,0,32.4,0,48.7,0c0.7,0,1.4,0,2.1,0c0,0.1,0,0.2,0,0.4
		c-17.9,0-35.7,0-53.6,0C111.6,177.3,111.6,177,111.7,176.7z"/>
	<path class="st6" d="M281.5,81.2c-0.1,0-0.3,0-0.4,0.1c1.2-1.4,2.7-0.4,4-0.6c-0.1,0.1-0.2,0.2-0.3,0.3
		C283.8,81.6,282.7,81.3,281.5,81.2z"/>
	<path class="st25" d="M426,436.3c-0.1,0.9-0.8,1.1-1.3,1.6c-15.6,11.6-33,19.5-51.5,25.2c-1.6,0.5-3.3,0.9-5,1.3
		c-0.9-1.1-0.6-2.5-0.6-3.7c0-50.9,0-101.8,0-152.7c0-1.7-0.6-3.6,0.5-5.2c0.6-0.1,1.2-0.1,1.8-0.2c0.9-0.4,1.8-0.1,2.8-0.1
		c16.1,0,32.2,0,48.2,0c1.7,0,3.4-1.1,5,0.2l0,0.1c1,1,0.6,2.3,0.6,3.5c0,42.1,0,84.2,0,126.4C426.5,433.8,426.8,435.2,426,436.3z"
		/>
	<path class="st25" d="M193.7,464.7c-10.4-2.7-20.5-6.3-30.3-10.8c-8.8-4-17.2-8.8-25.1-14.5c-0.5-0.3-0.9-0.7-1.3-1.1
		c0.1-0.1,0.3-0.2,0.5-0.3c1.1-0.7-0.2-1.4,0-2.1c-0.1-17.4,0-34.8,0-52.1c0-24.6,0-49.3,0-73.9c0-1.1,0.1-2.2-0.1-3.2
		c-0.2-0.5-0.4-1.1-0.4-1.6c0-0.3,0.1-0.5,0.3-0.8c0.6-0.9,1.5-1,2.5-1c17.2,0.1,34.4-0.1,51.6,0.1c0,0,0-0.1,0.1-0.2
		c0.3,0-0.2-0.4,0-0.2c0.1,0.1,0,0.1-0.2,0.2c-0.7,0.2-1.4,0.1-2.1,0.1c-16.3,0-32.6,0-48.9,0c-0.9,0-1.9-0.2-2.7,0.3
		c-0.7,0-0.6-0.5-0.5-0.9c0.6-0.1,1.2-0.1,1.9-0.2c0.6-0.2,1.1-0.1,1.7-0.1c17.4,0,34.8,0,52.2,0c0.6,0,1.1-0.1,1.7,0.2l0,0.1
		c0.2,0.2,0.2,0.5,0.2,0.8c0,52.4,0,104.9,0,157.3c0,0.6,0,1.1,0,1.7c0,0.2,0.1,0.5,0.1,0.7c0,0.3-0.1,0.7-0.4,0.7
		c-1.1-0.1,0,0.6-0.3,0.7C194,464.8,193.8,464.8,193.7,464.7z"/>
	<path class="st26" d="M368.1,302.7c0,52.9,0,105.7,0,158.6c0,1,0,2,0,3c-0.1,0-0.3,0.1-0.4,0.1c-0.4-0.8-0.2-1.7-0.2-2.5
		c0-51.1,0-102.3,0-153.4c0-0.6,0-1.1,0-1.2c0,0.2,0,0.9,0,1.6c0,51.1,0,102.3,0,153.4c0,0.8,0.2,1.6-0.2,2.3
		c-8,2.4-16.2,4-24.5,5.4c-10.7,1.7-21.5,3.2-32.4,3.3c-0.6-0.6-0.5-1.5-0.5-2.2c0-12.4-0.1-24.8,0-37.2c0.1-0.5,0.2-1,0.5-1.4
		c0.5-0.6,1.2-0.9,1.8-1.3c0.7-0.4,1.2-0.9,1.9-1.4c0.8-0.5,1.5-1.1,2.3-1.7c1.9-1.9,4-3.7,5.7-5.8c0.2-0.3,0.4-0.6,0.7-0.9
		c0.6-0.6,1.2-1.2,1.6-1.9c0.3-0.4,0.6-0.7,0.9-1.1c0.4-0.5,0.8-1.1,1-1.7c0.2-0.3,0.3-0.7,0.6-0.9c0.5-0.5,0.9-1.1,1.2-1.8
		c0.1-0.2,0.2-0.3,0.3-0.5c1-1.9,1.9-3.8,2.8-5.7c0.3-0.7,0.5-1.4,0.9-2.1c0.3-0.6,0.5-1.3,0.7-1.9c0.2-0.6,0.4-1.1,0.4-1.7
		c0.1-0.7,0.3-1.4,0.6-2c0.3-0.9,0.6-1.9,0.7-2.9c0-0.3,0.1-0.6,0.2-0.9c0.2-0.5,0.2-1,0.3-1.5c0-0.4,0.1-0.8,0.2-1.3
		c0.3-0.8,0.2-1.5,0.2-2.3c0-1.3,0-2.7,0-4c0-0.9,0-1.7,0-2.6c0-1.2,0-2.5,0-3.7c0-2-0.6-3.9-0.9-5.9c-0.4-2.5-1.1-4.8-1.9-7.2
		c-0.1-0.2-0.1-0.4-0.2-0.6c-0.2-0.9-0.5-1.8-1-2.7c-0.4-0.8-0.8-1.7-1.3-2.5c-0.1-0.2-0.2-0.3-0.3-0.5c-0.8-1.5-1.2-3.1-2.5-4.3
		c-3-4.4-6.2-8.5-10.2-12.1c-1.8-1.6-3.7-3.1-5.7-4.5c-0.8-0.6-1.5-1.1-1.6-2.2c-0.1-11.1,0-22.2,0-33.3c0-0.8-0.1-1.7,0.5-2.4
		c2.6,0,5.2-0.1,7.8-0.1c15.7,0,31.3,0,47,0C366.1,302.6,367.1,302.7,368.1,302.7z"/>
	<path class="st26" d="M252.6,473.6c-10.7-0.5-21.4-1.5-32-3.1c-8.7-1.4-17.3-3-25.8-5.4c-0.1-0.3-0.2-0.5-0.1-0.8
		c-0.1-18,0-36,0-54c0-34.9,0-69.8,0-104.7c0-0.6,0-1.3,0-1.9c0-0.3,0.1-0.6,0.1-0.8c19,0,37.9,0,56.9,0c0.4,1.8,0.2,3.7,0.2,5.5
		c0,8.9,0,17.8,0,26.6c0-4.4,0-8.9,0-13.3c0-5.9,0.1-11.7,0-17.6c0-0.4,0-0.9,0.2-1.2c0.1,0,0.3-0.1,0.4-0.1c0.6,0.5,0.7,1.3,0.7,2
		c0,10.8,0.2,21.5-0.1,32.3c-0.1,0.4-0.2,0.7-0.4,1c-0.1,0.1-0.2,0.1-0.4,0.1c-0.5,0-0.3-0.5-0.5-0.7c0,0.3,0.1,0.7,0,1
		c-0.6,1-1.6,1.4-2.5,2c-14,9.7-22.1,23.1-23.8,40c-1.6,15.8,3.1,29.7,13.4,41.7c3.4,4,7.4,7.1,11.6,10.1c0.7,0.5,2.1,0.8,1.3,2.2
		c0,12.2,0,24.5,0,36.7c0-0.6,0-1.3,0-1.9c0-11.1,0-22.1,0-33.2c0-0.6-0.1-1.3,0.1-1.9c0.2-0.2,0.5-0.2,0.7,0
		c0.5,0.7,0.5,1.5,0.5,2.3c0,11.5,0,23,0,34.6C253.3,471.9,253.4,472.9,252.6,473.6z"/>
	<path class="st26" d="M137.1,302.7c0,0.3,0.1,0.5,0.1,0.8c0.4,0.4,0.3,0.9,0,1.3c-0.1,0.1-0.1,0.3,0,0.4c0.4,0.9,0.4,1.9,0.4,2.9
		c0,42.7,0,85.4,0,128.2c0,0.7,0.2,1.5-0.4,2.1c-0.1-0.1-0.1-0.1-0.2-0.1c-3.5-2.1-6.6-4.8-9.6-7.5c-15.6-13.9-27.2-30.5-34.6-50.1
		c-5.3-14-8.2-28.4-9.5-43.3c-0.7-8.6-0.8-17.2-0.6-25.8c0-2.6,0.5-5.3,0.8-7.9c0.1-0.6,0.4-0.9,0.8-1.2c0.2-0.2,0.3-0.2,0.5,0
		c16.6,0,33.1,0,49.7,0.1C135.2,302.6,136.1,302.7,137.1,302.7z"/>
	<path class="st26" d="M426,436.3c0-2.7-0.1-5.4-0.1-8.2c0-41.8,0-83.6,0-125.4c0.2,0,0.3,0,0.5,0c0.4,1.6,0.9-0.5,1.3,0
		c16,0,32.1,0,48.1-0.1c1.1,0,1.5,0.6,1.9,1.3l0,0c0.6,6.4,1,12.9,0.8,19.3c-0.5,20.9-3.6,41.2-11.6,60.6
		c-7.4,18-18.3,33.5-32.9,46.4C431.4,432.5,429.1,434.9,426,436.3z"/>
	<path class="st25" d="M252.6,473.6c0-13.2,0-26.3,0-39.5c0.7-0.4,1.3-0.1,1.8,0.2c5.7,2.9,11.7,4.9,18,5.9c0.4,0.1,0.8,0.2,1.2,0.4
		c3.3,0.3,6.6,1.2,9.9,0.4c1.4-0.2,2.8,0.1,4.2-0.3c1-0.3,2.2-0.1,3.1-0.8c0.8-0.3,1.6-0.5,2.5-0.5c1.5,0.1,2.9-0.2,4.1-1.2
		c0.6-0.3,1.3-0.5,2-0.7c1.6,0,3-0.8,4.2-1.8c0.2-0.1,0.3-0.2,0.5-0.3c0.8-0.2,1.6-0.5,2.2-1.1c0.2-0.1,0.3-0.2,0.5-0.2
		c1-0.1,1.7-0.7,2.6-1.1c0.3-0.1,0.6-0.1,0.8,0.2c0,13.4,0,26.8,0.1,40.2c-4,0.7-8,0.3-12,0.3c-0.7-0.4-1.5-0.2-2.3-0.2
		c-7.9,0-15.9,0-23.8,0c-0.8,0-1.6-0.2-2.3,0.2C264.1,473.7,258.4,473.6,252.6,473.6z"/>
	<path class="st25" d="M252.7,337.5c0-11.6,0-23.2,0-34.8l0.1-0.1c1.3-0.4,2.7-0.2,4-0.2c17-0.1,33.9,0.1,50.9-0.1
		c0.4,0,0.7,0.1,1,0.2c0.6,0.1,1.1,0.1,1.7,0.2c0,12.1,0,24.2,0,36.4c-1,0.5-1.7-0.2-2.4-0.6c-8.2-4.9-17.2-7.4-26.6-7.6
		c-9.2-0.2-17.9,1.8-26.2,6C254.4,337.3,253.7,338.2,252.7,337.5z"/>
	<path class="st7" d="M280.2,300c28.5,0,57,0,85.5,0c0.6,0,1.7-0.6,1.7,0.8c0,1.2-0.8,1.3-1.8,1.3c-0.4,0-0.7,0-1.1,0
		c-3.9,0-7.8,0-11.6,0c-12,0-24,0-36,0c-2.1,0-4.3,0.2-6.2-0.7c-1.6-0.8-3.3-0.6-5-0.6c-15.1,0-30.3,0-45.4,0c-2.3,0-4.7,1-7.1-0.1
		c-0.3-0.1-1.1,1-1.7,1.1c-1.2,0.3-2.4,0.3-3.6,0.3c-16.8,0-33.6,0-50.4,0c-1,0-2.3,0.5-2.9-1c-0.1-0.4-0.8-0.2-1.2-0.2
		c-0.3,0-1,0.9-1-0.3c0-0.9,0.6-0.6,1.1-0.6c0.4,0,0.9,0,1.3,0C223.4,300,251.8,300,280.2,300z"/>
	<path class="st7" d="M84.6,302.6c-0.2,0-0.3,0-0.5,0c-2.4-1.3-1.1,0.8-1.4,1.6c-1.1-0.9-1.1-2.1-1.5-3.4c2.2,0.2,4.2,1.7,6.5,0.3
		c-1.2-0.2-2.2-0.4-3.3-0.6c0-0.1,0-0.1,0-0.2c17.1,0,34.3,0,51.4,0c-0.2,0.5-0.7,0.5-1.3,0.5c-0.6,0-1.7-0.5-1.4,1.1
		c0.1,0.6-1,0.3-1.6,0.3c-14.8,0-29.7,0-44.5,0C86.3,302.2,85.4,301.9,84.6,302.6z"/>
	<path class="st7" d="M477.6,303.9c-0.2-1.9-1.8-2.8-3.3-2c-0.5,0.2-1.1,0.2-1.7,0.2c-13.9,0-27.9,0-41.8,0c-0.5,0-1.6,0.6-1.6-0.7
		c0-1.1,0.5-1.4,1.6-1.4c14.8,0.1,29.6,0.1,44.3,0.1c1.4,0,2.9-0.5,4.4,0.2c-0.7,1.3-1.8-0.4-2.6,0.7c1.1,0.3,1.6,1.1,1.8,2.1
		C478.9,304.2,478.4,304.2,477.6,303.9L477.6,303.9z"/>
	<path class="st7" d="M425.9,302.6c-18.7,0-37.3,0-56-0.1c-0.6-0.7,0.3-2.1-1.2-2.4c18.2,0,36.4,0,54.8,0c-0.9,1.1-2,0.7-2.9,0.7
		c-15.4,0-30.7,0-46.1,0c-1.2,0-2.4,0-3.5,0.7c0.4,0.9,1.1,0.5,1.7,0.5c16.1,0,32.3,0,48.4,0c0.7,0,1.5,0.2,2-0.5
		c1.3-1.9,3.3-1.8,5.2-1.6c-0.6,1.1-0.7,3.4-2.7,1C424.8,301.9,425.9,302.1,425.9,302.6z"/>
	<path class="st27" d="M194.9,302.7c0,0.1,0,0.3,0.1,0.4c0.3,0.7,0.1,1.4,0.1,2.1c0,52.4,0,104.8,0,157.3c0,0.7,0.1,1.4-0.1,2.1
		c0,0.1-0.1,0.3-0.1,0.4c-0.5,0.1-0.9,0.1-1.2-0.3c0.1,0,0.3-0.1,0.4-0.1c0.3-0.2,0.1-0.6,0.4-0.8c0-0.2,0-0.3,0-0.5
		c-0.3-0.8-0.2-1.6-0.2-2.3c0-51.9,0-103.7,0-155.6c0-0.8-0.2-1.6,0.2-2.3c0-0.1,0-0.2,0-0.4C194.6,302.7,194.8,302.7,194.9,302.7z"
		/>
	<path class="st28" d="M367.3,464.7c0-52.7,0-105.4,0-158.1c0.1,0,0.3,0,0.4,0c0,52.6,0,105.3,0,157.9
		C367.6,464.6,367.4,464.6,367.3,464.7z"/>
	<path class="st7" d="M191.6,300.4c-0.7,0.8-1.6,0.5-2.4,0.5c-14.9,0-29.7,0-44.6,0c-1.5,0-3-0.2-4.5,0.3c-0.4,0.2-0.9-0.1-1-0.6
		c-0.1-0.6,0.4-0.6,0.8-0.6c0.3,0,0.6,0,0.9,0c16.4,0,32.9,0,49.3,0C190.6,300.1,191.1,299.8,191.6,300.4z"/>
	<path class="st7" d="M308.7,302.6c-10.8,0-21.7,0.1-32.5,0.1c-7.8,0-15.6,0-23.5,0c0.8-0.8,2-0.6,2.9-0.6c16.6,0.4,33.2,0,49.8,0.2
		C306.4,302.3,307.7,301.1,308.7,302.6z"/>
	<path class="st7" d="M194.5,302.6c-18.5,0-37.1,0-55.6,0c0.7-0.6,1.5-0.4,2.3-0.4c17,0,34,0,51,0
		C193,302.2,193.8,301.9,194.5,302.6z"/>
	<path class="st29" d="M252.2,302.7c0,10.7,0,21.4,0,32.2c-0.1,0-0.3,0-0.4,0c0-2.1,0-4.3,0-6.4c-0.1-8.3,0.2-16.6-0.2-24.9
		c0-0.3,0.1-0.6,0.2-0.8C251.9,302.7,252.1,302.7,252.2,302.7z"/>
	<path class="st30" d="M269.9,473.7c0.5-0.6,1.2-0.4,1.8-0.4c8.3,0,16.5,0,24.8,0c0.6,0,1.3-0.2,1.8,0.4
		C288.9,473.7,279.4,473.7,269.9,473.7z"/>
	<path class="st31" d="M427.6,302.7c-0.4,0.3-0.8,0.5-1.1,0.8c0-0.3-0.1-0.5-0.1-0.8C426.8,302.7,427.2,302.7,427.6,302.7z"/>
	<path class="st1" d="M341.2,279.8c-2.1,0-4.2,0-6.2,0c-0.9,0-1.3-0.3-1.2-1.3c0-3.2,0.1-6.3,0-9.5c0-1.1,0.5-1.3,1.4-1.3
		c4.1,0,8.2-0.1,12.3,0.1c3.9,0.1,5.7,2.1,5.8,5.8c0,3.7-1.9,5.9-5.7,6.1C345.4,279.9,343.3,279.8,341.2,279.8
		C341.2,279.8,341.2,279.8,341.2,279.8z"/>
	<path class="st1" d="M347.9,249.6c2.6,0.4,3.8,1.7,3.7,4.1c0,2.4-1.3,3.9-3.9,4c-4.3,0.2-8.6,0.1-12.9,0.1c-0.6,0-1.2-0.1-1.1-0.9
		c0.2-2.5-0.4-5,0.3-7.4C338.7,249.7,343.3,249.6,347.9,249.6z"/>
	<path class="st32" d="M347.9,249.6c-0.6,0.7-1.3,0.4-2,0.4c-3.3,0-6.6,0-9.9,0c-0.7,0-1.5,0.2-2-0.5
		C338.7,249.2,343.3,249.2,347.9,249.6z"/>
	<path class="st18" d="M358.3,226.7c-6.3,0-12.6,0-19,0c-0.4-0.5-0.5-1-0.3-1.6c0.2-1,0.1-2,0.1-3c0-49.8,0-99.5,0-149.3
		c0-0.9,0-1.7-0.1-2.6c-0.1-0.3-0.1-0.5-0.2-0.8c0-0.1,0-0.3,0-0.4c6.6-3,13-6.3,19.4-9.9c1,1.1,0.6,2.5,0.6,3.7
		c0,46.2,0,92.5,0,138.7c0,7.4,0,14.8,0,22.2C358.8,224.8,359,225.9,358.3,226.7z"/>
	<path class="st20" d="M360,59.3c6.1,3.2,12.2,6,18.6,8.6c0.2,0.4,0.3,0.8,0.2,1.2c-0.1,1.3-0.1,2.6-0.1,3.9c0,49.5,0,99,0,148.4
		c0,4.7,0,4.7-4.8,4.7c-4.7,0-9.3,0-14,0c-0.8-0.3-0.9-1.1-0.9-1.8c-0.1-0.7,0-1.4,0-2.2c0-53,0-106,0-159.1
		C359,61.8,358.4,60.2,360,59.3z"/>
	<path class="st18" d="M379,68.1c6.4,2,12.8,4.1,19.3,5.6c0.1,0.3,0.2,0.5,0.2,0.8c-0.1,1.4-0.1,2.7-0.1,4.1c0,47.9,0,95.8,0,143.7
		c0,4.3,0,4.3-4.3,4.3c-5,0-10.1,0.1-15.1,0c-0.6-0.4-0.6-0.9-0.5-1.5c0.3-1.3,0.2-2.7,0.2-4.1c0-50.7,0-101.3,0-152
		C378.7,68.6,378.8,68.3,379,68.1z"/>
	<path class="st20" d="M398.7,73.8c6.3,1.1,12.7,2.2,19.1,2.8c0.8,0.5,0.9,1.3,0.9,2.1c0,0.9,0,1.7,0,2.6c0,46.9,0,93.7,0,140.6
		c0,1.3,0.2,2.6-0.2,3.9c-0.5,0.9-1.3,1-2.2,0.8c-5-0.2-9.9,0-14.9-0.1c-2.6,0-2.8-0.2-2.8-2.8c0-4.5,0-8.9,0-13.4
		c0-45.2,0-90.3,0-135.5C398.6,74.4,398.7,74.1,398.7,73.8z"/>
	<path class="st18" d="M300.1,79.8c5.9-1,11.8-2.1,17.6-3.5c1-0.4,1.3,0.3,1.4,1.1c0.2,0.8,0.1,1.6,0.1,2.4c0,47.7,0,95.5,0,143.2
		c0,0.4,0,0.9,0,1.3c0.1,1.7-0.5,2.4-2.4,2.4c-5.6-0.2-11.2,0.1-16.8-0.2c-0.7-0.8-0.6-1.7-0.6-2.7c0-47.1,0-94.2,0-141.3
		C299.5,81.5,299.4,80.6,300.1,79.8z"/>
	<path class="st20" d="M338.9,226.7c-6.5,0-12.9,0-19.4,0c-0.2-0.2-0.2-0.4-0.2-0.7c0.1-1.1,0-2.2,0.3-3.3c0.1-0.6,0.1-1.1,0.1-1.7
		c0-47.6,0-95.1,0-142.7c-0.1-0.7-0.2-1.4-0.3-2.2c0-0.1,0-0.2,0-0.3c6.3-2,12.5-4.1,18.6-6.5c0.2,0.2,0.4,0.4,0.5,0.7
		c0.3,1.3,0.2,2.6,0.2,3.9c0,49.7,0,99.4,0,149.2c0,0.8,0.2,1.6,0.4,2.3C339,225.9,339.2,226.3,338.9,226.7z"/>
	<path class="st18" d="M418.2,225.9c0-1.4,0.1-2.9,0.1-4.3c0-47.5,0-94.9,0-142.4c0-0.9,0.3-1.9-0.4-2.7c6.6,0.6,13.2,0.9,19.8,1.1
		c0.8,0.4,0.8,1.1,0.7,1.8c-0.2,0.6-0.4,1.2-0.7,1.8c-0.4,0.9-0.3,1.8-0.3,2.8c0,45.5,0,91,0,136.4c0,1.7,0.4,3.4,0.5,5.1
		c0,0.9-0.7,1-1.3,1c-5.4,0-10.8,0-16.3,0c-1.2,0-1.5-0.5-1.4-1.6c0-48.9,0-97.8,0-146.7c0,48.8,0,97.6,0,146.3
		c-0.1,0.7,0.2,1.4-0.2,2l-0.2,0.1l-0.2-0.1C417.8,226.5,417.9,226.2,418.2,225.9z"/>
	<path class="st20" d="M440.6,77.8c9.2,0,18.4-0.2,27.7-1.9c-26.8,49.5-26.1,99.8-5.4,150.8c-8.3,0-16.4,0-24.5,0
		c-0.1-0.2-0.2-0.5-0.2-0.8c0-47.4,0-94.9,0-142.4c0-1.1,0-2.3,0-3.4C438.3,78.6,438.9,77.7,440.6,77.8z"/>
	<path class="st33" d="M298.8,225.1c-0.2,0.2-0.6,0.5-0.6,0.4c-0.5-0.3-0.1-0.9-0.2-1.3c-0.4-0.7-0.2-1.6-0.2-2.3
		c0-46.1,0-92.3,0-138.4c0-0.8-0.2-1.6,0.2-2.3c-0.2-0.4-0.5-0.7-0.9-0.9c0.6-0.3,1.2-0.3,1.8-0.3c0.7,0.8,0.6,1.7,0.6,2.6
		c0,46.6,0,93.2,0,139.9C299.4,223.3,299.5,224.3,298.8,225.1z"/>
	<path class="st34" d="M360,225.9c1-0.6,2.1-0.4,3.2-0.4c4.3,0,8.6-0.1,12.9,0c1.6,0,2.1-0.5,2.1-2.1c-0.1-8.8,0-17.5,0-26.3
		c0-41.9,0-83.9,0-125.8c0-0.9-0.3-1.9,0.3-2.7c0.6,0.6,0.5,1.5,0.5,2.2c0,50.7,0,101.5,0,152.2c0,1.2-0.1,2.4-0.4,3.6
		c-6.5,0-12.9,0-19.4,0c-0.1-0.1-0.1-0.3,0-0.4C359.3,226,359.7,226.2,360,225.9z"/>
	<path class="st35" d="M379,226.4c5.5,0,11.1-0.1,16.6,0c1.9,0,2.4-0.5,2.4-2.4c-0.1-29.9,0-59.7,0-89.6c0-19.2,0-38.5,0-57.7
		c0-0.8-0.3-1.7,0.4-2.5c0.7,0.7,0.5,1.6,0.5,2.5c0,49.3,0,98.5,0,147.8c0,0.8,0.2,1.6-0.4,2.3c-6.5,0-12.9,0-19.4,0
		c-0.1-0.1-0.2-0.2-0.1-0.2C378.9,226.4,378.9,226.4,379,226.4z"/>
	<path class="st36" d="M300.1,226.3c5.3,0,10.6-0.1,15.9,0.1c2.1,0.1,2.6-0.5,2.6-2.6c-0.1-26.6,0-53.1,0-79.7c0-21.8,0-43.5,0-65.3
		c0-0.9,0.6-2.1-0.9-2.5C318,76,318.5,76,319,76c0.7,1,0.6,2.2,0.6,3.3c0,47.4,0,94.8,0,142.1c0,1.8,0.2,3.6-0.6,5.3
		c-6.4,0-12.9,0-19.3,0c-0.1-0.1-0.1-0.2-0.1-0.3c0-0.1,0-0.2,0.1-0.2C299.8,226.2,299.9,226.2,300.1,226.3z"/>
	<path class="st37" d="M359.2,226.3c0,0.1,0,0.2-0.1,0.3c-0.1,0-0.3,0-0.4,0c-0.4-0.8-0.2-1.6-0.2-2.3c0-54.4,0-108.8,0-163.1
		c0-0.8-0.2-1.6,0.2-2.3c0.3-0.2,0.6-0.2,0.9,0.1c-0.3,1-0.2,2-0.2,3c0,54,0,108,0,162C359.3,224.8,359.5,225.6,359.2,226.3z"/>
	<path class="st38" d="M359.2,226.3c0-1-0.1-2-0.1-3c0-53.9,0-107.8,0-161.7c0-0.9-0.3-1.9,0.4-2.7c0.1,0.1,0.3,0.2,0.4,0.3
		c-0.5,0.8-0.4,1.6-0.4,2.5c0,54,0,108,0,161.9c0,0.8-0.3,1.6,0.4,2.2C359.8,226.2,359.5,226.3,359.2,226.3z"/>
	<path class="st39" d="M358.6,58.9c0,1.9,0,3.7,0,5.6c0,54.1,0,108.1,0,162.2l-0.2,0.1l-0.2-0.1c0-55.8,0-111.7,0-167.5
		C358.4,59.1,358.5,59,358.6,58.9z"/>
	<path class="st40" d="M437.5,80.7c0-0.5-0.1-1,0.4-1.3c0.7,0.6,0.5,1.5,0.5,2.2c0,47.5,0,95,0,142.5c0,0.9,0.1,1.7-0.4,2.5
		c-6.5,0-12.9,0-19.4,0c0-0.5,0-1.1,0-1.6c0.1-0.2,0.3-0.2,0.4,0c-0.1,1.1,0.5,1.3,1.5,1.3c5.2,0,10.4,0,15.6,0
		c0.7,0,1.3,0.1,1.4-0.9c-0.4-1.5-0.4-3.1-0.4-4.7c0-45.7,0-91.5,0-137.2C437.1,82.6,436.9,81.6,437.5,80.7z"/>
	<path class="st41" d="M379,226.4c0,0.1,0,0.2,0,0.3c-0.1,0-0.3,0-0.4,0c0-52.2,0-104.4,0-156.6c0-0.5,0-1-0.1-1.5
		c0-0.3,0.1-0.5,0.1-0.8c0.2,0.1,0.3,0.2,0.5,0.3c0,0.2,0,0.4,0,0.5c0.3,0.8,0.2,1.6,0.2,2.3c0,50.6,0,101.1,0,151.7
		c0,0.8,0.2,1.6-0.2,2.3C379,225.5,379,225.9,379,226.4z"/>
	<path class="st42" d="M338.8,225.5c-0.7-0.3-0.7-0.7-0.4-1.3c-0.4-0.8-0.2-1.7-0.2-2.5c0-49.7,0-99.5,0-149.2
		c0-0.8,0.2-1.7-0.2-2.5c0-0.2,0-0.3,0-0.5c0.3-0.1,0.6-0.3,0.9-0.4v0.1c0.5,0.9,0.4,1.8,0.4,2.7c0,50.3,0,100.6,0,150.9
		C339.3,223.7,339.5,224.7,338.8,225.5z"/>
	<path class="st43" d="M338.8,225.5c0-1.7,0-3.4,0-5.2c0-49.7,0-99.4,0-149c0-0.7,0-1.4,0-2.2c0.2,0.1,0.3,0.3,0.5,0.4
		c0.3,0.8,0.1,1.6,0.1,2.4c0,50.4,0,100.8,0,151.2c0,0.8,0.1,1.6-0.2,2.3c0,0.4,0,0.8,0,1.2c-0.1,0-0.3,0-0.4,0
		C338.8,226.3,338.8,225.9,338.8,225.5z"/>
	<path class="st44" d="M398.3,226.7c0-50.3,0-100.6,0-151c0-0.5,0-1-0.1-1.5c0-0.2,0.1-0.4,0.1-0.5c0.1,0,0.3,0.1,0.4,0.1
		c0,0.1,0,0.3,0,0.4c0.3,0.8,0.2,1.7,0.2,2.6c0,48.8,0,97.7,0,146.5c0,0.9,0,1.7,0,2.6c0,0.3-0.1,0.6-0.2,0.8
		C398.6,226.7,398.5,226.7,398.3,226.7z"/>
	<path class="st45" d="M440.6,77.8c-2,0.5-1.7,2.1-1.7,3.6c0,15.4,0,30.7,0,46.1c0,32.1,0,64.3,0,96.4c0,0.8,0.3,1.7-0.3,2.5
		c-0.6-0.8-0.3-1.7-0.3-2.5c0-47.9,0-95.9,0-143.8c0-0.8-0.2-1.6,0.2-2.3C439.1,77.8,439.8,77.8,440.6,77.8z"/>
	<path class="st46" d="M319,226.7c0-39.7,0-79.4,0-119.1c0-10.5,0-21.1,0-31.7c0.1-0.1,0.2-0.1,0.4-0.1c0.1,0,0.2,0,0.3,0.1
		c0.4,3.6,0.2,7.2,0.2,10.8c0,44.4,0,88.8,0,133.2c0,2.2-0.2,4.3-0.4,6.4c0,0.1,0,0.3-0.1,0.4C319.3,226.7,319.2,226.7,319,226.7z"
		/>
	<path class="st47" d="M438.4,77.8c0,48.9,0,97.8,0,146.7c0,0.6,0.1,1.3,0.1,1.9c0,0.1-0.1,0.2-0.1,0.3c-0.1,0-0.3,0-0.4,0
		c0-48.3,0-96.6,0-144.9c0-0.8,0-1.6,0-2.4c0.2-0.6-0.1-1.2-0.3-1.7C437.9,77.7,438.1,77.7,438.4,77.8z"/>
	<path class="st48" d="M299.7,226.3c0,0.1,0,0.2,0,0.3c-0.1,0-0.3,0-0.4,0c-0.2-0.2-0.3-0.5-0.3-0.8c0-48,0-96,0-143.9
		c0-0.7-0.2-1.4,0.2-2.1c0.1,0,0.3,0,0.4,0c0.4,0.7,0.2,1.4,0.2,2.1c0,47.4,0,94.8,0,142.3C299.8,224.9,300,225.7,299.7,226.3z"/>
	<path class="st49" d="M299.7,226.3c0-1.8-0.1-3.6-0.1-5.4c0-47,0-94.1,0-141.1c0.1,0,0.3,0,0.4,0c0,48.8,0,97.7,0,146.5l-0.2,0
		L299.7,226.3z"/>
	<path class="st50" d="M299.2,79.9c0,48.8,0,97.6,0,146.4c-0.1,0.2-0.3,0.2-0.4,0c0-0.4,0-0.9,0-1.3c0-48.4,0-96.8,0-145.1
		C298.9,79.9,299.1,79.9,299.2,79.9z"/>
	<path class="st51" d="M398.8,226.7c0-0.1,0-0.2,0.1-0.4c5.9-0.3,11.7-0.3,17.6,0c0.6,0.1,1.2-0.1,1.8-0.4c0,0.3,0.1,0.5,0.1,0.8
		C411.8,226.7,405.3,226.7,398.8,226.7z"/>
	<path class="st22" d="M298.8,226.3c0.1,0,0.3,0,0.4,0c0,0.1,0.1,0.3,0.1,0.4c-5.7,0-11.4,0.1-17.1,0.1c-0.3,0-0.5-0.1-0.7-0.4
		c0.3,0,0.6,0,0.9-0.1c3.3-0.7,6.6-0.6,9.9-0.6c1.7,0,3.5-0.1,5.2,0.6C297.9,226.3,298.3,226.3,298.8,226.3z"/>
	<path class="st4" d="M267.2,78.9c0.8-0.5,1.4-0.5,2-0.1C268.4,79.3,268.4,79.3,267.2,78.9z"/>
	<path class="st24" d="M277.6,177.2c-0.7,0.7-1.6,0.4-2.4,0.4c-17.2,0-34.4,0-51.5,0c-0.8,0-1.6,0.1-2.3,0.2
		c-0.2,0.1-0.3,0.3-0.5,0.4c0.2-1.6,1.4-0.9,2.2-0.9c18.1,0,36.1,0,54.2,0C277.3,177.2,277.5,177.2,277.6,177.2z"/>
	<path class="st52" d="M220.8,69.1c0,0.9,0.1,1.9,0.1,2.8c0,16.9,0,33.7,0,50.6c-0.8-0.5-0.5-1.3-0.6-1.9c0-16.5,0-33,0-49.5
		C220.4,70.4,220.1,69.6,220.8,69.1z"/>
	<path class="st53" d="M219.5,226.3c-16.9,0-33.9,0-50.8,0c0.6-0.7,1.5-0.4,2.2-0.4c15.5,0,30.9,0,46.4,0
		C218,225.9,218.8,225.6,219.5,226.3z"/>
	<path class="st23" d="M166.1,121.9c0-16,0-32,0-48c0.1,0,0.1,0,0.2,0c0,16,0,32,0,48.1C166.3,122,166.2,121.9,166.1,121.9z"/>
	<path class="st52" d="M220.9,178.1c0,15.5,0,31,0,46.4c0,0.5,0.3,1.2-0.5,1.5c0-8.4-0.1-16.8-0.1-25.1c0-6.9,0-13.8,0-20.6
		C220.4,179.5,220,178.6,220.9,178.1z"/>
	<path class="st54" d="M297.9,81.1c0,47.7,0,95.4,0,143.1c-0.7-0.6-0.4-1.5-0.4-2.2c0-46.2,0-92.4,0-138.6
		C297.5,82.6,297.2,81.8,297.9,81.1z"/>
	<path class="st33" d="M297.5,226.3c-5,0-10.1,0-15.1,0c0-0.7,0.7-1.2,1.1-1.1c2.5,0.8,4.9-0.1,7.3-0.3c2.1-0.1,4,0.8,6.1,0.3
		C297.6,225.1,297.4,225.9,297.5,226.3z"/>
	<path class="st55" d="M281.5,81.2c1.1-0.4,2.2-0.3,3.4-0.2c0.3,0,0.6,0.1,0.8,0.1c0,0.1,0,0.2,0,0.4c-1.4,0-2.7,0-4.1,0
		C281.6,81.4,281.6,81.3,281.5,81.2z"/>
	<path class="st56" d="M194.5,303.1c0,12.4,0,24.8,0,37.3c0,41,0,82,0,123c-0.7-0.7-0.4-1.5-0.4-2.2c0-51.9,0-103.8,0-155.8
		C194.1,304.6,193.8,303.7,194.5,303.1z"/>
	<path class="st57" d="M137.2,438.4c0-0.6-0.1-1.3-0.1-1.9c0-43.2,0-86.3,0-129.5c0-0.6,0.1-1.1,0.1-1.7c0.4,0.2,0.4,0.5,0.5,0.9
		c0.4,0.8,0.2,1.7,0.2,2.5c0,42.1,0,84.3,0,126.4c0,0.7-0.3,1.4,0.2,2.1c0.5,0.2,0.8,0.5,0.5,1.1
		C138.1,438.9,137.6,438.3,137.2,438.4z"/>
	<path class="st58" d="M138,437.1c-0.9-0.5-0.4-1.3-0.4-2c0-43,0-86,0-129.1c0.8,0.8,0.4,1.8,0.4,2.7C138,351.5,138,394.3,138,437.1
		z"/>
	<path class="st57" d="M137.1,304.8c0-0.4,0-0.9,0-1.3c0.6-0.4,1.3-0.4,2.1-0.4c17.2,0,34.4,0,51.6,0c0.3,0,0.7,0.1,1.2,0.1
		c-1,0.5-1.8,0.3-2.5,0.3c-16.3,0-32.6,0-48.9,0C139.3,303.5,138.1,303.6,137.1,304.8z"/>
	<path class="st56" d="M194.5,463.8c0,0.4,0,0.7-0.4,0.8c-0.3-0.2-0.6-0.4-1.1-0.7C193.6,463.9,194,463.8,194.5,463.8z"/>
	<path class="st6" d="M252.7,337.5c6.1-3.2,12.4-5.6,19.2-6.6c13.2-1.9,25.5,0.6,37,7.3c0.5,0.3,1,0.5,1.5,0.8
		c3.6,2.6,7.1,5.4,10.2,8.7c2.6,2.8,5,5.8,7,9.1c1.2,1.4,1.6,3.3,2.7,4.7l0,0c0.4,1,0.8,2,1.4,3c0.3,0.8,0.4,1.7,1.2,2.3
		c0,0.1,0,0.2,0,0.3c0.5,2.6,1.3,5.1,1.9,7.6c0.1,2,0.6,3.9,0.9,5.9c0,1.2,0,2.5,0,3.7c0,0.9,0,1.7,0,2.6c0,1.3,0,2.6,0,3.9
		c-0.2,0.9-0.2,1.8-0.2,2.7c0,0.3,0,0.7,0,1c-0.3,0.5-0.5,1-0.4,1.6c0,0.2,0,0.5,0,0.7c-0.5,1-0.8,2-0.8,3.1
		c-0.2,0.7-0.3,1.4-0.5,2.1c-0.4,0.4-0.6,0.9-0.7,1.4c-0.2,0.6-0.4,1.2-0.7,1.9c-0.2,0.8-0.7,1.5-0.9,2.2c-0.8,2.1-2.1,4.1-2.9,6.2
		l0,0c-0.6,0.6-1,1.3-1.3,2.2c-0.1,0.3-0.3,0.5-0.4,0.8c-0.4,0.4-1,0.7-1.2,1.4c-0.4,0.5-1,0.9-1.3,1.4c-0.2,0.9-1.4,1.2-1.4,2.2
		c-0.2,0.2-0.3,0.4-0.5,0.6c-2.1,1.8-3.9,3.8-5.9,5.7c-0.9,0.4-1.5,1.1-2.2,1.7c-0.8,0.2-1.2,0.9-1.8,1.3c-0.8,0.3-1.4,0.9-2.1,1.3
		c-0.3,0.5-1,0.5-1.4,0.9c-0.6,0.6-1.5,0.8-2.2,1.1c-0.1,0-0.2,0-0.3,0.1c-0.6,0.6-1.5,0.9-2.3,1.2c-0.1,0-0.2,0-0.3,0.1
		c-1.3,1-2.9,1.6-4.5,2c-0.7,0.2-1.3,0.4-2,0.6c-1.2,0.8-2.6,1-4,1.2c-0.8,0.2-1.7,0.3-2.5,0.5c-1.3,0.7-2.8,0.4-4.2,1
		c-1.2,0-2.3,0-3.5,0c-3.4,0.4-6.8,0.1-10.2-0.3c-7.3-1-14.1-3.4-20.6-6.8l-0.2,0l-0.2,0l0,0c-4-2.9-8.1-5.6-11.5-9.2
		c-9-9.6-14.5-20.8-15.7-34c-1.4-16.7,3.8-31,15-43.3c3.4-3.8,7.6-6.8,11.8-9.5c0.1-0.2,0.2-0.3,0.4-0.2
		C252.4,337.7,252.5,337.6,252.7,337.5z"/>
	<path class="st59" d="M316.4,427.9c2.1-1.8,3.5-4.3,6-5.5c-1.7,2.3-3.6,4.3-6,5.9C316.2,428.2,316.1,428.1,316.4,427.9z"/>
	<path class="st60" d="M334.4,374.6c-0.6-2.5-1.8-4.8-1.6-7.4c1,2.4,1.6,4.9,2.1,7.4C334.8,374.8,334.6,374.8,334.4,374.6z"/>
	<path class="st61" d="M328.5,413.8c0.2-2.4,2-4.2,2.7-6.5c0.4,0,0.6,0,0.4,0.5C330.8,410,329.9,412,328.5,413.8z"/>
	<path class="st62" d="M334.4,374.6c0.2,0,0.3,0,0.5,0c0.3,2,0.6,4,0.9,6c-0.1,0.2-0.3,0.2-0.4,0
		C335.1,378.6,334.8,376.6,334.4,374.6z"/>
	<path class="st63" d="M330.2,361.7c-1.4-1.3-1.9-3.1-2.7-4.7C329.1,358.1,329.7,359.9,330.2,361.7z"/>
	<path class="st64" d="M334.1,400.1c-0.4-1.2-0.3-2.3,0.8-3.1C334.8,398,334.7,399.1,334.1,400.1z"/>
	<path class="st65" d="M335.3,391.4c0.1-1.4,0.1-2.8,0.2-4.3c0.1-0.2,0.2-0.2,0.4-0.1c0,1.4-0.1,2.9-0.1,4.3
		C335.6,391.5,335.5,391.5,335.3,391.4z"/>
	<path class="st66" d="M335.3,391.4c0.2,0,0.3,0,0.5,0c0.1,0.8,0.2,1.6-0.4,2.3C334.7,392.9,334.9,392.2,335.3,391.4z"/>
	<path class="st67" d="M316.4,427.9c0,0.1,0.1,0.3,0.1,0.4c-0.6,0.8-1.3,1.4-2.2,1.8c-0.1-0.1-0.2-0.2-0.2-0.3
		c0-0.1,0.1-0.2,0.1-0.2C314.8,428.9,315.5,428.3,316.4,427.9z"/>
	<path class="st68" d="M322.9,421.8c-0.3-1.3,0.8-1.7,1.6-2.3c0.1,0,0.2,0,0.2,0C324.4,420.4,323.7,421.2,322.9,421.8z"/>
	<path class="st69" d="M332.8,366.9c-1.2-0.3-1.1-1.3-1.3-2.1c-0.2-0.3-0.1-0.5,0.1-0.6C332.2,365,332.5,366,332.8,366.9z"/>
	<path class="st70" d="M335.4,380.6c0.1,0,0.3,0,0.4,0c0,1.3,0.1,2.6,0.1,3.9c-0.1,0.2-0.3,0.2-0.4,0
		C335.4,383.2,335.4,381.9,335.4,380.6z"/>
	<path class="st63" d="M331.6,364.1c0,0.2-0.1,0.4-0.1,0.6c-0.6-1-1.3-1.9-1.2-3.1C331.1,362.3,331.2,363.3,331.6,364.1z"/>
	<path class="st71" d="M331.6,407.8c-0.1-0.2-0.2-0.3-0.4-0.5c0.3-0.7,0.6-1.4,0.8-2.2c0.4,0,0.6,0,0.4,0.5
		C332.1,406.4,331.9,407.1,331.6,407.8z"/>
	<path class="st72" d="M327.2,416c-0.2-1.1,0.2-1.9,1.3-2.2C328.3,414.6,327.9,415.4,327.2,416z"/>
	<path class="st73" d="M314.2,429.6c0,0.2,0,0.3,0.1,0.5c-0.5,0.5-1,1.1-1.7,1.3c-0.1-0.1-0.2-0.2-0.2-0.3c0-0.1,0.1-0.2,0.1-0.2
		C313.1,430.4,313.7,430,314.2,429.6z"/>
	<path class="st74" d="M312.5,430.9c0,0.2,0,0.3,0.1,0.5c-0.4,0.4-0.8,0.9-1.5,1.1c-0.2,0.1-0.5,0.1-0.7-0.1
		C311.1,431.8,311.8,431.4,312.5,430.9z"/>
	<path class="st75" d="M332.4,405.7c-0.1-0.2-0.3-0.3-0.4-0.5c0.2-0.6,0.5-1.2,0.7-1.8c0.3,0,0.3,0.3,0.4,0.5
		C332.9,404.5,332.7,405.1,332.4,405.7z"/>
	<path class="st76" d="M335,396.3c-0.7-0.7-0.6-1.3,0.4-1.6C335.5,395.3,335.4,395.8,335,396.3z"/>
	<path class="st77" d="M325.4,417.9c0.2-0.7,0.6-1.2,1.4-1.2c-0.4,0.6-0.9,1.2-1.3,1.9C325.3,418.4,325.3,418.1,325.4,417.9z"/>
	<path class="st78" d="M333.2,403.9c-0.1-0.2-0.3-0.3-0.4-0.5c0.1-0.6,0-1.2,0.9-1.3C333.5,402.7,333.3,403.3,333.2,403.9z"/>
	<path class="st79" d="M335.5,384.5c0.1,0,0.3,0,0.4,0c0,0.8,0,1.7,0,2.5c-0.1,0-0.3,0-0.4,0.1C335.5,386.2,335.5,385.4,335.5,384.5
		z"/>
	<path class="st80" d="M310.4,432.3c0.2,0,0.5,0,0.7,0.1c-0.2,0.3-0.5,0.5-0.7,0.8c-0.2,0-0.5,0-0.7,0.1c-0.2,0.2-0.4,0.2-0.5-0.1
		C309.5,432.9,309.9,432.6,310.4,432.3z"/>
	<path class="st81" d="M325.4,417.9c0,0.2,0,0.5,0.1,0.7c-0.3,0.3-0.5,0.6-0.8,0.9c0,0-0.1,0-0.1,0s-0.1,0-0.1,0
		C324.4,418.7,325,418.3,325.4,417.9z"/>
	<path class="st82" d="M195,464.6c0-0.8-0.1-1.6-0.1-2.4c0-52.3,0-104.5,0-156.8c0-0.8,0-1.6,0.1-2.4c0.6,0.7,0.4,1.5,0.4,2.3
		c0,52.3,0,104.7,0,157C195.3,463.1,195.6,463.9,195,464.6z"/>
	<path class="st29" d="M252.3,434.1c0,12.7,0,25.5,0,38.2c-0.2,0-0.3,0-0.5,0c0-0.7,0-1.4,0-2.1c0-11.8-0.1-23.6-0.1-35.5
		C251.7,434.3,251.8,434.1,252.3,434.1L252.3,434.1z"/>
	<path class="st29" d="M252.2,337.8c-0.1,0.1-0.3,0.1-0.4,0.2c-0.4-0.6-0.2-1.2,0.1-1.8C252.5,336.7,252.1,337.3,252.2,337.8z"/>
	<path class="st83" d="M426.8,305.2c1.2,0.6,0.8,1.7,0.9,2.7c0,16.1,0,32.2,0,48.3c0,23.8,0,47.5,0,71.3c0,1-0.4,2.3,1.4,2.5
		c-1.1,0.2-2.2,0.3-1.5,1.9c0.3,0.6,0.2,1.5-0.7,1.8c-0.4-0.7-0.2-1.6-0.2-2.3c0-41.3,0-82.5,0-123.8
		C426.6,306.8,426.4,306,426.8,305.2z"/>
	<path class="st31" d="M426.8,305.2c0,42.8,0,85.6,0,128.4c-0.7-0.6-0.4-1.3-0.4-2c0-41.6,0-83.2,0-124.9c0-0.5,0-1,0.1-1.5
		c0,0,0.1-0.1,0.1-0.1C426.6,305.1,426.7,305.2,426.8,305.2z"/>
	<path class="st84" d="M309.5,437.1c0-0.7,0-1.4,0-2.1c0.1,0,0.3,0,0.4,0c0,0.6,0,1.3,0,2c0,11.3,0,22.7,0,34c0,0.2,0,0.5-0.1,0.6
		c-0.3,0.1-0.2-0.2-0.3-0.4c-0.3-0.5-0.2-1-0.2-1.5c0-10.4,0-20.7,0-31.1C309.3,438.1,309.2,437.5,309.5,437.1z"/>
	<path class="st85" d="M309.5,437.1c0,11.3,0,22.7,0,34c-0.7-0.6-0.4-1.3-0.4-2c0-10,0-20,0-30C309.1,438.4,308.9,437.6,309.5,437.1
		z"/>
	<path class="st86" d="M273.2,440.9c3.5,0.1,7,0.1,10.5,0.2c0.1,0.1,0.2,0.1,0.1,0.2c0,0.1-0.1,0.1-0.1,0.1
		C280.1,442.2,276.7,441.7,273.2,440.9z"/>
	<path class="st87" d="M299.6,437.9c1.3-1,3-1.4,4.5-2C302.9,437.4,301.4,437.9,299.6,437.9z"/>
	<path class="st88" d="M293.6,439.7c1.3-0.4,2.7-0.8,4-1.2C296.5,439.7,295.1,440,293.6,439.7z"/>
	<path class="st89" d="M287,440.9c1.3-0.5,2.7-0.6,4-0.7c-0.8,1.2-2,0.7-3,0.8C287.7,441.2,287.3,441.2,287,440.9z"/>
	<path class="st90" d="M287,440.9c0.3,0,0.7,0.1,1,0.1c-1.4,0.7-2.9,0.3-4.3,0.4c0-0.1,0-0.2,0-0.3C284.8,441,285.9,441,287,440.9z"
		/>
	<path class="st91" d="M309,433.2c0.2,0,0.4,0,0.5,0.1c-0.7,0.9-1.5,1.4-2.7,1.3C307.5,433.8,308.3,433.5,309,433.2z"/>
	<path class="st92" d="M304.4,435.8c0.6-0.6,1.4-1,2.3-1.2C306.3,435.7,305.4,435.9,304.4,435.8z"/>
	<path class="st84" d="M309.5,306.1c0-0.4,0-0.8,0.1-1.2c0.1,0,0.2,0,0.2,0c0,10.7,0,21.4,0,32.2c-0.5-0.1-0.2-0.5-0.3-0.8
		C309.2,326.2,309.2,316.1,309.5,306.1z"/>
	<path class="st85" d="M309.5,306.1c0,10.1,0,20.1,0,30.2c-0.6-0.5-0.4-1.2-0.4-1.8c0-8.9,0-17.7,0-26.6
		C309.1,307.3,308.9,306.6,309.5,306.1z"/>
	<path class="st93" d="M339.3,225.5c0-1.5,0-3,0-4.5c0-49.7,0-99.4,0-149c0-0.8,0-1.6,0.1-2.4c0.6,0.7,0.4,1.5,0.4,2.3
		c0,50.5,0,100.9,0,151.4C339.7,224,340,224.8,339.3,225.5z"/>
	<path class="st94" d="M379,225c0-0.9,0-1.9,0-2.8c0-50.3,0-100.7,0-151c0-0.9,0-1.7,0-2.6c0.7,0.7,0.4,1.5,0.4,2.3
		c0,50.6,0,101.2,0,151.9C379.3,223.5,379.6,224.4,379,225z"/>
	<path class="st95" d="M416.4,226.3c-5.9,0-11.7,0-17.6,0c0-0.7-0.1-1.4-0.1-2.2c0-49.4,0-98.8,0-148.2c0-0.6,0-1.1,0-1.7
		c0.7,0.8,0.4,1.8,0.4,2.7c0,48.7,0,97.4,0,146.1c0,2.9,0,2.9,2.9,2.9c4,0,8,0,12.1,0C414.9,225.9,415.8,225.6,416.4,226.3z"/>
	<path class="st96" d="M338,69.9c0.7,0.7,0.4,1.6,0.4,2.4c0,50.6,0,101.2,0,151.8c-0.7-0.7-0.4-1.6-0.4-2.4
		C338,171.1,338,120.5,338,69.9z"/>
	<path class="st97" d="M319.5,226.3c0-1-0.1-2-0.1-3c0-48.2,0-96.4,0-144.6c0-0.9-0.2-1.9,0.2-2.8c0.9,0.3,0,0.9,0.2,1.3
		c0.4,0.7,0.2,1.6,0.2,2.3c0,47.1,0,94.3,0,141.4c0,0.8,0.2,1.6-0.2,2.3C319.7,224.3,320.2,225.4,319.5,226.3z"/>
	<path class="st98" d="M319.9,223.3c0-48.7,0-97.4,0-146.1c0.7,0.6,0.4,1.5,0.4,2.2c0,47.2,0,94.4,0,141.6
		C320.3,221.9,320.6,222.7,319.9,223.3z"/>
	<path class="st99" d="M437.5,80.7c0,48.3,0,96.5,0,144.8c-1.4-0.7-0.2-2.2-0.8-3.1c-0.2-0.3,0-1,0-1.5c0-45.9,0-91.8,0-137.6
		C436.7,82.4,436,81.1,437.5,80.7z"/>
	<path class="st100" d="M419,225.1c-0.1,0-0.2,0-0.4,0c0-2.9,0-5.9,0-8.8c0-45.4,0-90.8,0-136.1c0-0.8,0-1.6,0-2.3
		c0.1,0,0.3,0,0.4,0C419,126.9,419,176,419,225.1z"/>
	<path class="st1" d="M283.9,418.1c-11.1,5.6-22.9,7.5-35.2,8.1c-1.1,0.1-2.1-0.2-2.9-1c-4.9-4.4-9-9.5-12-15.3
		c-0.2-0.3-0.3-0.6-0.5-1.2c3.8,0,7.3-0.4,10.7-1.8c3.8-1.6,7-4,9.3-7.4c0.9-1.3,1.5-1.4,2.8-0.7c9.9,5.3,18.1,1.1,23.2-5.8
		c0.9-1.3,1.8-2.7,2-4.3c0.2-2,1.4-2.8,2.9-3.6c5-2.5,9.9-2,13.8,1.5c4.2,3.7,5.8,9.5,4,14.5c-0.9,2.5-2.4,4.7-4.3,6.6
		c-1.7,1.7-3.6,3.3-5.4,4.9C290,415.1,287.1,416.8,283.9,418.1z"/>
	<path class="st1" d="M329,404.1c-0.7,0.3-0.1,1.3-0.9,1.6c-0.1-0.1-0.4-0.2-0.4-0.3c-3-8.5-12.4-11.3-20-9.5
		c-0.9,0.2-1.5,0.6-1.8-0.8c-1.4-8.1-6.1-13.1-14.1-14.8c-1.3-0.4-1.3-0.4-2.8,0c-2.8,0.5-5.6,1.4-8,3c-0.8,0.5-1.3,0.2-1.9-0.3
		c-7.2-5.7-8.1-17.3-1.9-24.1c3.7-4,8.6-4.5,13.5-3.5c14.1,2.9,25.4,10.2,34.2,21.5c2,2.6,3.7,5.3,5.1,8.2c1.6,3.2,2.5,6.4,1.5,9.9
		c-0.6,2.2-0.9,4.5-1.8,6.6C329.4,402.5,329.2,403.3,329,404.1z"/>
	<path class="st1" d="M246.3,366.4c0.3-6.4,2.4-12.5,3.4-18.8c0.7-4.4,3.1-6.8,6.9-8.6c5.9-2.7,11.8-4.6,18.4-5.2
		c-0.1,0.3-0.1,0.6-0.2,0.7c-4.7,7.2-4.3,13,1.3,19.6c0.7,0.8,0.4,1.1-0.2,1.7c-8.6,8.9-8,21.8,1.4,29.8c1.3,1.2,1.1,2.1,0.6,3.3
		c-3.3,8-12.7,11.2-20.3,7c-3.1-1.7-5.5-4.1-7.3-7.2c-2.7-4.8-4-10-4.1-15.4C246.6,371,246.4,368.7,246.3,366.4z"/>
	<path class="st1" d="M314.3,398.7c7,0.6,10.8,6.2,11.5,11.7c0.1,0.7-0.3,1.2-0.6,1.8c-14.3,25.3-48.8,33.6-73,17.7
		c-0.2-0.1-0.3-0.3-0.6-0.6c3.8-0.5,7.4-0.8,10.9-1.4c7.5-1.3,14.9-3,21.7-6.7c2.9-2.4,6.1-4.4,9.5-6c5.3-3.7,9.9-8,11.9-14.4
		c0.7-2.2,2.8-1.8,4.4-2.1C311.4,398.8,312.9,399,314.3,398.7z"/>
	<path class="st1" d="M331.9,379.3c0.1,0.5,0.4,1.1-0.1,1.7c-0.7-0.2-0.9-0.8-1.3-1.3c-9.1-14.4-21.9-23.4-38.5-27.2
		c-3.7-0.9-7.4-0.9-11.1,0.3c-0.9,0.3-1.5,0.1-2.1-0.4c-5.9-4.6-5.3-14.5,1-18.4c0.6-0.4,1.2-0.4,1.8-0.4
		c23.4-0.1,46.2,19.4,49.7,42.6c0,0.3,0,0.6,0,0.9C332,377.8,331.5,378.6,331.9,379.3z"/>
	<path class="st1" d="M244.5,383.2c1.5,4.4,3.3,8.7,6.8,12.1c0.7,0.7,0.3,1.1,0,1.7c-3.3,5.6-11.8,9.6-18.4,8.6
		c-0.8-0.1-1.2-0.5-1.5-1.2c-6.5-16.7-3.6-37.5,8.7-51.7c0.3-0.1,0.5-0.5,0.9-0.5c0.1,0.2,0.2,0.2,0.3,0.1c-0.2,0-0.2-0.1-0.2-0.3
		c0.5-0.4,0.7-1.7,1.6-0.5c0,0,0.1,0,0.1-0.2c0.3-1.2,1.1-2,2.2-2.4c0.8-0.3,1.3-0.1,0.9,0.9l0,0c-0.9,0.4-0.1,1.3-0.5,1.9
		c0.1,0.1,0,0.2-0.1,0.3c-0.5,0.3-0.9-0.5-1.4,0c-0.3-0.1,0,0.4,0,0.1c1.2-0.2,1.2,0.5,1,1.4c0.1,0.1,0.1,0.2,0,0.3
		c-1.2,2-0.8,4.3-1.5,6.4c-1.2,3.9-0.5,7.9-0.8,11.8C242.4,375.7,243.2,379.5,244.5,383.2z"/>
	<path class="st101" d="M293.7,415.3c-2.9,2.4-6.1,4.4-9.5,6c-0.1-0.6,0.3-1,0.7-1.4c0.9-1.1,0.5-1.8-0.9-1.8
		c2.8-1.8,5.6-3.7,8.4-5.5C291.1,414.3,293.5,414.2,293.7,415.3z"/>
	<path class="st102" d="M244.5,383.2c-1.1-2-1.3-4.3-1.9-6.5c-1.2-4.3,0.4-8.6-0.1-12.8c-0.4-3.4,2-6.3,1.5-9.6
		c0-0.2,0.6-0.5,0.9-0.8c-1.4,6.7-2.2,13.4-1.8,20.2C243.3,376.9,244,380.1,244.5,383.2z"/>
	<path class="st102" d="M241,352.2c-0.3,0.1-0.7,0.3-1,0.4c1.7-2.5,4-4.5,6.2-6.4c0.8,0,0.7,0.4,0.5,0.9c-0.3,0.9-0.6,1.7-0.8,2.6
		c-1-0.7-2.5,0.2-2.8,1.8c-0.1,0.4,0,0.9,0,1.3C242.2,352.8,242.5,349.6,241,352.2L241,352.2z"/>
	<path class="st103" d="M246.3,366.4c0.2,2.3,0.9,4.6-0.1,6.9C246,371,246,368.7,246.3,366.4z"/>
	<path class="st104" d="M314.3,398.7c-1.4,0.7-2.9,0.7-4.3,0C311.4,398.3,312.9,398.3,314.3,398.7z"/>
	<path class="st102" d="M245,353.2c-0.2-0.5,0.1-1.5-1-0.7c-0.4,0.3-0.3-0.4-0.3-0.5c0.1-0.6,0.3-1.2,1.1-0.9
		c0.2,0.1,0.4,0.4,0.6,0.6C245.4,352.3,245.3,352.8,245,353.2z"/>
	<path class="st105" d="M289,380.3c1-1.1,2.2-0.2,3.3-0.4c0,0,0.1,0.1,0,0.2c-0.2,0.1-0.3,0.2-0.5,0.3
		C290.8,380.3,289.9,380.3,289,380.3z"/>
	<path class="st102" d="M245.4,351.5c0-0.7-1.3-1.6,0.5-1.9C245.8,350.3,245.8,350.9,245.4,351.5z"/>
	<path class="st106" d="M329,404.1c-0.1-0.9,0.1-1.7,0.8-2.4C329.8,402.6,329.5,403.4,329,404.1z"/>
	<path class="st107" d="M331.9,379.3c-0.7-0.7-0.4-1.5-0.4-2.3C332,377.8,332,378.6,331.9,379.3z"/>
	<path class="st108" d="M246.7,347.1c-0.1-0.3,0-0.8-0.5-0.9c0.1-0.3,0.5-0.7,0.7-0.5C247.3,346.1,247,346.6,246.7,347.1z"/>
	<path class="st102" d="M241,352.2c0.4,0.1,0.9,0.1,0.6,0.7c0,0.1-0.3,0.2-0.5,0.3C241.1,352.8,241.1,352.5,241,352.2L241,352.2z"/>
</g>
</svg>
