<?xml version="1.0" encoding="utf-8"?>
<!-- Generator: Adobe Illustrator 24.2.0, SVG Export Plug-In . SVG Version: 6.00 Build 0)  -->
<svg version="1.1" xmlns="http://www.w3.org/2000/svg" xmlns:xlink="http://www.w3.org/1999/xlink" x="0px" y="0px"
	 viewBox="0 0 560 555" style="enable-background:new 0 0 560 555;" xml:space="preserve">
<style type="text/css">
	.st0{fill-rule:evenodd;clip-rule:evenodd;fill:#AE5F81;}
	.st1{fill-rule:evenodd;clip-rule:evenodd;fill:#E7C638;}
	.st2{fill-rule:evenodd;clip-rule:evenodd;fill:#A1D9F7;}
	.st3{fill-rule:evenodd;clip-rule:evenodd;fill:#FEFEFD;}
	.st4{fill-rule:evenodd;clip-rule:evenodd;fill:#029889;}
	.st5{fill-rule:evenodd;clip-rule:evenodd;fill:#DAAB6C;}
</style>
<g id="Capa_2">
</g>
<g id="Capa_13">
	<g>
		<path class="st0" d="M422.3,334.5c0.3,2.7-0.8,5.1-1.9,7.5c-4.5,10.3-9.2,20.3-17,28.7c-0.2-0.4-0.5-0.8-0.7-1.3
			c-5.5-20.2-18.6-33.8-37.7-41.2c-24.2-9.3-48.5-18.3-73.1-26.5c-40-13.5-79.9-27.6-119.8-41.3c-18.4-6.4-37.3-11.8-54-22.2
			c-1.2-0.8-2.3-1.5-3.5-2.3l0.1,0c-0.3-0.3-0.6-0.6-0.9-0.9c-2.8-3.9-5.7-7.7-8.5-11.6c-1.9-2.6-1.8-5.2-0.2-8.1
			c6.7-12.2,14.2-24,21.8-35.6c1.4,0.5,1.7,1.9,2.4,2.9c2.8,4.2,5.7,8.3,10,11.1l-0.1,0c0,0.6,0.3,0.9,0.9,0.9l0,0
			c3.1,4.2,7.7,6.3,12.1,8.8c3.7,0.7,6.3,3.6,9.8,4.6c1.8,3,4.8,3.8,7.9,4.3l0,0c0.7,1.7,2.1,1.8,3.6,1.7l0,0
			c0.5,1.1,1.8,0.9,2.7,1.3c6.2,2.3,12.5,4.1,18.8,6.4c17.7,6.5,35.5,12.7,53.1,19.6c0.7,1,1.7,0.9,2.7,0.7l0,0
			c1.8,2.2,4.4,2.6,7.1,2.7l0,0c1,1.9,2.7,1.9,4.4,1.8l0,0c2,1.8,4.3,2.8,7.1,2.7l-0.1,0c1,1.8,2.7,1.8,4.4,1.8l-0.1,0
			c0.3,0.9,1.1,0.9,1.8,0.9l-0.1,0c0.6,1,1.7,1,2.7,0.9l-0.1,0c0.5,0.9,1.4,0.9,2.2,0.9c11.8,4.4,23.6,8.8,35.3,13.2
			c2.1,1.6,4.5,2.4,7.1,2.5l0,0c2.2,2,4.9,2.7,7.9,2.6l0,0c0.6,1.2,1.6,1.1,2.6,0.9l0,0c0.6,1.2,1.6,1,2.6,0.9l0,0
			c0.6,1.2,1.6,1,2.6,0.9l0,0c0.6,1.1,1.7,1.5,2.9,1.7c2.4-0.1,4.4,1.3,6.7,1.9c3.3,1.8,7,2.7,10.6,3.8c1.7,0.5,3.5,1,5.2,1.5
			c3.7,1.6,7.2,4.1,11.6,3.3c2.6,0.9,5.1,1.9,7.7,2.8c2.5,3.2,6.8,2.8,9.9,4.8c6.9,2.3,12.2,7,17.6,11.6c3.3,5,6.7,10,10,15
			C422,325.2,424.1,329.6,422.3,334.5z M314.8,283.7c0.7,0.9,1.3,1.9,2,2.8c0.7,0.8,1.7,1.2,1.8-0.1c0.2-1.9,1-4.3-1.5-5.4
			c-3.4-1.4-6.8-2.6-10.2-3.8c-1.3-0.5-2.2-0.3-2,1.6c0.6,4.7-1.2,8.8-4.3,12.1c-1.9,2-0.7,2.4,0.8,3c2.6,1,5.2,1.8,7.8,2.8
			c4.3,1.6,5.6,1,7.5-4c-2.7,0-4.9,2.2-7.6,1.6c-1.5-0.3-3-0.9-2.5-2.9c0.4-1.3,0.2-3.4,1.9-3.5c1.7-0.1,1.3,1.9,1.8,3
			c0.1,0.2,0.4,0.3,0.9,0.6c2-2.1,2.3-4.8,3-7.4C314.4,284.1,314.6,283.9,314.8,283.7z M184.4,249.5c0.2,0.2,0.4,0.4,0.6,0.6
			c1.1,3.8,4.6,3.2,7.3,4.1c0.8,0.2,1.1-0.6,0.9-1.5c-0.8-5.1,0.3-9.5,4.8-12.7c1.2-0.9,0.7-1.6-0.4-2.3c-4-2.4-6.1-2-9.1,1.8
			c-1,1.3-2.1,2.5-3.8,4.5c0-3.5-0.1-5.9,0-8.3c0.1-4-3.2-3.9-5.5-4.1c-3.7-0.4-0.8,2.3-1.2,3.6c-1.1,3.6-1.4,7.5-4.4,10.2
			c-0.7,0.7-1.5,1.3-0.5,1.9c1.3,0.8,2.9,1.4,4.4,1.5c1.2,0.1,0.8-1,0.6-1.9c-0.9-3,0.4-5.3,2.4-8.5c0,3.5,0.1,6.2,0,8.8
			C180.3,250.6,181.4,251.6,184.4,249.5z M166.4,245.1c1.6,0.1,2.7-0.3,3.6-1c1.4-1,4.6-11.4,3.9-13c-0.5-1.1-1.3-1.9-2.4-2.4
			c-3.2-1.3-6.5-2.6-9.7-3.8c-1.8-0.7-2.2-0.1-1.9,1.9c0.7,4.7-0.7,8.8-4.3,11.9c-1.2,1-1.6,1.9,0.1,2.5
			C159.3,242.6,163,243.9,166.4,245.1z M380.4,318.2c-0.3-1.8-0.4-2.9-0.6-4.1c-0.2-1.3-0.3-2.6-0.5-3.9c-0.3-1.9-4.5-5.3-6.3-5
			c-1.1,0.2-1.3,0.9-1.2,1.9c0.4,4.9-1.4,8.9-5.3,11.9c-0.7,0.5-1.3,1-0.7,1.6c1.2,1.3,2.9,2,4.6,2.2c1,0.1,1-0.9,0.8-1.6
			c-1-3.9,1.7-6.5,3.2-9.4c0.8,3.7,1.1,7.4,1.6,11c0.2,1.6,0.4,3.4,2.4,3.8c2.1,0.4,2-1.7,2.7-2.8c1.9-3.1,2.3-7,5-9.6
			c0.6-0.6,2.4-0.7,1.5-2c-0.9-1.3-2.6-2.1-4.2-2c-2.1,0.1-0.7,1.6-0.7,2.6C382.7,314.7,382.1,316.3,380.4,318.2z M265.9,268.7
			c0.9-3.9,0.6-6.3-3.1-7.3c-2.8-0.8-5.5-1.9-8.2-2.9c-1.8-0.7-2.4-0.4-2,1.7c0.9,4.6-1.1,8.8-3.9,11.8c-2.3,2.5-1.1,2.6,0.8,3.3
			c2.7,1,5.5,1.8,8.2,3c3,1.4,4.7-0.2,6.3-2.2c0.5-0.6,1-1.2,0.4-1.9c-0.6-0.8-1.3-0.3-1.9,0.1c-2,1.2-4.1,1.4-6.3,1
			c-1.3-0.2-2.2-1-1.7-2.4c0.4-1.2,0.3-2.9,1.7-3.3c1.8-0.5,1.3,1.4,1.8,2.3c0.2,0.4,0.4,0.7,1.1,1.8c1.4-3,2.5-5.1,2.6-7.6
			c-1.1-0.6-1.7,0-2.3,0.3c-0.8,0.4-2,0.6-2.2-0.4c-0.3-1.1,0.3-2.3,1.4-2.9c1.2-0.5,2.3,0,3.2,0.8
			C262.9,265.2,264.1,266.7,265.9,268.7z M279.3,276.5c-0.6-2.6-1.5-4.4-1.5-6.2c-0.1-4.3-3.2-4.7-6.2-5.5c-1.2-0.3-1.7,0.1-1.6,1.7
			c0.3,4.7-1,9-4.6,12.3c-0.6,0.6-1.1,1.2-0.4,1.7c1.2,1.1,2.7,1.7,4.4,1.7c0.9,0,1.1-0.7,0.8-1.6c-1.3-3.8,1.3-6.6,2.7-10.8
			c0.9,4.7,1.6,8.3,2.4,11.8c0.4,1.7,0.6,3.8,2.9,3.8c1.9,0,1.6-2.1,2.2-3.3c1.5-3.3,1.8-7.1,4.4-9.9c0.6-0.7,2.3-1.1,1-2.2
			c-1.2-0.9-2.9-1.6-4.4-1.6c-1.7,0.1-0.6,1.4-0.4,2.3C281.5,272.7,280.9,274.3,279.3,276.5z M363.6,305.7c-1.9-0.4-2.8,2.3-4.2,0.5
			c-0.8-1.1,0-2.4,0.9-3.1c1.5-1.4,2.7,0.1,3.7,1c1.2,0.9,1.9,2.2,2.4,3.6c0.2,0.6,0.7,1.1,1.3,0.8c0.4-0.2,0.9-0.8,0.9-1.3
			c0.1-1.7,0.7-3.6-1.4-4.6c-3.4-1.6-6.9-3.1-10.3-4.7c-1.2-0.5-2.4-0.3-1.9,1.1c1.6,3.9-2.5,6.2-2.3,9.3c0.2,3-6,2.2-2.8,5.5
			c1.7,1.7,4.6,2.3,7,3.4c0.4,0.2,0.8,0.3,1.2,0.5c4.3,1.8,5.4,1.4,7.7-3.4c-1.4-1-2.5,0.2-3.6,0.7c-1.8,0.7-3.4,0.5-5.1-0.2
			c-1.4-0.5-1.7-1.5-1.1-2.8c0.5-1.1,0.5-3,2-3.1c1.6-0.2,1.2,1.6,1.6,2.6c0.1,0.4,0.5,0.7,0.9,1.2
			C362.2,310.7,363.3,308.6,363.6,305.7z M332,301.4c-0.1,2.2,0.9,4.2,2.6,5.9c2.7,2.6,7,1.4,9.6,4.2c0,0,0.6-0.2,0.7-0.4
			c1.3-2.1,1.9-4.9,4.8-5.8c0.8-0.3,0-1.3-0.6-1.6c-1.6-0.7-3.2-1.5-4.8-2c-1.3-0.4-2.1,0.1-1.4,1.6c0.8,1.7,0.4,2.9-1.4,3.4
			c-1.6,0.5-3.2,0.1-4.3-1.3c-1.9-2.6-0.4-5,0.7-7.3c1-2,2.1-3.8,4.8-3.6c2.7,0.2,3.7,2,4.2,4.3c0.2,1,0.2,2.3,1.5,2.3
			c1.6,0,1.3-1.6,1.7-2.6c1.3-3.8-2.2-4.2-4.1-5.4C339.5,289.1,332.1,293.4,332,301.4z M219.8,261c0-4,2.3-3.2,4.7-2.4
			c2.8,0.9,5.5,0.9,6.8-2.5c1.5-3.6-0.4-5.6-3.3-6.9c-2.7-1.2-5.4-2.1-8.2-3.1c-1.2-0.5-2-0.3-1.8,1.3c0.6,5-1.1,9.2-4.8,12.6
			c-0.5,0.5-1.4,1.3-0.6,1.7c2.2,1.1,4.6,2.6,6.8,2.6C222,264.2,219.5,262,219.8,261z M245.6,257.9c0,1.8-1.8,8.2-2.7,9.5
			c-1,1.5-2.4,2.1-4.2,1.6c-1.8-0.5-2.8-1.8-2.3-3.6c0.8-3.2,1.3-6.8,3.9-9c2.1-1.8,1.6-2.3-0.5-3.1c-1.4-0.5-2.7-1-4.1-1.4
			c-1-0.3-2.1,0.2-1.6,1.2c1.6,3.3-0.7,5.9-1.5,8.7c-1.4,5.2-0.5,7.6,4.2,9.3c4.7,1.7,7.1,0.4,9.2-4.5c1-2.5,1-5.5,3.7-7.2
			c0.8-0.5,1.8-1.2,1.1-1.9c-1.1-1.1-2.8-1.6-4.4-1.5C245,256.1,245.3,257,245.6,257.9z M285.8,275.7c2,0.7,2.9-1,4.2-1.2
			c1.4-0.2,3.1,0,2.2,1.9c-1.6,3.3-1.4,7.6-4.7,10.1c-1.2,0.9-1.3,1.7-0.1,2.3c1.7,0.9,3.5,1.5,5.3,2c1,0.3,1.9-0.4,1.4-1.4
			c-1.6-3.5,0.9-6.1,1.7-9.1c0.3-1.2,0.5-2.9,2-3.1c1.5-0.2,2.1,1.3,2.6,2.6c0.3,0.7,0.5,1.5,1.3,1.4c1.2-0.1,1-1.2,1.1-2
			c0.2-2.1-0.3-3.6-2.7-4.2c-2.7-0.7-5.2-1.8-7.8-2.8C288.7,270.7,287.1,272.6,285.8,275.7z M138.2,224c1.6-2.7,3.8-4.8,1.7-7.2
			c-5.2-5.5-10.1-6-14.3-2c-3.7,3.6-4.2,9-1.2,12.6c3.2,3.7,7.3,4.2,11.1,1.1c-3.4-1.4-9.2,1.2-9.2-5.2c0-3.1,4.2-7.6,6.9-7.6
			C138.5,215.7,136.9,220.5,138.2,224z M391.1,333.8c2.9,3.2,5.5,6,7.9,8.9c2.6,3.1,4.9,0.5,6.9-0.6c1.3-0.7,0.1-1.6-1.1-1.8
			c-1.4-0.2-3,0-4.3-0.5c-1.8-0.7-3.1-2.2-1.4-4c2.4-2.5,4.4-5.7,8.2-6.2c2.6-0.4,2.1-1.4,1-2.8c-0.9-1.1-1.9-2.2-3-3.2
			c-1.1-1.1-1.7-1-2.4,0.7C400.9,329.2,396.9,332.1,391.1,333.8z M388.8,332.7c1.4,0.1,1.7-0.1,1.7-1.2c-0.1-5.4,2.9-8.9,7.1-11.7
			c1.3-0.8,1.1-1.6,0-2.3c-1.4-1-2.9-1.9-4.5-2.7c-0.9-0.5-2.1-0.6-2.1,1c-0.2,5.1-2.7,8.8-7,11.4c-0.7,0.4-1.3,1.1-0.6,1.7
			C385.2,330.3,387.2,331.5,388.8,332.7z M324.6,293.8c-1.2,0.1-2.4,0.9-2,1.9c0.8,1.7,2.9,1.8,4.5,2.1c1,0.2,2.3-0.8,1.9-1.8
			C328.2,294.2,326,294.6,324.6,293.8z M200.5,254.3c0-1.2-0.9-2-2.1-2.2c-1.4-0.2-2.1,0.7-2.3,2c-0.2,1.5,0.6,2.6,2.2,2.6
			C199.6,256.7,200.3,255.7,200.5,254.3z M144.5,234.1c-0.1-1.4-1.1-1.9-2.4-1.9c-1.4,0.1-2.1,0.9-1.9,2.3c0.2,1.3,1,2.1,2.3,2
			C143.8,236.4,144.4,235.4,144.5,234.1z"/>
		<path class="st1" d="M274.6,504.1c4.5,3.4,6.9,8,7.2,13.5c0.3,4.7,1.2,9.2,3,13.6c0.4,0.9,1.2,1.9,0.3,2.8c-0.9,0.9-1.9,0.3-2.8,0
			c-5.4-2.2-9.7-5.3-10.7-11.6c-0.4-2.9-1.1-5.7-2-8.5c-1.2-4-3.7-6.7-8.2-7.5c-4.2-0.8-6.1,1.9-8.1,4.7c-1.2,1.7-2.5,3.3-3.6,4.9
			c-1.9,2.7-3.2,1.9-4.2-0.6c-1.4-3.4-3.9-6.8,0.9-9.9c1.5-1,1.2-2.8-1.2-2.7c-7.9,0.5-13.4-4-18.8-8.8c-3.8-3.4-7.4-7.1-12.1-9.3
			c-4.8-2.2-7.1-1.5-9.9,2.8c-2.7,4.2-5.3,8.4-8,12.5c-0.8,1.2-1.8,2.3-3,3.1c-2.2,1.5-5,2.2-7,0.6c-2.3-1.9,0.2-4,1.3-5.7
			c3.3-5.4,6.9-10.5,10-15.9c3-5.2,2.5-6.2-3.1-8.7c-5.1-2.2-10.6-3.3-15.9-4.7c-3.7-0.9-7.4-1.6-11-2.9c-3.6-1.3-5.4,0.1-6.8,3.3
			c-2.4,5.6-4.5,11.4-7.7,16.6c-1.9,3-3.8,6-7.1,7.5c-1.4,0.6-3.1,1.8-4.4,0.3c-1.2-1.3-1.3-3.1-0.5-4.9c3.2-6.9,6.4-13.8,9.4-20.7
			c2.5-5.8,2.5-6-3.2-8.7c-9.6-4.6-18.8-10.1-28.9-13.5c-7.2-2.4-12.3,0.5-14.5,7.9c-0.3,1.1-0.4,2.3-0.8,3.4
			c-0.7,1.9-0.3,4.9-3.2,5.1c-2.6,0.2-5.3-0.5-7.1-2.8c-1.7-2.1-2-4.5-0.7-6.9c2.1-3.9,4.9-7.3,7.5-10.7c3.3-4.3,3.3-4.6-1.5-7.4
			c-3.8-2.2-7.7-4.1-11.3-6.7c-5.1-3.6-6.8-8.6-5.1-13.7c0.5-1.5,1-3.4,2.6-3.8c1.9-0.5,2.8,1.4,3.6,2.7c3.8,6.2,8.4,11.4,14.9,15.1
			c2.9,1.6,4.3,1.7,6-1.7c4.9-10.1,9.4-20.3,13.6-30.8c1.2-2.9-0.2-4.1-2.3-5.1c-4.7-2.3-9.5-4.4-14.2-6.9c-4.5-2.4-6.9-6.1-5.4-12
			c6.2,2.9,12.2,5.9,18.2,8.6c5.2,2.4,5.2,2.2,7.9-2.8c4-7.3,6.6-15.2,9.9-22.9c1.6-3.8,0.2-5.5-3.3-6.1c-8.9-1.6-17.7-3.2-26.6-4.8
			c-7-1.3-14.2-2-21-4.1c-1.4-0.4-3.2-0.7-3.6-2.2c-0.5-1.8,1.3-2.8,2.5-3.7c3.7-2.9,7.5-5.6,11.2-8.4c1.7-1.3,3.7-2.5,3.8-5.1
			c2.6,2.2,1.2,4.2-0.5,5.8c-2.1,2-4.5,3.6-6.7,5.4c-0.6,0-1.2,0.1-1.2,0.9l0.1-0.1c-0.8-0.1-1.5,0.1-1.8,0.9l0.1-0.1
			c-1.9,0.7-4,1.6-4.1,3.6c-0.1,1.2,2,0.8,3.2,0.8l-0.1-0.1c0.6,0.2,1.2,0.4,1.8,0.6c6.3,1.2,12.5,2.8,18.8,3.4
			c8.5,0.8,16.4,4.5,25,4.9c1.7,0.6,3.3,1.7,5.2,1.7l-0.1-0.1c0.6,3.3,0,6.3-1.2,9.4c-2.9,7.5-6.3,14.7-9.9,21.9
			c-1,1.9-3.8,3.7-2.9,5.6c0.9,1.8,3.7,2.6,5.7,3.8c0.2,0.1,0.5,0,1.1,0c-0.3-10.8,6.1-19.6,9-29.4c0.6-2,1.7-1.4,3-0.7
			c2.1,1.2,3,3.9,5.7,4.4l-0.1-0.1c-0.4,1,0,1.6,1,1.8l0-0.1c3.3,6.3,8.4,10.9,14.1,14.9l0,0c0,0.6,0.3,0.9,0.9,0.9l-0.1,0
			c0,0.6,0.3,0.9,0.9,0.9l-0.1-0.1c5.1,5.4,10.5,10.4,17.6,13.2l0,0c0.2,1.8-0.1,3.5-0.6,5.1c-0.1,0.4-1.3,1.4,0,1.6
			c3.9,0.4,2.6,2.8,2,4.8c-0.5,1.7-1.1,3.3-1.9,4.9c-2.2,4,0,5,3.9,5.4c-1.7-2.9-1.2-5.6-0.6-8.3c1.7-7,3.7-7.8,10.1-4.6
			c9.4,4.7,18.9,9.1,29,11.9c7.4,2.1,7.4,2,4.1,9.2c0,0.1,0.3,0.3,0.8,0.8c1.5-2.1,2.9-4.2,5-7.1c0.6,4.2,2.1,2.9,4.2,1.8
			c3.2-1.7,6.8-2.4,10.5-1.7c2.2,1.2,4.5,0.3,6.8,0.8c5.4,1.1,10.8,1.2,16.1-0.1c1.7-0.1,3.4-0.2,5.1-0.4c1.8,0.7,3.6,0.1,5.3-0.4
			c4.2,1.3,5.2,3.7,3.2,7.7c-0.9,1.8-1.3,3.8-2,5.7c-0.6,0.5-1.7,1-0.8,1.8c1.1,0.9,1.2-0.4,1.5-1.1c1.6-1.1,2-4.7,3.2-4.2
			c3.3,1.3,3.3-1.4,4-2.8c1.3-2.5,2.7-3.1,5.5-2.4c8.9,2.4,17.9,4.3,26.9,6.4c0.1-0.4,0.3-0.9,0.4-1.3c-7.9-3.3-16.6-4.8-25.1-8.8
			c4.2-1,7.4,1.2,10.9,1c-0.7-2.1-4-1.6-3.3-4.3c0.3-1.3,0.9-1.9,2.3-2.2c14.1-3.3,26.3-11,38.9-17.7c1.7-0.9,3.7-3.4,5.3-2.2
			c2,1.5-0.3,3.9-0.6,6c0,0.2,0.3,0.4,0.6,0.6c1.5-0.9,1.6-2.7,2.5-3.9c0.6-0.8,0.7-2.2,2-2c1.5,0.2,1.5,1.6,1.6,2.7
			c0.3,3.1-1,6-1.3,9c-0.2,0.6-0.4,1.3-0.7,1.9c-0.5,0.5-0.9,1-0.3,1.7c0.3-0.4,0.6-0.8,0.9-1.2c0.3-0.6,0.6-1.2,0.8-1.8
			c1.7-2.4,1.6-5.2,2.2-7.9c0.5-2.1,1.1-3.9,3.3-4.7c5.4-2.1,10.9-4.3,16.7-5c6.4-0.8,10.3-4.4,13.1-9.6c2-3.8,4.1-7.3,7.1-10.4
			c0.2,0.4,0.5,0.8,0.7,1.3c-2.6,4.7-5.2,9.4-7.8,14.1c-2.2,4-6.2,5.1-10.1,6.2c-5.3,1.6-10.7,2.9-16,4.3c-3.2,0.8-4.9,2.8-5.1,6.1
			c-0.2,3.3-1.4,6.2-2.9,9.1c-1.3,2.4-2.8,4.9-3.6,7.5c-2.3,8.2-0.6,10.8,5.2,13.5c6.3,2.9,12,7,18.9,8.9c4.4,1.2,9,1,14.5,2.5
			c-5.7,4.2-11.4,5.9-17.4,6.7c-6.4,0.9-11.5-2.3-16.7-5.3c-3-1.7-5.6-4.2-9.4-4.4c-2.2-0.1-3.7,0.3-4.9,2.6c-3.6,7-7,14.1-8.7,21.8
			c-0.9,4,1.1,6.7,6.1,8.7c5.4,2.1,7.7,1.6,10-2.5c0.7-1.3,1.3-2.6,3.6-3.4c0.1,4.2,0.6,8.1-0.4,12c-0.5,1.8-1.8,3.1-3.6,3.5
			c-5.6,1.3-11.1,2.2-16.6-0.7c-3.9-2.1-6.2-0.9-6.5,3.4c-0.9,10.7-6.9,19-12.8,27.3c-0.7,1-1.8,2.3-3.2,0.8c-1.8-2-4.5-3.8-2.9-7.1
			c1.5-3.1,3.2-6.2,5.1-9.2c2.9-4.6,4.9-9.6,6.4-14.8c1.2-4-0.1-6.4-3.5-8.2c-11.4-5.9-23.7-8.9-36.1-11.6c-3-0.7-5,0.5-6.6,2.9
			c-4.9,7.2-8.5,14.9-11.3,23.1c-1.6,4.6-0.7,8.2,3.1,11.2c1.4,1.1,2.5,2.4,3.7,3.7c-0.3,0.3-0.7,0.6-1,0.8
			c-0.4-0.2-0.9-0.3-1.3-0.5c-0.4-0.7-1.1-1-1.9-0.7c0.1-0.6,0-0.8-0.6-0.5c0.2,0.1,0.5,0.3,0.7,0.4c0.5,0.4,0.9,0.9,1.4,1.3
			c0.6,1,1.1,2.3,2.5,2.2c0.6,0,0.1-0.9,0-1.4C274.1,504.8,274.3,504.5,274.6,504.1z M269.8,508.3c0.1,0.2,0.2,0.5,0.3,0.7
			c0.1-0.1,0.3-0.3,0.4-0.4C270.2,508.5,270,508.4,269.8,508.3c0-0.3-0.1-0.5-0.2-0.7c-0.1,0.1-0.3,0.2-0.4,0.3
			C269.4,508,269.6,508.2,269.8,508.3z M226.7,490.9c0.3,0.3,0.6,0.6,0.8,0.9c4.2,5.4,9.8,7.7,16.5,7.7c-6.2-1-10.6-5.7-15.9-8.3
			c-0.3-0.2-0.7-0.5-1-0.7c-0.5-0.5-1.1-0.8-1.7-0.2C225.8,490.5,226.3,490.7,226.7,490.9z M145.4,397c0.1,0.2,0.2,0.4,0.3,0.7
			c0.1-0.1,0.3-0.2,0.4-0.3C145.8,397.2,145.6,397.1,145.4,397c-0.3-0.9-1.1-0.9-1.8-0.8c-0.2-1-1.1-0.8-1.7-0.9l-0.1-0.2l0.2,0.2
			c0.4,0.6,1,0.9,1.7,0.8C143.9,397,144.6,397.2,145.4,397z M106.9,444.4c-0.5-0.3-1-0.1-1.3,0.3c0,0,0.1,0.3,0.2,0.3
			C106.3,445.2,106.7,444.9,106.9,444.4c0.1-0.2,0.3-0.4,0.5-0.5c-0.2-0.1-0.3-0.2-0.5-0.2C106.9,443.9,106.9,444.1,106.9,444.4z
			 M199.7,430.3c-0.4-0.3-0.6-1.1-1.2-0.2C198.9,430.1,199.3,430.2,199.7,430.3c0.7,1,1.6,1.5,3.8,1.3
			C201.7,431,200.7,430.7,199.7,430.3z M225.1,447.8c3.7-2.5,7.1-1.9,10.8,0.3c4.9,2.9,10.2,5.1,17.1,5.7
			c-7.9-3.1-14.8-5.7-21.4-9.1C226.8,442.3,226.7,442.3,225.1,447.8c-0.3,0.1-0.8,0-0.3,0.6C224.9,448.2,225,448,225.1,447.8z
			 M276,509.1c-0.3-0.7-0.6-2.1-1.5-1.4c-0.8,0.6,0.4,1.4,1,2c2.1,4.7,4.4,9.4,1.9,15c-2.1-2.3-2.1-5-3-7.5
			c-0.8-2.4-1.4-4.9-3.5-6.7c3.2,7,0.9,16.9,11.6,21c-2.4-6-2.8-11.6-3.5-17.2C278.8,512.3,277.7,510.4,276,509.1z M117.6,432.8
			c-0.1,3.1,1.8,4.7,4.3,5.3c5.5,1.2,10.4,3.6,15.3,6.3c5.5,3,11.5,4.9,17.6,6.6c2.3,0.6,3.5,0.2,4.5-1.9c4.4-8.9,8.3-18,11-27.6
			c0.7-2.5,0.1-3.6-2.2-4.6c-11-5-22-10-32.9-15.3c-2.5-1.2-3.8-1-5.1,1.6c-2,4.2-4.6,8.1-6.7,12.3C120.6,421,119.3,427,117.6,432.8
			z M230.2,447.9c-1.7,0-2.6,1.3-3.6,2.3c-4,4.4-6.2,9.8-9,14.9c-2.3,4.3-1.6,8.1,1.7,11.6c5.9,6.1,11.8,12,20.6,14.1
			c2.5,0.6,5.2,1.4,7.3,2.9c4,2.7,5.9,1,7.7-2.5c4.1-8,7.2-16.5,10.8-24.8c2.6-6,2.5-6.3-3.8-7.8c-10.5-2.5-21.2-4.2-30.5-10
			C230.9,448.3,230.5,448.1,230.2,447.9z M323.2,464.9c2.1,0.2,3.3-0.9,4.3-2.5c4.6-8,7.9-16.5,10.2-25.4c0.4-1.7,0.1-2.7-1.8-3.1
			c-12.4-2.6-24.7-5.3-37.1-8c-1.7-0.4-3.1-0.5-4,1.4c-3.1,6.4-6.3,12.8-8.7,19.5c-0.9,2.4-0.2,4.3,1.9,5.7c1.6,1,3.2,2,5,2.6
			c8.9,3.1,17.9,6,26.9,9C320.9,464.4,322,464.6,323.2,464.9z M181.8,427.6c-2.1-0.5-3.5,0.6-4.5,3c-2.3,5.3-5,10.5-7.3,15.9
			c-2.8,6.5-2.2,8.1,4.1,11.3c9.2,4.6,19.2,6.5,29.3,8.3c1.5,0.3,2.5-0.5,3.3-1.7c4.3-6.3,7.8-12.9,10.7-19.9
			c0.7-1.7,0.5-2.7-1.4-3.3c-5.9-1.7-11-5.2-16.4-8.1C194.3,430.1,188.6,428.1,181.8,427.6z M248.6,420.7c-1.5,0-2.2,0-3,0
			c-5.4,0.4-8.9,3.3-10,8.2c-1.2,5.2-0.1,7.5,5.4,10.5c8.2,4.5,16.7,8.3,25.6,11.2c6.3,2.1,7.8,1.4,10.3-4.8
			c2.7-6.7,5.1-13.6,7.8-20.4c1.5-3.8,0.2-4.6-3.4-4.2c-5.9,0.5-11.9,1.1-17.9,1C258.2,422.2,253,421.2,248.6,420.7z M143.7,361.3
			c-1.2,0.2-1.2,1.1-1.4,1.7c-1.8,4.4-3.7,8.9-5.3,13.4c-1.1,2.9-1.8,5.8-2.3,8.9c-0.6,3.7,0.9,5.5,4.2,6.4c2.7,0.7,5.3,1.5,7.7,3
			c6.6,4.3,13.7,7.7,20.8,11.3c9.2,4.6,9.1,4.6,13.2-5c1.2-2.8,1-4.4-1.5-6.3c-12.4-9.3-24.5-18.9-33.6-31.7
			C144.9,362.2,144.2,361.7,143.7,361.3z M188.5,410.5c-0.3,3.8,1.8,4.9,3.8,5.8c9.6,4.2,19.1,8.4,28.2,13.6c0.9,0.5,1.9,0.7,2.9,1
			c1.2,0.4,2-0.1,2.5-1.2c1.2-2.7,2.4-5.3,3.5-8c0.7-1.9,0.4-3.3-2-3.9c-11.8-2.9-22.8-7.8-33.5-13.4c-1.8-1-3-0.7-3.7,1.2
			C189.4,407.6,188.8,409.5,188.5,410.5z M311.6,417.1c7.9,1.8,15.8,3.6,23.6,5.4c6.5,1.4,6.5,1.3,9.7-4.5c3.5-6.2,5.4-13,7-20.1
			C339.2,405.8,325.3,411,311.6,417.1z M387.1,444.6c-1.9-0.8-3.4-1.5-4.9-1.9c-7.6-2.1-14.5-5.8-21.4-9.6
			c-4.2-2.3-6.7-5.4-6.3-10.5c0-0.6,0.7-1.7-0.8-2.1c-2.6,6.3-6,12.3-7.3,20.1c2-2.1,3.7-2.3,5.6-2.6c4.7-0.7,8,1.9,11.5,4.3
			C370.7,447.3,378.2,449.1,387.1,444.6z M105.5,438.5c1-3.4,0.8-3.8-1.6-5.7c-3.1-2.3-6.7-3.5-10.2-5c-1.9-0.9-3.1-1.9-3-4.2
			c0.2-3.5-1.9-6-3.9-8.5c-0.5-0.6-1.1-1.7-2-1.2c-0.6,0.3-0.8,1.4-1,2.2c-0.9,3.7,0.9,6.5,3.4,8.9c3.3,3.1,7.4,5,11.4,7.2
			C101.3,433.7,104.3,434.9,105.5,438.5z M331.4,479.5c2.2-1.1,4.6-1.9,6.6-0.5c4.2,3.1,8.9,2.1,13.5,2.1c4.3-0.1,5.4-1.8,4.8-6.5
			c-5.5,3.8-13,4.5-19,1.5C333.7,474.2,332.1,475.9,331.4,479.5z M170.3,409.4c-6.2-3-12.4-5.9-18.6-8.9
			C156.8,405.9,163.3,408.3,170.3,409.4z M177.8,425.9c4.8-1.9,8.7,0.3,12.9,0.6c-2.1-1.5-4.4-2.7-6.6-4
			C179.7,420.1,179.7,420.1,177.8,425.9z M329.2,482.2c-1.7,5.5-3.4,11.1-5,16.6C328.4,494.2,329.6,488.5,329.2,482.2z M102.3,376.2
			c1.8,4.7,5.5,6.2,9.5,7.3c-1.1-1.3-2.9-2.2-3.4-3.6c-0.7-1.9-0.3-2.1-1.3-2.5C105.7,376.9,104.5,375.9,102.3,376.2z M264.4,489
			c-5.9,7.4-5.9,7.4,1.2,11.1C264.1,496.6,264.4,493.2,264.4,489z M122.2,444.1c-5.1-4.2-10.7-4.9-14-1.5
			C113.4,441.5,117.7,443.1,122.2,444.1z M100.5,454.3c-2.2,2.9-4.2,5.2-6.6-0.5c-0.5,4.1,1.1,5.8,4,5.8
			C101.7,459.5,99.3,456.1,100.5,454.3z M145.6,485.7c-1.3,1.7-2.9,3.4-1.5,5.4c0.6,0.9,1.9,0,2.7-0.7
			C149.1,488.4,146.4,487.3,145.6,485.7z M210.8,435.6c3.5,2,6,3.4,8.5,4.8c0.7,0.4,1.4,0.6,1.9-0.1c0.7-1.1-0.3-1.6-1-1.8
			C217.5,437.5,215,435.9,210.8,435.6z M342.6,474.8c-2.2-1.7-4.2-3.7-6.2-6.2C335.4,474,339.1,474.3,342.6,474.8z M317.2,503.4
			c-0.7,1.5-1.5,2.9-2,4.5c-0.4,1.3,0.6,2.2,1.7,2.8c0.9,0.5,1.3-0.4,1.6-1c0.4-0.8,1.4-2.6,0.8-2.5
			C315.3,507.5,318.8,504.4,317.2,503.4z M247.9,513.8c1.7-1.8,3.2-3.2,1.7-5.6c-0.7-1.1-1.3-0.8-2.1-0.2
			C245.2,509.9,246.7,511.6,247.9,513.8z M138.8,400.6c-1.5-2.1-3.3-3.6-6.9-2.7C134.8,399,136.8,399.8,138.8,400.6z M327.3,422.8
			c0,0.4,0,0.7,0,1.1c2.7,0.1,5.2,1.8,9,0.6C332.7,423.8,330,423.3,327.3,422.8z M214.3,466.3c-1.3,2.8-3.9,4.6,0,6.5
			C214.3,470.9,214.3,469.2,214.3,466.3z M211.7,480.9c-3.8-3.2-3.8-3.2-5.5,0C208,480.9,209.7,480.9,211.7,480.9z M206,433.3
			c1.6,1.1,3,2.1,5.8,2.2C209.4,434.1,208.1,433,206,433.3z M338.3,425.8c1.5,0.1,3,0.3,4.5,0.4C341.3,425,339.7,424.9,338.3,425.8z
			 M159.1,409.9c0.9,0.7,1.7,2.1,3.5,1.4C161.7,409.9,160.7,409.3,159.1,409.9z M150.6,400.1c-0.9-0.9-1.7-2.3-3.5-1.8
			C148,399.5,149,400.2,150.6,400.1z M191.8,427.2c1,0.6,1.7,1.5,3.3,0.9C194,427.6,193.4,426.6,191.8,427.2z M152.6,407.1
			c0.7,0.5,1,0.9,1.5,1.1c0.5,0.2,1.2,0.3,1.1-0.5c0-0.3-0.7-0.7-1.2-0.9C153.7,406.7,153.3,407,152.6,407.1z M104.2,439
			c-0.2,0.2-0.3,0.4-0.5,0.5c0.2,0.1,0.5,0.3,0.7,0.3c0.2,0,0.3-0.4,0.4-0.6C104.6,439.1,104.4,439.1,104.2,439z M148.9,405.6
			c0.1-0.1,0.2-0.1,0.3-0.2c-0.1-0.1-0.2-0.2-0.3-0.2c-0.1,0-0.2,0.1-0.3,0.2C148.7,405.4,148.8,405.5,148.9,405.6z M266.4,504.9
			c-0.2,0.1-0.4,0.2-0.6,0.4c0.1,0.1,0.2,0.2,0.3,0.2c0.2,0,0.5-0.1,0.7-0.2C266.7,505.2,266.5,505.1,266.4,504.9z M123.9,444.5
			c-0.1,0.1-0.2,0.2-0.3,0.2c0.1,0.1,0.2,0.3,0.3,0.3c0.1,0,0.2-0.1,0.3-0.2C124.1,444.7,124,444.6,123.9,444.5z M125.6,445.5
			l-0.2,0.2l0.3,0L125.6,445.5z M330.9,480.6c-0.1-0.1-0.2-0.2-0.2-0.3c-0.1,0.1-0.2,0.2-0.3,0.3c0.1,0.1,0.2,0.2,0.4,0.3
			C330.8,480.8,330.9,480.7,330.9,480.6z M196.6,428.8l-0.2,0.2l0.3,0L196.6,428.8z M268.3,506c-0.1,0.1-0.3,0.2-0.2,0.3
			c0,0.1,0.2,0.2,0.3,0.3c0.1-0.1,0.3-0.2,0.2-0.3C268.6,506.1,268.4,506,268.3,506z M204.3,432.5l0.3,0.2l0-0.2L204.3,432.5z"/>
		<path class="st1" d="M422.3,334.5c1.8-4.9-0.4-9.3-2-13.7c0.3-3.2-1.4-5.9-2.3-8.8c-1.6-5.3-2.9-10.5-1.9-16.2
			c2.1-12.9,4.5-25.8,2.6-39c-0.2-1.3-0.1-2.6,0-3.9c0.3-4.4,2.8-6.4,7-5.8c3.9,0.5,7.8,1.1,11.7,1.6c1.1,0.1,2.4,0.7,2.9-0.9
			c0.7,0.2,1.5,0.4,2.2,0.5c6,3.1,12.6,2.2,20,3.8c-3.9-5.9-7.2-10.5-10.1-15.3c-1.7-2.7-3.1-5.7-0.1-8.7c1-1-0.7-0.6-1.1-0.9
			c0.3-1.9,1.4-2.8,3.4-2.8c0,0.3,0,0.6,0,0.9c-0.1,0.2-0.2,0.4-0.3,0.5c0.2-0.1,0.4-0.2,0.5-0.3c0.3-0.3,0.6-0.6,0.9-0.9
			c0.3-0.3,0.6-0.6,0.8-0.9c3.9-2,6.9-4.9,8.6-8.9c0.7-0.9,1.3-1.7,2-2.6c2.6-0.1,3.7-2.4,3.8-4.1c0.1-1.7-2.4-1.5-3.9-1.8
			c-7.2-1.7-14.5-3.3-21.8-4.7c-3.3-0.6-4.8-1.7-3.6-5.5c2.7-8.3,5.8-16.5,9.2-24.5c2.3-5.4,7.6-7.2,13.2-5c1.8,0.7,3.4,1.7,5.1,2.6
			c1.9,1,3.9,1.1,5.9,0.5c1.2-0.4,2.2-1.1,2.4-2.4c0.2-1.5-1.2-1.9-2.3-2.2c-2.4-0.7-4.8-1-7.2-1.6c-7.7-1.9-10.2-6.7-7.2-14.1
			c1.2-2.8,3.1-5.3,4.4-8c0.6-1.1,2.3-2.6,0-3.6c-1.8-0.8-2.5,0.8-3.2,2.1c-1.7,3.4-3.1,6.9-5.8,9.7c-2.2,2.3-4.8,4.5-8,3.2
			c-8.9-3.4-17.7-6.8-25.6-12.1c-5.5-3.8-6.9-9.7-4.1-15.8c1.1-2.5,2.5-5,3.4-7.6c2.5-7.2,8-10,15.3-7.7c3.1,1,6.1,1.9,9.2,2.7
			c0.9,0.2,2.5,1,3-0.6c0.4-1.3-0.6-2.2-1.5-2.9c-3.2-2.4-7-2.8-10.8-2.8c-3.9,0.1-5-2.3-5.4-5.5c-0.3-2.8,1.6-4.2,3.4-5.7
			c3.3-2.6,7-4.9,9.3-8.5c1-1.6,3.1-3.5,0.4-5.1c-2.7-1.6-2.6,1.5-3.4,2.7c-5.6,8.3-17.7,17.3-30.8,10.2c-4.3-2.3-9.1-3.9-13.9-5.2
			c-9.1-2.5-11.1-5.7-8.4-14.8c0.3-0.5,0.7-1.1,1-1.6c0.3-0.3,0.5-0.7,0.8-1c4.3-3.3,5.8-7.4,3.6-12.7c-0.6-1.3-0.8-2.8-1.2-4.2
			c-0.3-0.9-0.2-2.5-1.5-2.3c-1.7,0.2-0.9,1.8-1,2.9c-0.3,5.2,0.5,10.5-0.7,15.7c-0.2,0.4-0.4,0.8-0.5,1.2c-0.4,0.5-0.8,1-1.1,1.6
			c-6.3,6-13,9.9-21.8,4.8c-1.1-0.6-2.5-0.7-3.8-1.1c-6.8-2.7-14.4-2.4-20.9-6.1c-4.1-2.4-5.6-5.5-3.8-10c0.8-2,1.8-4.1,3.2-5.7
			c5.1-6.1,6.1-13.7,8-21c0.3-1.2,1-2.8-0.7-3.4c-1.8-0.7-3.5-0.1-4.6,1.6c-1.4,2.2-1.8,4.7-1.6,7.2c0.7,7.7-2.7,13.7-7.3,19.5
			c-3,3.9-6.4,5.1-11,3.9c-10-2.5-19.2-6.9-27.7-12.7c-6.4-4.4-6.9-7.5-3.5-14.8c1.6-3.4,3.8-6.7,4.3-10.9c-2.9,0.8-3.8,3.1-5,5.1
			c-2,3.2-3.3,6.8-6.2,9.5c-4.1,3.8-7.7,4.4-12.6,1.9c-2.8-1.5-5.6-3.2-8.4-4.6c-1-0.5-2.3-2.3-3.2-0.6c-0.8,1.5-0.6,3.3,1.7,4.1
			c3.6,1.2,7,2.9,10.6,4.1c5.5,1.9,7.7,5.1,5.2,10.3c-3.8,7.8-5.7,16.2-9.5,23.9c-3.2,6.7-5.5,7.4-12.5,4.2c-8.9-4-17-9.5-26.3-12.7
			c-10.5-3.6-11.3-5.5-10.5-16.1c0.9-0.4,0.8-1.1,0.8-1.9c3.4-5,6.9-10,10.5-15.3c-3.7,0.1-5.8,1.6-7.2,4.2
			c-1.8,3.5-3.1,7.1-3.4,11.1c-1,0.2-0.9,1-0.9,1.7c-4.1,6.5-11.6,6.7-17.9,4.3c-7-2.7-13.7-2.1-20.5-0.2c-1.5,0.4-4.2,1.4-3.2,3.2
			c0.7,1.4,3.5,2,5.6,1.1c0.8-0.3,1.4-1,2-1.7c2-2.1,4.4-2.3,7.2-1.8c6.4,1.2,11.5,4.9,16.9,8c1.3,0.7,1.3,2,1,3.1
			c-2.9,10.3-6.4,20.4-13.5,28.6c-5.6,6.4-7.9,6.6-15.5,2.6c-7.9-4.2-16.3-6.7-25.6-6.9c1.4,1.8,3.1,2.2,4.7,2.7
			c7.6,2.5,15.3,4.9,22.9,7.4c6.3,2,7.4,5.2,3.6,10.9c-2.3,3.4-4.2,7-5.7,10.8c-2.4,5.9-6.4,10.7-10.6,15.4
			c-2.2,2.4-4.8,3.1-7.9,2.2c-4-1.1-8.1-2.1-12.5-3.3c1.1,2.4,2.6,3.3,4.4,4.1c3.7,1.7,7.7,2.8,11.8,3.2c1.4,0.1,3.2,0.1,3.6,1.8
			c0.4,1.5-0.7,2.8-1.7,3.8c-1.7,1.8-3.9,3-6.2,4c-5,2.2-10.1,3.7-15.5,4.4c-2.5,0.3-5.1,0.6-6.9,2.4c-4.3,4.4-8.7,9.4-9.3,15.5
			c-0.4,4.4,4.1,7.7,7.1,11.1c0.3,0.3,0.6,0.7,0.9,1c0.2,0.8,0.4,1.5,0.6,2.3c-4.4-2.8-7.2-6.9-10-11.1c-0.7-1-1-2.5-2.4-2.9
			c1.5-2.8,3-5.7,4.5-8.5c3.8-7.2,9.1-11.8,17.6-12.7c4.6-0.5,9.1-1.9,13.4-3.9c1.9-0.9,3.8-2,5.3-4.9c-10.8,1-17-6.8-24.7-11.2
			c-1.3-0.8-2.4-2.2-1.6-3.7c0.6-1.2,2.1-0.3,3.2,0c5.9,1.6,11.2,4.8,17.3,6.1c4.4,0.9,7.5,0,10.2-3.7c5.9-8.1,10.5-16.8,14.3-26
			c1.1-2.7,0.4-4.2-2.5-5.1c-10-3.3-20.2-5.6-30-9.6c-2.8-1.1-5.6-2.3-7.8-4.7c2.2-1.9,4.5-1.3,6.5-1.1c11.1,0.9,21.9,3.3,31.7,8.9
			c3.1,1.8,5.6,1.7,8.4-0.4c2-1.5,4.2-2.9,5.4-5c3.8-6.9,7-14.1,9.5-21.6c1-3,0-5.4-3.1-6.8c-3.1-1.3-6.1-2.7-9.2-3.9
			c-3.3-1.3-6.3-1.4-9.3,1.2c-2.3,2-9.2,1.5-11.4-0.5c-1.8-1.7-0.1-3,0.9-4c3.1-3.2,7.2-4.6,11.5-4.8c5.4-0.2,10.7-0.9,16.1,2
			c6.9,3.7,13.8,0,16.1-7.5c0.4-1.4,0.9-2.8,1.3-4.2c2.9-9.6,4.7-10.7,15.3-9.6c-3.2,4.3-6,8.4-9.3,12.3c-3.2,3.8-3.1,8.7-4.6,13
			c-0.4,1.1,0.6,1.9,1.2,2.6c1.6,1.8,3.4,3.2,5.6,4.1c10.3,3.9,19.8,9.4,29.6,14c4.6,2.2,5.8,1.7,8.3-2.9c4.4-8.1,6.9-17,10.1-25.6
			c1.2-3.3-1.4-4.8-3.9-5.7c-3.8-1.4-7.8-2.5-11.4-4.5c-2.4-1.3-3.2-3.2-3-5.8c0.1-1.8,0.8-3.1,2.3-4c1.5-0.8,2.4,0.7,3.4,1.3
			c3,2,6,4.1,9.5,5.4c5,1.9,8.4,1.2,11.6-3c2.7-3.6,5.1-7.5,7.3-11.4c1.3-2.4,3.2-3.1,5.4-2.2c2.7,1.2,1.6,3.3,0.7,5.2
			c-1.8,3.8-3.4,7.7-5.2,11.5c-1.5,3.2-1.1,5.6,1.9,8c8.5,6.5,18,10.7,28.3,13.5c3.7,1,6.2,0.1,8.9-2.7c5.8-6,7.6-13.2,7.6-21.2
			c0-6.3,2.6-8.7,8-8.4c2.6,0.2,3.9,1.5,3.4,3.9c-1.8,8.4-3,17-8.5,24.1c-0.2,0.2-0.4,0.4-0.6,0.7c-4.8,8.1-3.6,12.2,4.9,14.1
			c8.7,1.9,17.1,4.9,25.7,7.2c1.8,0.5,3.3,0.5,5-0.3c6.9-3.1,10.2-8.2,10.1-15.7c0-3.4,0-6.7,0.2-10.1c0.1-1.2-0.6-2.9,1.3-3.2
			c1.4-0.2,3.2,0,3.9,1.4c2.3,4.6,3.5,9.6,4.2,14.6c0.1,0.9-0.9,2.1-1.6,3c-1.8,2.5-3.8,4.8-5.4,7.4c-2.6,4.4-0.5,9.9,4.2,10.7
			c5.8,1,11.1,3.5,16.5,5.6c11.7,4.6,23.2,0.5,29-10.7c1.4-2.7,3-4,5.7-2.7c2.8,1.2,3,3.6,2,6.3c-1.2,3.2-3.3,5.8-6,7.9
			c-1.5,1.2-3.1,2.1-4.6,3.3c-1.7,1.3-3.9,2.5-3.2,5.2c0.7,2.6,3.1,2.8,5.2,3.2c2.1,0.5,4.3,0.7,6.4,1.1c1.7,0.4,3.3,1.1,4.4,2.6
			c1.4,1.9,2.7,4.2,1.6,6.4c-1.1,2-3.5,0.9-5.2,0.5c-3.4-0.7-6.8-1.6-10.1-2.8c-6.4-2.2-10.8,0-12.8,6.7c-1.2,4-4.1,7.3-3.9,11.9
			c0.1,3.5,1.2,6.3,4.1,8.2c7.7,5.1,16.5,8.1,24.9,11.7c2.5,1.1,4.4-1.1,5.9-2.9c2.4-2.8,4-6.1,5.4-9.5c1.5-3.5,4-3.8,7.1-3.1
			c2,0.4,2.9,1.4,1.8,3.4c-1.3,2.4-2.5,5-4.1,7.2c-2.4,3.3-2.7,7-2.4,10.8c0.3,3.7,3.6,3.8,6.1,4.5c2.4,0.7,4.9,0.7,7.3,1.4
			c2.1,0.6,4.5,1.5,4.1,4.3c-0.4,2.7-2.1,4.9-5.1,5.3c-2.9,0.4-5.7-0.3-8.4-1.7c-8-4.4-12.3-2.7-15.4,5.9
			c-2.3,6.3-4.6,12.6-6.8,18.9c-1,2.6-0.2,3.9,2.7,4.5c8.3,1.6,16.5,3.7,24.8,5.3c4,0.8,3.7,2.2,1.7,4.9c-5,6.9-11.3,12.6-17.8,18
			c-3.5,2.9-3.4,5.3-1,8.5c3,4.1,6,8.3,8.9,12.4c1,1.4,3.1,2.8,2.3,4.4c-1,1.8-3.5,1-5.3,0.7c-8.5-1.1-17-2.4-25.6-3.6
			c-3-0.4-6.1-0.7-9.1-1.3c-3.1-0.5-4.2,0.9-4.7,3.7c-0.5,2.9-0.9,5.8-0.5,8.7c1.6,10.5,0.8,20.9-1.6,31.3c-1.4,6.1-1.2,12.1,1,18
			c1.6,4.4,3.1,8.8,4.3,13.3C425.2,327.6,426,331.5,422.3,334.5z"/>
		<path class="st0" d="M134,346.3c-8.6-0.3-16.5-4-25-4.9c-6.3-0.6-12.6-2.2-18.8-3.4c-0.6-0.2-1.2-0.4-1.9-0.6c0,0,0.1,0.1,0.1,0.1
			c-2.1-1.9,0.9-2.9,0.9-4.4l-0.1,0.1c0.8,0.2,1.4-0.2,1.8-0.9l-0.1,0.1c0.4-0.3,0.8-0.6,1.2-0.9c2.3-1.8,4.7-3.4,6.7-5.4
			c1.7-1.6,3.1-3.7,0.5-5.8c-5-8.4-11.9-15.3-17.2-23.4c-0.6-1-1.2-1.9-1.8-2.9c0.6-0.4,1.2-0.8,1.7-1.2c0.5,0,0.9,0.1,1.4,0.1
			c3.8,0.7,7.6,1.5,11.5,2.1c4.2,0.6,8.3,2.5,12.7,0.8c2.8,0.2,5.1-1.5,7.7-1.9c1.1,10.2,3.8,19.8,10.5,27.8c2,2.4,2.9,4.7,3.1,7.8
			c0.2,4.8,1.5,9.5,4.1,13.7C133.3,344,133.7,345.1,134,346.3z"/>
		<path class="st1" d="M107.6,295.5c-4.3,1.8-8.5-0.2-12.7-0.8c-3.8-0.6-7.6-1.4-11.5-2.1c1.9-2.1,4.5-0.4,6.8-1.1
			c-2.1-1.8-4.6-1.3-7-1.3c-1.9,0-1.6,1.2-1.2,2.3c-0.6,0.4-1.2,0.8-1.7,1.2c-1.1-1.5-1.9-3.1-0.6-4.7c1.2-1.6,3.1-1.4,4.8-1.2
			c6.5,1,13,2,19.5,2.9c2,0.3,4.1,0.3,6.1,0.1c3.8-0.4,5.9-1.8,5.7-6.4c-0.5-12.6-2-25.3,0.5-38c0.8-3.7-1.3-7.1-1.8-10.6
			c1.2,0.8,2.3,1.5,3.5,2.3c0.4,2.8,0.7,5.7,1.1,8.5c-2,14.2-2.1,28.4-0.4,42.6c-4.5,4.6-10.1,4.3-15.8,3.4
			c-3.2-0.5-6.4-0.9-9.7-1.3c-0.1,0.3-0.1,0.6-0.2,0.9C98,293.3,102.8,294.4,107.6,295.5z"/>
		<path class="st1" d="M113.8,235c0.3,0.3,0.6,0.6,0.9,0.9C114.1,236,113.9,235.5,113.8,235z"/>
		<path class="st1" d="M273.9,503.4c0.2,0.2,0.5,0.5,0.7,0.7c-0.3,0.3-0.6,0.7-0.9,1c-0.3-0.3-0.6-0.6-0.8-0.8
			C273.3,504,273.6,503.7,273.9,503.4z"/>
		<path class="st2" d="M139.3,193.8c-0.2-0.8-0.4-1.5-0.6-2.3c1.6-2.3,3.1-4.6,4.7-6.8c1.1-1.6,2.1-4,4.7-2.9
			c2.6,1.1,3.1,3.5,2.9,6.2c-0.3,2.9-0.3,5.8-0.4,8.7c0,0.8-0.1,2,1.1,2c1,0,1.4-0.9,1.5-1.8c0.3-3,0.4-6.1,1-9.1
			c2.9-13.5,7-26.5,18.8-35.4c2.1-1.5,4.5-2.7,5.9-5.1c2.5-1.8,5-3.5,7.5-5.3c0.8,0.1,1.5,0,1.9-0.9l-0.1,0c0.3-0.3,0.6-0.6,1-0.9
			l-0.1,0c0.8,0,1.5-0.1,1.8-0.9l-0.1,0c0.8,0,1.5-0.1,1.8-0.9l-0.1,0c0.8,0,1.5-0.1,1.8-0.9l-0.1,0c0.3-0.3,0.6-0.6,1-0.9l-0.1,0
			c0.8,0,1.5,0,1.8-0.9l-0.1,0c0.8,0.1,1.5,0,1.8-0.9l-0.1,0c0.8,0.1,1.5,0,1.8-0.9l-0.1,0c0.8,0.1,1.5,0,1.8-0.9l-0.1,0
			c0.8,0.1,1.5,0,1.8-0.9l0,0c1.8,0.3,3.4-0.5,5-1.2c23.1-9.6,47-13.7,72.1-11.2c23.5,2.3,45,10.4,65.1,22.3
			c3.6,2.1,7.1,4.6,10.3,7.4c3.8,3.3,3.3,5.5-1.3,7.3c-0.7,0.3-1.3,0.6-1.2,1.5c0.1,0.9,0.9,1,1.6,1.1c2.6,0.3,5.2,0.7,7.8,1
			c1.6,1.1,3.4,1.5,5.3,1.7c0.7,0.9,1.6,0.8,2.6,0.9c0.6,0.3,1.2,0.6,1.8,0.8c0.6,0.3,1.2,0.6,1.7,0.9c0.3,0.3,0.6,0.6,0.9,0.9
			c12.6,14.5,23.2,30.3,30,48.4c6.9,18.3,10.6,37.1,10.1,56.7c-1.4-0.3-2.8-0.8-4.2-0.9c-18.8-1.7-35.7-9-52.3-17.2
			c-1.4-0.7-2.4-1.8-3.1-3c-2.8-4.9-7.4-6.1-12.5-6.3c-7.7-0.4-15.4-1.1-23.1-1.6c-1-11.5-1.5-23,0.2-34.4c1-6.8,2.9-13.4,3.3-20.2
			c0.3-5.9-3.3-9.4-8.3-6.7c-4.6,2.5-6.5-0.2-9.8-1.3c-5.5-1.8-11.6,0.9-17.4-0.9c-0.7-0.2-1.7,0.9-2.6,1.4
			c-1.1,0.7-2.2,1.4-3.3,2.1c-1.4-3.9-3.9-4.7-9.6-3.7c-3.4,0.6-3.1,3.3-3,5.4c0.3,4.9,0.2,9.8,0,14.8c-0.5,14.4,0.7,28.8-2.8,43
			c-0.5,0.2-1,0.4-1.6,0.5c-0.9-0.1-1.8-0.1-2.6-0.4c-25.8-8.8-51.6-17.6-77.4-26.2c-5.8-1.9-11.4-4.4-17.6-4.9l0,0
			c-0.3-0.9-1-1-1.8-0.9l0.1,0c-0.4-0.9-1.3-0.9-2.1-0.8c-0.8-0.3-1.5-0.6-2.3-0.8c-3.5-1-6.1-3.9-9.8-4.6
			c-3.2-4.1-7.5-6.7-12.1-8.8l0,0C140.3,193.9,140,193.7,139.3,193.8L139.3,193.8z"/>
		<path class="st3" d="M363.4,160.6c-2.6-0.3-5.2-0.7-7.8-1c-0.7-0.1-1.5-0.2-1.6-1.1c-0.1-0.9,0.5-1.2,1.2-1.5
			c4.6-1.8,5.1-4,1.3-7.3c-3.2-2.8-6.7-5.2-10.3-7.4c-20.2-11.9-41.6-20-65.1-22.3c-25.1-2.5-49,1.6-72.1,11.2
			c-1.6,0.7-3.2,1.5-5,1.2c3.4-2.6,7.5-3.7,11.4-5.3c2.4-1,4.9-2,6.6-4.1c1.7-2.1,2-4.3-1.2-4.8c-5-0.9-9.1-3.6-13.5-5.9
			c-5.7-3-10.6-1.9-13.7,3c-4.2,6.6-8.4,13.3-12.5,19.9c-1.7,2.7-3.2,5.5-4.2,8.6c-0.8,2.2-0.4,3.4,2.1,3.4
			c-1.4,2.3-3.9,3.6-5.9,5.1c-11.8,8.9-15.9,21.8-18.8,35.4c-0.6,3-0.7,6.1-1,9.1c-0.1,0.9-0.5,1.8-1.5,1.8c-1.2,0-1.1-1.2-1.1-2
			c0.1-2.9,0.2-5.8,0.4-8.7c0.2-2.7-0.3-5.1-2.9-6.2c-2.6-1.1-3.5,1.3-4.7,2.9c-1.6,2.2-3.1,4.5-4.7,6.8c-0.3-0.3-0.6-0.7-0.9-1
			c-2.9-3.4-7.5-6.8-7.1-11.1c0.6-6.1,4.9-11.1,9.3-15.5c1.8-1.9,4.4-2.1,6.9-2.4c5.4-0.7,10.5-2.2,15.5-4.4c2.3-1,4.5-2.2,6.2-4
			c1-1.1,2.1-2.3,1.7-3.8c-0.5-1.7-2.2-1.7-3.6-1.8c-4.1-0.4-8-1.5-11.8-3.2c-1.7-0.8-3.3-1.7-4.4-4.1c4.5,1.2,8.5,2.2,12.5,3.3
			c3.1,0.8,5.7,0.2,7.9-2.2c4.2-4.7,8.2-9.5,10.6-15.4c1.5-3.8,3.4-7.4,5.7-10.8c3.8-5.7,2.7-8.9-3.6-10.9
			c-7.6-2.5-15.3-4.9-22.9-7.4c-1.6-0.5-3.3-0.9-4.7-2.7c9.3,0.2,17.7,2.7,25.6,6.9c7.5,4,9.8,3.8,15.5-2.6
			c7.1-8.2,10.7-18.3,13.5-28.6c0.3-1.1,0.3-2.3-1-3.1c-5.4-3.1-10.5-6.8-16.9-8c-2.8-0.5-5.2-0.4-7.2,1.8c-0.6,0.6-1.3,1.3-2,1.7
			c-2.1,0.9-4.8,0.4-5.6-1.1c-0.9-1.8,1.7-2.8,3.2-3.2c6.8-1.9,13.5-2.5,20.5,0.2c6.4,2.4,13.8,2.2,17.9-4.3l0.2,0.1
			c-0.8,10.6,0,12.5,10.5,16.1c9.3,3.2,17.5,8.7,26.3,12.7c7,3.2,9.2,2.5,12.5-4.2c3.7-7.7,5.7-16.2,9.5-23.9
			c2.5-5.2,0.2-8.4-5.2-10.3c-3.6-1.2-7-2.8-10.6-4.1c-2.3-0.8-2.6-2.6-1.7-4.1c1-1.8,2.3,0.1,3.2,0.6c2.9,1.4,5.6,3.1,8.4,4.6
			c4.9,2.6,8.5,2,12.6-1.9c2.8-2.7,4.2-6.3,6.2-9.5c1.2-2,2-4.2,5-5.1c-0.6,4.2-2.7,7.4-4.3,10.9c-3.4,7.4-3,10.5,3.5,14.8
			c8.5,5.7,17.7,10.1,27.7,12.7c4.6,1.2,8-0.1,11-3.9c4.6-5.8,8-11.7,7.3-19.5c-0.2-2.4,0.2-5,1.6-7.2c1.1-1.7,2.8-2.3,4.6-1.6
			c1.7,0.6,1,2.3,0.7,3.4c-1.9,7.3-2.9,14.9-8,21c-1.4,1.6-2.3,3.7-3.2,5.7c-1.8,4.5-0.3,7.6,3.8,10c6.5,3.8,14.1,3.4,20.9,6.1
			c1.2,0.5,2.6,0.5,3.8,1.1c8.8,5.1,15.5,1.1,21.8-4.8c0.2,0.2,0.4,0.3,0.6,0.5c-2.7,9.1-0.7,12.3,8.4,14.8
			c4.8,1.3,9.6,2.9,13.9,5.2c13.1,7.1,25.2-2,30.8-10.2c0.8-1.1,0.6-4.3,3.4-2.7c2.8,1.7,0.6,3.6-0.4,5.1c-2.3,3.6-5.9,6-9.3,8.5
			c-1.9,1.4-3.8,2.9-3.4,5.7c0.4,3.2,1.5,5.6,5.4,5.5c3.8-0.1,7.6,0.4,10.8,2.8c0.9,0.7,1.9,1.6,1.5,2.9c-0.5,1.6-2,0.9-3,0.6
			c-3.1-0.8-6.2-1.8-9.2-2.7c-7.3-2.3-12.8,0.5-15.3,7.7c-0.9,2.6-2.3,5-3.4,7.6c-2.8,6.2-1.5,12.1,4.1,15.8
			c7.9,5.3,16.8,8.8,25.6,12.1c3.2,1.2,5.8-1,8-3.2c2.6-2.8,4.1-6.3,5.8-9.7c0.6-1.3,1.3-3,3.2-2.1c2.2,1,0.5,2.5,0,3.6
			c-1.4,2.7-3.3,5.2-4.4,8c-3.1,7.4-0.6,12.2,7.2,14.1c2.4,0.6,4.9,1,7.2,1.6c1,0.3,2.5,0.7,2.3,2.2c-0.2,1.2-1.2,2-2.4,2.4
			c-2,0.6-4,0.5-5.9-0.5c-1.7-0.9-3.3-1.9-5.1-2.6c-5.6-2.2-10.9-0.4-13.2,5c-3.5,8-6.5,16.2-9.2,24.5c-1.2,3.7,0.4,4.8,3.6,5.5
			c7.3,1.4,14.5,3,21.8,4.7c1.4,0.3,3.9,0.1,3.9,1.8c-0.1,1.7-1.1,4-3.8,4.1c1-2.2,2.4-4.3-1.7-5.2c-17.7-3.6-35.2-8-53.4-8
			c-2.2-0.6-4.4-1.3-6.7-1.7c-2.4-0.4-3.8,0.5-2.6,3.2c2.3,5.2,4.2,10.5,7.4,15.2l0,0c-0.1,0.8-0.1,1.6,0.9,1.8l0,0
			c-0.2,1.1-0.1,2,0.9,2.7l0-0.1c-0.1,0.3-0.1,0.6,0.1,0.8c0.6,2,1.1,4,1.7,6c-0.2,6.2,1.3,12.2,2.6,18.2c0.2,1,0.8,1.5,1.9,1.2
			c2.1,0.5,2.9-2.7,5.4-1.6c5.4,2.3,11.3,1.9,16.9,3c-0.6,1.6-1.8,1-2.9,0.9c-3.9-0.5-7.8-1-11.7-1.6c-4.2-0.6-6.7,1.4-7,5.8
			c-0.1,1.3-0.2,2.6,0,3.9c2,13.2-0.5,26.1-2.6,39c-0.9,5.7,0.3,10.9,1.9,16.2c0.9,2.9,2.6,5.6,2.3,8.8c-3.3-5-6.7-10-10-15
			c0.6,0,1.2,0.1,1.4-0.7c2-11.3,4.9-22.5,4.2-34.1c0.5-19.6-3.2-38.5-10.1-56.7c-6.8-18.1-17.4-33.9-30-48.4
			c0.2-0.2,0.4-0.5,0.6-0.7c4,2.1,7.9,4.4,12,6.3c5.3,2.5,7.4,1.8,9.6-3.5c3.2-7.6,6-15.4,9.1-23.2c0.8-2,0.3-3.2-1.6-4.2
			c-7.9-4.3-15.9-8.5-24.5-11.5c-2.4-0.9-4.9-0.9-7.3-0.7c-2.9,0.1-4.7,1.5-4.7,4.6c0.1,4.7-1.5,8.8-3.4,13
			c-2.1,4.6-2.9,9.4-1.8,14.4C363.6,160.4,363.5,160.5,363.4,160.6z M288.5,52.7c-1,0.1-3.2-0.9-4.6,1.4
			c-4.7,7.4-9.5,14.7-11.9,23.3c-1.8,6.2-0.9,8.3,4.6,11.6c9.1,5.6,19.1,9.4,29.1,12.9c5.5,1.9,6.4,1.6,9.2-3.7
			c2.6-4.9,4.1-10.3,7.2-15c2.3-3.5,3-7.5,3.4-11.6c0.3-2.4-0.4-4.4-2.7-5.5c-8.7-4.2-17.3-8.3-26.1-12.3
			C294.5,52.9,292,52.5,288.5,52.7z M232.3,118.5c7.8,0.9,15.1,0.8,20.4-5.2c4.4-5,7-11.1,7.6-17.8c0.5-5.1-1.5-8.9-6.1-11.1
			c-9.5-4.4-19-8.8-28.6-13c-3.9-1.7-7.9-0.8-10.2,2.7c-5.4,8.3-10.6,16.8-12.8,26.6c-0.9,4,0.6,6.5,4.4,7.7
			c4.2,1.3,8.2,3.1,11.7,5.8C223,117.5,227.5,119.3,232.3,118.5z M340.1,73.8c-5.6,0-9.1,1.7-11.6,5.4c-4.7,7.1-6.7,15.1-7.4,23.5
			c-0.2,2.4,0.7,5.7,2.9,5.8c5.2,0,8.8,3.6,13.3,4.9c7.6,2.1,15.1,4.2,22.7,6.2c5.4,1.4,7.8,0.2,9.8-5.1c2.2-6,4.3-12.1,6.1-18.2
			c2.1-7.2,0.9-10.2-6.2-13c-7.4-3-15.1-5.3-22.7-7.8C344.4,74.5,341.7,73.7,340.1,73.8z M422.1,197.2c2.5,0,4.1-0.2,5.7,0
			c4.5,0.5,7.3-1.7,8.8-5.6c3.8-9.5,7.3-19,11-28.5c1.3-3.4,0.2-5.4-2.9-7c-8.1-4.1-16.5-7.2-25.2-9.9c-6.5-2-7.5-1.7-10,4.9
			c-3.3,8.7-5.9,17.7-9.4,26.3c-3,7.3,1.1,15,8.6,17.8C413.4,197.1,418.1,197.5,422.1,197.2z M419.1,105.7c0.6-1.6-1-3-3.5-4.1
			c-8.4-3.7-17.2-6.3-26.1-8.8c-4.4-1.3-7,0-8.8,3.9c-2.2,4.6-4.5,9.2-6.7,13.8c-2.5,5.4-1.4,9.5,4,12c8.2,3.8,16.6,7.1,25,10.4
			c1.4,0.6,3.1,0.5,4.7,0.7c2.7,0.2,4.7-1.2,5.4-3.6C415.2,122.3,418,114.9,419.1,105.7z M309.2,112.2c0.8-2.9-1-4.8-3.6-5.9
			c-7.8-3.2-15.3-7.1-23-10.4c-10.7-4.4-16.8-1.7-22.3,8.3c-1.5,2.7-2.5,5.6-3.8,8.3c-1.3,2.7,0,3.8,2.5,4.1c4.3,0.5,8.7,1,13.1,0.8
			c9.5-0.3,18.9,1.1,28.3,2.2C307.3,120.6,308.8,119.7,309.2,112.2z M322.1,113.1c-4.5-0.1-9.4,4.1-10.2,8.3c-0.3,1.5,0.4,2,1.8,2.4
			c13.5,3.6,25.6,10.2,37.4,17.7c6.9,4.4,9.4,3,11-5.2c0.3-1.4,0.4-2.9,0.6-4.3c0.8-6.3,0.4-7.3-5.7-8.9c-9.6-2.6-19.1-5.2-28.3-8.8
			C326.5,113.4,324.1,112.9,322.1,113.1z"/>
		<path class="st4" d="M415.8,271c0.8,11.6-2.2,22.8-4.2,34.1c-0.1,0.8-0.8,0.7-1.4,0.7c-5.4-4.6-10.7-9.3-17.5-11.6
			c-2.6-3.2-5.9-4.7-9.9-4.8c-2.6-0.9-5.1-1.9-7.7-2.8c-3.2-2.3-7.2-2.8-10.7-4.3c-9.7-5-20.1-8.1-30.2-12.1
			c-21.7-8.8-43.6-17-65.3-25.5c-1.2-0.5-3.5-0.1-3.2-2.6c0.5-0.2,1-0.4,1.6-0.6c6.7-2,13.6-0.5,20.4-0.9c3.8,0.1,7.6,0.2,11.3,0.3
			c7.2,0.5,14.4,1.5,21.6,1.1c7.7,0.5,15.4,1.2,23.1,1.6c5.2,0.3,9.7,1.4,12.5,6.3c0.7,1.2,1.7,2.3,3.1,3
			c16.6,8.2,33.5,15.5,52.3,17.2C413,270.2,414.4,270.7,415.8,271z"/>
		<path class="st3" d="M119.2,246.6c-0.4-2.8-0.7-5.7-1.1-8.5c16.8,10.4,35.6,15.8,54,22.2c39.9,13.8,79.8,27.9,119.8,41.3
			c24.6,8.3,48.9,17.2,73.1,26.5c19.2,7.4,32.2,21,37.7,41.2c-3,3-5.2,6.6-7.1,10.4c-2.8,5.2-6.6,8.8-13.1,9.6
			c-5.8,0.7-11.2,2.9-16.7,5c-2.2,0.9-2.9,2.7-3.3,4.7c-0.6,2.7-0.6,5.5-2.2,7.9c-0.3-0.2-0.5-0.4-0.8-0.7c0.3-3,1.7-5.9,1.3-9
			c-0.1-1.1-0.1-2.5-1.6-2.7c-1.3-0.1-1.4,1.2-2,2c-0.9,1.3-0.9,3-2.5,3.9c-0.2-0.3-0.6-0.5-0.6-0.6c0.3-2.1,2.6-4.5,0.6-6
			c-1.6-1.2-3.6,1.2-5.3,2.2c-12.6,6.6-24.7,14.4-38.9,17.7c-1.4,0.3-2,1-2.3,2.2c-0.7,2.8,2.6,2.2,3.3,4.3c-3.5,0.2-6.7-2-10.9-1
			c8.5,4,17.1,5.5,25.1,8.8c-0.1,0.4-0.3,0.9-0.4,1.3c-9-2.1-18-4.1-26.9-6.4c-2.9-0.8-4.2-0.1-5.5,2.4c-0.7,1.4-0.7,4-4,2.8
			c-1.2-0.5-1.7,3.1-3.2,4.2c-0.2-0.2-0.5-0.5-0.7-0.7c0.6-1.9,1.1-3.9,2-5.7c2-4,0.9-6.4-3.2-7.7c3.8-1.9,8.1-1.7,12.2-2.7
			c17.5-4,34.2-10.1,49.2-20.1c8-3.4,14.5-9,20.9-14.7c6.1-5.4,12.5-10.8,16.7-18.1l0,0.1c0.6-0.1,0.9-0.5,1-1.1
			c1.5-2,2.8-4.1,4.5-5.9c2.3-2.5,1.9-4.5-0.3-7c-5.4-6.2-11.6-11.3-18.5-15.5c-0.6-3.3-3.5-3.1-5.8-3.8l0,0
			c-0.9-1.3-2.4-1.4-3.8-1.9c-11.9-4.3-23.7-8.6-35.6-12.7c-8.5-2.9-17.2-5.3-26.3-5c-2.1-0.7-4.2-1.3-6.2-2.1
			c-35.4-13.1-70.8-26-106.1-39.3c-21.6-8.1-44.6-12.9-64.4-25.7c-0.2-0.1-0.5,0-0.9,0C119.9,244.2,119.6,245.4,119.2,246.6z"/>
		<path class="st3" d="M265.6,242c-0.3,2.5,2,2.1,3.2,2.6c21.8,8.5,43.7,16.7,65.3,25.5c10.1,4.1,20.5,7.1,30.2,12.1
			c-0.3,0.3-0.6,0.7-0.9,1c-1.7-0.5-3.5-1-5.2-1.5c-3-2.8-6.7-3.6-10.6-3.8c-2.3-0.5-4.3-1.9-6.7-1.9c-0.4-1.6-1.4-2-2.9-1.7l0,0
			c-0.6-1.1-1.6-1-2.6-0.9l0,0c-0.6-1.1-1.6-1.1-2.6-0.9l0,0c-0.6-1.1-1.6-1.1-2.6-0.9l0,0c-2.3-1.8-5-2.6-7.9-2.6l0,0
			c-2-1.8-4.5-2.4-7.1-2.5c-11.8-4.4-23.6-8.8-35.3-13.2c-0.6-0.7-1.4-0.9-2.2-0.9l0.1,0c-0.7-0.9-1.6-1.1-2.7-0.9l0.1,0
			c-0.3-0.9-1.1-0.9-1.8-0.9l0.1,0c-1.2-1.2-2.7-1.7-4.4-1.8l0.1,0c-2.1-1.7-4.5-2.4-7.1-2.7l0,0c-1.2-1.3-2.7-1.8-4.4-1.8l0,0
			c-2.1-1.6-4.5-2.4-7.1-2.7l0,0c-0.6-1.2-1.6-0.9-2.7-0.7c-17.6-6.9-35.4-13.1-53.1-19.6c-6.2-2.3-12.6-4.1-18.8-6.4
			c-0.3-1.6-1.5-1.5-2.7-1.3l0,0c-0.7-1.5-2.1-1.7-3.6-1.7l0,0c-0.6-0.6-1.2-1.2-1.8-1.7c6.2,0.5,11.8,3,17.6,4.9
			c25.8,8.6,51.6,17.5,77.4,26.2C263.9,241.9,264.8,241.9,265.6,242z"/>
		<path class="st1" d="M184.4,249.5c-3,2.1-4.1,1.1-4-2.3c0.1-2.6,0-5.2,0-8.8c-1.9,3.1-3.3,5.5-2.4,8.5c0.3,0.9,0.7,2-0.6,1.9
			c-1.5-0.1-3.1-0.7-4.4-1.5c-1-0.6-0.2-1.3,0.5-1.9c3-2.7,3.2-6.6,4.4-10.2c0.4-1.2-2.5-4,1.2-3.6c2.3,0.2,5.6,0.2,5.5,4.1
			c-0.1,2.4,0,4.9,0,8.3c1.7-2,2.8-3.2,3.8-4.5c2.9-3.7,5.1-4.2,9.1-1.8c1.1,0.7,1.7,1.4,0.4,2.3c-4.4,3.2-5.6,7.6-4.8,12.7
			c0.1,0.9-0.2,1.7-0.9,1.5c-2.7-0.8-6.2-0.3-7.3-4.1c3.9-0.2,4-3.3,4.5-6.1c0.3-0.3,0.6-0.6,0.1-1c0,0-0.4,0.3-0.6,0.5
			C187,245.2,185.6,247.3,184.4,249.5z"/>
		<path class="st1" d="M166.4,245.1c-3.4-1.2-7.1-2.4-10.8-3.8c-1.7-0.6-1.3-1.5-0.1-2.5c3.6-3.2,5-7.3,4.3-11.9
			c-0.3-2,0.2-2.6,1.9-1.9c3.3,1.2,6.5,2.5,9.7,3.8c1.1,0.5,2,1.3,2.4,2.4c0.7,1.5-2.5,12-3.9,13C169,244.8,168,245.2,166.4,245.1z
			 M168,239.2c-0.2-2.2-1.9-2.9-3.5-3.2c-2.3-0.4-2.3,1.6-2.6,3.1c-0.3,1.8,0.7,2.7,2.4,2.9C166.3,242.1,167.5,241.1,168,239.2z
			 M169.8,231.6c-0.5-1.6-1.6-2.7-3.4-2.5c-1.7,0.2-2.3,1.9-2.2,3.2c0.1,1.9,1.9,1.8,3.3,1.8C169,234.1,169.8,233.3,169.8,231.6z"/>
		<path class="st1" d="M380.4,318.2c1.7-2,2.3-3.6,2.3-5.3c0-1-1.5-2.5,0.7-2.6c1.6-0.1,3.3,0.6,4.2,2c0.9,1.4-0.8,1.4-1.5,2
			c-2.7,2.7-3.2,6.5-5,9.6c-0.7,1.1-0.6,3.2-2.7,2.8c-1.9-0.4-2.2-2.2-2.4-3.8c-0.5-3.6-0.8-7.2-1.6-11c-1.6,3-4.3,5.5-3.2,9.4
			c0.2,0.7,0.2,1.7-0.8,1.6c-1.7-0.2-3.4-1-4.6-2.2c-0.6-0.6,0-1.1,0.7-1.6c3.9-3,5.7-7,5.3-11.9c-0.1-1,0.1-1.7,1.2-1.9
			c1.9-0.3,6,3,6.3,5c0.2,1.3,0.3,2.6,0.5,3.9C380,315.3,380.1,316.5,380.4,318.2z"/>
		<path class="st1" d="M265.9,268.7c-1.8-2-3-3.5-4.3-4.8c-0.8-0.9-2-1.4-3.2-0.8c-1.2,0.5-1.8,1.8-1.4,2.9c0.3,0.9,1.4,0.8,2.2,0.4
			c0.6-0.3,1.2-0.9,2.3-0.3c-0.1,2.4-1.2,4.6-2.6,7.6c-0.6-1.1-0.9-1.4-1.1-1.8c-0.4-0.9,0-2.8-1.8-2.3c-1.4,0.4-1.3,2.1-1.7,3.3
			c-0.5,1.4,0.4,2.2,1.7,2.4c2.2,0.4,4.3,0.2,6.3-1c0.6-0.4,1.3-0.9,1.9-0.1c0.5,0.7,0,1.4-0.4,1.9c-1.6,2-3.3,3.6-6.3,2.2
			c-2.6-1.2-5.4-2-8.2-3c-1.9-0.7-3-0.8-0.8-3.3c2.8-3.1,4.8-7.2,3.9-11.8c-0.4-2,0.2-2.3,2-1.7c2.7,1,5.4,2.1,8.2,2.9
			C266.5,262.4,266.8,264.8,265.9,268.7z"/>
		<path class="st1" d="M279.3,276.5c1.7-2.2,2.2-3.8,1.7-5.6c-0.2-0.9-1.3-2.3,0.4-2.3c1.5-0.1,3.2,0.6,4.4,1.6c1.3,1-0.3,1.5-1,2.2
			c-2.7,2.7-2.9,6.6-4.4,9.9c-0.6,1.2-0.3,3.3-2.2,3.3c-2.3,0-2.5-2.1-2.9-3.8c-0.8-3.5-1.4-7.1-2.4-11.8c-1.4,4.2-3.9,7-2.7,10.8
			c0.3,0.9,0.1,1.5-0.8,1.6c-1.7,0.1-3.2-0.6-4.4-1.7c-0.7-0.6-0.2-1.1,0.4-1.7c3.6-3.3,4.9-7.6,4.6-12.3c-0.1-1.6,0.4-2,1.6-1.7
			c3,0.7,6.1,1.2,6.2,5.5C277.8,272.1,278.6,273.9,279.3,276.5z"/>
		<path class="st1" d="M314.2,284.3c-0.7,2.6-1,5.3-3,7.4c-0.5-0.3-0.8-0.4-0.9-0.6c-0.5-1.1-0.1-3.2-1.8-3
			c-1.7,0.1-1.6,2.2-1.9,3.5c-0.5,2,1,2.5,2.5,2.9c2.7,0.6,4.9-1.6,7.6-1.6c-2,5-3.2,5.6-7.5,4c-2.6-1-5.2-1.8-7.8-2.8
			c-1.5-0.6-2.6-1-0.8-3c3.1-3.3,5-7.3,4.3-12.1c-0.3-1.9,0.7-2.1,2-1.6c3.4,1.2,6.9,2.4,10.2,3.8c2.6,1.1,1.7,3.5,1.5,5.4
			c-0.1,1.2-1.2,0.9-1.8,0.1c-0.7-0.9-1.4-1.9-2-2.8c-0.6-0.6-1.1-1.3-1.8-1.7c-1-0.6-2.1-1-3,0.3c-0.5,0.8-1.3,1.9-0.6,2.7
			c1.2,1.5,2.2,0.2,3.2-0.5C313.1,284.3,313.7,284.3,314.2,284.3z"/>
		<path class="st1" d="M363.6,305.7c-0.3,2.9-1.3,5.1-3.2,7.1c-0.4-0.6-0.8-0.9-0.9-1.2c-0.4-1,0.1-2.8-1.6-2.6
			c-1.5,0.1-1.4,2-2,3.1c-0.6,1.3-0.3,2.2,1.1,2.8c1.7,0.6,3.3,0.8,5.1,0.2c1.1-0.4,2.2-1.7,3.6-0.7c-2.3,4.8-3.4,5.2-7.7,3.4
			c-0.4-0.2-0.8-0.3-1.2-0.5c-2.4-1.1-5.3-1.7-7-3.4c-3.2-3.3,3-2.6,2.8-5.5c-0.2-3,3.9-5.4,2.3-9.3c-0.6-1.4,0.7-1.6,1.9-1.1
			c3.4,1.6,6.9,3.1,10.3,4.7c2.1,1,1.5,2.9,1.4,4.6c0,0.5-0.5,1.1-0.9,1.3c-0.5,0.2-1.1-0.2-1.3-0.8c-0.5-1.4-1.2-2.7-2.4-3.6
			c-1.1-0.9-2.2-2.3-3.7-1c-0.8,0.7-1.7,2-0.9,3.1C360.8,308,361.7,305.2,363.6,305.7z"/>
		<path class="st1" d="M332,301.4c0.1-8,7.4-12.4,14-8.5c1.9,1.2,5.4,1.6,4.1,5.4c-0.4,1-0.1,2.6-1.7,2.6c-1.3,0-1.3-1.3-1.5-2.3
			c-0.5-2.3-1.5-4.1-4.2-4.3c-2.7-0.2-3.9,1.6-4.8,3.6c-1.1,2.3-2.7,4.7-0.7,7.3c1.1,1.5,2.7,1.8,4.3,1.3c1.8-0.5,2.1-1.7,1.4-3.4
			c-0.7-1.4,0.1-2,1.4-1.6c1.7,0.5,3.2,1.3,4.8,2c0.7,0.3,1.4,1.4,0.6,1.6c-2.9,1-3.4,3.7-4.8,5.8c-0.1,0.2-0.6,0.4-0.7,0.4
			c-2.6-2.8-6.9-1.7-9.6-4.2C332.9,305.7,331.9,303.7,332,301.4z"/>
		<path class="st1" d="M219.8,261c-0.3,1.1,2.2,3.2-0.4,3.3c-2.3,0.1-4.6-1.5-6.8-2.6c-0.7-0.4,0.1-1.2,0.6-1.7
			c3.7-3.4,5.4-7.6,4.8-12.6c-0.2-1.6,0.6-1.7,1.8-1.3c2.7,1,5.5,1.9,8.2,3.1c2.9,1.3,4.8,3.3,3.3,6.9c-1.4,3.4-4,3.5-6.8,2.5
			C222.1,257.8,219.8,256.9,219.8,261z M227.6,253.2c-0.1-1.6-1.3-2.6-2.7-2.9c-2.7-0.4-2.3,2.1-2.9,3.5c-0.7,1.5,0.4,2,1.7,2.2
			C225.7,256.2,227,255.2,227.6,253.2z"/>
		<path class="st1" d="M245.6,257.9c-0.3-0.9-0.7-1.8,0.7-1.9c1.6-0.1,3.3,0.4,4.4,1.5c0.7,0.7-0.3,1.4-1.1,1.9
			c-2.6,1.6-2.6,4.7-3.7,7.2c-2.1,4.9-4.5,6.2-9.2,4.5c-4.7-1.7-5.6-4.1-4.2-9.3c0.8-2.8,3.1-5.4,1.5-8.7c-0.5-1.1,0.6-1.5,1.6-1.2
			c1.4,0.4,2.7,1,4.1,1.4c2.1,0.7,2.7,1.3,0.5,3.1c-2.6,2.2-3.1,5.8-3.9,9c-0.5,1.8,0.6,3.1,2.3,3.6c1.8,0.5,3.1,0,4.2-1.6
			C243.8,266.1,245.6,259.7,245.6,257.9z"/>
		<path class="st1" d="M285.8,275.7c1.3-3.1,3-5,6.6-3.6c2.6,1,5.1,2.1,7.8,2.8c2.4,0.6,2.8,2.2,2.7,4.2c-0.1,0.9,0.1,1.9-1.1,2
			c-0.9,0.1-1.1-0.8-1.3-1.4c-0.5-1.2-1-2.7-2.6-2.6c-1.5,0.2-1.7,1.9-2,3.1c-0.8,3-3.3,5.6-1.7,9.1c0.5,1-0.4,1.7-1.4,1.4
			c-1.8-0.5-3.6-1.2-5.3-2c-1.2-0.6-1.1-1.4,0.1-2.3c3.3-2.5,3.1-6.7,4.7-10.1c0.9-1.9-0.8-2.1-2.2-1.9
			C288.6,274.8,287.7,276.5,285.8,275.7z"/>
		<path class="st1" d="M138.2,224c-1.3-3.5,0.3-8.3-5-8.3c-2.7,0-6.9,4.5-6.9,7.6c0,6.3,5.8,3.8,9.2,5.2c-3.8,3.1-7.9,2.6-11.1-1.1
			c-3-3.5-2.6-9,1.2-12.6c4.2-4,9.2-3.5,14.3,2C142,219.1,139.8,221.3,138.2,224z"/>
		<path class="st1" d="M391.1,333.8c5.8-1.7,9.8-4.5,11.7-9.6c0.7-1.7,1.2-1.8,2.4-0.7c1,1,2.1,2.1,3,3.2c1.2,1.4,1.6,2.5-1,2.8
			c-3.8,0.5-5.8,3.7-8.2,6.2c-1.7,1.8-0.4,3.3,1.4,4c1.3,0.5,2.9,0.4,4.3,0.5c1.2,0.1,2.4,1.1,1.1,1.8c-2,1-4.3,3.6-6.9,0.6
			C396.6,339.8,394,337,391.1,333.8z"/>
		<path class="st1" d="M388.8,332.7c-1.6-1.1-3.6-2.3-5.4-3.8c-0.7-0.6-0.1-1.3,0.6-1.7c4.3-2.6,6.8-6.3,7-11.4
			c0.1-1.6,1.2-1.5,2.1-1c1.6,0.8,3,1.7,4.5,2.7c1,0.7,1.3,1.5,0,2.3c-4.2,2.7-7.2,6.2-7.1,11.7
			C390.5,332.6,390.2,332.7,388.8,332.7z"/>
		<path class="st1" d="M140.1,194.6c4.7,2.1,8.9,4.7,12.1,8.8C147.8,201,143.2,198.8,140.1,194.6z"/>
		<path class="st1" d="M324.6,293.8c1.4,0.7,3.6,0.4,4.4,2.2c0.4,1-0.9,2-1.9,1.8c-1.6-0.4-3.7-0.4-4.5-2.1
			C322.2,294.8,323.4,294,324.6,293.8z"/>
		<path class="st1" d="M200.5,254.3c-0.2,1.4-0.9,2.4-2.2,2.4c-1.5,0-2.3-1.1-2.2-2.6c0.1-1.3,0.9-2.2,2.3-2
			C199.6,252.3,200.5,253.1,200.5,254.3z"/>
		<path class="st1" d="M363.5,283.3c0.3-0.3,0.6-0.7,0.9-1c3.5,1.5,7.5,2,10.7,4.3C370.7,287.4,367.2,284.9,363.5,283.3z"/>
		<path class="st1" d="M144.5,234.1c-0.1,1.3-0.7,2.3-2,2.4c-1.4,0.1-2.2-0.7-2.3-2c-0.2-1.4,0.5-2.2,1.9-2.3
			C143.4,232.2,144.3,232.7,144.5,234.1z"/>
		<path class="st5" d="M382.8,289.4c4,0.1,7.4,1.7,9.9,4.8C389.6,292.2,385.3,292.6,382.8,289.4z"/>
		<path class="st5" d="M347.7,278c3.9,0.2,7.6,1,10.6,3.8C354.7,280.6,351,279.8,347.7,278z"/>
		<path class="st5" d="M322.4,269.1c2.9,0.1,5.6,0.8,7.9,2.6C327.3,271.8,324.6,271.1,322.4,269.1z"/>
		<path class="st1" d="M168.1,210.4c0.6,0.6,1.2,1.2,1.8,1.7c-3.2-0.5-6.1-1.2-7.9-4.3c0.8,0.3,1.5,0.6,2.3,0.8
			c0.5,0.7,1.3,0.9,2.1,0.8l-0.1,0C166.7,210.5,167.4,210.5,168.1,210.4L168.1,210.4z"/>
		<path class="st1" d="M250.5,241.9c2.6,0.3,5,1,7.1,2.7C254.9,244.6,252.3,244.2,250.5,241.9z"/>
		<path class="st1" d="M261.9,246.3c2.6,0.3,5,1,7.1,2.7C266.2,249.1,263.9,248.1,261.9,246.3z"/>
		<path class="st5" d="M315.2,266.6c2.6,0.1,5.1,0.7,7.1,2.5C319.7,269,317.3,268.3,315.2,266.6z"/>
		<path class="st1" d="M268.9,249c1.7,0,3.2,0.6,4.4,1.8C271.6,250.8,269.9,250.8,268.9,249z"/>
		<path class="st1" d="M257.5,244.6c1.7,0,3.2,0.4,4.4,1.8C260.2,246.5,258.5,246.4,257.5,244.6z"/>
		<path class="st1" d="M169.9,212.2c1.4,0,2.8,0.2,3.6,1.7C171.9,214,170.6,213.8,169.9,212.2z"/>
		<path class="st5" d="M338.1,274.4c1.5-0.3,2.5,0.1,2.9,1.7C339.8,275.9,338.7,275.5,338.1,274.4z"/>
		<path class="st5" d="M330.2,271.7c1-0.2,2-0.2,2.6,0.9C331.8,272.8,330.8,272.9,330.2,271.7z"/>
		<path class="st5" d="M335.5,273.5c1-0.2,2-0.2,2.6,0.9C337.1,274.5,336.1,274.7,335.5,273.5z"/>
		<path class="st5" d="M332.9,272.6c1-0.2,2-0.2,2.6,0.9C334.4,273.7,333.4,273.8,332.9,272.6z"/>
		<path class="st1" d="M173.4,213.9c1.2-0.2,2.3-0.2,2.7,1.3C175.2,214.8,173.9,215,173.4,213.9z"/>
		<path class="st1" d="M275,251.6c1.1-0.1,2,0,2.7,0.9C276.7,252.5,275.7,252.6,275,251.6z"/>
		<path class="st1" d="M247.9,241.2c1-0.2,2-0.4,2.7,0.7C249.5,242.1,248.6,242.2,247.9,241.2z"/>
		<path class="st1" d="M277.6,252.5c0.9,0,1.6,0.2,2.2,0.9C279,253.4,278.1,253.4,277.6,252.5z"/>
		<path class="st1" d="M273.2,250.7c0.8,0,1.5,0,1.8,0.9C274.3,251.6,273.6,251.6,273.2,250.7z"/>
		<path class="st1" d="M139.3,193.7c0.7-0.1,1.1,0.1,0.9,0.9C139.6,194.6,139.3,194.3,139.3,193.7z"/>
		<path class="st4" d="M345.2,395.5c-15,10-31.7,16.1-49.2,20.1c-4,0.9-8.3,0.8-12.2,2.7c-1.7,0.5-3.5,1.1-5.3,0.4
			c-3.2-0.8-6.5-0.7-9.7,0.1c-2.5,0-5.1,0-7.6-0.1c-0.9-0.4-1.8-1-2.6,0.1c-0.5,0.1-0.9,0.2-1.4,0.3c-2.2-0.5-4.6,0.4-6.8-0.8
			c-0.6-0.3-1.3-0.7-1.9-0.8c-22.4-2.8-43.1-10.3-62.2-22.3c-0.7-0.5-1.4-1.1-2.4-0.8l0,0c-4.5-3.6-9-7.3-13.6-10.8
			c-1.2-0.9-1.9-2.8-4-2.4l0.1,0.1c0.4-1,0-1.2-0.9-0.9l0.1,0c0.4-1-0.1-1.1-0.9-0.9l0,0c-4.2-5.5-8.9-10.4-14.1-14.9l0,0.1
			c0.5-1-0.2-1.4-1-1.8l0.1,0.1c-3.5-5-7-10-10.6-15l0.1,0.1c-0.3-1.9-1.4-3.4-2.4-5.1c-2.9-6.4-3.6-13.8-7.7-19.7
			c-4.6-6.6-6.5-14.1-8.2-21.8c-0.7-3.1-1.3-6.2-1.9-9.3c-0.1-1-0.2-1.9-0.2-2.9c-1.7-14.2-1.7-28.4,0.4-42.6
			c0.4-1.2,0.8-2.5,1.2-3.7c0.3,0,0.7-0.1,0.9,0c19.8,12.8,42.8,17.5,64.4,25.7c35.3,13.3,70.7,26.3,106.1,39.3
			c2,0.8,4.2,1.4,6.2,2.1c0.3,0.4,0.7,0.8,1,1.2c-1.3,0-2.6,0.1-3.9,0c-20.2-1.2-40.5-2.4-60.7-3.5c-24.2-1.4-48.3-2.8-72.5-4.2
			c-7.4-0.4-14.9-0.5-22.3-1.1c-3.6-0.3-4.3,2.8-5,4.6c-0.8,2,2.1,1.6,3.4,2.1c2.3,0.8,3.8,2,2,4.4c-2.2,3.1-0.7,4.1,2.3,4.9
			c9,2.2,14.5,12.1,13.4,20.3c-0.7,5.6-1.4,11.2-2.1,16.9c-1,7.7,4.6,14.6,12.3,15.2c4.6,0.3,9.3,0.7,13.9,1.5
			c3.3,0.6,4.5,0.1,4.1-3.5c-1.1-10.4,0.3-20.6,1.1-31c0.5-7,4.5-10.2,10-12.8c9.4-4.4,17.4,0.1,18.9,10.6
			c0.8,5.3-0.2,10.5-0.3,15.7c-0.1,4.3-0.3,8.6-0.6,12.9c-0.2,3,3.6,6,0,9c-0.6,0.5,0.2,1.3,0.9,1.7c1.4,0.7,2.8,1.7,4.3,2
			c9.6,1.8,19.4,2.7,29.2,1.9c3.3-0.3,7.2-0.2,6.5-5.5c-0.1-0.4,0.2-1.1,0.5-1.2c3.6-1.6,1.9-4.7,2-7.2c0-1.8,0-3.4,0.9-5.1
			c12.4-22,28.9-26.6,52-24.9c12,0.9,20.7,9.1,27.7,18.9c3.9,5.4,4.8,11.9,8.4,17.4c4.7,7.3,3.1,12.5-4.1,17.6
			c-2.7,1.9-6,3.2-8.1,5.8c-0.7,0.9-2.9,1.2-2,2.8c0.8,1.5,2.5,1.6,4.3,1C338.8,397.4,341.8,395.6,345.2,395.5z"/>
		<path class="st3" d="M311.6,417.1c13.7-6.1,27.6-11.3,40.3-19.3c-1.6,7.1-3.5,13.9-7,20.1c-3.3,5.9-3.3,5.9-9.7,4.5
			C327.4,420.7,319.5,418.9,311.6,417.1z"/>
		<path class="st3" d="M183.9,394.3c1-0.3,1.6,0.4,2.4,0.8c19.1,12,39.8,19.6,62.2,22.3c0.7,0.1,1.3,0.5,1.9,0.8
			c-3.7-0.8-7.3-0.1-10.5,1.7c-2,1.1-3.6,2.3-4.2-1.8c-2,2.9-3.5,5-5,7.1c-0.5-0.5-0.8-0.7-0.8-0.8c3.3-7.2,3.3-7.1-4.1-9.2
			c-10.1-2.8-19.6-7.2-29-11.9c-6.4-3.2-8.3-2.4-10.1,4.6c-0.7,2.6-1.2,5.4,0.6,8.3c-4-0.4-6.1-1.4-3.9-5.4c0.8-1.5,1.4-3.2,1.9-4.9
			c0.6-2,1.9-4.4-2-4.8c-1.4-0.1-0.2-1.2,0-1.6C183.9,397.8,184.1,396.1,183.9,394.3z"/>
		<path class="st3" d="M139.2,347.9c3.5,5,7,10,10.6,15c-2.7-0.4-3.5-3.2-5.7-4.4c-1.3-0.7-2.4-1.3-3,0.7c-3,9.8-9.3,18.6-9,29.4
			c-0.6,0-0.9,0.1-1.1,0c-2-1.2-4.8-2-5.7-3.8c-0.9-1.9,1.9-3.7,2.9-5.6c3.7-7.1,7.1-14.4,9.9-21.9
			C139.2,354.3,139.8,351.2,139.2,347.9z"/>
		<path class="st3" d="M105.5,438.5c-1.2-3.6-4.2-4.8-6.9-6.3c-4-2.1-8.1-4-11.4-7.2c-2.5-2.4-4.3-5.1-3.4-8.9
			c0.2-0.8,0.4-1.9,1-2.2c0.9-0.5,1.5,0.6,2,1.2c2,2.5,4.2,5,3.9,8.5c-0.2,2.3,1,3.3,3,4.2c3.5,1.5,7.1,2.7,10.2,5
			C106.3,434.7,106.5,435.1,105.5,438.5z"/>
		<path class="st3" d="M331.4,479.5c0.8-3.6,2.3-5.2,5.8-3.5c6,3,13.6,2.3,19-1.5c0.6,4.8-0.4,6.5-4.8,6.5
			c-4.6,0.1-9.3,1.1-13.5-2.1C336,477.5,333.6,478.3,331.4,479.5z"/>
		<path class="st3" d="M276,509.1c1.7,1.3,2.8,3.3,3,5.2c0.7,5.6,1.1,11.2,3.5,17.2c-10.7-4.1-8.3-14-11.6-21
			c2.1,1.8,2.7,4.3,3.5,6.7c0.8,2.4,0.9,5.2,3,7.5c2.5-5.6,0.3-10.3-1.9-15C275.7,509.4,275.9,509.2,276,509.1z"/>
		<path class="st3" d="M225.1,447.9c1.5-5.5,1.6-5.6,6.3-3.2c6.6,3.4,13.5,6,21.4,9.1c-6.9-0.6-12.2-2.8-17.1-5.7
			C232.1,445.9,228.7,445.3,225.1,447.9L225.1,447.9z"/>
		<path class="st3" d="M170.3,409.4c-7-1.1-13.5-3.5-18.6-8.9C158,403.5,164.2,406.4,170.3,409.4z"/>
		<path class="st3" d="M166.4,381.2c2.1-0.4,2.8,1.5,4,2.4c4.6,3.5,9.1,7.2,13.6,10.8C176.9,391.6,171.5,386.6,166.4,381.2z"/>
		<path class="st3" d="M150.7,364.6c5.2,4.5,9.9,9.5,14.1,14.9C159.1,375.4,153.9,370.8,150.7,364.6z"/>
		<path class="st3" d="M177.8,425.9c1.8-5.8,1.8-5.8,6.3-3.4c2.3,1.2,4.5,2.4,6.6,4C186.5,426.2,182.6,424,177.8,425.9z"/>
		<path class="st3" d="M228.2,491.2c5.3,2.7,9.7,7.3,15.9,8.4c-6.7,0-12.3-2.3-16.5-7.7C227.8,491.6,228,491.4,228.2,491.2z"/>
		<path class="st3" d="M329.2,482.2c0.4,6.2-0.8,11.9-5,16.6C325.8,493.3,327.5,487.8,329.2,482.2z"/>
		<path class="st3" d="M102.3,376.2c2.2-0.3,3.4,0.7,4.7,1.2c1.1,0.4,0.6,0.6,1.3,2.5c0.5,1.4,2.4,2.3,3.4,3.6
			C107.7,382.4,104,380.9,102.3,376.2z"/>
		<path class="st3" d="M264.4,489c0,4.2-0.2,7.6,1.2,11.1C258.5,496.5,258.5,496.5,264.4,489z"/>
		<path class="st3" d="M122.2,444.1c-4.5-1-8.8-2.6-14-1.5C111.5,439.3,117.1,440,122.2,444.1z"/>
		<path class="st3" d="M136.9,342.9c1,1.6,2.1,3.1,2.4,5.1c-1.9,0-3.5-1.1-5.2-1.7c-0.4-1.2-0.7-2.3-1.1-3.5
			C134.3,342.9,135.6,342.9,136.9,342.9z"/>
		<path class="st3" d="M100.5,454.3c-1.1,1.8,1.2,5.2-2.6,5.3c-2.9,0-4.5-1.7-4-5.8C96.3,459.5,98.3,457.2,100.5,454.3z"/>
		<path class="st3" d="M145.6,485.7c0.8,1.6,3.5,2.7,1.2,4.7c-0.7,0.7-2,1.6-2.7,0.7C142.7,489.1,144.3,487.4,145.6,485.7z"/>
		<path class="st3" d="M210.8,435.6c4.2,0.3,6.7,1.9,9.3,2.9c0.7,0.3,1.8,0.7,1,1.8c-0.5,0.8-1.2,0.5-1.9,0.1
			C216.8,439,214.4,437.6,210.8,435.6z"/>
		<path class="st3" d="M342.6,474.8c-3.6-0.5-7.2-0.8-6.2-6.2C338.4,471.1,340.4,473.1,342.6,474.8z"/>
		<path class="st3" d="M317.2,503.4c1.6,1-2,4.1,2.1,3.6c0.6-0.1-0.4,1.7-0.8,2.5c-0.3,0.6-0.7,1.5-1.6,1c-1.1-0.6-2-1.5-1.7-2.8
			C315.7,506.4,316.5,505,317.2,503.4z"/>
		<path class="st3" d="M247.9,513.8c-1.1-2.2-2.7-3.9-0.3-5.7c0.8-0.6,1.4-0.9,2.1,0.2C251.1,510.5,249.6,511.9,247.9,513.8z"/>
		<path class="st3" d="M257.2,419.1c0.5-0.1,0.9-0.2,1.4-0.3c0.9,0,1.7-0.1,2.6-0.1c2.5,0,5.1,0,7.6,0.1c1.5,0.1,3.1,0.2,4.6,0.3
			C268,420.2,262.6,420.2,257.2,419.1z"/>
		<path class="st3" d="M138.8,400.6c-2-0.8-4-1.6-6.9-2.7C135.5,397,137.3,398.4,138.8,400.6z"/>
		<path class="st5" d="M327.3,422.8c2.7,0.5,5.4,1,8.9,1.7c-3.7,1.2-6.2-0.5-9-0.6C327.2,423.5,327.3,423.1,327.3,422.8z"/>
		<path class="st3" d="M89.3,333.1c0.1,1.5-2.9,2.5-0.9,4.4c-1.2,0-3.3,0.4-3.2-0.8C85.4,334.7,87.5,333.7,89.3,333.1z"/>
		<path class="st3" d="M214.3,466.3c0,2.9,0,4.6,0,6.5C210.4,470.8,213,469.1,214.3,466.3z"/>
		<path class="st3" d="M211.7,480.9c-2,0-3.7,0-5.5,0C207.9,477.7,207.9,477.7,211.7,480.9z"/>
		<path class="st2" d="M273.4,419c-1.5-0.1-3.1-0.2-4.6-0.3c3.2-0.7,6.5-0.9,9.7-0.1C276.8,418.7,275.1,418.9,273.4,419z"/>
		<path class="st3" d="M206,433.3c2.1-0.3,3.4,0.8,5.8,2.2C208.9,435.4,207.6,434.4,206,433.3z"/>
		<path class="st5" d="M338.3,425.8c1.5-0.9,3-0.8,4.5,0.4C341.3,426.1,339.8,426,338.3,425.8z"/>
		<path class="st5" d="M159.1,409.9c1.6-0.5,2.6,0,3.5,1.4C160.9,411.9,160.1,410.6,159.1,409.9z"/>
		<path class="st3" d="M150.6,400.1c-1.6,0.1-2.6-0.6-3.5-1.8C148.9,397.8,149.7,399.2,150.6,400.1z"/>
		<path class="st3" d="M272.9,504.3c0.3,0.3,0.6,0.6,0.8,0.8c0.1,0.5,0.6,1.4,0,1.4c-1.4,0.1-1.9-1.2-2.5-2.2
			c0.1-0.2,0.3-0.3,0.4-0.5C272.1,504,272.5,504.1,272.9,504.3z"/>
		<path class="st3" d="M191.8,427.2c1.6-0.7,2.2,0.4,3.3,0.9C193.6,428.7,192.9,427.9,191.8,427.2z"/>
		<path class="st3" d="M199.7,430.3c1,0.3,2,0.7,3.8,1.3C201.3,431.8,200.4,431.3,199.7,430.3L199.7,430.3z"/>
		<path class="st5" d="M152.6,407.1c0.7-0.2,1.2-0.4,1.5-0.3c0.5,0.2,1.2,0.6,1.2,0.9c0,0.8-0.7,0.7-1.1,0.5
			C153.6,408,153.2,407.6,152.6,407.1z"/>
		<path class="st3" d="M285.8,432.3c-0.3,0.7-0.5,2-1.5,1.1c-1-0.8,0.2-1.3,0.8-1.8C285.3,431.8,285.5,432.1,285.8,432.3z"/>
		<path class="st3" d="M275.5,509.6c-0.6-0.6-1.8-1.4-1-2c0.9-0.7,1.2,0.7,1.5,1.4C275.9,509.2,275.7,509.4,275.5,509.6z"/>
		<path class="st3" d="M88.4,337.4c0.6,0.2,1.2,0.4,1.9,0.6C89.6,337.9,89,337.6,88.4,337.4z"/>
		<path class="st3" d="M199.8,430.3c-0.4-0.1-0.8-0.1-1.3-0.2C199.1,429.2,199.3,430.1,199.8,430.3
			C199.7,430.3,199.8,430.3,199.8,430.3z"/>
		<path class="st3" d="M360.3,407c-0.3,0.6-0.6,1.2-0.8,1.8c-0.2-0.2-0.4-0.3-0.6-0.5c0.2-0.6,0.4-1.3,0.7-1.9
			C359.8,406.5,360.1,406.7,360.3,407z"/>
		<path class="st3" d="M104.2,439c0.2,0.1,0.4,0.2,0.6,0.2c-0.1,0.2-0.2,0.5-0.4,0.6c-0.2,0-0.4-0.2-0.7-0.3
			C103.9,439.3,104.1,439.2,104.2,439z"/>
		<path class="st3" d="M106.8,444.3c-0.1,0.6-0.5,0.9-1.1,0.7c-0.1,0-0.2-0.3-0.2-0.3C105.9,444.3,106.3,444.1,106.8,444.3
			L106.8,444.3z"/>
		<path class="st3" d="M359.5,408.7c-0.3,0.4-0.6,0.8-0.9,1.2c-0.6-0.7-0.2-1.2,0.3-1.7C359.1,408.4,359.3,408.6,359.5,408.7z"/>
		<path class="st3" d="M149.7,362.8c0.7,0.4,1.4,0.8,1,1.8C149.7,364.4,149.3,363.8,149.7,362.8z"/>
		<path class="st3" d="M141.9,395.3c0.7,0.1,1.5-0.1,1.7,0.9l0.1-0.1C142.9,396.1,142.3,395.9,141.9,395.3L141.9,395.3z"/>
		<path class="st3" d="M143.6,396.2c0.8-0.1,1.5-0.1,1.8,0.9l0.1-0.1C144.6,397.2,143.9,397,143.6,396.2L143.6,396.2z"/>
		<path class="st5" d="M148.9,405.6c-0.1-0.1-0.2-0.2-0.3-0.2c0.1-0.1,0.2-0.2,0.3-0.2c0.1,0,0.2,0.1,0.3,0.2
			C149.1,405.4,149,405.5,148.9,405.6z"/>
		<path class="st3" d="M271.2,504.3c-0.5-0.4-0.9-0.9-1.4-1.3l-0.1,0.1c0.8-0.3,1.5,0,1.9,0.7C271.5,504,271.3,504.1,271.2,504.3z"
			/>
		<path class="st3" d="M266.4,504.9c0.2,0.1,0.3,0.3,0.5,0.4c-0.2,0.1-0.5,0.2-0.7,0.2c-0.1,0-0.2-0.1-0.3-0.2
			C266,505.2,266.2,505.1,266.4,504.9z"/>
		<path class="st3" d="M91.1,332.2c-0.4,0.7-1,1.1-1.8,0.9C89.6,332.2,90.3,332.1,91.1,332.2z"/>
		<path class="st3" d="M226.7,490.9c-0.4-0.2-0.9-0.4-1.3-0.6c0.6-0.6,1.2-0.3,1.7,0.2C227,490.6,226.9,490.8,226.7,490.9z"/>
		<path class="st3" d="M106.9,444.4c0-0.2,0-0.5,0.1-0.7c0.2,0.1,0.3,0.2,0.5,0.2C107.2,444,107,444.2,106.9,444.4L106.9,444.4z"/>
		<path class="st3" d="M164.7,379.4c0.8-0.2,1.3-0.1,0.9,0.9C165,380.4,164.6,380.1,164.7,379.4z"/>
		<path class="st3" d="M123.9,444.5c0.1,0.1,0.2,0.2,0.3,0.3c-0.1,0.1-0.2,0.2-0.3,0.2c-0.1,0-0.2-0.2-0.3-0.3
			C123.7,444.7,123.8,444.6,123.9,444.5z"/>
		<polygon class="st3" points="125.6,445.5 125.7,445.7 125.4,445.7 		"/>
		<path class="st3" d="M225.1,447.8c-0.1,0.2-0.2,0.4-0.3,0.6C224.3,447.8,224.7,447.9,225.1,447.8L225.1,447.8z"/>
		<path class="st3" d="M165.5,380.3c0.9-0.3,1.3-0.1,0.9,0.9C165.9,381.2,165.5,380.9,165.5,380.3z"/>
		<path class="st3" d="M145.3,397.1c0.2,0.1,0.5,0.2,0.7,0.3c-0.1,0.1-0.3,0.2-0.4,0.3C145.6,397.4,145.5,397.2,145.3,397.1
			L145.3,397.1z"/>
		<polygon class="st3" points="141.9,395.3 141.7,395.1 141.8,395.3 		"/>
		<path class="st3" d="M330.9,480.6c0,0.1-0.1,0.2-0.1,0.3c-0.1-0.1-0.2-0.2-0.4-0.3c0.1-0.1,0.2-0.2,0.3-0.3
			C330.8,480.4,330.8,480.5,330.9,480.6z"/>
		<path class="st3" d="M227.1,490.5c0.3,0.2,0.7,0.5,1,0.7c-0.2,0.2-0.4,0.4-0.6,0.6c-0.3-0.3-0.6-0.6-0.8-0.9
			C226.9,490.8,227,490.6,227.1,490.5z"/>
		<path class="st3" d="M269.8,503c-0.2-0.1-0.5-0.3-0.7-0.4C269.7,502.2,269.9,502.5,269.8,503L269.8,503z"/>
		<path class="st3" d="M92.2,331.3c-0.4,0.3-0.8,0.6-1.2,0.9C91.1,331.4,91.6,331.3,92.2,331.3z"/>
		<polygon class="st3" points="196.6,428.8 196.8,429.1 196.4,429.1 		"/>
		<path class="st3" d="M268.3,506c0.1,0.1,0.3,0.2,0.3,0.3c0,0.1-0.2,0.2-0.2,0.3c-0.1-0.1-0.3-0.2-0.3-0.3
			C268.1,506.2,268.2,506.1,268.3,506z"/>
		<polygon class="st3" points="204.3,432.5 204.6,432.4 204.6,432.6 		"/>
		<path class="st3" d="M269.8,508.3c-0.2-0.1-0.4-0.3-0.6-0.4c0.1-0.1,0.3-0.2,0.4-0.3C269.7,507.8,269.7,508,269.8,508.3
			L269.8,508.3z"/>
		<path class="st3" d="M269.8,508.3c0.2,0.1,0.4,0.2,0.7,0.4c-0.1,0.1-0.3,0.3-0.4,0.4C270,508.8,269.9,508.5,269.8,508.3
			L269.8,508.3z"/>
		<path class="st0" d="M440.2,247.7c-5.6-1.1-11.5-0.7-16.9-3c-2.5-1.1-3.3,2.1-5.4,1.6c0-1,0.1-2.1-0.1-3
			c-1.3-5.5-0.8-11.5-4.4-16.4c-0.6-2-1.1-4-1.7-6c0.1-0.1,0.3-0.2,0.3-0.3c-0.1-0.2-0.2-0.4-0.3-0.6l0,0.1c0.1-1,0.2-2.1-0.9-2.7
			l0,0c0.1-0.8,0.1-1.5-0.9-1.8l0,0c-0.3-6.4-4.8-11.4-6.6-17.7c3.1,0.3,5.8,0.6,8.5,0.9c18.2,0,35.7,4.4,53.4,8
			c4.1,0.8,2.7,2.9,1.7,5.2c-0.7,0.9-1.3,1.7-2,2.6c-3.9,1.3-5.7,5.1-8.7,7.6c-0.3,0.4-0.6,0.9-0.9,1.3l0,0c-0.5,0-0.9,0.3-0.9,0.9
			l-0.1-0.1c-1.9-0.1-3.1,0.9-3.4,2.8l0,0c-0.9-0.3-1.5,0.1-1.8,0.9l0-0.1c-1.6,1.9-1.4,3.9-0.3,6c2.1,5.7,6.4,10.1,9.5,15.9
			c-5.7-0.6-11-1.1-16.2-1.6C441.7,248,441,247.9,440.2,247.7z"/>
		<path class="st3" d="M442.4,248.2c5.2,0.5,10.5,1.1,16.2,1.6c-3.1-5.8-7.4-10.2-9.5-15.9c0.1-2,0.2-4,0.3-6c0,0,0,0.1,0,0.1
			c0.9,0.2,1.5,0,1.8-0.9l0,0c0.3,0.4,2-0.1,1.1,0.9c-2.9,3.1-1.6,6,0.1,8.7c3,4.8,6.2,9.4,10.1,15.3
			C455,250.4,448.4,251.4,442.4,248.2z"/>
		<path class="st3" d="M389.3,70.7c1.2-5.2,0.4-10.5,0.7-15.7c0.1-1-0.7-2.7,1-2.9c1.2-0.1,1.2,1.4,1.5,2.3c0.4,1.4,0.6,2.9,1.2,4.2
			c2.2,5.2,0.7,9.3-3.6,12.7C389.8,71.2,389.6,70.9,389.3,70.7z"/>
		<path class="st3" d="M220.7,51.9c0.2-4,1.6-7.6,3.4-11.1c1.3-2.6,3.5-4.1,7.2-4.2C227.6,41.9,224.1,46.9,220.7,51.9L220.7,51.9z"
			/>
		<path class="st5" d="M456.3,222.3c3-2.5,4.7-6.3,8.7-7.6c-1.7,4.1-4.7,7-8.6,8.9l-0.1-0.1C456.3,223.1,456.3,222.7,456.3,222.3z"
			/>
		<path class="st3" d="M389.2,72.4c-0.3,0.5-0.7,1.1-1,1.6c-0.2-0.2-0.4-0.3-0.6-0.5c0.4-0.5,0.8-1,1.1-1.6
			C388.9,72.1,389.1,72.2,389.2,72.4z"/>
		<path class="st3" d="M219.8,53.6c0-0.7-0.1-1.5,0.9-1.7l0,0c0.1,0.8,0.1,1.5-0.8,1.9C220,53.7,219.8,53.6,219.8,53.6z"/>
		<path class="st3" d="M388.8,71.9c0.2-0.4,0.4-0.8,0.5-1.2c0.2,0.2,0.5,0.4,0.7,0.6c-0.3,0.3-0.5,0.7-0.8,1
			C389.1,72.2,388.9,72.1,388.8,71.9z"/>
		<path class="st5" d="M454.5,225.3c0-0.3,0-0.6,0-0.9c0,0,0.1,0.1,0.1,0.1l0.4,0l0.4,0l0.1,0.1c-0.3,0.3-0.6,0.6-0.9,0.9
			L454.5,225.3z"/>
		<path class="st5" d="M454.7,225.5c-0.2,0.1-0.4,0.2-0.5,0.3c0.1-0.2,0.2-0.4,0.3-0.5C454.5,225.3,454.7,225.5,454.7,225.5z"/>
		<path class="st5" d="M456.4,223.6c-0.3,0.3-0.6,0.6-0.8,0.9c0,0-0.1-0.1-0.1-0.1c0-0.3,0.1-0.6,0-0.9l0,0
			C455.7,223.5,456,223.5,456.4,223.6L456.4,223.6z"/>
		<path class="st1" d="M136.9,342.9c-1.3,0-2.6-0.1-4-0.1c-2.5-4.2-3.9-8.9-4.1-13.7c-0.1-3.1-1.1-5.4-3.1-7.8
			c-6.6-8-9.4-17.6-10.5-27.8c1.2-0.5,2.5-1,3.7-1.5c0.6,3.1,1.2,6.2,1.9,9.3c1.7,7.6,3.6,15.2,8.2,21.8
			C133.3,329.1,134,336.5,136.9,342.9z"/>
		<path class="st3" d="M119,292.1c-1.2,0.5-2.5,1-3.7,1.5c-2.6,0.4-4.9,2.1-7.7,1.9c-4.8-1.1-9.6-2.2-14.5-3.3
			c0.1-0.3,0.1-0.6,0.2-0.9c3.2,0.4,6.5,0.9,9.7,1.3c5.7,0.9,11.3,1.2,15.8-3.4C118.9,290.2,119,291.1,119,292.1z"/>
		<path class="st3" d="M82.1,292.5c-0.4-1.2-0.7-2.3,1.2-2.3c2.4,0,4.9-0.5,7,1.3c-2.3,0.7-4.8-1-6.8,1.1
			C83.1,292.6,82.6,292.6,82.1,292.5z"/>
		<path class="st5" d="M287.6,240.6c-6.8,0.3-13.7-1.2-20.4,0.9c3.5-14.2,2.2-28.6,2.8-43c0.2-4.9,0.3-9.8,0-14.8
			c-0.1-2.1-0.4-4.8,3-5.4c5.7-1,8.2-0.1,9.6,3.7c1.1-0.7,2.2-1.5,3.3-2.1c0.9-0.5,2-1.6,2.6-1.4c5.8,1.8,11.9-0.9,17.4,0.9
			c3.3,1.1,5.2,3.7,9.8,1.3c5.1-2.7,8.7,0.9,8.3,6.7c-0.4,6.8-2.3,13.5-3.3,20.2c-1.7,11.4-1.2,22.9-0.2,34.4
			c-7.2,0.5-14.4-0.5-21.6-1.1c1.3-6.2,0.3-12.5,0.6-18.7c0.1-1.2-0.4-2-1.7-2c-2.9,0-5.8,0-8.8,0c-1.7,0-1.7,1.3-1.7,2.5
			C287.4,228.6,287.5,234.6,287.6,240.6z"/>
		<path class="st1" d="M178.9,147.3c-2.5,0-2.9-1.3-2.1-3.4c1.1-3,2.5-5.9,4.2-8.6c4.1-6.7,8.3-13.3,12.5-19.9c3.1-4.9,8-6.1,13.7-3
			c4.3,2.3,8.4,5,13.5,5.9c3.2,0.6,3,2.7,1.2,4.8c-1.7,2.1-4.2,3.1-6.6,4.1c-3.9,1.6-8,2.7-11.4,5.3c0,0,0,0,0,0
			c-0.8,0-1.5,0.1-1.8,0.9l0.1,0c-0.8,0-1.5,0.1-1.8,0.9l0.1,0c-0.8,0-1.5,0.1-1.8,0.9c0,0,0.1,0,0.1,0c-0.8,0-1.4,0.2-1.8,0.9
			l0.1,0c-0.8,0-1.4,0.2-1.8,0.9l0.1,0c-0.5,0.1-1,0.2-1,0.9l0.1,0c-0.8-0.2-1.5,0-1.8,0.9c0,0,0.1,0,0.1,0
			c-0.8-0.1-1.5,0.1-1.8,0.9l0.1,0c-0.8,0-1.4,0.2-1.8,0.9l0.1,0c-0.5,0.1-1,0.2-1,0.9l0.1,0c-0.8-0.2-1.5,0.2-1.9,0.9
			C183.9,143.8,181.4,145.6,178.9,147.3z M181.6,141.6c12.1-6,23.3-13.7,36.2-18.1c0.4-0.1,0.8-0.4,1.1-0.7c1.2-1,1.4-2.2-0.3-2.5
			c-4.7-0.9-8.4-4-12.6-5.8c-4.4-1.9-8.3-1.2-10.5,2.4c-4.4,7.2-8.9,14.3-13.6,21.3c-0.5,0.8-0.6,1.9-0.9,2.9
			c-0.1,0.2-0.4,0.5-0.3,0.6C181,142.1,181.3,141.9,181.6,141.6z"/>
		<path class="st3" d="M368.7,162.4c-1.9-0.2-3.7-0.6-5.3-1.7c0.1-0.1,0.2-0.2,0.3-0.4c1.9,0,3.7,0.7,5.4,1.5
			C369,162,368.8,162.2,368.7,162.4z"/>
		<path class="st3" d="M371.3,163.3c-0.9-0.1-1.9,0-2.6-0.9c0.2-0.2,0.3-0.4,0.5-0.6c0.8,0.4,1.6,0.8,2.4,1.1
			C371.5,163,371.4,163.2,371.3,163.3z"/>
		<path class="st3" d="M189.1,140.4c0.4-0.7,1-1,1.8-0.9C190.6,140.3,189.9,140.4,189.1,140.4z"/>
		<path class="st3" d="M166.4,209.6c-0.8,0.1-1.6-0.1-2.1-0.8C165.2,208.7,166,208.7,166.4,209.6z"/>
		<path class="st3" d="M190.9,139.5c0.3-0.8,1-1,1.8-0.9C192.3,139.4,191.7,139.5,190.9,139.5z"/>
		<path class="st3" d="M192.6,138.6c0.3-0.9,1-1.1,1.8-0.9C194.1,138.5,193.4,138.6,192.6,138.6z"/>
		<path class="st3" d="M195.3,136.9c0.4-0.7,1-0.9,1.8-0.9C196.8,136.8,196.1,136.9,195.3,136.9z"/>
		<path class="st3" d="M373,164.1c-0.6-0.3-1.2-0.6-1.8-0.8c0.1-0.1,0.2-0.3,0.3-0.4c0.6,0.3,1.2,0.6,1.8,0.8
			C373.3,163.9,373.1,164,373,164.1z"/>
		<path class="st3" d="M186.4,142c0.5-0.7,1.1-1,1.9-0.9C187.9,142,187.2,142.1,186.4,142z"/>
		<path class="st3" d="M198.8,135.1c0.4-0.8,1-0.9,1.8-0.9C200.3,135.1,199.5,135.1,198.8,135.1z"/>
		<path class="st3" d="M374.8,165c-0.6-0.3-1.2-0.6-1.7-0.9c0.1-0.1,0.2-0.3,0.3-0.4c0.6,0.3,1.2,0.6,1.8,0.9
			C375,164.8,374.9,164.9,374.8,165z"/>
		<path class="st3" d="M202.3,133.3c0.3-0.8,1.1-0.9,1.8-0.9C203.8,133.3,203.1,133.4,202.3,133.3z"/>
		<path class="st3" d="M200.5,134.2c0.3-0.8,1-1,1.8-0.9C202,134.2,201.3,134.3,200.5,134.2z"/>
		<path class="st3" d="M197,136c0.4-0.7,1-0.9,1.8-0.9C198.5,135.9,197.8,136,197,136z"/>
		<path class="st3" d="M168.2,210.5c-0.8,0-1.5,0-1.8-0.9C167.1,209.5,167.9,209.6,168.2,210.5z"/>
		<path class="st3" d="M375.7,165.9c-0.3-0.3-0.6-0.6-0.9-0.9c0.1-0.1,0.2-0.3,0.3-0.4c0.4,0.2,0.8,0.3,1.1,0.5
			C376.1,165.4,375.9,165.6,375.7,165.9z"/>
		<path class="st3" d="M188.2,141.2c0-0.6,0.4-0.8,1-0.9C188.9,140.6,188.6,140.9,188.2,141.2z"/>
		<path class="st3" d="M194.4,137.7c0-0.7,0.4-0.8,1-0.9C195,137.1,194.7,137.4,194.4,137.7z"/>
		<path class="st1" d="M288.5,52.7c3.5-0.2,6,0.2,8.2,1.2c8.8,4,17.4,8.2,26.1,12.3c2.3,1.1,3,3,2.7,5.5c-0.4,4.1-1.1,8.1-3.4,11.6
			c-3,4.7-4.6,10.1-7.2,15c-2.8,5.2-3.7,5.6-9.2,3.7c-10-3.6-20-7.4-29.1-12.9c-5.5-3.4-6.3-5.4-4.6-11.6
			c2.4-8.5,7.2-15.9,11.9-23.3C285.4,51.8,287.5,52.9,288.5,52.7z M323,72.7c0.2-2.7,0.1-3.1-2.8-4.9c-9.3-5.5-19.2-9.8-29.5-13.1
			c-2.3-0.7-4.3-0.3-5.8,1.8c-5.1,7-8.7,14.8-10.9,23.2c-0.7,2.8,0,5,2.7,6.6c9.7,5.8,20,10.1,30.7,13.5c2.8,0.9,4.3-0.2,5.4-2.7
			c2.7-6,5.6-11.8,8.4-17.7C322.4,77.3,322.6,75,323,72.7z"/>
		<path class="st1" d="M232.3,118.5c-4.9,0.8-9.4-1-13.6-4.3c-3.5-2.7-7.5-4.5-11.7-5.8c-3.9-1.2-5.4-3.7-4.4-7.7
			c2.3-9.8,7.4-18.3,12.8-26.6c2.3-3.5,6.3-4.4,10.2-2.7c9.6,4.2,19.1,8.6,28.6,13c4.6,2.2,6.6,6,6.1,11.1
			c-0.7,6.7-3.3,12.8-7.6,17.8C247.5,119.3,240.2,119.4,232.3,118.5z M234.3,116.6c14,0,21.7-6.5,23.7-19.6
			c0.9-5.7-0.6-8.8-5.9-11.3c-8.6-4-17.3-7.8-25.9-11.8c-3.3-1.5-6.5-1.1-8.7,1.7c-5.8,7.4-10,15.7-12.2,24.9
			c-0.5,2.2-0.5,5.2,2.9,5.9c4.1,0.8,7.6,3,10.9,5.3C223.9,115.2,229.1,117.2,234.3,116.6z"/>
		<path class="st1" d="M340.1,73.8c1.6,0,4.3,0.7,6.9,1.6c7.6,2.5,15.3,4.8,22.7,7.8c7.1,2.8,8.3,5.8,6.2,13
			c-1.8,6.1-3.8,12.2-6.1,18.2c-2,5.3-4.4,6.5-9.8,5.1c-7.6-1.9-15.2-4.1-22.7-6.2c-4.5-1.3-8.1-4.9-13.3-4.9
			c-2.2,0-3.1-3.4-2.9-5.8c0.7-8.4,2.7-16.4,7.4-23.5C330.9,75.4,334.5,73.8,340.1,73.8z M340.1,76.3c-4.8-0.9-7.9,1.7-10.3,5.3
			c-3,4.4-4.8,9.3-5.8,14.5c-1.6,8.7-1.6,8.7,6.6,11.5c0.3,0.1,0.5,0.2,0.8,0.3c9,4.7,19,6.2,28.5,9.3c4.1,1.3,6.8-0.3,8.2-4.2
			c1.2-3.4,2.2-6.9,3.4-10.4c4.7-13.8,4.7-14-8.6-19.5C355.5,80.1,348.1,77,340.1,76.3z"/>
		<path class="st1" d="M422.1,197.2c-4,0.3-8.7-0.2-13.3-1.9c-7.5-2.9-11.6-10.5-8.6-17.8c3.5-8.6,6.1-17.6,9.4-26.3
			c2.5-6.5,3.5-6.9,10-4.9c8.6,2.7,17.1,5.8,25.2,9.9c3.2,1.6,4.2,3.6,2.9,7c-3.7,9.5-7.3,19-11,28.5c-1.5,3.9-4.4,6.1-8.8,5.6
			C426.2,197.1,424.5,197.2,422.1,197.2z M427.5,195.7c2.3,0.4,5.7-1.1,7.4-5.4c3.5-9.1,6.8-18.2,10.4-27.3c1.2-3,0-4.1-2.7-5.1
			c-7.6-2.9-15.2-6-22.7-9c-5.5-2.2-6.1-2.1-8.3,3.6c-3.3,8.6-6.2,17.3-9.2,25.9c-2.1,6.1-0.3,10.7,5.5,13.8
			C413.3,195,419.3,195.1,427.5,195.7z"/>
		<path class="st1" d="M376.3,165.1c-0.4-0.2-0.8-0.3-1.1-0.5c-0.6-0.3-1.2-0.6-1.8-0.9c-0.6-0.3-1.2-0.6-1.8-0.8
			c-0.8-0.4-1.6-0.8-2.4-1.1c-1.7-0.8-3.5-1.4-5.4-1.5c-1.1-5-0.3-9.8,1.8-14.4c1.9-4.1,3.5-8.3,3.4-13c-0.1-3.1,1.8-4.4,4.7-4.6
			c2.5-0.1,4.9-0.1,7.3,0.7c8.5,3,16.6,7.1,24.5,11.5c1.9,1,2.4,2.2,1.6,4.2c-3,7.7-5.8,15.5-9.1,23.2c-2.2,5.3-4.3,6-9.6,3.5
			C384.2,169.5,380.3,167.3,376.3,165.1z M365.9,154c-0.4,2.3,0.3,3.5,3,4.1c4,0.9,7.5,3,11,5.2c3.2,2,6.4,4,9.6,6
			c2.6,1.6,4.3,0.9,5.6-1.7c3.6-7.3,6.6-14.9,9.2-22.6c0.5-1.4,0.5-2.4-1.3-3c-5-1.6-9.3-4.7-13.9-7.2c-4-2.2-8-3.9-12.7-4.1
			c-3.4-0.1-5,0.6-5,4.5c0,3.6-1.9,7-3.2,10.4C367.1,148.3,366,151,365.9,154z"/>
		<path class="st1" d="M419.1,105.7c-1.1,9.2-3.9,16.6-5.9,24.2c-0.7,2.4-2.7,3.8-5.4,3.6c-1.6-0.1-3.3-0.1-4.7-0.7
			c-8.4-3.4-16.8-6.6-25-10.4c-5.4-2.5-6.5-6.5-4-12c2.2-4.6,4.5-9.2,6.7-13.8c1.8-3.9,4.5-5.1,8.8-3.9c8.8,2.6,17.6,5.1,26.1,8.8
			C418.1,102.7,419.6,104.1,419.1,105.7z M416.8,106.1c0.5-2.2-1.5-2.7-3.4-3.2c-8.2-2.5-16.5-4.8-24.6-7.5c-3-1-4.7-0.2-6,2.4
			c-2.1,4.3-4.5,8.5-6.3,12.9c-2.3,5.5-1.2,7.7,4.1,10c4,1.7,7.9,3.7,11.9,5.4c4.3,1.8,8.4,4.1,12.9,5.1c2.7,0.6,4.9-0.1,5.6-2.7
			C413,121.1,415.7,114,416.8,106.1z"/>
		<path class="st1" d="M309.2,112.2c-0.4,7.5-1.8,8.5-8.9,7.6c-9.4-1.2-18.8-2.6-28.3-2.2c-4.4,0.2-8.7-0.3-13.1-0.8
			c-2.6-0.3-3.8-1.4-2.5-4.1c1.3-2.8,2.3-5.7,3.8-8.3c5.5-10.1,11.6-12.8,22.3-8.3c7.8,3.2,15.3,7.1,23,10.4
			C308.1,107.4,309.9,109.2,309.2,112.2z M274.3,97c-6.5,0-7,0.2-10.3,5.5c-1.8,3-3.2,6.2-4.8,9.3c-1.1,2.1-0.8,3.2,1.9,3
			c3.8-0.3,7.6-0.8,11.3-0.5c9.4,0.9,18.8,2.2,28.2,3.5c2.3,0.3,4.9,1.4,5.7-1.9c0.8-3.1,1.2-6.2-2.9-8c-5.6-2.4-11.6-4-16.7-7.5
			C282.8,97.8,278.5,96.7,274.3,97z"/>
		<path class="st1" d="M322.1,113.1c2.1-0.2,4.4,0.3,6.5,1.2c9.2,3.6,18.8,6.2,28.3,8.8c6.1,1.6,6.5,2.6,5.7,8.9
			c-0.2,1.4-0.3,2.9-0.6,4.3c-1.6,8.2-4.2,9.6-11,5.2c-11.7-7.5-23.8-14.1-37.4-17.7c-1.4-0.4-2-0.9-1.8-2.4
			C312.7,117.2,317.6,113,322.1,113.1z M357.4,142.8c1.2-4.6,2.3-8.8,3.5-13c0.7-2.4-0.7-3.1-2.6-3.6c-11.7-3.5-23.4-7-35.1-10.6
			c-3.7-1.2-5.7,0.5-7.2,3.7c-0.8,1.8-0.5,2.4,1.4,3C331.7,126.8,344.6,133.9,357.4,142.8z"/>
		<path class="st1" d="M413.4,226.9c3.6,4.9,3.2,10.9,4.4,16.4c0.2,1,0.1,2,0.1,3c-1.1,0.3-1.7-0.2-1.9-1.2
			C414.7,239.1,413.2,233.1,413.4,226.9z"/>
		<path class="st1" d="M411.9,199c-2.7-0.3-5.4-0.6-8.5-0.9c1.7,6.3,6.2,11.2,6.6,17.7c-3.2-4.7-5.1-10-7.4-15.2
			c-1.2-2.7,0.3-3.6,2.6-3.2C407.5,197.7,409.7,198.4,411.9,199z"/>
		<path class="st1" d="M410.8,217.4c1.1,0.6,1,1.7,0.9,2.7C410.7,219.5,410.5,218.5,410.8,217.4z"/>
		<path class="st1" d="M409.9,215.7c1,0.3,1,1,0.9,1.8C409.8,217.2,409.8,216.5,409.9,215.7z"/>
		<path class="st1" d="M411.6,220.1c0.1,0.2,0.3,0.4,0.3,0.6c0,0-0.2,0.2-0.3,0.3C411.5,220.6,411.5,220.3,411.6,220.1z"/>
		<path class="st3" d="M287.6,240.6c-0.1-6-0.2-11.9-0.2-17.9c0-1.2,0-2.5,1.7-2.5c2.9,0,5.8,0,8.8,0c1.3,0,1.8,0.9,1.7,2
			c-0.3,6.2,0.7,12.5-0.6,18.7C295.1,240.8,291.4,240.7,287.6,240.6z"/>
		<path class="st5" d="M345.2,395.5c-3.4,0.2-6.4,1.9-9.6,2.9c-1.8,0.5-3.4,0.5-4.3-1c-0.9-1.6,1.2-1.9,2-2.8
			c2.2-2.6,5.4-3.9,8.1-5.8c7.1-5,8.7-10.3,4.1-17.6c-3.6-5.5-4.5-12-8.4-17.4c-7-9.8-15.7-18-27.7-18.9c-23.1-1.6-39.7,2.9-52,24.9
			c-0.9,1.6-0.9,3.3-0.9,5.1c0,2.6,1.6,5.6-2,7.2c-0.3,0.1-0.5,0.8-0.5,1.2c0.7,5.3-3.3,5.2-6.5,5.5c-9.8,0.8-19.5-0.1-29.2-1.9
			c-1.5-0.3-2.9-1.3-4.3-2c-0.7-0.3-1.5-1.1-0.9-1.7c3.6-3.1-0.2-6,0-9c0.3-4.3,0.5-8.6,0.6-12.9c0.1-5.2,1.1-10.4,0.3-15.7
			c-1.5-10.5-9.5-14.9-18.9-10.6c-5.5,2.6-9.5,5.8-10,12.8c-0.8,10.3-2.2,20.6-1.1,31c0.4,3.6-0.9,4.1-4.1,3.5
			c-4.6-0.8-9.3-1.2-13.9-1.5c-7.6-0.6-13.2-7.4-12.3-15.2c0.7-5.6,1.3-11.2,2.1-16.9c1.1-8.3-4.4-18.1-13.4-20.3
			c-3-0.7-4.5-1.7-2.3-4.9c1.7-2.4,0.3-3.7-2-4.4c-1.4-0.5-4.3,0-3.4-2.1c0.7-1.8,1.3-4.9,5-4.6c7.4,0.6,14.9,0.7,22.3,1.1
			c24.2,1.4,48.3,2.8,72.5,4.2c20.2,1.2,40.5,2.4,60.7,3.5c1.3,0.1,2.6,0,3.9,0c4.3-0.4,8.4,0.4,12.5,1.5
			c15.7,4.4,30.7,10.7,46.2,15.6c1.9,0.6,3.8,1.6,5.9,1.2l0,0c1.2,2.3,3.8,2.5,5.6,3.8c-0.5,3.1,0.3,6.9,1.3,9
			c2.4,5.2,3.2,6.2-0.5,10.9c-0.6,0.8-2.2,1.9-0.2,2.6c4.3,1.5,3.4,4.4,2.3,7.4c-0.3,1-0.8,1.9-1,2.9c-0.4,1.5-0.4,3.1,1.2,3.8
			c1.6,0.6,2.3-1,2.7-2.1c0.8-2.1,1.3-4.4,2-6.6c0.7-2.2,0.9-4.8,4.1-6c-0.2,2-0.3,3.6-0.6,5.1c-0.4,2,0.6,2.5,2.3,2.6
			c-4.2,7.3-10.6,12.6-16.7,18.1C359.7,386.4,353.2,392.1,345.2,395.5z"/>
		<path class="st4" d="M382.7,362.7c-1.7,0-2.7-0.6-2.3-2.6c0.3-1.5,0.4-3.1,0.6-5.1c-3.1,1.2-3.3,3.8-4.1,6c-0.7,2.2-1.2,4.5-2,6.6
			c-0.4,1.1-1.2,2.8-2.7,2.1c-1.6-0.6-1.6-2.3-1.2-3.8c0.3-1,0.7-1.9,1-2.9c1-3,2-5.9-2.3-7.4c-2-0.7-0.4-1.8,0.2-2.6
			c3.7-4.6,3-5.6,0.5-10.9c-1-2.1-1.8-5.9-1.3-9c0,0,0.2,0,0.2,0c6.9,4.3,13.2,9.3,18.5,15.5c2.2,2.5,2.6,4.5,0.3,7
			c-1.7,1.8-3,3.9-4.5,5.9c-0.5,0.2-1.2,0.3-1,1.1L382.7,362.7z"/>
		<path class="st1" d="M363.6,329.5c-2.1,0.4-4-0.6-5.9-1.2c-15.5-4.9-30.5-11.3-46.2-15.6c-4-1.1-8.2-1.9-12.5-1.5
			c-0.3-0.4-0.7-0.8-1-1.2c9.1-0.3,17.8,2,26.3,5c11.9,4.1,23.8,8.4,35.6,12.7C361.1,328.1,362.6,328.2,363.6,329.5z"/>
		<path class="st1" d="M369.3,333.3c0,0-0.2,0-0.2,0c-1.8-1.3-4.5-1.5-5.6-3.8C365.8,330.2,368.7,330,369.3,333.3z"/>
		<path class="st5" d="M382.7,362.8c-0.2-0.8,0.5-0.9,1-1.1C383.6,362.3,383.4,362.8,382.7,362.8z"/>
		<path class="st0" d="M184.4,249.5c1.2-2.2,2.6-4.3,4.6-6c0.2,0.2,0.3,0.3,0.5,0.5c-0.5,2.8-0.5,5.9-4.5,6.1
			C184.8,249.9,184.6,249.7,184.4,249.5z"/>
		<path class="st0" d="M189,243.5c0.2-0.2,0.5-0.6,0.6-0.5c0.5,0.4,0.2,0.7-0.1,1C189.3,243.9,189.2,243.7,189,243.5z"/>
		<path class="st0" d="M168,239.2c-0.5,1.9-1.7,2.9-3.7,2.8c-1.7-0.1-2.6-1.1-2.4-2.9c0.2-1.5,0.3-3.5,2.6-3.1
			C166.1,236.3,167.9,237,168,239.2z"/>
		<path class="st0" d="M169.8,231.6c0,1.7-0.8,2.5-2.4,2.5c-1.4,0-3.2,0.1-3.3-1.8c0-1.3,0.5-3,2.2-3.2
			C168.2,228.9,169.3,230,169.8,231.6z"/>
		<path class="st0" d="M314.2,284.3c-0.5,0.1-1.2,0-1.6,0.3c-1,0.7-2,2-3.2,0.5c-0.7-0.8,0.1-1.9,0.6-2.7c0.8-1.3,2-0.9,3-0.3
			c0.7,0.4,1.2,1.1,1.8,1.7C314.6,283.9,314.4,284.1,314.2,284.3z"/>
		<path class="st0" d="M227.6,253.2c-0.6,2-1.9,3-3.9,2.8c-1.3-0.1-2.5-0.6-1.7-2.2c0.7-1.4,0.2-4,2.9-3.5
			C226.3,250.5,227.5,251.5,227.6,253.2z"/>
		<path class="st2" d="M261.2,418.6c-0.9,0-1.7,0.1-2.6,0.1C259.4,417.6,260.3,418.2,261.2,418.6z"/>
		<path class="st1" d="M449.4,228c-0.1,2-0.2,4-0.3,6C448,231.9,447.8,229.9,449.4,228z"/>
		<path class="st1" d="M451.1,227.1c-0.3,0.9-0.9,1.1-1.8,0.9C449.7,227.2,450.2,226.8,451.1,227.1z"/>
		<path class="st1" d="M456.3,223.5c-0.3,0-0.6,0-0.9,0c0.3-0.4,0.6-0.9,0.9-1.3C456.3,222.7,456.3,223.1,456.3,223.5z"/>
		<path class="st1" d="M455.5,223.5c0,0.3,0,0.6,0,0.9c0,0-0.4,0-0.4,0l-0.4,0C454.6,223.8,454.9,223.6,455.5,223.5z"/>
		<path class="st3" d="M181.6,141.6c-0.3,0.3-0.6,0.5-0.9,0c-0.1-0.1,0.2-0.4,0.3-0.6C181.3,141.2,181.5,141.4,181.6,141.6z"/>
	</g>
</g>
</svg>
