<?xml version="1.0" encoding="utf-8"?>
<!-- Generator: Adobe Illustrator 24.2.0, SVG Export Plug-In . SVG Version: 6.00 Build 0)  -->
<svg version="1.1" id="Capa_6" xmlns="http://www.w3.org/2000/svg" xmlns:xlink="http://www.w3.org/1999/xlink" x="0px" y="0px"
	 viewBox="0 0 560 555" style="enable-background:new 0 0 560 555;" xml:space="preserve">
<style type="text/css">
	.st0{fill-rule:evenodd;clip-rule:evenodd;fill:#2F2482;}
	.st1{fill:none;stroke:#1A1A18;stroke-width:0.7087;stroke-miterlimit:22.9256;}
	.st2{fill-rule:evenodd;clip-rule:evenodd;fill:#EE7C00;}
	.st3{fill:none;stroke:#FFFFFF;stroke-width:0.216;stroke-miterlimit:22.9256;}
</style>
<polygon class="st0" points="227.2,396.9 280.2,436.4 333.2,396.9 "/>
<polygon class="st1" points="227.2,396.9 280.2,436.4 333.2,396.9 "/>
<polygon class="st0" points="537.1,245.1 23.3,245.1 168.8,353.4 391.8,353.4 "/>
<polygon class="st1" points="537.1,245.1 23.3,245.1 168.8,353.4 391.8,353.4 "/>
<path class="st2" d="M390.1,390.3l-4.5-31.6h-7.7l-4.3,16.3c-0.1,1-0.4,1.9-0.4,2.5c-0.3,0.6-0.4,1.3-0.4,1.9c0-1.1-0.3-2.3-0.8-3.7
	c-0.1-0.4-0.1-0.6-0.1-0.8l-4.3-16.3l-7.6,0.1l-4.3,31.8l7.2-0.1l1.7-13.7c0-1.1,0.1-2.4,0.3-3.5c0.1-1.1,0.1-2.3,0.3-3.7
	c0.1,1.4,0.7,3,1.2,5.2c0,0.4,0,0.6,0.1,0.9l3.9,14.8h5.3l3.5-14.9c0.1-0.1,0.4-0.5,0.4-0.8c0.5-2.2,0.8-3.8,1-5.2
	c0,1.5,0.1,2.8,0.3,3.8c0.1,1.3,0.3,2.4,0.4,3.4l1.7,13.7L390.1,390.3z"/>
<path class="st2" d="M332,390.7l7.4-0.1l-0.1-12.3l6.6,12.3h8.7l-7.8-12.7c2.1-0.6,3.7-1.6,4.9-3.2c0.9-1.5,1.4-3.5,1.4-6.1
	c0-1.5-0.3-3-0.8-4.4c-0.5-1.4-1.4-2.4-2.5-3.3c-0.8-0.6-1.8-1.3-3.2-1.5c-1.3-0.4-3.4-0.6-6.7-0.5h-8L332,390.7z M339.2,374v-8.5
	h1.4c1.7,0,3,0.4,3.5,1.1c0.8,0.6,1.2,1.6,1.2,3.4c0,1.3-0.3,2.3-1.2,2.9c-0.7,0.5-2,1-3.5,1H339.2z"/>
<path class="st2" d="M327.2,375c0-2.4-0.4-4.6-1.2-6.5c-0.7-2-1.8-3.8-3.3-5.4c-1.3-1.4-3-2.7-5-3.4c-1.8-0.9-3.7-1.4-5.8-1.4
	c-2,0-3.9,0.5-5.8,1.4c-1.8,0.9-3.5,2-4.9,3.5c-1.6,1.6-2.5,3.5-3.4,5.4c-0.8,1.9-1.1,4-1.1,6.5c0,2.2,0.4,4.3,1.2,6.2
	c0.8,2.2,1.8,3.9,3.3,5.6c1.4,1.5,3.2,2.8,5,3.5c1.8,0.6,3.8,1.3,5.8,1.1c2.1,0,3.9-0.5,5.8-1.4c2-0.6,3.7-1.9,5-3.4
	c1.4-1.6,2.5-3.5,3.2-5.4C326.9,379.3,327.2,377.1,327.2,375 M312,384.3c-2.1,0-3.9-1-5.4-2.7c-1.3-1.6-2.1-4.1-2.1-6.6
	c0-2.7,0.7-5.1,2.1-6.7c1.4-1.9,3.2-2.7,5.4-2.7c2.1-0.1,3.8,0.8,5.3,2.7c1.4,1.8,2.1,3.9,2.1,6.6c0,2.7-0.7,4.8-2,6.7
	C316,383.3,314.1,384.3,312,384.3z"/>
<path class="st2" d="M267.8,391l5.8-0.1h1.3c3.8,0,6.6-0.3,8.3-0.8c1.8-0.4,3.4-1.3,4.7-2.2c1.7-1.5,3-3.3,4.1-5.6
	c0.8-2.2,1.4-4.7,1.3-7.5c0-2.8-0.5-5.2-1.3-7.3c-1.1-2.2-2.5-4-4.2-5.4c-1.4-1.1-3.2-1.9-4.9-2.3c-1.8-0.5-4.9-0.8-9.5-0.8
	l-5.8,0.1L267.8,391z M275.4,383.8l-0.1-17.5l1.3-0.1c3,0,5.3,0.8,6.7,2.2c1.3,1.4,2.1,3.5,2.1,6.7c0,3-0.7,5.3-2.1,6.6
	c-1.3,1.5-3.5,2.2-6.6,2.2H275.4z"/>
<polygon class="st2" points="253.9,391 261.6,391 261.5,359.3 253.6,359.3 "/>
<path class="st2" d="M219.8,391.3l7.4-0.1v-15.6c0-0.9-0.1-1.8-0.1-2.8c-0.1-1-0.3-2.2-0.3-3.5c0.4,1.4,1.1,2.5,1.4,3.5
	c0.4,1,0.8,1.8,1.1,2l10.8,16.3h7.5l-0.1-31.8h-7.6l0.1,15.7c0,0.8,0.1,1.8,0.1,2.7c0.1,1,0.3,2.2,0.4,3.5c-0.7-1.4-1.1-2.5-1.6-3.5
	c-0.4-1-0.8-1.6-0.9-2l-10.9-16.2h-7.4L219.8,391.3z"/>
<polygon class="st2" points="197.4,391.4 214.7,391.3 214.7,384.2 204.7,384.2 204.7,378.9 214,378.8 214,372.1 204.7,372.1 
	204.7,366.6 214.6,366.5 214.6,359.5 197.2,359.7 "/>
<path class="st2" d="M177.5,372.4l-0.1-6.3h1.7c2,0,3.3,0.1,3.9,0.6c0.7,0.5,0.9,1.4,0.9,2.5c0,1.1-0.3,1.9-0.9,2.4
	c-0.8,0.5-2.1,0.8-4.1,0.8H177.5z M170.4,391.6h8c3.2-0.1,5.5-0.3,7-0.4c1.4-0.4,2.6-0.8,3.7-1.4c1.1-0.6,2.1-1.6,2.5-3
	c0.8-1.1,1.1-2.8,1.1-4.4c0-2.3-0.5-4.3-1.7-5.6c-1.2-1.5-2.8-2.2-4.7-2.4c1.7-0.4,3.2-1.3,3.8-2.4c0.9-1,1.2-2.5,1.2-4.3
	c0-1.4-0.1-2.8-0.7-3.8c-0.7-1-1.4-2-2.5-2.5c-0.9-0.6-2.1-1-3.3-1.3c-1.2-0.3-3.5-0.3-6.6-0.3h-7.9L170.4,391.6z M177.5,385.1v-7
	h2.8c2,0,3.3,0.3,3.9,0.8c0.8,0.4,1,1.4,1,2.8c0,1.1-0.3,2-1,2.4c-0.8,0.6-2.1,0.9-3.9,0.9L177.5,385.1z"/>
<path class="st2" d="M82.6,211.2c-1.4-0.6-2.7-1.1-4.1-1.4c-1.3-0.2-2.9-0.4-4.2-0.4c-2.3,0-4.6,0.3-6.4,1.2c-2,0.6-3.7,1.6-5.2,3.2
	c-1.6,1.5-2.9,3.2-3.7,5.1c-0.7,1.8-1.1,3.9-1.1,6.1c0,2.9,0.7,5.6,1.9,7.8c1.2,2,3,4.1,5.5,5.5c1.3,0.8,2.7,1.4,4.2,1.7
	c1.4,0.4,3,0.5,4.8,0.5c1.4,0,2.9-0.1,4.2-0.3c1.4-0.4,2.8-0.9,4.1-1.5v-8.9c-1.1,1.3-2.3,2.1-3.6,2.7c-1.1,0.5-2.5,1-3.7,1
	c-2.5,0-4.7-0.8-6.1-2.4c-1.7-1.5-2.5-3.5-2.5-5.9c0-2.7,0.8-4.6,2.4-6.3c1.6-1.5,3.6-2.4,6.1-2.4c1.3,0,2.7,0.3,3.7,0.9
	c1.3,0.5,2.5,1.5,3.6,2.7V211.2z M87.8,239.9l19.9-0.1l-0.1-7l-11,0.1L96.4,210l-8.8,0.1L87.8,239.9z M111.5,209.8l0.1,12.7v3
	c0,3.2,0.2,5.7,0.7,7.2c0.4,1.5,1.2,2.9,2.2,4c1.1,1.2,2.6,2.1,4.6,2.7c1.9,0.6,4.2,0.9,7.1,0.9c2.8,0,5.1-0.3,7.1-1
	c1.8-0.5,3.3-1.5,4.3-2.7c1.1-1.1,1.8-2.5,2.2-4c0.4-1.5,0.7-4.1,0.6-7.3v-15.7l-8.8,0.1l0.1,12.4v2.1c0,1.9,0,3.6-0.2,4.5
	c0,1-0.4,1.7-0.5,2.4c-0.4,0.6-1.1,1.3-1.9,1.8c-0.7,0.3-1.8,0.5-3,0.5c-1.2,0-2.2-0.2-3-0.5c-1-0.5-1.4-1.1-1.8-1.8
	c-0.2-0.6-0.4-1.4-0.6-2.2c-0.1-1-0.2-2.6-0.2-4.6v-14.6L111.5,209.8z M255.5,239.9l19.8-0.1v-7l-11,0.1l-0.1-22.9l-8.8,0.1
	L255.5,239.9z M312,224.9c0-2.1-0.4-4.3-1.2-6c-1-1.9-2.2-3.5-3.9-4.9c-1.6-1.6-3.6-2.7-5.7-3.4c-2-0.9-4.3-1.3-6.6-1.3
	c-2.3,0-4.5,0.5-6.6,1.3c-2,0.9-4,1.9-5.5,3.5c-1.7,1.5-3,3.1-3.9,5c-0.7,1.7-1.1,3.9-1.1,6c0,2,0.4,4.1,1.2,5.9
	c0.8,1.9,2.2,3.5,3.9,5.1c1.6,1.4,3.5,2.6,5.5,3.3c2.2,0.8,4.3,1.1,6.7,1.1c2.3,0,4.5-0.4,6.6-1.3c1.9-0.6,4-1.8,5.5-3.2
	c1.7-1.6,2.9-3.2,3.7-5C311.6,229.1,312,227,312,224.9z M294.8,233.8c-2.4,0-4.5-0.9-6.1-2.6c-1.4-1.5-2.3-3.6-2.3-6.1
	c-0.1-2.6,0.7-4.8,2.4-6.3c1.6-1.7,3.6-2.6,6-2.6c2.3,0,4.3,0.7,6,2.5c1.7,1.7,2.4,3.7,2.4,6.3c0,2.5-0.7,4.4-2.3,6.2
	C299.3,232.9,297.2,233.8,294.8,233.8z M317.7,239.9l8.6-0.1l-0.1-14.6c0-0.9-0.1-1.7-0.1-2.7c-0.1-1-0.2-2-0.4-3.3
	c0.6,1.3,1.2,2.4,1.7,3.3c0.6,1,1,1.6,1.1,1.9l12.4,15.3l8.6-0.1l-0.1-29.8l-8.7,0.1l0.1,14.7c0,0.6,0.2,1.6,0.2,2.6
	c0.1,1,0.1,2,0.4,3.3c-0.6-1.3-1.3-2.4-1.8-3.4c-0.5-0.9-1-1.5-1.1-1.7l-12.3-15.4l-8.7,0.1L317.7,239.9z M393.5,239.7l-5.2-29.8
	l-8.8,0.1l-4.8,15.4c-0.2,0.9-0.5,1.6-0.6,2.1c-0.2,0.8-0.4,1.3-0.4,1.9c-0.1-1.1-0.5-2.1-1-3.5c0-0.3,0-0.5,0-0.5l-5.1-15.4
	l-8.7,0.1l-4.9,29.8h8.1l2-12.9c0-1.2,0.2-2.4,0.4-3.3c0-1.2,0.2-2.2,0.2-3.4c0.1,1.3,0.7,2.9,1.3,4.8c0,0.3,0.1,0.6,0.2,0.7
	l4.3,13.9h5.9l4.3-14c0.1-0.1,0.2-0.4,0.4-0.7c0.6-1.9,1-3.5,1.2-4.8c0,1.4,0.1,2.7,0.4,3.6c0.1,1.2,0.1,2.1,0.4,3.1l1.9,12.9
	L393.5,239.7z M430.1,239.9h8.6l-0.1-14.7c0-0.9-0.1-1.6-0.1-2.7c-0.1-0.9-0.4-1.9-0.5-3.2c0.7,1.3,1.3,2.4,1.8,3.2
	c0.5,1.1,0.8,1.7,1.1,1.9l12.4,15.3h8.4l-0.1-29.8h-8.4v14.8c0,0.6,0.1,1.5,0.1,2.6c0.2,0.9,0.4,2,0.4,3.2c-0.5-1.2-1.2-2.4-1.7-3.3
	c-0.5-0.9-1-1.5-1.2-1.8l-12.2-15.3h-8.7L430.1,239.9z M502.5,224.9c0-2.1-0.5-4.3-1.3-6c-0.8-2-2-3.5-3.6-4.9
	c-1.7-1.6-3.6-2.7-5.8-3.4c-2.2-0.9-4.3-1.3-6.5-1.3c-2.4,0-4.7,0.4-6.7,1.3c-2.2,0.9-4,1.9-5.5,3.5c-1.8,1.4-2.9,3.1-3.9,5
	c-0.8,1.7-1.2,3.7-1.2,6c0,2,0.5,4.1,1.3,5.9c0.8,1.9,2,3.5,3.9,5.1c1.6,1.4,3.4,2.6,5.5,3.3c2.2,0.6,4.3,1.1,6.7,1.1
	c2.2,0,4.5-0.4,6.5-1.3c2.2-0.6,4.1-1.8,5.8-3.3c1.4-1.5,2.7-3.2,3.6-5C502.1,229.1,502.5,227,502.5,224.9z M485.4,233.8
	c-2.5,0-4.7-1-6.3-2.6c-1.4-1.5-2.4-3.8-2.4-6.2c0-2.5,1-4.7,2.4-6.2c1.6-1.8,3.6-2.6,6.1-2.6c2.3-0.1,4.3,0.7,6,2.5
	c1.7,1.7,2.4,3.7,2.4,6.3c0,2.5-0.7,4.4-2.4,6.2C489.7,232.9,487.7,233.8,485.4,233.8z M406.6,228.6l3.1-9.7
	c0.2-0.5,0.5-1.3,0.6-1.9c0.1-0.8,0.4-1.4,0.5-2c0.4,1.1,0.7,1.9,0.7,2.5c0.2,0.7,0.4,1.1,0.4,1.5l3.4,9.7H406.6z M394.3,239.9h8.7
	l1.8-5.4l12.5-0.1l1.6,5.4h8.8L416.5,210l-11.2,0.1L394.3,239.9z M231.3,228.6l3.3-9.7c0.2-0.5,0.5-1.3,0.6-1.9
	c0.1-0.6,0.4-1.3,0.5-1.9c0.4,1,0.6,1.8,0.7,2.5c0.1,0.6,0.4,1.1,0.4,1.4l3.4,9.7H231.3z M219,239.9l8.8-0.1l1.7-5.4l12.5-0.1
	l1.7,5.4h8.7l-11.2-29.8l-11.1,0.1L219,239.9z M155.4,233.9v-6.5h3.3c2,0,3.5,0.2,4.3,0.6c0.7,0.4,1.2,1.3,1.2,2.6
	c0,1.2-0.4,1.9-1.2,2.5c-1,0.4-2.4,0.7-4.5,0.7L155.4,233.9z M147.2,239.9h9.3c3.6-0.1,6.3-0.2,7.8-0.4c1.6-0.2,3-0.6,4.1-1.2
	c1.4-0.6,2.5-1.5,3-2.8c0.7-1.2,1.2-2.7,1.2-4.3c0-2.1-0.7-4-2-5.1c-1.2-1.4-3.1-2.1-5.4-2.2c2-0.5,3.6-1.4,4.6-2.4
	c0.8-1,1.2-2.3,1.2-4c0-1.3-0.1-2.6-0.8-3.5c-0.6-1-1.6-1.9-2.8-2.5c-1.1-0.5-2.3-1-3.7-1.1c-1.4-0.3-4-0.4-7.6-0.3h-8.9
	L147.2,239.9z M155.2,222v-6h1.9c2.2,0,3.6,0.2,4.3,0.5c0.7,0.5,1.2,1.3,1.2,2.5c0,1.1-0.4,1.8-1.1,2.4c-0.8,0.3-2.4,0.6-4.6,0.6
	H155.2z M200,233.9v-6.5h3.3c2,0,3.5,0.2,4.3,0.6c0.7,0.4,1.2,1.3,1.2,2.6c0,1.2-0.4,1.9-1.2,2.5c-1,0.4-2.4,0.7-4.5,0.7L200,233.9z
	 M191.8,239.9h9.3c3.6-0.1,6.3-0.2,7.8-0.4c1.6-0.2,3-0.6,4.1-1.2c1.4-0.6,2.5-1.5,3-2.8c0.7-1.2,1.2-2.7,1.2-4.3c0-2.1-0.7-4-2-5.1
	c-1.2-1.4-3.1-2.1-5.4-2.2c2-0.5,3.6-1.4,4.6-2.4c0.8-1,1.2-2.3,1.2-4c0-1.3-0.1-2.6-0.8-3.5c-0.6-1-1.6-1.9-2.8-2.5
	c-1.1-0.5-2.3-1-3.7-1.1c-1.4-0.3-4-0.4-7.6-0.3h-8.9L191.8,239.9z M199.9,222v-6h1.9c2.2,0,3.6,0.2,4.3,0.5
	c0.7,0.5,1.2,1.3,1.2,2.5c0,1.1-0.4,1.8-1.1,2.4c-0.8,0.3-2.4,0.6-4.6,0.6H199.9z"/>
<polygon class="st0" points="415.3,196.5 221.4,121.4 188.4,161.2 170.8,161.2 145.5,196.5 22.9,196.3 22.9,204.6 537.5,204.6 
	537.5,196.3 "/>
<polygon class="st1" points="415.3,196.5 221.4,121.4 188.4,161.2 170.8,161.2 145.5,196.5 22.9,196.3 22.9,204.6 537.5,204.6 
	537.5,196.3 "/>
<path class="st2" d="M301.3,262.2c-20.9-11.4-47.4-4-59,16.5c-11.7,20.5-4.1,46.3,16.8,57.7c20.9,11.4,47.4,4,59-16.5
	C329.8,299.4,322.3,273.6,301.3,262.2z"/>
<path class="st3" d="M301.3,262.2c-20.9-11.4-47.4-4-59,16.5c-11.7,20.5-4.1,46.3,16.8,57.7c20.9,11.4,47.4,4,59-16.5
	C329.8,299.4,322.3,273.6,301.3,262.2z"/>
<path class="st0" d="M287.7,266c-4-2.9-8.7-5.8-14.4-8.5c12.3-2,22,0.9,30.5,6.3C299.8,264.3,294.9,265,287.7,266z"/>
<path class="st3" d="M287.7,266c-4-2.9-8.7-5.8-14.4-8.5c12.3-2,22,0.9,30.5,6.3C299.8,264.3,294.9,265,287.7,266z"/>
<path class="st0" d="M259.1,274.7c9.7-4.3,19.3-7.3,28.6-8.7c6.4,4.5,11.5,10.1,16.2,16.4c-11,2-18.3,5.5-25.8,9
	C272.9,284.3,266.1,279.4,259.1,274.7z"/>
<path class="st3" d="M259.1,274.7c9.7-4.3,19.3-7.3,28.6-8.7c6.4,4.5,11.5,10.1,16.2,16.4c-11,2-18.3,5.5-25.8,9
	C272.9,284.3,266.1,279.4,259.1,274.7z"/>
<path class="st0" d="M237.5,291.7c5.8-6.7,13.6-13,21.7-17c-3.3-1.9-6.4-3.9-9.8-5.2C242.1,276.2,238.9,284.4,237.5,291.7z"/>
<path class="st3" d="M237.5,291.7c5.8-6.7,13.6-13,21.7-17c-3.3-1.9-6.4-3.9-9.8-5.2C242.1,276.2,238.9,284.4,237.5,291.7z"/>
<path class="st0" d="M304,282.4c4.8-0.7,9.7-1.3,15.1-1.7c3.1,5.2,4.6,11.6,4.5,18.9c-3.4,0.4-6.5,1.6-9.6,3.2
	C312,295.4,308.7,288.5,304,282.4z"/>
<path class="st3" d="M304,282.4c4.8-0.7,9.7-1.3,15.1-1.7c3.1,5.2,4.6,11.6,4.5,18.9c-3.4,0.4-6.5,1.6-9.6,3.2
	C312,295.4,308.7,288.5,304,282.4z"/>
<path class="st0" d="M314.1,302.7c1.9,5.8,3.2,11.5,3.8,17.4c-3.7,7.4-9.6,11.9-15.5,15.6c-2.3-7-5-13.3-7.9-19.1
	C300.3,310.9,306.7,306.1,314.1,302.7z"/>
<path class="st3" d="M314.1,302.7c1.9,5.8,3.2,11.5,3.8,17.4c-3.7,7.4-9.6,11.9-15.5,15.6c-2.3-7-5-13.3-7.9-19.1
	C300.3,310.9,306.7,306.1,314.1,302.7z"/>
<path class="st0" d="M278.2,291.4c6.1,7.1,11.6,15.3,16.3,25.2c-7,6.4-11.1,12.9-15.1,19.3c-12.5-6.3-20.1-14.1-28.1-21.8
	C259.5,303.9,268.6,296.1,278.2,291.4z"/>
<path class="st3" d="M278.2,291.4c6.1,7.1,11.6,15.3,16.3,25.2c-7,6.4-11.1,12.9-15.1,19.3c-12.5-6.3-20.1-14.1-28.1-21.8
	C259.5,303.9,268.6,296.1,278.2,291.4z"/>
<path class="st0" d="M236.9,296.3c4.3,5.9,9,12,14.4,17.8c-2.4,3-4.6,6.2-6.5,9.8C238.2,314.6,236.1,305,236.9,296.3z"/>
<path class="st3" d="M236.9,296.3c4.3,5.9,9,12,14.4,17.8c-2.4,3-4.6,6.2-6.5,9.8C238.2,314.6,236.1,305,236.9,296.3z"/>
<path class="st0" d="M279.4,335.9c3.1,1.6,6.3,3.3,9.5,4.9c-4,0.9-8.3,1.1-12.8,0.7C277.4,339.5,278.4,337.6,279.4,335.9z"/>
<path class="st3" d="M279.4,335.9c3.1,1.6,6.3,3.3,9.5,4.9c-4,0.9-8.3,1.1-12.8,0.7C277.4,339.5,278.4,337.6,279.4,335.9z"/>
</svg>
