<?xml version="1.0" encoding="utf-8"?>
<!-- Generator: Adobe Illustrator 24.2.0, SVG Export Plug-In . SVG Version: 6.00 Build 0)  -->
<svg version="1.1" id="Capa_2" xmlns="http://www.w3.org/2000/svg" xmlns:xlink="http://www.w3.org/1999/xlink" x="0px" y="0px"
	 viewBox="0 0 1720.9 1593.2" style="enable-background:new 0 0 1720.9 1593.2;" xml:space="preserve">
<style type="text/css">
	.st0{fill-rule:evenodd;clip-rule:evenodd;fill:#1D1D1C;}
	.st1{fill-rule:evenodd;clip-rule:evenodd;fill:#52A6D1;}
	.st2{fill-rule:evenodd;clip-rule:evenodd;fill:#FCFBFC;}
	.st3{fill-rule:evenodd;clip-rule:evenodd;fill:#251B18;}
	.st4{fill-rule:evenodd;clip-rule:evenodd;fill:#F4F9FC;}
	.st5{fill-rule:evenodd;clip-rule:evenodd;fill:#6AA8C7;}
	.st6{fill-rule:evenodd;clip-rule:evenodd;fill:#539FC7;}
	.st7{fill-rule:evenodd;clip-rule:evenodd;fill:#252220;}
	.st8{fill-rule:evenodd;clip-rule:evenodd;fill:#E02C2B;}
	.st9{fill-rule:evenodd;clip-rule:evenodd;fill:#FAFAFA;}
	.st10{fill-rule:evenodd;clip-rule:evenodd;fill:#DD2C2C;}
	.st11{fill-rule:evenodd;clip-rule:evenodd;fill:#D92E2D;}
	.st12{fill-rule:evenodd;clip-rule:evenodd;fill:#D42E2F;}
	.st13{fill-rule:evenodd;clip-rule:evenodd;fill:#F7F6F7;}
	.st14{fill-rule:evenodd;clip-rule:evenodd;fill:#CD2F32;}
</style>
<g id="lHUqTS.tif">
	<g>
		<path class="st0" d="M1572.9,760c-0.2,390.7-315,698.2-690.5,706.8c-402.1,9.2-723-315.3-725.2-702.6
			C155.1,377.5,462,59.6,848.7,51.2C1255.6,42.5,1574.4,370,1572.9,760z M186.7,758.6c-0.1,90.2,16.5,177.2,51.4,260.3
			c120.4,287.1,412.6,456.1,721.8,412c210.1-29.9,372.7-138.6,484.9-319.3c66.9-107.8,99.7-226.1,98.5-353.4
			c1.9-19.8-0.8-39.3-2.4-59c-8.5-99.7-36.6-193.9-89.5-278.4c-149-238.3-364.4-351.2-646.3-333.7C729,91.8,656.2,111,587.4,143.2
			c-196.2,91.8-323.5,242.4-380,451.9C193,648.5,185.8,703.1,186.7,758.6z"/>
		<path class="st1" d="M1543.2,758.2c1.2,127.3-31.6,245.6-98.5,353.4c-112.2,180.7-274.8,289.3-484.9,319.3
			c-309.2,44.1-601.4-124.9-721.8-412c-34.9-83.1-51.5-170.1-51.4-260.3c34.5,0,69-0.1,103.6-0.1c-11.2,31.2-8.9,60.9,9.8,88.2
			c-26.9,17.5-38.7,44.9-49.7,71.7c-7.4,18,7.8,33.2,27.8,31.3c30.9-2.9,62-4.5,92.5-9.3c25.4-4,51.4-1.3,76.6-11
			c9.5-3.7,27.4-5.2,36,11c75.5,142.9,192.9,224.6,355,234.4c163.8,9.9,292-56.6,384.7-191.9c25.2-36.7,40-78,53.6-119.9
			c7.2-2.2,19.4,6,19.9-9.8c8.7-4.1,16.9-8.8,21.9-18c7.7,7,15,13.2,25.7,12.1c23-2.5,45.9-5.2,69-6.8c15.1-1.1,21.6-9.9,25.4-22.9
			c5.7-20,11.8-40,17.7-59.9C1485.2,757.9,1514.2,758.1,1543.2,758.2z M838.7,1266.4l0.1,0.2c0.2-3-0.2-5.7-3.6-6.9l0.1,0.3
			c-6.1-13.5-14.7-7.8-23.1-3.1c-0.5,2.1-0.9,4.2-1.4,6.3c-3.6,6.4-3.2,12.9-0.3,19.5c0.8,4.8,0.5,9.4-1.6,13.9
			c-6.4,18-6.2,36.7-3.2,54.8c2.1,12.7,10.9,13.3,19.8,4.3c8.1-14.5,0.8-31.7,8.8-47.9c7.9,14.6,15.7,28,22.5,42
			c4.6,9.5,12.5,8.3,20.2,7.5c8.5-0.9,5.7-8.4,6-13.4c1.2-22.4,2.2-44.8,2.8-67.2c0.5-19.1-3.2-21.2-23.1-13.8
			c-6.7,4.9-6,17.3-17.6,17.2c-2.6-1.6-2.6-4.2-2.8-6.8C842.4,1270.4,841.9,1267.7,838.7,1266.4z M964.6,1303.6
			c-10.5-15.8-19.4-28.1-27.2-41.1c-5.1-8.5-12-6.9-19.2-5.8c-5.4,0.8-7.2,4-6.1,9.7c5.1,26.5,10.2,53,14.6,79.7
			c1.6,9.5,7.5,8.3,13.7,7.2c6.4-1.1,9.6-3.6,7.9-11.6c-2-9.2-6.7-18.5-3.3-28.6c10.6,4.6,8.7,22.9,25.1,19.4
			c17.2-3.7,10.7-19.8,17.1-30.6c6.1,9.5,4.6,20.2,6.8,29.7c2.2,9.5,7.2,9.9,14.6,9c8.8-1.1,8.9-6,7.4-13.3
			c-4.5-22.6-7.6-45.5-12.6-68c-1.3-5.6,2.2-16.6-10-16.1c-11.3,0.4-16.9,6.3-18.2,17.6C973.7,1274.1,970.9,1287.2,964.6,1303.6z
			 M1160.6,1225.2c0.8-0.9,1.7-1.8,2.5-2.6c14.5,6.9,29,13.6,43.3,20.8c8.9,4.4,13.8-2.1,19.1-6.6c5.9-5.1-0.3-9.1-2.8-12.9
			c-13.4-20.2-27.2-40.2-40.4-60.5c-4.7-7.2-8-10.9-17.1-4.9c-9.9,6.6-4.5,11.7-0.9,17.9c5.3,9.1,14.1,16.5,16.5,30.4
			c-15.5-7.7-28.8-13.7-41.6-20.7c-9-5-15.3-0.1-21.4,4.6c-8.3,6.5,0.7,11.2,3.4,15.4c12.7,20,26.4,39.3,39.3,59.2
			c4.6,7.1,7.6,11,16.8,5c9.8-6.4,5.4-11.6,1.4-17.8C1172.7,1243.4,1166.6,1234.3,1160.6,1225.2z M495.4,1097
			c-5.9-0.4-7.9,3.4-10.6,6.2c-9.8,10.1-19.7,20.2-29.6,30.2c-32.4,33.2-32.3,33.1,2.4,64c10.2,9.1,18.6,9.6,29.3-0.2
			c11-10.1,18.2-23.1,30.3-32.6c23.1-18.3,22.3-25.4,0.7-46.6c-5.2-5.1-10.1-10.6-15.4-15.6C500.1,1100.1,497.3,1098.4,495.4,1097z
			 M1306.2,1155.5c-0.8-2-1.3-5.1-3-7.1c-15.7-18.4-31.3-38.1-51.6-50.7c-20.7-12.9-27.2,12.8-39.9,21.5
			c-9.1,6.2-13.6,15.2-7.3,26.3c1.4,2.4,3.6,4.4,5.5,6.4c7.5,7.6,15.5,14.8,22.7,22.6c30.2,32.8,30.6,32.9,61.4,1.4
			C1299.5,1170.2,1305.3,1164.8,1306.2,1155.5z M782.5,1269.2c0.4-10.9-3.9-18.5-14.6-19.7c-16.9-1.9-33.8-16-50.9-0.8
			c-1.2,1-1.9,2.8-2.3,4.4c-4.9,21.3-10.2,42.5-14.3,64c-3.3,17.5,10.4,20.8,22.7,22.6c14.9,2.2,34.2,15.9,43.2-5.4
			C775,1314.1,777.4,1291.1,782.5,1269.2z M1047.9,1236.6c1.5,21.6,3.1,46.9,5.3,72.1c0.5,6.1-0.9,16.3,6.9,16.3
			c8.2,0,18.1-4.2,15.4-17.1c-1.6-7.6,2.9-10.9,9.3-13.7c9.3-4,17.3-6.9,25,3.5c6.9,9.2,15.2,1.7,20.5-2.3c6-4.6-1.8-8.5-4.6-11.8
			c-17.5-20.6-35.6-40.6-52.8-61.4c-4.7-5.7-8.5-5.8-14.2-2.9C1052.9,1222.4,1045.4,1223.6,1047.9,1236.6z M499.7,1234.6
			c9.5,3.4,14.1,16,24.6,8.1c7.3-5.5,12.7-7.6,20.7-1.6c7.8,5.9,15.7,9.7,10.3,22.5c-3.8,9.1,6.2,12.7,12.4,15.1
			c7.6,2.9,7.1-5.3,8.3-9.5c7.1-25.5,13.5-51.1,20.8-76.6c2-6.9,2-11.7-4.7-15.8c-6.1-3.7-11.6-6.8-18.3-1.3
			C549.6,1194.9,525.4,1214.1,499.7,1234.6z M668,1306.1c-2.9-7.7-11.6-9.2-18.2-11.3c-12.3-3.9-16.6-8.4-9.6-21.4
			c7.9-14.8,13.2-31,20.2-46.4c2.8-6.1,5.9-11.2-3.5-14.1c-6.8-2.1-12.9-6.5-17.1,4.6c-7.2,18.9-15.9,37.2-23.8,55.8
			c-10.5,24.5-10.4,24.6,13.1,35c7.7,3.4,15.6,6.4,23.2,10.1C664,1324.1,665,1314.9,668,1306.1z"/>
		<path class="st2" d="M290.2,758.5c-34.5,0-69,0.1-103.6,0.1c-0.8-55.5,6.3-110.1,20.7-163.5c56.5-209.5,183.8-360.1,380-451.9
			C656.2,111,729,91.8,805.1,87.1c281.8-17.5,497.2,95.4,646.3,333.7c52.9,84.5,81,178.7,89.5,278.4c1.7,19.7,4.3,39.2,2.4,59
			c-29-0.2-58-0.4-87-0.5c0.3-2.8,0.2-5.7,0.9-8.3c11.2-39.4,22.4-78.8,33.7-118.2c7.2-25.3-1.5-37.4-27.1-36.2
			c-14.6,0.7-29.1,3.1-43.8,3.6c-14.7,0.5-25.3,6.3-31,21.9c-8.2-14.5-19.7-17.6-33.9-15.6c-24.5,3.5-49.3,3.3-73.6,8.8
			c-6.8,1.6-16.5,1.4-21.2-4.6c-6.2-7.9,1.5-14.4,6.2-20.6c1.4-1.8,2.6-3.7,4.1-5.3c8.8-9.6,9.7-20.9,3.5-31.2
			c-6-10-17.2-13.8-28.2-10.1c-15.1,5.1-21.6-2.4-29.2-13.6C1117,381.8,933.1,310.1,763.5,355.6c-164.3,44.1-270,148.8-310.8,315.6
			c-4,16.1-9.6,23.4-27.4,22.9c-17.8-0.6-35.9,5.7-53.7,5c-39.5-1.6-60.9,20.9-77,52.5C293.3,754,291.7,756.2,290.2,758.5z
			 M372.2,530.5c18,0,36.1-0.2,54.1,0.1c8.7,0.1,14.5-2.7,19.1-10.7c43.6-75.8,103.9-135.4,178.4-180.6c11.7-7.1,13.4-14.4,8.8-26.3
			c-11.1-28.7-21.7-57.7-32.1-86.7c-4.6-12.9-10.8-16.2-24-9c-123.3,67.2-214.1,164.6-272.4,292.2c-6.6,14.5-2.6,20.6,14,20.9
			C336.2,530.8,354.2,530.5,372.2,530.5z M1302.5,439.5C1302.5,439.5,1302.5,439.6,1302.5,439.5c20.3,0.1,40.6,0.1,60.9,0
			c6,0,13,1.8,16.9-4.8c4.2-7.1-0.1-13-3.9-18.6c-57.9-84.1-131.3-150.8-221.3-199.2c-12.3-6.6-18.8-3.4-23.2,8.5
			c-10.8,29.4-21.3,59-32.7,88.2c-4.4,11.5-2.7,18.8,8.7,24.9c28,14.9,51.9,35.6,76.2,55.7c17.2,14.2,28.1,38.5,49.4,44
			C1255.1,443.9,1279.4,439.5,1302.5,439.5z M797.7,267.4c8.3-1,16.8-0.2,25-3.3c8.6-3.2,13.4-9,12.4-17.6
			c-2.4-22.9-5.8-45.6-8.7-68.4c-1.3-10-7.6-17.1-16.6-15.1c-15.4,3.4-35.3-5.3-45.2,14.3c-1.8,3.6-0.9,8.9-0.4,13.3
			c2,17.8,4.6,35.6,6.6,53.5C773.3,267,775.5,269,797.7,267.4z M876.4,238c-0.1,9.6-3.3,22.3,12.9,25.3c8.3,1.5,16.7,2.6,25.1,3.3
			c17.4,1.3,23.5-3.6,25.6-21.2c1.5-12.9,1.6-25.9,2.9-38.8c4.3-40.9,2.3-42.8-38.5-45.1c-15-0.8-22.5,5-23.8,19.4
			C879.2,199.5,877.9,218.1,876.4,238z M651.3,211.4c1.7,4.9,0.1,14.4,7.9,15.2c5.7,0.6,16.1,1.4,15.7-11.1c-0.2-6.7,7-6,11.4-7.2
			c5.8-1.5,5,4.2,6.9,7.1c6.6,10.2-0.5,15.4-7.5,20.1c-17.2,11.6-23.8,25.7-12.6,45.1c1.4,2.4,2.3,5.2,2.6,8
			c0.9,7.5,3.5,9.2,11.1,6.2c12.5-4.8,25.8-7.6,38.4-12.2c4.9-1.8,14.1-0.7,9.7-12.6c-3.8-10.1-8.4-9.9-16.1-6.8
			c-5.7,2.3-11.5,4.3-17.4,6.1c-3.7,1.1-7.9,2.5-10.2-2.4c-1.9-4.1-0.8-7.8,2.4-10.7c4.9-4.6,10.1-9,15.1-13.5
			c5-4.5,10.8-8.9,11-16.3c0.8-32.3-17.6-45.5-47.7-34.6c-3.7,1.3-7.5,2.4-11.1,3.8C654.4,198.2,651.5,203.3,651.3,211.4z
			 M1044.2,188c-8.9-2.4-12.5,0.9-16.5,4.3c-12.7,11.1-25.2,22.4-38.6,32.7c-7.6,5.9-14.4,12.9-13,21.9c1.4,9.2,12.6,7.2,19.5,9.5
			c10.6,3.5,20.4,5.3,13.1,20.7c-4.1,8.8,5.1,8.7,10.4,11.1c7.4,3.3,8.7-1,10-6.5c1.9-8,4.1-14.7,15.4-11.2c6.3,1.9,5.1-5.9,7.1-9.3
			c1.9-3.2,1.2-7.2-3.3-7.6c-12.8-1.2-8.3-8.8-6.3-15.6c3.4-11.2,5.9-22.9,10.5-33.6C1058.1,191.4,1051.4,188.6,1044.2,188z"/>
		<path class="st3" d="M290.2,758.5c1.4-2.3,3.1-4.5,4.3-6.9c16-31.6,37.4-54.1,77-52.5c17.8,0.7,35.9-5.5,53.7-5
			c17.9,0.6,23.5-6.7,27.4-22.9c40.8-166.8,146.6-271.6,310.8-315.6c169.7-45.5,353.6,26.1,453.3,172.9
			c7.6,11.2,14.1,18.7,29.2,13.6c10.9-3.7,22.2,0,28.2,10.1c6.2,10.3,5.3,21.6-3.5,31.2c-1.5,1.7-2.8,3.5-4.1,5.3
			c-4.7,6.2-12.4,12.7-6.2,20.6c4.7,6,14.3,6.1,21.2,4.6c24.3-5.6,49.2-5.3,73.6-8.8c14.1-2,25.7,1.1,33.9,15.6
			c5.8-15.6,16.3-21.4,31-21.9c14.6-0.5,29.1-2.9,43.8-3.6c25.5-1.2,34.3,10.9,27.1,36.2c-11.3,39.4-22.5,78.8-33.7,118.2
			c-0.7,2.6-0.6,5.5-0.9,8.3c-5.9,20-12,39.9-17.7,59.9c-3.7,13.1-10.3,21.9-25.4,22.9c-23,1.7-46,4.4-69,6.8
			c-10.8,1.2-18-5.1-25.7-12.1c-5,9.2-13.2,13.9-21.9,18c-7.5,1.5-19.7-6.6-19.9,9.8C1263,905,1248.2,946.3,1223,983
			c-92.7,135.2-220.9,201.8-384.7,191.9c-162.1-9.8-279.5-91.5-355-234.4c-8.6-16.3-26.5-14.7-36-11c-25.2,9.8-51.2,7-76.6,11
			c-30.6,4.8-61.7,6.4-92.5,9.3c-20,1.9-35.2-13.4-27.8-31.3c11-26.8,22.8-54.1,49.7-71.7C281.3,819.4,279,789.7,290.2,758.5z
			 M747.5,1107.1L747.5,1107.1c-3.4-4.6-8.1-6.3-13.5-7l0.1,0.1c-2.9-4.8-7.4-6.9-12.7-7.7l0,0.3c-1.9-4.7-5.6-6.6-10.4-7l0.2,0
			c-8.2-9.6-18.6-15.8-30.2-20.5l-0.5,0.9l0.3-1c-2.1-6.6-7.6-10.8-13.3-11.5c-17.9-2.1-35.8-6.7-54.8-3.7
			c3.3,7.7,8.9,9.7,14.9,11.1l0.9-0.2l-0.9,0.4c17.7,19.3,40.5,30.4,64.1,40.5l0.5,0.2c25.7,17.3,55.3,24.1,84.5,31.8
			c3.4,0.9,8.5,2,10.2-3c2.1-6.1-3.2-7.6-7.3-9.3c-6.2-2.6-12.5-4.9-18.7-7.3c-1.5-0.5-3.1-0.9-4.6-1.4
			C754.5,1109.2,751.7,1107.1,747.5,1107.1z M853.3,376.6c-41.4,2.2-81.8,8.7-120.7,23.2c-6.9,2.6-13.4,5.3-16.6,13.1
			c-6.8,16.7-15.3,32.7-21,49.8c-9.7,29-14.3,57.6,9.2,84c9.2,10.3,15.9,23.4,21.7,36.1c6.6,14.5,17,18.8,32.1,19
			c40.6,0.5,80.8,6.3,121,12.4c8,1.2,12.6-1.3,17.7-6.3c25-24.5,50-48.9,75.3-72.9c8.1-7.7,12.8-15.8,14.2-27.4
			c3.8-31.3,8.7-62.4,14-93.5c1.7-10-1.5-14.4-10.5-17.4C945.3,382.4,899.8,376.3,853.3,376.6z M979.8,1042.7
			c9.8,0,18.3,0.5,26.7-0.1c39.1-2.9,72.6-15.1,96.1-49.9c13.9-20.6,26.6-41.7,39.9-62.5c10.6-16.6,12.5-32.9,8.5-51.3
			c-1.9-8.9-5.7-12.2-15-11.1c-27.4,3.1-54.9,5.5-82.4,8.2c-26.5,2.6-38.8-14.8-28.8-39.3c4-9.8,18.7-19.2,11-28.1
			c-4.4-5.1-21.1,0.2-32.2,0.9c-10.8,0.6-19.5,4.1-24.3,14.9c-18,41-42.2,78.3-70.7,112.8c-4.3,5.2-6.7,10.3-3.8,16.9
			c8.9,20,15.9,40.8,25.3,60.8C940.7,1037.5,954.9,1050.1,979.8,1042.7z M807,780.6c-1.4-1.9-3.1-3.1-3.3-4.5
			c-3.1-18.3-6.3-36.6-8.7-54.9c-5.2-38.9-5-38.9-44-34.8c-9,0.9-17.9,2-26.9,2.8c-5.6,0.5-8.7,2.9-10.4,8.9
			c-17.8,63-35.9,126-54.5,190.6c15.1-1.1,29-2.4,42.9-3c12-0.5,16.8-6.7,19.7-18c7.2-28.5,15.8-56.7,23.9-85
			c3.7,2.9,4.7,5.9,5.2,8.9c3.9,25,7.8,50,11.3,75c1.3,9.3,3.9,13.9,14.9,12c16.6-2.9,33.5-4.2,50.3-5.5c6.6-0.5,9.7-2.6,11.6-9.3
			c17.8-63.1,36-126.1,54.2-189.5c-13.9-2.5-26.7,3.1-39.4,1.8c-14.8-1.6-18.9,6.2-22.1,18.2C824.1,723,815.4,751.4,807,780.6z
			 M1323.3,726.4c0.9,0.2,1.8,0.4,2.7,0.6c4.8,28.6,10.1,57.1,14,85.8c1.3,9.3,4.8,11,12.9,10.1c15.1-1.6,30.3-3.4,45.5-3.8
			c11.3-0.3,16.8-4.6,19.8-15.7c14.4-52.5,29.7-104.8,44.5-157.1c8.4-29.7,8.4-28.7-23.3-27c-19.7,1-29.4,8.2-33.4,28.3
			c-5.3,26.5-14.5,52.3-22,78.3c-7.3-29.2-12.3-58-16.4-86.9c-1.2-8.4-3.5-12-12.6-10.8c-16.2,2.1-32.5,4-48.8,4.5
			c-9.9,0.3-13.7,4.5-16.2,13.3c-10,36.3-20.4,72.4-30.8,108.6c-7.4,25.7-14.8,51.3-22.4,77.4c9,0,16.2,0.4,23.5-0.1
			c34.2-2.2,34-2.3,42.8-35.2C1309.4,773.2,1316.5,749.9,1323.3,726.4z M272.5,925.9c49.2-4.5,95.7-8.8,142.3-12.9
			c9.3-0.8,17.6-3,24.7-9.3c25.1-22.1,32.7-66.8,16.6-96.3c-6.9-12.7-16.6-19.1-31.6-17c-14.5,2.1-29.1,3.4-43.7,4.8
			c-6.8,0.6-14.9,1.3-15.7-8.1c-0.8-9.1,4.4-14.3,14.1-15.1c26.4-2.2,52.8-4.8,79.1-7.2c4.9-0.4,10.1,0.7,13.8-4.3
			c11.6-15.5,23-31.1,31.7-50.8c-45.4,4.4-88.5,8.3-131.6,13.1c-9.9,1.1-20.4-0.9-29.7,5c-20.7,13.1-40.1,52.7-34.7,76.6
			c6.3,27.6,15.9,46.7,51.9,41.5c11.7-1.7,23.5-2.5,35.3-3.8c6.7-0.7,13.7-2.9,13.8,8.4c0.1,9.2-2.6,12.8-12.2,13.6
			c-28.1,2.2-56.1,5.5-84.1,8.5c-4.8,0.5-10.1-1.1-13.4,4.7C290.4,892.9,279.8,907.4,272.5,925.9z M737.7,951.1
			c-11.4-3.4-16.5,3.1-21.1,12c-8.6,16.6-14.9,33.9-20.4,51.7c-3.4,10.9-0.6,16.7,7.6,22.7c29.2,21.4,59.8,40.3,93.1,54.8
			c6.5,2.9,13,6.4,21,4.4c30.4-7.4,58.5-19.9,85.1-36.4c7-4.3,9.4-8.4,4.8-16.3c-13.3-22.9-24.1-47.1-32.8-72.2
			c-2.7-7.7-7.2-11.5-16.1-11.7C818.3,959,777.7,958.4,737.7,951.1z M510.3,757.5c19,2.5,36.2-3,54.3-2.3
			c-7.2,25.7-15.2,50.2-20.8,75.3c-3.7,16.5-11.2,24.5-28.6,22.9c-5.9-0.6-12.7-1.2-17.1,4.8c-11.1,15.2-22.5,30.2-30.7,49.3
			c42.4-3.9,82.7-7.6,123.1-11.2c29.8-2.6,52.5-24.6,57.4-56.4c-17.3,1.8-34.5,3.6-52.7,5.5c8.2-29.6,16.2-58,23.9-86.5
			c2.3-8.4,7.1-11.1,15.7-11.3c10.9-0.2,23.2,1.1,30.7-9.8c8-11.5,15.4-23.5,22.9-35.4c5.3-8.5,2.1-10.4-6.9-9.5
			c-42.6,4.2-85.3,8-127.9,12c-7,0.7-12.7,3.4-16.9,9.6C527.8,728,518,741,510.3,757.5z M1227.2,785.2c-18.7-0.3-35.8,6.4-54.4,2.7
			c8.4-29.6,17.1-58.6,24.8-87.9c2.2-8.3,8.1-5.8,13-7.2c10-2.7,22.1,1.9,30.1-7.8c11.8-14.3,21.7-29.8,29.1-48.3
			c-48.5,4.6-95.5,9-142.5,13.4c-4.1,0.4-7.7,1.7-10.2,5.2c-10.7,15-22.3,29.5-29.7,48.2c18.5,1,35.5-5.6,54-2.1
			c-8.4,29.2-16.8,57.7-24.5,86.4c-1.9,7.2-6.4,8.2-12.3,8.8c-8.9,0.9-21.1-0.9-26.1,4.2c-14.2,14.3-25.6,31.5-34,51.7
			c49-4.6,95.5-9,142.1-13.2c4.8-0.4,8.6-1.8,11.6-5.6C1209.7,819.1,1219.8,803.8,1227.2,785.2z M1086.8,654.1
			c-52.8,5.1-103.2,10.4-153.7,14.3c-11.7,0.9-16.3,5.2-19.3,15.7c-16.4,58.4-33.2,116.6-50.3,174.8c-3,10.1,0.8,11.7,9.6,10.5
			c10.6-1.5,21.2-3.2,31.9-3.4c10.2-0.2,14.9-4.4,17.1-14.3c2.7-12,6.8-23.7,10.4-35.5c8-26,8-25.9,36-27.7
			c10.6-0.7,23.4,1.7,30.8-6c14.6-15.1,26.8-32.5,40-48.9c-32.4,4.8-69.1-8.7-89.7,28.8c1.3-10.9,4.4-19.3,5.6-28
			c2.1-15.1,10.9-19.7,25.1-20.5c21.4-1.1,42.6-4,64-5.6c6.7-0.5,11.7-2.7,15.7-8.2C1070,686.2,1079.7,671.9,1086.8,654.1z
			 M545.2,681.7c32-2.9,63.9-7.5,95.9-8.1c31-0.6,52-10,60.5-42.4c2.7-10.1,4.1-17.5-1.7-26.4c-12-18.4-23.3-37.2-34.5-56.2
			c-4.2-7.1-8.3-9-16.4-5.5c-27.4,11.9-55,23.2-82.6,34.5c-4.6,1.9-7.4,4.4-8.5,9.4c-6.4,28.5-13.1,57-19.4,85.5
			C537.4,677.5,536.7,683.4,545.2,681.7z M1020.1,512.7c-3.4,10.4,5.6,12.1,11.6,15.2c35.5,18.4,71.4,36.3,106.8,54.8
			c7.8,4.1,13.5,3.8,19.4-2.7c9.1-10,15.5-22.2,26.3-30.7c5.2-4.1,1-8.2-1.7-11.6c-8.9-11-17.6-22.1-27-32.6
			c-30.4-34-66.1-61.3-106.5-82.4c-5.2-2.7-14-11.1-16.2,3C1028.3,454.7,1024.3,483.7,1020.1,512.7z M651.1,1018.1
			c8.1,1.6,10.4-4.2,11.8-10.6c5.2-23.9,16.1-45.5,26.9-67.1c7.8-15.6-0.9-29.2-18.3-29c-9.5,0.1-19.1,1.9-27.9-3.7
			c-3.9-2.5-7.8-0.7-10.7,2.2c-7,7-15.9,7.3-25,7.9c-15.1,1.1-30.2,2.8-45.3,4.4c-8.7,0.9-11.7,4-7.2,13.2c7.7,15.6,14,31.9,21,47.9
			c2.7,6.2,5.6,12.7,11.8,16C607.7,1009.6,628.6,1015.7,651.1,1018.1z M1100.6,633.8c6.8-2.4,13.7-4.9,20.5-7.2
			c4-1.4,10.6,1.4,11.8-4c1.2-5.9-5.2-7.8-9.5-10c-36.2-18.4-72.5-36.5-108.5-55.2c-7.5-3.9-13-4.5-19.4,1.9
			c-24.4,24.3-49.1,48.2-73.7,72.2c-2.6,2.5-4.9,4.8-3.8,8.6c1.4,4.7,5.4,5.5,9.4,5.4c4.5-0.1,9-0.7,13.5-1.1
			C993.9,640,1046.8,631.7,1100.6,633.8z M978,1076.4c-14.2,2.5-29.3-3.6-43,4.7c-32.8,19.9-66.2,38.6-104.3,46.8
			c-4.6,1-9.1,3.3-8.2,8.9c0.9,5.4,6.1,4,9.7,4.4c85.3,7.6,164.5-11.1,237.8-55.3c4.6-2.8,10.7-4.8,7.5-12.7c-3.2-8-8-8.9-16-6.9
			C1034.1,1073.2,1006.6,1079.4,978,1076.4z M546.3,542.1c5.4,4.3,9.6,3.4,13,2c28.1-11.6,56-23.5,83.9-35.4
			c4.1-1.7,7.9-3.9,9.1-9.2c4.7-21.8,9.6-43.5,15.3-69.5C617.3,460.2,576.4,495.1,546.3,542.1z M1221.6,907.3
			c-15.3,11.6-35.2,10.5-44.1,28.4c-18.6,37.4-41,72.2-70.3,102.3c-4.9,5.1-7,10.4-2.1,16.3c6.5,7.8,10.2-0.8,13.4-3.5
			c38.1-32.3,69.7-70.1,92.2-114.8C1214.9,927.9,1222.5,920.9,1221.6,907.3z M898.7,890.6c-5.6,0-9.4-0.3-13.2,0.1
			c-37.4,3.9-74.9,7.9-112.3,12.1c-8.2,0.9-15.5,0.1-22.6-4.5c-3.6-2.3-6.1-10.3-12.1-4.7c-5.2,4.8-12.9,11-12.8,16.5
			c0.1,7.8,10.2,6.3,16.6,7.4c33.4,5.9,67.4,5.1,101,8.1C871.2,928,886.1,915.7,898.7,890.6z M860,646.4c-7.7-1.3-13.7-2.7-19.7-3.3
			c-27.4-2.7-55.1-3.5-82.1-8.4c-18.4-3.3-25.8,4-30.6,19.2c-2.3,7.3-2.9,11.8,7.7,10.3c16.7-2.3,33.6-2.7,50.3-5
			c11.9-1.6,19.6,13.4,25.7,10.9c7.9-3.1,13.3-13.6,23.9-16.3C842.7,652.1,851.4,656.1,860,646.4z M1252.1,566.2
			c-49.1-2-70.2,9.7-88.6,48.5C1205.6,622.7,1234.5,604.2,1252.1,566.2z M524.3,582.2c-21.3,29.3-31.8,62.4-40.2,96.4
			c-1,4.2-0.3,8,5.3,8.2c5.7,0.2,11.6,0.5,13.3-7C509.9,647.3,517.1,614.8,524.3,582.2z M1184,871.8c1.5,3.2-1.4,9.7,3.3,12.7
			c5.1,3.2,9.5-1.7,13.5-4.4c6.9-4.7,13.6-9.8,20.2-15c3.5-2.8,7.4-6,2.8-11c-3.4-3.7-7.1-5.5-11.7-1.8c-7.1,5.7-14.8,10-24.1,10.8
			C1183.6,863.5,1182.5,866.3,1184,871.8z"/>
		<path class="st4" d="M964.6,1303.6c6.3-16.4,9.1-29.5,10.6-42.7c1.3-11.3,7-17.2,18.2-17.6c12.2-0.4,8.7,10.5,10,16.1
			c5,22.5,8.2,45.4,12.6,68c1.4,7.3,1.3,12.2-7.4,13.3c-7.4,0.9-12.4,0.5-14.6-9c-2.2-9.5-0.7-20.2-6.8-29.7
			c-6.4,10.8,0.1,26.9-17.1,30.6c-16.4,3.5-14.5-14.8-25.1-19.4c-3.4,10,1.3,19.4,3.3,28.6c1.7,7.9-1.6,10.5-7.9,11.6
			c-6.2,1.1-12.1,2.2-13.7-7.2c-4.5-26.6-9.5-53.2-14.6-79.7c-1.1-5.7,0.6-8.9,6.1-9.7c7.2-1.1,14.1-2.7,19.2,5.8
			C945.2,1275.5,954.1,1287.8,964.6,1303.6z"/>
		<path class="st4" d="M1160.6,1225.2c6,9.1,12.1,18.2,18.1,27.3c4,6.2,8.4,11.4-1.4,17.8c-9.2,6-12.3,2-16.8-5
			c-12.8-19.9-26.6-39.2-39.3-59.2c-2.7-4.2-11.7-8.9-3.4-15.4c6.1-4.8,12.4-9.6,21.4-4.6c12.7,7,26,13.1,41.6,20.7
			c-2.4-13.9-11.3-21.3-16.5-30.4c-3.6-6.2-9-11.3,0.9-17.9c9.1-6.1,12.5-2.3,17.1,4.9c13.2,20.3,27,40.3,40.4,60.5
			c2.5,3.8,8.8,7.7,2.8,12.9c-5.2,4.5-10.2,11.1-19.1,6.6c-14.3-7.2-28.9-13.9-43.3-20.8C1162.3,1223.4,1161.4,1224.3,1160.6,1225.2
			z"/>
		<path class="st4" d="M495.4,1097c1.8,1.4,4.7,3.2,7.1,5.4c5.3,5.1,10.2,10.5,15.4,15.6c21.6,21.2,22.4,28.4-0.7,46.6
			c-12.1,9.5-19.3,22.5-30.3,32.6c-10.7,9.8-19.1,9.3-29.3,0.2c-34.7-31-34.8-30.9-2.4-64c9.9-10.1,19.8-20.1,29.6-30.2
			C487.6,1100.3,489.5,1096.5,495.4,1097z M470.5,1179.2c5.7-2.1,11.5-5.7,11.5-10.9c0-7.7-7.1-13.6-13.7-14.8
			c-4.2-0.8-10.6,6-10.7,11.2C457.4,1171.8,464.5,1175.3,470.5,1179.2z M497.6,1150.8c5.2-2.8,11.8-6.7,10.9-11.5
			c-1.1-5.9-6.4-12.4-14-11.9c-4.9,0.3-10.2,4.8-9.9,9.7C485.1,1144.1,491.3,1148,497.6,1150.8z"/>
		<path class="st4" d="M810.8,1263.3c0.5-2.1,0.9-4.2,1.4-6.3c8.1-1.8,15.5,1.4,23.1,3.1c0,0-0.1-0.3-0.1-0.3
			c0.2,2.8,0.9,5.4,3.6,6.9c0,0-0.1-0.2-0.1-0.2c0,3,1,5.4,3.6,7c0.2,2.6,0.1,5.2,2.8,6.8c4.8,9.4,7.2,20.3,17.6,28.7
			c0-16.8,0-31.3,0-45.9c19.9-7.4,23.7-5.3,23.1,13.8c-0.6,22.4-1.6,44.8-2.8,67.2c-0.3,5,2.5,12.5-6,13.4c-7.6,0.8-15.5,2-20.2-7.5
			c-6.8-13.9-14.6-27.4-22.5-42c-8,16.2-0.7,33.4-8.8,47.9c-12.9,0.2-18.9-4.6-17.1-18.9c1.6-13.2,0.5-26.8,0.5-40.2
			c2-4.5,2.4-9.1,1.6-13.9C812.3,1276.3,811.6,1269.8,810.8,1263.3z"/>
		<path class="st4" d="M1306.2,1155.5c-0.8,9.3-6.7,14.7-12.2,20.4c-30.8,31.5-31.2,31.4-61.4-1.4c-7.2-7.9-15.1-15.1-22.7-22.6
			c-2-2-4.2-4-5.5-6.4c-6.3-11.1-1.9-20,7.3-26.3c12.7-8.7,19.2-34.4,39.9-21.5c20.3,12.6,35.9,32.3,51.6,50.7
			C1304.9,1150.3,1305.3,1153.4,1306.2,1155.5z M1283,1161.4c-4.9-6.2-6.7-8.9-9-11.2c-7.5-7.6-15.5-14.7-22.5-22.8
			c-6.7-7.7-11.4-7.7-18.9-0.3c-7.7,7.6-4.7,11.8,1.4,17.4c7.8,7.2,14.9,15.2,22.8,22.5c2.8,2.6,4.6,8.9,10.6,5.1
			C1272.6,1168.8,1277.5,1165.2,1283,1161.4z"/>
		<path class="st4" d="M782.5,1269.2c-5.1,21.8-7.5,44.9-16.2,65.2c-9.1,21.3-28.4,7.6-43.2,5.4c-12.3-1.8-26-5.1-22.7-22.6
			c4.1-21.5,9.4-42.7,14.3-64c0.4-1.6,1.1-3.4,2.3-4.4c17.1-15.2,34-1.2,50.9,0.8C778.6,1250.7,782.9,1258.4,782.5,1269.2z
			 M757.8,1276.6c2.9-9.3-5.3-9.6-12.4-11.9c-8.2-2.6-10.9-0.1-12.2,8c-1.9,11.6-4.6,23.1-8,34.3c-2.9,9.7,1,12,9.7,14.7
			c10.2,3.2,13-0.7,14.8-9C752.1,1301.2,754.8,1289.8,757.8,1276.6z"/>
		<path class="st4" d="M1047.9,1236.6c-2.6-13,5-14.3,11-17.2c5.8-2.9,9.5-2.8,14.2,2.9c17.2,20.8,35.3,40.8,52.8,61.4
			c2.8,3.3,10.6,7.2,4.6,11.8c-5.3,4-13.6,11.5-20.5,2.3c-7.8-10.4-15.8-7.5-25-3.5c-6.4,2.7-10.9,6-9.3,13.7
			c2.7,12.8-7.2,17.1-15.4,17.1c-7.8,0-6.4-10.2-6.9-16.3C1051.1,1283.5,1049.5,1258.3,1047.9,1236.6z M1069.3,1249.1
			c0.7,8.6,0.5,13.5,1.6,18.1c0.8,3.3,0.4,8.6,6,8.6c2,0,4.4-1.3,5.9-2.7c4.6-4.1-0.4-6.9-2.1-9.7
			C1078.3,1259.3,1074.8,1255.8,1069.3,1249.1z"/>
		<path class="st4" d="M499.7,1234.6c25.7-20.5,49.9-39.7,74-59.1c6.8-5.5,12.2-2.4,18.3,1.3c6.7,4.1,6.7,8.9,4.7,15.8
			c-7.3,25.4-13.7,51.1-20.8,76.6c-1.2,4.2-0.6,12.4-8.3,9.5c-6.2-2.4-16.2-6-12.4-15.1c5.4-12.8-2.5-16.6-10.3-22.5
			c-8-6-13.4-3.9-20.7,1.6C513.8,1250.5,509.2,1237.9,499.7,1234.6z M570.3,1207.5c-5.8,4.2-16,4.8-15.1,14.9c0.2,1.8,4.6,5,6.2,4.6
			C570.9,1224.4,567.6,1214.7,570.3,1207.5z"/>
		<path class="st4" d="M668,1306.1c-2.9,8.8-4,18-15.9,12.3c-7.6-3.6-15.5-6.7-23.2-10.1c-23.5-10.4-23.5-10.5-13.1-35
			c7.9-18.6,16.6-36.9,23.8-55.8c4.2-11,10.3-6.6,17.1-4.6c9.4,2.9,6.3,8,3.5,14.1c-6.9,15.4-12.2,31.6-20.2,46.4
			c-7,13-2.6,17.5,9.6,21.4C656.4,1296.9,665.1,1298.4,668,1306.1z"/>
		<path class="st5" d="M862.7,1263c0,14.6,0,29.1,0,45.9c-10.4-8.4-12.8-19.3-17.6-28.7C856.6,1280.3,856,1267.9,862.7,1263z"/>
		<path class="st5" d="M808.9,1296.7c-0.1,13.4,1.1,27-0.5,40.2c-1.8,14.3,4.2,19.2,17.1,18.9c-8.9,9-17.7,8.4-19.8-4.3
			C802.7,1333.3,802.6,1314.6,808.9,1296.7z"/>
		<path class="st6" d="M1276.7,863.1c0.2-16.4,12.4-8.3,19.9-9.8C1296.1,869.1,1283.8,861,1276.7,863.1z"/>
		<path class="st5" d="M835.3,1260c-7.6-1.7-15.1-4.8-23.1-3.1C820.6,1252.3,829.2,1246.6,835.3,1260z"/>
		<path class="st5" d="M810.8,1263.3c0.8,6.5,1.5,13-0.3,19.5C807.5,1276.2,807.2,1269.7,810.8,1263.3z"/>
		<path class="st5" d="M838.8,1266.6c-2.7-1.5-3.4-4.1-3.6-6.9C838.6,1260.9,839,1263.6,838.8,1266.6z"/>
		<path class="st5" d="M842.3,1273.5c-2.6-1.6-3.6-4-3.6-7C841.9,1267.7,842.4,1270.4,842.3,1273.5z"/>
		<path class="st7" d="M372.2,530.5c-18,0-36.1,0.3-54.1-0.1c-16.6-0.4-20.6-6.5-14-20.9c58.4-127.6,149.1-225,272.4-292.2
			c13.1-7.1,19.3-3.9,24,9c10.4,29,20.9,58,32.1,86.7c4.6,11.9,3,19.2-8.8,26.3c-74.5,45.2-134.7,104.9-178.4,180.6
			c-4.6,7.9-10.4,10.8-19.1,10.7C408.3,530.3,390.3,530.5,372.2,530.5z M462.2,408.1c-1.2,1.2-2.3,2.3-3.5,3.5l0-0.2
			c-2.8,0.3-4.3,2.1-5,4.6l-0.7,0.8c-4.8,2.4-7.2,6.6-8.2,11.7l-0.1-0.2c-3.9,1.3-6.3,3.9-7.1,7.9c-14.8,18.2-27.7,37.8-39.4,58.1
			c-4.7,8.2-5.6,14.3,7.2,12.3c20,5.3,28.6-6.4,33.9-22.9l0,0c7-7,12.8-14.8,16.6-24l0.1-0.1c5.8-3.8,9.9-8.8,11.6-15.7l-0.9-0.3
			l0.9,0.5c2.6-0.6,4.2-2.3,4.8-4.9l0.4-0.4c5.2-2.7,8.7-7,10.5-12.6c1.2-1.2,2.3-2.4,3.5-3.6c15.8-15.8,31.5-31.6,47.3-47.4l0,0
			c12-7.3,23.1-15.8,32.3-26.5l0.9,0.1l0.7-0.7c6-1.4,10.3-5.1,13.6-10.2l0,0c4.2-1,7.8-2.9,9.9-6.9c1.4-0.8,2.8-1.6,4.2-2.4
			l1.3,0.2l0.4-1.4l0.9-0.8c6.3-1.8,12.1-4.5,10-12.4c-1.9-7.2-1.9-16.8-9.8-19.8c-5.9-2.3-11.1,3-14.6,8.4l0.1-0.3
			c-3.5,0.4-6.7,1.3-8.3,5c-1.5,0.9-2.9,1.9-4.4,2.8c-3.7,0.3-6.3,2.2-7.8,5.6l1,0.3l-1.1-0.2c-11.6,4.7-21,12.2-29,21.7l-0.3,0.2
			c-10.2,4-17,12-23.7,20.1l0,0c-15.9,10.1-28.7,23.3-38.7,39.3l0.9,1l-0.7-1.1c-2.9,0.3-4.7,1.9-5.6,4.7l0,0.1
			c-2.7,1.2-4,3.3-4.3,6.2L462.2,408.1z M330.9,505.4c25.3,7.5,37.7-2.2,49.1-23.4c29.2-54.5,69.3-101,115.4-142.2
			c27.3-24.4,56.3-46.7,87.9-65.3c16.8-9.9,2.6-20.1-0.1-28.5c-3-9.5-10.3-0.8-14.7,1.8c-41.2,23.6-78.9,52-113,85
			C403.8,382.8,361.7,439.8,330.9,505.4z"/>
		<path class="st7" d="M1302.5,439.5c-23.1,0-47.4,4.4-69-1.2c-21.3-5.6-32.2-29.8-49.4-44c-24.3-20.1-48.2-40.8-76.2-55.7
			c-11.4-6-13.1-13.4-8.7-24.9c11.3-29.2,21.8-58.8,32.7-88.2c4.4-12,11-15.1,23.2-8.5c90,48.5,163.5,115.2,221.3,199.2
			c3.8,5.5,8.1,11.5,3.9,18.6c-3.9,6.6-10.9,4.8-16.9,4.8C1343.1,439.7,1322.8,439.6,1302.5,439.5
			C1302.5,439.6,1302.5,439.5,1302.5,439.5z M1348.5,415.7c-51.8-71.6-114.9-128.1-190.2-171.1c-2.5-1.4-4.9-4.6-8.7-1
			c-8.6,8.2-7,26.1,3.4,32.5c52.3,32,98.8,71.2,136.7,119.2C1305.9,415.8,1322.8,420.9,1348.5,415.7z M1276.8,414.5
			c-39.9-48.5-85.5-87.8-137.2-120.2c-2.2-1.4-4.8-3.3-7.7-1.5c-8.3,5.1-8.4,27.5,0,33.1c30.9,20.7,61.2,42.4,85.7,70.4
			C1233.6,414.4,1251.2,421,1276.8,414.5z"/>
		<path class="st7" d="M797.7,267.4c-22.2,1.6-24.4-0.4-26.9-23.3c-2-17.8-4.5-35.6-6.6-53.5c-0.5-4.4-1.4-9.7,0.4-13.3
			c9.9-19.6,29.8-10.9,45.2-14.3c9.1-2,15.4,5.1,16.6,15.1c2.9,22.8,6.2,45.6,8.7,68.4c0.9,8.7-3.9,14.5-12.4,17.6
			C814.4,267.2,806,266.4,797.7,267.4z M811.9,233.5c-1.9-13.3-3.8-26.5-5.6-39.8c-0.9-6.4-1-11.3-10.8-9.4
			c-9.2,1.8-10.4,4.8-8.8,13.2c2.4,12.6,3.8,25.4,4.5,38.2c0.5,8.2,2,11.6,11.5,11.1C813.2,246.2,812.6,240.6,811.9,233.5z"/>
		<path class="st7" d="M876.4,238c1.5-20,2.8-38.5,4.4-57.1c1.3-14.4,8.7-20.2,23.8-19.4c40.8,2.3,42.7,4.2,38.5,45.1
			c-1.3,12.9-1.4,25.9-2.9,38.8c-2.1,17.6-8.3,22.5-25.6,21.2c-8.4-0.6-16.8-1.8-25.1-3.3C873.1,260.3,876.3,247.7,876.4,238z
			 M921.6,195.8c2.4-9.6,0.9-13.8-6.1-13.5c-5.4,0.2-12.8-3.6-13.4,7c-0.8,14.6-1.9,29.1-3.7,43.6c-0.8,6.7-2.3,11.9,7.4,12.8
			c8.2,0.8,12.7-0.5,13-9.9C919.4,221.2,920.8,206.7,921.6,195.8z"/>
		<path class="st7" d="M651.3,211.4c0.2-8,3.1-13.2,9.6-15.8c3.6-1.5,7.4-2.5,11.1-3.8c30.1-10.9,48.5,2.3,47.7,34.6
			c-0.2,7.3-6,11.8-11,16.3c-5,4.5-10.2,8.9-15.1,13.5c-3.1,2.9-4.3,6.6-2.4,10.7c2.3,5,6.6,3.5,10.2,2.4c5.9-1.7,11.7-3.8,17.4-6.1
			c7.8-3.1,12.4-3.4,16.1,6.8c4.4,11.9-4.8,10.8-9.7,12.6c-12.6,4.6-25.9,7.4-38.4,12.2c-7.6,2.9-10.2,1.3-11.1-6.2
			c-0.3-2.7-1.3-5.6-2.6-8c-11.2-19.4-4.6-33.5,12.6-45.1c6.9-4.7,14.1-9.9,7.5-20.1c-1.9-3-1.1-8.6-6.9-7.1
			c-4.5,1.2-11.7,0.5-11.4,7.2c0.4,12.5-10,11.7-15.7,11.1C651.4,225.8,653,216.3,651.3,211.4z"/>
		<path class="st7" d="M1044.2,188c7.3,0.5,13.9,3.3,8.3,16.3c-4.6,10.7-7,22.4-10.5,33.6c-2.1,6.9-6.5,14.4,6.3,15.6
			c4.5,0.4,5.1,4.4,3.3,7.6c-2,3.4-0.9,11.2-7.1,9.3c-11.3-3.5-13.5,3.2-15.4,11.2c-1.3,5.5-2.5,9.8-10,6.5
			c-5.4-2.4-14.6-2.3-10.4-11.1c7.3-15.4-2.5-17.2-13.1-20.7c-6.9-2.3-18-0.3-19.5-9.5c-1.4-9,5.4-16,13-21.9
			c13.3-10.3,25.9-21.6,38.6-32.7C1031.6,189,1035.3,185.7,1044.2,188z M1002,238.3c17.4,7.9,17.4,7.9,22.4-19.5
			C1016.5,225.6,1009.9,231.4,1002,238.3z"/>
		<path class="st8" d="M853.3,376.6c46.5-0.4,92,5.8,136.3,20.1c9,2.9,12.3,7.4,10.5,17.4c-5.3,31.1-10.2,62.2-14,93.5
			c-1.4,11.5-6.1,19.7-14.2,27.4c-25.4,24-50.4,48.4-75.3,72.9c-5.1,5-9.7,7.5-17.7,6.3c-40.1-6-80.3-11.8-121-12.4
			c-15-0.2-25.4-4.5-32.1-19c-5.8-12.7-12.5-25.8-21.7-36.1c-23.5-26.3-18.9-55-9.2-84c5.7-17,14.2-33.1,21-49.8
			c3.2-7.8,9.6-10.6,16.6-13.1C771.5,385.3,811.9,378.8,853.3,376.6z"/>
		<path class="st8" d="M979.8,1042.7c-24.9,7.5-39-5.1-49.7-28c-9.3-20-16.4-40.7-25.3-60.8c-2.9-6.6-0.6-11.7,3.8-16.9
			c28.5-34.5,52.6-71.8,70.7-112.8c4.8-10.8,13.5-14.4,24.3-14.9c11.2-0.6,27.9-6,32.2-0.9c7.6,9-7,18.4-11,28.1
			c-10,24.5,2.3,41.8,28.8,39.3c27.5-2.6,55-5,82.4-8.2c9.3-1.1,13.1,2.2,15,11.1c4,18.4,2.1,34.7-8.5,51.3
			c-13.3,20.8-26,42-39.9,62.5c-23.5,34.8-57,47-96.1,49.9C998.1,1043.2,989.6,1042.7,979.8,1042.7z"/>
		<path class="st9" d="M807,780.6c8.4-29.2,17.1-57.6,24.7-86.3c3.2-12.1,7.3-19.8,22.1-18.2c12.7,1.3,25.5-4.2,39.4-1.8
			C875,737.7,856.8,800.8,839,863.9c-1.9,6.7-5,8.8-11.6,9.3c-16.8,1.3-33.7,2.6-50.3,5.5c-11.1,2-13.7-2.7-14.9-12
			c-3.5-25.1-7.4-50-11.3-75c-0.5-3-1.5-6-5.2-8.9c-8,28.3-16.7,56.4-23.9,85c-2.9,11.3-7.6,17.6-19.7,18c-13.9,0.5-27.7,1.9-42.9,3
			c18.5-64.6,36.7-127.6,54.5-190.6c1.7-6,4.7-8.4,10.4-8.9c9-0.9,17.9-1.9,26.9-2.8c38.9-4.1,38.7-4.1,44,34.8
			c2.5,18.4,5.7,36.6,8.7,54.9C803.9,777.5,805.5,778.7,807,780.6z"/>
		<path class="st9" d="M1323.3,726.4c-6.8,23.5-13.9,46.8-20.2,70.4c-8.8,32.8-8.5,33-42.8,35.2c-7.2,0.5-14.5,0.1-23.5,0.1
			c7.6-26.1,15-51.7,22.4-77.4c10.4-36.2,20.8-72.3,30.8-108.6c2.4-8.8,6.3-13,16.2-13.3c16.3-0.5,32.6-2.4,48.8-4.5
			c9.1-1.2,11.4,2.4,12.6,10.8c4.1,28.9,9,57.7,16.4,86.9c7.5-26.1,16.6-51.8,22-78.3c4-20.1,13.7-27.3,33.4-28.3
			c31.7-1.7,31.7-2.7,23.3,27c-14.8,52.4-30.1,104.6-44.5,157.1c-3,11.1-8.5,15.4-19.8,15.7c-15.2,0.4-30.3,2.1-45.5,3.8
			c-8.1,0.9-11.6-0.8-12.9-10.1c-3.9-28.7-9.2-57.2-14-85.8C1325.1,726.8,1324.2,726.6,1323.3,726.4z"/>
		<path class="st9" d="M272.5,925.9c7.3-18.5,17.9-33,26.8-48.5c3.3-5.8,8.6-4.2,13.4-4.7c28-3,56-6.3,84.1-8.5
			c9.6-0.8,12.3-4.4,12.2-13.6c-0.2-11.3-7.1-9.1-13.8-8.4c-11.8,1.2-23.6,2.1-35.3,3.8c-36,5.2-45.6-13.9-51.9-41.5
			c-5.4-23.9,14-63.5,34.7-76.6c9.3-5.9,19.8-3.9,29.7-5c43.1-4.8,86.2-8.7,131.6-13.1c-8.7,19.7-20.1,35.3-31.7,50.8
			c-3.7,5-8.9,3.8-13.8,4.3c-26.4,2.4-52.7,5-79.1,7.2c-9.7,0.8-14.9,6.1-14.1,15.1c0.8,9.3,8.9,8.7,15.7,8.1
			c14.6-1.3,29.2-2.7,43.7-4.8c15-2.2,24.7,4.2,31.6,17c16.1,29.5,8.5,74.2-16.6,96.3c-7.1,6.3-15.5,8.5-24.7,9.3
			C368.3,917.1,321.8,921.4,272.5,925.9z"/>
		<path class="st8" d="M737.7,951.1c40,7.3,80.6,7.9,121.1,9c8.9,0.2,13.5,4,16.1,11.7c8.7,25.1,19.5,49.2,32.8,72.2
			c4.6,7.9,2.2,12-4.8,16.3c-26.5,16.5-54.6,29-85.1,36.4c-8,1.9-14.5-1.6-21-4.4c-33.2-14.5-63.8-33.4-93.1-54.8
			c-8.2-6-10.9-11.8-7.6-22.7c5.5-17.9,11.8-35.1,20.4-51.7C721.2,954.2,726.3,947.7,737.7,951.1z"/>
		<path class="st9" d="M510.3,757.5c7.6-16.5,17.4-29.4,26.4-43c4.1-6.3,9.9-9,16.9-9.6c42.6-4,85.3-7.8,127.9-12
			c9-0.9,12.2,1.1,6.9,9.5c-7.5,11.9-14.9,23.9-22.9,35.4c-7.5,10.8-19.8,9.6-30.7,9.8c-8.6,0.1-13.4,2.8-15.7,11.3
			c-7.7,28.5-15.7,56.9-23.9,86.5c18.2-1.9,35.4-3.7,52.7-5.5c-4.8,31.8-27.6,53.8-57.4,56.4c-40.4,3.5-80.7,7.3-123.1,11.2
			c8.1-19.1,19.6-34.1,30.7-49.3c4.4-6,11.2-5.4,17.1-4.8c17.4,1.7,24.9-6.4,28.6-22.9c5.7-25.1,13.6-49.6,20.8-75.3
			C546.5,754.4,529.4,760,510.3,757.5z"/>
		<path class="st9" d="M1227.2,785.2c-7.4,18.6-17.5,33.9-29.1,48.4c-3,3.8-6.7,5.2-11.6,5.6c-46.5,4.2-93.1,8.6-142.1,13.2
			c8.4-20.2,19.8-37.4,34-51.7c5-5.1,17.2-3.2,26.1-4.2c6-0.6,10.4-1.7,12.3-8.8c7.8-28.7,16.2-57.1,24.5-86.4
			c-18.5-3.5-35.5,3.1-54,2.1c7.4-18.7,18.9-33.2,29.7-48.2c2.5-3.4,6-4.8,10.2-5.2c47-4.4,94-8.8,142.5-13.4
			c-7.5,18.5-17.3,34-29.1,48.3c-8,9.6-20.1,5.1-30.1,7.8c-5,1.3-10.8-1.1-13,7.2c-7.7,29.3-16.4,58.3-24.8,87.9
			C1191.5,791.5,1208.5,784.9,1227.2,785.2z"/>
		<path class="st9" d="M1086.8,654.1c-7.1,17.8-16.7,32.1-26.9,46.2c-4,5.5-9,7.6-15.7,8.2c-21.3,1.7-42.6,4.6-64,5.6
			c-14.2,0.7-23,5.4-25.1,20.5c-1.2,8.7-4.3,17.1-5.6,28c20.6-37.4,57.2-23.9,89.7-28.8c-13.2,16.4-25.4,33.8-40,48.9
			c-7.4,7.7-20.2,5.3-30.8,6c-28,1.8-28,1.7-36,27.7c-3.6,11.8-7.7,23.5-10.4,35.5c-2.2,9.8-6.9,14.1-17.1,14.3
			c-10.6,0.2-21.3,1.9-31.9,3.4c-8.7,1.2-12.5-0.4-9.6-10.5c17.1-58.2,33.9-116.4,50.3-174.8c3-10.5,7.6-14.8,19.3-15.7
			C983.6,664.6,1034,659.2,1086.8,654.1z"/>
		<path class="st8" d="M545.2,681.7c-8.5,1.7-7.8-4.2-6.7-9.1c6.3-28.5,13-57,19.4-85.5c1.1-5,3.9-7.6,8.5-9.4
			c27.6-11.3,55.3-22.5,82.6-34.5c8-3.5,12.2-1.6,16.4,5.5c11.2,18.9,22.5,37.7,34.5,56.2c5.8,9,4.4,16.3,1.7,26.4
			c-8.5,32.4-29.5,41.8-60.5,42.4C609.1,674.3,577.2,678.9,545.2,681.7z"/>
		<path class="st10" d="M1020.1,512.7c4.2-29,8.2-58,12.8-86.9c2.3-14.2,11-5.8,16.2-3c40.4,21,76.1,48.3,106.5,82.4
			c9.4,10.5,18.1,21.6,27,32.6c2.7,3.4,6.9,7.5,1.7,11.6c-10.9,8.5-17.3,20.7-26.3,30.7c-5.9,6.5-11.6,6.8-19.4,2.7
			c-35.5-18.5-71.3-36.4-106.8-54.8C1025.7,524.8,1016.7,523.1,1020.1,512.7z"/>
		<path class="st10" d="M651.1,1018.1c-22.5-2.3-43.4-8.4-63-18.9c-6.2-3.3-9.1-9.8-11.8-16c-7-16-13.3-32.2-21-47.9
			c-4.5-9.1-1.6-12.3,7.2-13.2c15.1-1.5,30.2-3.2,45.3-4.4c9.1-0.7,18-0.9,25-7.9c2.9-2.9,6.9-4.7,10.7-2.2
			c8.8,5.6,18.4,3.9,27.9,3.7c17.4-0.2,26.1,13.3,18.3,29c-10.8,21.6-21.7,43.2-26.9,67.1C661.5,1013.9,659.2,1019.7,651.1,1018.1z"
			/>
		<path class="st10" d="M1100.6,633.8c-53.8-2.1-106.7,6.2-159.8,10.7c-4.5,0.4-9,1-13.5,1.1c-4.1,0.1-8-0.8-9.4-5.4
			c-1.2-3.8,1.2-6.1,3.8-8.6c24.7-24,49.4-47.9,73.7-72.2c6.4-6.4,11.9-5.8,19.4-1.9c36,18.7,72.4,36.8,108.5,55.2
			c4.3,2.2,10.8,4.1,9.5,10c-1.1,5.3-7.7,2.6-11.8,4C1114.3,628.9,1107.4,631.4,1100.6,633.8z"/>
		<path class="st11" d="M978,1076.4c28.6,3,56.1-3.2,83.4-10.1c8-2,12.8-1.1,16,6.9c3.2,7.9-2.9,9.9-7.5,12.7
			c-73.3,44.1-152.5,62.9-237.8,55.3c-3.6-0.3-8.8,1-9.7-4.4c-0.9-5.6,3.6-7.9,8.2-8.9c38.1-8.2,71.5-26.9,104.3-46.8
			C948.7,1072.8,963.8,1078.9,978,1076.4z"/>
		<path class="st11" d="M546.3,542.1c30.1-47,71-81.8,121.3-112.1c-5.8,25.9-10.7,47.7-15.3,69.5c-1.1,5.2-5,7.4-9.1,9.2
			c-27.9,12-55.9,23.8-83.9,35.4C555.9,545.5,551.7,546.3,546.3,542.1z"/>
		<path class="st12" d="M1221.6,907.3c0.9,13.6-6.7,20.7-10.8,28.7c-22.5,44.8-54.2,82.5-92.2,114.8c-3.2,2.7-7,11.3-13.4,3.5
			c-4.9-6-2.8-11.3,2.1-16.3c29.3-30.1,51.7-64.9,70.3-102.3C1186.4,917.8,1206.3,918.9,1221.6,907.3z"/>
		<path class="st12" d="M898.7,890.6c-12.5,25.1-27.5,37.4-55.4,34.9c-33.6-3-67.5-2.2-101-8.1c-6.4-1.1-16.5,0.4-16.6-7.4
			c-0.1-5.5,7.6-11.7,12.8-16.5c6-5.6,8.5,2.4,12.1,4.7c7.1,4.6,14.4,5.4,22.6,4.5c37.4-4.2,74.8-8.1,112.3-12.1
			C889.2,890.3,893.1,890.6,898.7,890.6z"/>
		<path class="st12" d="M860,646.4c-8.6,9.7-17.3,5.7-24.7,7.5c-10.6,2.6-16,13.2-23.9,16.3c-6.2,2.4-13.8-12.6-25.7-10.9
			c-16.7,2.3-33.7,2.6-50.3,5c-10.6,1.5-10-2.9-7.7-10.3c4.8-15.2,12.2-22.5,30.6-19.2c27,4.8,54.7,5.7,82.1,8.4
			C846.4,643.8,852.3,645.1,860,646.4z"/>
		<path class="st13" d="M1252.1,566.2c-17.6,38.1-46.5,56.5-88.6,48.5C1182,575.8,1203,564.1,1252.1,566.2z"/>
		<path class="st8" d="M756.4,1112.8c1.5,0.5,3.1,0.9,4.6,1.4c-0.3,4.4,0.4,10.7-6.4,9c-9.7-2.5-20.4-4.9-27.9-10.8
			c-10.7-8.5-21.2-12.6-34.4-10.5c0,0-0.5-0.2-0.5-0.2c1.3-3.7-0.4-5.4-3.1-8.2c-12.1-11.9-28-16.6-42.6-23.8
			c-6-3-9.4-12.3-18.4-8.5l0.9-0.4c0,0-0.9,0.2-0.9,0.2c-0.4-5.9,0.4-9.1,8.1-6.8c14.9,4.3,30.1,7.4,45.2,10.9l-0.3,1
			c0,0,0.5-0.9,0.5-0.9c2.4,18.2,16.3,19.2,30.2,20.5c0,0-0.2,0-0.2,0c1.4,5.4,5.9,6.3,10.4,7c0,0,0-0.3,0-0.3
			c-0.7,10.8,7.3,7,12.7,7.7l-0.1-0.1c2.4,6.3,7.5,7.3,13.4,7l0.1,0C748.1,1112.8,751.5,1114,756.4,1112.8z"/>
		<path class="st14" d="M524.3,582.2c-7.2,32.5-14.4,65.1-21.6,97.6c-1.7,7.4-7.6,7.2-13.3,7c-5.6-0.2-6.4-3.9-5.3-8.2
			C492.5,644.6,503,611.5,524.3,582.2z"/>
		<path class="st14" d="M692.3,1101.8c13.2-2.1,23.8,2,34.4,10.5c7.5,6,18.3,8.3,27.9,10.8c6.8,1.8,6.1-4.6,6.4-9
			c6.2,2.4,12.5,4.7,18.7,7.3c4.1,1.7,9.4,3.2,7.3,9.3c-1.7,5-6.8,3.9-10.2,3C747.6,1125.9,717.9,1119.2,692.3,1101.8z"/>
		<path class="st14" d="M1184,871.8c-1.5-5.4-0.4-8.2,4-8.6c9.3-0.8,17-5.1,24.1-10.8c4.5-3.7,8.3-1.9,11.7,1.8
			c4.6,5,0.7,8.2-2.8,11c-6.6,5.2-13.3,10.3-20.2,15c-4,2.7-8.4,7.6-13.5,4.4C1182.6,881.5,1185.5,874.9,1184,871.8z"/>
		<path class="st14" d="M627.7,1061.2c9.1-3.8,12.4,5.5,18.4,8.5c14.5,7.2,30.5,11.9,42.6,23.8c2.7,2.7,4.4,4.5,3.1,8.2
			C668.2,1091.7,645.4,1080.5,627.7,1061.2z"/>
		<path class="st14" d="M680.9,1065.1c-15.1-3.6-30.3-6.6-45.2-10.9c-7.7-2.2-8.5,0.9-8.1,6.8c-6-1.4-11.6-3.4-14.9-11.1
			c19.1-3,36.9,1.6,54.8,3.7C673.3,1054.3,678.8,1058.6,680.9,1065.1z"/>
		<path class="st14" d="M711.2,1085.7c-13.8-1.2-27.8-2.3-30.2-20.5C692.6,1069.8,703,1076.1,711.2,1085.7z"/>
		<path class="st14" d="M734.2,1100.2c-5.4-0.7-13.5,3-12.7-7.7C726.8,1093.2,731.3,1095.3,734.2,1100.2z"/>
		<path class="st14" d="M747.5,1107.1c-5.9,0.4-11-0.7-13.4-7C739.4,1100.8,744.1,1102.6,747.5,1107.1z"/>
		<path class="st14" d="M721.4,1092.7c-4.5-0.8-9-1.6-10.4-7C715.8,1086.1,719.6,1088,721.4,1092.7z"/>
		<path class="st14" d="M756.4,1112.8c-5,1.3-8.3,0-8.9-5.6C751.7,1107.1,754.5,1109.2,756.4,1112.8z"/>
		<path class="st5" d="M470.5,1179.2c-6-3.9-13-7.4-12.9-14.5c0.1-5.2,6.5-12,10.7-11.2c6.7,1.2,13.7,7.1,13.7,14.8
			C482,1173.6,476.1,1177.2,470.5,1179.2z"/>
		<path class="st5" d="M497.6,1150.8c-6.3-2.8-12.5-6.7-12.9-13.7c-0.3-4.9,5-9.4,9.9-9.7c7.5-0.5,12.9,6,14,11.9
			C509.4,1144.1,502.8,1148,497.6,1150.8z"/>
		<path class="st1" d="M1283,1161.4c-5.5,3.8-10.4,7.4-15.6,10.7c-6,3.8-7.8-2.5-10.6-5.1c-7.8-7.2-14.9-15.2-22.8-22.5
			c-6.1-5.6-9.1-9.8-1.4-17.4c7.5-7.4,12.2-7.4,18.9,0.3c7,8,15,15.1,22.5,22.8C1276.3,1152.5,1278.1,1155.3,1283,1161.4z"/>
		<path class="st5" d="M757.8,1276.6c-3,13.1-5.7,24.6-8.1,36.1c-1.8,8.3-4.6,12.3-14.8,9c-8.7-2.7-12.7-5-9.7-14.7
			c3.4-11.2,6.1-22.8,8-34.3c1.3-8.1,4-10.6,12.2-8C752.5,1267,760.6,1267.3,757.8,1276.6z"/>
		<path class="st5" d="M1069.3,1249.1c5.5,6.7,8.9,10.1,11.5,14.2c1.7,2.8,6.7,5.6,2.1,9.7c-1.6,1.4-3.9,2.7-5.9,2.7
			c-5.5,0-5.1-5.2-6-8.6C1069.8,1262.6,1070,1257.7,1069.3,1249.1z"/>
		<path class="st5" d="M570.3,1207.5c-2.6,7.2,0.7,16.8-8.9,19.5c-1.6,0.4-6-2.8-6.2-4.6C554.3,1212.3,564.4,1211.8,570.3,1207.5z"
			/>
		<path class="st13" d="M330.9,505.4c30.8-65.6,72.9-122.7,124.6-172.7c34.1-33,71.8-61.4,113-85c4.4-2.5,11.7-11.2,14.7-1.8
			c2.7,8.4,16.9,18.6,0.1,28.5c-31.6,18.6-60.5,40.9-87.9,65.3C449.3,381,409.2,427.5,380,482C368.6,503.2,356.2,512.9,330.9,505.4z
			"/>
		<path class="st11" d="M405.4,506.6c-12.8,2-11.9-4.1-7.2-12.3c11.7-20.3,24.6-39.9,39.4-58.1c5.2-0.2,9.2-1.4,7.2-8
			c0,0,0.1,0.2,0.1,0.2c7.5-0.6,7.8-6.2,8.2-11.7c0,0,0.7-0.8,0.7-0.8c2.7-0.4,5-1.3,5-4.6c0,0,0,0.2,0,0.2c2.3-0.1,3.4-1.2,3.5-3.5
			c0,0-0.3,0.2-0.3,0.2c3.8-0.5,4.3-3.2,4.3-6.2l0-0.1c3.1-0.1,5.9-0.5,5.6-4.7l0.7,1.1c0,0-0.9-1-0.9-1c7.8-0.3,11.4-6.4,14.5-12
			c4.7-8.4,11.4-11.5,20.5-10.6c1.2,2.4,2.5,4.7,3.7,7.1c0.1,7.6-3.1,13.1-9,18.3c-6.6,5.9-15.5,11.1-14.7,22.2
			c-1.2,1.2-2.3,2.4-3.5,3.6c-10.3-1.5-7.4,8.1-10.5,12.6c0,0-0.4,0.4-0.4,0.4c-2.8,0.5-5.3,1.2-4.8,4.9l-0.9-0.5
			c0,0,0.9,0.3,0.9,0.3c-6.8,3-10.1,8.7-11.6,15.7c0,0-0.1,0.1-0.1,0.1c-13.6,2.4-14,14-16.6,24c0,0,0,0,0,0
			c-3.7,0.1-8.4-0.9-9.7,3.9C426.3,500.1,415.5,502.8,405.4,506.6z"/>
		<path class="st8" d="M510.5,382.1c-1.2-2.4-2.5-4.7-3.7-7.1c1.2-5.6,2.4-11.2,3.6-16.7l0,0c11.4-2.6,20.3-8.1,23.7-20.1
			c0,0,0.3-0.2,0.3-0.2c11.1-5.3,24-8.2,29-21.7l1.1,0.2c0,0-1-0.3-1-0.3c5.3,1.9,7.6-0.5,7.8-5.6c1.5-0.9,2.9-1.9,4.4-2.8
			c3.5-0.5,7.9,0.6,8.3-5c0,0-0.1,0.3-0.1,0.4c15.4-2.6,19.5,4.1,14.4,23.8c0,0-0.9,0.8-0.9,0.8c-0.7,0.2-1.3,0.6-1.7,1.2
			c-1.4,0.8-2.8,1.6-4.2,2.4c-4.9,0-8.2,2.3-9.9,6.9l0,0c-7.4-0.4-13.1,1.4-13.6,10.2l-0.7,0.7c0,0-0.9-0.1-0.9-0.1
			c-14.9,3.7-26.8,11.2-32.3,26.5c0,0,0,0,0,0C525.7,375.6,519.4,383.3,510.5,382.1z"/>
		<path class="st14" d="M510.5,382.1c8.9,1.2,15.1-6.6,23.6-6.9c-15.8,15.8-31.5,31.6-47.3,47.4c-0.7-11.1,8.1-16.3,14.7-22.2
			C507.4,395.2,510.6,389.7,510.5,382.1z"/>
		<path class="st14" d="M510.4,358.3c-1.2,5.6-2.4,11.2-3.6,16.7c-9.1-0.9-15.8,2.2-20.5,10.6c-3.1,5.5-6.7,11.6-14.5,12
			C481.7,381.6,494.5,368.4,510.4,358.3z"/>
		<path class="st14" d="M598.2,326.8c5.1-19.7,1.1-26.4-14.4-23.8c3.4-5.4,8.7-10.7,14.6-8.4c7.9,3,8,12.6,9.8,19.8
			C610.3,322.2,604.5,325,598.2,326.8z"/>
		<path class="st14" d="M405.4,506.6c10.1-3.7,20.8-6.4,24.3-18.9c1.3-4.8,5.9-3.8,9.7-3.9C434,500.2,425.5,511.9,405.4,506.6z"/>
		<path class="st14" d="M534.1,375.2c5.5-15.3,17.3-22.7,32.3-26.5C557.2,359.4,546.1,367.9,534.1,375.2z"/>
		<path class="st14" d="M563.4,316.2c-5,13.5-17.9,16.4-29,21.7C542.4,328.4,551.9,320.9,563.4,316.2z"/>
		<path class="st14" d="M534.1,338.2c-3.4,12-12.3,17.5-23.7,20.1C517.2,350.1,523.9,342.1,534.1,338.2z"/>
		<path class="st14" d="M439.4,483.7c2.6-10,3-21.6,16.6-24C452.1,468.9,446.3,476.7,439.4,483.7z"/>
		<path class="st14" d="M568,348.1c0.4-8.8,6.2-10.6,13.6-10.2C578.3,343,574.1,346.7,568,348.1z"/>
		<path class="st14" d="M472.9,438.8c3.1-4.5,0.2-14.1,10.5-12.6C481.5,431.8,478.1,436.1,472.9,438.8z"/>
		<path class="st14" d="M456.1,459.7c1.5-7,4.7-12.7,11.6-15.7C466,450.8,461.8,455.8,456.1,459.7z"/>
		<path class="st14" d="M453,416.8c-0.4,5.5-0.7,11.1-8.2,11.7C445.8,423.3,448.2,419.2,453,416.8z"/>
		<path class="st14" d="M444.8,428.3c2,6.6-2,7.8-7.2,8C438.4,432.2,440.9,429.6,444.8,428.3z"/>
		<path class="st14" d="M581.6,337.9c1.7-4.6,5-6.9,9.9-6.9C589.3,335,585.8,337,581.6,337.9z"/>
		<path class="st14" d="M571.2,310.5c-0.2,5.2-2.4,7.5-7.8,5.6C564.9,312.7,567.5,310.8,571.2,310.5z"/>
		<path class="st14" d="M583.9,302.7c-0.4,5.6-4.9,4.5-8.3,5C577.2,304,580.4,303,583.9,302.7z"/>
		<path class="st14" d="M458.7,411.4c0,3.4-2.3,4.2-5,4.6C454.4,413.5,455.9,411.7,458.7,411.4z"/>
		<path class="st14" d="M471.9,397.5c0.3,4.2-2.5,4.5-5.6,4.7C467.1,399.4,468.9,397.8,471.9,397.5z"/>
		<path class="st14" d="M466.2,402.2c0,3-0.5,5.7-4.3,6.2C462.2,405.5,463.5,403.4,466.2,402.2z"/>
		<path class="st14" d="M467.6,444.2c-0.5-3.7,2.1-4.4,4.8-4.9C471.8,441.8,470.2,443.5,467.6,444.2z"/>
		<path class="st14" d="M595.6,328.7c0.5-0.6,1-0.9,1.7-1.2c0,0-0.4,1.4-0.4,1.4L595.6,328.7z"/>
		<path class="st14" d="M462.2,408.1c-0.1,2.3-1.2,3.4-3.5,3.5C459.8,410.5,461,409.3,462.2,408.1z"/>
		<path class="st13" d="M1348.5,415.7c-25.7,5.2-42.6,0.1-58.8-20.4c-37.9-47.9-84.4-87.2-136.7-119.2c-10.5-6.4-12.1-24.4-3.4-32.5
			c3.8-3.6,6.3-0.4,8.7,1C1233.6,287.6,1296.7,344.1,1348.5,415.7z"/>
		<path class="st6" d="M1276.8,414.5c-25.6,6.6-43.2-0.1-59.1-18.2c-24.5-28-54.9-49.7-85.7-70.4c-8.4-5.6-8.3-28.1,0-33.1
			c2.9-1.8,5.4,0.1,7.7,1.5C1191.3,326.7,1236.9,366,1276.8,414.5z"/>
		<path class="st13" d="M811.9,233.5c0.7,7.1,1.4,12.7-9.3,13.3c-9.5,0.5-11.1-2.9-11.5-11.1c-0.7-12.8-2.1-25.6-4.5-38.2
			c-1.6-8.4-0.4-11.3,8.8-13.2c9.9-1.9,10,3,10.8,9.4C808.1,207,810,220.2,811.9,233.5z"/>
		<path class="st13" d="M921.6,195.8c-0.8,10.9-2.2,25.5-2.8,40.1c-0.4,9.4-4.8,10.6-13,9.9c-9.7-0.9-8.2-6-7.4-12.8
			c1.8-14.5,2.9-29.1,3.7-43.6c0.6-10.6,7.9-6.8,13.4-7C922.6,182,924,186.2,921.6,195.8z"/>
		<path class="st13" d="M1002,238.3c7.9-6.9,14.5-12.6,22.4-19.5C1019.4,246.2,1019.4,246.2,1002,238.3z"/>
	</g>
</g>
</svg>
