<?xml version="1.0" encoding="utf-8"?>
<!-- Generator: Adobe Illustrator 24.2.0, SVG Export Plug-In . SVG Version: 6.00 Build 0)  -->
<svg version="1.1" id="Capa_5" xmlns="http://www.w3.org/2000/svg" xmlns:xlink="http://www.w3.org/1999/xlink" x="0px" y="0px"
	 viewBox="0 0 560 555" style="enable-background:new 0 0 560 555;" xml:space="preserve">
<style type="text/css">
	.st0{clip-path:url(#SVGID_2_);fill:url(#SVGID_3_);}
	.st1{fill:#0F3756;}
	.st2{fill:#98154C;}
	.st3{fill:#929497;}
	.st4{fill:#FFFFFF;}
	.st5{fill-rule:evenodd;clip-rule:evenodd;fill:#FFFFFF;}
	.st6{clip-path:url(#SVGID_5_);fill:url(#SVGID_6_);}
	.st7{opacity:0.5;}
	.st8{clip-path:url(#SVGID_8_);}
	.st9{clip-path:url(#SVGID_10_);fill:url(#SVGID_11_);}
	.st10{clip-path:url(#SVGID_8_);fill:none;stroke:#A6A8AB;stroke-width:1.417;stroke-miterlimit:10;}
	.st11{opacity:0.2;}
	.st12{clip-path:url(#SVGID_13_);fill-rule:evenodd;clip-rule:evenodd;fill:#BE1E2D;}
	.st13{filter:url(#Adobe_OpacityMaskFilter);}
	.st14{enable-background:new    ;}
	.st15{mask:url(#SVGID_14_);}
	.st16{clip-path:url(#SVGID_18_);fill-rule:evenodd;clip-rule:evenodd;fill:#BE1E2D;}
	.st17{opacity:0.7;}
	.st18{clip-path:url(#SVGID_20_);fill-rule:evenodd;clip-rule:evenodd;fill:#98154C;}
	.st19{filter:url(#Adobe_OpacityMaskFilter_1_);}
	.st20{clip-path:url(#SVGID_22_);fill:url(#SVGID_24_);}
	.st21{clip-path:url(#SVGID_22_);mask:url(#SVGID_23_);fill:url(#SVGID_25_);}
	.st22{opacity:0.4;}
	.st23{filter:url(#Adobe_OpacityMaskFilter_2_);}
	.st24{clip-path:url(#SVGID_27_);}
	.st25{clip-path:url(#SVGID_27_);mask:url(#SVGID_28_);}
	.st26{clip-path:url(#SVGID_32_);}
	.st27{filter:url(#Adobe_OpacityMaskFilter_3_);}
	.st28{clip-path:url(#SVGID_34_);fill:url(#SVGID_35_);}
	.st29{clip-path:url(#SVGID_34_);fill:url(#SVGID_36_);}
	.st30{filter:url(#Adobe_OpacityMaskFilter_4_);}
	.st31{mask:url(#SVGID_37_);}
	.st32{clip-path:url(#SVGID_41_);}
	.st33{filter:url(#Adobe_OpacityMaskFilter_5_);}
	.st34{clip-path:url(#SVGID_43_);fill:url(#SVGID_44_);}
	.st35{clip-path:url(#SVGID_43_);fill:url(#SVGID_45_);}
	.st36{filter:url(#Adobe_OpacityMaskFilter_6_);}
	.st37{mask:url(#SVGID_46_);}
	.st38{clip-path:url(#SVGID_50_);fill:#3B2314;}
	.st39{filter:url(#Adobe_OpacityMaskFilter_7_);}
	.st40{clip-path:url(#SVGID_52_);}
	.st41{clip-path:url(#SVGID_52_);mask:url(#SVGID_53_);}
	.st42{clip-path:url(#SVGID_57_);}
	.st43{filter:url(#Adobe_OpacityMaskFilter_8_);}
	.st44{clip-path:url(#SVGID_59_);fill:url(#SVGID_60_);}
	.st45{clip-path:url(#SVGID_59_);fill:url(#SVGID_61_);}
	.st46{opacity:0.6;}
	.st47{filter:url(#Adobe_OpacityMaskFilter_9_);}
	.st48{clip-path:url(#SVGID_63_);}
	.st49{clip-path:url(#SVGID_63_);mask:url(#SVGID_64_);}
	.st50{clip-path:url(#SVGID_68_);fill:#754C28;}
	.st51{filter:url(#Adobe_OpacityMaskFilter_10_);}
	.st52{mask:url(#SVGID_69_);}
	.st53{clip-path:url(#SVGID_73_);}
	.st54{filter:url(#Adobe_OpacityMaskFilter_11_);}
	.st55{clip-path:url(#SVGID_75_);fill:url(#SVGID_76_);}
	.st56{clip-path:url(#SVGID_75_);fill:url(#SVGID_77_);}
	.st57{opacity:0.3;}
	.st58{filter:url(#Adobe_OpacityMaskFilter_12_);}
	.st59{clip-path:url(#SVGID_79_);}
	.st60{clip-path:url(#SVGID_79_);mask:url(#SVGID_80_);}
	.st61{clip-path:url(#SVGID_84_);fill:#8A5D3B;}
	.st62{filter:url(#Adobe_OpacityMaskFilter_13_);}
	.st63{clip-path:url(#SVGID_86_);}
	.st64{clip-path:url(#SVGID_86_);mask:url(#SVGID_87_);}
	.st65{clip-path:url(#SVGID_91_);fill:#8A5D3B;}
	.st66{filter:url(#Adobe_OpacityMaskFilter_14_);}
	.st67{clip-path:url(#SVGID_93_);fill:url(#SVGID_95_);}
	.st68{clip-path:url(#SVGID_93_);mask:url(#SVGID_94_);fill:url(#SVGID_96_);}
	.st69{filter:url(#Adobe_OpacityMaskFilter_15_);}
	.st70{clip-path:url(#SVGID_98_);}
	.st71{clip-path:url(#SVGID_98_);mask:url(#SVGID_99_);}
	.st72{clip-path:url(#SVGID_103_);}
	.st73{filter:url(#Adobe_OpacityMaskFilter_16_);}
	.st74{clip-path:url(#SVGID_105_);fill:url(#SVGID_106_);}
	.st75{clip-path:url(#SVGID_105_);fill:url(#SVGID_107_);}
	.st76{filter:url(#Adobe_OpacityMaskFilter_17_);}
	.st77{mask:url(#SVGID_108_);}
	.st78{clip-path:url(#SVGID_112_);}
	.st79{filter:url(#Adobe_OpacityMaskFilter_18_);}
	.st80{clip-path:url(#SVGID_114_);fill:url(#SVGID_115_);}
	.st81{clip-path:url(#SVGID_114_);fill:url(#SVGID_116_);}
	.st82{clip-path:url(#SVGID_118_);fill-rule:evenodd;clip-rule:evenodd;fill:#98154C;}
	.st83{clip-path:url(#SVGID_118_);fill:none;stroke:#231F20;stroke-width:0.992;stroke-miterlimit:10;}
	.st84{filter:url(#Adobe_OpacityMaskFilter_19_);}
	.st85{mask:url(#SVGID_119_);}
	.st86{clip-path:url(#SVGID_123_);fill-rule:evenodd;clip-rule:evenodd;fill:#98154C;}
	.st87{clip-path:url(#SVGID_125_);fill-rule:evenodd;clip-rule:evenodd;fill:#98154C;}
	.st88{clip-path:url(#SVGID_127_);fill-rule:evenodd;clip-rule:evenodd;fill:#98154C;}
	.st89{filter:url(#Adobe_OpacityMaskFilter_20_);}
	.st90{clip-path:url(#SVGID_129_);}
	.st91{clip-path:url(#SVGID_129_);mask:url(#SVGID_130_);}
	.st92{clip-path:url(#SVGID_134_);}
	.st93{filter:url(#Adobe_OpacityMaskFilter_21_);}
	.st94{clip-path:url(#SVGID_136_);fill:url(#SVGID_137_);}
	.st95{clip-path:url(#SVGID_136_);fill:url(#SVGID_138_);}
	.st96{opacity:0.1;}
	.st97{filter:url(#Adobe_OpacityMaskFilter_22_);}
	.st98{clip-path:url(#SVGID_140_);}
	.st99{clip-path:url(#SVGID_140_);mask:url(#SVGID_141_);}
	.st100{clip-path:url(#SVGID_145_);fill:#8A5D3B;}
	.st101{opacity:0.8;}
	.st102{clip-path:url(#SVGID_147_);fill:#98154C;}
	.st103{filter:url(#Adobe_OpacityMaskFilter_23_);}
	.st104{mask:url(#SVGID_148_);}
	.st105{clip-path:url(#SVGID_152_);fill-rule:evenodd;clip-rule:evenodd;fill:#98154C;}
	.st106{filter:url(#Adobe_OpacityMaskFilter_24_);}
	.st107{mask:url(#SVGID_153_);}
	.st108{clip-path:url(#SVGID_157_);fill-rule:evenodd;clip-rule:evenodd;fill:#BE1E2D;}
	.st109{filter:url(#Adobe_OpacityMaskFilter_25_);}
	.st110{mask:url(#SVGID_158_);}
	.st111{clip-path:url(#SVGID_162_);fill:#BE1E2D;}
	.st112{clip-path:url(#SVGID_164_);fill:none;stroke:#A6A8AB;stroke-width:1.417;stroke-miterlimit:10;}
	.st113{clip-path:url(#SVGID_166_);fill:none;stroke:#A6A8AB;stroke-width:1.417;stroke-miterlimit:10;}
	.st114{clip-path:url(#SVGID_168_);fill:none;stroke:#A6A8AB;stroke-width:1.417;stroke-miterlimit:10;}
	.st115{clip-path:url(#SVGID_170_);fill:none;stroke:#A6A8AB;stroke-width:1.417;stroke-miterlimit:10;}
	.st116{clip-path:url(#SVGID_172_);fill:none;stroke:#A6A8AB;stroke-width:1.417;stroke-miterlimit:10;}
	.st117{clip-path:url(#SVGID_174_);fill:none;stroke:#A6A8AB;stroke-width:1.417;stroke-miterlimit:10;}
	.st118{clip-path:url(#SVGID_176_);fill:none;stroke:#A6A8AB;stroke-width:1.417;stroke-miterlimit:10;}
	.st119{fill:none;stroke:#A6A8AB;stroke-width:0.992;stroke-miterlimit:10;}
	.st120{clip-path:url(#SVGID_178_);fill:none;stroke:#A6A8AB;stroke-width:1.417;stroke-miterlimit:10;}
	.st121{clip-path:url(#SVGID_180_);fill:none;stroke:#A6A8AB;stroke-width:1.417;stroke-miterlimit:10;}
	.st122{clip-path:url(#SVGID_182_);fill:none;stroke:#A6A8AB;stroke-width:1.417;stroke-miterlimit:10;}
	.st123{filter:url(#Adobe_OpacityMaskFilter_26_);}
	.st124{mask:url(#SVGID_183_);}
	.st125{clip-path:url(#SVGID_187_);fill:#3B2314;}
	.st126{filter:url(#Adobe_OpacityMaskFilter_27_);}
	.st127{clip-path:url(#SVGID_189_);}
	.st128{clip-path:url(#SVGID_189_);mask:url(#SVGID_190_);}
	.st129{clip-path:url(#SVGID_194_);fill-rule:evenodd;clip-rule:evenodd;fill:#231F20;}
	.st130{fill-rule:evenodd;clip-rule:evenodd;fill:#D0D2D3;}
</style>
<g>
	<defs>
		<path id="SVGID_1_" d="M73.8,170.5c-0.6,0.6-0.9,1.4-0.8,2.2c0.1,1.6,4.1,38.8,31.6,84.6c16.1,26.8,37,51,62,71.7
			c31.3,25.9,69.2,46.6,112.8,61.6c0.3,0.1,0.6,0.1,0.9,0.1c0.3,0,0.6,0,0.8-0.1c43.5-14.9,81.5-35.6,112.7-61.6
			c25.1-20.7,45.9-44.9,62-71.7c27.4-45.8,31.5-83,31.6-84.6c0.1-0.8-0.2-1.6-0.8-2.2c-50.3-48.7-125.6-76.6-206.5-76.6
			C199.4,93.9,124.2,121.9,73.8,170.5"/>
	</defs>
	<clipPath id="SVGID_2_">
		<use xlink:href="#SVGID_1_"  style="overflow:visible;"/>
	</clipPath>
	
		<linearGradient id="SVGID_3_" gradientUnits="userSpaceOnUse" x1="-81.8762" y1="636.1362" x2="-79.306" y2="636.1362" gradientTransform="matrix(0 115.4884 115.4884 0 -73186.0938 9549.6836)">
		<stop  offset="0" style="stop-color:#D0D2D3"/>
		<stop  offset="0.4606" style="stop-color:#BABCBE"/>
		<stop  offset="0.8128" style="stop-color:#A6A8AB"/>
		<stop  offset="1" style="stop-color:#A6A8AB"/>
	</linearGradient>
	<rect x="73" y="93.9" class="st0" width="414.6" height="296.8"/>
</g>
<path class="st1" d="M468.3,139.2c-18.4-17.5-43.7-33.3-75.5-47c-36.9-16-76.2-24.4-113.7-24.4c-37.4,0-76.7,8.4-113.6,24.4
	c-31.7,13.7-57.1,29.5-75.5,47c-1,0.9-1.1,2.5-0.3,3.5c0.5,0.7,1.3,1.1,2.2,1.1c0.4,0,0.9-0.1,1.3-0.4c65.9-37,128.5-55.7,186-55.7
	c57.5,0,120.1,18.8,186,55.7c0.4,0.3,0.9,0.4,1.3,0.4c0.8,0,1.6-0.4,2.2-1.1C469.4,141.7,469.2,140.2,468.3,139.2"/>
<path class="st1" d="M145.6,51.4c0.8-0.5,1.8-1.1,3-1.6c1.1-0.6,2.6-1.2,4.4-2c1.6-0.6,3.1-1.1,4.5-1.4c1.5-0.3,2.9-0.4,4.1-0.2
	c1.3,0.2,2.4,0.6,3.4,1.4c1,0.8,1.8,1.9,2.5,3.4c0.4,0.9,0.6,1.8,0.6,2.7c0.1,0.9,0,1.7-0.2,2.4c-0.2,0.8-0.5,1.5-0.9,2.1
	c-0.4,0.6-0.9,1.1-1.4,1.4c0.7-0.2,1.5-0.3,2.4-0.3c0.9,0,1.8,0.1,2.8,0.5c0.9,0.3,1.8,0.9,2.7,1.6c0.8,0.7,1.5,1.8,2.1,3.2
	c0.7,1.8,1,3.5,0.8,4.9c-0.2,1.5-0.8,2.8-1.6,3.9c-0.9,1.2-2,2.2-3.5,3.1c-1.4,0.9-3,1.7-4.7,2.4c-1.3,0.5-2.6,1-3.8,1.5
	c-1.3,0.5-2.8,0.9-4.5,1.4L145.6,51.4z M158.7,60.4c0.7-0.3,1.3-0.6,1.9-1c0.6-0.4,1-0.8,1.3-1.3c0.3-0.5,0.5-1.1,0.5-1.8
	c0-0.7-0.1-1.4-0.5-2.3c-0.3-0.8-0.7-1.4-1.3-1.8c-0.5-0.4-1.1-0.7-1.7-0.8c-0.6-0.1-1.2-0.1-1.8,0.1c-0.6,0.1-1.2,0.4-1.8,0.6
	c-0.8,0.3-1.4,0.7-1.9,1l3.4,8.1L158.7,60.4z M162.5,74.5c0.4-0.1,0.9-0.3,1.4-0.4c0.5-0.2,1-0.4,1.4-0.5c0.6-0.2,1.2-0.6,1.8-0.9
	c0.6-0.4,1.1-0.9,1.5-1.4c0.4-0.6,0.7-1.2,0.8-1.9c0.1-0.7,0-1.6-0.4-2.5c-0.4-0.9-0.8-1.5-1.3-2c-0.5-0.5-1.1-0.8-1.8-0.9
	c-0.7-0.1-1.4-0.1-2.2,0c-0.8,0.2-1.6,0.4-2.5,0.8l-2.5,1L162.5,74.5z"/>
<path class="st1" d="M182.1,37.5c0.6-0.3,1.1-0.5,1.7-0.7c0.6-0.2,1.2-0.4,1.8-0.6c0.6-0.2,1.2-0.4,1.7-0.5c0.6-0.1,1.2-0.2,1.9-0.4
	l19.5,28.3c-1.1,0.5-2.3,1-3.4,1.3c-1.1,0.4-2.2,0.6-3.3,0.7l-3.7-5.7l-10.4,3.2l0.2,6.8c-1,0.5-2,0.9-2.9,1.2
	c-1.1,0.4-2.2,0.6-3.3,0.7L182.1,37.5z M195.2,55.1l-7.7-12l0.3,14.3L195.2,55.1z"/>
<path class="st1" d="M206.3,30.6c1-0.4,2.1-0.7,3.1-1c1-0.2,2.1-0.4,3.3-0.4l5.7,26.4l11.1-2.4c0.2,0.5,0.4,1,0.5,1.4
	c0.1,0.5,0.2,0.9,0.3,1.3c0.1,0.5,0.2,1,0.3,1.4c0.1,0.5,0.1,1,0.1,1.5l-17.5,3.8L206.3,30.6z"/>
<path class="st1" d="M248,57c-2.4,0.3-4.6,0.1-6.5-0.5c-1.9-0.6-3.5-1.6-4.8-3c-1.3-1.4-2.4-3-3.2-5c-0.8-2-1.3-4.2-1.6-6.5
	c-0.3-2.4-0.3-4.7,0.1-6.8c0.3-2.1,1-4,1.9-5.7c1-1.6,2.3-3,4-4c1.7-1,3.7-1.7,6.2-2c2.4-0.3,4.6-0.1,6.5,0.5c1.9,0.7,3.5,1.6,4.8,3
	c1.3,1.4,2.4,3.1,3.2,5.1c0.8,2,1.3,4.2,1.6,6.7c0.3,2.4,0.3,4.7-0.1,6.8c-0.3,2.1-1,4-1.9,5.6c-1,1.6-2.3,3-4,4
	C252.5,56.1,250.4,56.8,248,57 M247.3,51.5c4.7-0.5,6.6-4.6,5.7-12c-0.4-3.7-1.3-6.5-2.7-8.2c-1.4-1.8-3.2-2.5-5.6-2.2
	c-4.7,0.5-6.7,4.6-5.8,12C239.8,48.6,242.6,52.1,247.3,51.5"/>
<path class="st1" d="M268.4,21.8c0.9-0.2,1.9-0.3,2.7-0.3c0.9,0,1.8,0.1,2.8,0.3l12.5,21l0.2-20.8c1.1-0.2,2.1-0.3,3.1-0.3
	c1,0,1.9,0.1,2.8,0.3l-0.3,32.8c-1,0.2-1.9,0.3-2.6,0.3c-0.9,0-1.8-0.1-2.8-0.3l-12.6-20.9l-0.2,20.8c-1,0.2-2,0.3-2.9,0.3
	c-1,0-2-0.1-2.9-0.3L268.4,21.8z"/>
<path class="st1" d="M304.6,22.8c1.3,0,2.5,0,3.5,0.2c1.2,0.2,2.3,0.4,3.5,0.8l4.9,19.6l10.3-17.5c0.9,0,1.9,0,3.1,0.2
	c1.2,0.2,2.2,0.4,3.2,0.7l-2.9,32.7c-1.2,0-2.2,0-3.3-0.2c-1-0.1-2-0.4-3-0.7l2.3-22.1l-8.8,14.4c-0.4,0-0.9,0-1.3,0
	c-0.4,0-0.9,0-1.3-0.1c-0.4-0.1-0.8-0.1-1.2-0.2c-0.4-0.1-0.8-0.2-1.2-0.4l-4-16.4l-3.8,22.3c-0.9,0-1.9,0-2.8-0.1
	c-0.9-0.1-1.9-0.4-2.9-0.7L304.6,22.8z"/>
<path class="st1" d="M352.2,31.2c0.7,0.1,1.3,0.2,1.9,0.3c0.6,0.1,1.2,0.2,1.9,0.4c0.5,0.2,1.1,0.3,1.7,0.5c0.6,0.2,1.2,0.4,1.8,0.7
	l1.7,34.3c-1.3-0.1-2.5-0.3-3.6-0.6c-1.1-0.3-2.2-0.7-3.1-1.1l-0.1-6.8L343.7,56l-3.4,5.9c-1.1-0.1-2.2-0.3-3.2-0.5
	c-1.1-0.3-2.1-0.6-3.1-1.1L352.2,31.2z M354.1,53L354,38.8l-7.3,12.3L354.1,53z"/>
<path class="st1" d="M376.8,38.1c0.9,0.2,1.8,0.4,2.6,0.7c0.9,0.3,1.7,0.7,2.6,1.2l4.6,24l7.3-19.6c1.1,0.2,2.1,0.5,3,0.8
	c0.9,0.3,1.7,0.7,2.4,1.2L388,77.2c-1-0.2-1.9-0.4-2.6-0.7c-0.8-0.3-1.6-0.7-2.5-1.2l-4.7-24l-7.3,19.5c-0.9-0.2-1.9-0.4-2.8-0.8
	c-1-0.4-1.9-0.8-2.6-1.3L376.8,38.1z"/>
<path class="st1" d="M406.3,86.3c-2.2-1.1-4-2.4-5.2-3.9c-1.3-1.5-2.1-3.3-2.5-5.1c-0.3-1.8-0.3-3.8,0-5.9c0.4-2.1,1.2-4.2,2.2-6.4
	c1-2.2,2.3-4.1,3.7-5.7c1.4-1.6,3-2.9,4.6-3.7c1.7-0.9,3.6-1.3,5.6-1.3c2,0,4.1,0.6,6.3,1.6c2.2,1,4,2.4,5.2,3.9
	c1.3,1.6,2.1,3.3,2.5,5.1c0.4,1.9,0.3,3.9,0,6c-0.4,2.1-1.1,4.3-2.2,6.5c-1.1,2.2-2.3,4.1-3.7,5.7c-1.4,1.6-3,2.8-4.6,3.7
	c-1.7,0.8-3.5,1.3-5.5,1.3C410.7,87.9,408.5,87.4,406.3,86.3 M408.8,81.3c4.2,2.1,7.9-0.3,11.3-7.1c1.6-3.4,2.4-6.2,2.2-8.4
	c-0.2-2.2-1.4-3.8-3.6-4.8c-4.3-2.1-8.1,0.3-11.3,7C404,74.8,404.6,79.3,408.8,81.3"/>
<path class="st1" d="M248.5,378.5c-37.9-11.7-77.8-37.7-112.3-73.2C99,267.2,80.7,222,71.9,190.8c-0.3-1.2-1.4-1.9-2.6-1.9
	c-0.1,0-0.3,0-0.4,0c-1.3,0.2-2.3,1.4-2.3,2.7c0.4,17.2,5.1,37.1,13.7,59.1c8.5,21.5,22,42.8,42.7,67.1c32.1,37.8,106.1,65,124.5,66
	c0,0,0.1,0,0.1,0c1.3,0,2.4-0.9,2.7-2.2C250.6,380.2,249.8,378.9,248.5,378.5"/>
<path class="st1" d="M490,194.1c-0.1,0-0.2,0-0.4,0c-1.2,0-2.3,0.8-2.6,2c-10.2,38.3-34.6,79.2-68.7,115.1
	c-36.7,38.6-81.2,58.6-112,68.6c-1.3,0.4-2.1,1.7-1.8,3.1c0.2,1.2,1.3,2.1,2.6,2.1c0,0,0,0,0.2,0c17.2-1.1,36.8-6.5,58.5-16
	c21.1-9.3,41.9-23.6,65.4-45.3c36.5-33.5,60.8-108.5,61.1-126.9C492.3,195.4,491.3,194.3,490,194.1"/>
<path class="st2" d="M280.3,376.4c182.2-61.4,196.7-204,196.7-204c-100.4-95.5-292.6-95.9-393.3,0C83.6,172.4,98.1,315,280.3,376.4"
	/>
<path class="st3" d="M269.7,124.6c-2.3,0-4.5-1.2-5.7-3.2c-1.2-2-1.4-4.4-0.4-6.5l11.8-24.7c1.2-2.3,3.5-3.8,6.1-3.8h13.7
	c2.5,0,4.8,1.3,6,3.5c1.2,2.2,1.1,4.8-0.3,6.9l-15.8,24.6c-1.2,2-3.4,3.1-5.7,3.1H269.7z"/>
<path class="st3" d="M351,125.6c-9.4,0-17.1-7.7-17.1-17.1c0-9.5,7.7-17.2,17.1-17.2c9.5,0,17.2,7.7,17.2,17.2
	C368.2,117.9,360.6,125.6,351,125.6"/>
<path class="st4" d="M167.5,94.4c-15.3,0-32.2,17.6-45.4,38.5c-2.7-0.3-5-0.4-6.8-0.4c-15.4,0-26.6,7.2-26.6,16.1
	c0,5.1,3.7,7.6,8.1,7.6c4.1,0,7.3-2,7.3-5.1c0-1.8-1-4-1.7-4c1.7-4.4,7.2-6.3,15.3-6.8c-11.3,19.9-19.2,41.4-19.2,53.1
	c0,13.6,10.4,13.8,17.5,13.8c-0.8-1.2-1.8-3.1-1.8-7.3c0-13.6,7.2-38.4,17-59.6c5.7,0.5,10.8,1.7,17.5,4.7l-10,47.4h18.8l20.5-96
	C174.7,95,170.5,94.4,167.5,94.4 M149.7,139.2c-5.1-2.1-10.7-3.5-15.9-4.6c7.3-14.6,15.7-26.8,23.5-30.9L149.7,139.2z"/>
<path class="st4" d="M473.6,134.5c-1.4,2.5-4.7,8.1-9.3,9c-0.8-11.6-6.2-17.6-16.6-17.6c-26.1,0-34.9,29.6-35.3,45.1
	c-5.9,6.4-11.9,11.2-21.3,11.2c-6.2,0-9.4-2.1-9.4-10.9c0-14.5,8.5-38.4,16.7-38.4c2.5,0,3.7,2.1,3.7,5.4c0,2.2-0.6,4.8-1.6,7.7
	c1.6,1,3.2,1.6,4.6,1.6c3.8,0,7-3.1,7-9.5c0-6-2.9-12-14.5-12c-26.5,0-35.2,31.3-35.2,46.5c0,0.2,0,0.4,0.1,0.7
	c-2.4,4.4-6.1,7.4-10.1,7.4c-3.7,0-5.4-1.2-5.4-4.8c0-1.2,0.1-2.5,0.6-4.2l9.4-44.4h-18.8l-8.9,41.9c0,0,0,0,0,0
	c-1.9,6.5-6.6,11.5-11.7,11.5c-3.6,0-5.3-1.2-5.3-4.8c0-1.2,0.1-2.5,0.6-4.2l8.3-39.1h7.9l1-5.2h-7.8l4.4-20.6l-19.3,2.6l-3.9,18
	H299l-1,5.2h4.3l-7.8,36.7c0,0,0,0,0,0c-6.6,7.4-12.8,13.2-23.1,13.2c-6.2,0-9.4-2.1-9.4-10.9c0-1.6,0.1-3.4,0.2-5.2
	c15.7-0.9,30-12.5,30-27.5c0-6.5-2.8-12.5-14.4-12.5c-26.8,0-35.2,31.4-35.2,46.5c0,0.2,0,0.4,0,0.7c-2.4,4.4-6.1,7.4-10.1,7.4
	c-3.6,0-5.3-1.2-5.3-4.8c0-1.2,0.1-2.5,0.5-4.2l15-70.4l-19.3,2.6l-14,65.4c0,0,0,0,0,0c-1.9,6.5-6.6,11.4-11.7,11.4
	c-3.7,0-5.4-1.2-5.4-4.8c0-1.2,0.1-2.5,0.5-4.2l8.4-39.1h7.8l1-5.2h-7.8l4.4-20.6l-19.3,2.6l-3.9,18h-4.3l-1,5.2h4.3l-7.8,36.7
	c-0.7,3.1-1,6-1,8.5c0,11,6.1,15.7,14,15.7c5.3,0,14-1.7,21.2-11.7c1.3,8.1,6.9,11.7,13.7,11.7c5.4,0,14.2-1.7,21.4-12.1
	c2.7,8.5,9.7,12.1,19.1,12.1c13.6,0,23.3-7.4,30.4-16.3c0,0.2,0,0.4,0,0.7c0,11,6.1,15.7,13.9,15.7c5.3,0,14.1-1.7,21.1-11.7
	c1.3,8.1,6.9,11.7,13.7,11.7c5.3,0,14.2-1.7,21.4-12.1c2.7,8.5,9.7,12.1,19.1,12.1c13.3,0,22.9-7.1,30-15.8
	c1.8,11.1,9.8,15.5,20.5,15.5c16.4,0,29.5-15.8,31-40.8c7-3.8,10.8-11.9,13.5-17.5H473.6z M278.9,132.8c2.5,0,3.2,2.1,3.2,5.4
	c0,10.8-8.8,20.9-18.9,21.5C265.9,146.8,272.2,132.8,278.9,132.8 M453.2,153.9c-2,15.4-8.3,27.1-14.8,27.1c-5,0-6.6-2-6.6-10.6
	c0-12.8,7.7-36.7,16.9-36.7c3.3,0,4.7,1.9,5,7.4c-2.2,1-3.6,3.3-3.6,6.8C450.1,151.3,451.1,153.1,453.2,153.9"/>
<path class="st3" d="M115.9,213.9c-6,0-24.2,0-24.2-20.6c0-7.6,2.8-18.5,7.6-30.6c-0.8,0.1-1.6,0.2-2.5,0.2
	c-8.8,0-14.9-5.9-14.9-14.3c0-13,14.4-22.8,33.4-22.8c1,0,2.1,0,3.3,0.1c10.4-15.7,28.8-38.2,48.9-38.2c1.7,0,7.7,0.2,12.9,2.4
	c3,1.3,4.7,4.5,4,7.7l-20.5,96c-0.7,3.1-3.4,5.4-6.6,5.4h-18.8c-2,0-4-0.9-5.3-2.5c-1.3-1.6-1.8-3.7-1.4-5.7l8.9-41.8
	c-2-0.7-3.8-1.1-5.5-1.5c-8.4,19.4-14.3,40.8-14.3,52.2c0,2.5,0.5,3.3,0.7,3.5c1.4,2.1,1.5,4.7,0.4,7
	C120.8,212.6,118.5,213.9,115.9,213.9 M144.7,130.3l0.5-2.5c-0.4,0.7-0.9,1.5-1.3,2.3C144.2,130.1,144.5,130.2,144.7,130.3"/>
<path class="st3" d="M382.7,199.9c-8.7,0-15.6-2.6-20.2-7.5c-5.8,4.9-12.8,7.5-20.3,7.5c-6.5,0-12-2.4-15.6-6.6
	c-6.7,5.3-13.8,6.6-19.2,6.6c-8,0-14.2-3.6-17.7-9.7c-7.9,6.4-16.9,9.7-26.6,9.7c-8.7,0-15.6-2.6-20.3-7.5
	c-5.8,4.9-12.8,7.5-20.3,7.5c-6.5,0-11.9-2.4-15.5-6.6c-6.8,5.3-13.9,6.6-19.3,6.6c-12.6,0-20.7-8.8-20.7-22.4c0-2.8,0.4-6,1.2-9.9
	l6.3-29.7c-0.5-0.4-1-0.8-1.4-1.3c-1.3-1.6-1.8-3.6-1.4-5.6l1-5.2c0.5-2.8,2.7-4.9,5.5-5.3l2.8-12.8c0.6-2.8,2.9-4.9,5.7-5.3
	l19.3-2.6c0.3,0,0.6-0.1,0.9-0.1c1.9,0,3.7,0.8,5,2.2c1.5,1.6,2.1,3.9,1.6,6l-2.7,12.4c0.7,0.1,1.5,0.2,2.1,0.5l4-18.7
	c0.6-2.8,2.9-4.9,5.7-5.3l19.3-2.6c0.3,0,0.6,0,0.9,0c1.9,0,3.7,0.8,5,2.2c1.5,1.6,2.1,3.9,1.7,6l-15,70.4c0.5-0.4,1-1,1.5-1.6
	c0.2-8.3,2.5-20.4,8.4-30.9c7.8-13.8,19.3-21.1,33.6-21.1c6.5,0,11.6,1.6,15.1,4.7c1-1.8,2.8-3,4.8-3.4l2.8-12.8
	c0.6-2.8,2.9-4.9,5.7-5.3l19.3-2.6c0.3,0,0.6-0.1,0.9-0.1c1.9,0,3.7,0.8,5,2.2c1.5,1.6,2.1,3.9,1.6,6l-2.7,12.4
	c1.3,0.1,2.5,0.6,3.5,1.4c1.2-0.9,2.5-1.4,4.1-1.4h18.8c2,0,4,0.9,5.3,2.5c1.3,1.6,1.8,3.7,1.3,5.7l-9.4,44.3c0.5-0.4,1-1,1.5-1.6
	c0.5-17.8,11-52,41.9-52c11.6,0,19.1,5.3,20.8,14.5c7.5-9.5,17.6-14.5,29.3-14.5c9.5,0,16.5,4.1,20.2,11.6c1.3-1.9,3.4-3,5.6-3h4.2
	c2.3,0,4.5,1.2,5.7,3.1c1.2,1.9,1.4,4.4,0.4,6.5c-2.2,4.8-6.1,13.1-13.1,18.5c-1.3,12-5.1,22.4-11.1,30.1
	c-6.9,8.8-16.3,13.6-26.4,13.6c-10.3,0-18.2-3.6-22.8-10.2C402.2,196.3,393,199.9,382.7,199.9 M388.9,175.1c0.4,0.1,1,0.2,2.2,0.2
	c6,0,10.1-2.6,14.7-7.3c0.3-3.3,0.9-8.5,2.6-14.3c-1.1,0.3-2.2,0.4-3.4,0.4c-2.8,0-5.6-0.9-8.3-2.7c-1.4-1-2.5-2.4-2.9-4
	c-2.8,6.5-5.4,15.9-5.4,23.7C388.5,173.6,388.8,174.7,388.9,175.1 M269.2,175.1c0.3,0.1,1,0.2,2.2,0.2c6.7,0,11.1-3.2,16.8-9.6
	l1-4.9c-5.3,5.4-12.4,9.3-20.5,11C268.8,173.8,269,174.8,269.2,175.1 M443.3,149.3c-2.5,6.1-4.7,14.3-4.7,21.2
	c0,1.5,0.1,2.6,0.1,3.4c1.9-1.6,5.4-7.4,7.2-17.2C444.6,155,443.6,152.7,443.3,149.3 M319.4,172.7c1.2-1,2.5-2.9,3.4-5.5l5.9-28.2
	h-2.1L319.4,172.7z M199.6,172.7c1.2-1,2.5-2.9,3.4-5.5l6-28.2h-2.2L199.6,172.7z"/>
<path class="st4" d="M167.5,90.5c-15.3,0-32.2,17.6-45.4,38.5c-2.7-0.3-5-0.4-6.8-0.4c-15.4,0-26.6,7.2-26.6,16.1
	c0,5.1,3.7,7.6,8.1,7.6c4.1,0,7.3-1.9,7.3-5.1c0-1.8-1-4-1.7-4c1.7-4.4,7.2-6.3,15.3-6.8c-11.3,20-19.2,41.4-19.2,53.1
	c0,13.6,10.4,13.8,17.5,13.8c-0.8-1.2-1.8-3.1-1.8-7.3c0-13.6,7.2-38.4,17-59.6c5.7,0.5,10.8,1.7,17.5,4.7l-10,47.4h18.8l20.5-96
	C174.7,91,170.5,90.5,167.5,90.5 M149.7,135.2c-5.1-2.1-10.7-3.5-15.9-4.6c7.3-14.6,15.7-26.7,23.5-30.9L149.7,135.2z"/>
<polygon class="st4" points="295.2,90.5 281.5,90.5 269.7,115.1 279.4,115.1 "/>
<path class="st4" d="M351,116c5.7,0,10.4-4.6,10.4-10.3c0-5.7-4.7-10.4-10.4-10.4c-5.7,0-10.3,4.7-10.3,10.4
	C340.8,111.5,345.3,116,351,116"/>
<path class="st4" d="M473.6,130.5c-1.4,2.5-4.7,8.1-9.3,9c-0.8-11.6-6.2-17.6-16.6-17.6c-26.1,0-34.9,29.6-35.3,45.1
	c-5.9,6.4-11.9,11.2-21.3,11.2c-6.2,0-9.4-2.1-9.4-11c0-14.5,8.5-38.4,16.7-38.4c2.5,0,3.7,2.1,3.7,5.4c0,2.2-0.6,4.8-1.6,7.7
	c1.6,1,3.2,1.6,4.6,1.6c3.8,0,7-3.1,7-9.5c0-6-2.9-12-14.5-12c-26.5,0-35.2,31.3-35.2,46.4c0,0.2,0,0.5,0.1,0.7
	c-2.4,4.4-6.1,7.4-10.1,7.4c-3.7,0-5.4-1.2-5.4-4.8c0-1.2,0.1-2.5,0.6-4.2l9.4-44.4h-18.8l-8.9,41.9c0,0,0,0,0,0
	c-1.9,6.5-6.6,11.5-11.7,11.5c-3.6,0-5.3-1.2-5.3-4.8c0-1.2,0.1-2.5,0.6-4.2l8.3-39.1h7.9l1-5.2h-7.8l4.4-20.6l-19.3,2.6l-3.9,18
	H299l-1,5.2h4.3l-7.8,36.7c0,0,0,0,0,0c-6.6,7.4-12.8,13.2-23.1,13.2c-6.2,0-9.4-2.1-9.4-11c0-1.6,0.1-3.4,0.2-5.2
	c15.7-0.9,30-12.5,30-27.5c0-6.5-2.8-12.5-14.4-12.5c-26.8,0-35.2,31.4-35.2,46.4c0,0.2,0,0.5,0,0.7c-2.4,4.4-6.1,7.4-10.1,7.4
	c-3.6,0-5.3-1.2-5.3-4.8c0-1.2,0.1-2.5,0.5-4.2l15-70.5l-19.3,2.6l-14,65.4c0,0,0,0,0,0c-1.9,6.5-6.6,11.4-11.7,11.4
	c-3.7,0-5.4-1.2-5.4-4.8c0-1.2,0.1-2.5,0.5-4.2l8.4-39.1h7.8l1-5.2h-7.8l4.4-20.6l-19.3,2.6l-3.9,18h-4.3l-1,5.2h4.3l-7.8,36.7
	c-0.7,3.1-1,6-1,8.5c0,10.9,6.1,15.6,14,15.6c5.3,0,14-1.6,21.2-11.7c1.3,8.1,6.9,11.7,13.7,11.7c5.4,0,14.2-1.7,21.4-12
	c2.7,8.4,9.7,12,19.1,12c13.6,0,23.3-7.4,30.4-16.3c0,0.2,0,0.5,0,0.7c0,10.9,6.1,15.6,13.9,15.6c5.3,0,14.1-1.6,21.1-11.7
	c1.3,8.1,6.9,11.7,13.7,11.7c5.3,0,14.2-1.7,21.4-12c2.7,8.4,9.7,12,19.1,12c13.3,0,22.9-7.1,30-15.8c1.8,11.1,9.8,15.6,20.5,15.6
	c16.4,0,29.5-15.8,31-40.8c7-3.8,10.8-11.9,13.5-17.5H473.6z M278.9,128.8c2.5,0,3.2,2.1,3.2,5.4c0,10.8-8.8,20.9-18.9,21.5
	C265.9,142.8,272.2,128.8,278.9,128.8 M453.2,149.9c-2,15.4-8.3,27.1-14.8,27.1c-5,0-6.6-1.9-6.6-10.6c0-12.8,7.7-36.7,16.9-36.7
	c3.3,0,4.7,2,5,7.4c-2.2,1-3.6,3.3-3.6,6.8C450.1,147.3,451.1,149.2,453.2,149.9"/>
<path class="st1" d="M120.7,279.3c-1.8,0-3.3-1.5-3.3-3.2v-51.6c-4.4,2.7-6.5,7-6.5,13.4c0,2.3,0.4,3.1,0.6,3.6
	c0.2,0.4,0.4,1,0.5,1.7c0.1,0.9-0.2,1.8-0.8,2.6c-0.6,0.7-1.5,1-2.4,1c-10,0-12.1-6.1-12.1-11.3c0-11.2,14.4-24.7,32.3-24.7
	c1.3,0,2.4,0.1,3.6,0.2c1.7,0.1,3,1.5,3,3.2l0.5,32.2l11.3-33c0.5-1.3,1.7-2.2,3.1-2.2h5.8c1.1,0,2.1,0.5,2.7,1.4
	c0.6,0.9,0.7,2,0.4,3l-23,61.7c-0.5,1.3-1.7,2.1-3.1,2.1H120.7z"/>
<path class="st4" d="M133.1,265l17.4-50.6h5.8l-23,61.7h-12.6v-56.5c-9,2.8-13,9.2-13,18.3c0,4.2,1.1,4.9,1.2,5.6
	c-5.7,0-8.9-2.1-8.9-8c0-11,15.2-21.5,29.1-21.5c1.1,0,2.2,0.1,3.3,0.2L133.1,265z"/>
<path class="st1" d="M180.7,279.8c-4,0-7.3-1.7-9.2-4.5c-3.3,3-7,4.5-11.2,4.5c-6.9,0-14.3-4.4-14.3-16.6c0-13.5,8.5-32.2,24.5-32.2
	c2.3,0,4.2,0.4,5.7,1.1c0.5-0.4,1.2-0.7,1.9-0.7h11.9c1,0,1.9,0.4,2.5,1.2c0.6,0.8,0.9,1.8,0.6,2.7l-5.9,28.1
	c-0.2,0.8-0.3,1.4-0.3,2c0,0.1,0,0.2,0,0.3c0,0,0.1,0,0.1,0c1,0,2.5-1.9,3.6-5.4c0.4-1.4,1.7-2.3,3.1-2.3h3.5c1.1,0,2.1,0.5,2.6,1.4
	c0.6,0.9,0.8,2,0.4,2.9C195.4,276.7,187,279.8,180.7,279.8 M165.3,265.2c0.1,0,0.3,0,0.4,0c0.6,0,2.9-1.1,3.7-4.6l3.8-18
	c0,0,0,0,0,0c-3.3,0-8.3,10.4-8.3,19.4C164.8,264.1,165.1,264.9,165.3,265.2"/>
<path class="st4" d="M190.1,234.6l-6,28.1c-0.2,1.1-0.3,1.9-0.3,2.6c0,2.3,1.1,3.6,3.4,3.6c3.2,0,5.5-3.7,6.7-7.8h3.5
	c-4.7,13.5-12.2,15.3-16.6,15.3c-4.6,0-7.6-2.6-8.1-7.6c-2.6,3.8-6.5,7.6-12.3,7.6c-5.6,0-11-3.5-11-13.3c0-11.2,6.9-29,21.3-29
	c4.7,0,6.7,1.8,6.7,4.2v0.6l0.9-4.4H190.1z M161.5,262c0,6.4,2.6,6.5,4.1,6.5c2.4,0,5.9-2.5,6.9-7.3l4-18.7c0-1-0.8-3.1-3.4-3.1
	C166.1,239.4,161.5,254.2,161.5,262"/>
<path class="st1" d="M202.1,279.8c-5.9,0-12.1-3.4-12.1-13.2c0-1.7,0.2-3.7,0.7-6l8.9-41.5c0.3-1.4,1.4-2.4,2.7-2.6l12.2-1.7
	c0.1,0,0.3,0,0.4,0c0.9,0,1.8,0.4,2.4,1c0.7,0.8,1,1.9,0.8,2.9l-9.5,44.7c-0.2,0.7-0.2,1.2-0.2,1.8c0,0,0.1,0,0.1,0
	c1.4,0,3.4-1.8,4.3-4.9c0.4-1.4,1.7-2.3,3.1-2.3h3.5c1.1,0,2,0.5,2.7,1.4c0.6,0.9,0.7,2,0.4,2.9
	C217.2,277.5,207.4,279.8,202.1,279.8"/>
<path class="st4" d="M215,218.1l-9.5,44.7c-0.3,1.1-0.3,1.9-0.3,2.6c0,2.3,1.1,3.1,3.4,3.1c3.2,0,6.2-3.1,7.5-7.3h3.5
	c-4.7,13.5-12.9,15.3-17.4,15.3c-4.9,0-8.8-3-8.8-9.9c0-1.6,0.2-3.4,0.7-5.4l8.8-41.5L215,218.1z"/>
<path class="st1" d="M224.2,279.8c-5.9,0-12.1-3.4-12.1-13.2c0-1.7,0.3-3.7,0.7-6l8.9-41.5c0.3-1.4,1.4-2.4,2.8-2.6l12.2-1.7
	c0.1,0,0.3,0,0.4,0c0.9,0,1.8,0.4,2.4,1c0.7,0.8,1,1.9,0.8,2.9l-9.5,44.7c-0.2,0.7-0.2,1.2-0.3,1.8c0,0,0.1,0,0.1,0
	c1.4,0,3.4-1.8,4.3-4.9c0.4-1.4,1.7-2.3,3.1-2.3h3.5c1,0,2,0.5,2.6,1.4c0.6,0.9,0.8,2,0.4,2.9C239.3,277.5,229.5,279.8,224.2,279.8"
	/>
<path class="st4" d="M237.1,218.1l-9.5,44.7c-0.2,1.1-0.3,1.9-0.3,2.6c0,2.3,1.1,3.1,3.4,3.1c3.2,0,6.2-3.1,7.4-7.3h3.5
	c-4.7,13.5-12.9,15.3-17.4,15.3c-5,0-8.9-3-8.9-9.9c0-1.6,0.2-3.4,0.7-5.4l8.9-41.5L237.1,218.1z"/>
<path class="st1" d="M268.5,279.8c-4.1,0-7.3-1.7-9.3-4.5c-3.2,3-7,4.5-11.2,4.5c-6.9,0-14.3-4.4-14.3-16.6
	c0-13.5,8.5-32.2,24.5-32.2c2.3,0,4.2,0.4,5.7,1.1c0.6-0.4,1.2-0.7,2-0.7h11.9c1,0,1.9,0.4,2.6,1.2c0.6,0.8,0.9,1.8,0.6,2.7l-6,28.1
	c-0.2,0.8-0.2,1.4-0.2,2c0,0.1,0,0.2,0,0.3c0,0,0.1,0,0.1,0c1,0,2.5-1.9,3.5-5.4c0.4-1.4,1.7-2.3,3.2-2.3h3.4c1,0,2.1,0.5,2.6,1.4
	c0.6,0.9,0.7,2,0.4,2.9C283.1,276.7,274.7,279.8,268.5,279.8 M253,265.2c0.1,0,0.3,0,0.4,0c0.6,0,2.9-1.1,3.7-4.6l3.8-18
	c0,0,0,0,0,0c-3.3,0-8.3,10.4-8.3,19.4C252.5,264.1,252.9,264.9,253,265.2"/>
<path class="st4" d="M277.8,234.6l-5.9,28.1c-0.3,1.1-0.4,1.9-0.4,2.6c0,2.3,1.1,3.6,3.4,3.6c3.2,0,5.4-3.7,6.7-7.8h3.4
	c-4.7,13.5-12.2,15.3-16.6,15.3c-4.7,0-7.6-2.6-8.1-7.6c-2.6,3.8-6.5,7.6-12.3,7.6c-5.6,0-11-3.5-11-13.3c0-11.2,6.8-29,21.3-29
	c4.7,0,6.7,1.8,6.7,4.2v0.6l0.9-4.4H277.8z M249.3,262c0,6.4,2.6,6.5,4.1,6.5c2.4,0,5.9-2.5,6.9-7.3l4-18.7c0-1-0.7-3.1-3.4-3.1
	C253.8,239.4,249.3,254.2,249.3,262"/>
<path class="st1" d="M291.5,279.8c-6.9,0-14.2-4.4-14.2-16.6c0-13.5,8.5-32.2,24.5-32.2c1.9,0,3.5,0.3,4.9,0.7l2.8-12.6
	c0.3-1.4,1.3-2.4,2.8-2.6l12.2-1.7c0.1,0,0.3,0,0.4,0c0.9,0,1.8,0.4,2.4,1c0.7,0.8,1,1.9,0.8,2.9l-9.5,44.7
	c-0.2,0.7-0.3,1.2-0.3,1.8c0,0,0.1,0,0.1,0c1.3,0,2.7-1.9,3.5-4.9c0.4-1.4,1.7-2.3,3.2-2.3h3.4c1.1,0,2.1,0.5,2.7,1.4
	c0.6,0.9,0.8,2,0.3,2.9c-3.9,11.3-10.6,17-19.7,17c-3.9,0-7-1.5-9.1-4.1C299.6,278.2,295.8,279.8,291.5,279.8 M296.5,265.2
	c0.1,0,0.3,0,0.4,0c0.6,0,2.7-1,3.5-4l0,0c0-0.3,0-0.5,0-0.7l3.8-17.9c-3.2,0-8.2,10.4-8.2,19.4C296,264.1,296.4,264.9,296.5,265.2"
	/>
<path class="st4" d="M324.8,218.1l-9.5,44.7c-0.2,1.1-0.3,1.9-0.3,2.6c0,2.3,1,3.1,3.4,3.1c3.2,0,5.4-3.1,6.7-7.3h3.4
	c-4.7,13.5-12.2,14.8-16.6,14.8c-4.5,0-7.5-2.5-8.1-7.1c-2.5,3.8-6.4,7.6-12.3,7.6c-5.6,0-11-3.5-11-13.3c0-11.2,6.9-29,21.3-29
	c4.7,0,6.7,1.8,6.7,4.2v0.4l4-19.1L324.8,218.1z M303.7,261.2l4.1-19c-0.2-1-0.9-2.9-3.4-2.9c-7,0-11.6,14.9-11.6,22.7
	c0,6.4,2.6,6.5,4.1,6.5c2.3,0,5.7-2.3,6.8-6.9V261.2z"/>
<path class="st1" d="M337.1,279.6c-10.4,0-16.5-6-16.5-16.3c0-10.6,6.3-32.6,25.9-32.6c4.8,0,12.4,1.8,13.7,13.1
	c2.6-0.6,6-2.1,8.7-4c0.6-0.4,1.2-0.6,1.9-0.6c0.3,0,0.7,0,1,0.2c1,0.3,1.8,1.1,2.1,2.1l0.7,2.3c0.4,1.1,0.1,2.4-0.7,3.2
	c-3.1,3.4-8.2,6-14.1,7.4C357.8,269.5,348.8,279.6,337.1,279.6 M339.8,265.6c0.1,0,0.4,0,0.7,0c1.2,0,4.5-4.3,6-12.3
	c-1-1-1.9-2.6-1.9-5.2c0-2.3,0.8-4.4,2.2-5.9c-2.3,1.3-7.3,10.9-7.3,19.9C339.5,264.4,339.6,265.2,339.8,265.6"/>
<path class="st4" d="M357.2,247.1c0.3,0.2,0.6,0.2,0.9,0.2c3.8,0,9.2-2.5,12.8-5l0.7,2.3c-3.1,3.4-8.6,5.9-14.7,6.8
	c-1.3,15.3-9.6,24.9-19.8,24.9c-7.7,0-13.2-3.7-13.2-13.1c0-9.5,5.6-29.4,22.6-29.4C353.7,233.9,357.2,238.4,357.2,247.1 M350,251.7
	c-1.8-0.4-2.2-1.8-2.2-3.5c0-2.3,1-3.8,2.5-4.5c-0.2-3.5-0.9-4.8-3.1-4.8c-5.9,0-11,15.2-11,23.2c0,5.5,1,6.7,4.2,6.7
	C344.5,268.9,348.7,261.4,350,251.7"/>
<path class="st1" d="M369.5,279.8c-5.9,0-12.1-3.4-12.1-13.2c0-1.7,0.2-3.7,0.7-6l8.8-41.5c0.3-1.4,1.4-2.4,2.8-2.6l12.2-1.7
	c0.1,0,0.3,0,0.4,0c0.9,0,1.8,0.4,2.4,1c0.7,0.8,1,1.9,0.8,2.9l-9.5,44.7c-0.2,0.7-0.2,1.2-0.3,1.8c0.1,0,0.1,0,0.1,0
	c1.4,0,3.4-1.8,4.4-4.9c0.4-1.4,1.6-2.3,3.1-2.3h3.5c1,0,2,0.5,2.6,1.4c0.6,0.9,0.7,2,0.4,2.9C384.7,277.5,374.9,279.8,369.5,279.8"
	/>
<path class="st4" d="M382.4,218.1l-9.5,44.7c-0.2,1.1-0.3,1.9-0.3,2.6c0,2.3,1.1,3.1,3.4,3.1c3.2,0,6.3-3.1,7.5-7.3h3.5
	c-4.7,13.5-12.9,15.3-17.4,15.3c-5,0-8.8-3-8.8-9.9c0-1.6,0.3-3.4,0.6-5.4l8.9-41.5L382.4,218.1z"/>
<path class="st1" d="M391.7,279.8c-5.9,0-12.2-3.4-12.2-13.2c0-1.7,0.3-3.7,0.7-6l5.7-26.6c0.3-1.5,1.6-2.6,3.2-2.6h2.2
	c-2.3-1.8-3.8-4.6-3.8-7.8c0-5.4,4.4-9.9,9.8-9.9c5.5,0,9.9,4.5,9.9,9.9c0,3.4-1.8,6.5-4.5,8.2c0.3,0.2,0.6,0.4,0.9,0.7
	c0.6,0.8,0.9,1.8,0.7,2.7l-6,28.1c-0.2,0.7-0.3,1.2-0.3,1.8c0,0,0.1,0,0.1,0c1.4,0,3.4-1.8,4.3-4.9c0.4-1.4,1.7-2.3,3.1-2.3h3.5
	c1.1,0,2,0.5,2.7,1.4c0.6,0.9,0.8,2,0.4,2.9C406.8,277.5,397,279.8,391.7,279.8"/>
<path class="st4" d="M401,234.6l-6,28.1c-0.3,1.1-0.3,1.9-0.3,2.6c0,2.3,1,3.1,3.4,3.1c3.2,0,6.2-3.1,7.5-7.3h3.5
	c-4.8,13.5-13,15.3-17.4,15.3c-5,0-8.8-3-8.8-9.9c0-1.6,0.2-3.4,0.6-5.4l5.6-26.6H401z M397.3,217c3.7,0,6.7,3,6.7,6.6
	c0,3.7-3,6.5-6.7,6.5c-3.6,0-6.5-2.9-6.5-6.5C390.8,220,393.7,217,397.3,217"/>
<path class="st1" d="M435.8,279.8c-4,0-7.3-1.5-9.4-4.2c-3.2,2.8-6.9,4.2-10.9,4.2c-6.9,0-14.3-4.4-14.3-16.6
	c0-13.5,8.5-32.2,24.6-32.2c2,0,3.6,0.3,4.9,0.7l2.7-12.6c0.3-1.4,1.4-2.4,2.8-2.6l12.2-1.7c0.1,0,0.3,0,0.4,0c0.9,0,1.8,0.4,2.4,1
	c0.7,0.8,1,1.9,0.8,2.9l-9.5,44.7c-0.1,0.6-0.3,1.3-0.3,1.7c0,0,0,0,0,0c0.1,0,0.1,0,0.1,0c0.9,0,1.1-0.1,1.2-0.1
	c0.5-0.2,0.9-0.3,1.4-0.3c0.7,0,1.3,0.2,1.9,0.5c0.9,0.7,1.5,1.8,1.4,2.9C447.7,276.2,441.6,279.8,435.8,279.8 M420.4,265.2
	c0.1,0,0.4,0,0.4,0c0.7,0,2.7-0.8,3.3-3.4l4.2-19.2C425,242.7,420,253,420,262C420,264.1,420.3,264.9,420.4,265.2"/>
<path class="st4" d="M439.3,262.8c-0.2,0.8-0.4,1.7-0.4,2.4c0,1.9,0.9,3.3,3.4,3.3c1.5,0,2.2-0.3,2.6-0.5c-0.4,5.9-4.6,8.5-9.1,8.5
	c-4.2,0-7.6-2.1-8.6-6.8c-2.5,3.5-6.3,6.8-11.8,6.8c-5.7,0-11-3.5-11-13.3c0-11.2,6.8-29,21.3-29c4.7,0,6.7,1.8,6.7,4.2v0.4
	l4.1-19.1l12.2-1.7L439.3,262.8z M431.7,242.2c-0.2-1-0.9-2.9-3.4-2.9c-7,0-11.6,14.9-11.6,22.7c0,6.4,2.6,6.5,4.1,6.5
	c2.2,0,5.6-1.9,6.5-5.9L431.7,242.2z"/>
<path class="st5" d="M242.3,448.9c6.6,5,14.1,8.6,22.1,10.7c1.3,1.8,3.1,3.9,5.1,5.3c1.7,1.2,3.1,1.9,4,2.3c0,0,0.1,0.1,0.1,0.1
	c1.6,4.7,4,5.6,8.9,7.3l0.6,0.2c5.6,2,9.3,3.4,12.2,4.7c2.3,1.1,3.7,2.7,3.7,2.7c0.7,0.9,1.8,1.5,3,1.5c0.1,0,0.3,0,0.3,0
	c0,0,1.2-0.1,3.5-0.1c1.5,0,3,0,4.7,0.1c0.7,0,1.3,0,1.9,0c1.8,0,3.2-0.1,4.4-0.4c3.1-0.1,6.6-0.4,8.6-0.6c2.1,1.9,6.2,5.4,10.9,7.6
	c5,2.4,5.7,2.6,9.7,3.1c0.6,0.1,1.4,0.2,2.4,0.3c1.3,0.2,2.4,0.2,3.2,0.3c2.3,0.2,2.3,0.2,4.9,3.1c2.3,2.6,4.6,4.4,6.6,6
	c2.2,1.8,4.1,3.4,6,5.7c1.7,2.1,2.8,3.7,3.7,5.1c1.3,2,2.5,3.7,4.4,5.2c1.2,1,3,2.9,5.1,5.2c1.7,1.8,3.9,4.2,6.5,6.8
	c0.6,0.6,1.3,1.2,1.9,1.9c0.6-0.6,1.2-1.1,1.8-1.7c2.9-2.8,5.6-5.8,8.2-8.9c0.1-0.1,0.2-0.3,0.3-0.4c1-1.5,2.1-2.9,3-4.4
	c3.3-5.1,6.2-10.4,8.7-15.9c4.2-10.9,7-22.2,8.8-33.8c0.2-2,0.4-4,0.6-6c-0.3-0.2-0.5-0.3-0.7-0.5c-7.3-5-19.2-14.9-21.3-16.7
	c-0.6-0.5-0.9-2.9-1-4c-0.2-1.3-0.3-2.4-0.7-3.5c-0.4-1.2-0.9-2-1.2-2.6c0.2-3.6,0.6-13.2-1.3-18.6c-1.9-5.4-4.2-8.1-6.3-9.5
	c-0.3-1.1-0.8-3.1-1.1-5c-1.1-5-2.6-11.7-4.7-17.4c-3.4-9.3-5-16-5.9-21.3c-0.3-1.2-0.4-2.4-0.5-3.5c-0.3-3.4-0.9-8.8-6.8-9.2
	c-0.4,0-0.9,0-1.3,0c-0.9-2.8-2.6-8.1-4.6-11.2c-2-3.2-6-8.5-10.5-14.7c-0.9-1.3-1.8-2.5-2.8-3.8c-7.1-9.7-15.9-14.1-16.3-14.2
	c-0.3-0.3-0.8-0.4-1.2-0.4c0,0-0.2-0.1-0.3-0.3c-0.1-0.3-0.3-0.7-0.6-1l-0.2-0.4c-0.3-0.8-0.9-1.5-1.6-1.9c-0.1,0-0.9-0.5-2.3-1.2
	c-2-1.1-4.6-2.2-7.8-3.4c-7.8-3.1-15-4.9-21.5-5.6c-2.9-0.3-5.9-0.4-8.6-0.4c-8.5,0-13.3,1.4-13.5,1.4c-0.7,0.3-1.3,0.6-1.8,1.2
	c-0.1,0-0.2,0-0.4,0c-2.7,0-6.8,0.3-11.3,1.6c-7.3,2.3-10.3,4.1-17.9,8.8c-8.4,5.4-20.6,16.1-27.5,29.2c-2.6,4.8-5.1,10.7-7.2,16.7
	c-0.6,0.8-1,1.7-0.9,2.7v0c-1.7,5.1-3.7,12.4-4.4,19.2c-1.2,12.3,2.6,27.3,2.8,28c0.1,0.3,0.2,0.5,0.3,0.7l1.4,2.8l-0.4,2.1
	c-0.2,0.9-0.1,1.8,0.4,2.6c0.4,0.7,9.7,17.9,21.8,31.4C236.1,444,239.4,447,242.3,448.9"/>
<g>
	<defs>
		<path id="SVGID_4_" d="M276.6,290.4c-0.7,0.2-1.4,0.5-2,1c-2.8,0-6.9,0.4-11.4,1.8c-7.6,2.3-10.9,4.3-18.5,9.1
			c-8.6,5.5-21.3,16.7-28.4,30.1c-2.6,4.8-5.1,10.7-7.2,16.8c-0.7,1-1.2,2.2-1.2,3.5c-1.6,5.1-3.7,12.5-4.3,19.4
			c-1.2,12.9,2.7,28.3,2.9,28.9c0.1,0.4,0.3,0.9,0.5,1.3l1,2l-0.2,1.2c-0.3,1.5-0.1,3,0.7,4.3c0.4,0.7,9.8,18.2,22.2,31.9
			c3.7,4.1,7.1,7.3,10.3,9.3c6.6,4.9,14.1,8.6,22.1,10.8c1.7,2.3,3.4,4,5.3,5.2c1.2,0.8,2.3,1.4,3.4,2c2.1,5.2,5.5,6.4,10.2,8
			l0.6,0.2c5.6,2,9.1,3.4,11.9,4.6c1.6,0.7,2.6,1.8,2.8,2c1.2,1.5,3.1,2.4,5,2.4c0.2,0,0.4,0,0.6,0c0,0,1.1-0.1,3.2-0.1
			c1.4,0,2.9,0,4.6,0.1c0.7,0,1.5,0,2,0c1.9,0,3.4-0.1,4.8-0.4c2.4,0,5.2-0.3,7.2-0.5c2.5,2.1,6.4,5.2,10.7,7.2
			c5.3,2.5,6.3,2.9,10.6,3.3l0.1,0c0.6,0.1,1.3,0.1,2.2,0.3c1.4,0.2,2.5,0.3,3.4,0.3c0.4,0,1,0.1,1,0.1c0.3,0.1,1.1,1.1,2,2.1
			c2.5,2.8,4.7,4.7,6.8,6.3c2.1,1.8,3.9,3.2,5.6,5.3c1.6,2,2.6,3.5,3.5,4.9c1.3,2.1,2.6,4,4.9,5.8c1.1,0.9,2.8,2.7,4.8,4.9
			c1.8,1.9,4,4.2,6.6,6.8c0.6,0.6,1.3,1.2,1.9,1.9c0.6,0.5,1.2,0.7,1.9,0.7c0.7,0,1.3-0.2,1.9-0.7l0.5-0.5c0.4-0.4,0.9-0.8,1.3-1.2
			c3.4-3.4,6-6.2,8.4-9.1c0,0,0.4-0.5,0.4-0.5c1.2-1.6,2.2-3,3.1-4.5c3.3-5.1,6.3-10.6,8.9-16.2c0,0,0-0.1,0-0.2
			c4.1-10.6,7-21.8,8.9-34.3c0,0,0-0.1,0-0.1c0.3-1.8,0.4-3.8,0.6-6c0.1-0.9-0.3-1.9-1.1-2.4c0,0-0.6-0.4-0.8-0.5
			c-6.9-4.8-17.9-13.9-20.6-16.2c-0.1-0.4-0.3-1.1-0.5-2.6c-0.2-1.3-0.4-2.7-0.9-4c-0.3-0.8-0.6-1.6-1-2.3
			c0.3-4.4,0.4-13.4-1.5-18.9c-1.6-4.5-3.7-8-6.3-10.2c-0.3-1.1-0.6-2.6-0.9-4c-1.1-5-2.6-11.9-4.8-17.7c-3.4-9.1-4.8-15.7-5.8-20.8
			c-0.2-1.1-0.4-2.2-0.5-3.4c-0.3-3.5-1.2-10.7-8.7-11.6c-1.1-3.4-2.6-7.3-4.3-10c-2.1-3.4-6-8.6-10.6-14.8l-2.8-3.8
			c-7.5-10.1-16.8-14.8-17.2-15.1c-0.3-0.1-0.5-0.2-0.7-0.3c-0.1,0-0.1-0.2-0.2-0.3l-0.1-0.2c-0.6-1.3-1.6-2.5-2.9-3.2
			c0,0-0.9-0.5-2.3-1.2c-2.1-1.2-4.7-2.3-8-3.5c-8-3.1-15.5-5-22.2-5.7c-3-0.3-6-0.4-8.8-0.4C282.1,288.9,277.2,290.2,276.6,290.4"
			/>
	</defs>
	<clipPath id="SVGID_5_">
		<use xlink:href="#SVGID_4_"  style="overflow:visible;"/>
	</clipPath>
	
		<linearGradient id="SVGID_6_" gradientUnits="userSpaceOnUse" x1="-78.915" y1="632.9128" x2="-76.345" y2="632.9128" gradientTransform="matrix(86.1013 0 0 -86.1013 6997.9507 54906.8477)">
		<stop  offset="0" style="stop-color:#E6E7E8"/>
		<stop  offset="0.8128" style="stop-color:#D0D2D3"/>
		<stop  offset="1" style="stop-color:#D0D2D3"/>
	</linearGradient>
	<rect x="202.3" y="288.9" class="st6" width="222.4" height="246.7"/>
</g>
<g class="st7">
	<g>
		<defs>
			<rect id="SVGID_7_" x="207.9" y="293.5" width="159.8" height="167.5"/>
		</defs>
		<clipPath id="SVGID_8_">
			<use xlink:href="#SVGID_7_"  style="overflow:visible;"/>
		</clipPath>
		<g class="st8">
			<defs>
				<path id="SVGID_9_" d="M363.8,363.9c-2.2,7-8.4,27.3-10.6,30.2c-2.1,2.9-7.8,15.9-8.5,23.1c-0.7,7.2-1.4,24.2-4.7,28.3
					c-3.1,4.1-11,7.5-16.5,8.9c-5.5,1.3-13.3,3.4-25.3,4.6c-11.9,1.2-32.9-3.4-39.3-6.1c-6.4-2.7-8.6-5-8.6-5
					c-1.7,0.3-6.2-0.3-15.2-10.3c-12-13.3-21.3-30.7-21.3-30.7l0.7-3.3l-2-4.1c0,0-3.8-14.8-2.6-26.6c1.1-11.8,6.8-27.7,12-37.4
					c6.6-12.4,18.6-22.9,26.2-27.7c7.6-4.8,10.3-6.3,17-8.4c6.7-2.1,12.5-1.4,12.5-1.4s0.4-1.3,4.4-2c1.5-0.2,6.7-0.9,14-0.4
					c10.4,0.7,32.3,7.3,33.9,11.3c1,2.5,3.4,2.7,3.4,2.7s8.2,4.1,14.8,13.1c5.7,7.6,10.8,14.5,13.2,18.2c2.3,3.8,4.7,12,4.7,12
					S366.1,356.9,363.8,363.9"/>
			</defs>
			<clipPath id="SVGID_10_">
				<use xlink:href="#SVGID_9_"  style="overflow:visible;"/>
			</clipPath>
			
				<radialGradient id="SVGID_11_" cx="-82.7334" cy="637.5615" r="2.6696" gradientTransform="matrix(-31.715 48.0719 48.0719 31.715 -32977.0391 -15932.8506)" gradientUnits="userSpaceOnUse">
				<stop  offset="0" style="stop-color:#FFFFFF"/>
				<stop  offset="0.1198" style="stop-color:#FBFBFB"/>
				<stop  offset="0.2345" style="stop-color:#F0F0F1"/>
				<stop  offset="0.3471" style="stop-color:#DCDDDE"/>
				<stop  offset="0.4577" style="stop-color:#C1C3C5"/>
				<stop  offset="0.4804" style="stop-color:#BBBDBF"/>
				<stop  offset="1" style="stop-color:#E0E07A"/>
			</radialGradient>
			<polygon class="st9" points="442,345.2 318.5,532.5 132.9,410.1 256.5,222.8 			"/>
		</g>
		<path class="st10" d="M363.8,363.9c-2.2,7-8.4,27.3-10.6,30.2c-2.1,2.9-7.8,15.9-8.5,23.1c-0.7,7.2-1.4,24.2-4.7,28.3
			c-3.1,4.1-11,7.5-16.5,8.9c-5.5,1.3-13.3,3.4-25.3,4.6c-11.9,1.3-32.9-3.4-39.3-6.1c-6.4-2.7-8.6-5-8.6-5
			c-1.7,0.3-6.2-0.3-15.2-10.3c-12-13.3-21.3-30.7-21.3-30.7l0.7-3.3l-2-4.1c0,0-3.8-14.8-2.6-26.6c1.1-11.8,6.8-27.7,12-37.4
			c6.6-12.4,18.6-22.9,26.2-27.7c7.6-4.8,10.3-6.3,17-8.4c6.7-2.1,12.5-1.4,12.5-1.4s0.4-1.3,4.4-2c1.5-0.2,6.7-0.9,14-0.4
			c10.4,0.7,32.3,7.3,33.9,11.3c1,2.5,3.4,2.7,3.4,2.7s8.2,4.1,14.8,13.1c5.7,7.6,10.8,14.5,13.2,18.2c2.3,3.8,4.7,12,4.7,12
			S366.1,356.9,363.8,363.9z"/>
	</g>
</g>
<g class="st11">
	<g>
		<defs>
			<rect id="SVGID_12_" x="332" y="334.2" width="31.3" height="56.6"/>
		</defs>
		<clipPath id="SVGID_13_">
			<use xlink:href="#SVGID_12_"  style="overflow:visible;"/>
		</clipPath>
		<path class="st12" d="M355.3,388.8l-4,1.9c0,0-2.8-4.9-6-8.7c-3.2-3.8-11.4-10.7-11.4-10.7s0.5-1.4,0.7-2.7
			c0.2-1.2-2.6-27.3-2.6-27.3l12.6-7.3c0,0,4.5-0.2,9.4,4c4.8,4.2,9.3,14,9.3,14"/>
	</g>
</g>
<defs>
	<filter id="Adobe_OpacityMaskFilter" filterUnits="userSpaceOnUse" x="333.9" y="336.1" width="27.4" height="52.2">
		<feFlood  style="flood-color:white;flood-opacity:1" result="back"/>
		<feBlend  in="SourceGraphic" in2="back" mode="normal"/>
	</filter>
</defs>
<mask maskUnits="userSpaceOnUse" x="333.9" y="336.1" width="27.4" height="52.2" id="SVGID_14_">
	<g class="st13">
		<g class="st14">
			<g>
				<defs>
					<rect id="SVGID_15_" x="328.8" y="330.9" width="37.7" height="62.9"/>
				</defs>
				<clipPath id="SVGID_16_">
					<use xlink:href="#SVGID_15_"  style="overflow:visible;"/>
				</clipPath>
				<g transform="matrix(1 0 0 1 0 0)" style="clip-path:url(#SVGID_16_);">
					
						<image style="overflow:visible;" width="61" height="102" xlink:href="4EB38E6DDBF904A.jpg"  transform="matrix(0.6168 0 0 0.6168 328.7803 330.9326)">
					</image>
				</g>
			</g>
		</g>
	</g>
</mask>
<g class="st15">
	<g>
		<defs>
			<rect id="SVGID_17_" x="333.9" y="336.1" width="27.4" height="52.2"/>
		</defs>
		<clipPath id="SVGID_18_">
			<use xlink:href="#SVGID_17_"  style="overflow:visible;"/>
		</clipPath>
		<path class="st16" d="M352,388.3c-1.1-1.8-3.2-4.8-5.4-7.4c-2.6-3.1-8.3-8.2-10.6-10.1c0.1-0.5,0.3-1.2,0.4-1.8
			c0.2-1.2-1.3-14.8-2.6-26.6l11.1-6.4c1.1,0.1,4.2,0.6,7.6,3.5c3.8,3.4,7.6,10.7,8.6,12.8l-7.6,35.2L352,388.3z"/>
	</g>
</g>
<g class="st17">
	<g>
		<defs>
			<rect id="SVGID_19_" x="332" y="334.2" width="31.3" height="56.6"/>
		</defs>
		<clipPath id="SVGID_20_">
			<use xlink:href="#SVGID_19_"  style="overflow:visible;"/>
		</clipPath>
		<path class="st18" d="M355.3,388.8l-4,1.9c0,0-2.8-4.9-6-8.7c-3.2-3.8-11.4-10.7-11.4-10.7s0.5-1.4,0.7-2.7
			c0.2-1.2-2.6-27.3-2.6-27.3l12.6-7.3c0,0,4.5-0.2,9.4,4c4.8,4.2,9.3,14,9.3,14"/>
	</g>
</g>
<g>
	<defs>
		<path id="SVGID_21_" d="M336.3,353.4c1,3.1,1.9,7.6,6.7,12.2c4.8,4.6,7.4,6.1,9.7,6.1h2.3c0,0-3.8,0.2-2,4.6
			c1.8,4.3,3.6,10.7,1.6,15.8c-2,5.1-8.2,12.7-9.5,23.7c-1.2,10.9,0.6,29.2-0.7,30.5c-1.2,1.3-4.8,3.5-19.1,7.6
			c0,0-3.8,2.3-18.3,3.6c-14.5,1.3-22.6,1.5-30.7,0c-8.1-1.5-10-2.3-10-2.3s2.6,4.6,5.6,6.6c3,2,4.8,2.5,4.8,2.5s5.1,1.8,10.9,4.3
			c5.9,2.5,17.1,8.7,20.6,8.7c3.5,0,3.1,2.3,7.6,2.3c4.6,0,10.9-0.7,10.9-0.7s5.4,5.4,11.2,8.2c5.9,2.8,5.1,2.3,10.9,3
			c5.9,0.8,5.9-0.5,10.5,4.6c4.6,5.1,8.6,6.9,12.7,11.9c4.1,5.1,4.8,7.6,7.4,9.7c2.5,2,6.1,6.4,11.9,12.2c0.7,0.6,1.3,1.3,2,1.9
			c2.5-2.6,4.9-5.2,7.2-7.9c0.1-0.1,0.2-0.3,0.3-0.4c1-1.5,2.1-2.9,3-4.4c3.3-5.1,6.2-10.4,8.7-15.9c4.2-10.9,7-22.2,8.8-33.8
			c0.1-0.5,0.1-1.1,0.2-1.6c-0.8-0.6-1.6-1.2-2.5-1.8c-7.4-5.1-19.3-15-21.6-17c-2.3-2-2-6.9-2.8-8.9c-0.8-2-1.6-3.1-1.6-3.1
			s1-12.5-1-18.3c-2-5.9-4.6-7.6-5.6-8.1c-1-0.6-2.8-14-6.3-23.7c-3.5-9.7-5.1-16.5-6.1-21.9c-1-5.3-0.2-9.4-3.8-9.7
			c-3.5-0.3-7.9,0-12.2-0.7c-4.4-0.7-6.3-1.3-10.4-3.8c-4.1-2.5-6.1-3.3-6.1-3.3S335.3,350.3,336.3,353.4"/>
	</defs>
	<clipPath id="SVGID_22_">
		<use xlink:href="#SVGID_21_"  style="overflow:visible;"/>
	</clipPath>
	<defs>
		<filter id="Adobe_OpacityMaskFilter_1_" filterUnits="userSpaceOnUse" x="234.6" y="319.4" width="218.4" height="237.5">
			<feColorMatrix  type="matrix" values="1 0 0 0 0  0 1 0 0 0  0 0 1 0 0  0 0 0 1 0"/>
		</filter>
	</defs>
	<mask maskUnits="userSpaceOnUse" x="234.6" y="319.4" width="218.4" height="237.5" id="SVGID_23_">
		<g class="st19">
			
				<linearGradient id="SVGID_24_" gradientUnits="userSpaceOnUse" x1="-78.1157" y1="633.2225" x2="-75.5449" y2="633.2225" gradientTransform="matrix(79.0995 13.9474 13.9474 -79.0995 -2388.1165 51601.2812)">
				<stop  offset="0" style="stop-color:#CCCCCC"/>
				<stop  offset="0.2313" style="stop-color:#E8E8E8"/>
				<stop  offset="0.4365" style="stop-color:#F9F9F9"/>
				<stop  offset="0.5884" style="stop-color:#FFFFFF"/>
				<stop  offset="0.6523" style="stop-color:#F2F2F2"/>
				<stop  offset="0.7696" style="stop-color:#D1D1D1"/>
				<stop  offset="0.9261" style="stop-color:#9B9B9B"/>
				<stop  offset="1" style="stop-color:#808080"/>
			</linearGradient>
			<polygon class="st20" points="270.8,319.4 453,351.5 416.8,556.9 234.6,524.7 			"/>
		</g>
	</mask>
	
		<linearGradient id="SVGID_25_" gradientUnits="userSpaceOnUse" x1="-78.1128" y1="633.2236" x2="-75.5419" y2="633.2236" gradientTransform="matrix(79.0995 13.9474 13.9474 -79.0995 -2388.3665 51601.332)">
		<stop  offset="0" style="stop-color:#A87C4F"/>
		<stop  offset="0.1256" style="stop-color:#B08E67"/>
		<stop  offset="0.3091" style="stop-color:#B9A383"/>
		<stop  offset="0.4696" style="stop-color:#BFAF94"/>
		<stop  offset="0.5884" style="stop-color:#C1B49A"/>
		<stop  offset="1" style="stop-color:#C7B9A1"/>
	</linearGradient>
	<polygon class="st21" points="270.8,319.4 453,351.5 416.8,556.9 234.6,524.7 	"/>
</g>
<g class="st22">
	<g>
		<defs>
			<rect id="SVGID_26_" x="361.6" y="443" width="58.8" height="59.1"/>
		</defs>
		<clipPath id="SVGID_27_">
			<use xlink:href="#SVGID_26_"  style="overflow:visible;"/>
		</clipPath>
		<defs>
			<filter id="Adobe_OpacityMaskFilter_2_" filterUnits="userSpaceOnUse" x="361.6" y="443" width="58.8" height="59.1">
				<feFlood  style="flood-color:white;flood-opacity:1" result="back"/>
				<feBlend  in="SourceGraphic" in2="back" mode="normal"/>
			</filter>
		</defs>
		<mask maskUnits="userSpaceOnUse" x="361.6" y="443" width="58.8" height="59.1" id="SVGID_28_">
			<g class="st23">
				<g class="st14">
					<g>
						<defs>
							<rect id="SVGID_29_" x="356.5" y="437.8" width="69.1" height="69.7"/>
						</defs>
						<clipPath id="SVGID_30_" class="st24">
							<use xlink:href="#SVGID_29_"  style="overflow:visible;"/>
						</clipPath>
						<g transform="matrix(1 0 0 1 0 0)" style="clip-path:url(#SVGID_30_);">
							
								<image style="overflow:visible;" width="112" height="113" xlink:href="4EB38E6DDBF904E.jpg"  transform="matrix(0.6168 0 0 0.6168 356.4795 437.8145)">
							</image>
						</g>
					</g>
				</g>
			</g>
		</mask>
		<g class="st25">
			<g>
				<defs>
					<rect id="SVGID_31_" x="361.6" y="443" width="58.8" height="59.1"/>
				</defs>
				<clipPath id="SVGID_32_">
					<use xlink:href="#SVGID_31_"  style="overflow:visible;"/>
				</clipPath>
				<g class="st26">
					<defs>
						<path id="SVGID_33_" d="M375,472.4c4.8,3.5,22.1,17.8,37.4,29.6c0-0.1,0.1-0.2,0.2-0.3c3.6-9.2,6.1-18.8,7.9-28.5
							c-0.1-0.1-0.3-0.2-0.4-0.3c-10.9-6.6-11.2-6.1-16.7-11.9c-5.6-5.8-4.8-8.4-7.9-11.7c-1.7-1.9-3.5-4-5.1-6.3
							c-0.9,0.8-1.9,1.5-3.2,2.1c-3.2,1.4-6.8,2.1-10,3.4c-5.9,2.3-13.8,5.5-15.4,12.3c0,0,0,0,0,0
							C365.1,464.3,371.4,469.7,375,472.4"/>
					</defs>
					<clipPath id="SVGID_34_">
						<use xlink:href="#SVGID_33_"  style="overflow:visible;"/>
					</clipPath>
					<defs>
						<filter id="Adobe_OpacityMaskFilter_3_" filterUnits="userSpaceOnUse" x="361.6" y="443" width="58.8" height="59.1">
							<feColorMatrix  type="matrix" values="1 0 0 0 0  0 1 0 0 0  0 0 1 0 0  0 0 0 1 0"/>
						</filter>
					</defs>
					<mask maskUnits="userSpaceOnUse" x="361.6" y="443" width="58.8" height="59.1" id="SVGID_28_">
						<g class="st27">
							
								<linearGradient id="SVGID_35_" gradientUnits="userSpaceOnUse" x1="-75.1444" y1="631.2511" x2="-72.5736" y2="631.2511" gradientTransform="matrix(47.2601 0 0 -47.2601 3912.9463 30305.502)">
								<stop  offset="0" style="stop-color:#333333"/>
								<stop  offset="0.5079" style="stop-color:#333333"/>
								<stop  offset="0.642" style="stop-color:#535353"/>
								<stop  offset="0.7758" style="stop-color:#6C6C6C"/>
								<stop  offset="0.8986" style="stop-color:#7A7A7A"/>
								<stop  offset="1" style="stop-color:#808080"/>
							</linearGradient>
							<rect x="361.6" y="443" class="st28" width="58.8" height="59.1"/>
						</g>
					</mask>
					
						<linearGradient id="SVGID_36_" gradientUnits="userSpaceOnUse" x1="-75.1444" y1="631.2511" x2="-72.5736" y2="631.2511" gradientTransform="matrix(47.2601 0 0 -47.2601 3912.9463 30305.502)">
						<stop  offset="0" style="stop-color:#A87C4F"/>
						<stop  offset="0.5079" style="stop-color:#A87C4F"/>
						<stop  offset="0.521" style="stop-color:#A97F53"/>
						<stop  offset="0.6562" style="stop-color:#B69875"/>
						<stop  offset="0.7847" style="stop-color:#BFAA8D"/>
						<stop  offset="0.9026" style="stop-color:#C5B59C"/>
						<stop  offset="1" style="stop-color:#C7B9A1"/>
					</linearGradient>
					<rect x="361.6" y="443" class="st29" width="58.8" height="59.1"/>
				</g>
			</g>
		</g>
	</g>
</g>
<defs>
	<filter id="Adobe_OpacityMaskFilter_4_" filterUnits="userSpaceOnUse" x="321.8" y="452.5" width="35.4" height="35.4">
		<feFlood  style="flood-color:white;flood-opacity:1" result="back"/>
		<feBlend  in="SourceGraphic" in2="back" mode="normal"/>
	</filter>
</defs>
<mask maskUnits="userSpaceOnUse" x="321.8" y="452.5" width="35.4" height="35.4" id="SVGID_37_">
	<g class="st30">
		<g class="st14">
			<g>
				<defs>
					<rect id="SVGID_38_" x="317.2" y="448.4" width="45" height="43.2"/>
				</defs>
				<clipPath id="SVGID_39_">
					<use xlink:href="#SVGID_38_"  style="overflow:visible;"/>
				</clipPath>
				<g transform="matrix(1 0 0 1 0 0)" style="clip-path:url(#SVGID_39_);">
					
						<image style="overflow:visible;" width="73" height="70" xlink:href="4EB38E6DDBF9049.jpg"  transform="matrix(0.6168 0 0 0.6168 317.1616 448.3896)">
					</image>
				</g>
			</g>
		</g>
	</g>
</mask>
<g class="st31">
	<g>
		<defs>
			<rect id="SVGID_40_" x="322.3" y="453.5" width="34.6" height="32.7"/>
		</defs>
		<clipPath id="SVGID_41_">
			<use xlink:href="#SVGID_40_"  style="overflow:visible;"/>
		</clipPath>
		<g class="st32">
			<defs>
				<path id="SVGID_42_" d="M329.9,454.6c-4.1,3.6-7.6,7.2-7.6,7.2s-0.5,7.9,3.1,11.4c3.5,3.5,9.1,9.7,16,12.2
					c6.9,2.6,8.7-1.8,8.7-1.8s1.6-7.9,4.4-13.7c2.8-5.8,2.5-7.9,2.5-7.9s-4.3-6.4-12.9-7.9C335.3,452.5,329.9,454.6,329.9,454.6"/>
			</defs>
			<clipPath id="SVGID_43_">
				<use xlink:href="#SVGID_42_"  style="overflow:visible;"/>
			</clipPath>
			<defs>
				<filter id="Adobe_OpacityMaskFilter_5_" filterUnits="userSpaceOnUse" x="321.8" y="452.5" width="35.4" height="35.4">
					<feColorMatrix  type="matrix" values="1 0 0 0 0  0 1 0 0 0  0 0 1 0 0  0 0 0 1 0"/>
				</filter>
			</defs>
			<mask maskUnits="userSpaceOnUse" x="321.8" y="452.5" width="35.4" height="35.4" id="SVGID_37_">
				<g class="st33">
					
						<linearGradient id="SVGID_44_" gradientUnits="userSpaceOnUse" x1="-62.2439" y1="624.4464" x2="-59.6742" y2="624.4464" gradientTransform="matrix(13.4741 0 0 -13.4741 1161.0082 8884.083)">
						<stop  offset="0" style="stop-color:#333333"/>
						<stop  offset="0.5079" style="stop-color:#333333"/>
						<stop  offset="0.642" style="stop-color:#535353"/>
						<stop  offset="0.7758" style="stop-color:#6C6C6C"/>
						<stop  offset="0.8986" style="stop-color:#7A7A7A"/>
						<stop  offset="1" style="stop-color:#808080"/>
					</linearGradient>
					<rect x="321.8" y="452.5" class="st34" width="35.4" height="35.4"/>
				</g>
			</mask>
			
				<linearGradient id="SVGID_45_" gradientUnits="userSpaceOnUse" x1="-62.2439" y1="624.4464" x2="-59.6742" y2="624.4464" gradientTransform="matrix(13.4741 0 0 -13.4741 1161.0082 8884.083)">
				<stop  offset="0" style="stop-color:#A87C4F"/>
				<stop  offset="0.5079" style="stop-color:#A87C4F"/>
				<stop  offset="0.521" style="stop-color:#A97F53"/>
				<stop  offset="0.6562" style="stop-color:#B69875"/>
				<stop  offset="0.7847" style="stop-color:#BFAA8D"/>
				<stop  offset="0.9026" style="stop-color:#C5B59C"/>
				<stop  offset="1" style="stop-color:#C7B9A1"/>
			</linearGradient>
			<rect x="321.8" y="452.5" class="st35" width="35.4" height="35.4"/>
		</g>
	</g>
</g>
<defs>
	<filter id="Adobe_OpacityMaskFilter_6_" filterUnits="userSpaceOnUse" x="307.5" y="457.2" width="5.7" height="12.2">
		<feFlood  style="flood-color:white;flood-opacity:1" result="back"/>
		<feBlend  in="SourceGraphic" in2="back" mode="normal"/>
	</filter>
</defs>
<mask maskUnits="userSpaceOnUse" x="307.5" y="457.2" width="5.7" height="12.2" id="SVGID_46_">
	<g class="st36">
		<g class="st14">
			<g>
				<defs>
					<rect id="SVGID_47_" x="302.4" y="452" width="16.1" height="22.8"/>
				</defs>
				<clipPath id="SVGID_48_">
					<use xlink:href="#SVGID_47_"  style="overflow:visible;"/>
				</clipPath>
				<g transform="matrix(1 0 0 1 0 0)" style="clip-path:url(#SVGID_48_);">
					
						<image style="overflow:visible;" width="26" height="37" xlink:href="4EB38E6DDBF904B.jpg"  transform="matrix(0.6168 0 0 0.6168 302.3745 452.0381)">
					</image>
				</g>
			</g>
		</g>
	</g>
</mask>
<g class="st37">
	<g>
		<defs>
			<rect id="SVGID_49_" x="307.5" y="457.2" width="5.7" height="12.2"/>
		</defs>
		<clipPath id="SVGID_50_">
			<use xlink:href="#SVGID_49_"  style="overflow:visible;"/>
		</clipPath>
		<path class="st38" d="M307.6,458.5c0,0,2.8-1.1,4.1-1.3c2.9-0.4,0.6,2.6,0.6,5.4c0,2.8-0.6,6.8-0.6,6.8s-2,0-3.3-3
			C307.1,463.3,307.6,458.5,307.6,458.5"/>
	</g>
</g>
<g class="st22">
	<g>
		<defs>
			<rect id="SVGID_51_" x="352.5" y="462.5" width="59" height="65.5"/>
		</defs>
		<clipPath id="SVGID_52_">
			<use xlink:href="#SVGID_51_"  style="overflow:visible;"/>
		</clipPath>
		<defs>
			<filter id="Adobe_OpacityMaskFilter_7_" filterUnits="userSpaceOnUse" x="350.3" y="462.5" width="61.2" height="65.5">
				<feFlood  style="flood-color:white;flood-opacity:1" result="back"/>
				<feBlend  in="SourceGraphic" in2="back" mode="normal"/>
			</filter>
		</defs>
		<mask maskUnits="userSpaceOnUse" x="350.3" y="462.5" width="61.2" height="65.5" id="SVGID_53_">
			<g class="st39">
				<g class="st14">
					<g>
						<defs>
							<rect id="SVGID_54_" x="347.4" y="457.3" width="69.7" height="75.9"/>
						</defs>
						<clipPath id="SVGID_55_" class="st40">
							<use xlink:href="#SVGID_54_"  style="overflow:visible;"/>
						</clipPath>
						<g transform="matrix(1 0 0 1 0 0)" style="clip-path:url(#SVGID_55_);">
							
								<image style="overflow:visible;" width="113" height="123" xlink:href="4EB38E6DDBF9048.jpg"  transform="matrix(0.6168 0 0 0.6168 347.377 457.3408)">
							</image>
						</g>
					</g>
				</g>
			</g>
		</mask>
		<g class="st41">
			<g>
				<defs>
					<rect id="SVGID_56_" x="352.5" y="462.5" width="59" height="65.5"/>
				</defs>
				<clipPath id="SVGID_57_">
					<use xlink:href="#SVGID_56_"  style="overflow:visible;"/>
				</clipPath>
				<g class="st42">
					<defs>
						<path id="SVGID_58_" d="M375,505.5c9.2,9.7,8.4,10.7,19.9,21.9c0.2,0.2,0.4,0.4,0.6,0.6c1.7-1.8,3.4-3.7,5-5.6
							c0.1-0.1,0.2-0.3,0.3-0.4c1-1.5,2.1-2.9,3-4.4c2.8-4.4,5.4-9.1,7.7-13.8c-19.2-15-33.3-27-36.8-29.9
							c-4.6-3.8-13.7-11.4-13.7-11.4s-4.6,4.1-5.6,12.2c-1,8.2-5.1,7.9-1.3,12.5C357.9,491.7,365.8,495.8,375,505.5"/>
					</defs>
					<clipPath id="SVGID_59_">
						<use xlink:href="#SVGID_58_"  style="overflow:visible;"/>
					</clipPath>
					<defs>
						<filter id="Adobe_OpacityMaskFilter_8_" filterUnits="userSpaceOnUse" x="350.3" y="462.5" width="61.2" height="65.5">
							<feColorMatrix  type="matrix" values="1 0 0 0 0  0 1 0 0 0  0 0 1 0 0  0 0 0 1 0"/>
						</filter>
					</defs>
					<mask maskUnits="userSpaceOnUse" x="350.3" y="462.5" width="61.2" height="65.5" id="SVGID_53_">
						<g class="st43">
							
								<linearGradient id="SVGID_60_" gradientUnits="userSpaceOnUse" x1="-75.6727" y1="631.1614" x2="-73.1044" y2="631.1614" gradientTransform="matrix(50.8086 0 0 -50.8086 4197.2993 32563.6523)">
								<stop  offset="0" style="stop-color:#333333"/>
								<stop  offset="0.5079" style="stop-color:#333333"/>
								<stop  offset="0.642" style="stop-color:#535353"/>
								<stop  offset="0.7758" style="stop-color:#6C6C6C"/>
								<stop  offset="0.8986" style="stop-color:#7A7A7A"/>
								<stop  offset="1" style="stop-color:#808080"/>
							</linearGradient>
							<rect x="350.3" y="462.5" class="st44" width="61.2" height="65.5"/>
						</g>
					</mask>
					
						<linearGradient id="SVGID_61_" gradientUnits="userSpaceOnUse" x1="-75.6702" y1="631.1617" x2="-73.1019" y2="631.1617" gradientTransform="matrix(50.8086 0 0 -50.8086 4197.2993 32563.668)">
						<stop  offset="0" style="stop-color:#A87C4F"/>
						<stop  offset="0.5079" style="stop-color:#A87C4F"/>
						<stop  offset="0.521" style="stop-color:#A97F53"/>
						<stop  offset="0.6562" style="stop-color:#B69875"/>
						<stop  offset="0.7847" style="stop-color:#BFAA8D"/>
						<stop  offset="0.9026" style="stop-color:#C5B59C"/>
						<stop  offset="1" style="stop-color:#C7B9A1"/>
					</linearGradient>
					<rect x="350.3" y="462.5" class="st45" width="61.2" height="65.5"/>
				</g>
			</g>
		</g>
	</g>
</g>
<g class="st46">
	<g>
		<defs>
			<rect id="SVGID_62_" x="313.1" y="457.6" width="11.3" height="20.5"/>
		</defs>
		<clipPath id="SVGID_63_">
			<use xlink:href="#SVGID_62_"  style="overflow:visible;"/>
		</clipPath>
		<defs>
			<filter id="Adobe_OpacityMaskFilter_9_" filterUnits="userSpaceOnUse" x="313.1" y="457.6" width="11.3" height="20.5">
				<feFlood  style="flood-color:white;flood-opacity:1" result="back"/>
				<feBlend  in="SourceGraphic" in2="back" mode="normal"/>
			</filter>
		</defs>
		<mask maskUnits="userSpaceOnUse" x="313.1" y="457.6" width="11.3" height="20.5" id="SVGID_64_">
			<g class="st47">
				<g class="st14">
					<g>
						<defs>
							<rect id="SVGID_65_" x="307.9" y="452.5" width="21.6" height="30.8"/>
						</defs>
						<clipPath id="SVGID_66_" class="st48">
							<use xlink:href="#SVGID_65_"  style="overflow:visible;"/>
						</clipPath>
						<g transform="matrix(1 0 0 1 0 0)" style="clip-path:url(#SVGID_66_);">
							
								<image style="overflow:visible;" width="35" height="50" xlink:href="4EB38E6DDBF9056.jpg"  transform="matrix(0.6168 0 0 0.6168 307.9478 452.5049)">
							</image>
						</g>
					</g>
				</g>
			</g>
		</mask>
		<g class="st49">
			<g>
				<defs>
					<rect id="SVGID_67_" x="313.1" y="457.6" width="11.3" height="20.5"/>
				</defs>
				<clipPath id="SVGID_68_">
					<use xlink:href="#SVGID_67_"  style="overflow:visible;"/>
				</clipPath>
				<path class="st50" d="M317.2,463.2c0,0-1,3.8,2.3,7.4c3.3,3.6,4.8,6.1,4.8,6.1s-1.6,2.3-3.8,1c-2.3-1.2-4.1-1.5-5.6-4.6
					c-1.6-3.1-2.3-10-1.6-12.7c0.8-2.8,3.6-2.8,3.6-2.8S316.4,460.7,317.2,463.2"/>
			</g>
		</g>
	</g>
</g>
<defs>
	<filter id="Adobe_OpacityMaskFilter_10_" filterUnits="userSpaceOnUse" x="341.9" y="355.1" width="46.2" height="102">
		<feFlood  style="flood-color:white;flood-opacity:1" result="back"/>
		<feBlend  in="SourceGraphic" in2="back" mode="normal"/>
	</filter>
</defs>
<mask maskUnits="userSpaceOnUse" x="341.9" y="355.1" width="46.2" height="102" id="SVGID_69_">
	<g class="st51">
		<g class="st14">
			<g>
				<defs>
					<rect id="SVGID_70_" x="337.9" y="350" width="55.6" height="112.9"/>
				</defs>
				<clipPath id="SVGID_71_">
					<use xlink:href="#SVGID_70_"  style="overflow:visible;"/>
				</clipPath>
				<g transform="matrix(1 0 0 1 0 3.051758e-05)" style="clip-path:url(#SVGID_71_);">
					
						<image style="overflow:visible;" width="90" height="183" xlink:href="4EB38E6DDBF9059.jpg"  transform="matrix(0.6168 0 0 0.6168 337.8623 349.9941)">
					</image>
				</g>
			</g>
		</g>
	</g>
</mask>
<g class="st52">
	<g>
		<defs>
			<rect id="SVGID_72_" x="343" y="355.1" width="45.2" height="102"/>
		</defs>
		<clipPath id="SVGID_73_">
			<use xlink:href="#SVGID_72_"  style="overflow:visible;"/>
		</clipPath>
		<g class="st53">
			<defs>
				<path id="SVGID_74_" d="M358.7,457.1c2.4-5.2,7.8-8.5,12.9-10.7c3.4-1.5,6.8-2.7,10.4-3.8c2.1-0.6,4.6-1.2,6.2-3
					c-0.6-0.9-1-1.8-1.5-2.8l-2.3-5.1l3.8-0.5l-4-5.6c0,0,3-3.3,1.5-10.7c-1.5-7.4-3.3-7.6-5.3-18.1c-2.1-10.6-5.9-1-6.9-20.8
					c-0.9-16.3-1.8-18.6-5.4-19.5c-3.5-1-14-1.3-14-1.3s-1,2.8-5.4,2.2c-4.3-0.5-5.6-2-5.6-2s-1.2,4.6,3.6,8.8
					c4.8,4.4,6.8,5.9,9.1,4.4c2.3-1.6-0.5,0.7,1.8,3.1c2.3,2.2,5.6,0,2.3,2.2c-3.3,2.3-5.4,2-3.5,6.1c1.8,4.1-0.3,9.1,0.5,10.7
					c0.7,1.5,2.8,3.3,2.8,3.3s-3.3-2.5-4.3-1c-1,1.6-2.3,4.1-1.3,5.6c0.7,1.1,1.9,2.8,2.6,3.7c-0.9-1.2-2.9-3.5-3.9-1.9
					c-1.2,2-5.6,8.1-6.3,18.5c-0.7,10.5-1.3,15.1-0.7,20.6c0.5,5.6,1.2,7.9,0,9.4c-1.3,1.5-2.6,2.3-2.6,2.3s1.6,0.8,6.6,1.5
					C354.3,453.5,357.1,455,358.7,457.1"/>
			</defs>
			<clipPath id="SVGID_75_">
				<use xlink:href="#SVGID_74_"  style="overflow:visible;"/>
			</clipPath>
			<defs>
				<filter id="Adobe_OpacityMaskFilter_11_" filterUnits="userSpaceOnUse" x="341.9" y="355.1" width="46.2" height="102">
					<feColorMatrix  type="matrix" values="1 0 0 0 0  0 1 0 0 0  0 0 1 0 0  0 0 0 1 0"/>
				</filter>
			</defs>
			<mask maskUnits="userSpaceOnUse" x="341.9" y="355.1" width="46.2" height="102" id="SVGID_69_">
				<g class="st54">
					
						<linearGradient id="SVGID_76_" gradientUnits="userSpaceOnUse" x1="-65.897" y1="628.9208" x2="-63.3307" y2="628.9208" gradientTransform="matrix(17.5792 0 0 -17.5792 1501.472 11462.041)">
						<stop  offset="0" style="stop-color:#808080"/>
						<stop  offset="0.1365" style="stop-color:#606060"/>
						<stop  offset="0.2775" style="stop-color:#474747"/>
						<stop  offset="0.4063" style="stop-color:#383838"/>
						<stop  offset="0.5109" style="stop-color:#333333"/>
						<stop  offset="0.6327" style="stop-color:#373737"/>
						<stop  offset="0.7405" style="stop-color:#414141"/>
						<stop  offset="0.8429" style="stop-color:#535353"/>
						<stop  offset="0.9415" style="stop-color:#6D6D6D"/>
						<stop  offset="1" style="stop-color:#808080"/>
					</linearGradient>
					<rect x="341.9" y="355.1" class="st55" width="46.2" height="102"/>
				</g>
			</mask>
			
				<linearGradient id="SVGID_77_" gradientUnits="userSpaceOnUse" x1="-65.8961" y1="628.9218" x2="-63.3298" y2="628.9218" gradientTransform="matrix(17.5792 0 0 -17.5792 1501.4565 11462.0566)">
				<stop  offset="0" style="stop-color:#C7B9A1"/>
				<stop  offset="7.175570e-03" style="stop-color:#C6B89F"/>
				<stop  offset="0.151" style="stop-color:#B99E7C"/>
				<stop  offset="0.2869" style="stop-color:#B08B63"/>
				<stop  offset="0.4105" style="stop-color:#AA8054"/>
				<stop  offset="0.5109" style="stop-color:#A87C4F"/>
				<stop  offset="0.629" style="stop-color:#A97F53"/>
				<stop  offset="0.7334" style="stop-color:#AD875D"/>
				<stop  offset="0.8327" style="stop-color:#B4946F"/>
				<stop  offset="0.9282" style="stop-color:#BEA789"/>
				<stop  offset="1" style="stop-color:#C7B9A1"/>
			</linearGradient>
			<rect x="341.9" y="355.1" class="st56" width="46.2" height="102"/>
		</g>
	</g>
</g>
<g class="st57">
	<g>
		<defs>
			<rect id="SVGID_78_" x="371.4" y="391" width="7.8" height="11.2"/>
		</defs>
		<clipPath id="SVGID_79_">
			<use xlink:href="#SVGID_78_"  style="overflow:visible;"/>
		</clipPath>
		<defs>
			<filter id="Adobe_OpacityMaskFilter_12_" filterUnits="userSpaceOnUse" x="371.4" y="391" width="7.8" height="11.2">
				<feFlood  style="flood-color:white;flood-opacity:1" result="back"/>
				<feBlend  in="SourceGraphic" in2="back" mode="normal"/>
			</filter>
		</defs>
		<mask maskUnits="userSpaceOnUse" x="371.4" y="391" width="7.8" height="11.2" id="SVGID_80_">
			<g class="st58">
				<g class="st14">
					<g>
						<defs>
							<rect id="SVGID_81_" x="366.3" y="385.8" width="18.5" height="21.6"/>
						</defs>
						<clipPath id="SVGID_82_" class="st59">
							<use xlink:href="#SVGID_81_"  style="overflow:visible;"/>
						</clipPath>
						<g transform="matrix(1 0 0 1 0 3.051758e-05)" style="clip-path:url(#SVGID_82_);">
							
								<image style="overflow:visible;" width="30" height="35" xlink:href="4EB38E6DDBF905A.jpg"  transform="matrix(0.6168 0 0 0.6168 366.2852 385.8389)">
							</image>
						</g>
					</g>
				</g>
			</g>
		</mask>
		<g class="st60">
			<g>
				<defs>
					<rect id="SVGID_83_" x="371.4" y="391" width="7.8" height="11.2"/>
				</defs>
				<clipPath id="SVGID_84_">
					<use xlink:href="#SVGID_83_"  style="overflow:visible;"/>
				</clipPath>
				<path class="st61" d="M371.4,391c0,0,5.9,0.8,6.3,2c0.6,1.3,2.3,3.1,1,5.4c-1.2,2.2-6.1,3.8-6.1,3.8s-1.3-2.3-1.3-5.9V391z"/>
			</g>
		</g>
	</g>
</g>
<g class="st11">
	<g>
		<defs>
			<rect id="SVGID_85_" x="358.1" y="356.4" width="13.8" height="13.7"/>
		</defs>
		<clipPath id="SVGID_86_">
			<use xlink:href="#SVGID_85_"  style="overflow:visible;"/>
		</clipPath>
		<defs>
			<filter id="Adobe_OpacityMaskFilter_13_" filterUnits="userSpaceOnUse" x="358.1" y="356.4" width="13.8" height="13.7">
				<feFlood  style="flood-color:white;flood-opacity:1" result="back"/>
				<feBlend  in="SourceGraphic" in2="back" mode="normal"/>
			</filter>
		</defs>
		<mask maskUnits="userSpaceOnUse" x="358.1" y="356.4" width="13.8" height="13.7" id="SVGID_87_">
			<g class="st62">
				<g class="st14">
					<g>
						<defs>
							<rect id="SVGID_88_" x="352.9" y="351.2" width="24.1" height="24.1"/>
						</defs>
						<clipPath id="SVGID_89_" class="st63">
							<use xlink:href="#SVGID_88_"  style="overflow:visible;"/>
						</clipPath>
						<g transform="matrix(1 0 0 1 0 0)" style="clip-path:url(#SVGID_89_);">
							
								<image style="overflow:visible;" width="39" height="39" xlink:href="4EB38E6DDBF9058.jpg"  transform="matrix(0.6168 0 0 0.6168 352.9365 351.2061)">
							</image>
						</g>
					</g>
				</g>
			</g>
		</mask>
		<g class="st64">
			<g>
				<defs>
					<rect id="SVGID_90_" x="358.1" y="356.4" width="13.8" height="13.7"/>
				</defs>
				<clipPath id="SVGID_91_">
					<use xlink:href="#SVGID_90_"  style="overflow:visible;"/>
				</clipPath>
				<path class="st65" d="M361.7,356.7c0,0,5.1-1.2,7.5,0.7c2.6,1.9,1.8,2.1,2.5,5c0.9,3.4-11.6,7.6-11.6,7.6s-0.2-2.4-1.8-2.8
					C356.8,367,361.7,356.7,361.7,356.7"/>
			</g>
		</g>
	</g>
</g>
<g>
	<defs>
		<path id="SVGID_92_" d="M293.6,461c-10.1-0.4-16-1-16-1s-1.3,3.1-0.2,6.1c1,3,2,3.3,7.1,5.1c5.1,1.8,9.2,3.3,12.5,4.8
			c3.3,1.5,5.1,3.8,5.1,3.8s2.8-0.2,8.7,0c5.9,0.2,6.6-0.8,6.6-0.8s-6.6-5.3-8.1-10.7c-1.6-5.4-1.6-9.8-1.6-9.8
			S304.7,461.5,293.6,461"/>
	</defs>
	<clipPath id="SVGID_93_">
		<use xlink:href="#SVGID_92_"  style="overflow:visible;"/>
	</clipPath>
	<defs>
		<filter id="Adobe_OpacityMaskFilter_14_" filterUnits="userSpaceOnUse" x="276.3" y="458.6" width="40.9" height="21.5">
			<feColorMatrix  type="matrix" values="1 0 0 0 0  0 1 0 0 0  0 0 1 0 0  0 0 0 1 0"/>
		</filter>
	</defs>
	<mask maskUnits="userSpaceOnUse" x="276.3" y="458.6" width="40.9" height="21.5" id="SVGID_94_">
		<g class="st66">
			
				<linearGradient id="SVGID_95_" gradientUnits="userSpaceOnUse" x1="-97.2127" y1="605.4729" x2="-94.6475" y2="605.4729" gradientTransform="matrix(0 -8.2949 -8.2949 0 5319.0586 -326.4689)">
				<stop  offset="0" style="stop-color:#FFFFFF"/>
				<stop  offset="8.697660e-03" style="stop-color:#FFFFFF"/>
				<stop  offset="0.2049" style="stop-color:#FBFBFB"/>
				<stop  offset="0.3784" style="stop-color:#F1F1F1"/>
				<stop  offset="0.5434" style="stop-color:#DFDFDF"/>
				<stop  offset="0.703" style="stop-color:#C5C5C5"/>
				<stop  offset="0.8574" style="stop-color:#A5A5A5"/>
				<stop  offset="1" style="stop-color:#808080"/>
			</linearGradient>
			<rect x="276.3" y="458.6" class="st67" width="40.9" height="21.5"/>
		</g>
	</mask>
	
		<linearGradient id="SVGID_96_" gradientUnits="userSpaceOnUse" x1="-97.2127" y1="605.4729" x2="-94.6475" y2="605.4729" gradientTransform="matrix(0 -8.2949 -8.2949 0 5319.0586 -326.4689)">
		<stop  offset="0" style="stop-color:#E0E07A"/>
		<stop  offset="8.697660e-03" style="stop-color:#E0E07A"/>
		<stop  offset="0.2564" style="stop-color:#DEDC78"/>
		<stop  offset="0.4755" style="stop-color:#D7D273"/>
		<stop  offset="0.6836" style="stop-color:#CCC06A"/>
		<stop  offset="0.884" style="stop-color:#BDA65D"/>
		<stop  offset="1" style="stop-color:#B29454"/>
	</linearGradient>
	<rect x="276.3" y="458.6" class="st68" width="40.9" height="21.5"/>
</g>
<g class="st46">
	<g>
		<defs>
			<rect id="SVGID_97_" x="291.7" y="461.2" width="6" height="9.7"/>
		</defs>
		<clipPath id="SVGID_98_">
			<use xlink:href="#SVGID_97_"  style="overflow:visible;"/>
		</clipPath>
		<defs>
			<filter id="Adobe_OpacityMaskFilter_15_" filterUnits="userSpaceOnUse" x="291.7" y="461.2" width="7.2" height="9.7">
				<feFlood  style="flood-color:white;flood-opacity:1" result="back"/>
				<feBlend  in="SourceGraphic" in2="back" mode="normal"/>
			</filter>
		</defs>
		<mask maskUnits="userSpaceOnUse" x="291.7" y="461.2" width="7.2" height="9.7" id="SVGID_99_">
			<g class="st69">
				<g class="st14">
					<g>
						<defs>
							<rect id="SVGID_100_" x="286.5" y="456" width="16.7" height="20.4"/>
						</defs>
						<clipPath id="SVGID_101_" class="st70">
							<use xlink:href="#SVGID_100_"  style="overflow:visible;"/>
						</clipPath>
						<g transform="matrix(1 0 0 1 0 3.051758e-05)" style="clip-path:url(#SVGID_101_);">
							
								<image style="overflow:visible;" width="27" height="33" xlink:href="B5FF395E0CAFDB0D.jpg"  transform="matrix(0.6168 0 0 0.6168 286.5347 456.0293)">
							</image>
						</g>
					</g>
				</g>
			</g>
		</mask>
		<g class="st71">
			<g>
				<defs>
					<rect id="SVGID_102_" x="291.7" y="461.2" width="6" height="9.7"/>
				</defs>
				<clipPath id="SVGID_103_">
					<use xlink:href="#SVGID_102_"  style="overflow:visible;"/>
				</clipPath>
				<g class="st72">
					<defs>
						<path id="SVGID_104_" d="M291.7,461.2c0,0,1.8,0.3,2,3.8c0.3,3.6,1,5.6,1,5.6l2,0.2c0,0,2-5.3-0.3-7.4
							C294.2,461.4,291.7,461.2,291.7,461.2"/>
					</defs>
					<clipPath id="SVGID_105_">
						<use xlink:href="#SVGID_104_"  style="overflow:visible;"/>
					</clipPath>
					<defs>
						<filter id="Adobe_OpacityMaskFilter_16_" filterUnits="userSpaceOnUse" x="291.7" y="461.2" width="7.2" height="9.7">
							<feColorMatrix  type="matrix" values="1 0 0 0 0  0 1 0 0 0  0 0 1 0 0  0 0 0 1 0"/>
						</filter>
					</defs>
					<mask maskUnits="userSpaceOnUse" x="291.7" y="461.2" width="7.2" height="9.7" id="SVGID_99_">
						<g class="st73">
							
								<linearGradient id="SVGID_106_" gradientUnits="userSpaceOnUse" x1="-48.1638" y1="696.9041" x2="-45.5919" y2="696.9041" gradientTransform="matrix(0 3.7614 3.7614 0 -2326.0854 642.3273)">
								<stop  offset="0" style="stop-color:#FFFFFF"/>
								<stop  offset="8.697660e-03" style="stop-color:#FFFFFF"/>
								<stop  offset="0.2049" style="stop-color:#FBFBFB"/>
								<stop  offset="0.3784" style="stop-color:#F1F1F1"/>
								<stop  offset="0.5434" style="stop-color:#DFDFDF"/>
								<stop  offset="0.703" style="stop-color:#C5C5C5"/>
								<stop  offset="0.8574" style="stop-color:#A5A5A5"/>
								<stop  offset="1" style="stop-color:#808080"/>
							</linearGradient>
							<rect x="291.7" y="461.2" class="st74" width="7.2" height="9.7"/>
						</g>
					</mask>
					
						<linearGradient id="SVGID_107_" gradientUnits="userSpaceOnUse" x1="-48.1648" y1="696.903" x2="-45.5929" y2="696.903" gradientTransform="matrix(0 3.7614 3.7614 0 -2326.0815 642.3312)">
						<stop  offset="0" style="stop-color:#3B2314"/>
						<stop  offset="8.697660e-03" style="stop-color:#3B2314"/>
						<stop  offset="0.2111" style="stop-color:#3F2616"/>
						<stop  offset="0.3901" style="stop-color:#49311C"/>
						<stop  offset="0.5603" style="stop-color:#5B4225"/>
						<stop  offset="0.725" style="stop-color:#755A33"/>
						<stop  offset="0.8843" style="stop-color:#957945"/>
						<stop  offset="1" style="stop-color:#B29454"/>
					</linearGradient>
					<rect x="291.7" y="461.2" class="st75" width="7.2" height="9.7"/>
				</g>
			</g>
		</g>
	</g>
</g>
<defs>
	<filter id="Adobe_OpacityMaskFilter_17_" filterUnits="userSpaceOnUse" x="263.4" y="450.9" width="18.4" height="18.1">
		<feFlood  style="flood-color:white;flood-opacity:1" result="back"/>
		<feBlend  in="SourceGraphic" in2="back" mode="normal"/>
	</filter>
</defs>
<mask maskUnits="userSpaceOnUse" x="263.4" y="450.9" width="18.4" height="18.1" id="SVGID_108_">
	<g class="st76">
		<g class="st14">
			<g>
				<defs>
					<rect id="SVGID_109_" x="262" y="450.5" width="21.6" height="19.1"/>
				</defs>
				<clipPath id="SVGID_110_">
					<use xlink:href="#SVGID_109_"  style="overflow:visible;"/>
				</clipPath>
				<g transform="matrix(1 0 0 1 0 0)" style="clip-path:url(#SVGID_110_);">
					
						<image style="overflow:visible;" width="35" height="31" xlink:href="B5FF395E0CAFDB03.jpg"  transform="matrix(0.6168 0 0 0.6168 261.9609 450.541)">
					</image>
				</g>
			</g>
		</g>
	</g>
</mask>
<g class="st77">
	<g>
		<defs>
			<rect id="SVGID_111_" x="267.1" y="455.7" width="10.9" height="8.6"/>
		</defs>
		<clipPath id="SVGID_112_">
			<use xlink:href="#SVGID_111_"  style="overflow:visible;"/>
		</clipPath>
		<g class="st78">
			<defs>
				<path id="SVGID_113_" d="M267.1,455.7c0,0,4,1.1,5.8,1.6c2.1,0.6,5.1,0.9,5.1,0.9s-1,2.4-1.2,3.5c-0.1,1-0.1,2.5-0.1,2.5
					s-1.9-1.7-4.1-3.6C270.5,458.8,267.1,455.7,267.1,455.7"/>
			</defs>
			<clipPath id="SVGID_114_">
				<use xlink:href="#SVGID_113_"  style="overflow:visible;"/>
			</clipPath>
			<defs>
				<filter id="Adobe_OpacityMaskFilter_18_" filterUnits="userSpaceOnUse" x="263.4" y="450.9" width="18.4" height="18.1">
					<feColorMatrix  type="matrix" values="1 0 0 0 0  0 1 0 0 0  0 0 1 0 0  0 0 0 1 0"/>
				</filter>
			</defs>
			<mask maskUnits="userSpaceOnUse" x="263.4" y="450.9" width="18.4" height="18.1" id="SVGID_108_">
				<g class="st79">
					
						<linearGradient id="SVGID_115_" gradientUnits="userSpaceOnUse" x1="-84.2612" y1="744.685" x2="-81.6826" y2="744.685" gradientTransform="matrix(-1.1459 1.9848 1.9848 1.1459 -1299.8987 -229.8268)">
						<stop  offset="0" style="stop-color:#FFFFFF"/>
						<stop  offset="8.697660e-03" style="stop-color:#FFFFFF"/>
						<stop  offset="4.587926e-02" style="stop-color:#F7F7F7"/>
						<stop  offset="0.2594" style="stop-color:#CCCCCC"/>
						<stop  offset="0.4668" style="stop-color:#ABABAB"/>
						<stop  offset="0.6639" style="stop-color:#939393"/>
						<stop  offset="0.8464" style="stop-color:#848484"/>
						<stop  offset="1" style="stop-color:#808080"/>
					</linearGradient>
					<polygon class="st80" points="281.8,457.8 275.3,469 263.4,462.1 269.8,450.9 					"/>
				</g>
			</mask>
			
				<linearGradient id="SVGID_116_" gradientUnits="userSpaceOnUse" x1="-84.2612" y1="744.685" x2="-81.6826" y2="744.685" gradientTransform="matrix(-1.1459 1.9848 1.9848 1.1459 -1299.8987 -229.8268)">
				<stop  offset="0" style="stop-color:#3B2314"/>
				<stop  offset="8.697660e-03" style="stop-color:#3B2314"/>
				<stop  offset="0.2295" style="stop-color:#654B2B"/>
				<stop  offset="0.4453" style="stop-color:#876B3D"/>
				<stop  offset="0.6504" style="stop-color:#9F824A"/>
				<stop  offset="0.8402" style="stop-color:#AD8F51"/>
				<stop  offset="1" style="stop-color:#B29454"/>
			</linearGradient>
			<polygon class="st81" points="281.8,457.8 275.3,469 263.4,462.1 269.8,450.9 			"/>
		</g>
	</g>
</g>
<g class="st17">
	<g>
		<defs>
			<rect id="SVGID_117_" x="213.6" y="360.1" width="97.6" height="70.6"/>
		</defs>
		<clipPath id="SVGID_118_">
			<use xlink:href="#SVGID_117_"  style="overflow:visible;"/>
		</clipPath>
		<path class="st82" d="M238,361.5l16,19.3c0,0,13.9-5,18.6-8c4.8-3,8.7-5.4,8.7-5.4l28,16l0.7,31.4c0,0-24.9,14.6-26.1,14.7
			c-1.2,0.1-16.5-4.1-22-8.7c-5.5-4.5-6.7-6-6.7-6l-17.3,9.3c0,0-7.8-4.6-14-11.4c-6.2-6.8-10.4-24.4-8.7-32c1.7-7.5,4-12,4-12
			s2.6-2.4,8-4.7C232.6,361.9,238,361.5,238,361.5"/>
		<path class="st83" d="M238,361.5l16,19.3c0,0,13.9-5,18.6-8c4.8-3,8.7-5.4,8.7-5.4l28,16l0.7,31.4c0,0-24.9,14.6-26.1,14.7
			c-1.2,0.1-16.5-4.1-22-8.7c-5.5-4.5-6.7-6-6.7-6l-17.3,9.3c0,0-7.8-4.6-14-11.4c-6.2-6.8-10.4-24.4-8.7-32c1.7-7.5,4-12,4-12
			s2.6-2.4,8-4.7C232.6,361.9,238,361.5,238,361.5z"/>
	</g>
</g>
<defs>
	<filter id="Adobe_OpacityMaskFilter_19_" filterUnits="userSpaceOnUse" x="216.6" y="363.5" width="91.2" height="64.1">
		<feFlood  style="flood-color:white;flood-opacity:1" result="back"/>
		<feBlend  in="SourceGraphic" in2="back" mode="normal"/>
	</filter>
</defs>
<mask maskUnits="userSpaceOnUse" x="216.6" y="363.5" width="91.2" height="64.1" id="SVGID_119_">
	<g class="st84">
		<g class="st14">
			<g>
				<defs>
					<rect id="SVGID_120_" x="211.4" y="358.4" width="101.8" height="74.6"/>
				</defs>
				<clipPath id="SVGID_121_">
					<use xlink:href="#SVGID_120_"  style="overflow:visible;"/>
				</clipPath>
				<g transform="matrix(1 0 0 1 0 0)" style="clip-path:url(#SVGID_121_);">
					
						<image style="overflow:visible;" width="165" height="121" xlink:href="B5FF395E0CAFDB05.jpg"  transform="matrix(0.6168 0 0 0.6168 211.4409 358.3506)">
					</image>
				</g>
			</g>
		</g>
	</g>
</mask>
<g class="st85">
	<g>
		<defs>
			<rect id="SVGID_122_" x="216.6" y="363.5" width="91.2" height="64.1"/>
		</defs>
		<clipPath id="SVGID_123_">
			<use xlink:href="#SVGID_122_"  style="overflow:visible;"/>
		</clipPath>
		<path class="st86" d="M283.5,427.6c-2.4-0.4-15.7-4.2-20.5-8.2c-5.1-4.2-6.3-5.7-6.4-5.7l-1-1.2l-1.3,0.7l-16.4,8.8
			c-2.2-1.4-7.9-5.3-12.6-10.4c-5.8-6.3-9.8-23.4-8.2-30.3c1.4-6,3.2-10.1,3.7-11.3c0.7-0.6,3.2-2.4,7.2-4.1
			c3.7-1.5,7.4-2.2,9.1-2.4l16.2,19.5l1.2-0.4c0.6-0.2,14.2-5,19.1-8.2c3.3-2.1,6.2-3.9,7.7-4.7l26.1,14.9l0.6,29.2
			C299.1,418.9,285.9,426.4,283.5,427.6"/>
	</g>
</g>
<g class="st17">
	<g>
		<defs>
			<rect id="SVGID_124_" x="250.6" y="295.3" width="80.2" height="43.5"/>
		</defs>
		<clipPath id="SVGID_125_">
			<use xlink:href="#SVGID_124_"  style="overflow:visible;"/>
		</clipPath>
		<path class="st87" d="M254,333.5c0,0,6.3,0.7,12,1.3c5.7,0.7,14,4,14,4s7.3-5.4,12.7-8.7c5.3-3.4,13.2-5.4,13.2-5.4l0.7-19.6
			c0,0,4.8-0.9,10.7,0.3c5.9,1.3,13.5,3.6,13.5,3.6l-1.6-3.7c0,0-15-8.2-30.1-9.7c-13.3-1.3-20.7,0.9-20.7,0.9l-0.7,2.4
			c0,0-14,4.2-17.8,6.5c-3.9,2.3-9,10.1-9.4,12.7C250.3,320.8,254,333.5,254,333.5"/>
	</g>
</g>
<g class="st17">
	<g>
		<defs>
			<rect id="SVGID_126_" x="251" y="444.8" width="57.6" height="14.7"/>
		</defs>
		<clipPath id="SVGID_127_">
			<use xlink:href="#SVGID_126_"  style="overflow:visible;"/>
		</clipPath>
		<path class="st88" d="M292.1,459.5c6.9,0.2,16.5-2.7,16.5-2.7l-1.4-1.4c0,0-6.3-0.5-14-2c-7.6-1.5-12-5.4-12-5.4
			s-8.4,0.8-16.7,1.3c-8.3,0.6-12.6-4.6-12.6-4.6l-0.5,1.8c0,0-0.7,1.1-0.2,2c0.5,0.9,1.5,2.4,6.1,3.7c0,0,10.1,4.7,18.4,5.8
			L292.1,459.5z"/>
	</g>
</g>
<g class="st22">
	<g>
		<defs>
			<rect id="SVGID_128_" x="338.3" y="346.3" width="15.8" height="10.4"/>
		</defs>
		<clipPath id="SVGID_129_">
			<use xlink:href="#SVGID_128_"  style="overflow:visible;"/>
		</clipPath>
		<defs>
			<filter id="Adobe_OpacityMaskFilter_20_" filterUnits="userSpaceOnUse" x="338" y="346.2" width="16.6" height="11">
				<feFlood  style="flood-color:white;flood-opacity:1" result="back"/>
				<feBlend  in="SourceGraphic" in2="back" mode="normal"/>
			</filter>
		</defs>
		<mask maskUnits="userSpaceOnUse" x="338" y="346.2" width="16.6" height="11" id="SVGID_130_">
			<g class="st89">
				<g class="st14">
					<g>
						<defs>
							<rect id="SVGID_131_" x="333.2" y="341.2" width="26.5" height="21"/>
						</defs>
						<clipPath id="SVGID_132_" class="st90">
							<use xlink:href="#SVGID_131_"  style="overflow:visible;"/>
						</clipPath>
						<g transform="matrix(1 0 0 1 0 0)" style="clip-path:url(#SVGID_132_);">
							
								<image style="overflow:visible;" width="43" height="34" xlink:href="B5FF395E0CAFDB07.jpg"  transform="matrix(0.6168 0 0 0.6168 333.168 341.2061)">
							</image>
						</g>
					</g>
				</g>
			</g>
		</mask>
		<g class="st91">
			<g>
				<defs>
					<rect id="SVGID_133_" x="338.3" y="346.3" width="15.8" height="10.4"/>
				</defs>
				<clipPath id="SVGID_134_">
					<use xlink:href="#SVGID_133_"  style="overflow:visible;"/>
				</clipPath>
				<g class="st92">
					<defs>
						<path id="SVGID_135_" d="M354,354.1c0,0-0.5,2.2-2.6,2.6c-2.2,0.4-5.5-1.3-7.7-3.2c0,0-4.7-3-5.2-3.5
							c-0.4-0.6,1.5-2.3,1.9-3.1c0.6-0.8,1-0.8,2.3,0c1.3,0.8,4.3,2.8,6.3,3.8c2.5,1.3,4.6,2.4,4.6,2.4S354.6,353.3,354,354.1"/>
					</defs>
					<clipPath id="SVGID_136_">
						<use xlink:href="#SVGID_135_"  style="overflow:visible;"/>
					</clipPath>
					<defs>
						<filter id="Adobe_OpacityMaskFilter_21_" filterUnits="userSpaceOnUse" x="338" y="346.2" width="16.6" height="11">
							<feColorMatrix  type="matrix" values="1 0 0 0 0  0 1 0 0 0  0 0 1 0 0  0 0 0 1 0"/>
						</filter>
					</defs>
					<mask maskUnits="userSpaceOnUse" x="338" y="346.2" width="16.6" height="11" id="SVGID_130_">
						<g class="st93">
							
								<linearGradient id="SVGID_137_" gradientUnits="userSpaceOnUse" x1="-95.5783" y1="568.3607" x2="-93.013" y2="568.3607" gradientTransform="matrix(0 -4.0689 -4.0689 0 2658.8789 -32.1005)">
								<stop  offset="0" style="stop-color:#FFFFFF"/>
								<stop  offset="8.697660e-03" style="stop-color:#FFFFFF"/>
								<stop  offset="9.399275e-02" style="stop-color:#F0F0F0"/>
								<stop  offset="0.3888" style="stop-color:#C0C0C0"/>
								<stop  offset="0.6488" style="stop-color:#9D9D9D"/>
								<stop  offset="0.8614" style="stop-color:#878787"/>
								<stop  offset="1" style="stop-color:#808080"/>
							</linearGradient>
							<rect x="338" y="346.2" class="st94" width="16.6" height="11"/>
						</g>
					</mask>
					
						<linearGradient id="SVGID_138_" gradientUnits="userSpaceOnUse" x1="-95.5783" y1="568.3607" x2="-93.013" y2="568.3607" gradientTransform="matrix(0 -4.0689 -4.0689 0 2658.8789 -32.1005)">
						<stop  offset="0" style="stop-color:#FFFFFF"/>
						<stop  offset="8.697660e-03" style="stop-color:#FFFFFF"/>
						<stop  offset="0.2604" style="stop-color:#E5DBC5"/>
						<stop  offset="0.5025" style="stop-color:#CFBC94"/>
						<stop  offset="0.7141" style="stop-color:#BFA671"/>
						<stop  offset="0.8872" style="stop-color:#B5995C"/>
						<stop  offset="1" style="stop-color:#B29454"/>
					</linearGradient>
					<rect x="338" y="346.2" class="st95" width="16.6" height="11"/>
				</g>
			</g>
		</g>
	</g>
</g>
<g class="st96">
	<g>
		<defs>
			<rect id="SVGID_139_" x="356.6" y="423.3" width="22.2" height="21.7"/>
		</defs>
		<clipPath id="SVGID_140_">
			<use xlink:href="#SVGID_139_"  style="overflow:visible;"/>
		</clipPath>
		<defs>
			<filter id="Adobe_OpacityMaskFilter_22_" filterUnits="userSpaceOnUse" x="356.6" y="423.3" width="22.2" height="21.7">
				<feFlood  style="flood-color:white;flood-opacity:1" result="back"/>
				<feBlend  in="SourceGraphic" in2="back" mode="normal"/>
			</filter>
		</defs>
		<mask maskUnits="userSpaceOnUse" x="356.6" y="423.3" width="22.2" height="21.7" id="SVGID_141_">
			<g class="st97">
				<g class="st14">
					<g>
						<defs>
							<rect id="SVGID_142_" x="351.5" y="418.2" width="32.7" height="32.1"/>
						</defs>
						<clipPath id="SVGID_143_" class="st98">
							<use xlink:href="#SVGID_142_"  style="overflow:visible;"/>
						</clipPath>
						<g transform="matrix(1 0 0 1 0 0)" style="clip-path:url(#SVGID_143_);">
							
								<image style="overflow:visible;" width="53" height="52" xlink:href="B5FF395E0CAFDB04.jpg"  transform="matrix(0.6168 0 0 0.6168 351.4814 418.1787)">
							</image>
						</g>
					</g>
				</g>
			</g>
		</mask>
		<g class="st99">
			<g>
				<defs>
					<rect id="SVGID_144_" x="356.6" y="423.3" width="22.2" height="21.7"/>
				</defs>
				<clipPath id="SVGID_145_">
					<use xlink:href="#SVGID_144_"  style="overflow:visible;"/>
				</clipPath>
				<path class="st100" d="M370.1,423.3c0,0,4.1,1,6.9,1c2.8,0,1.8,6.9,0.5,11.4c-1.3,4.6-1.3,5.6-1.3,5.6s-1,0.7-8.4,2.8
					c-7.4,2-13.5,0.7-10.5-5.1C360.4,433.2,370.1,423.3,370.1,423.3"/>
			</g>
		</g>
	</g>
</g>
<g class="st101">
	<g>
		<defs>
			<rect id="SVGID_146_" x="334.4" y="388.8" width="20.9" height="47.7"/>
		</defs>
		<clipPath id="SVGID_147_">
			<use xlink:href="#SVGID_146_"  style="overflow:visible;"/>
		</clipPath>
		<path class="st102" d="M351.3,390.8c0,0-1.9,11.1-7.6,18.2c-5.7,7-9.3,9.8-9.3,9.8s4,12.2,4.6,17.5c0,0,0,0.1,0,0.1
			c0.1,0,0.3,0.1,0.3,0.2c0.1,0,0.1-0.1,0.1-0.1c1.6-3.5,2.8-5.8,3.7-10.3c0.1-0.5,0.9-1.5,1-2c0.1-1.3,0-2.3,0.4-3.5
			c0.2-0.5-0.1-1.3,0.1-1.8c0-0.2,0-0.4,0-0.7c0.8-8.5,3.8-15.5,7.6-22.4c1.3-2.3,2.5-5.2,2.9-7L351.3,390.8z"/>
	</g>
</g>
<defs>
	<filter id="Adobe_OpacityMaskFilter_23_" filterUnits="userSpaceOnUse" x="252.7" y="297.5" width="72.5" height="39.5">
		<feFlood  style="flood-color:white;flood-opacity:1" result="back"/>
		<feBlend  in="SourceGraphic" in2="back" mode="normal"/>
	</filter>
</defs>
<mask maskUnits="userSpaceOnUse" x="252.7" y="297.5" width="72.5" height="39.5" id="SVGID_148_">
	<g class="st103">
		<g class="st14">
			<g>
				<defs>
					<rect id="SVGID_149_" x="247.6" y="292.3" width="83.2" height="50"/>
				</defs>
				<clipPath id="SVGID_150_">
					<use xlink:href="#SVGID_149_"  style="overflow:visible;"/>
				</clipPath>
				<g transform="matrix(1 0 0 1 0 0)" style="clip-path:url(#SVGID_150_);">
					
						<image style="overflow:visible;" width="135" height="81" xlink:href="B5FF395E0CAFDB1C.jpg"  transform="matrix(0.6168 0 0 0.6168 247.584 292.2607)">
					</image>
				</g>
			</g>
		</g>
	</g>
</mask>
<g class="st104">
	<g>
		<defs>
			<rect id="SVGID_151_" x="252.7" y="297.5" width="72.5" height="39.5"/>
		</defs>
		<clipPath id="SVGID_152_">
			<use xlink:href="#SVGID_151_"  style="overflow:visible;"/>
		</clipPath>
		<path class="st105" d="M279.9,336.9c-2.4-0.9-8.8-3.2-13.5-3.8c-4.2-0.5-8.6-1-10.8-1.2c-1.6-5.7-3.1-12-2.9-13.3
			c0.2-1.9,5-9.2,8.4-11.3c3-1.8,13.6-5.2,17.5-6.3l1-0.3l0.6-2.3c1.6-0.3,5.4-0.9,10.8-0.9c2.6,0,5.3,0.1,8.1,0.3
			c10.4,1,21,5.4,26.1,7.9c-2.3-0.7-5-1.3-7.4-1.9c-2.2-0.4-4.4-0.6-6.6-0.6c-2.8,0-4.7,0.3-4.8,0.3l-1.5,0.3l-0.7,19.8
			c-2.5,0.7-8.3,2.5-12.5,5.2C287.5,331.5,282,335.4,279.9,336.9"/>
	</g>
</g>
<defs>
	<filter id="Adobe_OpacityMaskFilter_24_" filterUnits="userSpaceOnUse" x="253.4" y="448.6" width="47.6" height="9.2">
		<feFlood  style="flood-color:white;flood-opacity:1" result="back"/>
		<feBlend  in="SourceGraphic" in2="back" mode="normal"/>
	</filter>
</defs>
<mask maskUnits="userSpaceOnUse" x="253.4" y="448.6" width="47.6" height="9.2" id="SVGID_153_">
	<g class="st106">
		<g class="st14">
			<g>
				<defs>
					<rect id="SVGID_154_" x="248.2" y="443.4" width="57.9" height="19.8"/>
				</defs>
				<clipPath id="SVGID_155_">
					<use xlink:href="#SVGID_154_"  style="overflow:visible;"/>
				</clipPath>
				<g transform="matrix(1 0 0 1 1.525879e-05 0)" style="clip-path:url(#SVGID_155_);">
					
						<image style="overflow:visible;" width="94" height="32" xlink:href="B5FF395E0CAFDB1D.jpg"  transform="matrix(0.6168 0 0 0.6168 248.2441 443.4355)">
					</image>
				</g>
			</g>
		</g>
	</g>
</mask>
<g class="st107">
	<g>
		<defs>
			<rect id="SVGID_156_" x="253.4" y="448.6" width="47.6" height="9.2"/>
		</defs>
		<clipPath id="SVGID_157_">
			<use xlink:href="#SVGID_156_"  style="overflow:visible;"/>
		</clipPath>
		<path class="st108" d="M292.3,457.8l-16.4-1.3c-7.6-1-16.9-5.2-17.7-5.6c1.5,0.4,3.3,0.7,5.2,0.7c0.5,0,0.9,0,1.4-0.1
			c6.8-0.4,13.7-1,16-1.2c1.6,1.2,5.8,4,12.2,5.2c3,0.6,5.7,1,8.1,1.4c-2.6,0.5-5.7,0.9-8.3,0.9
			C292.7,457.8,292.4,457.8,292.3,457.8 M257.2,450.5c-2.3-0.7-3.3-1.4-3.8-1.9C254.4,449.3,255.7,450,257.2,450.5"/>
	</g>
</g>
<defs>
	<filter id="Adobe_OpacityMaskFilter_25_" filterUnits="userSpaceOnUse" x="336.6" y="412.5" width="6.7" height="19.5">
		<feFlood  style="flood-color:white;flood-opacity:1" result="back"/>
		<feBlend  in="SourceGraphic" in2="back" mode="normal"/>
	</filter>
</defs>
<mask maskUnits="userSpaceOnUse" x="336.6" y="412.5" width="6.7" height="19.5" id="SVGID_158_">
	<g class="st109">
		<g class="st14">
			<g>
				<defs>
					<rect id="SVGID_159_" x="331.4" y="407.3" width="17.3" height="30.2"/>
				</defs>
				<clipPath id="SVGID_160_">
					<use xlink:href="#SVGID_159_"  style="overflow:visible;"/>
				</clipPath>
				<g transform="matrix(1 0 0 1 0 0)" style="clip-path:url(#SVGID_160_);">
					
						<image style="overflow:visible;" width="28" height="49" xlink:href="B5FF395E0CAFDB1F.jpg"  transform="matrix(0.6168 0 0 0.6168 331.4199 407.3271)">
					</image>
				</g>
			</g>
		</g>
	</g>
</mask>
<g class="st110">
	<g>
		<defs>
			<rect id="SVGID_161_" x="336.6" y="412.5" width="6.7" height="19.5"/>
		</defs>
		<clipPath id="SVGID_162_">
			<use xlink:href="#SVGID_161_"  style="overflow:visible;"/>
		</clipPath>
		<path class="st111" d="M340.2,432c-1.1-4.5-2.8-10.1-3.6-12.6c1.3-1.1,3.6-3.3,6.7-6.9c-0.6,1.8-1,3.5-1.3,5.2
			c-0.6,2.9-0.8,5.8-1,8.6l0,1.3C340.8,429.2,340.6,430.5,340.2,432"/>
	</g>
</g>
<g class="st7">
	<g>
		<defs>
			<rect id="SVGID_163_" x="236.2" y="332" width="18.1" height="29.1"/>
		</defs>
		<clipPath id="SVGID_164_">
			<use xlink:href="#SVGID_163_"  style="overflow:visible;"/>
		</clipPath>
		<path class="st112" d="M253.5,333.6c0,0-4.9,2.6-10.1,11.1c-3.4,5.7-5.1,13-5.4,16.1"/>
	</g>
</g>
<g class="st7">
	<g>
		<defs>
			<rect id="SVGID_165_" x="278.2" y="339.4" width="5.1" height="28.2"/>
		</defs>
		<clipPath id="SVGID_166_">
			<use xlink:href="#SVGID_165_"  style="overflow:visible;"/>
		</clipPath>
		<path class="st113" d="M280,339.6c0,0,0.4,3.7,1.1,12.3c0.6,8.6,0.2,15.6,0.2,15.6"/>
	</g>
</g>
<g class="st7">
	<g>
		<defs>
			<rect id="SVGID_167_" x="306.5" y="322.6" width="27" height="19.8"/>
		</defs>
		<clipPath id="SVGID_168_">
			<use xlink:href="#SVGID_167_"  style="overflow:visible;"/>
		</clipPath>
		<path class="st114" d="M306.9,324.3c0,0,7.2,1.5,12,4.3c8.4,5,13,12.9,13,12.9"/>
	</g>
</g>
<g class="st7">
	<g>
		<defs>
			<rect id="SVGID_169_" x="307.8" y="369.1" width="25.5" height="15.5"/>
		</defs>
		<clipPath id="SVGID_170_">
			<use xlink:href="#SVGID_169_"  style="overflow:visible;"/>
		</clipPath>
		<path class="st115" d="M309.3,383.5c0,0,1.9-2.3,10.1-6.6c8.2-4.3,13.3-6,13.3-6"/>
	</g>
</g>
<g class="st7">
	<g>
		<defs>
			<rect id="SVGID_171_" x="309.6" y="412.6" width="25.1" height="8"/>
		</defs>
		<clipPath id="SVGID_172_">
			<use xlink:href="#SVGID_171_"  style="overflow:visible;"/>
		</clipPath>
		<path class="st116" d="M310.2,414.4c0,0,4.1,1.4,12.4,3.1c8.4,1.7,11.8,1.3,11.8,1.3"/>
	</g>
</g>
<g class="st7">
	<g>
		<defs>
			<rect id="SVGID_173_" x="236" y="424.4" width="15.8" height="21.9"/>
		</defs>
		<clipPath id="SVGID_174_">
			<use xlink:href="#SVGID_173_"  style="overflow:visible;"/>
		</clipPath>
		<path class="st117" d="M237.8,424.6c0,0,0.6,4.9,3.8,10.5c0,0,6.8,8.4,9.5,9.5"/>
	</g>
</g>
<g class="st7">
	<g>
		<defs>
			<rect id="SVGID_175_" x="279.5" y="429.5" width="5.6" height="18.6"/>
		</defs>
		<clipPath id="SVGID_176_">
			<use xlink:href="#SVGID_175_"  style="overflow:visible;"/>
		</clipPath>
		<path class="st118" d="M283.2,429.8c-0.6,4.3-1.9,16.2-1.9,18.4"/>
	</g>
</g>
<path class="st119" d="M345,334c0,0,0.1-6.6,0.3-10.3l0.3-3.7"/>
<g class="st7">
	<g>
		<defs>
			<rect id="SVGID_177_" x="212.6" y="351.2" width="6.9" height="19.6"/>
		</defs>
		<clipPath id="SVGID_178_">
			<use xlink:href="#SVGID_177_"  style="overflow:visible;"/>
		</clipPath>
		<path class="st120" d="M218.8,369.1c0,0-4-1.7-4.2-9c-0.2-7.3-0.3-7.1-0.3-7.1"/>
	</g>
</g>
<g class="st7">
	<g>
		<defs>
			<rect id="SVGID_179_" x="233" y="315.3" width="17.4" height="5.8"/>
		</defs>
		<clipPath id="SVGID_180_">
			<use xlink:href="#SVGID_179_"  style="overflow:visible;"/>
		</clipPath>
		<path class="st121" d="M250.3,317.1c0,0-12.6-0.6-16.1,2.6"/>
	</g>
</g>
<g class="st7">
	<g>
		<defs>
			<rect id="SVGID_181_" x="255" y="301.7" width="5.9" height="4.7"/>
		</defs>
		<clipPath id="SVGID_182_">
			<use xlink:href="#SVGID_181_"  style="overflow:visible;"/>
		</clipPath>
		<path class="st122" d="M260.4,304.7c0,0-3.2-0.7-4.9-1.3"/>
	</g>
</g>
<defs>
	<filter id="Adobe_OpacityMaskFilter_26_" filterUnits="userSpaceOnUse" x="325.9" y="418.7" width="19.4" height="35.7">
		<feFlood  style="flood-color:white;flood-opacity:1" result="back"/>
		<feBlend  in="SourceGraphic" in2="back" mode="normal"/>
	</filter>
</defs>
<mask maskUnits="userSpaceOnUse" x="325.9" y="418.7" width="19.4" height="35.7" id="SVGID_183_">
	<g class="st123">
		<g class="st14">
			<g>
				<defs>
					<rect id="SVGID_184_" x="320.7" y="413.5" width="30.3" height="46.3"/>
				</defs>
				<clipPath id="SVGID_185_">
					<use xlink:href="#SVGID_184_"  style="overflow:visible;"/>
				</clipPath>
				<g transform="matrix(1 0 0 1 0 0)" style="clip-path:url(#SVGID_185_);">
					
						<image style="overflow:visible;" width="49" height="75" xlink:href="B5FF395E0CAFDB1B.jpg"  transform="matrix(0.6168 0 0 0.6168 320.7217 413.5195)">
					</image>
				</g>
			</g>
		</g>
	</g>
</mask>
<g class="st124">
	<g>
		<defs>
			<rect id="SVGID_186_" x="325.9" y="418.7" width="19.4" height="35.7"/>
		</defs>
		<clipPath id="SVGID_187_">
			<use xlink:href="#SVGID_186_"  style="overflow:visible;"/>
		</clipPath>
		<path class="st125" d="M325.9,454.4c0,0,5.2-3,9-9.6c3.8-6.6,4.5-8.8,6.3-15.6c1.8-6.9,2.1-7,2.1-7l1.3-3.4c0,0-0.3,9.8,0.3,18.4
			c0.5,8.6,1.2,10.9-2,12c-3.3,1-7.2,2-10.2,2.8C329.5,452.7,325.9,454.4,325.9,454.4"/>
	</g>
</g>
<g class="st11">
	<g>
		<defs>
			<rect id="SVGID_188_" x="229.1" y="415.2" width="115.8" height="42.8"/>
		</defs>
		<clipPath id="SVGID_189_">
			<use xlink:href="#SVGID_188_"  style="overflow:visible;"/>
		</clipPath>
		<defs>
			<filter id="Adobe_OpacityMaskFilter_27_" filterUnits="userSpaceOnUse" x="229.1" y="415.2" width="115.9" height="42.8">
				<feFlood  style="flood-color:white;flood-opacity:1" result="back"/>
				<feBlend  in="SourceGraphic" in2="back" mode="normal"/>
			</filter>
		</defs>
		<mask maskUnits="userSpaceOnUse" x="229.1" y="415.2" width="115.9" height="42.8" id="SVGID_190_">
			<g class="st126">
				<g class="st14">
					<g>
						<defs>
							<rect id="SVGID_191_" x="223.9" y="410.1" width="126.4" height="53"/>
						</defs>
						<clipPath id="SVGID_192_" class="st127">
							<use xlink:href="#SVGID_191_"  style="overflow:visible;"/>
						</clipPath>
						<g transform="matrix(1 0 0 1 0 3.051758e-05)" style="clip-path:url(#SVGID_192_);">
							
								<image style="overflow:visible;" width="205" height="86" xlink:href="B5FF395E0CAFDB06.jpg"  transform="matrix(0.6168 0 0 0.6168 223.9194 410.1143)">
							</image>
						</g>
					</g>
				</g>
			</g>
		</mask>
		<g class="st128">
			<g>
				<defs>
					<rect id="SVGID_193_" x="229.1" y="415.2" width="115.8" height="42.8"/>
				</defs>
				<clipPath id="SVGID_194_">
					<use xlink:href="#SVGID_193_"  style="overflow:visible;"/>
				</clipPath>
				<path class="st129" d="M229.1,428.6c0,0,16,31.3,57,29.3c40.9-2,56.5-6.4,58.1-11.7c1.7-5.3-0.2-19.4,0.6-29
					c0.6-9.6-4.4,19.4-55,20.4C238.7,438.6,229.1,428.6,229.1,428.6"/>
			</g>
		</g>
	</g>
</g>
<path class="st130" d="M212,318.5c0,5.3-4.3,9.5-9.5,9.5c-5.3,0-9.5-4.3-9.5-9.5c0-5.3,4.3-9.5,9.5-9.5
	C207.7,309,212,313.2,212,318.5"/>
<path class="st130" d="M380.7,311.5c0,5.3-4.3,9.5-9.5,9.5c-5.3,0-9.5-4.3-9.5-9.5c0-5.3,4.3-9.5,9.5-9.5
	C376.4,301.9,380.7,306.2,380.7,311.5"/>
</svg>
