<?xml version="1.0" encoding="utf-8"?>
<!-- Generator: Adobe Illustrator 24.2.0, SVG Export Plug-In . SVG Version: 6.00 Build 0)  -->
<svg version="1.1" id="Capa_12" xmlns="http://www.w3.org/2000/svg" xmlns:xlink="http://www.w3.org/1999/xlink" x="0px" y="0px"
	 viewBox="0 0 560 555" style="enable-background:new 0 0 560 555;" xml:space="preserve">
<style type="text/css">
	.st0{fill:#FFFFFF;}
	.st1{clip-path:url(#SVGID_2_);}
	.st2{clip-path:url(#SVGID_4_);fill-rule:evenodd;clip-rule:evenodd;fill:#009036;}
	.st3{clip-path:url(#SVGID_4_);fill-rule:evenodd;clip-rule:evenodd;fill:#C00418;}
	.st4{clip-path:url(#SVGID_4_);fill-rule:evenodd;clip-rule:evenodd;fill:#E95D0F;}
	.st5{clip-path:url(#SVGID_6_);}
	.st6{clip-path:url(#SVGID_8_);fill:#E95D0F;}
</style>
<circle class="st0" cx="280.5" cy="279.5" r="245.5"/>
<g>
	<g>
		<defs>
			<rect id="SVGID_1_" x="-93.1" y="-93.1" width="746.3" height="746.3"/>
		</defs>
		<clipPath id="SVGID_2_">
			<use xlink:href="#SVGID_1_"  style="overflow:visible;"/>
		</clipPath>
		<g class="st1">
			<defs>
				<rect id="SVGID_3_" x="-93.1" y="-93.1" width="746.3" height="746.3"/>
			</defs>
			<clipPath id="SVGID_4_">
				<use xlink:href="#SVGID_3_"  style="overflow:visible;"/>
			</clipPath>
			<path class="st2" d="M112.6,321.1h25.5c-7.1-12.8-11.6-27.1-12.7-42.3c-4.6-65,38-121.5,108-128.8c-1,0.1,0,0-1,0.1
				c-78.9,6.5-130.7,70-125.5,142.8C107.6,302.7,109.6,312.1,112.6,321.1"/>
			<path class="st2" d="M267.1,386.5c-6.4,0.4-12.7,0.4-19,0h-84.7c28.9,20,66,30.5,104.6,26.6l1.6-26.6H267.1z"/>
			<path class="st3" d="M116.3,321.1c-1.6-4.7-3-9.6-4-14.6c-14.7-70.3,34.4-139.7,110.2-156.5c-1.1,0.2-2.1,0.4-3.2,0.6
				c-84.5,16.9-140.2,92.8-125.8,170.5H116.3z"/>
			<path class="st3" d="M168.8,386.5h-44.6c34.1,40.9,90.5,62.3,150.5,50.3l7.8-29.1C241.5,415.8,200.6,407.1,168.8,386.5"/>
			<path class="st4" d="M117.9,320.8c0.3,0.1,0.9,0.2,1.7,0.3h30.8l7.2-9.2c0,0,14.1-13.1,16.9-14.6c2.8-1.5,13.7-4.9,13.7-4.9
				l20.7-17.8l11.5,2.8c0,0,3.4,10.3,4.4,11.9c1,1.7,2.9,4.8,4,5.4c5.5,2.8,37.5,3.2,37.5,3.2s0,2.5,0,3c0,0.5,0.3,6.9,0.3,10.9
				c0,4.1,0.7,4.6,1.6,7.6c0.2,0.5,0.2,1.1,0.3,1.8h43.7c0.1-0.7,0.1-1.5,0.2-2.1c0.6-4.7,1.7-5.1,3.4-8.4c1.7-3.3,3.7-8.2,6.5-15.8
				c2.9-7.6,2.2-22.6,4.3-23.4c2.1-0.8,1-0.2,2.1-2.5c1.1-2.3,7.9-30.1,8.9-34c0.9-4,11.5-61.5,12.6-63.3c1.1-1.8,27-10.7,29.5-11.9
				c2.5-1.2,3.4-1.2,6.8-1.4c3.4-0.2,8.7,0.5,13.4-1.2c4.7-1.7,35.8-8.8,35.8-8.8s9.8,3.3,13.2,3.3c1.1,0,3.3-1.1,4.4-1.1
				c0.8,0,2.4,0.9,3.3,0.7c0.8-0.1,2.4-1.2,2.8-2.1c0.5-1.1-0.5-0.9-0.9-1.3c-0.4-0.3-2.2-1.3-3.5-1.5c-1.4-0.2-4.2-0.2-5.2-0.2
				c-1,0-0.7-1.6-0.4-2.3c0.3-0.7,4.5-1.8,5.2-1.7c0.7,0.1,5.2-0.5,6.3-0.5c1.1,0,5,0.4,6.1-0.4c1.2-0.7,1.4-0.8,1.1-1.3
				c-0.3-0.5,1-1.3,0.5-1.6l-10.3-4.1l-5.8-0.8c-0.5,0.1-6.7,0.7-8.5,1.3c-1.9,0.5-3.5,1.4-6.2,2c-2.7,0.5-3.4-0.8-5.2-1.2
				c-1.8-0.4-4.4,1.2-5.9,1.2c-1.5,0-36.3,0.4-37.3,0.4c-1,0-7.1,2.8-8.4,3.4c-1.3,0.6-2.8,1-3.8,1.2c-1,0.2-2.2,0-3.2-1.5
				c-1-1.5-36.7-0.6-48.1,3.4c-1.1,0.4-3.3,1.6-4,2.5c-0.3,0.4-0.9,2.1-1.3,1.5c-0.5-0.5-0.8-3.1-0.6-4.1c0.2-1,0.4-4.3,0.4-4.3
				s0.5-4.5,0.6-5.1c0.2-0.5-0.1-6.2-0.1-6.2s-0.7-3-0.6-3.8c0.1-0.8,0.7-2.1,0.8-3.6c0.1-1.4-1.4-4.3-2.1-6c-0.7-1.7-3.1-7-5.6-8.4
				c-2.6-1.4-10.6-4.2-12.3-4.1c-1.7,0.1-3.8,1.1-7.3,2.5c-3.5,1.4-1.9,1.6-7.8,7c-5.8,5.4-3.1,5.7-3.7,8c-0.7,2.2,1.5,8.6,1.8,9.6
				c0.3,1,6.7,13.8,6.7,13.8s1.2,5.5,0.8,6.7c-0.4,1.1-0.3,4.2-5.5,7.2c-5.1,3-12.3,4.9-18,7.5c-5.7,2.5-4,4.2-7.1,5.4
				c-3,1.3-4.1,1.6-5.6,2.2c-1.5,0.6-2.7,2.1-4.1,5.2c-1.4,3.1-1.3,3.3-3.5,4.8c-2.2,1.5-2,1.1-5.2,2.9c-3.2,1.8-1.5,1.4-3.1,3.9
				c-1.5,2.5-1.2,2.7-3,2.6c-1.8-0.1-6.7-15.3-6.7-15.3s2.2-3.2,6-5.9c3.8-2.7,2.6-7.6,3.6-10.7c1-3.1-0.3-7.1-0.3-7.1l-2.3-4.8
				l-4.4-4.4l-1.4-0.6c-3.5-5-9.4-8.2-16-8.2c-10.7,0.1-19.3,8.9-19.2,19.6c0.1,8.6,5.8,15.9,13.7,18.3c0.3,0.3,0.5,0.6,0.6,0.7
				c0.4,0.4,3.2,2,3.2,2l1.6,1.3c0,0,0.7,3.5,0.6,4.1c-0.1,0.6,0.9,3.2,0.8,4.3c0,1.1,2.4,16.6,2.4,16.6l6.8,12.6
				c0,0,3.7,1.5,7.1,1.9c3.4,0.4,17.3-5.5,17.7-5.9c0.5-0.3,0.7-0.8,2.4,0c1.8,0.7,3.3-2.5,6.1-4.2c2.9-1.7,7.1-4,8.4-5.7
				c1.3-1.8,2,2,1.2,4.3c-0.8,2.3-0.2,2.4-0.2,2.4l1.2,4.8c0,0,0.6,4.3,0.5,6.2c-0.1,1.9-1.9,2.5-2.5,3c-0.6,0.5-0.5,1.3-1,4.4
				c-0.4,3-1.7,1.1-2.5,1.6c-0.8,0.4-1.5,3.7-2.7,6.5c-1.2,2.8-2.9,3.6-5.7,4.6c-2.8,1-7.1,2.5-10.1,2.8c-3,0.3-19.5,1.7-19.5,1.7
				s-5.7,1.3-6.8,1.5c-1,0.2-14.6,4.8-15.1,4.8c-0.5,0-3.1,2.7-3.4,3c-0.3,0.4-2.1,3.1-5.2,4.3c-3.1,1.2-16.3,9.9-18.4,12.1
				c-2.2,2.1-14.5,16.7-14.5,16.7l-11.1,11.2l-3.3-2.6l-13,7.4c0,0-20.8,2.7-21.3,2.7c-0.5,0-6.7,3.2-7.5,6
				C105.7,312,116.1,320.1,117.9,320.8"/>
			<path class="st4" d="M294.8,387.2c0.1-0.2,0.1-0.5,0.2-0.7h-26.4l-3.8,17.2l1.9,7.6c0,0-2,19.7-3.1,22.5
				c-1.1,2.8-1.5,1.1-2.6,2.3c-1.1,1.2-1,5.3-1.7,8c-0.7,2.7-1.4,10.9-1.6,13.7c-0.2,2.8,0.1,2.3,3,3.6c2.9,1.4,1.8,0.7,3.3,3.2
				c1.5,2.4,0.6,2.9,0.7,4.5c0.1,1.6,3.2,5.6,3.2,5.6s10.1,1.1,14.9-0.7c1-0.4,3.7-8.4,3.7-8.4l-0.8-5c0,0-5.5-5.3-6.1-5.9
				c-0.5-0.6-1.7-2.4-2.2-3.3c-0.5-0.9-0.4-3.2,0.1-5.1c0.4-1.9,0.2-3.4,1-5.6c0.8-2.2,1.2-3.8,1-5c-0.2-1.1-0.9-2.3-1-3.8
				c-0.1-1.4,4.1-12.7,4.7-15C283.8,414.6,293.4,393.1,294.8,387.2"/>
		</g>
		<g class="st1">
			<defs>
				<rect id="SVGID_5_" x="-93.1" y="-93.1" width="746.3" height="746.3"/>
			</defs>
			<clipPath id="SVGID_6_">
				<use xlink:href="#SVGID_5_"  style="overflow:visible;"/>
			</clipPath>
			<path class="st5" d="M84.7,352.2v-0.3c4.5-2,6.7-6,6.7-10c0-3.3-1-6.4-3.5-8.5c-3.2-2.8-7.4-3.3-11.8-3.3
				c-3.9,0-7.5,0.3-10.3,0.9v45.6c2.1,0.3,5,0.5,8.4,0.5c7.8,0,12.5-1.7,15.2-4.7c2.2-2.3,3.4-5.3,3.4-9.1
				C92.9,358.1,90.1,353.7,84.7,352.2 M74.9,337.1c0.6-0.2,1.4-0.3,2.4-0.3c3.6,0,5.2,2.6,5.2,6.1c0,3.7-2.5,6.5-5.7,6.5h-1.9V337.1
				z M76.9,370c-0.8,0-1.4,0-2-0.1V356h1.9c3.6,0,6.7,2.4,6.7,7.1C83.6,367.8,80.6,370,76.9,370"/>
			<path class="st5" d="M124,330.3l-3.7,16.8c-1.2,5.8-2.2,11.1-2.9,16.2h-0.2c-0.8-5.2-2-10.4-3.2-16.2l-3.7-16.8h-9.6l-3.3,46.4
				h7.7l0.8-16.1c0.2-4.6,0.6-10.5,0.7-15.5h0.1c0.8,5,2,10.8,2.9,14.5l3.9,16.3h6.3l4.1-16.6c0.9-3.6,2.1-9.3,3-14.2h0.1
				c-0.1,5,0.2,10.9,0.5,15.3l0.8,16.2h8.1l-2.8-46.4H124z"/>
			<path class="st5" d="M147.6,365.2c-2.8,0-5.3,2.5-5.3,6.1c0,3.6,2.4,5.9,5.2,5.9h0.1c3.2,0,5.3-2.3,5.3-5.9
				C152.8,367.5,150.5,365.2,147.6,365.2"/>
			<polygon class="st5" points="166,338.6 174.2,338.6 174.2,376.7 183.2,376.7 183.2,338.6 191.5,338.6 191.5,330.3 166,330.3 			
				"/>
			<path class="st5" d="M208.4,329.7c-10.3,0-15.3,10.9-15.3,23.6c0,12.7,4.1,23.9,14.7,23.9h0.1c8.7,0,14.9-7.1,14.9-24.6
				C222.7,342,219.5,329.7,208.4,329.7 M208.1,369.4L208.1,369.4c-4.1,0-5.8-6.9-5.6-16.1c-0.1-8.4,1.6-15.7,5.6-15.7
				c4.1,0,5.4,7.3,5.4,15.5C213.4,362.5,211.9,369.4,208.1,369.4"/>
			<path class="st5" d="M247.2,354.8v-0.1c4.7-2.1,7.2-6.6,7.2-11.6c0-4-0.9-7.1-3.7-9.6c-3-2.8-7.4-3.4-12.4-3.4
				c-3.4,0-7,0.3-9.8,0.9v45.7h9v-18.5h1.4c3,0,4.4,1.7,5.2,7.4c0.7,5.2,1.7,9.8,2.3,11.1h9.4c-0.8-1.7-2.1-7.4-3-12.6
				C252,359,250.4,356.1,247.2,354.8 M239.1,351.2h-1.7v-13.8c0.5-0.2,1.4-0.3,2.2-0.3c4,0.1,5.6,2.9,5.6,6.9
				C245.2,348,243,351.2,239.1,351.2"/>
			<path class="st5" d="M279.6,354.8v-0.1c4.7-2.1,7.2-6.6,7.2-11.6c0-4-0.9-7.1-3.7-9.6c-3-2.8-7.4-3.4-12.4-3.4
				c-3.4,0-7,0.3-9.8,0.9v45.7h9v-18.5h1.4c3,0,4.4,1.7,5.2,7.4c0.7,5.2,1.7,9.8,2.3,11.1h9.4c-0.8-1.7-2.1-7.4-3-12.6
				C284.3,359,282.7,356.1,279.6,354.8 M271.4,351.2h-1.7v-13.8c0.5-0.2,1.4-0.3,2.2-0.3c4,0.1,5.6,2.9,5.6,6.9
				C277.6,348,275.4,351.2,271.4,351.2"/>
			<polygon class="st5" points="302.1,356.3 312.7,356.3 312.7,348.8 302.1,348.8 302.1,338.1 313.3,338.1 313.3,330.3 293.1,330.3 
				293.1,376.7 314,376.7 314,368.8 302.1,368.8 			"/>
			<polygon class="st5" points="329.2,330.3 320.2,330.3 320.2,376.7 341.1,376.7 341.1,369 329.2,369 			"/>
			<path class="st5" d="M353.5,330.3l-10,46.4h8.7l2.1-10.6h8.3l1.9,10.6h8.8l-9-46.4H353.5z M355.2,359l1.7-9.7
				c0.5-2.7,1.2-7.4,1.7-10.5h0.2c0.4,3,1,7.7,1.5,10.5l1.5,9.7H355.2z"/>
			<path class="st5" d="M391.1,350.1c-0.8,5.2-1.6,10.8-2.2,16.3h-0.1c-0.6-5.4-1.6-11.1-2.3-16.1l-3.3-20h-10l10.3,46.4h10.1
				l10.6-46.4h-9.9L391.1,350.1z"/>
			<polygon class="st5" points="417.1,356.3 427.6,356.3 427.6,348.8 417.1,348.8 417.1,338.1 428.3,338.1 428.3,330.3 408.1,330.3 
				408.1,376.7 429,376.7 429,368.8 417.1,368.8 			"/>
			<path class="st5" d="M448.5,358h4.2v11.1c-0.3,0.2-1,0.3-1.8,0.3c-4.3,0-8.6-4-8.6-15.2c0-12,4.9-16.2,11.1-16.2
				c2.2,0,3.9,0.4,5.3,1l1.5-7.8c-1.4-0.7-4-1.4-7.5-1.4c-10,0-19.5,7-19.8,23.9c-0.1,8,2,14.8,6,18.7c3,3.1,7.1,4.6,12.5,4.6
				c3.4,0,7.6-0.8,9.6-1.7v-24.8h-12.5V358z"/>
			<path class="st5" d="M485.1,330.3h-10.8l-10,46.4h8.7l2.1-10.6h8.3l1.9,10.6h8.8L485.1,330.3z M475.9,359l1.7-9.7
				c0.5-2.7,1.2-7.4,1.7-10.5h0.2c0.4,3,1,7.7,1.5,10.5l1.5,9.7H475.9z"/>
		</g>
		<g class="st1">
			<defs>
				<rect id="SVGID_7_" x="-93.1" y="-93.1" width="746.3" height="746.3"/>
			</defs>
			<clipPath id="SVGID_8_">
				<use xlink:href="#SVGID_7_"  style="overflow:visible;"/>
			</clipPath>
			<path class="st6" d="M280,537.7c-17.5,0-34.9-1.8-51.9-5.2c-16.5-3.4-32.8-8.4-48.4-15c-15.3-6.5-30-14.5-43.8-23.8
				c-13.6-9.2-26.5-19.8-38.1-31.5c-11.7-11.7-22.2-24.5-31.5-38.1C57,410.3,49,395.6,42.6,380.3c-6.6-15.6-11.6-31.8-15-48.4
				c-3.5-17-5.2-34.4-5.2-51.9c0-17.5,1.8-34.9,5.2-51.9c3.4-16.5,8.4-32.8,15-48.4c6.5-15.3,14.5-30,23.8-43.8
				c9.2-13.6,19.8-26.5,31.5-38.1s24.5-22.2,38.1-31.5c13.8-9.3,28.5-17.3,43.8-23.8c15.6-6.6,31.8-11.6,48.4-15
				c17-3.5,34.4-5.2,51.9-5.2c17.5,0,34.9,1.8,51.9,5.2c16.5,3.4,32.8,8.4,48.4,15c15.3,6.5,30,14.5,43.8,23.8
				c13.6,9.2,26.5,19.8,38.1,31.5c11.7,11.7,22.2,24.5,31.5,38.1c9.3,13.8,17.3,28.5,23.8,43.8c6.6,15.6,11.6,31.8,15,48.4
				c3.5,17,5.2,34.4,5.2,51.9c0,17.5-1.8,34.9-5.2,51.9c-3.4,16.5-8.4,32.8-15,48.4c-6.5,15.3-14.5,30-23.8,43.8
				c-9.2,13.6-19.8,26.5-31.5,38.1c-11.7,11.7-24.5,22.2-38.1,31.5c-13.8,9.3-28.5,17.3-43.8,23.8c-15.6,6.6-31.8,11.6-48.4,15
				C314.9,535.9,297.5,537.7,280,537.7 M280,38.1c-16.4,0-32.8,1.7-48.8,4.9c-15.5,3.2-30.8,7.9-45.4,14.1
				c-14.3,6.1-28.2,13.6-41.1,22.3c-12.8,8.7-24.9,18.6-35.8,29.5c-10.9,10.9-20.9,23-29.5,35.8c-8.7,12.9-16.2,26.8-22.3,41.1
				c-6.2,14.6-10.9,29.9-14.1,45.4c-3.3,15.9-4.9,32.3-4.9,48.8c0,16.4,1.7,32.8,4.9,48.8c3.2,15.5,7.9,30.8,14.1,45.4
				c6.1,14.3,13.6,28.2,22.3,41.1c8.7,12.8,18.6,24.9,29.5,35.8c10.9,10.9,23,20.9,35.8,29.5c12.9,8.7,26.8,16.2,41.1,22.3
				c14.6,6.2,29.9,10.9,45.4,14.1c15.9,3.3,32.3,4.9,48.8,4.9c16.4,0,32.8-1.7,48.8-4.9c15.5-3.2,30.8-7.9,45.4-14.1
				c14.3-6.1,28.2-13.6,41.1-22.3c12.8-8.7,24.9-18.6,35.8-29.5c10.9-10.9,20.9-23,29.5-35.8c8.7-12.9,16.2-26.8,22.3-41.1
				c6.2-14.6,10.9-29.9,14.1-45.4c3.3-15.9,4.9-32.3,4.9-48.8c0-16.4-1.7-32.8-4.9-48.8c-3.2-15.5-7.9-30.8-14.1-45.4
				c-6.1-14.3-13.6-28.2-22.3-41.1c-8.7-12.8-18.6-24.9-29.5-35.8c-10.9-10.9-23-20.9-35.8-29.5c-12.9-8.7-26.8-16.2-41.1-22.3
				c-14.6-6.2-29.9-10.9-45.4-14.1C312.8,39.7,296.4,38.1,280,38.1"/>
		</g>
	</g>
</g>
</svg>
