<?xml version="1.0" encoding="utf-8"?>
<!-- Generator: Adobe Illustrator 24.2.0, SVG Export Plug-In . SVG Version: 6.00 Build 0)  -->
<svg version="1.1" id="Capa_12" xmlns="http://www.w3.org/2000/svg" xmlns:xlink="http://www.w3.org/1999/xlink" x="0px" y="0px"
	 viewBox="0 0 560 555" style="enable-background:new 0 0 560 555;" xml:space="preserve">
<style type="text/css">
	.st0{fill:#1D1D1B;}
	.st1{fill:#80BA27;}
	.st2{fill:#FFDC00;}
	.st3{fill:#E20613;}
	.st4{fill:#FFFFFF;}
	.st5{fill-rule:evenodd;clip-rule:evenodd;fill:none;}
	.st6{fill:#4995D1;}
	.st7{fill-rule:evenodd;clip-rule:evenodd;fill:#1D1D1B;}
</style>
<g>
	<path class="st0" d="M129.6,102c12.8-44.2,46.8-70.9,95.2-70.9c67.2,0,71.9,53.9,158.3,54.8c26,0.3,61.1-8.9,81.9-26.5l9,8.8
		c0,0-13.9,17.2-28.1,45.1c-45.2,88.9-33.1,159.6-4.2,249.1c14.9,46.2-7.5,62.2-45,82.2c-54.7,29.2-84,40.5-109.3,98.4
		c0,0-6.6-17.6-9-22.2c-27.3-51.1-91.2-79.1-146.3-86.6c-14.2-1.9-33.4,1.1-33.4,1.1c36.9-71.3,28.6-96.3,10-166.6
		C95.5,218.6,96,178,139.2,145.3c7.4,8.7,13.9,15,26.3,15c16.3,0,29.4-13.2,29.4-29.5c0-16.3-13.2-29.4-29.4-29.4
		c-11.9,0-22.2,7.1-26.7,17.3l-12.1-3.3C126.7,115.3,127.3,110,129.6,102z M205.3,144.7c-5.7,16.5-21.4,28.3-39.8,28.3
		c-10.5,0-20.2-3.9-27.6-10.3c-50.4,49.3-7.8,112.9-1.4,170.4c3.3,28.9-5,60.8-16.4,87.4c52.5,1.8,122.5,31.9,155.4,73.2
		c5.7,7.1,9.8,13.6,12.7,18.7c26-41.7,61.5-57.1,102.5-78.9c20.3-10.8,42.6-21.2,43.5-47.9c0.3-9-12.9-44.5-15.7-54.1
		c-0.6-2.1-1.2-4.2-1.8-6.3L205.3,144.7z M145.4,93.9c6-3.3,12.9-5.1,20.2-5.1c23,0,41.6,18.4,42.1,41.2l203.9,174.1
		c-17.3-77.9-7.6-148,36.1-219.4C432,91.9,409.9,98.9,383,98.6c-50.7-0.5-68.6-14.1-106.6-38.7c-16.5-10.7-31.2-16.1-51.6-16.1
		C188.7,43.8,158.4,63.4,145.4,93.9z"/>
	<path class="st1" d="M205.3,144.7c-5.7,16.5-21.4,28.3-39.8,28.3c-10.5,0-20.2-3.9-27.6-10.3c-50.4,49.3-7.8,112.9-1.4,170.4
		c3.3,28.9-5,60.8-16.4,87.4c52.5,1.8,122.5,31.9,155.4,73.2c5.7,7.1,9.8,13.6,12.7,18.7c26-41.7,61.5-57.1,102.5-78.9
		c20.3-10.8,42.6-21.2,43.5-47.9c0.3-9-12.9-44.5-15.7-54.1c-0.6-2.1-1.2-4.2-1.8-6.3L205.3,144.7z"/>
	<path class="st2" d="M413,95.9c13.6-2.6,25.2-6.9,34.5-11.2c-15.9,26-27.3,51.8-34.5,77.9V95.9z M348.2,95.4
		c9.3,1.9,19.9,2.9,32.4,3.2v179.1L348.2,250V95.4z M283.3,64.4c12.1,7.9,22.2,14.4,32.4,19.6v138.3l-32.4-27.7V64.4z M218.4,44
		c2.1-0.1,4.2-0.2,6.4-0.2c9.7,0,18.1,1.2,26,3.6v119.4l-32.4-27.7V44z M145.4,93.9c8-18.6,22.4-33.2,40.6-41.7V94
		c-6.1-3.4-13-5.3-20.4-5.3C158.2,88.7,151.3,90.6,145.4,93.9z"/>
	<path class="st3" d="M413,95.9v66.8c-12.6,45.6-12.5,92-1.5,141.5l-30.9-26.4V98.6l2.4,0C393.8,98.7,403.9,97.7,413,95.9z"/>
	<path class="st3" d="M348.2,95.4V250l-32.4-27.7V84C325.8,89.1,335.9,92.9,348.2,95.4z"/>
	<path class="st3" d="M283.3,64.4v130.2l-32.4-27.7V47.4c8.7,2.7,16.9,6.8,25.5,12.4L283.3,64.4z"/>
	<path class="st3" d="M218.4,44v95.1l-10.8-9.2c-0.3-15.5-9-28.9-21.7-35.9V52.2C195.8,47.6,206.8,44.8,218.4,44z"/>
	<g>
		<path class="st4" d="M286.9,315.2l0.2,1.8c0.6,4.4,17.6,19.3,21.4,23.2c7.3,7.3,15.7,19,22.1,27.6c0,0,1.2,1.5,2.4,3.8
			c4.7,8.4,4.9,16.2,1.2,25.3c-1.1,20.5-5.9,46.4-5.9,46.4s-0.1,0.5-0.2,1.1c-0.3,2.6-0.2,6.2,2.4,7.7c2.2,1.3,6.1,2.7,9.6,3.8
			c1.7,0.5,4.1,1.2,6.2,1.7c-7,4.2-13.7,8.6-20.2,13.5l-9.4,0.4c0,0-1.3,0-2.9-0.1c-6.1-0.6-8.8-3.2-9.7-9.7
			c-0.7-4.6,2.9-9.3,3.9-13.7c3.7-16-7.3-20.5-1.7-40.7c1.7-6.3,4.3-11.9,4.3-18.6c0-1.7-1-2.7-2.1-3.8
			c-5.7-5.7-12.3-10.4-17.5-16.5c-3.6-4.2-7-10.1-13.3-10.1c-6,0-7.8-0.5-13.6,1.3c-1.8,0.6-4.3,2.7-5,4.5
			c-7.2,16.3-25.2,42.6-38,45.5c-8.5,2-11,8.3-17.4,12.4c-4.6,3-15,10.3-16.7,12l-0.6,0.7c-7.1-2.6-14.3-4.9-21.4-6.8l0.4-0.4
			c1.4-1.3,5.2-7.4,6.3-9.1c2.9-4.4,6.2-9.3,8.9-12.4c5.5-6.1,14.5-11,18.5-12.2c7.9-2.4,12.2-7.5,14.6-15.2c1-3.2,7.7-15,10.5-18.9
			c2.7-3.8,5-5.6,11.2-17.3c5.9-11.4,7.3-18.4,7.1-23.7c-0.2-5.4-3.7-17.6-10.8-23.8c-4.5-4-12-7.3-17.9-8.6c0,0-21.6-6-27.4-7.5
			c-7.3-1.8-12.2-3.7-15-5.7c-2.5-1.8-4-6.8-4.7-9.7c0,0-6.5-26.6-7.5-29.5c-0.7-2.1-3.7-4.9-5.5-6.2l-1.2-0.9l-3.4-2.3
			c-1.6-1.1-3.3-2.3-4.7-3.7l-0.5-0.6c-1-1.2-1.5-3.3-1.1-4.8l0.7-5.3c0.3-2.3,0.1-8,3.3-8.4c0.2,0,0.4,0,0.7,0
			c1.5-8.9,9.3-15.7,18.7-15.7c10.5,0,19,8.5,19,19c0,9.2-6.5,16.9-15.2,18.6l0.7,2.4c1.3,4.5,1.4,4.7,3.7,8
			c3.6,5.3,6.2,13.8,8.7,19.8c3.1,7.4,3.4,7,11.5,8.1c5.9,0.8,13.3,0,19.2-0.6c4.6-0.5,25.3-3.5,25.8-7c0.2-3.1-2.5-5.1-4.1-6.3
			c-7.9-5.3-12-10.4-13.9-17c-5.3-18.5,6.9-26.6,13.3-28c7.8-1.5,14.2,1.6,19.3,8.1c0.5,0.5,0.9,1.1,1.3,1.9
			c1.5,2.4,2.4,3.8,3.3,6.2c0,0-0.3,2.6-0.9,4.4c0.9,0.9,3.5,5.3,3.8,6.9c0.1,0.5-1.3,14.8-1.3,15.2c0,0-3,2.5-5.2,3.3
			c-0.9,0.3,4.7,2.9,7.1,2.9h52.6c0,0,1.4,0,3.2,0.3c5.9,1,8.5,4.6,10.4,9.9c0,0,4.1,10.9,6.3,16c1.1,2.6,3.4,8.1,5.8,13.5
			c6.7,15.5,4.4,11.1,15.7,21.5c2.4,2.2,4,6-0.7,6.2c-1,0-2.4-0.1-3.7-0.1c-5.6,0-10.3-8.3-16.9-5.9c-1.5,0.6-3.1,1.2-4.8,1.2
			l-2.7,0c-1.7,0-5.1,0.1-5-2.5c0-0.8,0.6-1.4,0.6-1.4s1.7-2.2,3.6-4.8c0.7-1,3.5-4.9,3.7-6.1c0.2-1.4-7.6-9.7-8.4-10.8
			c-2.7-3.4-4.6-7.6-6.6-11.4c-1.8-3.3-2.8-4.4-6.8-4.8c-3.2,0.2-21,0.6-22.6,1.8c-1.1,0.9-1.3,1.7-1.3,3.4c0,0.9-0.1,3.6,0.1,8
			c0.3,9.2,1.2,23.2,1.8,29.2L286.9,315.2z"/>
		<path class="st0" d="M286,357.9c-2.2-1.7-4.8-2.9-8.2-2.9c-1.7,0-15.5-1.1-21.8,5.3c-1.3,1.3-4.1,8.1-5.9,11.4
			c-5.7-5.8-10.7-9-19.2-11.1c-1-0.2-1.9-0.4-2.8-0.6c1.6-2.1,3.4-4.1,6.1-8.6l2.1-3.6c0.6-1.2,1.3-2.5,2.1-3.9
			c5-9.6,7-16.4,7.4-21.9c6.1,3.4,14.5,6.2,21,5.2c5.8-0.9,12.4-4.9,17.2-9.2c1.7,6.2,17,19.3,22,24.2l1.8,1.9l0.7,0.8
			c2,2.2,4.4,5.2,6.8,8.3c-0.9,0.2-2,0.5-3.1,0.8c-9.1,2.5-13.7,5.1-17.3,13.8c-1.9-2-3.5-4.3-5.4-6.4c-0.7-0.8-1.4-1.5-1.9-2
			L286,357.9z"/>
		<path class="st5" d="M318.5,419.9"/>
		<path class="st6" d="M282.8,351.6c-1.8,0-3.6,0.1-6.6,0.2c-13.3,0.8-17,2.8-20.6,9.1c-1.7,3-3.2,6.4-3.2,6.4
			c-5.8-7.8-13.2-9.4-16.9-10c1.6-2.1,2.1-2.6,4.9-7.1l2.1-3.6c0.6-1.2,1.3-2.5,2.1-3.9c4.1-7.8,5.3-13.5,5.9-18.4
			c5.1,3.7,11.4,5.7,18.2,5.7c7.1,0,13.6-2.4,18.9-6.4c10.7,11.6,21.2,20.3,25.8,27.2c-6.2-0.9-15,1-19,9.1c-1.9-2-2.5-2.3-4.3-4.4
			C289.3,354.6,286.2,351.6,282.8,351.6z"/>
		<path class="st7" d="M250.1,221.9l6.8,8.1l-5.7,2.5C251.4,232,250.1,221.9,250.1,221.9z"/>
		<path class="st7" d="M234.3,213.2l7,3.8l-1.3,7.6l-4.8-1.4c0,0-5.7-1.4-4.8,5c0.4,2.9,4.3,4.5,4.3,4.5l3.5,1.3l1.3,12.6
			c-7.5-5-12.6-11.2-14.2-16.7c-4.6-16.1,5.7-22.5,10.6-23.5c5.7-1,10.6,0.8,14.8,5.6L234.3,213.2z"/>
		<path class="st0" d="M166.2,189.2c0.3,0,0.5,0,0.8,0c-8.1,0.4-12.8,6.2-12.8,14.6c0,8.7,7,15.7,15.7,15.7c0.9,0,1.7-0.1,2.5-0.2
			c-1.9,0.8-4,1.3-6.2,1.3c-8.7,0-15.7-7-15.7-15.7S157.6,189.2,166.2,189.2z"/>
		<path class="st0" d="M198.8,278.7c-4.8-1.3-9.3-2.5-11.6-3.1c-7.2-1.8-11.6-3.6-13.9-5.2c-1.9-1.4-3.3-7.5-3.4-7.8
			c0,0-6.6-26.8-7.5-29.7c-0.9-2.9-4.2-6-6.7-7.9l-1.3-1l-3.4-2.3c-1.4-1-3-2-4.6-3.7c-0.3-0.7-0.4-1.2-0.4-1.6l0.1-0.6
			c0-0.1,0.7-6.2,1.2-9.3c0.7,8.2,6.6,14.9,14.7,16.8c1.8,1.7,3.5,3.8,4.2,5.8c0.9,2.9,7.5,29.7,7.5,29.7c0.1,0.3,1.5,6.4,3.4,7.8
			c2.3,1.6,6.6,3.4,13.9,5.2c2,0.5,4.8,1.5,8.6,2.6C199.3,276.1,199.1,277.6,198.8,278.7z"/>
		<path class="st0" d="M261.9,254.9l0.3,0c-1.9,6.8-3.5,26.6-3.6,26.5c-0.2,0-13.7-15.8-19-19.9c5,3.3,15.2,7.3,15.7,7.7
			C255.2,268.6,259.9,260.3,261.9,254.9z M280.3,316.8c-3.5,2.9-8.8,6.4-14.1,7.2c-8.2,1.2-18.3-4.5-20.4-5.7
			c-0.3-6.1-4.1-19-11.9-25.8c-4.1-3.6-10-6.5-15.5-8.3c0,0-0.8-0.2-2.3-0.6l-1.5-0.4l-12.8-3.5c0.4-1.7,0.8-4,1-6.6
			c0.2-2.5,0.3-4.9,0.4-6.6c1.5,0.2,3.2,0.4,5,0.6c0,1.1-0.1,2.3-0.2,3.7c-0.3,3.1-0.4,3.9-0.7,5.6l14.5,3.8
			c5.6,1.8,11.5,5.3,15.5,8.9c7.8,6.8,12.4,18.6,12.7,24.7c2.1,1.2,11.4,8.6,19.6,7.3C274.1,320.3,277.6,318.6,280.3,316.8z
			 M299.7,265.4l0.1,4l-4.8,0.3c-4.9,0.1-8,0.5-9.9,1.4c1-3.6,4.3-5.4,13.6-5.6L299.7,265.4z"/>
		<path class="st0" d="M302.8,255h4.5l0.2,10.7c3.6-0.1,5.9,0.3,7.4,0.8c3.9,1.1,4.7,3.9,6.4,7.1c1.9,3.6,3.7,7.7,6.3,10.9
			c2,2.5,10.7,10.4,9.7,14.6c-0.6,2.5-1.9,5.8-3.6,8l2.5-0.5c1.8-0.5,2.5-0.9,3.2-0.9c1-0.1,2.1,0.6,6.3,2.9c1,0.6,4.7,3.8,7.3,5.7
			c0.6,0.5,1.2,1,1.7,1.5c-0.8,0-1.7-0.1-2.6-0.1c-1.3,0-7.6-4.1-9.1-4.9c-7.2-3.9-7.8,0.1-12.5,0.1l-2.7,0l-0.6,0
			c1.7-2.2,6.4-8.4,6.8-10.9c0.5-3.7-7.1-10.9-9.1-13.3c-2.6-3.2-4.4-7.3-6.3-10.9c-1.7-3.2-2.7-4.8-6.6-6c-1.6-0.5-3-0.6-3-0.6
			s-2.3,0-5.9,0.1L302.8,255z"/>
		<path class="st0" d="M226,363c8.4,1.4,13.4,3.4,20,9.5c-7.3-3.4-10.2-4-17-4.8c-3,4.6-6.9,11.7-7.6,14.1
			c-2.8,8.9-6.6,13.3-11.7,16c0,0-9.7,4.2-13.7,6.7c1,3.9,4.9,10.1,8.2,13c-3-1.6-6.3-3.7-8.6-6.1c-2.1-2.2-3.9-5.8-5.4-9.1
			c3.9-2.5,7.8-4,11.4-5.6c0,0,0.8-0.4,1.5-0.7c0.7-0.3,1.5-0.8,1.5-0.8c5.1-2.7,9.5-6.5,12.3-15.4C217.7,377.2,223,367.6,226,363z"
			/>
		<path class="st0" d="M312.9,397.2c0,0,0.2-0.7,0.4-1.5c0.2-0.9,0.3-1.7,0.3-1.7c0.3-1.7,0.5-3.5,0.5-5.4c0-2-0.8-3.6-2-5.1
			c-3.8-4.3-9.9-9.2-14.5-13.3c3.3-8.7,7.1-10.8,15.6-13.1c1.8-0.5,3.5-0.8,4.5-1.1c-9.2,3.3-13.8,6.4-14.6,12.9
			c4.5,4.1,8.9,8.4,12.7,12.7c1.3,1.4,2.6,3.5,2.8,5.4c0.2,2,0.2,4.6-0.5,8.2c-1.5,6.3-3,9.5-4.4,16c2.7,3.7,9.8,5.4,15.5,5.1
			c-2.8,0.2-6.4,0.8-10.7,0.8c-4.2-0.1-7.7-1.1-10.3-1.5C308.7,409.1,311.3,403.5,312.9,397.2z"/>
		<path class="st7" d="M318.2,420.4c3.4,0,6.9-0.6,10.4-0.8c-3.6,1.6-8.1,3.7-16,2.9c0.2,1.7,1.4,5.9,1.4,5.9
			c2.1,9.2,3.3,10.7,1.7,19.1c-0.2,1.1-0.3,1.9-0.9,3.2c0.5,0.3,4.4,5.8,11.7,2c-4.2,3.9-9.8,3.1-14.4,0.8c-0.8-0.4-1.5-0.8-2.1-1.1
			c0.5-1.3,1-2.5,1.2-3.6c2.4-10.3-0.4-14.6-2.6-23.8c0,0-0.2-1.1-0.3-1.8c-0.1-0.7-0.2-1.6-0.2-1.6c-0.1-0.8-0.1-1.6-0.2-2.5
			C311.3,419.6,314.8,420.4,318.2,420.4z"/>
		<path class="st0" d="M173.5,430.2c-1.7-0.5-3.3-1-4.9-1.5c0.7-0.8,1.4-1.7,2.1-2.7c4.1-6,7.7-12.5,12.5-17.9
			c1.4-1.6,2.9-2.9,4.3-4.1c2.9,6.7,6.9,11.3,14.1,15.5c-6.7-3.3-11.1-2.4-13.9-8.8c-1.5,1.2-1.7,2.2-3.2,3.8
			c-4.9,5.4-6.5,9-10.6,15L173.5,430.2z"/>
		<path class="st0" d="M308.8,455.5c5.2,3.2,11.6,4.5,16.9,1.6c-4.8,3.4-7.3,4.1-13.9,2.3c-0.9,2-1.1,2.4-0.8,3.8
			c0.4,2.7,1.1,4.1,2.2,4.8c-3.3-0.5-5-2-5.7-6.8C307.2,459.8,307.9,457.7,308.8,455.5z"/>
	</g>
	<g>
		<path class="st4" d="M272.3,178.5c-1.3-0.8-2.5-2.1-3.3-4.1l-0.1-0.6l0-0.8l0.2-0.8l0.5-1.1l0.5-0.6l0.7-0.5l1-0.4l7.9-0.6
			c-0.1-1.1,0.1-2.3,0.8-3.6l0.4-0.5l0.9-0.7l0.5-0.3l0.5-0.2l0.7-0.1c2.4,0.1,7.6,3.3,9.1,2.8l2-2c-0.4-0.6-0.8-1.4-1.1-2.3
			l-0.1-0.4l0-0.6l0-0.6l0.2-0.8l0.6-0.9c2.7-2.2,5.2-2.1,7-2l0.9,0.1c-3.2-6.2-16-9.2-21.9-12.6c-13.1-8-17.3-20.6-27.9-29.3
			c-5.2-3.3-7.7-12.1-12.3-13.7c-6.1-1.6-11.7,0.6-18-2.3l-0.7-0.6l-0.9-1.2l-0.3-0.7l-0.1-0.8l0.1-0.9c1.9-5.1,7.3-8,11.2-9.1
			l0.4-0.1c12.9-0.7,21-12.3,35.6-5l17.7,7.6c34.5-1.2,63.2,21.4,80.8,47.7c7.4,4.8,15.7,8.9,21.1,16.3l0.3,0.6l0.2,0.9l0,0.9
			l-0.3,1.2l-0.4,0.7l-0.6,0.7l-0.9,0.5l-0.7,0.2c6.2,5.9,11,12.4,8.9,21.7l-0.5,0.9l-3.4,3.2l-0.4,0.3l-0.7,0.3l-0.8,0.2
			c-11.9-0.2-22-4.1-33-8.2l-0.4-0.2c-5.7-4.2-9.7-10-14.8-14.9c-3.8-3.6-7.3-5.7-12.1-5.1c-1,1.8-2.5,3.1-3.8,4.7l-0.3,0.5l0.4,0.3
			l0.6,0.7c0.3,0.5,0.6,0.7,1.8,0.8l1.5,0.1c2.3,0.2,5.7,1.1,6,5.8l-0.1,0.5l-0.2,0.7l-0.4,0.7l-0.7,0.9l-0.5,0.4l-0.7,0.4l-0.9,0.2
			c-7.5-0.4-18.3-5.4-25.1-1.3l0.3,0.1c1.4,0.5,6.4-3.5,10.4,2l0.2,0.4l0.2,0.6l0.1,0.7l-0.1,1l-0.1,0.6l-0.3,0.6l-0.5,0.7
			c-6.7,5.3-12.7,2.6-19.9,2.6c-1.8,0-3.3,0.3-4.6,1.1l-0.4,0.2c-5.8,1.9-10.1,5-16.5,4.7l-0.5-0.1l-0.7-0.3l-0.6-0.4l-0.8-0.8
			l-0.4-0.6l-0.3-0.7l-0.1-0.9C270.7,181,271.4,179.5,272.3,178.5z"/>
		<path class="st0" d="M272.6,173l-0.2,0.3c1.1,2.4,2.7,2.8,4.6,2.8l0.5,3.5l-0.6,0.2c-1.4,0.4-2.5,1.1-2.9,3.4
			c5.6,0.5,10.2-2.6,15.1-4.2c2-1.1,4.1-1.4,6.2-1.4c5.9,0,12,2.4,17.3-1.6l0-0.4c-2.3-3-5.5,0.4-8.5-0.5c-1.8-0.3-3.2-1.3-3.8-3
			l0.5-1.9c8.4-7.6,19.3-1.6,28.7-0.8l0.2-0.3c-0.2-1.8-1.1-2.1-2.9-2.3l-1.5-0.1c-1.1-0.1-3.2-0.3-4.4-2.3
			c-4.9-3.5,1.9-7.3,3.3-10.5l1.3-1.1c13.7-2.3,21,13.4,30.3,20.4c10.5,3.9,19.8,7.5,31.3,7.8l2.8-2.6c1.9-9.9-5.5-15.3-11.5-21.2
			l1.7-3c1.3,0.3,2.2,0.5,3.5,0.2l0.1-0.4c-5.1-6.8-13.3-10.8-20.2-15.3l-0.5-0.5c-17.3-26.1-45.2-47.8-78.4-46.5l-0.8-0.1
			l-18.2-7.9c-12.3-6.2-21.7,4.5-33.7,5.3c-3.2,0.9-6.9,3.2-8.4,6.4l0.3,0.4c5.4,2.3,11.6,0.5,17.2,2c6.8,2.4,7.8,10.8,13.1,14.1
			c10.7,8.7,15.8,21.9,27.7,29.2c7.6,4.3,21.6,6.7,24.2,16.5l-0.7,1.9c-2.6,1.9-5.5-0.6-8.6,1.6c0.4,1,0.7,1.5,1.2,1.9l0.1,2.6
			l-3.4,3.4l-0.4,0.3c-3,1.7-6.4-0.6-9.2-1.7c-0.9-0.3-1.5-0.5-1.5-0.6l-0.4,0.3c-0.4,0.9-0.2,1.5,0.2,2l-1.2,2.9L272.6,173z"/>
	</g>
</g>
</svg>
