<?xml version="1.0" encoding="utf-8"?>
<!-- Generator: Adobe Illustrator 24.2.0, SVG Export Plug-In . SVG Version: 6.00 Build 0)  -->
<svg version="1.1" id="Capa_8" xmlns="http://www.w3.org/2000/svg" xmlns:xlink="http://www.w3.org/1999/xlink" x="0px" y="0px"
	 viewBox="0 0 560 555" style="enable-background:new 0 0 560 555;" xml:space="preserve">
<style type="text/css">
	.st0{fill-rule:evenodd;clip-rule:evenodd;fill:#242F54;}
	.st1{fill-rule:evenodd;clip-rule:evenodd;fill:#E9D751;}
	.st2{fill-rule:evenodd;clip-rule:evenodd;fill:#31518E;}
	.st3{fill-rule:evenodd;clip-rule:evenodd;fill:#EBD948;}
	.st4{fill-rule:evenodd;clip-rule:evenodd;fill:#FBFBFC;}
	.st5{fill-rule:evenodd;clip-rule:evenodd;fill:#FFFFFF;}
	.st6{fill-rule:evenodd;clip-rule:evenodd;fill:#2F508D;}
	.st7{fill-rule:evenodd;clip-rule:evenodd;fill:#373D58;}
	.st8{fill-rule:evenodd;clip-rule:evenodd;fill:#3B4867;}
	.st9{fill-rule:evenodd;clip-rule:evenodd;fill:#232E54;}
	.st10{fill-rule:evenodd;clip-rule:evenodd;fill:#242E54;}
	.st11{fill-rule:evenodd;clip-rule:evenodd;fill:#2F4D88;}
	.st12{fill-rule:evenodd;clip-rule:evenodd;fill:#252F55;}
	.st13{fill-rule:evenodd;clip-rule:evenodd;fill:#2C4479;}
	.st14{fill-rule:evenodd;clip-rule:evenodd;fill:#273157;}
	.st15{fill-rule:evenodd;clip-rule:evenodd;fill:#252425;}
</style>
<g>
	<path class="st0" d="M23,285.3c0-1.9,0-3.8,0-5.7c0.1-0.2,0.3-0.3,0.3-0.5c2.3-11.8,11.1-18.8,23-18.3c7.1,0.3,10.7,4.1,10.5,11.2
		c0,0.8-0.5,1.6,0,2.4c-0.1-0.1-0.1-0.1-0.2-0.2c0,0,0,0.1-0.1,0.1c0.1,0,0.2,0,0.2,0c0.3-0.1,0.6-0.3,0.8-0.4
		c13.8-8.9,20.3-22,21.8-38c0.8-8.6,0-17.1-1.6-25.6c-1.2-6.4-2.8-12.6-5.3-18.6c-0.1-1.5-0.9-1.1-1.8-0.7
		c-14.5,6.2-28.5,5.3-42.1-2.6c-1.1-0.6-1.3-0.9-0.2-1.9c5.6-5.3,10.1-11.5,13.4-18.4c4.9-10.2,6.3-20.5,1.7-31.2
		c-0.9-2.1-1.3-4.3-1.4-6.6c-0.6-7.9,2.4-14.6,7.1-20.8c3.1-4.1,6.8-7.5,10.9-10.6c-0.4-0.5-0.9-0.5-1.3-0.6
		c-8.5-3.1-15.5-8.2-21.4-14.9c-4.2-4.8-7.9-9.9-10.4-15.8c0.1,0,0.1-0.1,0.2-0.1c1.2,0.8,2.4,1.6,3.6,2.5c3,2.1,6.2,3.7,9.7,4.6
		c9.3,2.4,18.1,0.7,26.8-3c1.5-0.6,1.7-1.3,1.1-2.7c-1.4-3.2-4.1-5.1-7.1-6.6c-4.2-2-8.8-3.1-13.4-3.8c-2.5-0.4-5.1-0.5-7.8-0.8
		c2.9-2.5,5.8-4.6,9.1-6.1c8.7-3.9,17.9-4.3,27.3-3.3c2.6,0.3,5.1,0.7,8,1.2c-0.6-0.6-1-0.9-1.3-1.3c-3-2.9-5.2-6.4-6.2-10.5
		c-0.7-2.8-0.4-5.6-0.1-8.4c0.5,0,1,0,1.6,0c0.8,0.4,1.1,0.9,1,1.9c-0.6,4.9,1.4,7.4,6.3,8.2c2.5,0.4,5,0.3,7.5,0.1
		c6.2-0.6,12.2-2,18.2-3.5c8.6-2.1,17.1-2.4,25.7-0.3c11,2.7,20.3,8.5,28.6,16.1c11,10,19.5,22,26.4,35.1c0.6,1.1,1.2,1.5,2.4,1.4
		c4.8-0.1,9.6-0.1,14.5-0.2c1.3,0,2,0.3,2.7,1.5c4.5,7.9,9.7,15.3,16,21.9c10.8,11.5,23.4,20.1,39,23.6c5.6,1.2,11.3,1.9,17,1.3
		c6.2-0.7,12.3-2.3,18.3-4.3c22.4-7.3,38.1-21.3,45.1-44.3c0.3-0.9,0.7-1.1,1.6-1c6.7,0.1,13.3,0.2,20,0.3c1.1,0,1.6-0.4,2.1-1.3
		c3.8-7.3,8.3-14.2,13.4-20.6c7.5-9.5,16-17.8,26.7-23.8c9.8-5.5,20.3-8,31.6-6.8c5.6,0.6,11.1,2.2,16.6,3.4c5.2,1,10.4,2,15.7,1.7
		c5.8-0.3,8.6-3.2,7.9-8.3c-0.2-1.1,0.1-1.7,1.1-2c0.4,0,0.8,0,1.3,0c0.7,2.1,0.7,4.2,0.5,6.3c-0.7,5.6-3.5,9.9-7.6,13.6
		c-0.1,0.1-0.2,0.3-0.3,0.4c0.2,0.1,0.4,0.1,0.5-0.1c0.6-0.1,1.1-0.1,1.7-0.2c8.8-1.6,17.7-2.1,26.5,0.2c5.8,1.5,11,4.2,15.5,8.5
		c-3.8,0.3-7.3,0.5-10.8,1.2c-4.8,1-9.5,2.3-13.6,5.1c-2,1.4-3.6,3.2-4.3,5.6c-0.2,0.6-0.2,1.1,0.5,1.4c8,3.7,16.2,5.5,25,4
		c5.2-0.9,9.7-3.1,13.9-6.3c0.7-0.5,1.5-1,2.2-1.5c-0.8,2.2-1.7,4.2-2.9,6.1c-7,11.3-16.1,20.3-28.8,25.1c-0.4,0.1-1,0-1.3,0.6
		c3.9,3,7.5,6.2,10.5,10.1c7.2,9.3,9.9,19.3,5.1,30.6c-2.4,5.6-2.5,11.6-1.2,17.6c2.5,11.6,8.7,21.1,16.9,29.4
		c1.4,1.4,1.4,1.4-0.3,2.4c-13.5,7.8-27.5,8.7-41.8,2.4c-0.9-0.4-1.7-0.8-1.8,0.7c-1.1,2.1-1.7,4.4-2.3,6.6
		c-4.2,14.1-6.3,28.4-3.9,43.1c2.3,13.9,9,25,20.9,32.7c0.4,0.2,0.7,0.7,1,0.6c0-1.5-0.1-2.9,0-4.3c0.3-5.3,3.5-8.6,8.8-9.2
		c2.5-0.3,5-0.1,7.5,0.3c9,1.4,16.6,9.7,17.2,18.8c0,1.9,0,3.7,0,5.6c-0.6,5.4-3.1,9.8-7.2,13.4c-4.5,4-10,5.8-15.8,6.6
		c-0.8,0.1-1.2,0.3-1.4,1.1c-1.5,5.4-4.1,10.2-7.7,14.4c-1,0.6-0.9,1.1-0.1,1.8c5.6,5.2,8.4,11.8,9,19.3c0.5,6.9-0.7,13.6-2.7,20.1
		c-2.9,9.4-7.3,18.1-12.1,26.7c-1.3,2.4-1.6,4.7-1.1,7.2c1,5.8,2.5,11.5,4.1,17.2c0.4,1.3,0.7,2.6,1.2,4.3
		c-11.7-4.5-17.3-14.2-22.7-24.1c-3.4,3.4-7.3,10.1-8.4,14.6c-1.5,5.9,0.2,10.4,5.1,13.9c0.2,0.1,0.5,0.2,0.4,0.7
		c-3.1-0.2-6.2-0.8-9.1-1.9c-8.2-3-12-8.9-11.5-17.6c0.3-3.8,1.3-7.4,2.8-10.9c0.2-0.5,0.5-0.9-0.2-1.3c-0.6-0.3-0.7,0.1-1,0.4
		c-4.3,6.3-7.2,13.1-7.7,20.8c-0.7,11.1,3.1,20.6,10,29.1c1.3,1.6,1.2,1.7-0.7,2.2c-3,0.9-5.8,0.1-8.5-1.1
		c-4.9-2.1-9.2-5.2-13.1-8.8c-1.1-1-2.2-1.3-3.6-1c-5.4,0.9-10.9,1.2-16.4,0.6c-2.3-0.3-4.6-0.6-6.9-1c0-0.1,0-0.1,0-0.2
		c0,0-0.1,0-0.1,0c0,0.1,0.1,0.1,0.1,0.2c0.2,0.4,0.4,0.9,0.5,1.3c0.4,2.7-0.5,5.2-1.7,7.5c-1.8,3.7-4,7.1-6,10.7
		c-1,1.8-2,3.7-2.5,5.7c-0.3,1.1-0.1,1.9,1,2.5c0.9,0.5,1.8,1.1,2.6,1.7c1.3,1,3,2.1,2.4,4c-0.6,2-2.6,2-4.3,2.1
		c-4.5,0.2-8.9-0.4-13.3-0.9c-0.9-0.1-1.6-0.4-2.1-1.1c-4.5-5.7-5.6-11.9-2.4-18.6c0.6-1.4,0.1-2.8-1.7-3.9
		c-1.2-0.8-2.1-0.6-3.2,0.8c-1.7,2.2-2.8,4.7-3.3,7.4c-1,6.2,1,11.5,4.6,16.5c1.3,1.7,2.8,3.2,4.4,4.9c-5.2,2-10.4,2.6-15.6,1
		c-6-1.8-9.5-6.2-11.6-11.9c-1.8,1.4-2.9,3.1-3.4,5.1c-1,3.9-0.1,7.5,1.4,11c0.3,0.7,0.8,0.6,1.3,0.6c1.5,0,2.9-0.1,4.4,0
		c6.8,0.5,11.4,5.1,11.9,11.5c0.8,12.1-11.5,26.7-28.4,23.8c-3.6-0.6-6.7-2.5-9.8-4.5c-0.4-0.3-0.6-0.8-1.3-0.7c0,0.4,0,0.8-0.1,1.1
		c-0.5,8.5-5.5,14.3-13.8,15.9c-4.9,0.9-9.7,0.5-14.4-0.9c-7.3-2.2-11.7-7-13.1-14.5c-0.8-4.5-0.5-9,0.4-13.4
		c0.7-3.8,1.7-7.5,3.3-11.2c3,3.2,6.4,5.3,10.4,6.4c0.7,0.2,0.5,0.6,0.4,1.1c-0.4,1.7-0.6,3.5-0.2,5.3c0.9,3.9,6.7,5.7,9.6,3
		c2.4-2.2,5-3.9,8.4-4.4c-0.3-0.5-0.5-0.8-0.7-1.2c-0.7-2.1-1.5-4.2-2.2-6.3c-0.1-0.5-0.2-1-0.4-1.6c-1.7,1.7-3.7,2.7-5.9,3.1
		c-8.3,1.7-17.3-2.6-21.4-10.3c-2-3.8-3.3-7.8-2.3-12.2c1.1-5,4.7-8,8.9-10.4c2.2-1.2,4.5-2,7-2.7c-0.3-0.2-0.4-0.4-0.5-0.4
		c-3.5-1.6-6.1-4-7.6-7.6c-0.4-1-1-0.5-1.5-0.3c-0.6,0.1-1.2,0.1-1.9,0.2c-5.8,0.9-11.7,1.6-17.6,2c-7.3,0.5-14.6-0.2-21.9-1.4
		c-0.9-0.4-1.5-0.1-2.1,0.7c-1,1.5-2.4,2.6-3.9,3.5c-0.7,0.4-1.5,0.8-2.5,1.4c3.6,1,6.8,2.3,9.6,4.3c4.5,3.2,7.2,7.4,6.6,13.2
		c-0.3,3.2-1.5,6.1-3.2,8.8c-2.9,4.8-7.2,7.8-12.7,9.1c-5,1.2-9.8,0.8-14.1-2.8c-0.1,0.6-0.2,1.1-0.3,1.5c-0.7,2.1-1.5,4.1-2.2,6.2
		c-0.4,0.6-1.1,1.2,0.3,1.4c2.8,0.4,5,1.9,6.9,3.8c1.4,1.5,3,1.7,4.8,1.5c3.6-0.4,5.3-2.3,5.4-5.9c0-1.2-0.1-2.3-0.4-3.4
		c-0.1-0.5-0.2-1,0.5-1.2c4-1,7.4-3.2,10.2-6.1c0.2,0.1,0.3,0.2,0.3,0.3c2.8,7.6,4.7,15.3,3.5,23.5c-1,6.7-4.5,11.7-10.8,14.3
		c-5,2.1-10.3,2.7-15.7,1.9c-7.8-1.1-12.8-5.6-14.4-12.7c-0.3-1.5-0.4-3-0.5-4.8c-0.5,0.4-0.9,0.7-1.3,1c-5,3.6-10.5,5.4-16.8,4.7
		c-11.1-1.2-20.7-10.9-21.4-22.1c-0.4-6.4,3.3-11.5,9.5-13c2.2-0.5,4.5-0.7,6.7-0.5c0.7,0.1,1.2,0,1.5-0.7c1.2-2.8,2-5.7,1.7-8.9
		c-0.3-2.8-1.5-5.1-3.8-7c-2.1,5.6-5.4,9.8-11,11.7c-5.4,1.8-10.8,1.3-16.3-1.1c0.6-0.7,1.4-1.2,2-1.8c2.8-2.9,5.1-6.3,6.3-10.2
		c1.8-5.8,1.2-11.3-2.4-16.3c-1.1-1.5-2.1-1.7-3.3-0.9c-1.8,1.2-2.3,2.6-1.6,4.1c2.8,6,2.2,11.8-1.6,17.2c-1,1.5-2.1,2.5-4,2.4
		c-1.2,0-2.5,0.3-3.7,0.4c-3.4,0.3-6.9,0.8-10.3,0.1c-1.2-0.2-2.3-0.6-2.6-1.9c-0.3-1.3,0.4-2.2,1.3-3c1.2-1.1,2.5-2,3.8-2.7
		c1-0.5,1.2-1.3,1-2.4c-0.6-2.2-1.7-4.2-2.8-6.1c-1.9-3.4-4-6.7-5.8-10.3c-1.2-2.4-2-4.8-1.7-7.5c0.2-0.4,0.5-0.8,0.5-1.4
		c-0.2,0-0.4,0-0.6,0c-7.8,1.9-15.6,1.7-23.4,0.4c-1-0.2-1.7,0.1-2.5,0.8c-4.5,4-9.3,7.6-15.1,9.7c-2.1,0.8-4.3,1.2-6.6,0.6
		c-2.4-0.6-2.3-0.7-0.9-2.5c6.2-7.7,9.9-16.4,9.9-26.5c0-8.5-3-15.9-7.7-22.8c-0.2-0.3-0.4-0.9-1.1-0.5c-0.7,0.4-0.4,0.8-0.2,1.3
		c1.4,3.4,2.4,6.9,2.8,10.6c0.8,7.3-2.5,13.4-9,16.7c-2.4,1.2-4.9,2-7.6,2.4c-0.7,0.1-1.4,0.2-2.2,0.3c-0.7,0.1-1.3,0.4-2.1,0.1
		c0.1-0.2,0.2-0.2,0.2-0.3c0.2-0.1,0.3-0.2,0.5-0.4c4.5-3,6.2-7.2,5.3-12.5c-1.2-6.3-4.8-11.1-8.7-16.1c-1.6,3.5-3.4,6.7-5.5,9.7
		c-3.2,4.7-6.8,8.9-11.7,12c-1.6,1-3.3,1.9-5.4,2.3c0.1-0.5,0.2-0.8,0.3-1c1.8-6.2,3.4-12.4,4.7-18.7c0.7-3.4,0.6-6.6-1.4-9.6
		c-1.3-1.9-2.3-4.1-3.4-6.2c-5.4-10.6-10.1-21.4-11-33.5c-0.7-9.7,1.8-18.4,9.1-25.2c0.8-0.8,0.7-1.2-0.2-1.7
		c-3.7-4.2-6.2-9.1-7.8-14.5c-0.2-0.7-0.5-0.9-1.2-0.9c-2-0.2-4-0.6-6-1.2c-8-2.5-14.1-7.2-16.6-15.6
		C23.5,287.5,23.3,286.4,23,285.3z M232.7,457.6c-0.1-0.1-0.2-0.2-0.4,0c0.1,0.1,0.1,0.1,0.2,0.2c0.1,0.7,0.5,1.3,0.8,1.9
		c2.1,4.7,3.6,9.6,4.4,14.7c0,0.6,0.1,1.1,0.2,1.9c0.3-0.4,0.4-0.5,0.5-0.6c0.7-1.3,1.4-1.6,2.5-0.3c1,1.1,2.3,2,3.7,2.5
		c2.6,1,4.1,0.1,4.4-2.6c0.3-2.8-1-5.1-2.7-7.1C242.6,463.7,237.8,460.5,232.7,457.6z M328.9,459.7c-0.5-0.4-0.9,0.2-1.2,0.4
		c-2.7,1.6-5.3,3.3-7.7,5.2c-2.7,2.2-5.2,4.5-6.8,7.6c-0.9,1.8-1.4,3.6-0.8,5.6c0.5,1.6,1.5,2.3,3.2,1.9c1.5-0.3,2.8-1.1,4-2.1
		c0.6-0.5,1.2-1.4,1.9-1.6c1-0.2,1,1.3,1.9,1.6c0-0.6,0.1-1.2,0.1-1.9c0.8-5.2,2.3-10.2,4.6-15C328.4,460.8,328.6,460.2,328.9,459.7
		c0-0.1,0-0.2,0.1-0.2c0,0-0.1,0-0.1,0C328.9,459.5,328.9,459.6,328.9,459.7z M241.7,444.7c-0.4-0.2-0.9-0.3-1.3-0.5
		c-8.9-2.4-17.4-5.5-25.5-9.9c-0.2-0.1-0.3-0.2-0.5,0.1c3.7,3.4,6.9,7.3,10.2,11.1c0.5,0.8,0.9,1.5,2,1.6c3,0.5,6,0.8,9.1,0.6
		c2.7-0.2,5.2-0.7,7.5-2.4C242.7,444.7,242.1,444.9,241.7,444.7z M317.7,444.5c-0.5,0-0.9,0.2-1.3,0.5c1.3,2,2.8,3.1,5.3,3.9
		c4.5,1.3,9,0.8,13.5,0c0.8-0.1,1.3-0.8,1.4-1.6c0.5-0.2,0.8-0.5,1.1-0.9c5-6.2,10.6-11.7,16.7-16.9c0.4-0.3,1-0.6,1.1-1.2
		c-0.7-0.2-1.1,0.3-1.5,0.6c-6.5,4-13.3,7.4-20.4,10.3C328.4,441.2,323,442.9,317.7,444.5z M424.5,392c0,0.1,0.1,0.1,0.1,0.2
		c0,0,0.1-0.1,0.1-0.1C424.7,392.1,424.6,392,424.5,392c-2.2-1.5-3.8-3.3-4.4-6c-0.3-1.7-0.6-3.5-0.7-5.3c-0.1-4.8,0.5-9.6,1.3-14.3
		c0.2-1,0-1.6-1-1.9c-3.6-2.8-7.4-5.4-11-8.5c-0.2,0.4-0.3,0.7-0.4,1c-2.4,8.1-5.6,15.8-9.6,23.3c-5.4,10-11.9,19.2-19.6,27.6
		c-0.8,0.9-0.8,1.4,0.1,2.1c2.7,2.4,5.8,3,9.2,1.9c0.9-0.1,1.3-0.4,0.9-1.4c-0.4-1.1-0.8-2.2-0.8-3.6c4.4,4.7,9.8,6.4,16.1,6.3
		c-4.2-3.5-4.5-3.8-5.4-6.2c-1.1-2.9-1.7-6.6-1.4-7.8c6.5,6.7,15.1,7.9,23.8,9c-4.8-1.9-8.2-5-10-9.8c-1.7-4.5-2.2-9.2-2-14.4
		C413.5,389.6,418.5,391.8,424.5,392z M174.8,399.9c-0.1-0.1-0.2-0.2-0.3-0.4c-0.3-0.4-0.6-0.9-0.9-1.3
		c-5.4-7.2-10.1-14.8-14.1-22.7c-3.2-6.3-5.9-12.9-8.2-19.7c-3.3,2.5-6.5,4.9-9.7,7.3c-0.6,0.3-1.3,0.5-1.1,1.6
		c0.7,3.4,1.2,6.8,1.3,10.3c0.1,5.6,0.9,11.6-5.1,15.6c3.2-0.1,5.8-0.9,8.4-2.1c2.6-1.2,4.7-3,6.3-5.4c0.3,4.9-0.2,9.6-1.9,14.1
		c-1.9,4.8-5.4,7.8-10.1,9.6c8.9-1.2,17.6-2.4,24.4-9.4c-0.3,2.6-0.7,5-1.5,7.4c-0.6,1.9-1.4,3.8-3,5.1c-0.8,0.6-1.7,1-2.9,1.8
		c6.6,0.2,12-1.6,16.6-6.6c-0.5,1.6-0.7,2.8-1.1,3.9c-0.3,1,0,1.4,1,1.3c3,1,5.7,0.6,8.3-1.2c0.5-0.3,0.9-0.6,0.3-1.3
		C179.2,405.1,177,402.5,174.8,399.9z M96.5,97.7c2.7-1.4,4.7-3.7,6.3-6.2c2.5-3.9,6-5.5,10.5-5.2c2.3,0.1,4.7,0.1,7.1-0.3
		c3.7-0.6,6.6-2.3,8-6c0.6-1.5,1.9-2.2,3.4-2.5c2.7-0.5,5.3,0.1,7.9,0.8c7.6,2.1,14.5,5.7,21.4,9.3c0.8,0.4,1.5,0.6,2.4,0.6
		c8.1,0,16.3-0.1,24.4,0c1.5,0,1.5-0.4,0.8-1.5c-4.5-8.3-9.7-16.1-15.8-23.2c-7.1-8.3-15-15.5-24.8-20.6c-9.4-4.9-19.4-7-29.9-5.5
		c-5.4,0.8-10.6,2.3-16,3.3c-5.3,1-10.5,1.9-15.9,1.5c-1.9-0.2-3.6-0.8-5.5-1.4c0.3,1.1,0.9,1.8,1.4,2.5c2.6,3.5,6,6.1,9.9,8.1
		c1,0.5,1.2,1,0.7,2c-0.4,0.9-0.8,1-1.8,0.8C80.6,51,69.9,49.4,59,51.2c-4.1,0.7-8.1,2-11.9,4.4c2.4,0.5,4.6,0.9,6.7,1.4
		c4.7,1.1,9.3,2.7,13.1,5.8c2.5,2,4.1,4.6,4.5,7.8c0.2,1.1,0,1.9-1.2,2.4c-1.3,0.5-2.5,1.2-3.9,1.7c-10.3,4-20.7,5.3-31.2,0.9
		c-0.3-0.1-0.7-0.3-1,0c0.1,0,0.1-0.1,0.2-0.1c0,0-0.1-0.1-0.1-0.1c0,0.1-0.1,0.2-0.1,0.3c0.3,0.4,0.7,0.8,1,1.2
		c3.1,4.2,6.6,8,10.6,11.3c7.6,6.2,16.2,9.8,26.1,9.4c6.5-0.2,12.6-2.2,18.4-5.1c1.9-1,3.7-2.1,5.7-3c1.9-0.9,2.8-0.1,2.6,2
		c-0.2,2.2-1.5,4.1-2.3,6.1c-0.1,0.1-0.1,0.2-0.2,0.3C96.2,97.7,96.4,97.7,96.5,97.7z M474,183.4c-0.5-0.6-0.9-1.2-1.8-1.3
		c-4-0.2-7.9-0.6-11.9-1.3c-1-0.2-1.5,0.2-1.9,1.1c-9.7,22.5-17.1,45.6-19.3,70.2c-0.9,10.2-0.6,20.4,1.7,30.5
		c3.4,14.7,11,26.5,24.1,34.3c7.5,4.5,15.7,7.2,24.3,8.5c5.5,0.8,10.3-0.8,14.2-4.7c3.7-3.6,6.1-8.1,7.3-13c0.7-2.8,1.9-3.6,4.6-3.9
		c5.3-0.6,10.3-2.5,14.3-6.2c6-5.5,7.7-14.6,4-22.2c-4-8.5-11.6-11.4-19.6-10.7c-5.3,0.5-7.6,3.8-6.8,9.2c0.3,2,0.8,3.9,1.6,5.7
		c0.2,0.5,0.6,0.9,0.4,1.5c-12.3-5.8-21.3-14.6-26.2-27.3c-4-10.3-4.7-21-3.7-31.9c0.9-9.9,3.1-19.6,6.5-29c0.3-0.7,0.2-1.1-0.6-1.4
		c-2.2-1.1-4.2-2.5-6.2-4c-1.6-1.3-3.3-2.6-4.9-3.9C474.1,183.6,474.1,183.5,474,183.4z M52,280c0-0.9,0.4-1.5,0.6-2.1
		c0.8-2,1.3-4,1.5-6.1c0.5-4.8-2.2-8-7-8.3c-1.8-0.1-3.7-0.1-5.5,0.2c-8.1,1.3-13.2,6.2-15.2,14c-2,7.7,0.2,14.4,6.5,19.5
		c4.4,3.6,9.6,5,15.1,5.5c1.3,0.1,1.8,0.6,2,1.8c0.8,3.5,2.2,6.8,4.1,9.8c4,6.5,10.1,11.4,20.1,9.2c1-0.2,1.3,0,1.3,1
		c0.2,3.9,0.8,7.8,1.6,11.7c1.8,8.4,4.4,16.5,9.2,23.7c4.2,6.3,9.7,10.9,17.3,12.4c6.5,1.3,12.7,0,18.8-2.2
		c9.8-3.7,18.3-9.6,26.5-16c1.1-0.8,1.3-1.6,0.9-2.9c-2.3-8.1-4-16.4-3.9-24.9c0.1-39.9,0.3-79.7,0.4-119.6c0-1-0.2-1.8-0.7-2.7
		c-4.9-8.5-9.7-17.1-14.6-25.7c-1.8-3.1-3.5-6.3-5.3-9.5c-2.4,3.5-5.8,5.6-9.5,7.1c-8.5,3.6-17.5,4.6-26.5,5.3
		c-0.8,0.1-1.5,0.3-2.1,0.9c-3.7,3.2-7.4,6.4-11.8,8.6c-0.7,0.3-0.6,0.6-0.4,1.2c0.6,1.8,1.2,3.6,1.8,5.4
		c4.3,14.6,6.6,29.4,3.9,44.7C78.1,259.7,68.3,272.3,52,280z M435.6,169.7c-0.3,0.5-0.6,0.9-0.8,1.3c-6.7,11.9-13.5,23.9-20.2,35.8
		c-0.5,0.9-0.8,1.9-0.8,3c0.1,36.2,0.2,72.5,0.3,108.7c0,6-0.3,12-1.2,18c-0.8,5.5-2,10.9-1.9,16.5c0,1,0.2,1.7,1.1,2.4
		c2.8,2,5.5,4.2,8.3,6.2c7.3,5.1,14.9,9.5,23.6,11.7c12.1,3.1,22.3-0.2,29.5-9.9c8-10.8,10.8-23.5,12.3-36.6c0.1-0.8-0.2-1.1-1-1.2
		c-3-0.6-5.9-1.5-8.8-2.5c-14.5-5.1-25.6-14.1-32.1-28.2c-4.5-9.7-6-20-6.2-30.6c-0.2-15.6,2.5-30.9,6.6-45.9
		c3.4-12.5,7.7-24.6,13-36.5c0.6-1.3,0.4-1.7-1-1.9c-1.8-0.2-3.5-0.7-5.2-1.2C445.4,177.1,439.6,175,435.6,169.7z M480.7,40.7
		c-4.4,1.5-7.4,1.8-11.5,1.5c-6.4-0.5-12.6-1.9-18.8-3.4c-7.1-1.7-14.2-2.4-21.5-1.2c-10.2,1.7-19.1,6.4-27.1,12.8
		c-12.5,10.1-21.8,22.8-29.4,36.9c-0.6,1.1-0.1,1.2,0.8,1.2c8.1,0,16.1,0,24.2,0c1.1,0,2-0.2,3-0.7c5.5-3,11.1-5.8,17-8
		c3.4-1.2,6.8-2.4,10.5-2.3c2,0,4,0.5,4.9,2.7c1.3,3.2,3.7,5.1,7.1,5.8c2.9,0.6,5.8,0.7,8.8,0.6c4-0.2,7.1,1.4,9.3,4.7
		c1.2,1.8,2.5,3.5,4.1,4.9c0.9,0.8,1.8,1.5,3.1,2.1c-1.3-2.4-2.4-4.5-2.7-7c-0.2-1.4,0.7-2.3,2.1-1.8c0.8,0.3,1.6,0.7,2.4,1.1
		c1.9,1,3.7,2.1,5.7,3c11.2,5.2,22.5,6,33.9,0.5c6.8-3.3,12.3-8.3,17.1-14.1c0.6-0.7,1.1-1.4,1.6-2.1c0.5-0.7,1-1.4,1.8-2.5
		c-12.7,5.3-24.5,3.4-36.1-2.2c-1-0.5-1.3-1.1-1.2-2.2c0.3-2.7,1.4-5,3.4-6.9c2.6-2.7,5.9-4.3,9.4-5.5c3.6-1.3,7.4-2.1,11.2-2.7
		c-0.1-0.2-0.1-0.3-0.1-0.4c-0.2-0.1-0.3-0.2-0.5-0.3c-5.3-2.9-11-4.2-17-4.5c-8.9-0.4-17.5,1-26,3.6c-1.1,0.3-1.4,0-1.8-0.9
		c-0.4-0.9-0.3-1.4,0.6-1.8c2-1,3.9-2.2,5.7-3.6C477.2,45.9,479.3,43.8,480.7,40.7z M405.9,212.1c-0.4-38.8-0.8-77.7-1.1-116.5
		c0-1.4-0.4-1.7-1.7-1.7c-15.4,0-30.7,0-46.1-0.2c-3.1,0-4.5,1.1-5.8,3.7c-14.1,29-38.5,42.5-69.5,45.6c-7.5,0.8-15-0.6-22.4-2.6
		c-16.9-4.7-30.7-14.3-42.1-27.5c-4.5-5.2-8.6-10.7-10.6-17.5c-0.3-1.2-0.9-1.5-2-1.5c-16.4,0-32.7,0.1-49.1,0c-1.7,0-1.9,0.5-1.9,2
		c0.1,53.6,0.1,107.3,0.1,160.9c0,23.6,0,47.3,0.1,70.9c0,0.9,0.1,1.8,0.2,2.7c2,10.1,4.7,20,8.4,29.7c5,13.1,11.3,25.5,20.1,36.6
		c2.8,3.6,5.8,7.1,9.4,10c14.8,12.1,30.9,21.8,48.8,28.6c16.2,6.2,33,8.9,50.4,7.4c13.4-1.1,26.1-4.8,38.3-10.2
		c12-5.3,22.6-12.9,33.2-20.5c7.7-5.6,14.6-11.9,20-19.7c9.7-13.9,16.7-29.1,21.1-45.4c1.8-6.5,3.3-13.1,3.3-19.9
		C406.6,288.6,406.2,250.4,405.9,212.1z M384.2,427.8c-0.5,0.1-0.9,0.3-1.3,0.4c-6.4,1.6-12.6,0.6-18.6-1.6c-1-0.4-1.7-0.2-2.5,0.4
		c-4.9,3.9-9.7,8-14.1,12.5c-7.3,7.4-13.7,15.4-17.8,25.1c-4,9.5-5.2,19.2-1.5,29c3.2,8.3,8.5,14.8,16.9,18.1
		c13.1,5.1,27.6-5.8,28.1-19c0.2-5.3-2.9-8.9-8-9.9c-2.3-0.4-4.6-0.6-6.9,0c-0.9,0.2-1.6,0-1.9-0.8c-1.1-2.8-2.2-5.5-2.6-8.5
		c-0.7-5.7,2.2-11.4,6.9-13.6c0.9-0.4,1.2-0.3,1.5,0.7c0.5,1.9,1.2,3.8,2.2,5.5c3.8,6.8,11.8,8.5,18,6.8c-1.3-1.7-2.6-3.4-3.6-5.3
		c-3.7-7.1-4.5-14.2-0.5-21.4c1.2-2.2,2.6-4.5,5.6-4.5c2.9,0,4.3,2.2,5.7,4.3c0.7,1,0.7,1.9,0,3c-3,5.4-2.6,10.6,0.8,15.7
		c0.4,0.6,0.8,1.2,1.7,1.2c3.5,0.4,7,0.8,10.5,0.9c1.1,0,2.2,0,3.4-0.4c-1.2-1.2-2.4-2-3.7-2.7c-1.8-1-2.4-2.5-2.1-4.5
		c0.4-2.5,1.6-4.7,2.8-6.9c1.9-3.5,4.2-6.9,5.9-10.5c0.7-1.5,1.4-3,1.6-4.7c0.1-1.3-0.4-2.1-1.6-2.5c-9-3.1-15.1-9.3-19.2-17.7
		c-0.6-1.3-1.3-1.7-2.7-1.5c-3.3,0.5-6.3-0.4-8.9-2.6c-0.8-0.6-1.4-1.4-2.4-2.4C373.8,418.5,379.5,422.8,384.2,427.8z M155.5,464
		c0.2,0.4,0.5,0.3,0.7,0.4c4.4,0.3,8.8-0.3,13.2-0.8c0.7-0.1,1.1-0.5,1.5-1.1c3.4-4.8,4.1-9.9,1.2-15.1c-1-1.9-0.8-3.2,0.4-4.6
		c0.3-0.3,0.5-0.7,0.8-1c2.8-3.3,6.1-3.2,8.7,0.2c1.5,1.9,2.5,4.1,3.1,6.5c1.9,7.5-0.2,14.1-4.6,20.1c-1.6,2.2-1.6,2.2,1.1,2.5
		c7.2,0.9,13.4-2.5,16.3-9.2c0.5-1.1,1-2.2,1.2-3.4c0.3-1.5,0.9-1.3,1.9-0.7c4.5,2.3,7.3,7.8,6.6,13.1c-0.4,3.1-1.5,6-2.6,8.8
		c-0.3,0.8-1,1.1-1.8,0.9c-1.8-0.5-3.7-0.4-5.5-0.2c-6,0.4-9.7,4.2-9.5,10.1c0.3,7.8,4.5,13.6,11.1,17.3c6.7,3.8,13.6,4,20.5,0
		c11.2-6.7,17.4-20.8,15.2-34c-1.4-8-4.6-15.1-9-21.7c-7.2-10.8-16.6-19.4-26.7-27.3c-0.5-0.4-1-0.4-1.6-0.2c-2,0.8-4.1,1.3-6.2,1.8
		c-4.8,1-9.5,1.1-14.3-0.4c0.4-0.8,1.1-1.2,1.7-1.7c3-2.8,5.7-5.9,7-9.9c0.6-1.9,0.7-3.8-0.4-5.8c-3.1,3.7-6.9,5.4-11.5,4.7
		c-1.3-0.2-1.6,0.2-2,1.2c-3.9,8.1-9.7,14.3-18.2,17.5c-3.1,1.2-3.4,1.9-2.3,5c0.2,0.6,0.4,1.2,0.7,1.7c1.6,3.4,3.6,6.6,5.5,9.9
		c1.3,2.3,2.7,4.6,3.4,7.2c0.8,2.9,0.2,4.3-2.2,5.8C157.5,462.4,156.4,463,155.5,464z M413.6,119c0,0,0.1,0,0.1,0
		c0,9.1,0,18.2,0,27.4c0,1.2,0.4,1.7,1.5,2.2c4.2,1.6,8.4,2.9,12.9,3.3c8.5,0.7,15.2-2.5,17.3-12c1.2-5.2,1.1-10.5,0.1-15.7
		c-2.2-10.8-8-19.3-16.4-26.2c-4-3.3-8.3-6-13.3-7.5c-2.1-0.6-2.1-0.6-2.1,1.5C413.6,100.9,413.6,109.9,413.6,119z M146.6,118.9
		c0,0,0.1,0,0.1,0c0-8.8,0-17.6,0-26.4c0-2.8,0-2.9-2.7-1.8c-7.6,3-13.8,7.8-18.9,14.1c-8.1,9.9-11.5,21.2-9.2,34
		c1.5,8.2,6.8,12.5,15.1,12.6c5,0,9.6-1.3,14.2-3c1.1-0.4,1.5-0.9,1.5-2.1C146.6,137.1,146.6,128,146.6,118.9z M505.7,157.1
		c-0.2,5,0.6,9.6,2.6,14c1.7,3.7,4.2,6.7,7.8,8.8c0.6,0.3,1.2,0.6,1.5-0.3c0.3-0.7,0.4-1.2-0.5-1.6c-3-1.6-5.1-4.1-6.6-7.1
		c-2.9-5.9-3.1-12.2-2.4-18.6c0.5-4.9,1.1-9.8,0.4-14.7c-2-13.6-8.1-25.3-16.4-36.1c-0.5-0.6-0.9-0.8-1.5-0.2
		c-0.7,0.6-0.7,1-0.1,1.7c5.4,6.8,9.7,14.3,12.8,22.5c2.7,7.4,4.1,15,3.2,23C506,151.3,505.5,154.3,505.7,157.1z M74.6,102.6
		c-0.1-0.5-0.5-0.9-1-1.1c-0.7-0.3-0.9,0.3-1.2,0.7c-6.2,7.9-11,16.5-14,26.2c-2.2,7.1-3.2,14.3-2.1,21.7c0.9,5.8,1.1,11.7-0.6,17.4
		c-1.3,4.5-3.6,8.4-7.7,10.9c-0.6,0.3-1.4,0.6-0.9,1.5c0.5,0.8,1.3,0.9,2.2,0.4c1.3-0.8,2.5-1.8,3.5-2.9c5.5-6.2,6.7-13.7,6.3-21.5
		c-0.2-3.7-0.9-7.4-1-11.1c-0.2-6.3,1.2-12.5,3.4-18.4c3-8.2,7.3-15.6,12.6-22.5C74.2,103.3,74.6,103.1,74.6,102.6z M466.4,144.1
		c0.8,0,1.6-0.1,2.3-0.2c5.4-1,9.4-4.4,13.2-8.1c0.6-0.6,0.2-1-0.2-1.4c-0.4-0.5-0.8-0.7-1.4-0.1c-2,2.2-4.3,4-6.8,5.5
		c-5.7,3.3-11.4,2.7-16.1-1.9c-2.1-2.1-3.9-4.4-5.2-7c-0.5-0.9-0.9-1.3-1.9-0.8c-1.1,0.6-0.3,1.2-0.1,1.7c1.7,3.3,3.9,6.2,6.7,8.6
		C459.7,142.7,462.8,144,466.4,144.1z M98.5,144.7c0.5-0.1,1.4-0.2,2.2-0.3c0.5-0.1,1-0.2,1.5-0.4c6.1-2.1,9.7-6.7,12.5-12.2
		c0.4-0.8-0.1-1-0.7-1.3c-0.7-0.4-1-0.2-1.3,0.5c-1,2.1-2.4,4-3.9,5.9c-4.9,6-11.8,7.2-18.3,3c-2.2-1.4-4.1-3.1-5.9-4.9
		c-0.6-0.6-1-0.8-1.7-0.1c-0.7,0.7-0.5,1.2,0.1,1.7c1.2,1.1,2.4,2.2,3.6,3.3C90,142.6,93.8,144.5,98.5,144.7z M362.5,423.1
		c5.3,2.1,10.5,3.4,16.3,3.1c-3.1-3.5-5.5-6.9-6.3-11.3C369.3,417.8,366.1,420.5,362.5,423.1z M65.1,156.6c-1,0-1.1,0.1-1,1.2
		c0.4,3.8,2.5,6.7,5.1,9.1c6,5.8,13.3,9.3,21,12.4c0.8,0.3,1,0,1.3-0.6c0.4-1-0.1-1.3-0.9-1.6c-4.6-1.8-9.1-3.9-13.2-6.6
		c-5-3.3-10-6.7-11.2-13.3C66,156.6,65.6,156.6,65.1,156.6z M500.7,157c0.1-0.7-0.2-1-0.9-1c-0.6,0-1.2-0.2-1.3,0.7
		c-0.6,4.6-3.7,7.5-7,10.2c-5.2,4.3-11.2,7.1-17.4,9.6c-0.4,0.2-1.1,0.1-1,0.9c0.1,0.7,0.7,0.8,1.3,1c0.5,0.2,1-0.1,1.5-0.3
		c1.9-0.8,3.8-1.6,5.6-2.5c5.4-2.7,10.6-5.7,14.8-10.2C498.5,163.1,500.2,160.4,500.7,157z M196.5,422.2c-2.1-1.9-4.1-3.6-6-5.2
		c-0.6-0.6-1.3-1.6-1.9-1.6c-0.9,0-0.8,1.3-1.2,2.1c-1.3,2.5-2.9,4.6-4.9,6.9C187.5,424.7,192,423.8,196.5,422.2z"/>
	<path class="st1" d="M337.7,510.7c-0.5,10.2-6.4,16.5-16.6,17.9c-0.2,0-0.5,0.2-0.7,0.3c-1.9,0-3.8,0-5.7,0c-1.7-0.3-3.5-0.6-5.2-1
		c-10.1-2.3-15.9-9.5-16.2-19.8c-0.2-7.2,1.3-14.1,3.8-20.9c0.4-1,0.3-1.8-0.3-2.7c-2.2-3.3-3.7-6.8-3.9-10.8
		c-0.4-5.9,2.4-10.2,7-13.6c2.1-1.6,4.5-2.7,7.1-3.8c-2.9-2.1-5.1-4.6-6.2-8c0.6-0.2,1.1-0.7,1.5,0.3c1.5,3.6,4.1,6,7.6,7.6
		c0.1,0.1,0.2,0.2,0.5,0.4c-2.5,0.7-4.8,1.5-7,2.7c-4.2,2.4-7.8,5.4-8.9,10.4c-1,4.4,0.3,8.4,2.3,12.2c4.1,7.8,13.1,12.1,21.4,10.3
		c2.2-0.5,4.2-1.4,5.9-3.1c0.1,0.6,0.3,1.1,0.4,1.6c-3.1,2.5-6.7,3.4-10.5,3.2c-3.3-0.1-3.3-0.1-3.4,3.2c0,0.1,0,0.2,0,0.3
		c0.1,1.9,0.5,3.8,2.5,4.5c1.9,0.7,3.9,1,5.7-0.8c2.2-2.2,4.9-3.8,8.1-4.2c0.2,0.4,0.4,0.7,0.7,1.2c-3.4,0.4-6,2.2-8.4,4.4
		c-3,2.7-8.7,0.9-9.6-3c-0.4-1.8-0.2-3.5,0.2-5.3c0.1-0.5,0.3-0.9-0.4-1.1c-4-1.1-7.5-3.2-10.4-6.4c-1.5,3.8-2.6,7.5-3.3,11.2
		c-0.8,4.5-1.2,8.9-0.4,13.4c1.4,7.5,5.8,12.4,13.1,14.5c4.7,1.4,9.5,1.8,14.4,0.9c8.3-1.6,13.3-7.4,13.8-15.9c0-0.4,0-0.7,0.1-1.1
		C337,509.8,337.3,510.4,337.7,510.7z"/>
	<path class="st2" d="M538.1,281.1c0.1-0.1,0.2-0.1,0.3-0.2c0,2,0,4,0,6c-0.1-0.1-0.2-0.1-0.3-0.2
		C538.1,284.8,538.1,283,538.1,281.1z"/>
	<path class="st3" d="M52,280c16.4-7.7,26.1-20.3,29.2-37.9c2.7-15.2,0.4-30-3.9-44.7c-0.5-1.8-1.1-3.6-1.8-5.4
		c-0.2-0.6-0.3-0.9,0.4-1.2c4.4-2.2,8.1-5.4,11.8-8.6c0.6-0.6,1.3-0.8,2.1-0.9c9-0.7,18-1.8,26.5-5.3c3.7-1.6,7.1-3.6,9.5-7.1
		c1.8,3.2,3.6,6.4,5.3,9.5c4.9,8.6,9.7,17.1,14.6,25.7c0.5,0.9,0.7,1.7,0.7,2.7c-0.1,39.9-0.3,79.7-0.4,119.6
		c0,8.5,1.6,16.8,3.9,24.9c0.4,1.3,0.1,2-0.9,2.9c-8.2,6.4-16.7,12.3-26.5,16c-6.1,2.3-12.3,3.5-18.8,2.2
		c-7.6-1.5-13.1-6.1-17.3-12.4c-4.8-7.2-7.5-15.3-9.2-23.7c-0.8-3.8-1.5-7.7-1.6-11.7c0-1-0.3-1.2-1.3-1c-10,2.2-16.1-2.7-20.1-9.2
		c-1.9-3.1-3.3-6.3-4.1-9.8c-0.3-1.2-0.7-1.6-2-1.8c-5.5-0.6-10.7-2-15.1-5.5c-6.3-5.1-8.4-11.8-6.5-19.5c2-7.8,7-12.7,15.2-14
		c1.8-0.3,3.7-0.3,5.5-0.2c4.8,0.3,7.5,3.4,7,8.3c-0.2,2.1-0.7,4.1-1.5,6.1C52.3,278.6,51.9,279.1,52,280z M126.9,261.5
		c0.1-6.4-0.7-14.1-2-21.7c-3.5-20.2-9.7-39.6-18-58.3c-0.2-0.5-0.2-1.7-1.1-1.3c-0.7,0.3,0.1,1.1,0.3,1.6
		c9.7,22.2,17,45.1,19.4,69.3c1,10.4,0.9,20.8-1.4,31.1c-4,18.1-14.2,31.3-31.4,38.7c-5,2.1-10.1,3.6-15.4,4.6
		c-0.4,0.1-1.3-0.1-1.1,0.7c0.2,0.7,0.8,0.3,1.2,0.2c3.8-0.7,7.5-1.7,11.2-3c14.9-5.2,26.2-14.5,32.6-29.1
		C125.5,284.4,126.9,273.8,126.9,261.5z M108.2,245.9c-0.1-5.1-0.5-10.2-1.3-15.2c-2.6-15.9-7.8-31-15-45.4
		c-0.2-0.5-0.3-1.6-1.1-1.1c-0.7,0.4,0.1,1.1,0.3,1.6c8.7,18,15,36.8,16,57c0.5,9.5-0.7,18.7-4.4,27.5c-5.4,12.8-15,21.3-27.5,26.9
		c-6,2.7-12.4,4.5-18.8,5.8c-0.6,0.1-1.8-0.1-1.7,0.8c0.2,0.9,1.2,0.2,1.7,0.1c5.7-1,11.2-2.6,16.6-4.7c11.2-4.5,20.6-11.1,27-21.5
		C106.2,267.9,108.1,257.2,108.2,245.9z"/>
	<path class="st3" d="M435.6,169.7c4,5.4,9.8,7.5,15.7,9.3c1.7,0.5,3.4,1,5.2,1.2c1.4,0.2,1.6,0.6,1,1.9c-5.3,11.8-9.6,24-13,36.5
		c-4.1,15-6.9,30.2-6.6,45.9c0.2,10.6,1.8,20.9,6.2,30.6c6.5,14.2,17.6,23.1,32.1,28.2c2.9,1,5.8,1.8,8.8,2.5c0.8,0.2,1.1,0.4,1,1.2
		c-1.4,13.1-4.2,25.8-12.3,36.6c-7.2,9.8-17.4,13.1-29.5,9.9c-8.7-2.2-16.4-6.6-23.6-11.7c-2.8-2-5.5-4.2-8.3-6.2
		c-0.9-0.6-1.1-1.3-1.1-2.4c-0.1-5.6,1.1-11,1.9-16.5c0.9-6,1.2-12,1.2-18c-0.1-36.2-0.2-72.5-0.3-108.7c0-1.1,0.2-2,0.8-3
		c6.8-11.9,13.5-23.9,20.2-35.8C435,170.6,435.3,170.2,435.6,169.7z"/>
	<path class="st3" d="M474.2,183.6c1.6,1.3,3.3,2.6,4.9,3.9c2,1.5,4,2.9,6.2,4c0.7,0.3,0.8,0.7,0.6,1.4c-3.4,9.4-5.6,19.1-6.5,29
		c-1,10.9-0.2,21.6,3.7,31.9c4.9,12.7,13.9,21.6,26.2,27.3c0.2-0.6-0.2-1.1-0.4-1.5c-0.8-1.9-1.3-3.7-1.6-5.7
		c-0.8-5.4,1.5-8.7,6.8-9.2c8-0.7,15.6,2.2,19.6,10.7c3.6,7.7,2,16.7-4,22.2c-4,3.7-9,5.6-14.3,6.2c-2.7,0.3-3.9,1.1-4.6,3.9
		c-1.2,4.9-3.7,9.4-7.3,13c-3.9,3.9-8.7,5.5-14.2,4.7c-8.6-1.3-16.8-4-24.3-8.5c-13.1-7.8-20.7-19.6-24.1-34.3
		c-2.3-10.1-2.6-20.2-1.7-30.5c2.2-24.6,9.5-47.7,19.3-70.2c0.4-0.9,0.8-1.3,1.9-1.1c3.9,0.7,7.9,1.1,11.9,1.3
		c0.9,0,1.4,0.6,1.8,1.3c-0.9,0.1-1,0.9-1.2,1.5c-5,10-9,20.5-11.9,31.3c-3.7,13.8-5.7,27.7-3.2,41.9c2.1,12.6,7.9,23.2,18,31.3
		c9,7.2,19.5,11.1,30.6,13.6c1.1,0.2,2.2,0.4,3.2,0.6c0.3,0.1,0.7,0.1,0.7-0.4c0-0.4-0.3-0.5-0.6-0.6c-0.6-0.1-1.1-0.2-1.7-0.3
		c-7.2-1.5-14.3-3.6-20.9-6.9c-14.8-7.3-24.4-18.8-27.8-35.1c-2.5-11.7-1.7-23.3,0.7-34.9c2.8-14.1,7.7-27.6,14.1-40.4
		C473.9,184.5,474.3,184.1,474.2,183.6z"/>
	<path class="st3" d="M480.7,40.7c-1.5,3.1-3.6,5.2-5.9,7.1c-1.7,1.4-3.6,2.7-5.7,3.6c-0.9,0.4-1,0.9-0.6,1.8
		c0.4,0.9,0.8,1.3,1.8,0.9c8.5-2.7,17.1-4.1,26-3.6c6,0.3,11.7,1.6,17,4.5c0.2,0.1,0.4,0.2,0.5,0.3c0.1,0.1,0.1,0.2,0.1,0.4
		c-3.8,0.6-7.6,1.3-11.2,2.7c-3.5,1.3-6.8,2.8-9.4,5.5c-1.9,1.9-3,4.2-3.4,6.9c-0.1,1.1,0.2,1.7,1.2,2.2c11.6,5.6,23.4,7.5,36.1,2.2
		c-0.7,1-1.2,1.7-1.8,2.5c-0.5,0.7-1.1,1.4-1.6,2.1c-4.8,5.8-10.3,10.7-17.1,14.1c-11.4,5.6-22.7,4.7-33.9-0.5c-1.9-0.9-3.8-2-5.7-3
		c-0.8-0.4-1.6-0.9-2.4-1.1c-1.4-0.4-2.2,0.4-2.1,1.8c0.3,2.4,1.4,4.6,2.7,7c-1.4-0.6-2.3-1.3-3.1-2.1c-1.6-1.4-2.9-3.2-4.1-4.9
		c-2.2-3.3-5.3-4.9-9.3-4.7c-2.9,0.1-5.9,0.1-8.8-0.6c-3.4-0.7-5.8-2.6-7.1-5.8c-0.9-2.2-2.8-2.7-4.9-2.7c-3.7-0.1-7.1,1.1-10.5,2.3
		c-5.9,2.2-11.5,5-17,8c-1,0.5-1.9,0.7-3,0.7c-8.1,0-16.1,0-24.2,0c-0.9,0-1.4,0-0.8-1.2c7.6-14.1,16.9-26.8,29.4-36.9
		c8-6.5,16.8-11.1,27.1-12.8c7.3-1.2,14.4-0.5,21.5,1.2c6.2,1.5,12.4,2.9,18.8,3.4C473.4,42.5,476.3,42.3,480.7,40.7z"/>
	<path class="st3" d="M34.1,75.5c0.3-0.3,0.7-0.1,1,0c10.5,4.4,20.9,3.1,31.2-0.9c1.3-0.5,2.5-1.2,3.9-1.7c1.2-0.5,1.3-1.2,1.2-2.4
		c-0.5-3.2-2-5.8-4.5-7.8c-3.8-3.1-8.4-4.7-13.1-5.8c-2.1-0.5-4.3-0.9-6.7-1.4c3.8-2.3,7.8-3.7,11.9-4.4c10.9-1.8,21.6-0.2,32.1,2.9
		c1,0.3,1.3,0.2,1.8-0.8c0.5-1,0.3-1.5-0.7-2c-3.9-2-7.3-4.5-9.9-8.1c-0.5-0.7-1.1-1.4-1.4-2.5c1.9,0.6,3.6,1.2,5.5,1.4
		c5.4,0.5,10.6-0.5,15.9-1.5c5.3-1,10.6-2.6,16-3.3c10.6-1.5,20.5,0.6,29.9,5.5c9.7,5.1,17.7,12.3,24.8,20.6
		c6.1,7.2,11.3,14.9,15.8,23.2c0.6,1.1,0.7,1.5-0.8,1.5c-8.1-0.1-16.3,0-24.4,0c-0.9,0-1.6-0.2-2.4-0.6c-6.9-3.6-13.8-7.2-21.4-9.3
		c-2.6-0.7-5.2-1.3-7.9-0.8c-1.5,0.3-2.8,0.9-3.4,2.5c-1.4,3.7-4.3,5.4-8,6c-2.3,0.4-4.7,0.5-7.1,0.3c-4.5-0.3-8,1.4-10.5,5.2
		c-1.6,2.5-3.6,4.8-6.3,6.2c-0.1-0.1-0.1-0.1-0.2-0.2c0.8-2,2-3.9,2.3-6.1c0.2-2.1-0.7-2.8-2.6-2c-1.9,0.9-3.8,2-5.7,3
		c-5.8,3-11.9,4.9-18.4,5.1c-9.9,0.3-18.5-3.3-26.1-9.4c-4-3.3-7.5-7.1-10.6-11.3C34.8,76.3,34.5,75.9,34.1,75.5L34.1,75.5z"/>
	<path class="st4" d="M405.9,212.1c0.4,38.2,0.8,76.4,1,114.7c0.1,6.8-1.5,13.4-3.3,19.9c-4.4,16.3-11.4,31.5-21.1,45.4
		c-5.5,7.8-12.3,14.1-20,19.7c-10.6,7.7-21.2,15.2-33.2,20.5c-12.2,5.4-25,9.1-38.3,10.2c-17.4,1.5-34.1-1.3-50.4-7.4
		c-17.9-6.8-34.1-16.5-48.8-28.6c-3.5-2.9-6.5-6.4-9.4-10c-8.8-11-15-23.5-20.1-36.6c-3.7-9.6-6.4-19.5-8.4-29.7
		c-0.2-0.9-0.2-1.8-0.2-2.7c0-23.6-0.1-47.3-0.1-70.9c0-53.6,0-107.3-0.1-160.9c0-1.5,0.2-2,1.9-2c16.4,0.1,32.7,0,49.1,0
		c1.2,0,1.7,0.3,2,1.5c2,6.7,6.1,12.3,10.6,17.5c11.4,13.2,25.1,22.8,42.1,27.5c7.3,2,14.8,3.4,22.4,2.6c31-3.1,55.4-16.6,69.5-45.6
		c1.3-2.6,2.7-3.8,5.8-3.7c15.4,0.2,30.7,0.2,46.1,0.2c1.4,0,1.7,0.3,1.7,1.7C405.1,134.4,405.5,173.3,405.9,212.1z M157.6,238.1
		c0,0.2,0,0.4,0,0.6c0,0.4-0.1,0.7-0.1,1.1c0,10.4,0,20.8,0,31.2c0,0.4,0.1,0.7,0.1,1.1c-0.1,0.8-0.1,1.7,0,2.5
		c-0.2,10.9-0.2,21.8,0,32.8c0,0.9,0,1.8,0,2.7c0,4.9,0,9.7-0.1,14.6c-0.1,6.3,1.8,12.2,3.4,18.2c0.2,0.9,0.5,1.7,0.7,2.6
		c3.4,11.9,8,23.2,14,34c0.5,0.8,1,1.7,1.5,2.5c3.4,6,7.4,11.6,12.1,16.7c1,1,2,2,3,3.1c5.1,5.1,11.1,9.1,17.2,13
		c1.2,1,2.5,1.8,3.9,2.5c3.7,2.5,7.6,4.7,11.6,6.7c0.8,0.4,1.7,0.9,2.5,1.3c3,1.6,6.2,3,9.3,4.4c8,3.3,16.1,6.1,24.6,7.5
		c0.9,0.2,1.7,0.3,2.6,0.5c4.1,0.9,8.4,1.2,12.6,1.4c6.7,0.4,13.5,0.1,20.2-1c0.9-0.1,1.7-0.1,2.5-0.4c1.4,0,2.7-0.4,4-0.7
		c10-2.1,19.6-5.5,28.8-10.2c0.9-0.5,1.8-0.9,2.7-1.4c4.7-2.3,9-5,13.3-8c1.3-0.9,2.5-1.8,3.8-2.7c5.3-3.6,10.4-7.4,15.4-11.4
		c1-0.7,2-1.5,2.8-2.5c5.8-5.5,10.4-12,14.4-18.9c0.5-0.8,1-1.7,1.5-2.5c3.4-5.7,6.3-11.8,8.7-18c2.1-5.2,4-10.5,5.2-16
		c0.4-0.8,0.6-1.7,0.6-2.6c0.1-0.3,0.2-0.6,0.3-0.9c2.9-10.5,2.3-21.2,2.1-31.8c0-0.9,0-1.8-0.1-2.7c0-0.5,0.1-1,0.1-1.6
		c-0.1-6.6-0.1-13.3-0.2-19.9c-0.1-3.8,0.1-7.5-0.2-11.3c0.2-0.8,0.1-1.7,0-2.5c0-0.6,0.1-1.2,0.1-1.9c-0.1-6.9-0.1-13.7-0.2-20.6
		c0-3.7,0.1-7.3-0.2-11c0.1-0.6,0.1-1.3,0-1.9c0-4.3,0-8.6,0-12.8c-0.1-7.3,0-14.5-0.3-21.8c0-0.2,0-0.4,0-0.6c0-0.3,0-0.6,0-0.9
		c0-0.1,0-0.2,0-0.3c0-2.4,0-4.7,0-7.1c-0.1-8.5,0-17.1-0.3-25.6c0-0.9,0-1.7,0-2.6c0.1-10.9,0-21.8-0.3-32.7c0-0.9,0-1.7,0-2.6
		c0.1-10.2-0.2-20.4-0.2-30.6c0-1.4-0.5-1.5-1.6-1.5c-8.4,0-16.8,0-25.1,0c-1.5,0-2.9-0.2-4.4,0.1c-0.8-0.2-1.7-0.1-2.5,0
		c-3.5,0-7,0-10.5-0.2c-1,0-1.6,0.3-2,1.2c-2,4.2-4.3,8.1-6.9,11.9c-3.8,5.7-8.4,10.6-13.4,15.3c-0.9,0.7-1.9,1.3-2.5,2.3
		c-0.9,0.2-1.5,0.9-2.2,1.5c-1,0.7-1.9,1.4-2.9,2c-0.3,0.2-0.6,0.4-0.9,0.6c-8.3,5.2-17.3,9-26.8,11.5c-0.9,0.3-1.9,0.5-2.8,0.8
		c-0.5,0.1-1,0.1-1.5,0.2c-5.7,1.1-11.4,2.2-17.2,2.1c-4.6-0.1-9.1-0.7-13.7-1.4c-0.8-0.2-1.7-0.3-2.5-0.5
		c-4.1-1.2-8.1-2.3-12.1-3.9c-5.8-2.3-11.2-5.4-16.4-8.7c-0.1-0.1-0.3-0.2-0.4-0.3c-1-0.8-2.1-1.5-3.1-2.3c-0.6-0.6-1.2-1.1-1.9-1.5
		c-0.8-0.7-1.6-1.4-2.4-2c-1.6-1.5-3.2-3-4.7-4.6c-6.8-6.8-13.2-13.9-16.6-23.1c-0.2-0.6-0.6-0.9-1.2-0.9c-3.4,0-6.8,0-10.2,0.1
		c-0.9,0-1.8,0-2.8,0c-10.4,0-20.7,0-31.1-0.1c-1.1,0-1,0.6-1,1.3c0,6.9,0,13.7,0,20.6c0,3.4,0.1,6.8,0.1,10.2c0,0.9,0,1.7,0,2.6
		c0,8.3,0,16.6,0,24.9c0,2.6,0.1,5.2,0.1,7.8c-0.1,0.8-0.1,1.7,0,2.5c0,0.3-0.1,0.5-0.1,0.8c0,10.4,0,20.8,0,31.2
		c0,0.3,0.1,0.5,0.1,0.8c0,0.1,0,0.2,0,0.3c0,0.3,0,0.6,0,0.9c0,0.2,0,0.4,0,0.6c0,0.3-0.1,0.6-0.1,0.9c0,9.5,0,19,0,28.6
		c0,1.7,0.1,3.4,0.1,5.2C157.5,237.3,157.5,237.7,157.6,238.1z"/>
	<path class="st3" d="M384.2,427.8c-4.7-4.9-10.4-9.3-8.5-17.7c1,1,1.7,1.7,2.4,2.4c2.6,2.1,5.6,3.1,8.9,2.6c1.4-0.2,2,0.2,2.7,1.5
		c4.1,8.4,10.2,14.7,19.2,17.7c1.2,0.4,1.7,1.2,1.6,2.5c-0.2,1.7-0.8,3.2-1.6,4.7c-1.7,3.6-4,7-5.9,10.5c-1.2,2.2-2.4,4.4-2.8,6.9
		c-0.3,2,0.3,3.5,2.1,4.5c1.3,0.7,2.5,1.5,3.7,2.7c-1.2,0.4-2.3,0.5-3.4,0.4c-3.5-0.1-7-0.5-10.5-0.9c-0.9-0.1-1.3-0.6-1.7-1.2
		c-3.5-5-3.9-10.3-0.8-15.7c0.6-1.1,0.6-2,0-3c-1.4-2.1-2.8-4.3-5.7-4.3c-3,0-4.4,2.2-5.6,4.5c-4,7.2-3.2,14.4,0.5,21.4
		c1,1.9,2.3,3.6,3.6,5.3c-6.2,1.8-14.2,0.1-18-6.8c-1-1.7-1.7-3.6-2.2-5.5c-0.2-1-0.6-1.1-1.5-0.7c-4.8,2.2-7.7,7.9-6.9,13.6
		c0.4,3,1.5,5.8,2.6,8.5c0.4,0.9,1.1,1,1.9,0.8c2.3-0.5,4.6-0.4,6.9,0c5.1,1,8.2,4.7,8,9.9c-0.5,13.3-15,24.1-28.1,19
		c-8.4-3.2-13.7-9.8-16.9-18.1c-3.8-9.9-2.6-19.5,1.5-29c4.1-9.7,10.5-17.7,17.8-25.1c4.4-4.5,9.2-8.6,14.1-12.5
		c0.8-0.7,1.5-0.8,2.5-0.4c6.1,2.1,12.3,3.2,18.6,1.6C383.3,428,383.7,427.9,384.2,427.8z"/>
	<path class="st3" d="M155.5,464c0.9-1,2.1-1.7,3.2-2.4c2.4-1.5,3-3,2.2-5.8c-0.7-2.6-2.1-4.9-3.4-7.2c-1.9-3.3-3.9-6.4-5.5-9.9
		c-0.3-0.6-0.5-1.2-0.7-1.7c-1.1-3.1-0.7-3.9,2.3-5c8.5-3.3,14.3-9.5,18.2-17.5c0.5-0.9,0.8-1.3,2-1.2c4.6,0.7,8.4-0.9,11.5-4.7
		c1.1,2,1,3.9,0.4,5.8c-1.3,4-4,7.1-7,9.9c-0.6,0.5-1.3,0.9-1.7,1.7c4.8,1.6,9.5,1.4,14.3,0.4c2.1-0.4,4.2-1,6.2-1.8
		c0.6-0.2,1-0.2,1.6,0.2c10.1,7.9,19.5,16.5,26.7,27.3c4.5,6.6,7.7,13.8,9,21.7c2.2,13.2-4,27.3-15.2,34c-6.8,4.1-13.8,3.9-20.5,0
		c-6.6-3.8-10.8-9.5-11.1-17.3c-0.2-5.9,3.5-9.7,9.5-10.1c1.8-0.1,3.7-0.3,5.5,0.2c0.8,0.2,1.4-0.1,1.8-0.9c1.2-2.9,2.3-5.7,2.6-8.8
		c0.6-5.3-2.1-10.7-6.6-13.1c-1-0.5-1.6-0.7-1.9,0.7c-0.2,1.2-0.7,2.3-1.2,3.4c-2.9,6.6-9.1,10.1-16.3,9.2c-2.7-0.3-2.7-0.3-1.1-2.5
		c4.4-6,6.5-12.6,4.6-20.1c-0.6-2.4-1.7-4.5-3.1-6.5c-2.6-3.4-5.9-3.5-8.7-0.2c-0.3,0.3-0.5,0.7-0.8,1c-1.2,1.5-1.4,2.7-0.4,4.6
		c2.8,5.2,2.1,10.3-1.2,15.1c-0.4,0.5-0.8,1-1.5,1.1c-4.4,0.5-8.7,1.1-13.2,0.8C156,464.4,155.7,464.5,155.5,464z"/>
	<path class="st3" d="M413.6,119c0-9,0-18,0-27c0-2.1,0-2.1,2.1-1.5c5,1.5,9.3,4.2,13.3,7.5c8.4,6.9,14.2,15.4,16.4,26.2
		c1.1,5.2,1.1,10.5-0.1,15.7c-2.1,9.4-8.9,12.7-17.3,12c-4.5-0.4-8.7-1.7-12.9-3.3c-1.1-0.4-1.5-1-1.5-2.2c0.1-9.1,0-18.2,0-27.4
		C413.7,119,413.7,119,413.6,119z"/>
	<path class="st3" d="M146.6,118.9c0,9.1,0,18.2,0,27.4c0,1.2-0.4,1.7-1.5,2.1c-4.6,1.7-9.2,3-14.2,3c-8.3-0.1-13.7-4.4-15.1-12.6
		c-2.3-12.8,1.1-24.1,9.2-34c5.1-6.3,11.3-11.1,18.9-14.1c2.7-1.1,2.7-1,2.7,1.8c0,8.8,0,17.6,0,26.4
		C146.7,118.9,146.6,118.9,146.6,118.9z"/>
	<path class="st5" d="M388.6,412c-3.4,1-6.5,0.4-9.2-1.9c-0.9-0.7-0.9-1.2-0.1-2.1c7.7-8.4,14.2-17.6,19.6-27.6
		c4-7.4,7.2-15.2,9.6-23.3c0.1-0.3,0.2-0.6,0.4-1c3.6,3.1,7.3,5.7,11,8.5c-0.4,2.3-0.9,4.6-1.1,6.9c-0.7,6.2-1.2,12.4,1.4,18.3l0,0
		c-2.6-0.3-4.8-1.7-6.7-3.4c-2-1.8-2.9-4-3-6.7c0-0.6,0.2-1.4-0.8-1.4c-0.9,0-0.7,0.8-0.7,1.3c-0.3,2.6-0.5,5.2-0.4,7.8
		c0.3,6.5,1.4,12.8,6.2,17.8c0.1,0.1,0.1,0.3,0.1,0.6c-3.2-0.6-6.3-1.6-9.2-2.9c-3.5-1.5-6.4-3.7-8-7.4c-0.2-0.6-0.6-1.1-0.9-1.6
		c-0.3-0.4-0.6-0.8-1.2-0.5c-0.5,0.3-0.3,0.7-0.2,1.1c0.3,0.8,0.8,1.5,0.8,2.3c0.5,5,1.1,9.9,4,14.5c-6.6-1.1-11-4.6-13.4-10.6
		C386.7,404.9,387.2,408.5,388.6,412z"/>
	<path class="st5" d="M141.6,363c3.2-2.4,6.4-4.8,9.7-7.3c2.3,6.8,5,13.4,8.2,19.7c4,8,8.7,15.6,14.1,22.7c0.3,0.4,0.6,0.9,0.9,1.3
		c-0.4,0.7-0.7,1.5-1.1,2.2c-2.6,4.8-6.8,7.2-12.3,8.2c1.1-1.6,1.7-3.1,2.4-4.7c1.6-4,1-8.5,2.7-12.5c0.1-0.3,0-0.6-0.3-0.8
		c-0.4-0.2-0.7-0.1-1,0.2c-0.5,0.7-0.9,1.4-1.3,2.1c-3.6,7-10.5,8.1-17.1,9.9c1.6-2,3-3.9,4-6.2c1.6-3.7,2.2-7.5,2.4-11.5
		c0.2-3,0-6-0.5-8.9c-0.1-0.4,0-0.9-0.7-0.8c-0.6,0.1-0.8,0.4-0.7,0.9c0,0.2,0,0.4,0,0.6c-0.3,4.8-5.1,9.7-9.8,9.7
		c1.8-3.7,2-7.7,1.9-11.7C143.1,371.9,142.4,367.5,141.6,363z"/>
	<path class="st1" d="M148.3,433c-7.7,1.9-15.5,1.6-23.3,0.4c-0.9-0.1-1.4,0.1-2.1,0.6c-4.3,3.7-8.8,7.1-14.1,9.2
		c-2.8,1.1-5.7,1.8-8.7,1c-0.2-0.1-0.4-0.1-0.6-0.2c-3-1.1-3.1-1.6-1.2-3.9c6.5-7.9,10.4-16.8,10.1-27.2c-0.2-5.2-1.5-10.1-4.1-14.7
		c0.1,0.9,0.2,1.9,0.4,2.8c1.4,10-3.1,17.2-12.7,20.5c-4.1,1.4-8.4,1.9-12.7,2.1c-0.5,0-1.2,0.3-1.3-0.6c-0.1-0.9,0.6-0.8,1.1-1
		c2.5-1,4.9-2.2,6.5-4.5c2.2-2.9,2.4-6.1,1.6-9.4c-1.2-4.8-3.9-8.8-6.9-12.7c-1.5,2.6-2.9,5.1-4.5,7.5c-2.9,4.3-6.2,8.3-10.4,11.5
		c-2.5,1.9-5.3,3.3-8.5,4c-1.1,0.2-1.5,0.2-1.1-1.1c1.9-6.2,3.6-12.5,4.9-18.8c0.3-1.4,0.5-2.8,0.7-4.2c0.3-1.7-0.1-3.3-1-4.8
		c-4.2-7.5-8.2-15.1-11.1-23.2c-2.6-7.3-4.5-14.9-4.2-22.7c0.3-8.9,3.5-16.6,10.3-22.6c0.9,0.5,1,0.9,0.2,1.7
		c-7.3,6.9-9.8,15.5-9.1,25.2c0.9,12.1,5.5,22.9,11,33.5c1.1,2.1,2.1,4.3,3.4,6.2c2,3,2.1,6.2,1.4,9.6c-1.3,6.3-3,12.5-4.7,18.7
		c-0.1,0.3-0.1,0.6-0.3,1c2.1-0.4,3.8-1.3,5.4-2.3c4.8-3,8.5-7.3,11.7-12c2.1-3,3.9-6.2,5.5-9.7c3.9,4.9,7.5,9.8,8.7,16.1
		c1,5.3-0.8,9.5-5.3,12.5c-0.2,0.1-0.3,0.2-0.5,0.4c0,0-0.1,0.1-0.2,0.3c0.8,0.2,1.4,0,2.1-0.1c0.7-0.1,1.5-0.2,2.2-0.3
		c2.6-0.5,5.2-1.2,7.6-2.4c6.5-3.2,9.8-9.4,9-16.7c-0.4-3.7-1.3-7.2-2.8-10.6c-0.2-0.5-0.5-0.9,0.2-1.3c0.7-0.4,0.8,0.2,1.1,0.5
		c4.7,6.9,7.7,14.4,7.7,22.8c0.1,10.1-3.7,18.8-9.9,26.5c-1.5,1.9-1.5,1.9,0.9,2.5c2.3,0.6,4.5,0.2,6.6-0.6c5.8-2,10.6-5.7,15.1-9.7
		c0.8-0.7,1.5-0.9,2.5-0.8c7.8,1.3,15.6,1.5,23.4-0.4c0.1,0,0.3,0,0.6,0C148.8,432.2,148.5,432.6,148.3,433z"/>
	<path class="st1" d="M506,322.2c6.3,5.7,9.6,12.8,10.2,21.2c0.5,6.3-0.5,12.3-2.2,18.3c-2.4,8.8-6.3,17-10.6,25
		c-0.1,0.2-0.2,0.5-0.4,0.7c-3.7,6.8-3.7,6.8-1.9,14.4c1.3,5.7,2.8,11.3,4.5,16.8c0.6,1.9,0.6,1.9-1.3,1.5
		c-6.1-1.4-10.5-5.4-14.5-10c-3.1-3.5-5.6-7.4-7.7-11.6c-0.7-1.3-1-1.1-1.8-0.1c-2.3,3.2-4.4,6.5-5.6,10.3c-2.2,6.9,0.4,12.3,7.1,15
		c0.6,0.3,2,0,1.7,1.3c-0.3,1.2-1.4,0.6-2.1,0.5c-4.6-0.2-9.1-0.9-13.3-2.6c-8.5-3.5-12.7-11-11.2-20.1c0.2-1,0.3-2,0.4-3
		c-1.5,2.5-2.4,5.1-3,7.9c-2.9,12.5,0.6,23.4,8.2,33.3c0.5,0.7,1.1,1.5,1.7,2c1.2,1,0.6,1.5-0.3,2.1c-2.8,1.8-5.8,1.7-8.8,0.8
		c-5.6-1.6-10.4-4.8-14.7-8.6c-2-1.8-3.8-2.2-6.4-1.8c-6.9,1-13.9,0.9-20.8-0.7c-0.2-0.4-0.4-0.9-0.5-1.3l0,0c2.3,0.3,4.6,0.7,6.9,1
		c5.5,0.6,11,0.4,16.4-0.6c1.5-0.2,2.5,0,3.6,1c3.9,3.6,8.2,6.7,13.1,8.8c2.7,1.1,5.5,2,8.5,1.1c1.9-0.6,1.9-0.7,0.7-2.2
		c-6.9-8.5-10.7-18.1-10-29.1c0.5-7.7,3.4-14.5,7.7-20.8c0.2-0.3,0.4-0.8,1-0.4c0.7,0.4,0.4,0.8,0.2,1.3c-1.5,3.5-2.5,7.1-2.8,10.9
		c-0.6,8.7,3.3,14.5,11.5,17.6c3,1.1,6,1.7,9.1,1.9c0.1-0.4-0.2-0.5-0.4-0.7c-4.9-3.4-6.6-8-5.1-13.9c1.1-4.4,5-11.2,8.4-14.6
		c5.4,9.9,11,19.6,22.7,24.1c-0.5-1.7-0.8-3-1.2-4.3c-1.6-5.7-3.1-11.4-4.1-17.2c-0.4-2.6-0.2-4.9,1.1-7.2
		c4.8-8.5,9.2-17.3,12.1-26.7c2-6.6,3.3-13.2,2.7-20.1c-0.6-7.6-3.4-14.1-9-19.3C505,323.2,504.9,322.7,506,322.2z"/>
	<path class="st1" d="M259.4,449.1c-1.1,2.1-2.9,3.7-4.8,5.1c0.2,0.6,0.8,0.6,1.2,0.7c2.6,1.1,5,2.4,7.1,4.3c5,4.3,6.7,9.7,5,16.1
		c-0.7,2.7-1.8,5.1-3.4,7.4c-0.5,0.8-0.6,1.4-0.3,2.3c2.5,6.6,4,13.3,3.9,20.4c-0.2,11.3-6.9,19-18,20.7c-4.2,0.7-8.3,0.9-12.5-0.1
		c-8.5-2-13.5-8.3-13.9-17.4c0.4-0.3,0.7-0.6,1.3-1c0.1,1.7,0.2,3.3,0.5,4.8c1.6,7.1,6.7,11.6,14.4,12.7c5.4,0.7,10.7,0.1,15.7-1.9
		c6.4-2.6,9.9-7.6,10.8-14.3c1.2-8.2-0.7-15.9-3.5-23.5c0-0.1-0.2-0.1-0.3-0.3c-2.8,3-6.2,5.1-10.2,6.1c-0.8,0.2-0.7,0.7-0.5,1.2
		c0.3,1.1,0.4,2.3,0.4,3.4c-0.1,3.6-1.9,5.5-5.4,5.9c-1.8,0.2-3.4,0-4.8-1.5c-1.9-1.9-4.2-3.3-6.9-3.8c-1.4-0.2-0.6-0.9-0.3-1.5
		c3.3,0.5,6,2.2,8.4,4.5c1.6,1.5,3.3,1,5,0.6c1.6-0.4,2.4-1.7,2.6-3.4c0.1-1.2,0.1-2.4-0.1-3.6c-0.2-1-0.5-1.4-1.6-1.2
		c-4.4,0.6-8.5-0.2-12.1-3.1c0.1-0.5,0.2-0.9,0.3-1.5c4.2,3.7,9.1,4,14.1,2.8c5.4-1.3,9.7-4.3,12.7-9.1c1.7-2.7,2.8-5.6,3.2-8.8
		c0.6-5.8-2.1-10-6.6-13.2c-2.8-2-6-3.3-9.6-4.3c1-0.6,1.8-1,2.5-1.4c1.5-0.9,2.9-2,3.9-3.5C257.9,448.9,258.5,448.7,259.4,449.1z"
		/>
	<path class="st1" d="M502.8,98.6c7.9,6,14.2,13.1,17,22.9c1.6,5.4,1.6,11-0.6,16.2c-4.4,10.6-3.1,20.7,1.8,30.6
		c3.6,7.4,8.4,14,14.8,19.3c0.9,0.7,0.2,0.9-0.2,1.2c-3,2.2-6.2,3.8-9.7,5.1c-12.5,4.8-24.8,4-36.9-1.6c0.1-1.5,0.8-1.1,1.8-0.7
		c14.3,6.2,28.3,5.4,41.8-2.4c1.7-1,1.6-1,0.3-2.4c-8.2-8.3-14.4-17.8-16.9-29.4c-1.3-6-1.2-12,1.2-17.6c4.8-11.4,2.1-21.3-5.1-30.6
		c-3-3.9-6.6-7.1-10.5-10.1C501.9,98.7,502.4,98.7,502.8,98.6z"/>
	<path class="st1" d="M72.4,191.7c-6.2,2.8-12.7,4.6-19.6,4.7c-9.8,0.1-18.8-2.6-26.9-8.1c-0.8-0.6-0.9-0.8,0-1.6
		c5.7-4.8,10-10.7,13.5-17.2c3.7-6.8,5.9-14,5.3-21.8c-0.2-2.7-0.7-5.4-1.8-7.9c-4.6-10.5-2.7-20.3,3.7-29.4
		c3.3-4.7,7.2-8.7,11.9-12c0.5,0.1,1,0.1,1.3,0.6c-4.1,3.1-7.8,6.5-10.9,10.6c-4.7,6.1-7.7,12.8-7.1,20.8c0.2,2.3,0.6,4.5,1.4,6.6
		c4.6,10.7,3.2,21.1-1.7,31.2c-3.4,7-7.8,13.1-13.4,18.4c-1,1-0.8,1.3,0.2,1.9c13.6,8,27.6,8.9,42.1,2.6
		C71.5,190.6,72.3,190.3,72.4,191.7z"/>
	<path class="st1" d="M141.6,363c0.9,4.4,1.5,8.9,1.6,13.4c0.1,4-0.1,7.9-1.9,11.7c4.6,0,9.5-4.9,9.8-9.7c0-0.2,0-0.4,0-0.6
		c-0.1-0.6,0.1-0.9,0.7-0.9c0.7-0.1,0.6,0.5,0.7,0.8c0.4,3,0.6,5.9,0.5,8.9c-0.2,3.9-0.8,7.8-2.4,11.5c-1,2.3-2.4,4.2-4,6.2
		c6.6-1.8,13.5-2.9,17.1-9.9c0.4-0.7,0.8-1.5,1.3-2.1c0.2-0.3,0.6-0.5,1-0.2c0.3,0.2,0.4,0.5,0.3,0.8c-1.7,4-1.1,8.5-2.7,12.5
		c-0.6,1.5-1.3,3.1-2.4,4.7c5.5-1.1,9.7-3.4,12.3-8.2c0.4-0.7,0.8-1.5,1.1-2.2c0.1,0.1,0.2,0.2,0.3,0.4c-0.1,3.6-0.7,7-1.9,10.4
		c-1,0-1.3-0.4-1-1.3c0.4-1.1,0.7-2.3,1.1-3.9c-4.6,5-10,6.8-16.6,6.6c1.2-0.7,2.1-1.1,2.9-1.8c1.6-1.3,2.3-3.2,3-5.1
		c0.8-2.3,1.2-4.7,1.5-7.4c-6.8,7-15.5,8.2-24.4,9.4c4.7-1.8,8.3-4.8,10.1-9.6c1.8-4.5,2.2-9.3,1.9-14.1c-1.6,2.5-3.7,4.3-6.3,5.4
		c-2.6,1.2-5.2,2-8.4,2.1c6-4,5.2-10,5.1-15.6c0-3.5-0.6-6.9-1.3-10.3C140.2,363.5,141,363.4,141.6,363z"/>
	<path class="st1" d="M388.6,412c-1.3-3.5-1.9-7.1-1.9-11c2.5,6,6.8,9.4,13.4,10.6c-2.9-4.6-3.5-9.5-4-14.5
		c-0.1-0.8-0.6-1.6-0.8-2.3c-0.1-0.4-0.2-0.9,0.2-1.1c0.5-0.3,0.9,0,1.2,0.5c0.3,0.5,0.7,1.1,0.9,1.6c1.6,3.6,4.5,5.8,8,7.4
		c2.9,1.3,5.9,2.3,9.2,2.9c-0.1-0.4-0.1-0.5-0.1-0.6c-4.8-5-5.8-11.3-6.2-17.8c-0.1-2.6,0.1-5.2,0.4-7.8c0.1-0.5-0.1-1.3,0.7-1.3
		c1,0,0.7,0.8,0.8,1.4c0.1,2.6,1,4.9,3,6.7c1.9,1.7,4.1,3.1,6.7,3.4c0,0.2,0,0.2,0.2,0.1c-0.1,0-0.1-0.1-0.2-0.1
		c-2.6-5.9-2.1-12.1-1.4-18.3c0.2-2.3,0.8-4.6,1.1-6.9c1,0.3,1.2,0.9,1,1.9c-0.8,4.7-1.4,9.5-1.3,14.3c0.1,1.8,0.3,3.5,0.7,5.3
		c0.5,2.7,2.2,4.5,4.3,6l0,0c-6-0.2-11.1-2.4-14.7-7.9c-0.1,5.1,0.3,9.8,2,14.4c1.8,4.8,5.2,8,10,9.8c-8.7-1.1-17.3-2.3-23.8-9
		c-0.3,1.2,0.3,4.9,1.4,7.8c0.9,2.4,1.1,2.7,5.4,6.2c-6.3,0.1-11.6-1.6-16.1-6.3c0,1.4,0.4,2.5,0.8,3.6
		C389.9,411.6,389.5,411.9,388.6,412z M415.2,405.9L415.2,405.9L415.2,405.9L415.2,405.9z"/>
	<path class="st4" d="M317.7,444.5c5.3-1.7,10.7-3.3,15.9-5.4c7.1-2.9,13.9-6.2,20.4-10.3c0.4-0.3,0.8-0.8,1.5-0.6
		c-0.1,0.7-0.7,0.9-1.1,1.2c-6,5.2-11.7,10.7-16.7,16.9c-0.3,0.4-0.6,0.7-1.1,0.9c-3.3,0.7-6.7,1.3-10.1,1.1
		C323.2,448.1,319.9,447.7,317.7,444.5z"/>
	<path class="st6" d="M505.7,157.1c-0.2-2.9,0.3-5.9,0.7-8.9c1-7.9-0.4-15.5-3.2-23c-3-8.2-7.3-15.6-12.8-22.5
		c-0.6-0.7-0.5-1.1,0.1-1.7c0.7-0.6,1.1-0.3,1.5,0.2c8.3,10.7,14.4,22.5,16.4,36.1c0.7,4.9,0.2,9.8-0.4,14.7
		c-0.7,6.4-0.5,12.7,2.4,18.6c1.5,3,3.6,5.5,6.6,7.1c0.9,0.5,0.8,1,0.5,1.6c-0.4,0.9-1,0.6-1.5,0.3c-3.6-2-6.1-5.1-7.8-8.8
		C506.3,166.7,505.5,162.1,505.7,157.1z"/>
	<path class="st6" d="M74.6,102.6c0,0.5-0.4,0.8-0.6,1.1c-5.3,6.9-9.6,14.4-12.6,22.5c-2.2,5.9-3.5,12.1-3.4,18.4
		c0.1,3.7,0.8,7.4,1,11.1c0.4,7.9-0.8,15.4-6.3,21.5c-1,1.1-2.2,2.1-3.5,2.9c-0.8,0.5-1.7,0.5-2.2-0.4c-0.5-0.9,0.4-1.1,0.9-1.5
		c4.2-2.5,6.4-6.4,7.7-10.9c1.7-5.7,1.5-11.6,0.6-17.4c-1.1-7.4-0.1-14.6,2.1-21.7c3-9.6,7.9-18.2,14-26.2c0.3-0.4,0.5-1.1,1.2-0.7
		C74.1,101.7,74.5,102,74.6,102.6z"/>
	<path class="st7" d="M474.2,183.6c0.1,0.5-0.3,0.9-0.5,1.3c-6.4,12.9-11.3,26.3-14.1,40.4c-2.3,11.6-3.2,23.3-0.7,34.9
		c3.5,16.3,13.1,27.8,27.8,35.1c6.7,3.3,13.7,5.4,20.9,6.9c0.6,0.1,1.1,0.2,1.7,0.3c0.3,0.1,0.6,0.1,0.6,0.6
		c-0.1,0.4-0.4,0.4-0.7,0.4c-1.1-0.2-2.2-0.4-3.2-0.6c-11.1-2.5-21.6-6.3-30.6-13.6c-10.1-8.1-15.8-18.7-18-31.3
		c-2.4-14.2-0.4-28.2,3.2-41.9c2.9-10.8,6.9-21.3,11.9-31.3c0.3-0.6,0.4-1.4,1.2-1.5C474.1,183.5,474.1,183.6,474.2,183.6z"/>
	<path class="st5" d="M326.6,497.1c-3.2,0.4-5.9,2-8.1,4.2c-1.8,1.8-3.7,1.5-5.7,0.8c-2-0.7-2.4-2.6-2.5-4.5c0-0.1,0-0.2,0-0.3
		c0.2-3.3,0.2-3.3,3.4-3.2c3.9,0.1,7.5-0.7,10.5-3.2C325.2,492.9,325.9,495,326.6,497.1z"/>
	<path class="st5" d="M236.9,488.8c3.6,2.8,7.7,3.7,12.1,3.1c1.1-0.2,1.5,0.2,1.6,1.2c0.2,1.2,0.3,2.4,0.1,3.6
		c-0.2,1.6-1,2.9-2.6,3.4c-1.7,0.4-3.4,0.9-5-0.6c-2.4-2.3-5.1-4-8.4-4.5C235.5,492.9,236.2,490.8,236.9,488.8z"/>
	<path class="st4" d="M328.1,461.4c-2.2,4.8-3.7,9.8-4.6,15c-0.2-0.2-0.4-0.4-0.5-0.6c-1.3-1.5-1.3-1.4-2.7,0
		c-1.4,1.4-2.8,2.7-4.7,3.2c-1.1,0.3-1.7-0.1-1.9-1.2c-0.1-0.6-0.2-1.2-0.1-1.9c0.5-2.6,2-4.6,3.7-6.4
		C320.5,466.2,324.2,463.7,328.1,461.4z"/>
	<path class="st4" d="M237.8,474.4c-0.8-5.1-2.3-10-4.4-14.7c3.1,1.4,5.8,3.5,8.4,5.7c2,1.6,3.7,3.5,5,5.8c0.7,1.3,1.1,2.6,0.9,4.1
		c-0.2,1.7-0.9,2.1-2.4,1.6c-1.5-0.5-2.7-1.6-3.8-2.7C239.5,472.3,239.5,472.3,237.8,474.4z"/>
	<path class="st4" d="M224.5,445.5c-3.3-3.8-6.5-7.6-10.2-11.1c0.2-0.3,0.4-0.2,0.5-0.1c8.1,4.4,16.6,7.5,25.5,9.9
		c0.5,0.1,0.9,0.3,1.3,0.5c-2.5,1.3-5.2,1.7-8,1.8C230.6,446.5,227.6,445.8,224.5,445.5z"/>
	<path class="st6" d="M466.4,144.1c-3.6-0.1-6.7-1.4-9.5-3.6c-2.9-2.4-5.1-5.3-6.7-8.6c-0.3-0.5-1-1.1,0.1-1.7
		c1-0.5,1.5-0.2,1.9,0.8c1.3,2.6,3.1,4.9,5.2,7c4.7,4.5,10.4,5.2,16.1,1.9c2.5-1.5,4.8-3.4,6.8-5.5c0.6-0.6,0.9-0.4,1.4,0.1
		c0.4,0.4,0.8,0.8,0.2,1.4c-3.8,3.7-7.7,7.1-13.2,8.1C468,144,467.2,144,466.4,144.1z"/>
	<path class="st6" d="M98.5,144.7c-4.7-0.2-8.5-2.1-11.8-4.8c-1.3-1-2.4-2.2-3.6-3.3c-0.6-0.5-0.8-1-0.1-1.7
		c0.7-0.7,1.1-0.5,1.7,0.1c1.8,1.9,3.7,3.6,5.9,4.9c6.5,4.1,13.5,3,18.3-3c1.5-1.8,2.9-3.7,3.9-5.9c0.3-0.7,0.7-0.9,1.3-0.5
		c0.5,0.3,1.1,0.5,0.7,1.3c-2.8,5.5-6.4,10.1-12.5,12.2c-0.5,0.2-1,0.3-1.5,0.4C99.9,144.5,99,144.6,98.5,144.7z"/>
	<path class="st4" d="M362.5,423.1c3.6-2.7,6.8-5.3,10-8.2c0.9,4.5,3.3,7.9,6.3,11.3C373,426.6,367.8,425.2,362.5,423.1z"/>
	<path class="st6" d="M65.1,156.6c0.5,0,0.9,0,1,0.7c1.3,6.5,6.2,9.9,11.2,13.3c4.1,2.7,8.6,4.8,13.2,6.6c0.8,0.3,1.3,0.6,0.9,1.6
		c-0.3,0.6-0.5,0.9-1.3,0.6c-7.6-3-15-6.6-21-12.4c-2.6-2.5-4.7-5.4-5.1-9.1C64,156.8,64.1,156.6,65.1,156.6z"/>
	<path class="st6" d="M500.7,157c-0.5,3.3-2.1,6.1-4.4,8.5c-4.2,4.5-9.4,7.5-14.8,10.2c-1.8,0.9-3.7,1.7-5.6,2.5
		c-0.5,0.2-1,0.5-1.5,0.3c-0.5-0.2-1.2-0.3-1.3-1c-0.1-0.8,0.6-0.8,1-0.9c6.2-2.5,12.2-5.4,17.4-9.6c3.3-2.7,6.4-5.6,7-10.2
		c0.1-0.9,0.7-0.7,1.3-0.7C500.4,156,500.7,156.4,500.7,157z"/>
	<path class="st4" d="M196.5,422.2c-4.6,1.6-9,2.5-13.9,2.2c1.9-2.2,3.6-4.4,4.9-6.9c0.4-0.7,0.3-2,1.2-2.1c0.6,0,1.2,1,1.9,1.6
		C192.5,418.7,194.4,420.4,196.5,422.2z"/>
	<path class="st1" d="M328.1,461.4c-3.9,2.3-7.6,4.8-10.8,8.1c-1.8,1.8-3.3,3.8-3.7,6.4c-0.1,0.6,0,1.2,0.1,1.9
		c0.2,1.1,0.8,1.5,1.9,1.2c2-0.5,3.4-1.9,4.7-3.2c1.4-1.4,1.4-1.4,2.7,0c0.2,0.2,0.4,0.4,0.5,0.6c0,0.6-0.1,1.2-0.1,1.9
		c-1-0.3-0.9-1.9-1.9-1.6c-0.7,0.2-1.2,1.1-1.9,1.6c-1.2,1-2.4,1.8-4,2.1c-1.7,0.3-2.7-0.3-3.2-1.9c-0.6-2-0.1-3.8,0.8-5.6
		c1.6-3.1,4.1-5.4,6.8-7.6c2.4-1.9,5-3.6,7.7-5.2c0.3-0.2,0.7-0.8,1.2-0.4l0,0C328.6,460.2,328.4,460.8,328.1,461.4z"/>
	<path class="st1" d="M237.8,474.4c1.7-2.2,1.7-2.2,3.6-0.3c1.1,1.1,2.3,2.1,3.8,2.7c1.6,0.6,2.3,0.1,2.4-1.6
		c0.2-1.5-0.2-2.8-0.9-4.1c-1.3-2.3-3-4.1-5-5.8c-2.6-2.2-5.3-4.3-8.4-5.7c-0.3-0.6-0.7-1.2-0.8-1.9c0.1,0,0.1-0.1,0.2-0.1
		c5.1,2.8,9.9,6,13.7,10.6c1.7,2.1,3,4.3,2.7,7.1c-0.3,2.8-1.7,3.6-4.4,2.6c-1.5-0.5-2.7-1.4-3.7-2.5c-1.1-1.3-1.8-1-2.5,0.3
		c-0.1,0.1-0.2,0.2-0.5,0.6C237.9,475.6,237.9,475,237.8,474.4z"/>
	<path class="st4" d="M172.8,410.2c1.2-3.4,1.9-6.8,1.9-10.4c2.2,2.6,4.4,5.3,6.7,7.9c0.6,0.7,0.2,0.9-0.3,1.3
		C178.6,410.8,175.8,411.2,172.8,410.2z"/>
	<path class="st1" d="M317.7,444.5c2.2,3.1,5.5,3.5,8.9,3.8c3.4,0.2,6.8-0.4,10.1-1.1c-0.1,0.9-0.6,1.5-1.4,1.6
		c-4.5,0.8-9,1.3-13.5,0c-2.5-0.7-4-1.9-5.3-3.9C316.8,444.7,317.2,444.5,317.7,444.5z"/>
	<path class="st1" d="M224.5,445.5c3.1,0.3,6.1,1,9.2,1c2.8,0,5.5-0.4,8-1.8c0.4,0.2,0.9,0,1.3,0.6c-2.2,1.7-4.8,2.2-7.5,2.4
		c-3,0.2-6.1-0.1-9.1-0.6C225.4,446.9,225,446.2,224.5,445.5z"/>
	<path class="st5" d="M477.8,49.4c-0.1,0.2-0.3,0.2-0.5,0.1c0.1-0.1,0.2-0.3,0.3-0.4C477.6,49.2,477.7,49.3,477.8,49.4z"/>
	<path class="st1" d="M424.5,392c0.1,0,0.2,0.1,0.2,0.1c0,0-0.1,0.1-0.1,0.1C424.6,392.1,424.6,392,424.5,392L424.5,392z"/>
	<path class="st3" d="M34.1,75.5c0-0.1,0.1-0.2,0.1-0.3c0,0,0.1,0.1,0.1,0.1C34.3,75.5,34.2,75.5,34.1,75.5
		C34.1,75.5,34.1,75.5,34.1,75.5z"/>
	<path class="st3" d="M96.5,97.7c-0.1,0-0.2,0-0.4,0.1c0.1-0.1,0.1-0.2,0.2-0.3C96.4,97.5,96.4,97.6,96.5,97.7z"/>
	<path class="st5" d="M56.7,274.4c-0.1,0-0.2,0-0.2,0c0,0,0-0.1,0.1-0.1C56.6,274.3,56.7,274.4,56.7,274.4
		C56.7,274.4,56.7,274.4,56.7,274.4z"/>
	<path class="st1" d="M412.5,433.5c0-0.1-0.1-0.1-0.1-0.2c0,0,0.1,0,0.1,0C412.5,433.4,412.5,433.5,412.5,433.5
		C412.5,433.6,412.5,433.5,412.5,433.5z"/>
	<path class="st1" d="M328.9,459.7c0-0.1,0-0.1-0.1-0.2c0,0,0.1,0,0.1,0C328.9,459.5,328.9,459.6,328.9,459.7
		C328.9,459.7,328.9,459.7,328.9,459.7z"/>
	<path class="st1" d="M232.6,457.8c-0.1-0.1-0.1-0.1-0.2-0.2c0.1-0.2,0.3-0.1,0.4,0C232.7,457.7,232.6,457.7,232.6,457.8z"/>
	<path class="st8" d="M283.7,63.9c0.3-1.1,0.4-1.9,0.6-2.6c0.4-1.7,0.3-3.3-1-4.5c-1.4-1.3-3.1-1.5-4.8-1c-2.3,0.7-3.8,2.3-4.9,4.3
		c-1.7,3-2.3,6.3-2.4,9.7c-0.3,6.7,0.7,13.3,3.7,19.4c2.6,5.3,6.4,9.5,12.5,10.9c5.5,1.2,10.7,0.4,15.4-2.9c1.7-1.2,3.3-2.4,4.9-3.6
		c0.8-0.6,1.5-0.6,2.3,0.2c2.1,1.9,4.2,3.8,6.4,5.6c0.8,0.7,0.9,1.3,0.4,2.1c-0.1,0.1-0.1,0.2-0.1,0.3c-6.1,8.5-13.1,16-23.4,19.5
		c-13.7,4.7-28.8,0.7-38.5-11.1c-20.8-25.1-10.1-60.3,20.8-69.1c9.9-2.8,19.3-1.6,27.7,4.9c1,0.8,1.8,1.7,2.8,2.6
		c0.6,0.6,0.8,0.9-0.1,1.5C298.5,54.5,291.3,59.1,283.7,63.9z M268.7,71c-0.1-2,0.1-5,1.1-8c1.4-4.6,3.6-8.5,8.9-9.6
		c3.4-0.7,6.8,1.1,7.9,4.3c0.4,1.3,0.9,1.1,1.7,0.5c4.3-2.8,8.7-5.5,13-8.2c1.7-1.1,1.7-1.2,0-2.4c-6.5-4.9-13.8-6.3-21.7-5
		c-9.3,1.6-17.1,6-23.4,13.1c-7.7,8.7-11,18.9-9.5,30.5c1.3,10.2,5.4,19.1,13.3,26c9.2,8,19.8,10.6,31.6,7
		c9.7-2.9,16.2-9.8,22.1-17.6c0.5-0.7,0.2-1-0.3-1.5c-1-0.9-2.1-1.8-3.1-2.7c-1.9-1.7-1.9-1.8-3.8-0.1c-4.4,4-9.7,5.9-15.5,5.8
		c-7-0.1-12.5-3.4-16.4-9.3C270.2,87.2,268.7,79.9,268.7,71z"/>
	<path class="st0" d="M26.7,67.6c-0.2,0-0.3-0.1-0.2-0.3c0,0,0.2,0.1,0.3,0.1C26.8,67.5,26.8,67.6,26.7,67.6z"/>
	<path class="st7" d="M126.9,261.5c0,12.2-1.4,22.9-5.8,33c-6.4,14.7-17.7,23.9-32.6,29.1c-3.7,1.3-7.4,2.3-11.2,3
		c-0.4,0.1-1,0.5-1.2-0.2c-0.2-0.9,0.7-0.7,1.1-0.7c5.3-1,10.5-2.5,15.4-4.6c17.2-7.4,27.4-20.6,31.4-38.7
		c2.3-10.3,2.4-20.7,1.4-31.1c-2.4-24.3-9.7-47.1-19.4-69.3c-0.2-0.5-1-1.3-0.3-1.6c0.9-0.4,0.9,0.8,1.1,1.3
		c8.3,18.7,14.6,38.1,18,58.3C126.2,247.4,126.9,255.1,126.9,261.5z"/>
	<path class="st7" d="M108.2,245.9c-0.1,11.2-2.1,22-8.1,31.7c-6.4,10.4-15.9,17.1-27,21.5c-5.4,2.2-10.9,3.7-16.6,4.7
		c-0.6,0.1-1.6,0.8-1.7-0.1c-0.2-1,1.1-0.7,1.7-0.8c6.5-1.3,12.8-3.1,18.8-5.8c12.5-5.6,22.1-14,27.5-26.9
		c3.7-8.8,4.8-18.1,4.4-27.5c-1-20.2-7.3-38.9-16-57c-0.2-0.5-1.1-1.2-0.3-1.6c0.8-0.4,0.9,0.7,1.1,1.1c7.2,14.4,12.4,29.5,15,45.4
		C107.8,235.8,108.1,240.8,108.2,245.9z"/>
	<path class="st2" d="M370.1,400.8c-0.8,0.9-1.8,1.8-2.8,2.5c0-6.5,0-13.1,0-19.6c0-1.3-0.3-1.8-1.7-1.8c-9.8,0.1-19.6,0.1-29.4,0
		c-1.3,0-1.7,0.4-1.7,1.7c0,9.8,0,19.6,0,29.4c0,1.3,0.3,1.7,1.7,1.7c5.2-0.1,10.5,0,15.7,0c-1.3,0.9-2.5,1.8-3.8,2.7
		c0,0-0.1-0.1-0.1-0.1c-4.2-0.4-8.4-0.1-12.6-0.1c-0.4,0-0.8,0.2-0.8,0.6c0.1,2.5-0.4,5.1,0.2,7.6c-0.9,0.5-1.8,0.9-2.7,1.4
		c0-2.7-0.1-5.4,0-8.2c0-1.2-0.4-1.5-1.5-1.5c-9.9,0-19.8,0-29.7,0c-1.1,0-1.6,0.2-1.6,1.5c0.1,6.3,0,12.7,0,19
		c-0.8,0.4-1.7,0.3-2.5,0.4c0-6.4,0-12.8,0-19.2c0-1.2-0.3-1.7-1.6-1.7c-9.8,0.1-19.7,0.1-29.5,0c-1.4,0-1.6,0.5-1.6,1.7
		c0.1,6.2,0,12.5,0,18.7c-0.9-0.2-1.7-0.3-2.6-0.5c0-6.2,0-12.4,0-18.5c0-1-0.2-1.4-1.3-1.4c-10.5,0-21,0-31.4,0
		c-1,0-1.3,0.4-1.2,1.3c0,2.2,0,4.5,0,6.8c-0.8-0.4-1.7-0.9-2.5-1.3c0-1.8,0-3.7,0.1-5.5c0-1-0.4-1.3-1.3-1.2
		c-3.5,0.1-6.9,0-10.4,0.1c-1.4-0.7-2.7-1.5-3.9-2.5c4.6,0,9.2-0.1,13.8,0c1.4,0,1.8-0.4,1.8-1.8c-0.1-9.8-0.1-19.5,0-29.3
		c0-1.4-0.4-1.8-1.8-1.8c-9.8,0.1-19.5,0.1-29.3,0c-1.4,0-1.8,0.3-1.8,1.8c0.1,6,0,12.1,0,18.1c-1-1-2-2-3-3.1
		c0.1-0.2,0.2-0.4,0.2-0.6c0-5.1,0-10.2,0-15.2c0-0.9-0.6-1-1.3-1c-3.7,0-7.4,0-11.2,0.1c-0.5-0.8-1-1.7-1.5-2.5
		c4.1,0,8.3-0.1,12.4,0c1.2,0,1.5-0.4,1.5-1.5c0-10.3,0-20.6,0-31c0-1-0.3-1.5-1.4-1.5c-8.9,0-17.7,0-26.6,0.1
		c-0.2-0.9-0.5-1.7-0.7-2.6c8.9,0,17.8,0,26.7,0c1.5,0,2-0.4,1.9-1.9c-0.1-9.6-0.1-19.3,0-28.9c0-1.7-0.5-2-2.1-2
		c-10,0.1-19.9,0-29.9,0c0-0.9,0-1.8,0-2.7c10,0,20,0,30,0c1.5,0,1.9-0.5,1.9-2c-0.1-9.6-0.1-19.3,0-28.9c0-1.5-0.4-2-1.9-1.9
		c-10,0.1-20,0-30,0c-0.2-0.8-0.1-1.7,0-2.5c10,0,20,0,30,0c1.6,0,1.9-0.5,1.9-2c-0.1-10.5,0-21,0-31.5c0.9,0,1.8,0,2.7,0
		c0,10.5,0.1,21,0,31.4c0,1.6,0.5,2,2,2c9.6-0.1,19.3-0.1,28.9,0c1.4,0,1.9-0.3,1.9-1.8c-0.1-10.5,0-21.1,0-31.6c0.8,0,1.7,0,2.5,0
		c0,10.5,0,21,0,31.4c0,1.4,0.3,2.2,1.9,2c0.2,0,0.4,0,0.6,0c-0.5,0.1-1,0.3-1.5,0.4c0,0.1,0,0.1,0,0.2c3.9,0.6,7.9,1.2,11.8,1.8
		c-3.7,0-7.4,0.1-11.2,0.1c-1.2,0-1.6,0.4-1.6,1.6c0,9.9,0,19.7,0,29.6c0,1.2,0.3,1.7,1.6,1.7c10.3,0,20.5,0,30.8,0
		c1.2,0,1.6-0.4,1.6-1.6c-0.1-4.4,0-8.8,0-13.2c0.8-0.6,1.5-1.1,2.3-1.7c0.3,0.5,0.2,1.1,0.2,1.7c0,3.8,0,7.5,0.1,11.3
		c0,0.9-0.5,1.8-0.3,2.8l0,0l-0.1,0.1l0.1-0.1c0.4,0.8,1,0.9,1.8,0.9c3.4,0,6.9,0,10.3,0c0.1,0.8,0.3,1.6,0.4,2.4
		c-3.5,0-7,0.1-10.5,0c-1.3,0-1.7,0.3-1.7,1.7c0.1,9.8,0,19.7,0,29.5c0,1.2,0.4,1.6,1.6,1.6c9.8,0,19.7-0.1,29.5,0
		c1.3,0,1.7-0.4,1.6-1.7c0-9.7-0.1-19.5,0-29.2c0-1.4-0.3-1.9-1.8-1.9c-4.7,0.1-9.4,0-14.1,0c0.1-0.8,0.2-1.6,0.4-2.4
		c3.8,0,7.6,0,11.5,0c0.2,0.2,0.4,0,0.6-0.1c0.6,0,1.1-0.1,1.7,0c1.4,0.2,1.9-0.3,1.9-1.8c-0.1-3.5,0-7.1,0-10.6
		c0.9,0.4,1.7,1,2.5,1.6c0,3,0.1,6.1,0,9.1c0,1.3,0.4,1.7,1.7,1.7c9.8,0,19.5-0.1,29.3,0c1.5,0,1.8-0.5,1.8-1.9c-0.1-9,0-18,0-27.1
		c0-3.6,0-3.6-3.6-3.9c0.6-0.1,1.1-0.3,2-0.5c-4.4-0.7-8.5-1.3-12.6-1.9c4,0,8,0,11.9-0.1c2.1,0,2.1,0,2.1-2.1c0-10.4,0-20.9,0-31.3
		c0.8,0,1.6,0,2.4,0c0,10.5,0.1,21.1,0,31.6c0,1.5,0.5,1.8,1.9,1.8c8.9-0.1,17.7,0,26.6,0c4.3,0,4.3,0,4.3-4.3
		c0-9.7,0-19.4,0.1-29.1c0.8,0,1.6,0,2.4,0c0,10.5,0,21,0,31.4c0,1.5,0.4,2,2,2c10.3-0.1,20.5,0,30.8,0c0.1,0.8,0.2,1.7,0,2.5
		c-10.3,0-20.6,0-30.8,0c-1.4,0-1.8,0.4-1.8,1.8c0.1,9.7,0.1,19.4,0,29.1c0,1.5,0.4,1.9,2,1.9c10.3-0.1,20.7,0,31,0
		c0,0.9,0,1.8,0.1,2.7c-10.5,0-21.1,0-31.6-0.1c-1.3,0-1.4,0.7-1.4,1.7c0,9.8,0,19.6,0,29.4c0,1.5,0.5,1.7,1.8,1.7
		c9.6,0,19.2,0,28.8,0c0,0.9-0.3,1.7-0.6,2.6c-9.4,0-18.9,0-28.3,0c-1.3,0-1.7,0.4-1.7,1.7c0,10.2,0,20.4,0,30.6
		c0,1.3,0.4,1.7,1.7,1.7c4.8,0,9.5,0,14.3,0c-0.5,0.8-1,1.7-1.5,2.5c-4.3,0-8.7,0-13-0.1c-1.4,0-1.7,0.5-1.7,1.8
		c0.1,5.2,0,10.3,0,15.5C369.8,399.7,369.7,400.3,370.1,400.8z M265.2,345.5c-0.8-1.9-2.5-1.6-4.1-1.6c-1.5-0.1-2.3,0.2-2,1.9
		c-0.5-0.3-1-0.3-1.5-0.3c-3.9,0-7.7,0-11.6,0c-0.4-1.4-1.3-1.8-2.6-1.6c-0.5,0.1-1,0.1-1.5,0c-1.4-0.2-2.2,0.3-2.5,1.6
		c-3.1,0-6.2,0-9.3,0c-2.6,0-2.6,0-2.7,2.6c-6.4-5.5-12.6-6.3-19.4-2.3c-0.2-0.1-0.5-0.2-0.8-0.2c-4.7,0-9.3,0-14,0
		c-1.1,0-1.2,0.6-1.2,1.4c0,10.4,0,20.7,0,31.1c0,1.1,0.3,1.5,1.4,1.5c10,0,19.9,0,29.9,0c1.1,0,1.5-0.3,1.5-1.4
		c-0.1-3.2,0-6.4,0-9.6c0.8-0.7,1.7-1.4,2.5-2.1c0,3.9,0,7.8,0,11.8c0,1,0.2,1.4,1.3,1.4c10.4,0,20.8,0,31.2,0
		c1.1,0,1.5-0.4,1.4-1.5c-0.1-2.5,0-5,0-7.5c0.9,0,1.7,0,2.6,0c0,2.5,0,5,0,7.5c0,1,0.2,1.5,1.4,1.5c10,0,20,0,30,0
		c1.1,0,1.4-0.4,1.4-1.5c-0.1-2.4,0-4.7,0-7.1c0.8,0,1.7,0.1,2.5,0.1c0,2.3,0.1,4.6,0,6.9c0,1.2,0.4,1.5,1.5,1.5
		c9.9,0,19.8,0,29.7,0c1.3,0,1.6-0.5,1.5-1.7c-0.1-4.3,0-8.7,0-13c0.8-0.2,1.1,0.1,1.3,0.8c0.4,1.3,0.9,2.5,1.4,3.7
		c-0.4,3.1-0.1,6.2-0.2,9.2c0,0.9,0.8,0.8,1.4,0.8c10,0,20,0,30,0c1.1,0,1.3-0.4,1.3-1.4c0-10.4,0-20.8,0-31.3
		c0-1.1-0.4-1.3-1.4-1.3c-3.1,0.1-6.3,0-9.4,0.1c-4.6-3.1-8-3.1-11.5,0.2c-3-0.5-6-0.1-9-0.2c-1.1-0.1-1.5,0.3-1.4,1.4
		c0,2.5,0,5-0.1,7.5c-1.1-2.5-2.2-4.9-2.8-7.6c-0.5-2.2-1.3-2.9-3.6-2.9c-0.4,0-0.7,0.1-1.1,0c-1.4-0.3-2.2,0.3-2.5,1.6
		c-5.5,0-11.1,0-16.6,0c-5.6-2.9-11.3-3.3-16.8,0.2c-0.5-0.3-1-0.2-1.5-0.2c-3,0-5.9,0-8.9,0c0.1-1.2-0.3-1.8-1.6-1.6
		c-0.6,0.1-1.3,0.1-1.9,0c-1.4-0.3-1.8,0.4-1.6,1.6C271.9,345.4,268.6,345.4,265.2,345.5z M244.4,414.6c5.1,0,10.3,0,15.4,0
		c1.2,0,1.7-0.3,1.7-1.6c0-9.9,0-19.8,0-29.7c0-1.2-0.4-1.5-1.5-1.5c-10.3,0-20.5,0-30.8,0c-1.2,0-1.6,0.3-1.6,1.6
		c0.1,9.9,0,19.8,0,29.7c0,1.2,0.3,1.5,1.5,1.5C234.1,414.6,239.3,414.6,244.4,414.6z M244.4,310.1c-5,0-10.1,0-15.1,0
		c-1.4,0-1.8,0.3-1.8,1.8c0.1,9.8,0.1,19.6,0,29.4c0,1.3,0.4,1.7,1.7,1.7c10.2,0,20.3,0,30.5,0c1.4,0,1.8-0.4,1.8-1.8
		c-0.1-9.8-0.1-19.6,0-29.4c0-1.4-0.5-1.7-1.7-1.6C254.6,310.2,249.5,310.1,244.4,310.1z M315.6,381.9c-5,0-10,0-14.9,0
		c-1.1,0-1.4,0.3-1.4,1.4c0,10,0,19.9,0,29.9c0,1.2,0.4,1.5,1.5,1.5c9.9,0,19.8,0,29.7,0c1.2,0,1.5-0.3,1.5-1.5c0-9.9,0-19.8,0-29.7
		c0-1.3-0.4-1.6-1.6-1.6C325.5,381.9,320.6,381.9,315.6,381.9z M264,398.3c0,4.9,0,9.9,0,14.8c0,1.3,0.4,1.6,1.6,1.6
		c9.8,0,19.7,0,29.5,0c1.4,0,1.6-0.5,1.6-1.7c0-9.8,0-19.6,0-29.4c0-1.3-0.4-1.7-1.7-1.7c-9.8,0-19.6,0.1-29.4,0
		c-1.4,0-1.7,0.5-1.7,1.8C264,388.5,264,393.4,264,398.3z M332,326.6c0-4.9,0-9.9,0-14.8c0-1.3-0.4-1.7-1.7-1.7
		c-9.8,0-19.6,0-29.4,0c-1.3,0-1.7,0.3-1.7,1.6c0.1,9.9,0,19.7,0,29.6c0,1.2,0.3,1.6,1.6,1.6c9.9,0,19.7-0.1,29.6,0
		c1.4,0,1.7-0.5,1.6-1.7C332,336.3,332,331.4,332,326.6z M225,326.5c0-4.9,0-9.8,0-14.8c0-1.2-0.3-1.6-1.6-1.6c-9.8,0-19.7,0-29.5,0
		c-1.3,0-1.7,0.4-1.7,1.7c0,9.8,0,19.6,0,29.4c0,1.3,0.3,1.7,1.7,1.7c9.9-0.1,19.7,0,29.5,0c1.3,0,1.6-0.4,1.6-1.6
		C225,336.4,225,331.4,225,326.5z M367.3,326.5c0-4.9,0-9.8,0-14.8c0-1.2-0.3-1.7-1.6-1.7c-9.9,0-19.8,0-29.7,0
		c-1.2,0-1.5,0.4-1.5,1.5c0,9.9,0,19.8,0,29.7c0,1.3,0.5,1.6,1.6,1.6c9.8,0,19.7,0,29.5,0c1.2,0,1.6-0.4,1.6-1.6
		C367.2,336.4,367.3,331.5,367.3,326.5z M351,274.7c-5,0-10.1,0-15.1,0c-1.1,0-1.4,0.4-1.4,1.4c0,10,0,19.9,0,29.9
		c0,1.2,0.4,1.5,1.6,1.5c9.8,0,19.7,0,29.5,0c1.3,0,1.7-0.4,1.7-1.7c0-9.8-0.1-19.6,0-29.4c0-1.5-0.5-1.7-1.8-1.7
		C360.7,274.7,355.9,274.7,351,274.7z M208.7,307.4c4.9,0,9.7,0,14.6,0c1.2,0,1.8-0.2,1.7-1.6c-0.1-9.8,0-19.7,0-29.5
		c0-1.2-0.3-1.6-1.6-1.6c-9.8,0.1-19.7,0.1-29.5,0c-1.3,0-1.7,0.4-1.7,1.7c0,9.8,0.1,19.6,0,29.4c0,1.5,0.5,1.7,1.8,1.7
		C198.9,307.4,203.8,307.4,208.7,307.4z"/>
	<path class="st2" d="M401.2,129.8c0,0.9,0,1.7,0,2.6c-9.6,0-19.3,0-28.9,0c-2.3,0-2.3,0-2.3,2.3c0,9.5,0.1,19.1-0.1,28.6
		c0,1.7,0.4,1.9,1.9,1.9c9.9-0.1,19.8,0,29.7,0c0,0.9,0,1.7,0,2.6c-4.8,0-9.6,0-14.3,0c-5.2,0-10.5,0-15.7,0c-1.2,0-1.6,0.4-1.5,1.5
		c0.1,1.9,0.1,3.8,0,5.6c-0.1,1.5,0.3,3-0.3,4.5c-0.8-1.1-1.6-2.2-2.2-3.4c-0.1-0.1-0.2-0.3-0.3-0.4l0,0c0-0.1,0-0.2,0-0.3
		c0-1.9,0-3.9,0.1-5.8c0.1-1.4-0.3-1.8-1.7-1.8c-9.8,0.1-19.6,0.1-29.4,0c-1.3,0-1.7,0.4-1.7,1.7c0.1,7.8,0,15.5,0,23.3
		c0,0.5,0.1,1,0.1,1.6c-0.8,2-1.6,4-2.4,6c-0.1-0.2-0.2-0.4-0.3-0.6c0-10.1-0.1-20.1,0-30.2c0-1.3-0.4-1.7-1.7-1.7
		c-9.8,0-19.6,0.1-29.4,0c-1.4,0-1.7,0.4-1.7,1.8c0.1,9.5,0,19,0,28.4c0,0.6-0.1,1.2,0.2,1.7c0.3,0.3-0.4,1.1,0.3,1.1
		c1.5,0,3.1,0.5,4.6-0.3c2.7,0,5.4,0,8.1,0c1.6,0.5,3.2,0.6,4.8,0c2.7,0,5.4,0,8.1,0c1.6,0.7,3.3,0.2,5,0.3c0.5-0.1,1-0.2,1.5-0.3
		c0.1,0,0.2,0,0.3,0c1.8,0.5,3.6,0.5,5.5,0c4.4,0,8.7,0,13.1,0c0.5,0,0.9,0.1,1.3-0.3c0.2,0.5,0.6,0.6,1.1,0.6
		c1.5-0.1,3-0.1,4.5-0.1c1.2,0.3,2.4-0.4,3.6-0.3c1.7,0.7,3.4,0.2,5.2,0.3c0.9-0.3,0.7-1,0.7-1.7c0-4.5,0-9.1,0-13.6
		c0.1,0,0.2,0,0.3-0.1c0.8,1.2,1.9,2.3,2.2,3.7c0,3.4,0,6.7-0.1,10.1c0,1,0.3,1.4,1.4,1.4c2-0.1,4.1,0,6.1-0.1c0.1,0,0.2,0,0.2,0
		c1.7,0.5,3.5,0.6,5.2,0c6.3,0,12.5,0,18.8,0.1c0.1,0.1,0.2,0.2,0.3,0.3c0,0.3,0,0.6,0,0.9c-81.4,0-162.9,0-244.3,0
		c0-0.3,0-0.6,0-0.9c0.1-0.1,0.3-0.2,0.4-0.3c6.8,0,13.7,0,20.5,0c2.3,0.7,4.6,0.2,7,0.3c2.3,0.1,4.5-0.2,6.5-1.3
		c0.3,0.8,0.7,1.1,1.6,1c1.4-0.1,2.9,0,4.3,0c1.8,0.5,3.6,0.5,5.5,0c4.9,0,9.7,0,14.6,0c1.8,0.7,3.7,0.2,5.5,0.2
		c1.3,0.3,1.6-0.4,1.6-1.6c0-10,0-19.9,0-29.9c0-1.1-0.2-1.6-1.5-1.6c-10,0-19.9,0-29.9,0c-1.2,0-1.5,0.5-1.5,1.6
		c0.1,2.6,0,5.2,0,7.9c-0.1,0-0.2,0-0.2,0c-0.8-0.7-1.5-1.4-2.5-1.9c0-0.1,0-0.1,0-0.2c0-1.8-0.1-3.7,0.1-5.5
		c0.1-1.5-0.4-1.9-1.8-1.8c-10,0.1-20.1,0-30.1,0c-0.1-0.8-0.1-1.7,0-2.5c10.1,0,20.2,0,30.3,0c1,0,1.6-0.1,1.6-1.4c0-10,0-20,0-30
		c0-1-0.4-1.4-1.4-1.4c-10.2,0-20.4,0-30.6,0.1c0-0.9,0-1.7,0-2.6c10.2,0,20.3,0,30.5,0.1c1.2,0,1.5-0.4,1.5-1.6
		c0-10.2,0-20.3,0-30.5c0.9,0,1.8,0,2.8,0c0,10.1,0,20.1-0.1,30.2c0,1.6,0.5,1.9,2,1.9c9-0.1,18,0,27.1,0c3.6,0,3.6,0,3.8-3.6
		c0.8,0.7,1.6,1.4,2.4,2c-0.4,1.6-0.4,1.6,1.9,1.5c1,0.8,2.1,1.5,3.1,2.3c0,0.1,0,0.2,0,0.3c-1.2,0-2.3,0.1-3.5,0
		c-1.3-0.1-1.6,0.4-1.6,1.6c0,9.9,0,19.7,0,29.6c0,1.2,0.3,1.6,1.6,1.6c10.3-0.1,20.5,0,30.8,0c1.3,0,1.6-0.4,1.6-1.6
		c-0.1-6.2,0-12.4,0-18.6c0.8,0.2,1.7,0.3,2.5,0.5c0,6,0,12,0,17.9c0,1.2,0.2,1.8,1.6,1.7c9.9-0.1,19.7,0,29.6,0
		c1.2,0,1.6-0.3,1.6-1.6c-0.1-5.8,0-11.6,0-17.5c0-0.5,0.1-1.1-0.3-1.5c0.9-0.3,1.9-0.5,2.8-0.8c0,6.6,0,13.2,0,19.8
		c0,1,0.2,1.5,1.4,1.5c10,0,20,0,30,0c1,0,1.4-0.3,1.4-1.3c0-10.1,0-20.1,0-30.2c0-0.9-0.3-1.3-1.3-1.3c-1.3,0.1-2.5,0-3.8,0
		c0-0.2,0-0.3-0.1-0.5c1-0.7,1.9-1.4,2.9-2c1,0,2.5,0.5,2.2-1.5c0.6-1,1.6-1.6,2.5-2.3c0,0.6,0,1.2,0,1.7c0,2.1,0,2.1,2,2.1
		c9.6,0,19.2,0,28.7,0c1.6,0,2.1-0.3,2-2c-0.1-10.1,0-20.1,0-30.2c0.9-0.1,1.7-0.1,2.5,0c0,10.2,0,20.4,0,30.6
		c0,1.2,0.4,1.5,1.5,1.5C381.3,129.8,391.2,129.8,401.2,129.8z M290.1,200.3c0.1,0,0.2,0,0.2,0c1.7,0.6,3.5,0.3,5.2,0.2
		c1.2,0.2,1.2-0.5,1.2-1.3c0-10.1,0-20.2,0-30.4c0-1-0.3-1.3-1.3-1.3c-10.1,0-20.1,0-30.2,0c-1.1,0-1.3,0.5-1.3,1.4
		c0,2.3,0,4.5,0,6.8c-0.1,0-0.2,0-0.4,0.1c-0.7-0.4-1.5-0.8-2.2-1.2c0-1.9,0-3.9,0-5.8c0-0.9-0.3-1.2-1.2-1.2c-10.5,0-21,0-31.5,0
		c-1,0-1.3,0.4-1.2,1.3c0,1.7,0,3.3,0,5c-0.1,0.1-0.2,0.2-0.3,0.3c0,0-0.1,0.1-0.1,0.1c0,8.5,0,17-0.1,25.5c0,0.7,0.3,0.9,1,0.9
		c3.6,0,7.2,0,10.9,0c0.3,0,0.5,0,0.7-0.3c3.5,0,7.1-0.1,10.6-0.1c0.1,0,0.2,0,0.4,0.1c0.1,0,0.2,0.1,0.3,0.1
		c0.1,0.1,0.2,0.1,0.4,0.2c4.4,1.1,8.6,0.9,12.5-1.6c-0.1,1,0.4,1.3,1.4,1.3c3.1-0.1,6.1,0,9.2,0c1.7,0.6,3.5,0.5,5.2,0
		C283,200.4,286.6,200.3,290.1,200.3z M350.8,165.1c5,0,10,0,14.9,0c1.2,0,1.5-0.3,1.5-1.5c0-9.9,0-19.8,0-29.7
		c0-1.3-0.5-1.6-1.6-1.6c-9.9,0-19.7,0-29.5,0c-1.2,0-1.6,0.4-1.6,1.6c0,9.9,0,19.7,0,29.5c0,1.4,0.5,1.7,1.7,1.6
		C341.1,165.1,346,165.1,350.8,165.1z M208.8,132.4c-5,0-10,0-14.9,0c-1.3,0-1.7,0.4-1.7,1.7c0,9.8,0,19.6,0,29.4
		c0,1.3,0.4,1.7,1.7,1.7c9.8-0.1,19.7-0.1,29.6,0c1.3,0,1.6-0.4,1.6-1.6c0-9.8,0-19.7,0-29.6c0-1.2-0.3-1.6-1.6-1.6
		C218.6,132.4,213.7,132.4,208.8,132.4z"/>
	<path class="st9" d="M157.6,236.9c0-1.7-0.1-3.4-0.1-5.2c0-9.5,0-19,0-28.6c0-0.3,0.1-0.6,0.1-0.9c10.7,0,21.3,0,32,0
		c0,0.6-0.1,1.3-0.1,1.9c0,10.3,0,20.5,0,30.8c0,1.5-0.3,2-1.9,2C177.6,236.8,167.6,236.9,157.6,236.9z"/>
	<path class="st10" d="M401.9,202.3c0.3,7.3,0.2,14.5,0.3,21.8c0,4.3,0,8.6,0,12.8c-10.2,0-20.3,0-30.5,0c-1.1,0-1.7-0.2-1.7-1.5
		c0.1-10.5,0-21.1,0-31.6c0-1.1,0.3-1.6,1.5-1.5C381.6,202.3,391.8,202.2,401.9,202.3z"/>
	<path class="st9" d="M402.6,272.1c-10.3,0-20.5,0-30.8,0c-1.5,0-2-0.5-2-2c0-10.5,0-21,0-31.4c10.8,0,21.6,0,32.4,0
		c0.3,3.7,0.2,7.3,0.2,11c0.1,6.9,0.1,13.7,0.2,20.6C402.6,270.9,402.6,271.5,402.6,272.1z"/>
	<path class="st10" d="M402.9,307.4c-10.3,0-20.7,0-31,0c-1.5,0-2-0.4-2-1.9c0.1-9.7,0.1-19.4,0-29.1c0-1.4,0.4-1.8,1.8-1.8
		c10.3,0.1,20.6,0,30.8,0c0.3,3.8,0.1,7.5,0.2,11.3c0.1,6.6,0.2,13.3,0.2,19.9C403,306.4,402.9,306.9,402.9,307.4z"/>
	<path class="st9" d="M189.5,238.8c0,10.5,0,21,0,31.5c0,1.5-0.3,2-1.9,2c-10-0.1-20,0-30,0c0-0.4-0.1-0.7-0.1-1.1
		c0-10.4,0-20.8,0-31.2c0-0.4,0.1-0.7,0.1-1.1C168.2,238.8,178.9,238.8,189.5,238.8z"/>
	<path class="st10" d="M400.6,342.9c-9.6,0-19.2,0-28.8,0c-1.3,0-1.8-0.3-1.8-1.7c0.1-9.8,0-19.6,0-29.4c0-1,0-1.7,1.4-1.7
		c10.5,0.1,21.1,0,31.6,0.1c0.2,10.7,0.8,21.4-2.1,31.8C400.8,342.3,400.7,342.6,400.6,342.9z"/>
	<path class="st9" d="M157.5,132.4c10.2,0,20.4,0,30.6-0.1c1,0,1.4,0.3,1.4,1.4c0,10,0,20,0,30c0,1.3-0.6,1.4-1.6,1.4
		c-10.1,0-20.2,0-30.3,0c0-2.6-0.1-5.2-0.1-7.8C157.5,149,157.5,140.7,157.5,132.4z"/>
	<path class="st9" d="M157.6,274.7c10,0,20,0,30,0c1.5,0,1.9,0.5,1.9,1.9c-0.1,9.6-0.1,19.3,0,28.9c0,1.5-0.4,2-1.9,2
		c-10-0.1-20,0-30,0C157.4,296.5,157.4,285.6,157.6,274.7z"/>
	<path class="st9" d="M189.5,97.8c0,10.2,0,20.3,0,30.5c0,1.1-0.3,1.6-1.5,1.6c-10.2,0-20.3,0-30.5-0.1c0-3.4-0.1-6.8-0.1-10.2
		c0-6.9,0-13.7,0-20.6c0-0.7-0.1-1.3,1-1.3C168.8,97.8,179.1,97.8,189.5,97.8z"/>
	<path class="st10" d="M401.5,165.1c-9.9,0-19.8,0-29.7,0c-1.5,0-1.9-0.2-1.9-1.9c0.1-9.5,0.1-19.1,0.1-28.6c0-2.3,0-2.3,2.3-2.3
		c9.6,0,19.3,0,28.9,0C401.5,143.3,401.6,154.2,401.5,165.1z"/>
	<path class="st9" d="M157.6,310.1c10,0,19.9,0,29.9,0c1.5,0,2.1,0.3,2.1,2c-0.1,9.6-0.1,19.3,0,28.9c0,1.5-0.4,1.9-1.9,1.9
		c-8.9-0.1-17.8,0-26.7,0c-1.6-6-3.5-11.9-3.4-18.2C157.6,319.8,157.6,315,157.6,310.1z"/>
	<path class="st10" d="M401.2,129.8c-9.9,0-19.9,0-29.8,0c-1.1,0-1.5-0.3-1.5-1.5c0-10.2,0-20.4,0-30.6c1.5-0.3,2.9-0.1,4.4-0.1
		c8.4,0,16.8,0,25.1,0c1.1,0,1.6,0.1,1.6,1.5C401,109.4,401.3,119.6,401.2,129.8z"/>
	<path class="st9" d="M351.9,414.7c-5.2,0-10.5-0.1-15.7,0c-1.3,0-1.7-0.4-1.7-1.7c0-9.8,0-19.6,0-29.4c0-1.3,0.3-1.7,1.7-1.7
		c9.8,0.1,19.6,0.1,29.4,0c1.4,0,1.7,0.5,1.7,1.8c-0.1,6.5,0,13.1,0,19.6C362.3,407.3,357.2,411.1,351.9,414.7z"/>
	<path class="st9" d="M192.2,401.7c0-6,0-12.1,0-18.1c0-1.4,0.4-1.8,1.8-1.8c9.8,0.1,19.5,0.1,29.3,0c1.4,0,1.8,0.4,1.8,1.8
		c-0.1,9.8-0.1,19.5,0,29.3c0,1.4-0.3,1.8-1.8,1.8c-4.6-0.1-9.2,0-13.8,0C203.4,410.8,197.4,406.8,192.2,401.7z"/>
	<path class="st10" d="M261.5,145c0,6.2,0,12.4,0,18.6c0,1.2-0.3,1.6-1.6,1.6c-10.3,0-20.5,0-30.8,0c-1.3,0-1.6-0.4-1.6-1.6
		c0-9.9,0-19.7,0-29.6c0-1.2,0.3-1.7,1.6-1.6c1.1,0.1,2.3,0,3.5,0c0.1,0,0.3,0,0.4,0c5.3,3.3,10.6,6.4,16.4,8.7
		C253.3,142.7,257.4,143.8,261.5,145z"/>
	<path class="st9" d="M327,132.3c1.3,0,2.5,0.1,3.8,0c1,0,1.3,0.4,1.3,1.3c0,10.1,0,20.1,0,30.2c0,1.1-0.4,1.3-1.4,1.3
		c-10,0-20,0-30,0c-1.2,0-1.4-0.4-1.4-1.5c0-6.6,0-13.2,0-19.8c9.5-2.5,18.5-6.2,26.8-11.5C326.4,132.4,326.7,132.4,327,132.3z"/>
	<path class="st10" d="M386,379.4c-4.8,0-9.5-0.1-14.3,0c-1.3,0-1.7-0.3-1.7-1.7c0.1-10.2,0-20.4,0-30.6c0-1.3,0.4-1.7,1.7-1.7
		c9.4,0.1,18.9,0,28.3,0c-1.2,5.5-3.2,10.8-5.2,16C392.2,367.6,389.4,373.7,386,379.4z"/>
	<path class="st10" d="M369.7,179.3c0.6-1.5,0.2-3,0.3-4.5c0.1-1.9,0.1-3.8,0-5.6c-0.1-1.2,0.3-1.5,1.5-1.5c5.2,0.1,10.5,0,15.7,0
		c4.8,0,9.6,0,14.3,0c0.3,8.5,0.3,17.1,0.3,25.6c0,2.4,0,4.7,0,7.1c-0.1,0-0.2,0-0.3,0.1c-6.3,0-12.5,0-18.8-0.1c0-7.5,0-15,0-22.4
		c0-3.7,0-3.7-3.7-3.7c-1.1,0-1.4,0.3-1.4,1.4c0.1,4.8,0,9.6,0,14.4c0,0.3,0.3,0.8-0.3,1.1C374.7,187.2,372.2,183.2,369.7,179.3z"/>
	<path class="st9" d="M157.6,167.6c10,0,20.1,0,30.1,0c1.4,0,1.9,0.4,1.8,1.8c-0.1,1.8,0,3.7-0.1,5.5c-0.1,0-0.3,0-0.4,0
		c-3.4-1-7-0.7-10.5-0.6l-0.1,0l0,0.1c0,5.8,0.1,11.6,0.1,17.5c0,2.8-0.1,5.6-0.1,8.5c-6.8,0-13.7,0-20.5,0c-0.1,0-0.3,0-0.4,0
		c0-0.3-0.1-0.5-0.1-0.8c0-10.4,0-20.8,0-31.2C157.5,168.1,157.5,167.9,157.6,167.6z"/>
	<path class="st10" d="M161.6,345.5c8.9,0,17.7,0,26.6-0.1c1.1,0,1.4,0.4,1.4,1.5c0,10.3,0,20.6,0,31c0,1.2-0.3,1.5-1.5,1.5
		c-4.1,0-8.3,0-12.4,0C169.5,368.7,165,357.3,161.6,345.5z"/>
	<path class="st10" d="M367.3,97.7c0,10.1,0,20.1,0,30.2c0,1.6-0.5,2-2,2c-9.6-0.1-19.2,0-28.7,0c-2,0-2,0-2-2.1c0-0.6,0-1.2,0-1.7
		c5-4.7,9.6-9.6,13.4-15.3c2.6-3.8,4.9-7.8,6.9-11.9c0.4-1,1-1.3,2-1.2C360.3,97.7,363.8,97.7,367.3,97.7z"/>
	<path class="st10" d="M264,437.6c0-6.2,0-12.5,0-18.7c0-1.2,0.2-1.7,1.6-1.7c9.8,0.1,19.7,0.1,29.5,0c1.4,0,1.6,0.5,1.6,1.7
		c0,6.4,0,12.8,0,19.2c-6.7,1.1-13.4,1.4-20.2,1C272.4,438.7,268.2,438.5,264,437.6z"/>
	<path class="st10" d="M225.1,126.3c-0.2,3.6-0.2,3.6-3.8,3.6c-9,0-18,0-27.1,0c-1.4,0-2-0.3-2-1.9c0.1-10.1,0-20.1,0.1-30.2
		c3.4,0,6.8,0,10.2-0.1c0.7,0,1,0.2,1.2,0.9c3.5,9.2,9.8,16.3,16.6,23.1C221.9,123.3,223.5,124.7,225.1,126.3z"/>
	<path class="st11" d="M402.2,238.7c-10.8,0-21.6,0-32.4,0c-0.8,0-1.6,0-2.4,0c-10.9,0-21.9,0-32.8,0c-0.8,0-1.6,0-2.4,0
		c-10.9,0-21.9,0-32.8,0c-0.8,0-1.6,0-2.5,0c-4.9,0-9.8-0.1-14.7-0.1c-0.1-0.6-0.2-1.2-0.2-1.8c4.4,0,8.8-0.1,13.2,0
		c1.3,0,1.7-0.3,1.7-1.6c-0.1-10.5,0-20.9,0-31.4c0-1.2-0.3-1.6-1.6-1.6c-10.4,0.1-20.8,0-31.2,0c-0.8,0-1.6,0-2.4,0
		c-11.3,0-22.7,0-34,0c-0.8,0-1.6,0-2.4,0c-11,0-21.9,0-32.9,0c-0.9,0-1.7,0-2.6,0c-10.7,0-21.3,0-32,0c0-0.2,0-0.4,0-0.6
		c81.4,0,162.9,0,244.3,0c0,0.2,0,0.4,0,0.6c-10.1,0-20.2,0-30.3,0c-1.2,0-1.5,0.4-1.5,1.5c0,10.5,0,21.1,0,31.6
		c0,1.4,0.6,1.5,1.7,1.5c10.2,0,20.3,0,30.5,0C402.3,237.5,402.4,238.1,402.2,238.7z M299.3,219.6c0,5.2,0,10.5,0,15.7
		c0,1.3,0.4,1.6,1.6,1.6c9.9,0,19.7,0,29.6,0c1.3,0,1.6-0.4,1.6-1.6c0-10.5,0-21,0-31.5c0-1.3-0.4-1.6-1.6-1.6c-9.9,0-19.7,0-29.6,0
		c-1.3,0-1.6,0.4-1.6,1.6C299.3,209.1,299.3,214.3,299.3,219.6z M367.3,219.6c0-5.2,0-10.5,0-15.7c0-1.2-0.3-1.6-1.6-1.6
		c-9.9,0-19.7,0-29.6,0c-1.2,0-1.6,0.4-1.6,1.6c0,10.5,0,21,0,31.5c0,1.2,0.3,1.6,1.6,1.6c9.9,0,19.7,0,29.6,0
		c1.2,0,1.6-0.3,1.6-1.6C367.2,230,367.3,224.8,367.3,219.6z"/>
	<path class="st10" d="M296.4,144.6c0.5,0.4,0.3,1,0.3,1.5c0,5.8,0,11.6,0,17.5c0,1.3-0.4,1.6-1.6,1.6c-9.9,0-19.7-0.1-29.6,0
		c-1.4,0-1.6-0.5-1.6-1.7c0-6,0-12,0-17.9c4.5,0.8,9.1,1.3,13.7,1.4c5.8,0.2,11.5-1,17.2-2.1C295.4,144.7,295.9,144.7,296.4,144.6z"
		/>
	<path class="st10" d="M299.3,437.6c0-6.3,0-12.7,0-19c0-1.2,0.4-1.5,1.6-1.5c9.9,0,19.8,0,29.7,0c1.1,0,1.6,0.3,1.5,1.5
		c-0.1,2.7,0,5.4,0,8.2c-9.1,4.7-18.7,8-28.8,10.2C302,437.2,300.7,437.6,299.3,437.6z"/>
	<path class="st10" d="M227.5,425.2c0-2.3,0.1-4.5,0-6.8c0-0.9,0.3-1.3,1.2-1.3c10.5,0,21,0,31.4,0c1.1,0,1.3,0.5,1.3,1.4
		c0,6.2,0,12.4,0,18.5c-8.5-1.5-16.7-4.2-24.6-7.5C233.6,428.2,230.5,426.9,227.5,425.2z"/>
	<path class="st2" d="M261.5,202.3c0.8,0,1.6,0,2.4,0c0,0.7,0.1,1.4,0.1,2c0,10.3,0,20.7,0,31c0,1.2,0.3,1.6,1.6,1.6
		c3.9-0.1,7.8,0,11.6,0c-0.1,0.4-0.1,0.8-0.2,1.3c-3.9,0-7.8,0.1-11.8,0.1c-0.1,0-0.1,0-0.2,0c-0.8,0-1.6-0.1-2.4-0.1
		c-35,0-70,0-105.1,0c-0.1-0.4-0.1-0.8,0-1.3c10,0,20,0,30,0c1.6,0,1.9-0.5,1.9-2c-0.1-10.3,0-20.5,0-30.8c0-0.6,0-1.3,0.1-1.9
		c0.9,0,1.7,0,2.6,0c0,0.6,0.1,1.3,0.1,1.9c0,10.3,0,20.5,0,30.8c0,1.6,0.5,2,2,2c9.5-0.1,19,0,28.4,0c2.5,0,2.3,0.3,2.3-2.2
		c0-10.8,0-21.6,0-32.4c0.8,0,1.6,0,2.4,0c0,10.9,0.1,21.8,0,32.7c0,1.5,0.4,2,1.9,1.9c10-0.1,20,0,30,0c2,0,2,0,2-2
		C261.5,224,261.5,213.1,261.5,202.3z"/>
	<path class="st12" d="M370.1,400.8c-0.4-0.5-0.2-1.1-0.2-1.7c0-5.2,0-10.3,0-15.5c0-1.3,0.3-1.8,1.7-1.8c4.3,0.1,8.7,0.1,13,0.1
		C380.5,388.8,375.9,395.3,370.1,400.8z"/>
	<path class="st12" d="M177.1,381.9c3.7,0,7.4,0,11.2-0.1c0.7,0,1.3,0.1,1.3,1c0,5.1,0,10.2,0,15.2c0,0.2-0.2,0.4-0.2,0.6
		C184.5,393.6,180.5,388,177.1,381.9z"/>
	<path class="st13" d="M157.6,238.1c35,0,70,0,105.1,0c0.8,0,1.6,0.1,2.4,0.1c-0.2,0.5-0.6,0.5-1,0.5c-0.8,0-1.7,0-2.5,0
		c-11.3,0-22.6,0-33.9,0c-0.8,0-1.7,0-2.5,0c-10.9,0-21.8,0-32.8,0c-0.9,0-1.8,0-2.7,0c-10.6,0-21.3,0-31.9,0
		C157.6,238.5,157.6,238.3,157.6,238.1z"/>
	<path class="st12" d="M334.8,425.4c-0.6-2.5-0.1-5.1-0.2-7.6c0-0.5,0.3-0.6,0.8-0.6c4.2,0.1,8.4-0.2,12.6,0.1c0,0,0.1,0.1,0.1,0.1
		C343.8,420.4,339.5,423.1,334.8,425.4z"/>
	<path class="st14" d="M213.3,417.2c3.5,0,6.9,0,10.4-0.1c0.9,0,1.3,0.3,1.3,1.2c-0.1,1.8-0.1,3.7-0.1,5.5
		C220.9,421.9,217,419.7,213.3,417.2z"/>
	<path class="st14" d="M229.4,129.8c-2.4,0.1-2.4,0.1-1.9-1.5C228.2,128.7,228.9,129.2,229.4,129.8z"/>
	<path class="st14" d="M332,128.3c0.4,2.1-1.1,1.5-2.2,1.5C330.4,129.2,331,128.5,332,128.3z"/>
	<path class="st13" d="M327,132.3c-0.3,0-0.6,0-0.9,0.1c0.3-0.2,0.6-0.4,0.9-0.6C327,132,327,132.2,327,132.3z"/>
	<path class="st11" d="M157.6,200.4c0.1,0,0.3,0,0.4,0c-0.1,0.1-0.3,0.2-0.4,0.3C157.6,200.6,157.6,200.5,157.6,200.4z"/>
	<path class="st13" d="M233,132.4c-0.1,0-0.3,0-0.4,0c0-0.1,0-0.2,0-0.3C232.7,132.2,232.8,132.3,233,132.4z"/>
	<path class="st11" d="M401.5,200.4c0.1,0,0.2-0.1,0.3-0.1c0,0.1,0,0.2,0,0.3C401.7,200.6,401.6,200.5,401.5,200.4z"/>
	<path class="st5" d="M420.1,389.8c0.1,0,0.1,0.1,0.2,0.1C420.1,390,420.1,390,420.1,389.8L420.1,389.8z"/>
	<polygon class="st5" points="415.2,405.9 415.3,406 415.2,406 	"/>
	<path class="st15" d="M268.7,71c0,8.9,1.5,16.3,5.9,22.8c3.9,5.8,9.4,9.1,16.4,9.3c5.9,0.1,11.1-1.8,15.5-5.8
		c1.9-1.7,1.9-1.6,3.8,0.1c1,0.9,2,1.8,3.1,2.7c0.5,0.4,0.8,0.8,0.3,1.5c-5.9,7.8-12.4,14.7-22.1,17.6c-11.8,3.6-22.4,1-31.6-7
		c-7.9-6.8-12-15.8-13.3-26c-1.5-11.6,1.8-21.8,9.5-30.5c6.3-7.1,14.1-11.5,23.4-13.1c7.9-1.4,15.2,0.1,21.7,5
		c1.7,1.3,1.7,1.4,0,2.4c-4.3,2.7-8.7,5.5-13,8.2c-0.8,0.5-1.3,0.8-1.7-0.5c-1.1-3.3-4.5-5.1-7.9-4.3c-5.2,1.1-7.4,5.1-8.9,9.6
		C268.8,65.9,268.6,69,268.7,71z"/>
	<path class="st3" d="M277,238.1c0.1-0.4,0.1-0.8,0.2-1.3c0.7-4.7,1.4-9.4,2.1-14.1c0.1,0,0.1,0,0.2,0c0.8,4.7,1.6,9.4,2.4,14.1
		c0.1,0.6,0.2,1.2,0.2,1.8c0.7,4.4,1.4,8.8,2.1,13.1c0.1,0.9,0.7,1,1.3,1.3c0.8,0.3,0.9-0.4,1.2-0.8c1.9-3,3.7-5.9,5.6-8.9
		c0.6-1,1.2-2,1.9-3c0.1,1-0.1,1.8-0.3,2.7c-0.9,3.9-1.7,7.7-2.6,11.6c-0.2,1,0.4,1.3,0.9,1.8c0.6,0.6,1,0.2,1.5-0.2
		c1.1-0.8,2.1-1.6,3.2-2.5c0.8-0.6,1.7-1.2,2.5-1.8c1.8-1.3,3.7-2.6,5.5-3.9c0,0.1,0.1,0.1,0.1,0.2c-1.9,3-3.8,6.1-5.8,9.1
		c-0.7,1.1-1.5,2.1-2.2,3.2c-0.5,0.8,0.1,1.7,1,1.6c0.4,0,0.8-0.2,1.2-0.3c4.5-0.8,8.9-1.7,13.4-2.5c0.1,0.1,0.1,0.1,0.2,0.2
		c-0.3,0.5-0.8,0.7-1.2,0.9c-3.6,2.3-7.2,4.6-10.8,6.9c-0.5,0.3-1,0.5-0.8,1.3c0.1,0.7,0.6,0.9,1.2,0.9c5.6,0.7,11.2,1.5,16.8,2.2
		c4.1,0.6,8.1,1.2,12.6,1.9c-0.9,0.2-1.5,0.4-2,0.5c-3,0.4-6,0.9-9,1.3c-6.1,1-12.3,2-18.4,3c-0.7,0.1-1.4,0.1-1.7,1.1
		c-0.2,1,0.6,1.1,1.1,1.4c3.5,2.2,7.1,4.4,10.6,6.7c0.4,0.3,0.9,0.5,1.3,0.8c0,0.1-0.1,0.1-0.1,0.2c-4.3-0.9-8.7-1.8-13-2.7
		c-0.8-0.2-1.7-0.4-2.5-0.6c-1.6,1.1-1.6,1.1-0.1,2.9c0.8,1.1,1.6,2.2,2.4,3.4c1.7,2.5,3.4,5,5.1,7.4l0,0c-0.6,0.3-0.9-0.3-1.3-0.5
		c-1.3-0.7-2.5-1.5-3.8-2.3c-0.8-0.7-1.6-1.2-2.5-1.6c-1.7-1.2-3.4-2.3-5.2-3.5c-0.4-0.2-0.7-0.4-1.1-0.2c-0.5,0.3-0.4,0.8-0.3,1.3
		c1,4.9,2,9.9,3,14.8c-0.2,0.2-0.3,0.3-0.6,0.1c-2.7-4.3-5.4-8.6-8.1-12.9c-0.2-0.4-0.5-0.7-1-0.6c-0.5,0.1-0.6,0.5-0.7,0.9
		c-0.6,4.2-1.2,8.4-1.7,12.6c-0.1,0.8-0.2,1.6-0.4,2.4c-0.7,4.7-1.4,9.3-2.1,14c-0.1,0-0.1,0-0.2,0c-0.8-4.7-1.6-9.3-2.3-14
		c-0.1-0.8-0.3-1.6-0.4-2.4c-0.7-4.2-1.4-8.4-2-12.7c-0.1-0.8-0.4-1.2-1.2-1.4c-0.9-0.3-1.1,0.5-1.4,1c-2.5,4.1-5.1,8.1-7.6,12.2
		c-0.2-1,0.4-1.8,0.3-2.8c0.9-4.1,1.9-8.2,2.8-12.4c0.1-0.5,0-0.8-0.4-1.2c-1.3-1.3-1.9,0-2.7,0.6c-0.8,0.6-1.5,1.1-2.3,1.7
		c-2.7,1.9-5.4,3.8-8.1,5.6c-0.1-0.1-0.1-0.1-0.2-0.2c2.6-4,5.2-8,7.8-12c0.3-0.5,0.7-0.9,0.2-1.5c-0.4-0.6-0.9-0.3-1.4-0.2
		c-5,1-9.9,1.9-15.4,3c0.8-0.6,1.3-0.9,1.8-1.2c3.8-2.4,7.6-4.8,11.4-7.2c0.5-0.3,1-0.6,0.8-1.3c-0.1-0.8-0.7-0.7-1.2-0.7
		c-5.6-0.8-11.3-1.5-16.9-2.3c-3.9-0.6-7.9-1.2-11.8-1.8c0-0.1,0-0.1,0-0.2c0.5-0.1,1-0.3,1.5-0.4c9.2-1.5,18.5-2.9,27.7-4.4
		c0.7-0.1,1.1-0.3,1.3-1.1c0.2-0.8-0.5-1-0.9-1.3c-3.9-2.5-8-4.8-11.8-7.5c0.1-0.1,0.1-0.1,0.2-0.2c5,1.1,10,2.1,15,3.2
		c1.7-1,1.7-1.1,0-3c-2.5-3.5-5-7-7.4-10.5c0.1-0.1,0.1-0.1,0.2-0.2c2.3,1.4,4.6,2.9,6.9,4.3c0.8,0.5,1.7,1.1,2.5,1.6
		c0.1,0.1,0.2,0.1,0.3,0.2c0.9,0.6,1.9,1.3,2.8,1.9c0.4,0.3,0.7,0.4,1.1,0.1c0.5-0.3,0.3-0.7,0.2-1.1c-0.2-0.9-0.3-1.8-0.5-2.8
		c-0.8-4.3-1.8-8.5-2.4-12.9c0.1,0.1,0.2,0.1,0.2,0.2c2.8,4.4,5.5,8.8,8.3,13.2c0.2,0.3,0.4,0.6,0.8,0.6c0.5-0.1,0.5-0.5,0.6-0.8
		c0.6-4.3,1.1-8.7,1.7-13C276.9,238.5,277,238.3,277,238.1z"/>
	<path class="st9" d="M244.4,414.6c-5.1,0-10.3,0-15.4,0c-1.2,0-1.5-0.4-1.5-1.5c0-9.9,0-19.8,0-29.7c0-1.3,0.5-1.6,1.6-1.6
		c10.3,0,20.5,0,30.8,0c1.1,0,1.6,0.3,1.5,1.5c0,9.9,0,19.8,0,29.7c0,1.3-0.5,1.6-1.7,1.6C254.7,414.6,249.5,414.6,244.4,414.6z"/>
	<path class="st9" d="M244.4,310.1c5.1,0,10.3,0,15.4,0c1.3,0,1.7,0.3,1.7,1.6c-0.1,9.8-0.1,19.6,0,29.4c0,1.4-0.5,1.8-1.8,1.8
		c-10.2,0-20.3,0-30.5,0c-1.3,0-1.7-0.3-1.7-1.7c0.1-9.8,0.1-19.6,0-29.4c0-1.4,0.4-1.8,1.8-1.8
		C234.3,310.2,239.3,310.1,244.4,310.1z"/>
	<path class="st9" d="M192.2,238.8c10.9,0,21.8,0,32.8,0c0,10.5,0,21.1,0,31.6c0,1.5-0.5,1.8-1.9,1.8c-9.6-0.1-19.3-0.1-28.9,0
		c-1.6,0-2.1-0.4-2-2C192.3,259.7,192.2,249.2,192.2,238.8z"/>
	<path class="st9" d="M334.5,238.8c10.9,0,21.9,0,32.8,0c0,9.7,0,19.4-0.1,29.1c0,4.3,0,4.3-4.3,4.3c-8.9,0-17.7,0-26.6,0
		c-1.4,0-1.9-0.3-1.9-1.8C334.6,259.8,334.5,249.3,334.5,238.8z"/>
	<path class="st9" d="M315.6,381.9c4.9,0,9.9,0,14.8,0c1.2,0,1.6,0.3,1.6,1.6c-0.1,9.9,0,19.8,0,29.7c0,1.2-0.4,1.5-1.5,1.5
		c-9.9,0-19.8,0-29.7,0c-1.1,0-1.6-0.3-1.5-1.5c0-10,0-19.9,0-29.9c0-1.1,0.4-1.4,1.4-1.4C305.7,381.9,310.7,381.9,315.6,381.9z"/>
	<path class="st9" d="M264,398.3c0-4.9,0-9.7,0-14.6c0-1.3,0.3-1.8,1.7-1.8c9.8,0.1,19.6,0.1,29.4,0c1.3,0,1.7,0.4,1.7,1.7
		c0,9.8,0,19.6,0,29.4c0,1.2-0.3,1.7-1.6,1.7c-9.8-0.1-19.7,0-29.5,0c-1.2,0-1.6-0.3-1.6-1.6C264,408.1,264,403.2,264,398.3z"/>
	<path class="st9" d="M332,326.6c0,4.9,0,9.7,0,14.6c0,1.3-0.3,1.7-1.6,1.7c-9.9-0.1-19.7,0-29.6,0c-1.2,0-1.6-0.4-1.6-1.6
		c0-9.9,0-19.7,0-29.6c0-1.4,0.5-1.7,1.7-1.6c9.8,0,19.6,0,29.4,0c1.3,0,1.7,0.4,1.7,1.7C332,316.7,332,321.6,332,326.6z"/>
	<path class="st9" d="M225,326.5c0,4.9,0,9.9,0,14.8c0,1.2-0.3,1.6-1.6,1.6c-9.8,0-19.7-0.1-29.5,0c-1.3,0-1.7-0.4-1.7-1.7
		c0-9.8,0-19.6,0-29.4c0-1.3,0.3-1.7,1.7-1.7c9.8,0,19.7,0,29.5,0c1.3,0,1.6,0.4,1.6,1.6C225,316.7,225,321.6,225,326.5z"/>
	<path class="st9" d="M367.3,326.5c0,4.9,0,9.8,0,14.8c0,1.2-0.4,1.6-1.6,1.6c-9.8,0-19.7,0-29.5,0c-1.2,0-1.6-0.3-1.6-1.6
		c0.1-9.9,0-19.8,0-29.7c0-1.2,0.3-1.5,1.5-1.5c9.9,0,19.8,0,29.7,0c1.3,0,1.6,0.5,1.6,1.7C367.3,316.7,367.3,321.6,367.3,326.5z"/>
	<path class="st9" d="M351,274.7c4.8,0,9.6,0,14.5,0c1.3,0,1.8,0.3,1.8,1.7c-0.1,9.8-0.1,19.6,0,29.4c0,1.3-0.4,1.7-1.7,1.7
		c-9.8,0-19.7,0-29.5,0c-1.1,0-1.6-0.3-1.6-1.5c0-10,0-19.9,0-29.9c0-1.1,0.3-1.5,1.4-1.4C341,274.7,346,274.7,351,274.7z"/>
	<path class="st9" d="M208.7,307.4c-4.9,0-9.7,0-14.6,0c-1.3,0-1.8-0.3-1.8-1.7c0.1-9.8,0.1-19.6,0-29.4c0-1.3,0.4-1.7,1.7-1.7
		c9.8,0,19.7,0,29.5,0c1.3,0,1.6,0.4,1.6,1.6c0,9.8,0,19.7,0,29.5c0,1.4-0.5,1.6-1.7,1.6C218.4,307.4,213.5,307.4,208.7,307.4z"/>
	<path class="st9" d="M276.2,310.1c0.8,4.7,1.6,9.3,2.3,14c0.1,0,0.1,0,0.2,0c0.7-4.7,1.4-9.3,2.1-14c4.7,0,9.4,0.1,14.1,0
		c1.5,0,1.8,0.5,1.8,1.9c-0.1,9.7,0,19.5,0,29.2c0,1.3-0.3,1.7-1.6,1.7c-9.8-0.1-19.7,0-29.5,0c-1.2,0-1.6-0.4-1.6-1.6
		c0-9.8,0-19.7,0-29.5c0-1.3,0.4-1.7,1.7-1.7C269.2,310.2,272.7,310.1,276.2,310.1z"/>
	<path class="st9" d="M299.2,257.6c1.9-3,3.8-6.1,5.8-9.1c0-0.1-0.1-0.1-0.1-0.2c-1.8,1.3-3.7,2.6-5.5,3.9c0-4.5-0.1-8.9-0.1-13.4
		c10.9,0,21.9,0,32.8,0c0,10.4,0,20.9,0,31.3c0,2.1,0,2.1-2.1,2.1c-4,0-8,0-11.9,0.1c-5.6-0.8-11.2-1.5-16.8-2.2
		c-0.6-0.1-1.1-0.2-1.2-0.9c-0.2-0.8,0.3-1,0.8-1.3c3.6-2.3,7.2-4.6,10.8-6.9c0.4-0.3,1-0.4,1.2-0.9c0.2,0,0.5,0,0.4-0.2
		c-0.1-0.2-0.4-0.1-0.5,0.1c-4.5,0.8-8.9,1.7-13.4,2.5C299.2,260.6,299.2,259.1,299.2,257.6z"/>
	<path class="st10" d="M240.3,274.5c5.6,0.8,11.3,1.5,16.9,2.3c0.5,0.1,1,0,1.2,0.7c0.1,0.8-0.3,1-0.8,1.3
		c-3.8,2.4-7.6,4.8-11.4,7.2c-0.5,0.3-0.9,0.6-1.8,1.2c5.4-1,10.4-2,15.4-3c0.5-0.1,1-0.4,1.4,0.2c0.4,0.6,0.1,1-0.2,1.5
		c-2.6,4-5.2,8-7.8,12c0,0.1-0.1,0.3-0.1,0.4c0.1,0.1,0.2,0,0.3-0.2c2.7-1.9,5.4-3.8,8.1-5.6c0,4.4,0,8.8,0,13.2
		c0,1.2-0.4,1.6-1.6,1.6c-10.3,0-20.5,0-30.8,0c-1.3,0-1.6-0.5-1.6-1.7c0-9.9,0-19.7,0-29.6c0-1.2,0.4-1.6,1.6-1.6
		C232.8,274.7,236.5,274.6,240.3,274.5z"/>
	<path class="st10" d="M254.1,247.4c2.5,3.5,5,7,7.4,10.5c0,1,0,2,0,3c-5-1.1-10-2.1-15-3.2c-0.2-0.2-0.4-0.2-0.6-0.1
		c0.2,0.1,0.3,0.2,0.5,0.2c3.8,2.7,7.9,5,11.8,7.5c0.4,0.3,1.1,0.4,0.9,1.3c-0.2,0.8-0.6,1-1.3,1.1c-9.2,1.5-18.5,2.9-27.7,4.4
		c-0.2,0-0.4-0.1-0.6,0c-1.6,0.2-1.9-0.5-1.9-2c0.1-10.5,0-21,0-31.4c11.3,0,22.6,0,33.9,0c0,2.8,0,5.5,0,8.3c0,1.5,0.3,3-0.2,4.5
		c-2.3-1.4-4.6-2.9-6.9-4.3c-0.1-0.1-0.2-0.1-0.3-0.2C254,247.2,254.1,247.3,254.1,247.4z"/>
	<path class="st10" d="M304.3,299.5c-1.7-2.5-3.4-5-5.1-7.4c0-1.9,0.1-3.8,0.1-5.7c4.3,0.9,8.7,1.8,13,2.7c0-0.1,0.1-0.1,0.1-0.2
		c-0.4-0.3-0.9-0.5-1.3-0.8c-3.5-2.2-7.1-4.4-10.6-6.7c-0.5-0.3-1.4-0.4-1.1-1.4c0.2-1,1-1,1.7-1.1c6.1-1,12.3-2,18.4-3
		c3-0.5,6-0.9,9-1.3c3.6,0.3,3.6,0.3,3.6,3.9c0,9,0,18,0,27.1c0,1.4-0.3,1.9-1.8,1.9c-9.8-0.1-19.5-0.1-29.3,0
		c-1.3,0-1.7-0.3-1.7-1.7c0.1-3,0-6.1,0-9.1c1.3,0.8,2.5,1.6,3.8,2.3C303.5,299.2,303.7,299.8,304.3,299.5c0,0,0,0.1,0,0.2
		c0.1,0,0.1,0,0.2,0C304.4,299.6,304.4,299.5,304.3,299.5z"/>
	<path class="st12" d="M356.5,345.5c3.1,0,6.3,0,9.4-0.1c1,0,1.4,0.3,1.4,1.3c0,10.4,0,20.8,0,31.3c0,1-0.3,1.4-1.3,1.4
		c-10,0-20,0-30,0c-0.6,0-1.4,0.1-1.4-0.8c0-3.1-0.3-6.2,0.2-9.2c0.2,0.4,0.2,1,1,1c1.5,0,3.1,0,4.7,0c-0.3-0.8-0.6-1.5-0.8-2.1
		c-1.7-4.6-3.5-9.2-5.2-13.9c0-2.5,0.1-5,0-7.5c0-1.1,0.3-1.5,1.4-1.4c3,0.2,6-0.3,9,0.2c-2.3,3.2-2.2,6,0.4,9
		c1.3,1.6,2.9,2.9,4.5,4.2c1.1,0.9,2.1,1.8,3.1,2.9c0.8,0.8,1.2,1.9,0.6,3c-0.7,1.2-1.8,1.6-3.1,1.4c-1-0.1-1.7-0.6-2.5-1.3
		c-0.7-0.6-0.9-2-1.8-1.9c-0.9,0.1-1.7,0.9-2.6,1.4c-0.2,0.1-0.4,0.3-0.7,0.4c-0.7,0.3-0.7,0.7-0.3,1.3c1.5,2.5,3.5,4.2,6.3,4.7
		c5.7,1.1,10.2-2.7,9.8-8.2c-0.2-2.5-1.7-4.3-3.5-5.9c-2-1.8-4-3.5-6-5.3c-0.7-0.6-1.3-1.5-0.6-2.5c0.6-0.9,1.6-1.1,2.7-0.8
		c0.8,0.2,1.6,0.6,2.1,1.3c1,1.6,1.7,1.1,2.8,0C358.3,347.4,358.3,347.5,356.5,345.5z"/>
	<path class="st10" d="M261.4,370.4c0,2.5,0,5,0,7.5c0,1.1-0.3,1.5-1.4,1.5c-10.4,0-20.8,0-31.2,0c-1.1,0-1.3-0.4-1.3-1.4
		c0-3.9,0-7.8,0-11.8c0-0.2,0-0.4,0-0.6c0-5.6,0-11.1,0-16.7c0.2-0.3,0.2-0.6,0-0.9c0.1-2.6,0.1-2.6,2.7-2.6c3.1,0,6.2,0,9.3,0
		c-3.1,8.2-6.3,16.5-9.4,24.7c5.1,0.6,5.1,0.6,6.8-3.9c0.1-0.2,0.2-0.5,0.3-0.7c0.2-0.8,0.7-0.9,1.4-0.9c1.6,0,3.1,0,4.7,0
		c1.6,0,3.4-0.5,4.6,0.2c1.2,0.7,1.2,2.7,1.9,4.2c0.1,0.2,0.2,0.4,0.2,0.6c0.2,0.5,0.5,0.7,1,0.7c1.5,0,2.9,0,4.5,0
		c-0.9-2.4-1.8-4.7-2.7-7c-2.3-6-4.5-11.9-6.8-17.9c3.9,0,7.7,0,11.6,0c0.5,0,1-0.1,1.5,0.3c0,8.1,0,16.3,0,24.4l-0.1,0.1l0.1,0
		C260,370.2,260.7,370.3,261.4,370.4z"/>
	<path class="st12" d="M332,364.7c0,4.3,0,8.7,0,13c0,1.2-0.2,1.7-1.5,1.7c-9.9-0.1-19.8,0-29.7,0c-1.1,0-1.6-0.3-1.5-1.5
		c0.1-2.3,0-4.6,0-6.9c7.9-0.5,13.1-5.5,13.3-12.7c0-1.1-0.1-1.6-1.5-1.6c-3.9,0.1-7.8,0-11.8,0c0-2.9,0-5.8,0-8.7
		c2-0.1,3.8,0.6,5.5,1.5c0.9,0.5,1.5,2,2.6,1.7c0.9-0.3,1.6-1.4,2.4-2.2c0.1-0.1,0.2-0.2,0.3-0.3c0.5-0.4,0.6-0.8,0-1.2
		c-0.8-0.7-1.6-1.4-2.3-2c5.5,0,11.1,0,16.6,0c-3.1,8.2-6.3,16.5-9.4,24.8c1.9,0,3.8,0.5,5.1-0.2c1-0.6,1.2-2.6,1.8-4
		c0.1-0.1,0.1-0.3,0.2-0.4c0.2-0.7,0.6-1,1.3-1C326.3,364.7,329.1,364.7,332,364.7z"/>
	<path class="st10" d="M225,368.3c0,3.2,0,6.4,0,9.6c0,1.1-0.4,1.4-1.5,1.4c-10,0-19.9,0-29.9,0c-1.1,0-1.4-0.4-1.4-1.5
		c0-10.4,0-20.7,0-31.1c0-0.8,0.1-1.4,1.2-1.4c4.7,0,9.3,0,14,0c0.3,0,0.5,0.1,0.7,0.2c-0.3,0.3-0.7,0.5-1,0.8
		c-4.5,3.6-5.7,8.4-4.6,13.8c1,5.3,4.4,8.8,9.7,10.2C216.7,371.6,221,370.9,225,368.3z"/>
	<path class="st12" d="M280.5,345.4c3,0,5.9,0,8.9,0c0.5,0,1.1-0.1,1.5,0.2c-5.3,4.3-7.2,10.1-5.1,16c1.8,5.2,5.7,8.1,10.9,9.2
		c0,2.4-0.1,4.7,0,7.1c0,1-0.2,1.5-1.4,1.5c-10,0-20,0-30,0c-1.2,0-1.4-0.5-1.4-1.5c0.1-2.5,0-5,0-7.5c0.5-0.4,0.3-1,0.3-1.5
		c0-3.7,0-7.4,0-11.2c0-1.4,0-2.8,0-4.6c0.6,0.8,0.8,1.2,1.1,1.6c2.8,4.2,5.7,8.4,8.3,12.8c1.3,2.2,2.7,3.1,5.2,2.8
		c1.3-0.1,1.6-0.5,1.6-1.7C280.4,360.9,280.4,353.2,280.5,345.4z"/>
	<path class="st4" d="M280.5,345.4c0,7.8-0.1,15.5,0,23.3c0,1.2-0.2,1.6-1.6,1.7c-2.5,0.3-3.9-0.6-5.2-2.8
		c-2.6-4.4-5.5-8.5-8.3-12.8c-0.3-0.4-0.6-0.8-1.1-1.6c0,1.8,0,3.2,0,4.6c0,3.7,0,7.4,0,11.2c0,0.5,0.2,1.1-0.3,1.5
		c-0.9,0-1.7,0-2.6,0c-0.7-0.1-1.5-0.1-2.2-0.2c0,0,0-0.1,0-0.1l-0.1,0c0-8.1,0-16.3,0-24.4c-0.3-1.6,0.5-1.9,2-1.9
		c1.6,0.1,3.2-0.2,4.1,1.6c3.3,5.1,6.6,10.2,9.8,15.3c0.1-0.1,0.2-0.1,0.3-0.1c0-5.1,0-10.1,0-15.2c-0.1-1.2,0.3-1.8,1.6-1.6
		c0.6,0.1,1.3,0.1,1.9,0C280.2,343.6,280.6,344.2,280.5,345.4z"/>
	<path class="st4" d="M296.8,370.8c-5.3-1.1-9.1-4-10.9-9.2c-2.1-5.9-0.2-11.7,5.1-16c5.6-3.5,11.2-3.1,16.8-0.2
		c0.8,0.7,1.5,1.4,2.3,2c0.6,0.5,0.5,0.8,0,1.2c-0.1,0.1-0.2,0.2-0.3,0.3c-0.8,0.8-1.5,1.9-2.4,2.2c-1,0.3-1.6-1.1-2.6-1.7
		c-1.7-1-3.5-1.6-5.5-1.5c-0.9-0.1-1.7,0.1-2.6,0.3c-4,1.2-6.5,4.4-6.6,8.5c0,4.2,2.5,7.7,6.3,8.8c0.9,0.4,1.8,0.6,2.8,0.5
		c3.6,0.2,6.3-1.5,7.4-4.6c-2.5,0-4.9,0-7.3,0c-0.1-1.6-0.1-3.2,0-4.7c3.9,0,7.8,0.1,11.8,0c1.3,0,1.5,0.5,1.5,1.6
		c-0.2,7.2-5.4,12.2-13.3,12.7C298.4,370.9,297.6,370.9,296.8,370.8z"/>
	<path class="st4" d="M332,364.7c-2.9,0-5.8,0-8.6-0.1c-0.8,0-1.2,0.3-1.3,1c0,0.2-0.1,0.3-0.2,0.4c-0.6,1.4-0.8,3.4-1.8,4
		c-1.3,0.7-3.2,0.2-5.1,0.2c3.2-8.3,6.3-16.5,9.4-24.8c0.3-1.3,1.2-1.9,2.5-1.6c0.4,0.1,0.7,0,1.1,0c2.3,0,3.1,0.7,3.6,2.9
		c0.6,2.6,1.7,5.1,2.8,7.6c1.7,4.6,3.5,9.2,5.2,13.9c0.2,0.6,0.5,1.3,0.8,2.1c-1.7,0-3.2,0-4.7,0c-0.7,0-0.7-0.6-1-1
		c-0.5-1.2-1-2.5-1.4-3.7C333.1,364.8,332.8,364.5,332,364.7z M327.7,350.9c-1.2,3.2-2.3,6-3.5,8.9c2.3,0,4.5,0,6.9,0
		C330,356.8,328.9,354,327.7,350.9z"/>
	<path class="st4" d="M246.1,345.4c2.3,6,4.5,11.9,6.8,17.9c0.9,2.3,1.7,4.6,2.7,7c-1.6,0-3.1,0-4.5,0c-0.6,0-0.9-0.2-1-0.7
		c-0.1-0.2-0.1-0.4-0.2-0.6c-0.6-1.4-0.7-3.5-1.9-4.2c-1.2-0.7-3.1-0.2-4.6-0.2c-1.6,0-3.1,0-4.7,0c-0.7,0-1.2,0.1-1.4,0.9
		c-0.1,0.3-0.2,0.5-0.3,0.7c-1.8,4.5-1.8,4.5-6.8,3.9c3.1-8.3,6.3-16.5,9.4-24.7c0.3-1.3,1.1-1.8,2.5-1.6c0.5,0.1,1,0.1,1.5,0
		C244.8,343.6,245.7,344.1,246.1,345.4z M239.3,359.9c2.2,0,4.1,0,6.1,0c0.6,0,0.9-0.1,0.6-0.8c-1.1-2.6-2.1-5.3-3.2-8.2
		C241.6,354,240.5,356.9,239.3,359.9z"/>
	<path class="st4" d="M225,368.3c-4,2.6-8.3,3.3-12.8,2.1c-5.3-1.4-8.7-4.9-9.7-10.2c-1.1-5.4,0.2-10.2,4.6-13.8
		c0.3-0.3,0.7-0.5,1-0.8c6.8-3.9,12.9-3.2,19.4,2.3c0.2,0.3,0.2,0.6,0,0.9c-0.8,0.8-1.7,1.6-2.5,2.4c-0.5,0.5-0.9,0.3-1.4-0.2
		c-1-1.1-2.2-1.9-3.6-2.4c-3.5-1.3-6.8-1-9.7,1.5c-2.9,2.6-3.6,5.9-2.7,9.6c1,3.7,3.5,5.7,7.2,6.3c3.3,0.5,6.2-0.6,8.6-2.9
		c0.4-0.3,0.7-1.1,1.4-0.4c0.9,0.9,1.8,1.9,2.7,2.8c0,0.2,0,0.4,0,0.6C226.6,366.9,225.8,367.6,225,368.3z"/>
	<path class="st4" d="M356.5,345.5c1.8,2,1.8,2-0.3,4c-1.1,1-1.8,1.5-2.8,0c-0.4-0.7-1.2-1.1-2.1-1.3c-1-0.3-2-0.1-2.7,0.8
		c-0.7,1-0.1,1.8,0.6,2.5c2,1.8,4,3.5,6,5.3c1.8,1.6,3.3,3.4,3.5,5.9c0.4,5.5-4.1,9.2-9.8,8.2c-2.9-0.5-4.9-2.2-6.3-4.7
		c-0.4-0.6-0.4-1,0.3-1.3c0.2-0.1,0.4-0.3,0.7-0.4c0.9-0.5,1.7-1.3,2.6-1.4c0.9-0.1,1.1,1.3,1.8,1.9c0.7,0.6,1.5,1.2,2.5,1.3
		c1.3,0.1,2.4-0.3,3.1-1.4c0.6-1.1,0.2-2.2-0.6-3c-1-1-2.1-1.9-3.1-2.9c-1.5-1.3-3.1-2.6-4.5-4.2c-2.5-3-2.6-5.8-0.4-9
		C348.5,342.4,351.9,342.4,356.5,345.5z"/>
	<path class="st12" d="M263.7,306.7c2.5-4.1,5.1-8.1,7.6-12.2c0.3-0.5,0.5-1.2,1.4-1c0.7,0.2,1,0.6,1.2,1.4c0.6,4.2,1.3,8.4,2,12.7
		c-3.4,0-6.9,0-10.3,0C264.7,307.6,264.1,307.5,263.7,306.7L263.7,306.7L263.7,306.7z"/>
	<path class="st14" d="M281.2,307.7c0.6-4.2,1.2-8.4,1.7-12.6c0.1-0.4,0.1-0.8,0.7-0.9c0.5-0.1,0.8,0.2,1,0.6
		c2.7,4.3,5.4,8.6,8.1,12.9C288.8,307.6,285,307.6,281.2,307.7z"/>
	<path class="st12" d="M275.3,345.4c0,5.1,0,10.1,0,15.2c-0.1,0-0.2,0.1-0.3,0.1c-3.3-5.1-6.6-10.2-9.8-15.3
		C268.6,345.4,271.9,345.4,275.3,345.4z"/>
	<path class="st0" d="M293.2,307.5c-1-4.9-2-9.9-3-14.8c-0.1-0.4-0.3-0.9,0.3-1.3c0.4-0.3,0.8-0.1,1.1,0.2c1.7,1.2,3.4,2.3,5.2,3.5
		c0,3.5-0.1,7.1,0,10.6c0,1.5-0.5,2-1.9,1.8C294.3,307.4,293.8,307.5,293.2,307.5z"/>
	<path class="st14" d="M263.8,291c0.8-0.6,1.4-1.9,2.7-0.6c0.4,0.4,0.5,0.7,0.4,1.2c-0.9,4.1-1.9,8.2-2.8,12.4c0-3.8,0-7.5-0.1-11.3
		C264,292.1,264.1,291.5,263.8,291z"/>
	<polygon class="st12" points="263.7,306.7 263.6,306.8 263.7,306.7 	"/>
	<path class="st9" d="M350.8,165.1c-4.9,0-9.7,0-14.6,0c-1.3,0-1.7-0.3-1.7-1.6c0.1-9.9,0-19.7,0-29.5c0-1.2,0.4-1.6,1.6-1.6
		c9.8,0,19.7,0,29.5,0c1.2,0,1.7,0.3,1.6,1.6c-0.1,9.9,0,19.8,0,29.7c0,1.2-0.4,1.5-1.5,1.5C360.8,165.1,355.8,165.1,350.8,165.1z"
		/>
	<path class="st9" d="M208.8,132.4c4.9,0,9.7,0,14.6,0c1.3,0,1.6,0.4,1.6,1.6c0,9.8,0,19.7,0,29.6c0,1.2-0.3,1.6-1.6,1.6
		c-9.8-0.1-19.7-0.1-29.6,0c-1.3,0-1.7-0.4-1.7-1.7c0-9.8,0-19.6,0-29.4c0-1.3,0.3-1.7,1.7-1.7C198.9,132.4,203.8,132.4,208.8,132.4
		z"/>
	<path class="st10" d="M197.9,200.4c-1.4,0-2.9-0.1-4.3,0c-0.9,0-1.3-0.3-1.6-1c4.3-4.2,4.4-8.7,0.3-12.3c0-0.8,0-1.6,0-2.4
		c1.5-2.4,1.4-4.8,0.1-7.2c0-0.1,0-0.2,0-0.4c0-2.6,0.1-5.2,0-7.9c0-1.1,0.2-1.6,1.5-1.6c10,0,19.9,0,29.9,0c1.2,0,1.5,0.4,1.5,1.6
		c0,10,0,19.9,0,29.9c0,1.2-0.3,1.9-1.6,1.6c-3-7.7-5.9-15.4-8.9-23.1c-1.3-3.3-1.3-3.2-4.7-3.3c-1.5-0.1-2,0.5-2.5,1.8
		C204.2,184.2,201,192.3,197.9,200.4z"/>
	<path class="st10" d="M361.4,200.4c-1.2-0.2-2.4,0.6-3.6,0.3c-2.9-7.6-5.9-15.3-8.8-22.9c-1.3-3.4-1.3-3.4-5.1-3.5
		c-1.2,0-1.7,0.4-2.1,1.5c-2.3,6.1-4.7,12.3-7.1,18.4c0-0.5-0.1-1-0.1-1.6c0-7.8,0-15.5,0-23.3c0-1.3,0.4-1.7,1.7-1.7
		c9.8,0.1,19.6,0.1,29.4,0c1.4,0,1.8,0.4,1.7,1.8c-0.1,1.9-0.1,3.9-0.1,5.8c-0.1,0-0.1,0-0.2,0c-0.4-0.4-0.6-1.1-1.4-1
		c-1.4,0.1-2.8,0.1-4.1,0.1l-0.1,0l0.1,0.1C361.4,183.1,361.4,191.7,361.4,200.4z"/>
	<path class="st10" d="M274.2,200.4c-3.1,0-6.1,0-9.2,0c-1,0-1.5-0.3-1.4-1.3c4.1-3.1,6.2-7.1,6-12.3c-0.2-4.4-2.3-7.8-5.6-10.6
		c0-0.1,0-0.2,0-0.4c0-2.3,0-4.5,0-6.8c0-1,0.2-1.4,1.3-1.4c10.1,0,20.1,0,30.2,0c0.9,0,1.3,0.3,1.3,1.3c0,10.1,0,20.2,0,30.4
		c0,0.8,0,1.6-1.2,1.3c0-7.5,0-15.1-0.1-22.6c0-3.7,0-3.7-3.7-3.8c-1.3,0-1.4,0.4-1.4,1.5c0.1,4.8,0,9.5,0,14.3
		c0,0.4,0.2,0.8-0.3,1.1c-3.4-5.3-6.8-10.5-10.3-15.8c-0.4-0.6-0.6-1.2-1.5-1.1c-1.4,0.1-2.7,0.1-4.1,0.1l-0.1,0l0.1,0.1
		C274.3,183.1,274.3,191.7,274.2,200.4z"/>
	<path class="st10" d="M227.5,173.9c0-1.7,0.1-3.3,0-5c0-0.9,0.3-1.3,1.2-1.3c10.5,0,21,0,31.5,0c0.9,0,1.2,0.3,1.2,1.2
		c0,1.9,0,3.9,0,5.8c-4-1.4-7.9-1.5-11.7,0.5c-4.9,2.6-7.5,6.8-7.6,12.3c0,5.9,2.9,10.1,8.1,12.8l-0.1,0.1c-3.5,0-7.1,0.1-10.6,0.1
		c0-1.1-0.1-2.3,0-3.4c0-0.7-0.2-1-1-1c-1.6,0.1-3.2-0.1-4.9,0c-1.2,0.1-1.6-0.3-1.5-1.5c0.1-6.3,0-12.7,0.1-19
		c0-0.9-0.2-1.3-1.2-1.2c-1.1,0.1-2.3,0-3.4,0C227.5,174.1,227.5,174,227.5,173.9z"/>
	<path class="st12" d="M299.5,199.5c-0.3-0.5-0.2-1.1-0.2-1.7c0-9.5,0-19,0-28.4c0-1.4,0.3-1.8,1.7-1.8c9.8,0.1,19.6,0.1,29.4,0
		c1.3,0,1.7,0.3,1.7,1.7c0,10.1,0,20.1,0,30.2c0,0.3-0.1,0.6-0.1,0.9c-0.5,0.1-1,0.2-1.5,0.3c-1.3-7.8-2.6-15.6-3.9-23.4
		c-0.5-3.1-0.6-3-4.2-3.1c-0.9,0-1.4,0.3-1.6,1.2c-1.6,4.8-3.2,9.6-4.8,14.4c-0.3,0.8-0.4,1.7-1.1,2.5c-1.6-4.9-3.3-9.8-4.9-14.6
		c-1.1-3.4-1.1-3.4-4.7-3.4c-1,0-1.4,0.2-1.6,1.3C302.3,183.5,300.9,191.5,299.5,199.5z"/>
	<path class="st4" d="M299.5,199.5c1.4-8,2.8-16,4.2-24c0.2-1.1,0.6-1.3,1.6-1.3c3.6,0,3.6,0,4.7,3.4c1.6,4.9,3.2,9.7,4.9,14.6
		c0.7-0.7,0.8-1.7,1.1-2.5c1.6-4.8,3.3-9.6,4.8-14.4c0.3-0.9,0.7-1.2,1.6-1.2c3.6,0,3.6,0,4.2,3.1c1.3,7.8,2.6,15.6,3.9,23.4
		c-1.7-0.1-3.4,0.4-5-0.3c-0.8-5.3-1.7-10.6-2.5-15.8c-0.1,0-0.2,0-0.3,0c-1.8,5.3-3.5,10.6-5.3,15.8c-1.6,0.6-3.2,0.5-4.8,0
		c-1.7-5.2-3.4-10.5-5.1-15.7c-0.1,0-0.2,0-0.4,0c-0.9,5.2-1.8,10.5-2.7,15.7c-1.5,0.7-3.1,0.2-4.6,0.3
		C299,200.7,299.8,199.9,299.5,199.5z"/>
	<path class="st4" d="M361.4,200.4c0-8.6,0-17.3,0-25.9l0.1,0l0-0.1c1.4,0,2.8,0,4.1-0.1c0.8-0.1,1,0.6,1.4,1
		c0.1,0.1,0.1,0.2,0.2,0.3l0,0c0.1,0.1,0.2,0.3,0.3,0.4c0.6,1.2,1.3,2.3,2.2,3.4c2.5,3.9,5,7.9,7.6,11.9c0.6-0.3,0.3-0.8,0.3-1.1
		c0-4.8,0.1-9.6,0-14.4c0-1.1,0.3-1.4,1.4-1.4c3.7,0,3.7,0,3.7,3.7c0,7.5,0,15,0,22.4c-1.7,0.6-3.5,0.5-5.2,0
		c-0.1-0.1-0.1-0.2-0.2-0.2c-2.3-3.6-4.6-7.2-6.9-10.7c-0.2-0.2-0.3-0.4-0.6-0.4c-0.4-1.5-1.4-2.5-2.2-3.7c-0.1-0.2-0.2-0.4-0.4-0.6
		c-0.1-0.3-0.2-0.7-0.7-0.7c0,5.6,0,11.1,0,16.7C364.8,200.6,363.1,201.1,361.4,200.4z"/>
	<path class="st4" d="M274.2,200.4c0-8.6,0-17.3,0-25.9l0.1,0l0-0.1c1.4,0,2.7,0,4.1-0.1c0.9-0.1,1.1,0.6,1.5,1.1
		c3.4,5.3,6.8,10.5,10.3,15.8c0.5-0.3,0.3-0.8,0.3-1.1c0-4.8,0-9.5,0-14.3c0-1.1,0.1-1.5,1.4-1.5c3.7,0.1,3.7,0,3.7,3.8
		c0,7.5,0,15.1,0.1,22.6c-1.7,0.1-3.5,0.4-5.2-0.2c-0.1-0.1-0.1-0.2-0.2-0.2c-3.5-5.4-7-10.8-10.8-16.6c0,5.9,0,11.4,0,16.9
		C277.7,200.9,276,200.9,274.2,200.4z"/>
	<path class="st4" d="M250.2,200.2c-5.2-2.7-8.1-6.9-8.1-12.8c0-5.5,2.6-9.7,7.6-12.3c3.8-2,7.7-1.9,11.7-0.5
		c0.7,0.4,1.5,0.8,2.2,1.2c0.1,0.1,0.3,0.2,0.4,0.3c3.3,2.8,5.4,6.2,5.6,10.6c0.2,5.2-1.9,9.2-6,12.3c-3.9,2.5-8.1,2.7-12.5,1.6
		c-0.1-0.1-0.2-0.1-0.4-0.2c-0.1,0-0.2-0.1-0.3-0.1C250.4,200.3,250.3,200.3,250.2,200.2z M264.1,184.6c-0.4-1.6-1.3-2.9-2.6-4
		c-1.4-1.5-3.2-2.1-5.2-2.2c-3.5-0.1-6.2,1.4-7.9,4.4c-1.7,3.3-1.7,6.7,0.3,9.9c2.8,4.5,9,5.2,12.8,1.7c1.3-1,2.2-2.3,2.5-3.9
		C264.8,188.5,264.8,186.5,264.1,184.6z"/>
	<path class="st4" d="M192.3,177.4c1.3,2.4,1.4,4.8,0,7.2c-0.5,0.5-0.9,1-1.4,1.6c0.5,0.3,1,0.6,1.5,0.9c4.1,3.6,4,8.1-0.3,12.3
		c-2,1.1-4.2,1.5-6.5,1.3c-2.3-0.1-4.7,0.4-7-0.3c0-2.8,0.1-5.7,0.1-8.5c0-5.8,0-11.6-0.1-17.4l0.1,0l0-0.1c3.5-0.1,7-0.4,10.5,0.6
		c0.1,0.1,0.3,0.1,0.4,0.2c0.9,0.5,1.7,1.2,2.5,1.9C192.1,177.2,192.2,177.3,192.3,177.4z M183.7,192.5c0,4,0,4,3.6,3.2
		c0.1,0,0.1,0,0.2,0c2.1-0.4,3-1.8,2.5-3.9c-0.4-1.9-2.7-3.2-5.5-2.8c-1.8,0.3-0.4,1.9-0.8,2.8C183.6,192.1,183.7,192.3,183.7,192.5
		z M183.7,181.9c0,0.7,0,1.4,0,2c0,0.4,0,0.7,0.6,0.7c1.1,0,2.1,0,3-0.7c1.2-0.9,1.3-2.1,0.8-3.4c-0.4-1.1-2.3-2-3.8-1.6
		c-1.3,0.4-0.3,1.6-0.6,2.4C183.7,181.5,183.7,181.7,183.7,181.9z"/>
	<path class="st4" d="M197.9,200.4c3.1-8.1,6.3-16.2,9.4-24.4c0.5-1.3,1-1.9,2.5-1.8c3.5,0.1,3.5,0,4.7,3.3c3,7.7,5.9,15.4,8.9,23.1
		c-1.8,0-3.7,0.4-5.5-0.2c-0.5-1.5-1.1-2.9-1.6-4.4c-0.3-0.9-0.7-1-1.5-1c-1.4,0-2.8,0-4.2,0c-1.7,0-4-0.6-5,0.3
		c-1.3,1-1.5,3.3-2.2,5C201.5,200.9,199.7,200.9,197.9,200.4z M214.1,190.2c-1.2-3-2.2-5.8-3.4-8.9c-1.2,3.1-2.3,6-3.5,8.9
		C209.5,190.2,211.7,190.2,214.1,190.2z"/>
	<path class="st4" d="M334.7,194.1c2.4-6.1,4.8-12.3,7.1-18.4c0.4-1.1,0.9-1.5,2.1-1.5c3.8,0.1,3.8,0,5.1,3.5
		c2.9,7.6,5.9,15.3,8.8,22.9c-1.5,0-3,0-4.5,0.1c-0.5,0-0.9-0.1-1.1-0.6c-0.2-0.5-0.4-1.1-0.6-1.6c-1.3-3.5-1.3-3.5-5.1-3.5
		c-0.5,0-1,0-1.6,0c-1.7,0-4-0.6-5,0.3c-1.3,1-1.5,3.3-2.2,5c-1.8,0.5-3.6,0.6-5.5,0c0-0.1,0-0.2,0.1-0.3
		C333.1,198.1,333.9,196.1,334.7,194.1z M345,181.3c-1.1,2.9-2.2,5.5-3.2,8.2c-0.2,0.4-0.3,0.8,0.4,0.8c2,0,4,0,6.2,0
		C347.3,187.3,346.2,184.4,345,181.3z"/>
	<path class="st4" d="M227.5,174.2c1.2,0,2.3,0.1,3.4,0c1-0.1,1.2,0.3,1.2,1.2c0,6.3,0,12.7-0.1,19c0,1.2,0.3,1.6,1.5,1.5
		c1.6-0.1,3.2,0,4.9,0c0.8,0,1,0.2,1,1c0,1.1,0,2.3,0,3.4c-0.1,0.3-0.4,0.3-0.7,0.3c-3.6,0-7.2,0-10.9,0c-0.6,0-1-0.1-1-0.9
		c0-8.5,0.1-17,0.1-25.5c0,0,0-0.1,0.1-0.1C227.3,174.2,227.4,174.2,227.5,174.2z"/>
	<path class="st12" d="M279.5,200.4c0-5.5,0-10.9,0-16.9c3.7,5.8,7.3,11.2,10.8,16.6c-0.1,0.1-0.1,0.1-0.1,0.2
		C286.6,200.3,283,200.4,279.5,200.4z"/>
	<path class="st14" d="M317.3,200.3c1.8-5.3,3.5-10.6,5.3-15.8c0.1,0,0.2,0,0.3,0c0.8,5.3,1.7,10.6,2.5,15.8
		C322.7,200.4,320,200.4,317.3,200.3z"/>
	<path class="st12" d="M203.3,200.4c0.7-1.7,0.9-4,2.2-5c1.1-0.9,3.3-0.3,5-0.3c1.4,0,2.8,0,4.2,0c0.8,0,1.2,0.1,1.5,1
		c0.5,1.5,1.1,2.9,1.6,4.4C213.1,200.4,208.2,200.4,203.3,200.4z"/>
	<path class="st12" d="M337.7,200.4c0.7-1.7,0.9-4,2.2-5c1.1-0.9,3.3-0.2,5-0.3c0.5,0,1,0,1.6,0c3.8,0,3.8,0,5.1,3.5
		c0.2,0.5,0.4,1.1,0.6,1.6c-0.4,0.3-0.9,0.3-1.3,0.3C346.5,200.4,342.1,200.4,337.7,200.4z"/>
	<path class="st14" d="M304.4,200.4c0.9-5.2,1.8-10.5,2.7-15.7c0.1,0,0.2,0,0.4,0c1.7,5.2,3.4,10.5,5.1,15.7
		C309.8,200.4,307.1,200.4,304.4,200.4z"/>
	<path class="st14" d="M369.9,189c0.3,0,0.4,0.2,0.6,0.4c2.3,3.6,4.6,7.2,6.9,10.7c-0.1,0.1-0.1,0.1-0.1,0.2c-2,0-4.1,0-6.1,0.1
		c-1,0-1.4-0.3-1.4-1.4C369.9,195.7,369.8,192.3,369.9,189z"/>
	<path class="st10" d="M366.6,200.6c0-5.5,0-11.1,0-16.7c0.5,0,0.6,0.4,0.7,0.7c0,0.2,0,0.4,0.1,0.6c0,4.5,0,9.1,0,13.6
		C367.3,199.6,367.5,200.4,366.6,200.6z"/>
	<path class="st11" d="M332.3,200.1c0,0.1-0.1,0.2-0.1,0.3c-0.1,0-0.2,0-0.3,0c0-0.3,0.1-0.6,0.1-0.9
		C332.1,199.6,332.2,199.9,332.3,200.1z"/>
	<path class="st13" d="M367.3,185.3c0-0.2,0-0.4-0.1-0.6c0.1,0.2,0.2,0.4,0.4,0.6C367.5,185.3,367.4,185.3,367.3,185.3z"/>
	<path class="st13" d="M192.3,177.4c-0.1-0.1-0.2-0.2-0.3-0.3c0.1,0,0.2,0,0.2,0C192.2,177.2,192.2,177.3,192.3,177.4z"/>
	<path class="st13" d="M264,176.2c-0.1-0.1-0.3-0.2-0.4-0.3c0.1,0,0.2,0,0.4-0.1C264,175.9,264,176,264,176.2z"/>
	<path class="st11" d="M377.3,200.3c0-0.1,0-0.1,0.1-0.2c0.1,0.1,0.1,0.2,0.2,0.2C377.5,200.4,377.4,200.4,377.3,200.3z"/>
	<path class="st11" d="M290.1,200.3c0-0.1,0-0.1,0.1-0.2c0.1,0.1,0.1,0.2,0.2,0.2C290.3,200.4,290.2,200.3,290.1,200.3z"/>
	<path class="st13" d="M367.5,175.9c-0.1-0.1-0.2-0.3-0.3-0.4C367.3,175.6,367.4,175.8,367.5,175.9z"/>
	<path class="st11" d="M227.5,174.2c-0.1,0-0.2,0-0.3,0c0.1-0.1,0.2-0.2,0.3-0.3C227.5,174,227.5,174.1,227.5,174.2z"/>
	<path class="st11" d="M250.2,200.2c0.1,0.1,0.2,0.1,0.3,0.2c-0.1,0-0.2,0-0.4-0.1L250.2,200.2z"/>
	<path class="st13" d="M189.5,175.2c-0.1-0.1-0.3-0.1-0.4-0.2c0.1,0,0.3,0,0.4,0C189.5,175,189.5,175.1,189.5,175.2z"/>
	<path class="st11" d="M250.8,200.5c0.1,0.1,0.2,0.1,0.4,0.2C251.1,200.6,251,200.5,250.8,200.5z"/>
	<path class="st13" d="M367.2,175.5c-0.1-0.1-0.1-0.2-0.2-0.3c0.1,0,0.1,0,0.2,0C367.2,175.3,367.2,175.4,367.2,175.5z"/>
	<polygon class="st2" points="178.6,174.3 178.6,174.4 178.6,174.5 178.5,174.3 	"/>
	<path class="st9" d="M261.5,202.3c0,10.8,0,21.7,0,32.5c0,2,0,2-2,2c-10,0-20,0-30,0c-1.5,0-1.9-0.5-1.9-1.9c0-10.9,0-21.8,0-32.7
		C238.8,202.3,250.2,202.3,261.5,202.3z"/>
	<path class="st9" d="M225,202.3c0,10.8,0,21.6,0,32.4c0,2.5,0.2,2.2-2.3,2.2c-9.5,0-19,0-28.4,0c-1.5,0-2.1-0.3-2-2
		c0.1-10.3,0-20.5,0-30.8c0-0.6,0-1.3-0.1-1.9C203.1,202.2,214.1,202.3,225,202.3z"/>
	<path class="st9" d="M299.3,219.6c0-5.2,0-10.5,0-15.7c0-1.2,0.3-1.6,1.6-1.6c9.9,0,19.7,0,29.6,0c1.2,0,1.6,0.4,1.6,1.6
		c0,10.5,0,21,0,31.5c0,1.2-0.3,1.6-1.6,1.6c-9.9-0.1-19.7,0-29.6,0c-1.2,0-1.6-0.3-1.6-1.6C299.3,230.1,299.3,224.8,299.3,219.6z"
		/>
	<path class="st9" d="M367.3,219.6c0,5.2,0,10.5,0,15.7c0,1.3-0.4,1.6-1.6,1.6c-9.9,0-19.7,0-29.6,0c-1.3,0-1.6-0.4-1.6-1.6
		c0-10.5,0-21,0-31.5c0-1.2,0.4-1.6,1.6-1.6c9.9,0,19.7,0,29.6,0c1.3,0,1.6,0.4,1.6,1.6C367.2,209.1,367.3,214.3,367.3,219.6z"/>
	<path class="st9" d="M281.9,236.9c-0.8-4.7-1.6-9.4-2.4-14.1c-0.1,0-0.1,0-0.2,0c-0.7,4.7-1.4,9.4-2.1,14.1c-3.9,0-7.8-0.1-11.6,0
		c-1.3,0-1.6-0.4-1.6-1.6c0-10.3,0-20.7,0-31c0-0.7,0-1.4-0.1-2c10.4,0,20.8,0,31.2,0c1.3,0,1.6,0.4,1.6,1.6c0,10.5,0,20.9,0,31.4
		c0,1.4-0.5,1.6-1.7,1.6C290.7,236.8,286.3,236.9,281.9,236.9z"/>
	<path class="st0" d="M296.8,253.9c-1.1,0.8-2.1,1.6-3.2,2.5c-0.5,0.3-0.9,0.7-1.5,0.2c-0.5-0.5-1.1-0.8-0.9-1.8
		c0.9-3.9,1.7-7.7,2.6-11.6c0.2-0.9,0.4-1.7,0.3-2.7c-0.6,1-1.3,2-1.9,3c-1.9,3-3.7,5.9-5.6,8.9c-0.2,0.4-0.4,1-1.2,0.8
		c-0.6-0.2-1.2-0.3-1.3-1.3c-0.6-4.4-1.4-8.8-2.1-13.1c4.9,0,9.8,0.1,14.7,0.1C296.8,243.8,296.8,248.9,296.8,253.9z"/>
	<path class="st2" d="M296.8,253.9c0-5.1,0-10.1,0-15.2c0.8,0,1.6,0,2.5,0c0,4.5,0.1,8.9,0.1,13.4
		C298.5,252.7,297.6,253.3,296.8,253.9z"/>
	<path class="st0" d="M265.3,238.6c0.5,4.3,1.6,8.6,2.4,12.9c0.2,0.9,0.3,1.8,0.5,2.8c0.1,0.4,0.2,0.8-0.2,1.1
		c-0.4,0.3-0.8,0.2-1.1-0.1c-0.9-0.7-1.9-1.3-2.8-1.9c0-0.1,0-0.3,0-0.4c0-4.7,0-9.4,0-14.1c0.4,0,0.9,0,1-0.5c0.1,0,0.1,0,0.2,0
		C265.2,238.4,265.2,238.5,265.3,238.6z"/>
	<path class="st13" d="M265.3,238.6c0-0.1,0-0.3,0-0.4c3.9,0,7.8-0.1,11.8-0.1c0,0.2-0.1,0.4-0.1,0.6c-3.8,0-7.6,0-11.4,0
		C265.4,238.7,265.3,238.7,265.3,238.6z"/>
	<path class="st2" d="M264,238.8c0,4.7,0,9.4,0,14.1c-0.1,0.1-0.2,0.2-0.3,0.2c-0.8-0.5-1.7-1.1-2.5-1.6c0.5-1.5,0.2-3,0.2-4.5
		c0-2.8,0-5.5,0-8.3C262.3,238.8,263.1,238.8,264,238.8z"/>
	<path class="st0" d="M265.5,238.8c3.8,0,7.6,0,11.4,0c-0.6,4.3-1.1,8.7-1.7,13c0,0.3-0.1,0.7-0.6,0.8c-0.5,0.1-0.6-0.3-0.8-0.6
		C271.1,247.6,268.3,243.2,265.5,238.8z"/>
	<path class="st2" d="M299.3,286.3c0,1.9-0.1,3.8-0.1,5.7c-0.8-1.1-1.6-2.2-2.4-3.4c0-1,0-2,0.1-2.9
		C297.6,285.9,298.5,286.1,299.3,286.3z"/>
	<path class="st2" d="M299.2,257.6c0,1.5,0,3,0,4.5c-0.4,0.1-0.8,0.2-1.2,0.3c-0.9,0-1.5-0.9-1-1.6
		C297.7,259.7,298.5,258.7,299.2,257.6z"/>
	<path class="st2" d="M261.5,261c0-1,0-2,0-3C263.1,259.9,263.1,260,261.5,261z"/>
	<path class="st7" d="M296.8,285.8c0,1,0,2-0.1,2.9C295.2,286.9,295.2,286.9,296.8,285.8z"/>
	<path class="st13" d="M263.7,253.1c0.1-0.1,0.2-0.2,0.3-0.2c0,0.1,0,0.3,0,0.4C263.9,253.2,263.8,253.2,263.7,253.1z"/>
	<path class="st3" d="M312.7,259.7c0.2-0.2,0.5-0.2,0.5-0.1c0.1,0.3-0.2,0.2-0.4,0.2C312.8,259.8,312.7,259.8,312.7,259.7z"/>
	<path class="st3" d="M253.4,298.3c0,0.1-0.1,0.3-0.3,0.2c0,0,0-0.2,0.1-0.4C253.2,298.1,253.3,298.2,253.4,298.3z"/>
	<path class="st3" d="M246.4,258c-0.2-0.1-0.3-0.2-0.5-0.2c0.2-0.2,0.4-0.1,0.6,0.1C246.5,257.9,246.4,258,246.4,258z"/>
	<path class="st3" d="M254.1,247.4c0-0.1,0-0.2-0.1-0.4c0.1,0.1,0.2,0.1,0.3,0.2C254.2,247.3,254.2,247.4,254.1,247.4z"/>
	<path class="st3" d="M304.3,299.5c0.1,0.1,0.1,0.1,0.2,0.2c-0.1,0-0.1,0-0.2,0C304.3,299.6,304.3,299.5,304.3,299.5L304.3,299.5z"
		/>
	<path class="st2" d="M224.9,351.3c0.8-0.8,1.7-1.6,2.5-2.4c0,5.6,0,11.1,0,16.7c-0.9-0.9-1.8-1.9-2.7-2.8c0.1-0.3,0.2-0.7,0.2-1
		C225,358.2,225,354.8,224.9,351.3z"/>
	<polygon class="st2" points="259.2,370.1 259.2,370.1 259.2,370.2 259.1,370.2 	"/>
	<path class="st2" d="M299.3,356.7c-0.1,1.6-0.1,3.2,0,4.7c0,1.5,0,3.1,0,4.6c-1,0.1-1.9-0.1-2.8-0.5c0.3-0.4,0.3-0.9,0.3-1.3
		c0-5.3,0-10.6,0-15.9c0.8-0.2,1.7-0.5,2.6-0.3C299.3,350.9,299.3,353.8,299.3,356.7z"/>
	<path class="st12" d="M296.7,348.3c0,5.3,0,10.6,0,15.9c0,0.5,0.1,0.9-0.3,1.3c-3.9-1.2-6.4-4.7-6.3-8.8
		C290.2,352.8,292.7,349.5,296.7,348.3z"/>
	<path class="st14" d="M299.3,366.1c0-1.5,0-3.1,0-4.6c2.4,0,4.9,0,7.3,0C305.6,364.6,302.9,366.3,299.3,366.1z"/>
	<path class="st14" d="M327.7,350.9c1.2,3.1,2.3,6,3.4,8.9c-2.3,0-4.5,0-6.9,0C325.4,356.9,326.5,354.1,327.7,350.9z"/>
	<path class="st14" d="M239.3,359.9c1.2-3,2.3-5.9,3.5-9c1.1,2.9,2.1,5.6,3.2,8.2c0.3,0.7,0,0.8-0.6,0.8
		C243.4,359.9,241.5,359.9,239.3,359.9z"/>
	<path class="st12" d="M224.9,351.3c0,3.5,0,7,0,10.4c0,0.3-0.1,0.7-0.2,1c-0.7-0.7-1,0.1-1.4,0.4c-2.4,2.3-5.3,3.4-8.6,2.9
		c-3.7-0.6-6.2-2.6-7.2-6.3c-1-3.7-0.3-7,2.7-9.6c2.9-2.5,6.2-2.8,9.7-1.5c1.4,0.5,2.6,1.4,3.6,2.4
		C224,351.6,224.4,351.8,224.9,351.3z"/>
	<path class="st2" d="M192.2,187c-0.5-0.3-1-0.6-1.5-0.9c0.5-0.5,1-1,1.4-1.6C192.2,185.4,192.2,186.2,192.2,187z"/>
	<polygon class="st2" points="361.5,174.3 361.5,174.4 361.4,174.5 361.4,174.4 	"/>
	<polygon class="st2" points="274.3,174.3 274.3,174.4 274.3,174.5 274.2,174.4 	"/>
	<path class="st12" d="M261.5,194.4c-3.8,3.5-9.9,2.8-12.8-1.7c-2-3.2-2-6.6-0.3-9.9c1.6-3.1,4.4-4.6,7.9-4.4c2,0.1,3.8,0.7,5.2,2.2
		C261.5,185.2,261.5,189.8,261.5,194.4z"/>
	<path class="st2" d="M261.5,194.4c0-4.6,0-9.2,0-13.8c1.3,1,2.2,2.3,2.6,4c0,2,0,4,0,6C263.6,192.1,262.8,193.4,261.5,194.4z"/>
	<path class="st8" d="M264,190.5c0-2,0-4,0-6C264.8,186.5,264.8,188.5,264,190.5z"/>
	<path class="st14" d="M183.7,192.5c0-0.2-0.1-0.5,0-0.6c0.4-0.9-1-2.5,0.8-2.8c2.8-0.4,5.1,0.8,5.5,2.8c0.5,2.1-0.4,3.4-2.5,3.9
		c-0.1,0-0.1,0-0.2,0C183.7,196.5,183.7,196.5,183.7,192.5z"/>
	<path class="st14" d="M183.7,181.9c0-0.2,0-0.3,0-0.5c0.3-0.8-0.7-2,0.6-2.4c1.5-0.4,3.4,0.4,3.8,1.6c0.4,1.3,0.3,2.5-0.8,3.4
		c-0.9,0.7-2,0.7-3,0.7c-0.5,0-0.6-0.3-0.6-0.7C183.7,183.2,183.7,182.5,183.7,181.9z"/>
	<path class="st14" d="M214.1,190.2c-2.4,0-4.6,0-6.9,0c1.1-3,2.3-5.8,3.5-8.9C211.9,184.4,213,187.2,214.1,190.2z"/>
	<path class="st14" d="M345,181.3c1.2,3.1,2.3,5.9,3.4,9c-2.2,0-4.2,0-6.2,0c-0.7,0-0.6-0.4-0.4-0.8
		C342.9,186.8,343.9,184.2,345,181.3z"/>
</g>
</svg>
