<?xml version="1.0" encoding="utf-8"?>
<!-- Generator: Adobe Illustrator 24.2.0, SVG Export Plug-In . SVG Version: 6.00 Build 0)  -->
<svg version="1.1" xmlns="http://www.w3.org/2000/svg" xmlns:xlink="http://www.w3.org/1999/xlink" x="0px" y="0px"
	 viewBox="0 0 560 555" style="enable-background:new 0 0 560 555;" xml:space="preserve">
<style type="text/css">
	.st0{fill-rule:evenodd;clip-rule:evenodd;fill:#FFFFFF;}
	.st1{fill-rule:evenodd;clip-rule:evenodd;fill:#87192F;}
	.st2{fill-rule:evenodd;clip-rule:evenodd;fill:#FCFCFC;}
	.st3{fill-rule:evenodd;clip-rule:evenodd;fill:#19326E;}
</style>
<g id="Capa_2">
	<rect x="105.1" y="407.3" class="st0" width="42.7" height="35.4"/>
	<rect x="152.2" y="447.9" class="st0" width="54.4" height="38.7"/>
	<rect x="130.1" y="425" class="st0" width="35.2" height="35.2"/>
	<rect x="215" y="460.2" class="st0" width="40.8" height="40.8"/>
	<rect x="319.4" y="461.5" class="st0" width="47.6" height="39.4"/>
	<rect x="390.9" y="430.5" class="st0" width="32.7" height="24.6"/>
	<rect x="419" y="404.1" class="st0" width="47.6" height="35.1"/>
	<rect x="460" y="331.5" class="st0" width="48.3" height="40.2"/>
	<rect x="442.4" y="151.6" class="st0" width="44.6" height="27.2"/>
	<rect x="397.8" y="89.9" class="st0" width="29" height="36.1"/>
	<rect x="291" y="46.1" class="st0" width="24.9" height="43.8"/>
	<rect x="238.4" y="46.1" class="st0" width="26.5" height="43.8"/>
	<rect x="200.1" y="54.9" class="st0" width="38.3" height="38.3"/>
	<rect x="145.9" y="82.1" class="st0" width="47.1" height="37.7"/>
</g>
<g id="Capa_1">
	<g>
		<path class="st1" d="M537.4,251.8c0,17.2,0,34.4,0,51.6c-3,2.6-2.6,6.4-3,9.7C529.6,352.2,516,388,494,420.5
			c-20.6,30.4-46.3,55.8-77.6,75.3c-28.3,17.7-58.7,29.7-91.6,35.5c-7.6,1.3-15.4,1.1-22.7,4c-14.7,0-29.4,0-44,0
			c-4.9-2.9-10.5-2.2-15.8-3c-54.3-8.6-101-32.5-140.4-70.5c-20.7-20-37.6-43.2-50.6-69c-14.2-28.2-22.6-58-25.4-89.4
			c-0.3-2.9,0.5-6.2-1.9-8.7c0-10.7,0-21.5,0-32.2c1.7,0,1.2-1.4,1.3-2.3c0.9-11.3,2.3-22.7,4.6-33.8C40.3,176.9,63.6,134,99.3,98.1
			c21.1-21.3,45.5-38.1,72.7-51c26.7-12.6,54.6-20.4,84-23.3c2.9-0.3,6.2,0.5,8.7-1.9c10.7,0,21.5,0,32.2,0c0.5,1.8,2,1.2,3.1,1.3
			c16.5,1.6,32.8,4.2,48.7,8.8c54.1,15.5,98.7,45.1,133.7,89.2c17.9,22.6,31.3,47.6,40.9,74.7c6,17.2,9.6,35,12,53
			C535.3,250.4,534.7,252.3,537.4,251.8z M35.2,278.2c-1.5,63,26.5,137,86,187.5c57.5,48.9,124.5,67.1,198.5,56.3
			c52.1-7.6,97.4-31.6,134.5-69.4c46-46.9,70.7-103.4,71.9-169.5C528.7,143.5,414.6,31.7,278.3,33C145.4,34.2,35.1,143.2,35.2,278.2
			z"/>
		<path class="st2" d="M35.2,278.2c-0.1-135,110.2-244,243.1-245.3c136.3-1.3,250.4,110.5,247.8,250.3
			c-1.2,66.1-25.9,122.5-71.9,169.5c-37.1,37.8-82.4,61.7-134.5,69.4c-73.9,10.8-140.9-7.4-198.5-56.3
			C61.8,415.3,33.8,341.3,35.2,278.2z M284.1,454.9c97.2-0.2,178.7-79.7,178.3-180.1C462,178.9,383.9,94.7,278.9,96.6
			c-92.4,1.7-176.7,79.4-174,184.6C107.3,374.9,185,455.1,284.1,454.9z M393,465.9c0.4,7.2-4,11.4-11.6,11.5
			c-6.5,0-12.3-5.9-12.1-12.3c0.2-6.6,6.9-13.5,13-12c4.9,1.2,7.4-1.7,11.9-3.3c-4.7-3.4-8.9-5.4-13.9-4.8
			c-9.5,1.1-16.4,7.5-18.6,17.3c-1.7,7.4,2.1,15.9,10.5,20.8c6.3,3.7,16.8,3.1,22-1.7c8.1-7.5,8.8-14.4,6.4-23.2
			c-0.7-2.8-2.4-2.9-4.8-1.5c-5,2.8-10,5.4-15.2,7.8c-2.5,1.2-3.4,2.1-2,5c1.4,3,2.8,2.4,4.9,1.2C386.5,469,389.8,467.5,393,465.9z
			 M341.7,501.6c10.6,2.1,20.9-10.6,20.8-18.9c-0.2-12.9-9.5-21.2-20.3-21.2c-11.1,0-20.1,8-20,19.9
			C322.2,491.5,330,502.9,341.7,501.6z M481.3,371.8c10.2-0.1,18.2-9.3,18.1-20.7c-0.1-10.4-9.5-20.3-20-19.6
			c-11.9,0.8-20.2,7.6-20.2,21.1C459.2,364,468.3,372.5,481.3,371.8z M455,392.1c2.3-1.7,4.1-1.1,5.8-1.1c6.8-0.1,13.6-0.2,20.4,0
			c4,0.1,4.6-3.1,5.6-5.4c1.1-2.6-1.9-3-3.4-3.9c-8.7-5.1-17.5-9.9-26-15.2c-2.8-1.7-3.8-1.7-5.6,1.1c-2.2,3.3-0.4,4.2,2,5.5
			c5.6,3.3,11.1,6.6,16.6,10c-8.9,0-17.3,2.2-25.8,1.9c-3.1-0.1-4.3,2-5.5,4.2c-0.6,1.2-0.4,1.7,0.8,2.5
			c9.6,5.9,18.9,12.3,28.9,17.5c3.3,1.7,4-0.5,5.3-2.3c2.1-2.7-0.4-3.3-1.9-4.2C466.6,399.2,461,395.8,455,392.1z M439.9,439.8
			c10.2,0,19.5-9.2,19.6-19.3c0.1-11.3-9.2-20.7-20.3-21.1c-9.3-0.3-21,10.1-20.2,20.7C419.9,431.1,428.4,439.9,439.9,439.8z
			 M251.7,484.3c0.7-7.6-7.1-15.9-13.1-17.3c-4-1-8.1-1.5-12-2.5c-3.1-0.8-4,0.3-4.5,3.1c-1.4,7.5-3.3,14.9-4.8,22.5
			c-0.8,3.9-3.8,8.9-1.4,11.6c2.3,2.5,7.7,1.8,11.6,2.9C241.8,508.4,251.2,498,251.7,484.3z M200.7,465.5c0.3-6.5-2.3-11.2-7.3-14.3
			c-3.9-2.5-8.1-4.5-12.1-6.8c-2.4-1.4-3.6-0.9-4.8,1.6c-3.2,6.4-6.6,12.6-10.1,18.9c-7.1,12.8-7.1,12.8,6.1,19.2
			c4.6,2.2,9.2,3.8,14.3,1.8C195.6,482.4,200.6,475.1,200.7,465.5z M494.1,254.5c-1.4,4.8-2.5,8-3.2,11.3c-1,4.5-3.1,6.7-8,6.1
			c-3.6-0.4-7.3-0.7-11.9,0.6c4,3,7.4,5.6,10.9,7.9c2.4,1.6,3.2,3,2.1,6.1c-1.4,4-3.1,8.1-3.4,13.4c3.6-2.7,6.6-4.8,9.4-7.2
			c2.8-2.5,5.1-2.9,8.2-0.1c2.9,2.6,6.4,4.5,10.8,7.6c-1.8-5.6-3-9.6-4.5-13.6c-1-2.7-0.8-4.2,2.1-5.8c3.8-2.1,7-5.3,11.8-9.1
			c-6.1,0-10.5-0.2-14.9,0.1c-2.9,0.1-4.1-1-4.9-3.7C497.5,264,496,260,494.1,254.5z M130.1,400.9c-7.3,7-14.3,13.6-21.3,20.3
			c-7,6.7-7,6.7,0,13.6c1.8,1.8,3.5,3.6,5.4,5.2c7.7,6.4,17.1,5.5,24.8-2.1c8.2-8.1,9.2-17.2,2.5-25.2
			C138,408.6,133.9,404.8,130.1,400.9z M83.4,299.4c0.3-0.2,0.6-0.5,1-0.7c-1.3-4.4-2.5-8.8-4-13.1c-0.7-2.1-0.2-3,1.6-4.2
			c3.9-2.6,7.4-5.7,12.3-9.6c-4.5,0-7.5-0.3-10.4,0.1c-5.7,0.8-9.2-0.9-10.9-6.8c-0.6-2.2,0.1-6.6-3-6.3c-3.1,0.3-2.5,4.6-3.1,7.2
			c-1.1,4.5-3.2,6.6-8.2,6c-3.6-0.5-7.3-0.1-11.9-0.1c3.5,3.9,6.9,6.1,10.4,8.1c3.2,1.8,4.1,3.7,2.7,7.3c-1.4,3.8-3.5,7.6-3.5,12.7
			c3.6-2.5,6.9-4.4,9.5-6.9c3.3-3.1,6-2.6,9.2,0.1C77.6,295.2,80.6,297.2,83.4,299.4z M159.1,94.4c-1.9-2.6-3.6-4.6-5-6.9
			c-2.6-4.5-4.3-0.2-6.2,0.6c-2,0.9-4.1,1.8-1.9,5c5.3,7.6,10.1,15.5,15.2,23.2c0.9,1.4,1.5,4,3.5,3.3c2.4-0.9,6-1.8,6.2-4.3
			c0.2-2.9,1.6-2.5,3.3-2.6c3.9-0.2,6.8-2.1,8.4-5.7c2.7-6.1-1.5-15.3-8.3-18.8C168.6,85.3,163.8,87.1,159.1,94.4z M419,445.7
			c0.6-1.7,1.3-3,1.6-4.3c2.2-8.5-6.1-17.8-14.5-14.7c-5.8,2.2-10.1,6.6-14.7,10.4c-1.2,1-0.3,1.7,0.4,2.5
			c7.1,8.9,14.1,17.8,21.1,26.8c2.6,3.3,3.9-0.1,5.5-1c2.1-1.2,1.8-2.3,0.2-4.1c-2.8-3.2-5.2-6.8-8.8-11.6c5.5,2.2,9.6,3.8,13.7,5.4
			c6.2,2.5,7.7,1.9,10.9-4.2C429.4,449.2,424.4,447.5,419,445.7z M80.3,371.6c-1.8-2.8-1.1-6.5-4.7-8.6c-6.3-3.6-8-9.6-5-16
			c2.2-4.6,9.8-7.4,15.3-5.6c5.9,1.9,9.4,7.7,7.5,13.9c-1,3.2,0.1,5.5,0.9,8.2c0.8,2.7,1.7,3,3.7,0.6c5.1-6.2,5.4-14.9,0.3-22.8
			c-5.2-8-15.2-10.6-24.4-6.9c-8.8,3.6-14.7,14.8-12.1,22.6C64.7,366.3,69.6,372.5,80.3,371.6z M98.8,415.1c2.5,0.4,5-0.4,7.2-2
			c6.5-4.4,12.8-9,19.4-13.2c2.6-1.7,2.6-2.9,0.9-5.4c-1.8-2.6-2.9-3.2-5.6-1.1c-5.5,4.3-11.3,8.1-17,12.1c-2.9,2-6.3,2.7-8.7-0.2
			c-2.4-2.9,0.2-5.2,2.4-7.2c5.6-5,12.2-8.6,18.3-12.9c2.2-1.5,3.2-2.6,0.8-4.8c-1.6-1.5-2.1-4.7-5.6-1.9
			c-6.4,5.1-13.2,9.6-19.9,14.4c-4.3,3.1-6.4,8.5-4.9,13C88.3,411.9,92.6,415.1,98.8,415.1z M155.9,474.5c3.5-12.5,7-25,10.7-37.5
			c0.9-3.1-1.7-4-3.2-5.6c-1.5-1.6-2.7-0.6-4.4,0.5c-5.3,3.6-10.5,7.4-16.3,10.4c-5.6,2.9-10.6,7-15.9,10.7
			c3.2,3.8,6.6,5.8,10.8,1.7c1.8-1.7,3.4-1.3,5.2,0.2c2,1.7,4.2,3.3,6.4,4.8c1.8,1.2,2.4,2.7,1.5,4.6
			C148.2,469.8,151,472.5,155.9,474.5z M264.8,483.2c-1.8-5.4,1.6-5.6,5.7-5.1c1.9,0.2,3.9,0.3,5.9,0.4c2.6,0.2,2.2-1.7,2.2-3.2
			c0-1.5,0.5-3.2-2.1-3.3c-5.1-0.2-10.3-0.7-15.4-1c-1.5-0.1-3.3-0.4-3.5,2.1c-0.7,11.4-1.4,22.7-2.2,34.1c-0.1,1.4-0.1,2.5,1.7,2.6
			c5.5,0.3,11,0.7,16.5,1.1c2.4,0.2,3.1-0.9,2.9-3.2c-0.2-1.9,0.5-4.1-2.8-3.9c-1.8,0.1-3.6-0.6-5.3-0.4c-5.4,0.7-5.9-1.5-5.1-6.2
			c0.5-3.2,1.6-3.8,4.3-3.5c2.3,0.3,4.6,0.3,6.9,0.5c2.3,0.3,3.2-0.7,3.1-3c-0.2-6.3-4.8-3.3-7.4-3.1
			C266.5,488.2,263.5,488.8,264.8,483.2z M397.8,92.6c-0.1-7.8-4.5-11.5-10.8-11.1c-1,0.1-2.5,1.9-3.1-0.1
			c-2.5-7.8-11.1-6-15.9-10.3c-1.7-1.6-2.3,0.5-2.9,1.7c-3,5.8-6,11.7-9.1,17.5c-1.1,2-0.5,2.8,1.3,3.5c1.5,0.7,2.7,1.6,3.7-0.8
			c1.6-3.6,3.5-7,5.4-10.4c1.6-2.8,3.5-4.9,7.3-3c3.6,1.8,3.5,4.7,2.3,7.7c-1.4,3.5-3.1,6.8-4.8,10.1c-1.1,2-0.6,2.9,1.3,4
			c2.4,1.4,3,0.1,3.8-1.6c1.5-3.2,3-6.5,4.8-9.5c1.7-2.9,3.8-5.1,7.8-3.1c4.1,2,2.7,4.9,1.6,7.7c-1.4,3.5-3,6.8-4.7,10.1
			c-0.7,1.4-1.3,2.6,0.7,3.3c1.4,0.5,3.1,1.9,4.1-0.3C393.3,102.4,397.4,97.2,397.8,92.6z M124.7,120.4c-0.8,1-1.4,2.5-2.5,3.3
			c-3.4,2.6-3.8,4.8-0.2,7.7c3,2.5,5.5,5.6,8.2,8.5c4.4,4.7,8.1,4.6,12.8,0.1c2.5-2.4,3.8-5,3.6-8.6c4.9,3,6.4-1.5,8.5-3.7
			c2.1-2.2-1.1-3.1-2.2-4.3c-4-4.5-8.3-8.8-12.4-13.2c-3.8-4-4.5,1.1-6.4,2.3c-1.8,1.1-3.8,2.7-0.9,5.3c2.8,2.5,5.3,5.3,7.7,8.2
			c1.9,2.3,1.5,4.4-0.6,6.6c-2.6,2.6-3.6,0-5.1-1.2C131.3,128.4,129.6,123.5,124.7,120.4z M210.3,68.2c-0.6-1.8-1-3.4-1.7-4.8
			c-0.8-1.7-0.3-4.7-4.3-3.3c-3.6,1.3-2.5,3-1.8,5.1c2.4,7.1,4.7,14.1,7.1,21.2c1.4,4,1.8,10.6,8.3,3.7c0.5-0.5,2,0.1,3.1,0
			c5.6,0,10.7-3.2,12.4-7.6c2.1-5.6,0.3-12.4-4.3-16C222.5,61.4,216.3,63.2,210.3,68.2z M115.7,172.5c0-1.2,0.1-2.5,0-3.7
			c-0.3-2-1-4.2-2.9-4.8c-2.1-0.6-2.3,2.2-3.6,3.3c-2.2,1.9-1.6,4.2-1,6.7c0.6,2.5-0.1,5-3.3,5.6c-4.5,0.9-7.6-0.7-9.3-4.9
			c-1.1-2.8-0.3-5.3,2.4-6.1c3.8-1.1,4.4-4.2,5.9-6.9c1.3-2.4,0.3-2.6-1.8-2.8c-5.6-0.3-8.8,3.1-11.5,7.3c-8.2,12.7-0.1,22.1,9,22.9
			C108.1,189.8,115.6,182.2,115.7,172.5z M270.3,77c-0.9-6.3-1.8-12.7-2.8-19c-0.4-2.6-4.7-4.3-5.7-2.2c-1.1,2.3-1.7,1.5-3.2,1
			c-6.1-1.9-11.1-0.4-14.2,4.1c-3.5,5.1-3.6,11.9-0.4,16.5c3.1,4.3,10.1,6.5,15.3,4.8c2.4-0.8,4.2-3.7,7.6-1.5
			C268.3,81.7,271.3,80.2,270.3,77z M400.5,112.6c0.2,4.5,1.4,7.4,3.8,10.1c3.2,3.6,8.8,3.9,11.4,8.5c1,1.8,2.4-0.4,3.2-1.4
			c3.6-4.4,7.1-8.9,10.7-13.3c3.9-4.9,3.9-5-2.3-6.6c-1.3-0.3-0.9-1.2-1.3-1.9c-2.7-5.8-8.3-8.9-14.2-7.7
			C406.1,101.4,400.6,107.9,400.5,112.6z M459.3,178.8c8.3,0.1,14.3-5.4,14.3-13.2c0-7.7-5.9-13.7-13.4-13.7
			c-7.1,0-13.4,6.2-13.5,13.2C446.5,172.6,452.1,178.7,459.3,178.8z M324.2,504.1c-0.2-4.6-0.5-4.9-6.5-3.4
			c-4.5,1.1-6.7,0.7-7.1-4.8c-0.6-7.8-2.3-15.5-3.3-23.2c-0.4-3.2-2.2-3.1-4.5-2.7c-2,0.4-3.8,0.5-3.3,3.5
			c1.7,11.1,3.3,22.2,4.7,33.3c0.2,1.8,0.8,2.5,2.7,2.3c4.9-0.7,9.8-1.5,14.8-2C323.9,506.8,324.4,505.8,324.2,504.1z M305.4,82.1
			c7.9,0.1,13.9-5.2,14-12.4c0.2-8.4-5.8-14.4-14.4-14.5c-6.3,0-12.3,6.1-12.6,12.9C292.2,75.8,297.9,82,305.4,82.1z M434.4,151
			c2.5,5,5.3,3.2,8,0.7c2.7-2.6,5.3-5.2,8-7.9c4.5-4.6,3.7-11.7-1.8-15c-1.8-1.1-4-1.4-4-4.5c0-1.4-2.1-3.7-4.8-1.1
			c-5.5,5.2-11.4,10.2-17,15.1c2.4,4.5,4.9,4.8,8.1,1.1c1.9-2.1,4.3-3.7,6.4-5.6c2.5-2.1,5-3.5,7.8-0.6c2.9,3,1.2,5.7-0.9,8
			C441.2,144.5,437.8,147.6,434.4,151z M350.5,71.8c1.2-4.8-2.2-7.3-6.8-9.1c-3.3-1.3-7.1,0-10.4-2.2c-2.2-1.4-2.4,1.3-2.8,2.6
			c-1.8,6.2-3.5,12.4-5.4,18.5c-0.6,2.1-0.6,3.3,2,3.8c2.4,0.5,3.5-0.1,4.1-2.6c0.9-4,2.2-7.9,3.4-11.8c0.8-2.6,2.7-3.9,5.2-3.4
			c2.5,0.5,4.3,1.8,4.4,5.1c0,4.6-1.6,8.8-2.8,13c-0.6,2.1-0.2,2.9,1.8,3.3c1.7,0.4,3.5,1.5,4.1-1.4
			C348.4,82.6,350.8,77.9,350.5,71.8z M130.1,154.3c-0.1-1.3-1-1.8-1.9-2.4c-7.8-5.8-15.8-11.4-23.4-17.6c-3.4-2.7-4.2-0.2-5.5,1.7
			c-1.3,2-4.8,3.7-0.5,6.6c7.5,5.1,14.5,10.8,21.8,16.2c1.3,1,2.5,2.6,4.6,1.1C127.5,158.4,128.7,156.3,130.1,154.3z M78,390.2
			c0.6-0.3,1.1-0.5,1.6-0.8c10.1-5.3,20.1-10.6,30.1-15.9c3.1-1.7,0.7-3.6,0.1-5.4c-0.7-2.1-1.7-2.6-3.9-1.4
			c-9.8,5.3-19.7,10.5-29.6,15.7c-1.1,0.6-2.6,1.1-1.6,2.7C75.9,386.8,75.9,389.2,78,390.2z M284,63.8
			C283.9,63.8,283.9,63.8,284,63.8c0-4.8-0.1-9.6,0-14.4c0-2.2-0.5-3.3-2.9-3.3c-2.2,0-3.2,0.6-3.1,3c0.3,9.4,0.5,18.8,0.5,28.3
			c0,2.2,0.9,2.6,2.9,2.7c2.3,0.1,2.7-0.9,2.6-2.9C283.9,72.7,284,68.3,284,63.8z M442,381.6c-0.9-3.5,0.9-5.6,3-7.7
			c1.6-1.6,2.2-3.6,1.4-5.8c-0.4-1.2-0.9-2.5-2.4-2.3c-1.5,0.2-0.6,1.6-0.9,2.5c-0.5,1.6-1.5,3.2-2.7,4.4
			C436.7,376.1,437.8,378.9,442,381.6z"/>
		<path class="st1" d="M284.1,454.9c-99,0.2-176.8-80-179.1-173.7c-2.7-105.2,81.6-182.9,174-184.6
			c104.9-1.9,183.1,82.3,183.5,178.2C462.8,375.2,381.3,454.7,284.1,454.9z M451.5,288.8c-0.1-105.4-73.8-179-162.9-181.6
			c-96.7-2.7-176.4,76.8-172.7,175.4c1.6,43.8,18.5,81.7,49.3,112.6c40,39.9,89.4,54.9,144.6,47.3c35.6-4.9,67.2-21.3,92.6-47.6
			C434.5,361.8,450.9,322,451.5,288.8z"/>
		<path class="st3" d="M393,465.9c-3.3,1.6-6.5,3.1-9.6,4.8c-2.1,1.1-3.5,1.7-4.9-1.2c-1.4-2.9-0.5-3.8,2-5c5.2-2.4,10.2-5,15.2-7.8
			c2.4-1.4,4-1.2,4.8,1.5c2.4,8.9,1.6,15.7-6.4,23.2c-5.2,4.8-15.7,5.5-22,1.7c-8.3-4.9-12.2-13.5-10.5-20.8
			c2.3-9.8,9.1-16.2,18.6-17.3c5.1-0.6,9.2,1.4,13.9,4.8c-4.4,1.5-6.9,4.5-11.9,3.3c-6-1.5-12.8,5.4-13,12
			c-0.1,6.5,5.7,12.4,12.1,12.3C389.1,477.4,393.5,473.1,393,465.9z"/>
		<path class="st3" d="M341.7,501.6c-11.7,1.3-19.4-10.1-19.5-20.1c-0.1-12,8.9-19.9,20-19.9c10.8,0,20.1,8.3,20.3,21.2
			C362.6,491,352.3,503.7,341.7,501.6z M354.2,481.8c0.1-6.9-5.1-12.3-12-12.3c-6,0-11.9,5.8-12,12c-0.2,6.8,5.4,12.3,12.6,12.6
			C349.1,494.2,354.1,488.9,354.2,481.8z"/>
		<path class="st3" d="M481.3,371.8c-13,0.7-22.2-7.8-22.1-19.1c0-13.6,8.3-20.4,20.2-21.1c10.5-0.7,19.9,9.2,20,19.6
			C499.5,362.5,491.5,371.7,481.3,371.8z M479.3,363.5c7.3,0.1,12.4-4.6,12.5-11.6c0.1-6.1-6.2-12.4-12.3-12.5
			c-6.2,0-12.2,5.6-12.3,11.6C466.9,358.3,472,363.5,479.3,363.5z"/>
		<path class="st3" d="M455,392.1c6,3.7,11.7,7.1,17.2,10.6c1.5,0.9,4,1.5,1.9,4.2c-1.4,1.7-2.1,4-5.3,2.3
			c-10-5.2-19.3-11.6-28.9-17.5c-1.2-0.7-1.4-1.3-0.8-2.5c1.2-2.2,2.4-4.3,5.5-4.2c8.5,0.3,16.9-1.9,25.8-1.9
			c-5.5-3.3-11-6.7-16.6-10c-2.3-1.4-4.1-2.3-2-5.5c1.8-2.8,2.8-2.8,5.6-1.1c8.5,5.3,17.4,10.1,26,15.2c1.5,0.9,4.5,1.3,3.4,3.9
			c-1,2.4-1.7,5.5-5.6,5.4c-6.8-0.2-13.6-0.1-20.4,0C459.1,391,457.3,390.4,455,392.1z"/>
		<path class="st3" d="M439.9,439.8c-11.6,0-20.1-8.8-20.9-19.8c-0.8-10.5,10.9-21,20.2-20.7c11.2,0.4,20.4,9.8,20.3,21.1
			C459.4,430.6,450.1,439.8,439.9,439.8z M438.2,407.7c-5.9,0.1-11.3,5.5-11.3,11.3c0,9,3.9,12.9,13,12.8c6.5-0.1,11.7-5.5,11.6-12
			C451.3,412.6,445.8,407.6,438.2,407.7z"/>
		<path class="st3" d="M251.7,484.3c-0.5,13.7-10,24.1-24.1,20.2c-3.9-1.1-9.4-0.5-11.6-2.9c-2.4-2.7,0.6-7.6,1.4-11.6
			c1.4-7.5,3.3-14.9,4.8-22.5c0.5-2.9,1.4-4,4.5-3.1c3.9,1.1,8,1.6,12,2.5C244.7,468.5,252.4,476.7,251.7,484.3z M243.6,484
			c0.2-6-3.6-9.9-10.9-11.5c-2.4-0.5-3.5-0.1-4,2.4c-1.2,6.4-2.4,12.9-4,19.3c-0.7,3,0.6,3.3,2.8,3.7
			C237.6,500.1,243.2,495.3,243.6,484z"/>
		<path class="st3" d="M200.7,465.5c-0.1,9.6-5.1,16.9-13.8,20.2c-5.2,2-9.7,0.4-14.3-1.8c-13.2-6.4-13.2-6.3-6.1-19.2
			c3.4-6.2,6.9-12.5,10.1-18.9c1.3-2.5,2.5-3,4.8-1.6c4,2.4,8.2,4.4,12.1,6.8C198.4,454.3,201,459,200.7,465.5z M181.3,478.9
			c4.9,0,10.1-4.5,11.5-10c1.6-6.2-1.3-11.7-7.5-14.8c-2.2-1.1-3.6-1.4-4.8,1.4c-2.1,4.7-4.8,9.1-7.3,13.7c-3.3,6.1-2.1,8.6,4.9,9.7
			C179.1,479,180.2,478.9,181.3,478.9z"/>
		<path class="st3" d="M494.1,254.5c1.9,5.6,3.4,9.5,4.5,13.6c0.8,2.7,2,3.8,4.9,3.7c4.4-0.2,8.8-0.1,14.9-0.1
			c-4.8,3.8-8,6.9-11.8,9.1c-2.9,1.6-3.1,3.1-2.1,5.8c1.5,4,2.7,8,4.5,13.6c-4.4-3.1-7.9-5-10.8-7.6c-3.1-2.8-5.4-2.3-8.2,0.1
			c-2.8,2.4-5.8,4.5-9.4,7.2c0.3-5.3,2-9.4,3.4-13.4c1.1-3.1,0.3-4.5-2.1-6.1c-3.5-2.3-6.8-5-10.9-7.9c4.5-1.3,8.3-1,11.9-0.6
			c5,0.6,7.1-1.6,8-6.1C491.6,262.5,492.7,259.3,494.1,254.5z"/>
		<path class="st3" d="M130.1,400.9c3.8,3.9,7.9,7.7,11.4,11.9c6.7,7.9,5.7,17.1-2.5,25.2c-7.7,7.6-17.1,8.4-24.8,2.1
			c-1.9-1.6-3.6-3.4-5.4-5.2c-6.9-6.9-6.9-7,0-13.6C115.8,414.5,122.8,407.9,130.1,400.9z M137.8,422.6c0.8-4.5-2.7-7.1-5.5-10.1
			c-1.4-1.6-2.3-0.6-3.5,0.5c-4.8,4.7-9.7,9.4-14.5,14.1c-1.1,1-1.9,1.6-0.5,3.4c4,5.1,9.1,7.3,14.3,5.5
			C134,434.1,137.8,428.9,137.8,422.6z"/>
		<path class="st3" d="M83.4,299.4c-2.8-2.1-5.7-4.1-8.4-6.4c-3.1-2.7-5.8-3.2-9.2-0.1c-2.7,2.5-6,4.4-9.5,6.9
			c0.1-5.1,2.1-8.9,3.5-12.7c1.4-3.7,0.5-5.6-2.7-7.3c-3.5-1.9-6.9-4.2-10.4-8.1c4.6,0,8.3-0.4,11.9,0.1c5,0.7,7-1.5,8.2-6
			c0.7-2.6,0.1-6.9,3.1-7.2c3.1-0.3,2.4,4.1,3,6.3c1.7,5.9,5.2,7.6,10.9,6.8c2.9-0.4,5.9-0.1,10.4-0.1c-4.9,3.9-8.4,6.9-12.3,9.6
			c-1.8,1.2-2.4,2.1-1.6,4.2c1.5,4.3,2.7,8.7,4,13.1C84,298.9,83.7,299.1,83.4,299.4z"/>
		<path class="st3" d="M159.1,94.4c4.6-7.3,9.5-9.2,15.2-6.2c6.8,3.5,11,12.7,8.3,18.8c-1.6,3.6-4.4,5.4-8.4,5.7
			c-1.7,0.1-3-0.3-3.3,2.6c-0.2,2.5-3.8,3.4-6.2,4.3c-2.1,0.8-2.6-1.9-3.5-3.3c-5.1-7.7-9.9-15.7-15.2-23.2c-2.2-3.2-0.2-4.1,1.9-5
			c1.9-0.8,3.6-5.2,6.2-0.6C155.5,89.8,157.3,91.8,159.1,94.4z M167.6,95.8c-3,0.1-3.9,2.4-3.8,4.4c0.2,3.5,1.7,6.6,5.8,7
			c2.2,0.2,3.9-0.5,4.1-3.1C174,101.4,169.9,96,167.6,95.8z"/>
		<path class="st3" d="M419,445.7c5.3,1.8,10.4,3.5,15.4,5.2c-3.2,6.1-4.7,6.7-10.9,4.2c-4.1-1.6-8.1-3.2-13.7-5.4
			c3.6,4.8,5.9,8.4,8.8,11.6c1.6,1.8,1.9,3-0.2,4.1c-1.7,0.9-2.9,4.4-5.5,1c-7-9-14.1-17.9-21.1-26.8c-0.6-0.8-1.6-1.5-0.4-2.5
			c4.7-3.8,8.9-8.2,14.7-10.4c8.4-3.1,16.7,6.1,14.5,14.7C420.3,442.7,419.7,444,419,445.7z M407.9,447.9c2.1-1.7,4.1-3.4,5.3-5.9
			c1.5-3.2,0.5-5.5-2.1-7.4c-4.3-3-7.3,0.2-9.8,2.6c-2.3,2.3,1.7,3,2.4,4.7C404.6,444.2,406.4,446,407.9,447.9z"/>
		<path class="st3" d="M80.3,371.6c-10.6,0.9-15.6-5.3-18.7-14.5c-2.5-7.7,3.3-19,12.1-22.6c9.2-3.8,19.3-1.1,24.4,6.9
			c5.1,7.9,4.8,16.6-0.3,22.8c-2,2.4-2.9,2.1-3.7-0.6c-0.8-2.7-1.8-5-0.9-8.2c1.9-6.2-1.6-12-7.5-13.9c-5.5-1.8-13.1,1-15.3,5.6
			c-3,6.3-1.3,12.4,5,16C79.1,365.1,78.5,368.9,80.3,371.6z"/>
		<path class="st3" d="M98.8,415.1c-6.3,0-10.5-3.2-12.5-9.2c-1.5-4.4,0.6-9.9,4.9-13c6.7-4.8,13.5-9.3,19.9-14.4
			c3.5-2.7,4,0.4,5.6,1.9c2.3,2.2,1.3,3.3-0.8,4.8c-6.1,4.3-12.7,7.9-18.3,12.9c-2.2,2-4.8,4.3-2.4,7.2c2.3,2.9,5.7,2.2,8.7,0.2
			c5.7-4,11.5-7.8,17-12.1c2.8-2.2,3.9-1.5,5.6,1.1c1.7,2.5,1.6,3.7-0.9,5.4c-6.6,4.3-13,8.8-19.4,13.2
			C103.8,414.7,101.3,415.5,98.8,415.1z"/>
		<path class="st3" d="M155.9,474.5c-4.9-2-7.7-4.7-5.2-10.2c0.9-1.9,0.2-3.4-1.5-4.6c-2.2-1.5-4.4-3.1-6.4-4.8
			c-1.8-1.5-3.4-1.9-5.2-0.2c-4.2,4-7.5,2.1-10.8-1.7c5.3-3.6,10.3-7.7,15.9-10.7c5.8-3,11-6.8,16.3-10.4c1.7-1.1,2.9-2.1,4.4-0.5
			c1.4,1.6,4.1,2.5,3.2,5.6C162.9,449.4,159.4,462,155.9,474.5z M157.7,441.3c-4.2,2.8-7.5,5-11.1,7.4c2.7,1.8,5,3.3,7.7,5.1
			C155.4,449.7,156.4,446,157.7,441.3z"/>
		<path class="st3" d="M264.8,483.2c-1.3,5.6,1.7,4.9,5.4,4.7c2.6-0.2,7.2-3.2,7.4,3.1c0.1,2.3-0.8,3.3-3.1,3
			c-2.3-0.2-4.6-0.3-6.9-0.5c-2.7-0.3-3.7,0.3-4.3,3.5c-0.8,4.8-0.2,7,5.1,6.2c1.7-0.2,3.5,0.5,5.3,0.4c3.2-0.2,2.6,2,2.8,3.9
			c0.2,2.2-0.4,3.4-2.9,3.2c-5.5-0.4-11-0.8-16.5-1.1c-1.8-0.1-1.8-1.2-1.7-2.6c0.8-11.3,1.5-22.7,2.2-34.1c0.2-2.5,1.9-2.2,3.5-2.1
			c5.1,0.3,10.3,0.8,15.4,1c2.6,0.1,2.1,1.8,2.1,3.3c0,1.5,0.4,3.4-2.2,3.2c-2-0.1-3.9-0.2-5.9-0.4
			C266.4,477.6,263,477.8,264.8,483.2z"/>
		<path class="st3" d="M397.8,92.6c-0.5,4.6-4.6,9.8-7.3,15.5c-1,2.1-2.7,0.8-4.1,0.3c-2-0.7-1.5-1.9-0.7-3.3
			c1.7-3.3,3.4-6.7,4.7-10.1c1.1-2.7,2.5-5.6-1.6-7.7c-4-2-6.1,0.2-7.8,3.1c-1.8,3.1-3.3,6.3-4.8,9.5c-0.8,1.7-1.4,3-3.8,1.6
			c-2-1.1-2.4-2.1-1.3-4c1.7-3.3,3.4-6.7,4.8-10.1c1.2-3,1.3-5.8-2.3-7.7c-3.8-1.9-5.7,0.2-7.3,3c-1.9,3.4-3.8,6.8-5.4,10.4
			c-1,2.3-2.2,1.4-3.7,0.8c-1.7-0.8-2.4-1.6-1.3-3.5c3.2-5.8,6.1-11.7,9.1-17.5c0.6-1.2,1.2-3.3,2.9-1.7c4.7,4.3,13.4,2.5,15.9,10.3
			c0.6,2,2.1,0.2,3.1,0.1C393.3,81.1,397.8,84.9,397.8,92.6z"/>
		<path class="st3" d="M124.7,120.4c4.8,3.2,6.6,8.1,10.5,10.9c1.5,1.1,2.5,3.8,5.1,1.2c2.1-2.2,2.5-4.3,0.6-6.6
			c-2.4-2.8-4.9-5.7-7.7-8.2c-2.9-2.6-0.9-4.2,0.9-5.3c1.9-1.1,2.6-6.3,6.4-2.3c4.1,4.4,8.4,8.7,12.4,13.2c1.1,1.2,4.3,2,2.2,4.3
			c-2.1,2.2-3.6,6.7-8.5,3.7c0.3,3.5-1.1,6.2-3.6,8.6c-4.8,4.5-8.4,4.6-12.8-0.1c-2.7-2.8-5.1-6-8.2-8.5c-3.6-3-3.2-5.1,0.2-7.7
			C123.4,122.8,124,121.4,124.7,120.4z"/>
		<path class="st3" d="M210.3,68.2c6-5.1,12.2-6.8,18.8-1.7c4.6,3.6,6.4,10.3,4.3,16c-1.6,4.5-6.7,7.6-12.4,7.6
			c-1.1,0-2.6-0.5-3.1,0c-6.5,7-6.9,0.3-8.3-3.7c-2.5-7-4.8-14.1-7.1-21.2c-0.7-2.1-1.9-3.9,1.8-5.1c4.1-1.4,3.5,1.6,4.3,3.3
			C209.4,64.8,209.7,66.4,210.3,68.2z M228,77.5c0-4.7-3.2-8.1-7.6-8.1c-3.9,0-7,3.6-6.9,7.9c0.1,3.8,3.4,7.4,7,7.4
			C224.6,84.8,228,81.5,228,77.5z"/>
		<path class="st3" d="M115.7,172.5c0,9.7-7.6,17.3-16.2,16.6c-9.1-0.8-17.1-10.2-9-22.9c2.7-4.2,5.9-7.6,11.5-7.3
			c2,0.1,3.1,0.3,1.8,2.8c-1.5,2.8-2.2,5.8-5.9,6.9c-2.6,0.8-3.5,3.4-2.4,6.1c1.7,4.2,4.8,5.9,9.3,4.9c3.2-0.7,3.9-3.1,3.3-5.6
			c-0.6-2.5-1.1-4.8,1-6.7c1.2-1.1,1.5-3.9,3.6-3.3c1.9,0.5,2.7,2.8,2.9,4.8C115.8,170,115.7,171.2,115.7,172.5z"/>
		<path class="st3" d="M270.3,77c1,3.2-2,4.7-3.3,3.8c-3.5-2.3-5.2,0.7-7.6,1.5c-5.3,1.7-12.2-0.5-15.3-4.8
			c-3.2-4.6-3.1-11.4,0.4-16.5c3.1-4.5,8.1-6,14.2-4.1c1.4,0.4,2.1,1.3,3.2-1c1-2.1,5.3-0.5,5.7,2.2C268.5,64.3,269.4,70.7,270.3,77
			z M261.8,70.1c0.4-5-2.3-7.4-6.3-8.2c-3.6-0.7-7.8,3.4-7.9,7c-0.1,4.2,3,7.6,7.2,7.8C258.8,76.9,261.7,73.9,261.8,70.1z"/>
		<path class="st3" d="M400.5,112.6c0.1-4.8,5.6-11.2,11.3-12.3c5.9-1.1,11.6,1.9,14.2,7.7c0.3,0.7-0.1,1.6,1.3,1.9
			c6.3,1.6,6.3,1.7,2.3,6.6c-3.5,4.5-7.1,8.9-10.7,13.3c-0.8,1-2.2,3.1-3.2,1.4c-2.7-4.6-8.2-4.9-11.4-8.5
			C401.9,120.1,400.7,117.1,400.5,112.6z M421.3,113.2c-0.1-4.1-3.2-7.1-7.2-7c-3.8,0.1-7.4,3.8-7.2,7.8c0.2,4,2.3,6.6,6.7,6.6
			C418.7,120.7,421.5,117.9,421.3,113.2z"/>
		<path class="st3" d="M459.3,178.8c-7.2-0.1-12.8-6.2-12.7-13.7c0.1-7,6.5-13.2,13.5-13.2c7.5,0,13.5,6,13.4,13.7
			C473.5,173.4,467.6,179,459.3,178.8z M452.5,165.7c0,3.5,3.8,7.3,7.2,7.2c4.4-0.1,8-3.6,7.8-7.7c-0.2-4.5-3-6.8-7.1-7.2
			C456.5,157.6,452.5,161.7,452.5,165.7z"/>
		<path class="st3" d="M324.2,504.1c0.2,1.6-0.3,2.7-2.5,2.9c-4.9,0.5-9.9,1.3-14.8,2c-1.8,0.3-2.4-0.4-2.7-2.3
			c-1.5-11.1-3-22.2-4.7-33.3c-0.5-3,1.4-3.1,3.3-3.5c2.3-0.4,4.1-0.5,4.5,2.7c1,7.8,2.8,15.4,3.3,23.2c0.4,5.5,2.6,5.9,7.1,4.8
			C323.7,499.2,324,499.6,324.2,504.1z"/>
		<path class="st3" d="M305.4,82.1c-7.5-0.1-13.2-6.3-12.9-14c0.3-6.8,6.3-13,12.6-12.9c8.6,0,14.5,6,14.4,14.5
			C319.2,76.9,313.2,82.2,305.4,82.1z M312.8,69.6c0.3-5.3-2.1-7.9-6.4-8.4c-4.3-0.5-7.8,3.1-7.8,7.7c-0.1,4.5,2.7,7.3,7.2,7.3
			C310.2,76.2,312.8,73.5,312.8,69.6z"/>
		<path class="st3" d="M434.4,151c3.3-3.3,6.8-6.5,9.9-9.9c2-2.3,3.7-5,0.9-8c-2.9-3-5.4-1.6-7.8,0.6c-2.1,1.9-4.6,3.5-6.4,5.6
			c-3.2,3.7-5.7,3.3-8.1-1.1c5.6-4.9,11.4-9.9,17-15.1c2.7-2.5,4.7-0.3,4.8,1.1c0,3.2,2.2,3.4,4,4.5c5.5,3.3,6.3,10.4,1.8,15
			c-2.6,2.7-5.2,5.4-8,7.9C439.7,154.1,436.9,156,434.4,151z"/>
		<path class="st3" d="M350.5,71.8c0.2,6.2-2.1,10.9-3.2,15.9c-0.6,2.9-2.4,1.7-4.1,1.4c-2.1-0.4-2.5-1.3-1.8-3.3
			c1.3-4.2,2.9-8.4,2.8-13c0-3.3-1.9-4.6-4.4-5.1c-2.5-0.5-4.4,0.7-5.2,3.4c-1.1,3.9-2.5,7.8-3.4,11.8c-0.6,2.5-1.6,3.1-4.1,2.6
			c-2.5-0.5-2.6-1.7-2-3.8c1.9-6.1,3.6-12.4,5.4-18.5c0.4-1.4,0.6-4.1,2.8-2.6c3.3,2.2,7.1,0.9,10.4,2.2
			C348.3,64.4,351.7,66.9,350.5,71.8z"/>
		<path class="st3" d="M130.1,154.3c-1.4,2-2.6,4.1-4.7,5.6c-2.2,1.5-3.3-0.1-4.6-1.1c-7.3-5.4-14.3-11.1-21.8-16.2
			c-4.4-3-0.8-4.6,0.5-6.6c1.2-1.9,2.1-4.5,5.5-1.7c7.6,6.1,15.5,11.8,23.4,17.6C129.1,152.5,130,153,130.1,154.3z"/>
		<path class="st3" d="M78,390.2c-2.1-0.9-2.1-3.4-3.2-5.1c-1.1-1.6,0.5-2.1,1.6-2.7c9.9-5.2,19.8-10.4,29.6-15.7
			c2.1-1.2,3.2-0.6,3.9,1.4c0.6,1.8,3,3.7-0.1,5.4c-10,5.3-20.1,10.6-30.1,15.9C79.1,389.7,78.6,389.9,78,390.2z"/>
		<path class="st3" d="M284,63.8c0,4.4,0,8.9,0,13.4c0,1.9-0.4,2.9-2.6,2.9c-2-0.1-2.9-0.5-2.9-2.7c-0.1-9.4-0.3-18.8-0.5-28.3
			c-0.1-2.4,0.9-3.1,3.1-3c2.4,0,3,1.2,2.9,3.3C283.9,54.2,283.9,59,284,63.8C283.9,63.8,283.9,63.8,284,63.8z"/>
		<path class="st3" d="M442,381.6c-4.2-2.7-5.2-5.5-1.6-9c1.2-1.2,2.2-2.8,2.7-4.4c0.3-0.8-0.6-2.2,0.9-2.5c1.5-0.2,2,1.1,2.4,2.3
			c0.8,2.3,0.2,4.3-1.4,5.8C442.9,376,441.1,378.1,442,381.6z"/>
		<path class="st2" d="M451.5,288.8c-0.5,33.2-17,73-49.1,106.2c-25.4,26.3-57,42.6-92.6,47.6c-55.2,7.6-104.6-7.3-144.6-47.3
			c-30.9-30.8-47.7-68.8-49.3-112.6c-3.7-98.6,76-178.2,172.7-175.4C377.7,109.7,451.4,183.4,451.5,288.8z M275.1,241.1
			c-0.7-2.1,2.6-6.1-1.9-6.3c-4.3-0.2-8.4-1.3-12.6-1.3c-34.9,0.1-69.7,0.1-104.6-0.1c-4.8,0-5.4,1.6-5.4,5.7
			c0.2,33.5,0.3,66.9,0,100.4c-0.2,16.1,3.7,26.9,25.2,25.2c9.7-0.8,19.3-0.6,27.2,6.7c3.8,3.5,6.9,7.6,10.2,11.8
			c1.7-2.1,3-3.9,4.5-5.6c7-8.2,15-14.2,26.6-13.1c5,0.5,10,0.2,15,0c8.3-0.2,16-7.2,16-14.9c0-32.6,0-65.1-0.1-97.7
			c2.9-0.9,5.2,0.7,7.6,1.8c11,4.9,21.2,12.3,34.1,12c3.5-0.1,6.5,1.7,9.5,3.3c3.5,1.8,7,3.6,10.5,5.2c1.3,0.6,3.6-0.8,3.7,1.8
			c0.1,3.4,3.4,6.9,0.3,10c-3,2.9-6.2,5.5-10.7,6.6c-9.1,2.3-18.4,4.1-26.7,8.8c-3.4,1.9-8.6,3-8.7,7.6c-0.2,4.9,4.7,6.6,8.6,8.4
			c0.2,0.1,0.3,0.5,0.6,1c-2.5,1.6-5.5,1.1-8.2,1.9c-2.1,0.7-3.2,2.2-3.8,4.1c-0.4,1.2-0.1,2.9,1.2,3.2c4,0.8,7.7,4.4,12.1,1.1
			c1.2-0.9,2.7-0.9,4.1-0.4c3.5,1.2,7,0.7,10.6,0.3c1.9-0.2,3.9-0.4,4.4-2.3c0.6-2.2-0.6-4.2-2.3-5.6c-2-1.6-4.6-2.5-5.6-5.6
			c5.9-0.4,11.5,0,17,1.3c2.5,0.6,6,1.2,6.3,4.7c0.2,3.3,1.7,3.7,4.5,3.7c4.3,0,9.4,0.4,9.2,6.2c-0.1,6,2,11.3,3.8,16.5
			c2.2,6.4,3.4,13.3,11.5,16.9c5.1,2.3,9.5,8,9.7,15.1c0.1,7,1.7,13.8,1.1,20.8c-0.3,3.8,2.5,4.2,4.4,2.7c2.9-2.5,6.6-4.9,7-9.3
			c0.5-4.4,0.6-8.9,1.1-13.3c0.4-3.3-0.7-5.6-3.8-6.8c-3.5-1.4-4.7-4-4.4-7.7c0.5-5.7-1.5-10.4-6.3-13.9c-2.2-1.6-4.1-3.4-4.2-6.9
			c-0.4-12,2.7-23.7,2-35.7c-0.2-3.1,1.6-6.6,0.2-9.5c-3.6-7.9-1.2-16.5-1.6-24.4c-0.5-9.3,0.2-20.2,7-28.6c0.6-0.7,0.6-2,0.6-3.1
			c0.3-5.5,1.9-10.6,5-15.2c4.6-6.9,7.9-14,8.2-22.7c0.3-9.9-0.3-20.2,5.7-29c3.7-5.5,1.4-10.6-1.3-15.4c-2.6-4.7-7.6-5.7-13.7-3.6
			c-4.4,1.6-6.9,6.1-6.4,11.1c0.4,3.9,1.8,7.3,5,9.6c4.4,3.1,5.4,7.8,4.2,12.3c-3.5,13.1-5.3,27.1-17.1,36.3
			c-2.2-4.4-6.7-5.7-11.1-7.3c-5-1.8-9.1,0.6-12.9,3c-3.6,2.3-7,5.4-5,11c0.6,1.8-0.3,4.2-0.9,6.3c-1.2,4.4-1.7,8.6,2.7,12.1
			c-7,0.7-13.2,2.1-19.8,1.3c-14.3-1.9-28.1-5.9-42.2-8.8C279.5,244.6,276.3,244.4,275.1,241.1z M213,227.7c19.3,0,38.6-0.2,58,0.1
			c6.1,0.1,4-3.8,4.4-6.7c0.4-3.4-0.3-5-4.4-4.9c-38.6,0.2-77.3,0.2-115.9,0c-5,0-4.4,2.5-4.3,5.6c0.1,3-1.1,6.2,4.4,6.1
			C174.4,227.5,193.7,227.7,213,227.7z M231.7,203.4c-0.7-2.1-2.1-3.3-4.4-2.3c-1.5,0.6-2.4,0.9-3.5-0.8c-5-7.4-6.1-7.8-14.2-6.5
			c-3.9,0.6-5.2,4.4-7.9,6.4c2.8,3.3-1.2,8.7,4.5,11.9c3.6,2,10.5,3,13.7,0c2.4-2.2,3.4-7.6,8.9-5.4
			C230.2,207.1,231.5,205.3,231.7,203.4z M244.4,214.3c7.2,0.1,10.3-4.1,10.6-13.6c0.1-3.7-3.8-4-5.2-6.7c-1.7-3.2-5.9,0.8-9.2-1
			c-2-1.1-3.2,2.8-5.2,3.9c-5,2.6,0.2,6.9-1.9,10.5c-1.6,2.7,4.4,2.8,5.3,6.2C239.7,216.4,242.7,213.7,244.4,214.3z M181.2,214.3
			c8.4-0.3,12.2-4.7,11.9-13.5c-0.1-3.9-4.5-4.3-6.1-7.4c-1.1-2.1-5.5,0.3-8.8-0.4c-2.7-0.6-3.7,4.2-6.6,5.9c-2.1,1.2,1,5.5-0.4,8.8
			c-0.8,1.9,3.8,3.2,4.8,6.2C176.6,215.6,179.5,214.6,181.2,214.3z M150.7,203.6c0,2.7,0.1,5.3,0,8c-0.2,4,3.6,3.7,4.6,2.8
			c2.2-2.1,6.8-5.1,6.5-6.1c-1-3.7,3.5-9-2.7-11.1c-1.5-0.5-1.6-1.7-2.1-2.8c-0.7-1.4-1.8-2.3-3.4-1.4c-1.3,0.7-3.1,0.8-2.8,3.2
			C150.9,198.6,150.7,201.1,150.7,203.6z M275.3,203.6c0-2.3,0-4.6,0-7c0-1,0.4-2.3-0.9-2.8c-4.3-1.8-5.3,3.2-8.4,4
			c-1.4,0.4-2.1,1.2-1.6,2.7l5,12.2c0.5,1.7,1.7,2.3,3.2,1.9c1.7-0.5,2.6-1.7,2.6-3.6C275.3,208.6,275.3,206.1,275.3,203.6z
			 M259.1,206.7c2,0.1,3.4-0.6,3.5-2.5c0.1-1.7-0.6-3-2.6-3.3c-2.3-0.3-3.5,1.3-3.6,2.9C256.3,205,257.1,206.9,259.1,206.7z
			 M166.3,201c-1.9,0.3-3,1.3-2.7,3.2c0.3,1.9,1.5,2.7,3.4,2.5c1.8-0.2,2.4-1.5,2.3-3C169.3,201.8,168.1,201,166.3,201z
			 M197.9,200.9c-1.9,0.2-3.3,0.9-3.2,2.9c0.1,1.8,1,3,3,2.9c1.7,0,2.5-1.1,2.7-2.7C200.6,202.2,199.7,201.1,197.9,200.9z"/>
		<path class="st1" d="M275.2,252.1c0,32.6,0.1,65.1,0.1,97.7c0,7.7-7.6,14.7-16,14.9c-5,0.1-10.1,0.4-15,0
			c-11.7-1.1-19.6,4.9-26.6,13.1c-1.5,1.7-2.9,3.5-4.5,5.6c-3.3-4.3-6.5-8.3-10.2-11.8c-7.9-7.3-17.5-7.5-27.2-6.7
			c-21.5,1.7-25.3-9.2-25.2-25.2c0.3-33.5,0.2-66.9,0-100.4c0-4.2,0.6-5.8,5.4-5.7c34.9,0.3,69.7,0.2,104.6,0.1
			c4.3,0,8.4,1.1,12.6,1.3c4.5,0.2,1.2,4.2,1.9,6.3c-2.3,0-4.4-0.5-6.6-1.6c-2.3-1.1-4.3-3.2-7.2-3.2c-2.3,0-4.6,0.3-5,2.9
			c-0.4,2.3,1.5,3.4,3.4,4c1.1,0.4,2.6,0.1,3.2,1.6C265,250.7,269.8,251.9,275.2,252.1z M206.6,351.7c-1.5-2.3-3.5-2.6-6.5-1.4
			c2.6,0.4,4.4,1.9,6.6,1.3c5.4,6,5.4,6,12.7,0C215,353.7,210.8,353,206.6,351.7z M233.9,302.6c0.5,0,1.1-0.1,1.6-0.1
			c0-4,0.2-8,0-12c-0.2-4,1-8.2-0.9-12.1c-1.4-2.8-4.1-5.7,1.5-7.1c1.5-0.4,1-2.1,1-3.3c0-3.7,0.3-7.4-1.4-11
			c-0.6-1.2-0.9-3.4,0.7-4.4c1.2-0.7,2,0.2,2.7,1.6c0.8,1.5,2.4,0.7,3.7,0.1c1.8-0.9,3.6-1.8,4.7,0.9c0.5,1.3,1.3,0.6,2.1,0.3
			c1.3-0.4,2.5-2.5,4-0.6c1.3,1.5,0,2.9-0.3,4.5c-0.8,4-2.4,9.5,0.5,11.6c3.6,2.8,2.3,4.6,1.5,7.4c-2.1,7.9-0.8,15.9-0.7,24.5
			c3.2-2.2,0.4-5.9,3.4-7.1c3-1.2,2.8-3.7,2.7-6.3c-0.2-12.3-0.5-24.7-0.4-37c0-3.5-1.1-4.1-4.3-4c-8.9,0.2-17.9,0.1-26.8,0.1
			c-19.7,0-39.4,0-59.1,0c-1.8,0-4.9-1.1-4.4,2.6c2,15.4-4.4,31.4,3.6,46.3c0.8,1.5-1.1,4.9,1.7,4.6c2.1-0.2,0.7-3.3,0.9-5.1
			c0.2-1.6,0.2-3.2,0-4.8c-0.3-5.4,1.2-11-2.3-16.1c-1-1.4-1.3-4.1,1.7-4.5c2.3-0.4,2.3-1.9,2.2-3.6c-0.2-3.7,0.7-7.4-1.7-10.9
			c-0.8-1.2-0.6-5.5,1.1-4.5c3.5,2.1,5.9-0.3,8.4,0.1c2.6,0.3,4.7,2.8,7.3-0.4c0.5-0.6,1.9,0.5,2,1.8c0,1.5-0.4,2.9-1,4.4
			c-1.6,3.9-2.8,10.4,0,12c5.1,3,2.4,5.3,1.8,8.5c-1.4,7.6-0.5,15.3,0.1,23c1.7-2.9,0.9-7.2,5.3-7.6c5.8-0.5,2.9,5.7,6,7.7
			c0-8.4,2.8-16.7-1.1-24.8c-0.9-2-1.8-5.1,0.2-5.5c4.3-0.8,3.1-3.6,3.2-6c0.2-3,0-6-1.3-8.9c-0.6-1.2-0.7-3.1,0.3-4.1
			c1.7-1.6,2.1,0.6,3.1,1.3c1,0.8,2.3,0.8,3.4-0.3c1.2-1.2,3.2-1.2,3.9-0.3c1.7,2.2,2.8,2.1,4.1-0.2c0.6-1.1,1.6-1.4,2.7-1.1
			c1.5,0.4,0.9,1.7,1.1,2.6c0.3,1.9-1.3,3.4-1.3,5c-0.1,4.1-4.5,9.3,2.7,11.8c1.4,0.5,1,2.5,0.6,3.4c-3.7,7.9-1.4,16.2-1.9,24.3
			c-0.1,1-0.8,2.6,1.7,2.8c0.3-3.4-0.1-7.8,4.8-7.9C234.6,294.5,233.1,299.5,233.9,302.6z M254.8,343.3c0.3-1.4-0.6-2.1-1.8-2.7
			c-2.9-1.5-5.8-1.8-8.7-0.1c-4.9,2.8-9.6,3.1-14.7,0.2c-3.1-1.8-6.4-1.7-9.6,0.2c-4.5,2.6-9.1,2.8-13.7,0c-2.8-1.7-5.9-2.1-8.7-0.4
			c-5.1,3-10,2.9-15.3,0.3c-3.1-1.5-6.4-1.9-9.7,0.3c-1.2,0.8-1.1,1.7-1.1,2.7c0.1,1.1,0.8,1.8,1.8,1.3c4.6-2.4,8.6-0.2,12.8,1.4
			c3,1.2,6.2,1,8.9-0.5c4.4-2.4,8.4-2.3,12.7-0.1c3.6,1.8,7.3,1.8,10.8-0.1c4.3-2.3,8.6-2.1,12.8,0c3.8,1.9,7.6,1.6,11.3-0.2
			c3.1-1.5,6.2-2.6,9.6-0.7C253.6,345.4,254.8,345.3,254.8,343.3z M184.5,328.4c0-2.1,0.3-4.3-0.1-6.4c-0.5-3.2-2-5.5-5.9-5.7
			c-3.7-0.2-5.8,1.5-6.4,4.9c-0.5,2.4-0.4,4.9-0.5,7.4c-0.1,7.1,0,6.7,7,7.1c5.1,0.3,7-1.3,5.8-6.3
			C184.4,329.1,184.5,328.7,184.5,328.4z M194.9,336.9c3.9-2.3,7.2-3.3,10.7-1.2c2.5,1.5,2.6-0.3,2.6-2c0-3.6,0.1-7.1,0-10.7
			c-0.1-3.9-2.3-6.3-6.2-6.6c-3.8-0.4-5.9,1.5-6.7,5.3C194.3,326.4,194.9,331.2,194.9,336.9z M241.7,336.3c1.1-0.3,1.9-0.6,2.8-0.8
			c3.4-0.8,8.2,2,10-1.3c1.6-2.9,0.4-7.3,0.4-11.1c0-4.1-2.3-6.2-6.1-6.8c-4-0.5-5.9,1.9-6.7,5.4C241,326.5,241.5,331.3,241.7,336.3
			z M218.4,337c3.6-2.6,7.5-3.3,11.5-1.3c1.5,0.7,2.4-0.3,2.3-1.8c-0.2-4.2,0.7-8.4-1-12.5c-1.5-3.6-3.5-5.8-7.5-5
			c-4,0.7-5.2,3.8-5.3,7.4C218.3,328,218.4,332.2,218.4,337z"/>
		<path class="st3" d="M275.2,252.1c-5.4-0.2-10.2-1.4-12.4-7.2c-0.5-1.5-2-1.2-3.2-1.6c-2-0.6-3.9-1.7-3.4-4c0.5-2.6,2.7-2.9,5-2.9
			c2.9,0,4.8,2.1,7.2,3.2c2.2,1,4.3,1.6,6.6,1.6c1.2,3.3,4.4,3.5,7,4.1c14.1,2.9,27.9,6.9,42.2,8.8c6.5,0.9,12.8-0.6,19.8-1.3
			c-4.3-3.5-3.9-7.7-2.7-12.1c0.6-2,1.5-4.5,0.9-6.3c-2-5.6,1.4-8.6,5-11c3.7-2.4,7.9-4.9,12.9-3c4.3,1.6,8.9,2.9,11.1,7.3
			c11.8-9.2,13.6-23.2,17.1-36.3c1.2-4.6,0.3-9.2-4.2-12.3c-3.3-2.3-4.6-5.7-5-9.6c-0.5-5,2-9.6,6.4-11.1c6.1-2.2,11.1-1.1,13.7,3.6
			c2.7,4.8,4.9,10,1.3,15.4c-6,8.9-5.4,19.1-5.7,29c-0.2,8.7-3.6,15.9-8.2,22.7c-3.1,4.6-4.7,9.7-5,15.2c-0.1,1,0,2.4-0.6,3.1
			c-6.8,8.4-7.5,19.3-7,28.6c0.4,8-2,16.5,1.6,24.4c1.4,3-0.4,6.4-0.2,9.5c0.7,12-2.4,23.7-2,35.7c0.1,3.5,2,5.3,4.2,6.9
			c4.8,3.5,6.8,8.1,6.3,13.9c-0.3,3.7,0.9,6.2,4.4,7.7c3,1.3,4.1,3.6,3.8,6.8c-0.5,4.4-0.6,8.9-1.1,13.3c-0.5,4.4-4.1,6.8-7,9.3
			c-1.8,1.6-4.7,1.1-4.4-2.7c0.6-7-0.9-13.9-1.1-20.8c-0.1-7-4.6-12.8-9.7-15.1c-8.1-3.6-9.3-10.5-11.5-16.9
			c-1.8-5.3-3.9-10.6-3.8-16.5c0.1-5.8-4.9-6.2-9.2-6.2c-2.8,0-4.3-0.4-4.5-3.7c-0.2-3.5-3.7-4.1-6.3-4.7c-5.5-1.3-11.1-1.7-17-1.3
			c1,3.1,3.6,4,5.6,5.6c1.8,1.4,2.9,3.4,2.3,5.6c-0.5,1.9-2.5,2.1-4.4,2.3c-3.6,0.4-7.1,0.9-10.6-0.3c-1.4-0.5-2.9-0.5-4.1,0.4
			c-4.4,3.3-8.1-0.3-12.1-1.1c-1.3-0.3-1.6-2-1.2-3.2c0.6-1.8,1.7-3.4,3.8-4.1c2.6-0.9,5.6-0.3,8.2-1.9c-0.3-0.5-0.3-0.9-0.6-1
			c-3.9-1.8-8.8-3.4-8.6-8.4c0.1-4.6,5.3-5.7,8.7-7.6c8.3-4.7,17.6-6.5,26.7-8.8c4.5-1.1,7.7-3.7,10.7-6.6c3.2-3.1-0.2-6.7-0.3-10
			c-0.1-2.6-2.5-1.2-3.7-1.8c-3.6-1.6-7.1-3.4-10.5-5.2c-3-1.6-6-3.4-9.5-3.3c-12.9,0.2-23-7.1-34.1-12
			C280.5,252.8,278.1,251.2,275.2,252.1z"/>
		<path class="st1" d="M213,227.7c-19.3,0-38.6-0.2-58,0.1c-5.5,0.1-4.3-3.1-4.4-6.1c-0.1-3-0.6-5.6,4.3-5.6
			c38.6,0.2,77.3,0.2,115.9,0c4.1,0,4.9,1.6,4.4,4.9c-0.4,2.9,1.7,6.8-4.4,6.7C251.7,227.5,232.4,227.7,213,227.7z"/>
		<path class="st1" d="M231.7,203.4c-0.2,1.9-1.5,3.8-2.9,3.2c-5.5-2.2-6.5,3.2-8.9,5.4c-3.3,3-10.2,2-13.7,0
			c-5.7-3.1-1.7-8.5-4.5-11.9c2.7-2,4.1-5.8,7.9-6.4c8.1-1.3,9.2-0.9,14.2,6.5c1.1,1.6,2,1.3,3.5,0.8
			C229.6,200.1,231,201.3,231.7,203.4z"/>
		<path class="st1" d="M244.4,214.3c-1.7-0.6-4.7,2.1-5.5-0.8c-0.9-3.3-6.9-3.5-5.3-6.2c2.1-3.6-3.1-7.9,1.9-10.5c2-1,3.1-5,5.2-3.9
			c3.3,1.8,7.5-2.1,9.2,1c1.4,2.7,5.3,3,5.2,6.7C254.7,210.2,251.6,214.4,244.4,214.3z"/>
		<path class="st1" d="M181.2,214.3c-1.7,0.2-4.6,1.3-5.2-0.5c-1-3-5.5-4.3-4.8-6.2c1.4-3.3-1.7-7.5,0.4-8.8
			c2.9-1.7,3.9-6.5,6.6-5.9c3.2,0.8,7.6-1.7,8.8,0.4c1.6,3.1,6,3.5,6.1,7.4C193.4,209.6,189.6,214,181.2,214.3z"/>
		<path class="st1" d="M150.7,203.6c0-2.5,0.2-5-0.1-7.5c-0.2-2.3,1.6-2.5,2.8-3.2c1.6-0.9,2.7-0.1,3.4,1.4c0.5,1.1,0.7,2.3,2.1,2.8
			c6.3,2.1,1.7,7.4,2.7,11.1c0.3,1.1-4.2,4-6.5,6.1c-1,1-4.8,1.2-4.6-2.8C150.8,209,150.7,206.3,150.7,203.6z"/>
		<path class="st1" d="M275.3,203.6c0,2.5,0,5,0,7.5c0,1.9-0.9,3.1-2.6,3.6c-1.6,0.5-2.8-0.2-3.2-1.9l-5-12.2
			c-0.5-1.5,0.2-2.3,1.6-2.7c3-0.9,4.1-5.8,8.4-4c1.3,0.5,0.9,1.8,0.9,2.8C275.4,198.9,275.3,201.2,275.3,203.6z"/>
		<path class="st1" d="M259.1,206.7c-2,0.2-2.8-1.7-2.7-2.9c0.2-1.6,1.3-3.2,3.6-2.9c2,0.3,2.7,1.6,2.6,3.3
			C262.4,206.2,261,206.9,259.1,206.7z"/>
		<path class="st1" d="M166.3,201c1.8,0,3,0.9,3,2.8c0,1.5-0.6,2.8-2.3,3c-1.9,0.2-3.1-0.6-3.4-2.5
			C163.3,202.2,164.4,201.3,166.3,201z"/>
		<path class="st1" d="M197.9,200.9c1.8,0.2,2.7,1.3,2.5,3.2c-0.2,1.6-1,2.6-2.7,2.7c-2,0-2.9-1.1-3-2.9
			C194.6,201.8,196,201.1,197.9,200.9z"/>
		<path class="st2" d="M233.9,302.6c-0.8-3.2,0.6-8.1-4.7-8c-4.9,0.1-4.6,4.5-4.8,7.9c-2.4-0.2-1.7-1.8-1.7-2.8
			c0.6-8.1-1.8-16.4,1.9-24.3c0.4-0.9,0.8-2.9-0.6-3.4c-7.2-2.5-2.8-7.7-2.7-11.8c0-1.6,1.7-3.1,1.3-5c-0.2-1,0.3-2.3-1.1-2.6
			c-1.1-0.3-2.1,0-2.7,1.1c-1.2,2.3-2.3,2.4-4.1,0.2c-0.7-0.9-2.7-0.9-3.9,0.3c-1.1,1.1-2.4,1-3.4,0.3c-1-0.8-1.4-3-3.1-1.3
			c-1.1,1-0.9,2.9-0.3,4.1c1.4,2.9,1.5,5.9,1.3,8.9c-0.1,2.4,1.1,5.2-3.2,6c-2.1,0.4-1.2,3.5-0.2,5.5c3.9,8.1,1.1,16.4,1.1,24.8
			c-3.1-2.1-0.2-8.3-6-7.7c-4.5,0.4-3.7,4.7-5.3,7.6c-0.7-7.7-1.5-15.4-0.1-23c0.6-3.3,3.3-5.5-1.8-8.5c-2.8-1.6-1.6-8.1,0-12
			c0.6-1.5,1-2.9,1-4.4c0-1.3-1.4-2.4-2-1.8c-2.6,3.2-4.7,0.7-7.3,0.4c-2.5-0.3-5,2.1-8.4-0.1c-1.6-1-1.9,3.2-1.1,4.5
			c2.4,3.5,1.5,7.2,1.7,10.9c0.1,1.6,0.1,3.2-2.2,3.6c-3,0.5-2.7,3.1-1.7,4.5c3.5,5.1,1.9,10.7,2.3,16.1c0.1,1.6,0.2,3.3,0,4.8
			c-0.3,1.8,1.1,5-0.9,5.1c-2.9,0.2-0.9-3.1-1.7-4.6c-8-14.9-1.7-30.9-3.6-46.3c-0.5-3.7,2.6-2.6,4.4-2.6c19.7-0.1,39.4,0,59.1,0
			c8.9,0,17.9,0.1,26.8-0.1c3.1-0.1,4.3,0.5,4.3,4c-0.1,12.3,0.2,24.7,0.4,37c0,2.5,0.3,5.1-2.7,6.3c-3.1,1.2-0.2,4.9-3.4,7.1
			c-0.1-8.6-1.3-16.6,0.7-24.5c0.7-2.9,2.1-4.7-1.5-7.4c-2.8-2.2-1.3-7.7-0.5-11.6c0.3-1.5,1.6-2.9,0.3-4.5c-1.6-1.9-2.7,0.2-4,0.6
			c-0.8,0.3-1.6,1-2.1-0.3c-1.1-2.7-3-1.9-4.7-0.9c-1.3,0.7-2.9,1.4-3.7-0.1c-0.7-1.3-1.5-2.3-2.7-1.6c-1.6,1-1.2,3.2-0.7,4.4
			c1.7,3.6,1.5,7.3,1.4,11c0,1.2,0.5,2.9-1,3.3c-5.6,1.4-2.9,4.3-1.5,7.1c2,3.9,0.7,8.1,0.9,12.1c0.2,4,0,8,0,12
			C235,302.5,234.4,302.6,233.9,302.6z"/>
		<path class="st2" d="M254.8,343.3c0,2.1-1.3,2.1-2.5,1.5c-3.4-1.9-6.5-0.8-9.6,0.7c-3.7,1.8-7.5,2.1-11.3,0.2
			c-4.2-2.1-8.4-2.3-12.8,0c-3.5,1.9-7.3,1.9-10.8,0.1c-4.3-2.2-8.3-2.2-12.7,0.1c-2.7,1.4-5.9,1.6-8.9,0.5
			c-4.2-1.6-8.2-3.8-12.8-1.4c-1,0.5-1.7-0.2-1.8-1.3c-0.1-1-0.1-1.9,1.1-2.7c3.2-2.2,6.5-1.9,9.7-0.3c5.2,2.6,10.2,2.7,15.3-0.3
			c2.8-1.6,5.8-1.3,8.7,0.4c4.6,2.8,9.2,2.6,13.7,0c3.3-1.9,6.6-2,9.6-0.2c5,2.9,9.8,2.6,14.7-0.2c2.9-1.6,5.8-1.4,8.7,0.1
			C254.2,341.1,255.1,341.8,254.8,343.3z"/>
		<path class="st2" d="M184.5,328.4c0,0.4-0.1,0.7,0,1.1c1.2,5-0.7,6.6-5.8,6.3c-7.1-0.4-7.1,0-7-7.1c0-2.5,0-5,0.5-7.4
			c0.6-3.4,2.7-5.1,6.4-4.9c3.9,0.2,5.3,2.5,5.9,5.7C184.8,324,184.5,326.2,184.5,328.4z"/>
		<path class="st2" d="M194.9,336.9c0.1-5.7-0.5-10.5,0.4-15.3c0.8-3.7,2.9-5.6,6.7-5.3c3.9,0.4,6,2.8,6.2,6.6c0.1,3.6,0,7.1,0,10.7
			c0,1.7-0.1,3.5-2.6,2C202.1,333.6,198.7,334.6,194.9,336.9z"/>
		<path class="st2" d="M241.7,336.3c-0.3-5-0.7-9.8,0.4-14.5c0.8-3.4,2.7-5.9,6.7-5.4c3.8,0.5,6.1,2.7,6.1,6.8
			c0,3.8,1.2,8.2-0.4,11.1c-1.8,3.3-6.6,0.5-10,1.3C243.7,335.7,242.8,336,241.7,336.3z"/>
		<path class="st2" d="M218.4,337c0-4.8-0.1-9,0-13.2c0.1-3.6,1.3-6.7,5.3-7.4c4-0.7,6.1,1.4,7.5,5c1.7,4.2,0.7,8.4,1,12.5
			c0.1,1.5-0.8,2.5-2.3,1.8C225.9,333.8,222.1,334.4,218.4,337z"/>
		<path class="st2" d="M206.6,351.7c4.2,1.3,8.4,2,12.8-0.2c-7.2,6.1-7.2,6.1-12.7,0L206.6,351.7z"/>
		<path class="st2" d="M206.7,351.6c-2.2,0.6-4-0.9-6.6-1.3c3-1.2,5-0.9,6.5,1.4C206.6,351.7,206.7,351.6,206.7,351.6z"/>
	</g>
</g>
</svg>
