<?xml version="1.0" encoding="utf-8"?>
<!-- Generator: Adobe Illustrator 24.2.0, SVG Export Plug-In . SVG Version: 6.00 Build 0)  -->
<svg version="1.1" id="Capa_9" xmlns="http://www.w3.org/2000/svg" xmlns:xlink="http://www.w3.org/1999/xlink" x="0px" y="0px"
	 viewBox="0 0 560 555" style="enable-background:new 0 0 560 555;" xml:space="preserve">
<style type="text/css">
	.st0{fill-rule:evenodd;clip-rule:evenodd;fill:#6D1010;}
	.st1{fill-rule:evenodd;clip-rule:evenodd;fill:#B38B52;}
	.st2{fill-rule:evenodd;clip-rule:evenodd;fill:#7C5652;}
	.st3{fill-rule:evenodd;clip-rule:evenodd;fill:#1A171A;}
	.st4{fill-rule:evenodd;clip-rule:evenodd;fill:#FEFEFE;}
	.st5{fill-rule:evenodd;clip-rule:evenodd;fill:#E7DE2A;}
</style>
<g>
	<path class="st0" d="M536.4,277.4c0.1,142.8-116,257.8-258.1,256.8c-143.2-1-253.4-116.6-255.1-253.1
		C21.4,135.4,139.8,18.8,283.5,20.9C425.2,23,536.5,138.5,536.4,277.4z M531.7,277.4c0.2-136.7-109.7-249.8-248.3-251.7
		C142,23.6,25.9,138.7,27.9,281.4c1.8,133.4,109.7,246.9,250,248.1C418.2,530.6,532,417,531.7,277.4z"/>
	<path class="st1" d="M531.7,277.4C532,417,418.2,530.6,277.9,529.5c-140.3-1.2-248.2-114.7-250-248.1
		C25.9,138.7,142,23.6,283.3,25.6C421.9,27.6,531.9,140.7,531.7,277.4z M423.2,459.9c0,0.1,0,0.2,0.1,0.2c0,0,0.1,0,0.2,0
		C423.4,460.1,423.3,460,423.2,459.9c-0.9-2.8-2.9-4.7-4.8-7.3c-0.7,4.3-7.4,12.1-10.5,11.6c-2.9-0.4-3.5-4.2-5.4-6.4
		c-0.5-0.5-0.8-1.1-1.2-1.7c-0.7-0.9-0.5-1.5,0.4-2.2c5.5-3.7,10.5-8.7,18.2-6.4c-0.5-1.6-1.7-2-2.5-2.8c-1.6-1.7-2.9-1.7-4.9-0.2
		c-3.8,3-7.9,5.6-11.9,8.4c-2.4,1.7-4.9,3.4-7.3,5.2c2.5,0.2,3.7,1.8,4.8,3.4c3.1,4.4,6.1,8.8,9.2,13.2c1.8,2.5,3.7,4.9,2,8.8
		c8.1-5.7,15.6-10.9,23.1-16.1c0.9-0.6,1.4-1.3,1-2.4c-0.7-1.8-0.9-3.7-2-5.4c-1,0.5-0.8,1.6-1.1,2.3c-1.4,4.4-4,8-7.8,10.7
		c-7.4,5.2-6.7,4.6-11.4-2c-3.2-4.5-3.2-4.5,1.2-7.7c0.9-0.6,1.8-1.2,2.6-1.8C417.7,459.3,420.4,458.7,423.2,459.9z M46.8,335.2
		c-0.1,0-0.1-0.1-0.2-0.1C46.7,335.1,46.8,335.2,46.8,335.2c0.4,2.7,1.3,5.3,2.6,8.3c0.5-2.6,1.6-4.3,3.5-5.1
		c6.2-2.7,12.9-4.2,20.2-6.7c-6.5,11.3-12.5,21.7-18.6,32.3c0.7,0.2,0.9,0.3,1.1,0.2c6.1-1.9,12.3-3.8,18.4-5.7
		c3.7-1.1,7.4-3,11.8,0.3c-1.4-3.3-1.5-6-3.1-8.4c-1.8,4.4-11.8,9.3-18,8.9c3.7-6.9,7.4-13.8,11.1-20.6c2.4-4.5,2.3-7.1-0.7-11.7
		c-0.8,2.5-2.7,3.5-4.9,4.2c-4.4,1.4-8.9,2.7-13.4,4.2C53.3,336.7,50.1,336.9,46.8,335.2z M72,397.8c0-0.2,0-0.3,0-0.5
		c-0.1,0-0.2,0.1-0.4,0.1C71.8,397.6,71.9,397.7,72,397.8c1.5,3.1,3.1,6.2,4.6,9.3c0.4-2.7,1.9-4.1,4-5.2c5.8-3.1,11.5-6.1,17.3-9.2
		c1.6-0.9,3.2-1.2,5-0.1c-0.4-1.2-1-2.2-1.3-3.3c-1.1-3.5-3.4-4-6.7-3.6c-6.5,0.7-13.1,1-19.7,1.4c-0.2-1.1,0.6-1.6,1-2.2
		c4-5.5,8.1-11,12.1-16.5c0.6-0.8,1.5-1.5,0.7-2.8c-1.1-1.9-2.1-3.8-3.4-6.4c-0.3,3.1-2,4.2-3.8,5.2c-4.5,2.4-9.1,4.8-13.7,7.2
		c-2.9,1.5-5.8,2.2-9,1c-0.1,0-0.1,0-0.2-0.1c0.1,0,0.2,0,0.2,0c0.3,2.9,2.1,5,3.8,8.1c0.1-4,2.3-5.7,4.8-7.1
		c4.6-2.5,9.3-4.9,13.9-7.4c0.4-0.2,0.9-0.9,1.5,0c-0.4,0.6-0.9,1.2-1.3,1.8c-4.6,6-9.3,12-13.9,18.1c-0.5,0.6-1.5,1.4-0.9,2.2
		c0.5,0.8,1.6,0.6,2.5,0.5c4.3-0.3,8.5-0.7,12.8-0.8c4.3-0.1,8.5,0,12.8,0c-5.1,2.7-10.4,5.5-15.6,8.3
		C77.2,397.5,74.8,398.4,72,397.8z M211.2,266.2c2.8,0.6,4.9,2.9,6.8,7.1c1.7,3.5,3.3,7.1,5.5,10.3c4,5.8,8.8,7.3,14.5,2.5
		c1-0.9,2.1-1.7,3.1-2.6c0.7-0.6,1.4-1.2,2.3-0.5c4.2,3.7,8.9,7.1,10.1,13.1c0.9,4.4,2.4,8.6,5.3,12.2c0.7,0.8,1.1,1.8,1,3
		c-0.2,2.5,0.7,4.6,2.4,6.3c4,4.2,8.1,8.4,12.9,11.7c3.4,2.3,5.3,1.7,6.8-2.1c1.9-5,3.5-10.1,6.5-14.7c0.8-1.3,1.2-2.8,1.3-4.4
		c0.3-7.2,0-14.2-3.7-20.7c-4.1-7.2-3-13.7,3.2-19.4c2.1-2,3.6-4.5,4.1-7.5c0.5-2.5,1.6-4.8,3.3-6.8c4.2-5,5.2-11.4,7.1-17.4
		c0.6-1.9-0.2-3-2.6-3c-4.1,0.1-7.9,1.2-11.4,3.2c-6.1,3.5-11.3,8.6-18.4,10.5c-2.1,0.5-4,1.5-5.9,2.4c-2.9,1.3-4.3,3.6-4.4,6.9
		c-0.1,2.9,1.1,5.3,1.8,7.9c0.3,0.9,1,1.8,0,2.7c-0.8,0.7-1.9,0.6-2.8,0.2c-3.2-1.3-6.6-1.6-10-1.5c-2.4,0-4.4-0.8-5.5-3.1
		c-1.3-2.9-3.1-5.4-5.1-7.8c-1.6-1.8-1.7-3.9-0.3-5.9c1.5-2,3.4-2.4,5.7-1.2c2.4,1.3,5.1,1.5,7.7,0.9c4.7-1.1,9.4-2.3,14.1-3.5
		c5.2-1.4,9.4-4,12.2-8.8c2.2-3.8,5.1-7.1,8.2-10.3c2.7-2.9,5.3-5.9,6.6-9.9c0.4-1.3,1.1-2.5,1.9-3.6c0.8-1,1.5-2.6,3.1-2.2
		c1.4,0.4,1.3,2,1.6,3.2c0.3,1.1,0.6,2.3,0.6,3.4c0,2.2,0.6,3.8,2.9,4.6c2.2,0.8,3.8-0.4,5.3-1.6c4.9-4.2,12.3-4.9,17.4-1.1
		c2.7,2.1,5.2,2.4,8.1,0.9c4.8-2.5,10-2.5,15.3-2.7c4.1-0.1,8.1,0.3,12.2,0.2c1,0,2.2,0,2.5-1.1c0.3-1.2-1.1-1.5-1.9-1.8
		c-5.4-1.8-11-3.4-16.6-4.1c-2-0.3-4.1-0.3-6,0.8c-3.5,2-7.2,1.7-11,1.7c-3.7,0-7.4-1.3-11-0.6c-2.7,0.5-3.8-0.9-3.9-3
		c-0.2-2.4-0.8-4.6-2-6.6c-0.8-1.4-0.8-2.2,0.9-2.7c1.4-0.4,1.9-1.7,2.3-2.9c1.9-5.5,4-10.9,5.2-16.7c0.7-3.6,0.8-6.9-0.8-10.2
		c-0.9-1.7-1.3-3.4-0.4-5.3c2-4.3,1.8-8.9,1.8-13.5c0-2.4-0.8-3.2-3.4-2.6c-2.7,0.7-5.3,2.4-8.3,1.9c4.9-2.2,9.9-4.1,15.1-5.4
		c3.9-1,7.1-3,10-5.7c2.5-2.3,4.9-4.7,7.9-6.4c7.3-4.2,15.8-2.1,22.3,5.5c2.7,3.2,5.5,6.3,8.2,9.5c0.8,1,1.5,1.5,2.9,1.1
		c2.6-0.7,5.3-0.7,7.8-0.2c5.6,1,8.4,3.3,7.7,9.5c-0.3,2.5-1.1,4.7-2.2,6.9c-5.1,10.1-8.4,20.7-10.2,31.8
		c-2.3,13.8-8.2,26-18.7,35.5c-5.8,5.3-11.7,10.5-16.7,16.7c-8.4,10.4-18.1,19.6-27.4,29.2c-1.7,1.7-3.5,3.4-4.8,5.5
		c-2.4,3.6-2.1,6.8,1.3,9.2c5,3.5,6.8,8.4,7.3,14c0.6,7.7,1.2,15.3,1.6,23c0.2,4.5,0.8,9.2-0.2,13.4c-2.8,11.8-6.9,23.1-18.3,29.7
		c-2.6,1.5-5,3.5-7.6,4.8c-7.2,3.6-13,8.4-15.9,16.3c-1.4,3.8-3.1,7.6-4.3,11.5c-0.2,0.7-0.7,1.5-0.2,2.2c2.4,3.1,3.8,6.9,7.8,8.8
		c6.5,2.9,12.8,6.2,19.1,9.5c2.5,1.3,4.7,1.7,7.5,0.7c4.1-1.4,8.3-2.7,12.8-2c10.7,1.6,21.2,4,31.2,8.4c5.5,2.4,11,2.7,16.4-0.8
		c3.4-2.2,7-4.1,10.8-5.7c20.2-8.5,37.9-20.7,52.5-37.2c16.2-18.3,27.3-39.3,33.5-62.9c6.1-23.6,7.5-47.6,5.4-71.8
		c-1.3-14.2-4-28.1-8.5-41.7c-11-33.3-30.2-61.1-57.6-83.1c-35-28.1-75.3-42.2-119.9-44.2c-20.8-0.9-41.2,1.6-61.2,7.4
		c-38.3,11-69.8,32.2-94.3,63.6c-16.5,21.1-27.9,44.7-35.5,70.3c-5.6,18.8-9.7,37.9-10.4,57.6c-0.4,12.9,1.2,25.7,4.3,38.2
		c7.1,28.7,21.9,52.7,44,72.2c22.2,19.7,47.9,32.9,76.3,41c1.7,0.5,3.1,0.5,4.6-0.7c6.7-5.2,13.5-10.2,20.9-14.5
		c1.3-0.8,2.4-1.9,3.4-3.1c3.5-4.6,6.5-9.5,9.1-14.6c6.1-12.5,14.5-24.2,15-38.9c0.2-4.8,1.3-9.6-0.5-14.2
		c-1.7-4.3-2.5-8.8-2.7-13.4c-0.2-4.1,0.3-8.2,0.4-12.2c0.5-12.1-6.6-20.1-16.1-25.9c-7.3-4.4-14.8-8.6-22.3-12.8
		c-2.9-1.7-4.8-4-6.1-6.9C212.9,275,211.7,270.7,211.2,266.2z M71.5,208.4c0,1.4,0,1.9,0,2.5c-0.1,3.1,0.7,5.6,3.8,6.8
		c3.1,1.2,5.2-0.7,7.1-2.7c0.7-0.8,1.3-1.7,1.9-2.6c2.2-3.6,3.5-7.6,5.1-11.5c1-2.4,2.4-4.8,3-7.8c-1.9,1.4-3.5,1.3-5.2,0.5
		c-5.5-2.4-11.1-4.7-16.7-7c-2.6-1-4.8-2.3-5.1-5.9c-2.8,6.4-5.4,12.2-7.8,18.2c-1.3,3.2-2.2,6.7-1.5,10.3c1,5.2,6.1,7.3,10.5,4.4
		C68.4,212.4,69.6,210.6,71.5,208.4z M333,474.1c6.4-1.5,12.9-2.9,19.3-4.5c2.8-0.7,5.5-1.8,7.9-3.7c2.4-2,3.5-4.4,2.8-7.5
		c-0.8-3-3-4.4-5.9-5c-1.6-0.3-3.3-0.5-5.3-0.7c1.3-1,2.3-1.7,3.2-2.5c1.7-1.6,2.4-3.5,1.7-5.8c-0.6-2.2-2.2-3.4-4.4-3.8
		c-1.2-0.2-2.5-0.6-3.7-0.5c-7.3,0.7-14.3,3-21.6,4.9c2.3,0.7,2.9,2.5,3.3,4.5c1.4,6,2.9,11.9,4.3,17.8
		C335.2,469.8,335.4,472.2,333,474.1z M278.1,518.5c6.5-0.4,13-0.5,19.4-1.2c8.1-0.9,13.8-7.4,13.7-14.9c0-7.6-5.3-13.4-13.7-14.5
		c-6.7-0.9-13.4,0.3-21,0.6c2.6,1.3,3.2,3,3.3,4.9c0.3,6.2,0.5,12.5,0.8,18.7C280.7,514.5,280.5,516.8,278.1,518.5z M265.6,475.9
		c0.1,0.3,0.1,0.6,0.2,0.9c4.9,0,9.8,0,14.7,0c1.9,0,3.9,0.1,5.8-0.1c9.2-0.8,15.6-9.9,13.3-18.6c-1.8-6.8-7-9.9-13.4-10.9
		c-6.1-0.9-12.4-0.7-19-0.6c2.6,1.4,2.2,3.6,2.1,5.7c-0.2,5.8-0.4,11.7-0.6,17.5C268.7,472.5,268.2,474.7,265.6,475.9z M519.7,253.5
		c-1.7-7.1-2.4-14.3-5.1-21c-2.2-5.4-6.5-8.4-12.3-9c-5.7-0.6-10.3,1.5-13.5,6.4c-1.4,2.1-2.1,4.4-2.3,6.9
		c-0.5,7.9,2.6,15.1,4.3,22.7c0.8-2.2,2.4-2.8,4.3-3.3c5.8-1.3,11.6-2.6,17.3-4C515.1,251.4,517.5,251.2,519.7,253.5z M347.6,478.8
		c-0.1,0.2-0.2,0.5-0.3,0.7c2.9,0,3.5,2.1,4.3,4c2.2,5.5,4.4,11,6.6,16.5c0.9,2.2,1.2,4.4-0.2,6.7c6.8-2.8,14.1-4.6,20.3-8.5
		c5.7-3.6,7.9-11.4,5.5-17.6c-2.9-7.7-11.3-11.2-20.2-8.1C358.2,474.4,353,476.7,347.6,478.8z M141,464.9c-0.1,9.7,8.9,18.3,19,18.3
		c8.6,0,15.4-6.6,15.6-14.9c0.1-9.6-8.9-18.3-19.1-18.3C148,450,141.1,456.6,141,464.9z M73.8,309.8c0-3-0.6-5.8-1.8-8.5
		c-2.8-5.9-7.4-9.6-14.1-9.8c-5.9-0.2-10.5,2.5-13.6,7.6c-4.2,7-3,17.1,2.7,23c5.2,5.3,13.1,6.4,19.2,2.4
		C71.5,321.1,73.6,315.9,73.8,309.8z M111.5,448.7c-1.1-3.7,0.8-6.1,2.9-8.5c2.8-3.1,5.6-6.2,8.5-9.3c1-1.1,1.8-2.4,3.7-3.4
		c0,1.6,0,2.8,0,3.9c0,10,0,20.1,0,30.1c0,0.8-0.3,2,0.7,2.3c0.8,0.3,1.3-0.8,1.8-1.3c4.3-4.7,8.5-9.4,12.7-14.1
		c2.3-2.5,4.6-5,8.9-4.5c-2.1-2.4-4-4.1-6.1-5.6c0.1,8.4-7.1,11.5-10.8,17.1c-0.8-0.8-0.8-1.4-0.8-2c-0.2-7.1-0.9-14.2-0.5-21.3
		c0.3-5.4-2.9-7.7-6.8-10.8c0.8,3-0.5,4.8-2,6.5c-3.5,3.9-7,7.8-10.6,11.7c-2.1,2.3-4.5,3.8-8.3,3.2
		C107.4,445,109.4,446.8,111.5,448.7z M508.1,365.7c0.8-3,1.6-5.7,2.4-8.4c-2.5,2.1-5.1,2.3-7.9,1.5c-2.8-0.8-5.6-1.6-8.4-2.4
		c-3.1-0.9-6.2-1.8-10-2.9c11.6-5.8,22.4-11.2,33.2-16.6c-6.4-2.5-12.6-4.3-18.8-6.1c-3.8-1.1-8-1.7-10-6.5c-0.8,3.2-1.9,5.5-2,8.1
		c7.4-3.9,13.5,1.2,20.2,2.4c-7.6,4.4-15.2,8.5-22.8,12.6c-1,0.5-2.1,0.9-2.5,2.3c-0.6,2.2-1.2,4.4-1.9,6.9
		C485.2,353.7,504.8,359.9,508.1,365.7z M462.1,441.4c0.1-0.3,0.2-0.6,0.3-0.9c-4.6-4.6-9.2-9.2-13.6-14c-2.6-2.7-5.9-5.2-5.1-10.1
		c-2.5,2-4.4,3.6-6,5.8c8.5,0.2,11.2,7.7,16.7,11.8c-1,0.9-1.9,0.7-2.6,0.6c-7-0.6-14.1,0-21-0.7c-5.2-0.5-8,2.2-10.8,5.8
		c6.2,0.2,20.2,15.5,20.1,21.8c2.3-1.8,4.2-3.8,6.6-6.4c-4.2,1.3-6.6-0.7-8.9-3c-3.6-3.7-7.2-7.4-10.8-11.1
		c-0.4-0.4-1.3-0.7-0.8-1.7C438.1,440.1,450.1,440.7,462.1,441.4z M276,48.5c8,9.2,15.9,18.3,23.8,27.5c0.8-3.7,1-7,1.1-10.3
		c0.1-3.4,0-6.8,0.2-10.2c0.2-3.7-0.2-7.7,3.5-10.4c-2.8,0.1-5.4-0.6-8.2,0c3.6,3.5,4.7,12.6,2.4,20.1c-0.9-1.1-1.6-1.9-2.4-2.8
		c-4.4-4.8-8.8-9.6-13.3-14.4c-3.7-4-5.9-4.7-11.4-3.4c4,4.1,2.7,24.5-1.9,29.4c2.8,0,5.5,0,8.7,0c-3-1.8-3.7-4.3-3.6-7
		c0.1-4.6,0.2-9.2,0.3-13.7C275.2,51.7,275,50.2,276,48.5z M233.6,49c3.4,1.2,3.7,3.4,4,5.6c0.6,4,1.3,8.1,1.7,12.1
		c0.4,3.8,2.2,7.8-1.2,11.8c9.7-1.4,18.8-2.7,27.8-3.9c0.6-0.1,1.3-0.2,1.4-0.9c0.3-2.1,1.2-4.2,0.6-6.9c-4.8,6.4-11.1,8.3-18.2,8.6
		c-1.6,0.1-3.1-0.2-3.5-1.9c-0.7-3.2-1-6.5-1.5-9.8c-0.1-0.6,0-1,0.7-1.4c3.9-2,12.1-1.3,15.6,1.6c-0.4-2.9-0.8-5.6-1.2-8.8
		c-1.2,1.3-1.9,2.5-3.1,3.2c-3.6,2.1-7.7,1.8-11.6,2.5c-0.9,0.2-0.9-0.5-0.9-1.1c-0.5-3.5-1.4-7-1.2-10.6c3.3-0.8,6.7-1.2,10.1-1.5
		c0.4,0,0.8,0,1.2,0c3.5-0.1,6.4,1.3,9.2,3.8c0.1-1.7-0.7-2.6-0.9-3.6c-0.6-2.3-1.7-3.1-4.2-2.5c-3,0.7-6.2,0.9-9.2,1.3
		C244.1,47.4,239.3,48.1,233.6,49z M236.7,449c0.5-0.7,1-1.4,1.6-2c2.3-2.1,1.5-3.8-0.7-5.3c-4.8-3.5-10-6-16.2-5.7
		c-6.7,0.2-12.4,4.3-14.5,10.4c-2.3,6.7-0.6,12.9,4.9,17.3c5.2,4.1,11.3,5.5,17.9,4.8c4.4-0.5,4.8-1.3,3.8-6
		c-1.1,0.1-1.5,1.1-2.2,1.7c-2.5,2.1-5.3,3.2-8.6,2.7c-6-0.9-10.6-5.6-10.7-11.7c-0.2-5.4,1.6-10.4,5.4-14.4c3-3.2,6.8-4,11-2.5
		C233.4,440.1,236.7,443.1,236.7,449z M337.4,59.8c1.2-0.7,1.4-1.8,2.1-2.6c1.5-1.8,1.2-3.2-0.9-4.4c-5.5-3.3-11.2-5.4-17.7-4.3
		c-6.3,1-11.5,5.6-12.9,11.6c-1.6,6.8,0.4,12.5,6.1,16.4c5.7,3.9,12.1,4.7,18.7,3.4c4.1-0.8,4.8-2.3,3.1-6.5
		c-0.2,0.2-0.4,0.4-0.6,0.6c-0.3,0.3-0.5,0.6-0.7,0.9c-3.3,4-7.4,5.1-12.3,3.5c-5-1.6-7.7-5.2-8.4-10.2c-0.5-4.4,0.4-8.5,2.6-12.4
		c2.6-4.6,6.6-6.7,11-5.9C333.6,50.8,336.4,53.6,337.4,59.8z M468.2,397.3c-0.3-1.9-1.5-2.7-2.1-3.9c-0.8-1.5-1.8-1.6-3.1-0.8
		c-5.4,3.2-9.8,7.4-11.8,13.6c-2.4,7.2-0.2,14.2,5.7,18.4c6,4.2,12.8,3.9,18.9-1.1c4.4-3.5,7.2-8.2,8.4-13.7
		c1.1-4.6,0.3-5.6-4.6-5.8c0.3,0.7,0.6,1.5,0.9,2.2c4.4,8-4.3,17.7-12.4,16.2c-6.9-1.3-11.9-5.2-14.6-11.7c-1.4-3.3-0.6-6.6,1.6-9.4
		C458.5,397,462.5,394.5,468.2,397.3z M221.2,488.7c1.1-1.3,1.6-2.1,2.3-2.7c1.9-1.8,1.7-3.3-0.3-4.9c-3.8-3-7.9-5.3-12.7-6.2
		c-8.1-1.5-15.9,2.7-18.6,10.1c-2.8,7.7,0.4,15.3,8.1,19.4c4.2,2.2,8.7,3.2,13.5,3c4.8-0.2,5.5-1.2,4.4-6.1
		c-0.2,0.2-0.5,0.3-0.7,0.5c-3.3,3.5-7.2,4.9-11.9,3.2c-5-1.8-8.2-5.2-8.4-10.5c-0.3-6.4,1.9-12.1,7.1-16.2c2.7-2.1,5.8-2.6,9.1-1.4
		C218.3,478.8,221.8,482,221.2,488.7z M198.6,84c0,0.7-0.1,1.1,0,1.5c0.9,5.1-0.7,9-5.3,11.6c-4.7,2.7-9.3,2.6-13.7-0.7
		c-3.6-2.7-5.9-6.4-7.2-10.7c-1.5-4.8-0.1-9.5,3.6-12c4.6-3,8.8-4.3,13.3-0.5c0.2,0.1,0.5,0.1,0.8,0.1c0.4-1.5-0.4-2.7-0.7-4.1
		c-0.2-1.3-1-1.7-2.3-1.5c-7.4,1.3-13.8,4.3-17.6,11.1c-3.2,5.7-3.1,11.4,0.7,16.8c3.6,5.2,8.7,7.5,15,6.3
		c6.5-1.2,11.6-4.9,15.4-10.2C203.6,87.7,203.3,87.1,198.6,84z M520.8,259c-9.4,7.8-20.4,12.4-30.3,19.2c10.4,6,22.1,8.9,31.4,16.3
		c0-2.9,0-5.7,0-8.5c-1,1.4-1.9,2.6-3.7,2.6c-3.6,0-6.4-2.1-9.5-3.4c-0.6-0.3-0.5-1-0.6-1.6c-1.1-9.1-0.6-10,7.6-13.8
		c1.8-0.8,3.6-1.5,5.1,0.2C520.8,266.3,520.8,262.6,520.8,259z M85.4,418.7c0-2.1-0.4-3.6,1.1-4.6c3-1.9,6.4-2.1,9.7-2.7
		c0.7-0.1,1,0.5,1.4,0.9c6.3,6.8,6.4,7.5,1.9,15.6c-1,1.8-2,3.5-5,2.6c2.7,3.5,5,6.3,7.2,9.1c3-11.7,9.4-21.9,13.3-33.2
		c-11.9,1.4-23.1,5.7-35.4,5.2C81.6,413.9,83.3,416,85.4,418.7z M501,191.8c-1.6-3.8-3.1-7.1-4.8-11.1c-0.8,3.4-2.3,5.4-4,7.5
		c-5.2,6.4-10.3,12.8-15.4,19.2c-0.6,0.7-1.8,1.5-1.5,2.4c0.5,1.1,1.9,0.6,2.9,0.7c10.7,1.2,21.6,0.4,32.3,3.9
		c-1.3-2.9-2.4-5.5-3.6-8.1c-0.3,3.2-2.1,4.2-4.7,4.3c-1.9,0.1-3.9-0.1-5.8-0.1c-1.8,0-2.9-0.9-3.7-2.7c-3.4-8-3.5-8,2.6-14.3
		C496.9,191.9,498.4,190.5,501,191.8z M267.4,487.4c1.2,1.5,2.5,2.7,2.6,4.5c0.2,6.3-0.2,12.5-2.1,18.5c-1.5,4.9-6.2,6.7-12,5.5
		c-5.5-1.2-8.1-4.2-7.7-9.6c0.4-5.2,1.2-10.5,1.7-15.7c0.2-1.9,0.5-3.7,2.8-4.9c-3.6-0.4-6.7-0.8-10.5-1.3c2.5,1.7,2.3,3.5,2.1,5.4
		c-0.6,5.5-1.4,11-1.7,16.6c-0.3,4.7,1.7,7.5,6.1,9.2c3.3,1.3,6.8,1.7,10.3,1.7c6.2,0,9.7-2.6,11-8.7c0.6-3,0.8-6.2,1.2-9.3
		c0.5-4.1,0.6-8.2,5.5-11C273.1,488.1,270.4,487.8,267.4,487.4z M352.7,508.7c-2.3-1.5-3.9-3.3-5.5-5.2c-4.6-5.4-9.2-10.9-13.8-16.3
		c-1.5-1.7-2.7-3.7-4.7-5c-4,11.3-5.1,23.1-10.8,33.9c3.1-0.7,5.8-1.2,8.8-1.9c-3.5-1.7-4.1-2.7-3.5-6.3c0.3-1.6,0.9-3.2,1.1-4.8
		c0.3-1.9,1.3-2.6,3.3-3c8.6-1.8,8.5-1.9,13.6,5.2c1.2,1.6,2.1,3.3,0.7,5.7C345.8,510.1,349.2,509.4,352.7,508.7z M369.7,94.7
		c-1.7-3.4-1.7-7-2.1-10.4c-0.9-7.5-1.7-15.1-2.6-22.6c-0.1-1.2-0.1-2.9-2.1-1.2c-8.7,7-16.1,15.7-26.5,21.2
		c2.9,1.1,5.5,2.1,8.7,3.4c-0.8-1.2-1.2-1.7-1.4-2.3c-0.7-2.1,0.4-3.7,1.9-4.8c2.2-1.7,3.6-5.9,7.1-4.4c10.3,4.2,8.5,0.6,9.2,12.1
		c0.1,2.1,0.1,4-2.7,5C363.1,92,366.4,93.4,369.7,94.7z M48.7,225.2c1.4-0.8,2.3-2,3.8-1.6c3.7,0.9,6.1,3.7,8.8,6.1
		c0.3,0.3,0.1,1.1,0.1,1.7c-1.5,9.2-1.8,9.5-10.8,11.2c-2.1,0.4-4.1,0.5-5.3-2c-0.9,4-1.7,7.6-2.5,11.2c2.6-1.9,5.3-2.5,8.1-3.2
		c7.8-2.1,15.6-4.3,23.3-6.5c0.8-0.2,2-0.1,2.2-1.1c0.2-1-0.9-1.4-1.6-1.9c-8-7.3-17.4-13.1-24.3-22.1
		C49.9,219.9,49.3,222.6,48.7,225.2z M490.6,402.6c1.4-2.8,2.6-5.3,3.8-7.9c-2.5,1.8-4.5,1-6.2-0.8c-1.7-1.8-3.3-3.9-4.7-6
		c-0.9-1.3,3.7-10.3,5.2-10.6c0.1,0,0.2,0,0.3,0c2.7,0,5.5,0,8.2,0.1c1.9,0.1,3.6,0.7,4.1,3.3c1.8-3.7,3.4-7.1,5-10.4
		c-11.9,2.5-23.8,1-35.7,2.4C477,382.9,485.8,391.2,490.6,402.6z M197,60.9c2.1,0.9,2.6,2.7,3.2,4.4c1.8,5.1,3.5,10.1,5.4,15.1
		c1.6,4.2,4.2,5.9,8.7,6c4.5,0,8.6-1.4,12.5-3.6c4.3-2.5,6-6.3,4.8-11.2c-0.8-3.1-2-6.1-2.9-9.2c-1.3-4-3.4-7.9,0-12.6
		c-3.4,1.2-5.8,2-8.7,3.1c2.5,0.9,4.4,2.2,5.2,4.4c1.9,4.9,4,9.7,5.1,14.9c1.1,5.5-1.7,9.4-8,11.3c-5.7,1.7-9.7-0.2-11.7-5.6
		c-1.8-4.8-3.4-9.8-5.1-14.6c-0.7-1.8-0.8-3.5,0.5-5.5C202.6,58.9,199.8,59.9,197,60.9z M520.9,306c-1.5,2.8-3.9,2.5-6.3,2.2
		c-6.1-0.6-12.2-1.3-18.3-2c-4.4-0.6-4.9-1.7-3.3-5.9c0.7-1.8,1.7-3.3,3.1-4.6c0.9-0.8,1.8-1.6,2.8-2.5c-2.1-0.3-3.7,0.1-5.4,0.3
		c-1.1,0.1-1.5,0.7-1.6,1.7c-1,8.7-1.9,17.4-2.9,26.1c-0.1,0.8-0.3,1.8,0.9,2.2c1.7,0.6,3.3,1.7,5.5,1.9c-0.9-1.3-1.6-2.4-2.2-3.4
		c-1.5-2.4-2.2-5-1.9-7.8c0.2-1.9,0.9-2.8,3-2.6c6.5,0.8,13,1.4,19.4,2.1c2.5,0.3,4.8,0.7,6,4.3C520.1,313.5,520.5,309.8,520.9,306z
		 M48.2,287.7c-4.4-5.2-6.2-10.8-5.1-17.4c0.6-3.6,1.2-4.3,4.9-4.2c5.6,0.2,11.3,0.4,16.9,0.8c2.4,0.2,5.1-0.1,7,2.7
		c0.1-3.7-0.1-6.8,0.5-10c-1.9,2.2-4.3,2-6.6,1.8c-5.7-0.3-11.5-0.7-17.2-1c-2.5-0.1-4.8-0.5-6.1-3.2c-0.7,9-1.1,17.9-1.6,26.8
		c-0.1,0.9,0.4,1.4,1.2,1.7C44.2,286.4,46.2,287,48.2,287.7z M238.8,483.3c-3-0.7-5.9-1.3-8.8-1.9c1.3,1.7,1.1,3.4,0.7,5.2
		c-1.4,5.8-2.6,11.6-3.9,17.4c-0.6,2.6-0.8,5.4-3.9,6.6c3.5,0.5,6.5,2,9.9,2.1C230.9,508.9,235.5,486.7,238.8,483.3z M379.8,461.2
		c2-0.1,2.9-1.2,2.9-3c0-1.7-1.3-2.6-2.8-2.7c-1.8,0-2.8,1.2-2.8,3C377,460.3,378.2,461,379.8,461.2z M316.5,476.4
		c1.8,0.1,2.8-1.1,2.9-2.7c0.1-1.8-1.1-3-2.9-2.9c-1.6,0.1-2.7,1.1-2.7,2.9C313.8,475.4,314.8,476.3,316.5,476.4z M249.4,468.6
		c-1.3,0.1-2.4,0.9-2.4,2.6c-0.1,1.7,0.9,2.8,2.6,2.9c1.9,0.1,3-1,3-2.8C252.6,469.7,251.6,468.6,249.4,468.6z"/>
	<path class="st2" d="M309.1,150.3c3,0.5,5.5-1.2,8.3-1.9c2.6-0.6,3.4,0.2,3.4,2.6c0.1,4.6,0.2,9.2-1.8,13.5
		c-0.9,1.9-0.5,3.6,0.4,5.3c1.7,3.3,1.6,6.7,0.8,10.2c-1.1,5.7-3.3,11.2-5.2,16.7c-0.4,1.2-0.9,2.5-2.3,2.9
		c-1.7,0.5-1.8,1.3-0.9,2.7c1.2,2,1.8,4.2,2,6.6c0.1,2.1,1.2,3.5,3.9,3c3.7-0.7,7.3,0.6,11,0.6c3.8,0,7.5,0.3,11-1.7
		c1.9-1.1,4-1.1,6-0.8c5.7,0.7,11.2,2.3,16.6,4.1c0.8,0.3,2.2,0.6,1.9,1.8c-0.3,1-1.5,1-2.5,1.1c-4.1,0.1-8.1-0.3-12.2-0.2
		c-5.3,0.2-10.5,0.2-15.3,2.7c-2.8,1.5-5.3,1.1-8.1-0.9c-5-3.8-12.4-3.1-17.4,1.1c-1.5,1.2-3,2.4-5.3,1.6c-2.2-0.8-2.8-2.4-2.9-4.6
		c0-1.1-0.3-2.3-0.6-3.4c-0.3-1.2-0.2-2.8-1.6-3.2c-1.6-0.4-2.4,1.1-3.1,2.2c-0.8,1.1-1.5,2.3-1.9,3.6c-1.2,4-3.8,7-6.6,9.9
		c-3,3.2-6,6.5-8.2,10.3c-2.8,4.8-7,7.5-12.2,8.8c-4.7,1.2-9.4,2.4-14.1,3.5c-2.6,0.6-5.2,0.4-7.7-0.9c-2.3-1.2-4.2-0.7-5.7,1.2
		c-1.5,2-1.3,4.1,0.3,5.9c2,2.4,3.9,4.9,5.1,7.8c1,2.3,3.1,3.2,5.5,3.1c3.5-0.1,6.8,0.3,10,1.5c0.9,0.4,1.9,0.5,2.8-0.2
		c1-0.8,0.3-1.8,0-2.7c-0.8-2.6-1.9-5.1-1.8-7.9c0.1-3.3,1.5-5.6,4.4-6.9c1.9-0.9,3.9-1.8,5.9-2.4c7.1-1.9,12.3-7,18.4-10.5
		c3.5-2,7.3-3.1,11.4-3.2c2.4,0,3.2,1,2.6,3c-1.9,6-2.9,12.4-7.1,17.4c-1.7,2-2.8,4.3-3.3,6.8c-0.6,3-2,5.6-4.1,7.5
		c-6.2,5.7-7.2,12.2-3.2,19.4c3.6,6.5,3.9,13.5,3.7,20.7c-0.1,1.6-0.5,3.1-1.3,4.4c-3,4.5-4.6,9.7-6.5,14.7
		c-1.4,3.7-3.4,4.3-6.8,2.1c-4.9-3.3-8.9-7.5-12.9-11.7c-1.7-1.8-2.6-3.8-2.4-6.3c0.1-1.1-0.4-2.1-1-3c-2.9-3.6-4.4-7.7-5.3-12.2
		c-1.2-6-5.9-9.4-10.1-13.1c-0.8-0.8-1.6-0.2-2.3,0.5c-1,0.9-2.1,1.8-3.1,2.6c-5.7,4.8-10.4,3.3-14.5-2.5c-2.2-3.2-3.8-6.8-5.5-10.3
		c-2-4.2-4-6.4-6.8-7.1c-0.6-1-1.1-2-1.7-2.9c-0.4-0.6-1-0.6-1.5-0.5c-4,0.8-8.1,0.1-12.1,0.7c-3.1,0.5-6,0.7-8.6-1.3l0,0
		c-0.2-0.2-0.3-0.4-0.5-0.6c-3.1-0.6-4.7-3-6.4-5.2c-4.5-5.5-7.8-11.8-12.4-17.2c-2.5-3-3.5-7-3.3-10.6c0.3-6.6,1.7-13.2,3.5-19.6
		c0.3-1.1,0.4-2.4,2-2.4c1.8-0.4,2.5,1.7,4.1,1.8c0.1,0.3,0.2,0.5,0.2,0.8c0.1,0,0.1-0.1,0.2-0.1c-0.1-0.2-0.3-0.4-0.4-0.6
		c0-0.7,0-1.4-0.6-1.9c-2-1.8-1.2-3.9-0.4-5.9c0.4-1,1-1.9,1.6-2.8l0,0c0.1-0.1,0.2-0.1,0.2-0.1c0-0.2-0.1-0.3-0.2-0.4
		c3.7-2.5,8-2.5,12.2-2.3c2.1,0.1,2.5-0.7,1.9-2.4c1.4,0.4,2.5,1.4,3.7,2.3c3.7,2.8,7.8,4.3,12.5,4.2c2.2-0.1,4.6-0.3,6.7,0.1
		c7.2,1.5,14.4,1.9,21.7,1.6c5.5-0.2,10.5,1.1,14.9,4.2c5.7,4,10,2.7,14.1-1.5c6-6,12.9-7.4,20.8-5.6c4.7,1,9.5,1.9,14.3,2.6
		c3.2,0.5,5.8-0.8,5.9-2.7c0.3-3.6-5.1-8.4-8.5-7.2c-4.3,1.5-8.4,1.1-12.5-0.5c-4.4-1.8-8.9-2.6-13.7-1.4c-2.3,0.6-4.5,1.2-6.8,1.7
		c-7.7,1.5-15.2,0-22.9-0.9c-5-0.6-10.1-0.8-14.7,2.1c-2.9,1.8-6.2,2.5-9.8,2.4c-4.5-0.1-8.6-1.5-12.8-2.5
		c-5.2-1.3-10.1-3.3-15.1-5.1c-1.5-3.5-2.1-7.3-3.6-10.8c-1.4-3.2-0.1-5,2.3-6.6c6.9-4.5,14.2-8.4,22-11.4c0.5,0,1,0,1.3-0.6l0,0
		c6.4-0.9,12.5-2.8,18.8-4.1c3-0.3,5,1.2,6.5,3.6c2.1,3.3,3.9,3.9,7.6,3.2c5.1-1.1,10.2-2.1,15.4-3.1c3.9,0.5,7.7-0.2,11.5-0.6
		c0.2,0,0.4-0.4,0.5-0.6c1.3-0.1,2.5,0.4,4,0.1c3.9-0.7,7.4-2.2,10.9-3.9c1.4-0.7,2.4-0.9,4-0.2c5.1,2.1,10.3,3.1,15.8,0.7
		C305.5,151.1,307.2,150.3,309.1,150.3z M245.1,233.7c0-1.2,0.1-1.5,0-1.7c-1.8-6.7-6.4-11.9-9.6-17.9c-2.7-5-4.9-5.6-9.4-1.8
		c-3.8,3.2-6.5,2.9-9.9-0.6c-1.3-1.3-2.4-2.8-3.7-4.1c-1.6-1.6-3.2-2.4-5.3-0.4c-1.7,1.7-3.9,2-6.2,1c-1.8-0.8-3.6-1.4-5.2-2.5
		c-1.9-1.3-3.8-1.1-5.7,0.2c-1.1,0.8-1,1.2,0,1.8c2.5,1.5,3.7,4,4.9,6.4c1.2,2.5,0.3,3.9-2.5,4.1c-1.7,0.1-3.5,0-5.3,0
		c-2.4,0-3.2,1.1-1.7,3c2.5,3.2,5.4,5.9,9.9,5.8c3.6,0,7.2-0.1,10.8,0.5c3.4,0.6,5,1.9,5.6,5.3c0.2,1.3,0.8,2.4,1.5,3.4
		c1.5,2,3.5,1.8,4.5-0.5c0.5-1.1,0.8-2.4,1.1-3.6c0.5-2.3,1.4-3.4,4.1-2.4c3.3,1.2,6.8,2.1,10.2,0.6
		C237.8,228.5,241.7,229,245.1,233.7z M276.9,282c-0.5-2-1-4-1.5-5.9c-1.2-4.5-4.1-6.1-8.6-4.9c-2.2,0.6-4.5,0.5-6.6,0
		c-1.6-0.4-3.1,0-4.6,0.3c-1.2,0.2-1.6,0.9-1.3,2.1c1.1,4.9,2.1,9.7,5.3,13.7c2.5,3.2,4.5,6.8,5.4,10.9c0.6,2.5,1.5,4.8,2.8,7
		c1.1,1.9,2.5,3.7,2.2,6.2c-0.1,1,0.7,1.8,1.7,2.1c0.9,0.2,1.5-0.4,1.9-1.1c2.6-4.8,4.6-9.8,2.9-15.3c-1.4-4.7-1.4-9.1,0-13.7
		C276.6,283,276.8,282.5,276.9,282z M172.6,230.9c-3.4,5.1-3.4,5.7,0.7,9.1c2.1,1.8,4.7,3.1,6.4,5.4c1.1,1.5,2.2,3.1,3.6,5.1
		c1.5-4.4,4.2-6.6,7.9-7.8c2.1-0.7,4.3-1.3,6.4-1.8c0.9-0.2,2.3,0.1,2.2-1.2c-0.1-1-1.5-1-2.4-1.1c-4.3-0.3-8.5-0.3-12.8-0.7
		c-4.6-0.4-9.5-0.4-11.4-6C173.1,231.7,172.9,231.4,172.6,230.9z M200.4,248c-6.1,0-6.5,0.4-6,6.1c0.4,4.4,0.4,4.4,4.7,3.9
		c0.7-0.1,1.4,0,2,0c4.1-0.3,7.7-1.9,11.3-3.5c1.2-0.6,1.9-2.3,0.6-2.6C208.7,250.7,205,247.3,200.4,248z"/>
	<path class="st0" d="M189.2,192.3c0.6,1.8,0.1,2.6-1.9,2.4c-4.2-0.3-8.5-0.2-12.2,2.3c0,0.2,0,0.4-0.1,0.6l0,0
		c-3.4,1.9-3.7,5.6-4.7,8.8c-1.6,0-1.7,1.4-2,2.4c-1.8,6.4-3.2,13-3.5,19.6c-0.2,3.6,0.8,7.6,3.3,10.6c4.6,5.4,7.9,11.8,12.4,17.2
		c1.8,2.1,3.4,4.6,6.4,5.2c0.2,0.2,0.3,0.4,0.5,0.6l0,0c0.2,1.6,1.3,2.2,2.8,2.4c6.6,0.8,13.1-0.1,19.5-1.2c0.6,1,1.1,2,1.7,2.9
		c0.4,4.5,1.7,8.8,3.5,12.9c1.3,2.9,3.2,5.2,6.1,6.9c7.4,4.3,14.9,8.4,22.3,12.8c9.6,5.7,16.7,13.7,16.1,25.9
		c-0.2,4.1-0.6,8.2-0.4,12.2c0.2,4.6,1,9,2.7,13.4c1.8,4.5,0.7,9.4,0.5,14.2c-0.5,14.7-8.9,26.3-15,38.9c-2.5,5.2-5.5,10.1-9.1,14.6
		c-1,1.3-2.1,2.4-3.4,3.1c-7.4,4.3-14.2,9.3-20.9,14.5c-1.5,1.2-2.9,1.2-4.6,0.7c-28.4-8.1-54.1-21.3-76.3-41
		c-22-19.6-36.9-43.5-44-72.2c-3.1-12.5-4.7-25.3-4.3-38.2c0.7-19.7,4.8-38.8,10.4-57.6c7.6-25.5,19.1-49.2,35.5-70.3
		c24.5-31.4,56-52.6,94.3-63.6c20-5.8,40.5-8.3,61.2-7.4c44.6,2,84.9,16.1,119.9,44.2c27.4,22,46.6,49.8,57.6,83.1
		c4.5,13.5,7.2,27.4,8.5,41.7c2.2,24.3,0.7,48.3-5.4,71.8c-6.1,23.6-17.2,44.6-33.5,62.9c-14.6,16.5-32.3,28.7-52.5,37.2
		c-3.8,1.6-7.4,3.6-10.8,5.7c-5.5,3.4-10.9,3.2-16.4,0.8c-10-4.4-20.4-6.8-31.2-8.4c-4.5-0.7-8.7,0.6-12.8,2c-2.7,1-5,0.6-7.5-0.7
		c-6.3-3.3-12.6-6.6-19.1-9.5c-4-1.8-5.4-5.7-7.8-8.8c-0.6-0.7,0-1.5,0.2-2.2c1.2-3.9,2.9-7.7,4.3-11.5c2.8-7.9,8.7-12.7,15.9-16.3
		c2.7-1.3,5-3.3,7.6-4.8c11.4-6.7,15.5-17.9,18.3-29.7c1-4.3,0.4-8.9,0.2-13.4c-0.4-7.7-1-15.3-1.6-23c-0.5-5.6-2.3-10.5-7.3-14
		c-3.5-2.4-3.7-5.6-1.3-9.2c1.3-2.1,3.1-3.7,4.8-5.5c9.3-9.5,19.1-18.8,27.4-29.2c5-6.2,10.9-11.4,16.7-16.7
		c10.5-9.6,16.4-21.7,18.7-35.5c1.8-11.2,5.2-21.8,10.2-31.8c1.1-2.2,1.9-4.5,2.2-6.9c0.8-6.2-2.1-8.5-7.7-9.5
		c-2.6-0.5-5.3-0.5-7.8,0.2c-1.4,0.4-2.1-0.1-2.9-1.1c-2.7-3.2-5.4-6.4-8.2-9.5c-6.6-7.6-15.1-9.7-22.3-5.5c-3,1.7-5.4,4.1-7.9,6.4
		c-2.9,2.7-6.1,4.7-10,5.7c-5.2,1.4-10.2,3.3-15.1,5.4c-1.9,0-3.6,0.8-5.2,1.5c-5.4,2.4-10.7,1.4-15.8-0.7c-1.6-0.6-2.6-0.4-4,0.2
		c-3.5,1.7-7,3.2-10.9,3.9c-1.4,0.3-2.7-0.2-4-0.1c-4.1-0.5-8.1,0.4-12,1.2c-5.1,1-10.2,2-15.4,3.1c-3.6,0.8-5.5,0.1-7.6-3.2
		c-1.5-2.4-3.5-3.9-6.5-3.6c-6.9-1.5-12.9,0.8-18.8,4.1l0,0c-0.5,0-1,0.1-1.3,0.6c-7.7,3-15,6.9-22,11.4c-2.4,1.5-3.6,3.3-2.3,6.6
		c1.5,3.5,2.1,7.3,3.6,10.8C187.8,188.1,188.5,190.2,189.2,192.3z M377.1,219.2c-0.9,0.2-1.3,0.8-1.2,1.7c-0.8,2-2,3.8-3.4,5.5
		c-2.4,1.4-3.6,3.9-5.3,5.9c-5.9,6.7-13.6,11.4-19,18.7c-7.5,10-16.9,18.4-25.6,27.4c-2.3,2.4-4.7,4.8-6.8,7.4
		c-1.5,1.8-1.2,2.7,0.6,3.9c4.9,3.5,7.3,8.5,8,14.2c1.3,9.8,1.8,19.7,1.8,29.6c0,0.8-0.1,1.6,0.4,2.2c0,0.6,0,1.1,0.1,1.7
		c-0.5,5.6-1.2,11.1-3.4,16.3c-3,7.2-6,14.4-12.4,19.4c-4.7,3.7-9.6,7-14.8,10c-2.9,1.7-6.2,2.7-8.2,5.7c-2.2,3.3-4.3,6.7-5.3,10.6
		c-0.9,3.4-4.4,6.8-0.4,10.6c1,0.9,2,1.8,3.2,2.4c4.3,2.1,8.6,4.2,12.8,6.4c4.3,2.2,8.3,5,13.7,2.1c2.3-1.2,5.6-2.2,8.7-1.3
		c5.6,1.6,11.4,1.6,17,3.2c5.5,1.6,10.9,3.3,16.2,5.4c4.4,1.8,8.5,2.6,13.2,0c3.6-2,7.1-4.1,11-5.7c13-5.5,25.1-12.5,36-21.6
		c8.3-6.9,16-14.5,22.5-23.1c8.3-11.1,15-23.3,20.1-36.3c2.9-7.3,5-14.9,6.9-22.5c2.7-11.1,3.6-22.4,4.2-33.7
		c0.7-14,0.3-28.1-1.8-41.9c-1.9-12.3-5.2-24.4-9.6-36.1c-5.2-13.9-12.2-26.9-20.8-39C425.2,154.1,413,141.7,399,131
		c-9.6-7.4-19.9-13.8-30.8-19.2c-8.7-4.2-17.4-8.2-26.8-10.9c-4.2-1.2-8.4-2.6-12.6-3.8c-4.5-1.3-9.1-2.1-13.6-3
		c-3.5-0.7-7.1-1.1-10.6-1.6c-7.4-1-14.8-1.7-22.2-2c-12.5-0.4-24.8,1.2-37.2,3.2c-6.3,1-12.4,2.4-18.5,4c-8,2.1-15.8,5-23.4,8.3
		c-14.2,6.2-27.5,14-39.6,23.9c-9.5,7.7-18.1,16.4-26,25.8c-9,10.7-16.4,22.3-22.9,34.6c-6.3,12-11.1,24.6-15.1,37.4
		c-2.3,7.5-4.2,15.1-5.9,22.7c-1.3,5.8-2,11.8-3,17.7c-1.1,6.7-1.8,13.6-1.5,20.3c0.3,9.6,1.1,19.2,3.2,28.6
		c1.9,8.6,4.2,17.1,8,25.1c-0.7,8,1.9,14.8,8,20c1.9,1.6,4.1,3,6.1,4.4c-0.7,0.7-0.1,1.2,0.3,1.7c10.9,14.5,23.8,26.8,38.9,36.9
		c16.9,11.4,35.1,19.7,54.5,25.6c1.2,0.4,2.5,0.3,3.8-0.6c6.1-4.4,12-9,18.6-12.8c1.8-1,3.2-2.4,4.4-4.1c5.2-7.4,9.2-15.4,13.1-23.4
		c3-6.1,6.8-11.9,8-18.8c0.4-2.7,0.5-5.4,1.5-8c0.8-1,3.1,0.1,3-2.3c-0.2-2.6-0.1-5.2-0.1-7.8c0-1-0.2-1.7-1.4-1.5
		c-2,0.2-3.1-0.7-3.5-2.6c-0.7-3.3-1.8-6.5-1.6-10c0.2-5.5,0.4-11.1,0.3-16.6c0-7.7-4.9-13.6-11.1-17.7c-8.1-5.4-16.9-9.7-25.3-14.8
		c-2.5-1.5-4.6-3.3-6-5.7c-2.4-4.1-4.3-8.4-4.8-13.3c-0.2-2.2-1.1-3.3-3.4-2.1c-5.5,1-11,0.9-16.5,0c-1.4-0.6-2.8-1.1-3.7-2.6
		c-1.5-2.7-3-5.4-4.7-8.1c-3-4.9-6.1-9.7-11.1-13c-5.3-3.5-7.4-8.8-7.6-14.9c-0.2-7.8,2-15.1,4-22.5c1.2-4.3,2.8-8.4,5.2-12.2
		c2.6-4.1,7-4.9,11.3-5.6c1.6-0.3,2-0.8,1.6-2.2c-1.4-4.3-2.7-8.6-4.1-12.9c-0.3-0.9-0.3-1.7-0.1-2.5c0.8-3,2.6-5.2,5.1-6.9
		c10-7,20.7-13,32.2-17c3.2-1.1,6.8-1.9,10.2-1.5c4.1,0.5,7.9,2,10.1,5.9c0.2,0.3,0.5,0.6,0.9,0.7c3.9,0.7,8,0.8,11.8-0.2
		c6.6-1.8,13.2-3.7,20.1-3.1c5.6,0.5,10.4-1.5,14.9-4.4c2.1-1.4,3.6-1.4,5.6,0.1c3.7,3,7.9,3.3,12.3,1.6c5.1-1.9,10.2-3.8,15.3-5.5
		c6-2,12.2-3.4,16.5-8.6c1.7-2.1,4.1-3.5,6.4-4.9c6.2-3.6,12.4-3.9,19-0.9c6.2,2.8,10.2,7.8,14.3,12.9c1.5,1.8,2.8,3.1,5.3,2.8
		c3.7-0.5,7.4,0.1,10.8,1.7c7.8,3.8,8.4,9.9,6.4,17.2c-1.6,5.6-5,10.5-6.8,16.1c-1,3.2-2.6,6.3-3.1,9.6c-1.3,7.9-2.9,15.6-5.5,23.1
		C378.9,213.8,376.9,216.1,377.1,219.2L377.1,219.2z"/>
	<path class="st3" d="M59.1,372.7c3.2,1.2,6.1,0.5,9-1c4.6-2.4,9.1-4.8,13.7-7.2c1.8-1,3.5-2.1,3.8-5.2c1.4,2.6,2.3,4.5,3.4,6.4
		c0.8,1.3-0.1,2-0.7,2.8c-4,5.5-8.1,11-12.1,16.5c-0.4,0.6-1.2,1.1-1,2.2c6.6-0.5,13.1-0.7,19.7-1.4c3.3-0.4,5.6,0.2,6.7,3.6
		c0.3,1.1,1,2,1.3,3.3c-1.8-1.1-3.4-0.8-5,0.1c-5.7,3.1-11.5,6.1-17.3,9.2c-2.1,1.1-3.6,2.5-4,5.2c-1.5-3.1-3.1-6.2-4.7-9.3l0,0
		c2.7,0.5,5.1-0.3,7.5-1.6c5.2-2.8,10.4-5.5,15.6-8.3c-4.3,0-8.5-0.1-12.8,0c-4.3,0.1-8.5,0.6-12.8,0.8c-0.9,0.1-2,0.3-2.5-0.5
		c-0.5-0.9,0.4-1.6,0.9-2.2c4.6-6,9.2-12,13.9-18.1c0.5-0.6,0.9-1.2,1.3-1.8c-0.6-0.9-1.1-0.2-1.5,0c-4.7,2.4-9.3,4.8-13.9,7.4
		c-2.5,1.4-4.7,3.1-4.8,7.1C61.3,377.7,59.5,375.5,59.1,372.7L59.1,372.7z"/>
	<path class="st3" d="M71.5,208.4c-1.9,2.3-3.1,4-4.9,5.2c-4.5,2.9-9.5,0.8-10.5-4.4c-0.7-3.6,0.2-7,1.5-10.3
		c2.4-5.9,5.1-11.8,7.8-18.2c0.2,3.6,2.4,4.9,5.1,5.9c5.6,2.2,11.2,4.6,16.7,7c1.7,0.7,3.3,0.9,5.2-0.5c-0.6,3-2,5.4-3,7.8
		c-1.6,3.9-2.9,7.9-5.1,11.5c-0.5,0.9-1.2,1.8-1.9,2.6c-1.9,2.1-4,3.9-7.1,2.7c-3.2-1.2-4-3.8-3.8-6.8
		C71.5,210.3,71.5,209.7,71.5,208.4z M65.5,209c2.6,0,4.3-1.5,5.8-3.4c2.2-2.8,3-6.3,4.5-9.4c0.4-0.8,0.1-1.2-0.7-1.5
		c-3.1-1.3-6.2-2.7-9.4-3.9c-1.4-0.5-2.8-0.3-3.4,1.3c-1.2,2.9-2.6,5.7-3.5,8.6C57.5,205.1,60.8,209,65.5,209z M73.8,206.8
		c0.2,2.3,1.2,4.3,3.7,5.2c2.4,0.9,4.5,0.1,6-1.8c2.2-2.7,3-6.1,4.4-9.2c0.5-1.1-0.4-1.3-1.1-1.6c-2.6-1.1-5.2-2.2-7.8-3.3
		c-0.8-0.3-1.5-0.6-1.9,0.4C75.7,199.9,74,203,73.8,206.8z"/>
	<path class="st3" d="M333,474.1c2.3-1.9,2.2-4.3,1.6-6.8c-1.5-5.9-2.9-11.9-4.3-17.8c-0.5-2-1-3.7-3.3-4.5
		c7.3-1.9,14.2-4.2,21.6-4.9c1.2-0.1,2.5,0.2,3.7,0.5c2.1,0.4,3.7,1.5,4.4,3.8c0.6,2.3,0,4.2-1.7,5.8c-0.9,0.8-1.9,1.5-3.2,2.5
		c2,0.3,3.7,0.4,5.3,0.7c2.9,0.5,5.1,2,5.9,5c0.8,3.1-0.4,5.5-2.8,7.5c-2.3,1.9-5,3-7.9,3.7C345.9,471.2,339.4,472.7,333,474.1z
		 M348.4,454.7c-2.9,0.4-6.2,1.3-9.5,2.1c-0.9,0.2-0.9,0.7-0.7,1.5c0.8,3.3,1.6,6.6,2.5,9.9c0.5,1.8,1.7,2.4,3.6,1.8
		c2.2-0.7,4.6-1,6.8-1.6c4.2-1.2,6.3-3.9,5.8-7.2C356.3,456.9,353.5,454.7,348.4,454.7z M344.4,442.2c-2.6,0.2-5.5,1.2-8.4,1.8
		c-1.3,0.3-1.1,1-0.9,1.9c0.7,2.6,1.3,5.3,1.9,7.9c0.2,0.9,0.4,1.8,1.6,1.5c3.2-0.7,6.5-1.1,9.3-3c2.3-1.5,3.6-3.5,2.7-6.4
		C349.8,443,347.6,442.2,344.4,442.2z"/>
	<path class="st3" d="M278.1,518.5c2.4-1.7,2.6-4,2.5-6.4c-0.2-6.2-0.5-12.5-0.8-18.7c-0.1-1.9-0.7-3.6-3.3-4.9
		c7.7-0.3,14.3-1.5,21-0.6c8.4,1.1,13.7,6.8,13.7,14.5c0,7.5-5.6,13.9-13.7,14.9C291.1,518,284.6,518.1,278.1,518.5z M290.3,489.3
		c-0.3,0-1.5,0.1-2.7,0c-1.9-0.1-2.6,0.6-2.4,2.6c0.4,7,0.8,14,1.1,20.9c0.1,2.2,1.1,3.4,3.4,3.6c7.3,0.5,14.4-1.9,15.1-11.4
		C305.4,494.2,300.9,488.1,290.3,489.3z"/>
	<path class="st3" d="M265.6,475.9c2.6-1.2,3.2-3.5,3.2-6c0.1-5.8,0.4-11.7,0.6-17.5c0.1-2.1,0.5-4.4-2.1-5.7
		c6.6-0.2,12.8-0.4,19,0.6c6.4,1,11.6,4.1,13.4,10.9c2.4,8.8-4.1,17.8-13.3,18.6c-1.9,0.2-3.9,0.1-5.8,0.1c-4.9,0-9.8,0-14.7,0
		C265.7,476.6,265.7,476.3,265.6,475.9z M275.1,466c-0.2,0-0.4,0-0.7,0c0,2,0,4.1,0,6.1c0,1.3,0.6,2.2,1.8,2.7
		c6.3,2.8,14.6-1,16.6-7.6c0.7-2.4,1-5,0.9-7.5c-0.3-6.8-3.4-10.4-10.1-11.4c-2.2-0.3-4.5-0.2-6.7-0.3c-1.4-0.1-1.8,0.5-1.8,1.9
		C275.2,455.3,275.1,460.7,275.1,466z"/>
	<path class="st3" d="M519.7,253.5c-2.2-2.3-4.6-2.1-7.3-1.4c-5.8,1.4-11.5,2.7-17.3,4c-1.9,0.4-3.5,1.1-4.3,3.3
		c-1.7-7.6-4.7-14.8-4.3-22.7c0.1-2.5,0.9-4.8,2.3-6.9c3.2-4.9,7.8-6.9,13.5-6.4c5.8,0.6,10.1,3.6,12.3,9
		C517.3,239.2,518,246.4,519.7,253.5z M488.1,241.3c-0.2,2.6,1.1,5.2,1.4,8c0.2,1.8,1.1,2.1,2.8,1.6c6.6-1.6,13.2-3.1,19.9-4.6
		c3.4-0.8,4.1-1.9,3.5-5.4c-1.7-9.7-7.9-13.5-17.7-10.8C491,232.1,488.1,235.3,488.1,241.3z"/>
	<path class="st3" d="M347.6,478.8c5.3-2.1,10.6-4.4,16-6.3c9-3.1,17.3,0.3,20.2,8.1c2.4,6.2,0.2,14-5.5,17.6
		c-6.2,4-13.5,5.7-20.3,8.5c1.4-2.3,1.1-4.5,0.2-6.7c-2.2-5.5-4.4-11-6.6-16.5c-0.8-1.9-1.4-3.9-4.3-4
		C347.4,479.3,347.5,479,347.6,478.8z M379.3,488.8c-0.2-0.9-0.4-2.6-0.9-4.1c-2.5-7.9-7.2-14.6-18.7-9.2c-1.1,0.5-2.1,1-3.2,1.3
		c-1.1,0.4-1.2,0.9-0.8,2c2.8,6.8,5.5,13.7,8.2,20.6c0.5,1.2,1.3,2.1,2.8,2.2C372.4,501.8,379.4,495.3,379.3,488.8z"/>
	<path class="st3" d="M141,464.9c0.1-8.3,7-14.9,15.5-14.9c10.1,0,19.2,8.7,19.1,18.3c-0.1,8.3-7,14.9-15.6,14.9
		C149.9,483.2,140.9,474.6,141,464.9z M145.7,468.7c-0.1,5.8,2.2,8.9,6,10.8c3.9,1.9,7.6,1.2,11-1.3c4.3-3.2,7-7.6,8.1-12.8
		c0.9-4.3-0.3-7.9-3.9-10.6c-3.2-2.5-6.8-3.2-10.4-1.3C149.8,457,146.4,462.8,145.7,468.7z"/>
	<path class="st3" d="M73.8,309.8c-0.2,6.1-2.3,11.3-7.5,14.7c-6.1,4-14,2.9-19.2-2.4c-5.7-5.9-6.9-16-2.7-23
		c3.1-5.1,7.7-7.8,13.6-7.6c6.7,0.2,11.2,3.9,14.1,9.8C73.2,304,73.8,306.8,73.8,309.8z M57.4,320.6c2.7-0.2,6.3-0.8,9.6-2.7
		c4.1-2.3,5.8-5.9,5.2-10.5c-0.5-4.5-3-7.4-7.2-8.6c-6.2-1.9-12.1-1-17.6,2.6c-2.7,1.8-4,4.4-4.2,7.7
		C43,316.1,48.1,320.6,57.4,320.6z"/>
	<path class="st3" d="M111.5,448.7c-2.1-1.9-4.1-3.7-6.7-6c3.8,0.6,6.3-0.9,8.3-3.2c3.5-3.9,7.1-7.8,10.6-11.7
		c1.5-1.7,2.8-3.5,2-6.5c3.8,3.1,7.1,5.4,6.8,10.8c-0.4,7.1,0.3,14.2,0.5,21.3c0,0.6,0,1.2,0.8,2c3.7-5.6,10.9-8.7,10.8-17.1
		c2.1,1.5,4.1,3.2,6.1,5.6c-4.3-0.5-6.6,2-8.9,4.5c-4.2,4.7-8.5,9.4-12.7,14.1c-0.5,0.5-0.9,1.6-1.8,1.3c-1-0.3-0.7-1.5-0.7-2.3
		c0-10,0-20.1,0-30.1c0-1.1,0-2.3,0-3.9c-1.9,1-2.7,2.3-3.7,3.4c-2.9,3.1-5.7,6.2-8.5,9.3C112.3,442.6,110.4,445,111.5,448.7z"/>
	<path class="st3" d="M46.8,335.2c3.2,1.7,6.5,1.5,9.8,0.3c4.4-1.5,8.9-2.8,13.4-4.2c2.2-0.7,4.1-1.7,4.9-4.2
		c3,4.6,3.1,7.2,0.7,11.7c-3.7,6.9-7.4,13.7-11.1,20.6c6.2,0.4,16.2-4.5,18-8.9c1.7,2.4,1.8,5.1,3.1,8.4c-4.4-3.3-8.1-1.4-11.8-0.3
		c-6.1,1.8-12.3,3.8-18.4,5.7c-0.2,0-0.4-0.1-1.1-0.2c6.1-10.6,12.1-21,18.6-32.3c-7.3,2.4-13.9,4-20.2,6.7c-1.9,0.8-3,2.4-3.5,5.1
		C48.1,340.5,47.2,338,46.8,335.2L46.8,335.2z"/>
	<path class="st3" d="M508.1,365.7c-3.3-5.8-22.8-12-28.5-9.1c0.7-2.5,1.3-4.7,1.9-6.9c0.3-1.3,1.5-1.7,2.5-2.3
		c7.6-4.1,15.2-8.2,22.8-12.6c-6.7-1.1-12.8-6.2-20.2-2.4c0.1-2.6,1.2-4.9,2-8.1c2,4.8,6.2,5.4,10,6.5c6.2,1.8,12.5,3.6,18.8,6.1
		c-10.8,5.4-21.6,10.8-33.2,16.6c3.8,1.1,6.9,2,10,2.9c2.8,0.8,5.6,1.6,8.4,2.4c2.8,0.8,5.4,0.7,7.9-1.5
		C509.7,360,508.9,362.8,508.1,365.7z"/>
	<path class="st3" d="M462.1,441.4c-12-0.7-24-1.3-36-2c-0.5,1,0.4,1.2,0.8,1.7c3.6,3.7,7.1,7.5,10.8,11.1c2.3,2.3,4.7,4.4,8.9,3
		c-2.3,2.5-4.2,4.6-6.6,6.4c0.2-6.3-13.9-21.6-20.1-21.8c2.8-3.6,5.6-6.4,10.8-5.8c7,0.7,14,0.1,21,0.7c0.7,0.1,1.5,0.3,2.6-0.6
		c-5.5-4.1-8.2-11.6-16.7-11.8c1.5-2.2,3.5-3.8,6-5.8c-0.8,5,2.5,7.4,5.1,10.1c4.5,4.7,9.1,9.3,13.6,14
		C462.3,440.8,462.2,441.1,462.1,441.4z"/>
	<path class="st3" d="M276,48.5c-1,1.6-0.7,3.2-0.8,4.7c-0.1,4.6-0.2,9.2-0.3,13.7c0,2.7,0.6,5.2,3.6,7c-3.2,0-6,0-8.7,0
		c4.6-4.8,5.8-25.3,1.9-29.4c5.5-1.3,7.7-0.6,11.4,3.4c4.4,4.8,8.8,9.6,13.3,14.4c0.8,0.8,1.5,1.7,2.4,2.8
		c2.3-7.5,1.2-16.6-2.4-20.1c2.8-0.7,5.4,0,8.2,0c-3.7,2.7-3.3,6.7-3.5,10.4c-0.2,3.4-0.1,6.8-0.2,10.2c-0.1,3.3-0.3,6.6-1.1,10.3
		C291.8,66.8,283.9,57.7,276,48.5z"/>
	<path class="st3" d="M233.6,49c5.7-0.8,10.5-1.6,15.3-2.3c3.1-0.4,6.2-0.6,9.2-1.3c2.4-0.5,3.6,0.3,4.2,2.5c0.3,1,1.1,1.8,0.9,3.6
		c-2.8-2.5-5.8-3.9-9.2-3.8c-0.4,0-0.8,0-1.2,0c-3.4,0.3-6.8,0.7-10.1,1.5c-0.1,3.6,0.8,7.1,1.2,10.6c0.1,0.5,0.1,1.3,0.9,1.1
		c3.9-0.7,8-0.4,11.6-2.5c1.2-0.7,1.8-1.9,3.1-3.2c0.5,3.2,0.8,5.9,1.2,8.8c-3.5-2.9-11.7-3.7-15.6-1.6c-0.7,0.4-0.8,0.8-0.7,1.4
		c0.5,3.3,0.9,6.6,1.5,9.8c0.4,1.7,1.9,2,3.5,1.9c7.1-0.3,13.4-2.3,18.2-8.6c0.6,2.7-0.3,4.8-0.6,6.9c-0.1,0.7-0.7,0.8-1.4,0.9
		c-9,1.3-18.1,2.5-27.8,3.9c3.4-4.1,1.6-8,1.2-11.8c-0.4-4.1-1.1-8.1-1.7-12.1C237.3,52.4,237,50.2,233.6,49z"/>
	<path class="st3" d="M423.2,459.9c-2.9-1.2-5.5-0.6-8,1.2c-0.9,0.6-1.8,1.2-2.6,1.8c-4.4,3.1-4.5,3.1-1.2,7.7c4.7,6.5,4,7.2,11.4,2
		c3.8-2.7,6.4-6.2,7.8-10.7c0.3-0.8,0.1-1.8,1.1-2.3c1.1,1.7,1.2,3.6,2,5.4c0.4,1.1-0.1,1.8-1,2.4c-7.5,5.2-15,10.5-23.1,16.1
		c1.7-3.9-0.2-6.3-2-8.8c-3.1-4.4-6.1-8.8-9.2-13.2c-1.1-1.6-2.3-3.2-4.8-3.4c2.4-1.7,4.9-3.4,7.3-5.2c4-2.8,8.1-5.4,11.9-8.4
		c1.9-1.5,3.3-1.5,4.9,0.2c0.8,0.8,2,1.3,2.5,2.8c-7.8-2.3-12.8,2.7-18.2,6.4c-0.9,0.6-1.2,1.2-0.4,2.2c0.4,0.5,0.7,1.2,1.2,1.7
		c1.9,2.1,2.5,5.9,5.4,6.4c3.1,0.5,9.8-7.4,10.5-11.6C420.3,455.2,422.4,457.1,423.2,459.9L423.2,459.9z"/>
	<path class="st3" d="M236.7,449c0-6-3.4-9-8.3-10.7c-4.2-1.5-7.9-0.7-11,2.5c-3.8,4-5.6,8.9-5.4,14.4c0.2,6.1,4.7,10.8,10.7,11.7
		c3.3,0.5,6.1-0.6,8.6-2.7c0.7-0.6,1.1-1.6,2.2-1.7c1,4.7,0.6,5.5-3.8,6c-6.5,0.7-12.6-0.8-17.9-4.8c-5.6-4.3-7.2-10.5-4.9-17.3
		c2.1-6.1,7.8-10.1,14.5-10.4c6.2-0.2,11.3,2.2,16.2,5.7c2.2,1.6,3,3.2,0.7,5.3C237.7,447.6,237.3,448.4,236.7,449z"/>
	<path class="st3" d="M337.4,59.8c-0.9-6.2-3.7-9-9.9-10.1c-4.4-0.8-8.4,1.4-11,5.9c-2.2,3.8-3.1,8-2.6,12.4
		c0.6,5.1,3.4,8.6,8.4,10.2c4.9,1.6,9,0.5,12.3-3.5c0.3-0.3,0.5-0.6,0.7-0.9c0.2-0.2,0.4-0.4,0.6-0.6c1.7,4.2,1,5.7-3.1,6.5
		c-6.7,1.3-13.1,0.4-18.7-3.4c-5.7-3.9-7.7-9.6-6.1-16.4c1.4-6,6.6-10.6,12.9-11.6c6.5-1.1,12.3,1,17.7,4.3c2.1,1.3,2.3,2.6,0.9,4.4
		C338.8,58,338.6,59.1,337.4,59.8z"/>
	<path class="st3" d="M468.2,397.3c-5.7-2.8-9.7-0.2-13,4.1c-2.1,2.8-3,6-1.6,9.4c2.7,6.5,7.7,10.4,14.6,11.7
		c8.1,1.5,16.8-8.2,12.4-16.2c-0.4-0.7-0.6-1.4-0.9-2.2c4.8,0.2,5.6,1.2,4.6,5.8c-1.3,5.5-4.1,10.1-8.4,13.7
		c-6.1,4.9-12.9,5.2-18.9,1.1c-5.9-4.1-8.1-11.2-5.7-18.4c2-6.2,6.3-10.4,11.8-13.6c1.3-0.8,2.3-0.7,3.1,0.8
		C466.7,394.6,467.9,395.4,468.2,397.3z"/>
	<path class="st3" d="M221.2,488.7c0.6-6.7-2.9-9.9-8.1-11.8c-3.3-1.2-6.5-0.8-9.1,1.4c-5.2,4.1-7.4,9.8-7.1,16.2
		c0.3,5.3,3.5,8.7,8.4,10.5c4.7,1.7,8.6,0.3,11.9-3.2c0.2-0.2,0.5-0.3,0.7-0.5c1.1,4.8,0.3,5.8-4.4,6.1c-4.8,0.2-9.3-0.8-13.5-3
		c-7.7-4.1-10.9-11.6-8.1-19.4c2.7-7.4,10.5-11.6,18.6-10.1c4.8,0.9,8.9,3.2,12.7,6.2c2.1,1.6,2.3,3.1,0.3,4.9
		C222.9,486.6,222.3,487.4,221.2,488.7z"/>
	<path class="st3" d="M198.6,84c4.8,3.1,5,3.7,2.1,7.8c-3.8,5.3-8.9,9-15.4,10.2c-6.2,1.1-11.4-1.2-15-6.3
		c-3.8-5.4-3.9-11.1-0.7-16.8c3.8-6.8,10.3-9.8,17.6-11.1c1.3-0.2,2.1,0.2,2.3,1.5c0.3,1.3,1,2.5,0.7,4.1c-0.3,0-0.6,0-0.8-0.1
		c-4.6-3.9-8.8-2.6-13.3,0.5c-3.7,2.5-5.1,7.2-3.6,12c1.3,4.3,3.6,8,7.2,10.7c4.4,3.2,8.9,3.4,13.7,0.7c4.5-2.6,6.1-6.5,5.3-11.6
		C198.5,85.1,198.6,84.7,198.6,84z"/>
	<path class="st3" d="M520.8,259c0,3.7,0,7.3,0,11c-1.5-1.7-3.3-1.1-5.1-0.2c-8.2,3.8-8.7,4.7-7.6,13.8c0.1,0.6,0,1.3,0.6,1.6
		c3.1,1.4,5.9,3.4,9.5,3.4c1.8,0,2.7-1.1,3.7-2.6c0,2.8,0,5.5,0,8.5c-9.3-7.4-21-10.3-31.4-16.3C500.4,271.3,511.4,266.7,520.8,259z
		 M506.3,274.9c-3,1.7-5.8,3.3-9.1,5.1c3.5,1.5,6.4,2.8,9.7,4.3C506.7,281,506.5,278.2,506.3,274.9z"/>
	<path class="st3" d="M85.4,418.7c-2.1-2.7-3.8-4.8-5.7-7.2c12.3,0.5,23.5-3.8,35.4-5.2c-3.9,11.3-10.3,21.5-13.3,33.2
		c-2.2-2.7-4.5-5.6-7.2-9.1c3,1,4-0.7,5-2.6c4.5-8.1,4.4-8.8-1.9-15.6c-0.4-0.4-0.7-1-1.4-0.9c-3.3,0.6-6.8,0.8-9.7,2.7
		C85,415,85.4,416.6,85.4,418.7z M98.4,410.8c1.8,2.3,3.2,4.1,4.7,6c0.8,1,1.4,1.4,2-0.1c1.1-2.5,2.2-4.9,3.5-7.9
		C104.9,409.5,101.8,410.1,98.4,410.8z"/>
	<path class="st3" d="M501,191.8c-2.6-1.4-4.1,0.1-5.5,1.6c-6.1,6.4-6.1,6.3-2.6,14.3c0.8,1.8,1.8,2.6,3.7,2.7
		c1.9,0,3.9,0.2,5.8,0.1c2.5-0.1,4.4-1.1,4.7-4.3c1.1,2.6,2.3,5.2,3.6,8.1c-10.8-3.6-21.7-2.7-32.3-3.9c-1-0.1-2.5,0.4-2.9-0.7
		c-0.4-0.9,0.9-1.6,1.5-2.4c5.1-6.4,10.2-12.8,15.4-19.2c1.7-2.1,3.2-4.1,4-7.5C497.9,184.7,499.3,188.1,501,191.8z M482,209.3
		c3.8,0,6.9,1,10.3,0.3c-1.2-2.8-2.4-5.4-3.6-8.3C486.4,204.1,484.4,206.5,482,209.3z"/>
	<path class="st3" d="M267.4,487.4c3.1,0.3,5.7,0.6,9.1,1c-4.8,2.7-5,6.9-5.5,11c-0.4,3.1-0.6,6.2-1.2,9.3c-1.3,6.1-4.8,8.7-11,8.7
		c-3.6,0-7-0.4-10.3-1.7c-4.4-1.7-6.4-4.5-6.1-9.2c0.4-5.5,1.1-11,1.7-16.6c0.2-1.9,0.3-3.7-2.1-5.4c3.9,0.5,6.9,0.8,10.5,1.3
		c-2.3,1.2-2.6,3-2.8,4.9c-0.5,5.2-1.3,10.4-1.7,15.7c-0.4,5.4,2.2,8.4,7.7,9.6c5.9,1.2,10.5-0.6,12-5.5c1.9-6,2.3-12.2,2.1-18.5
		C269.9,490.2,268.6,489,267.4,487.4z"/>
	<path class="st3" d="M352.7,508.7c-3.5,0.7-6.9,1.5-10.8,2.3c1.4-2.4,0.5-4-0.7-5.7c-5.1-7.1-5-7-13.6-5.2c-1.9,0.4-2.9,1.2-3.3,3
		c-0.3,1.6-0.9,3.2-1.1,4.8c-0.6,3.6,0,4.6,3.5,6.3c-3,0.6-5.7,1.2-8.8,1.9c5.7-10.8,6.8-22.7,10.8-33.9c2,1.3,3.3,3.3,4.7,5
		c4.6,5.4,9.2,10.9,13.8,16.3C348.8,505.4,350.4,507.2,352.7,508.7z M328,489.1c-0.9,3.6-1.7,6.7-2.6,10.2c3.3-0.8,6-1.4,9.2-2.1
		C332.3,494.3,330.3,491.9,328,489.1z"/>
	<path class="st3" d="M369.7,94.7c-3.3-1.3-6.6-2.6-10.5-4.1c2.8-1,2.8-3,2.7-5c-0.7-11.5,1.1-7.9-9.2-12.1
		c-3.5-1.4-4.9,2.7-7.1,4.4c-1.5,1.1-2.6,2.7-1.9,4.8c0.2,0.6,0.7,1.1,1.4,2.3c-3.2-1.3-5.8-2.2-8.7-3.4
		c10.4-5.5,17.7-14.1,26.5-21.2c2.1-1.7,2,0,2.1,1.2c0.9,7.5,1.7,15.1,2.6,22.6C368,87.7,368,91.2,369.7,94.7z M360.2,64.6
		c-2.8,2.5-5.2,4.7-7.8,7c2.6,1.1,4.9,2,7.3,2.9c1.2,0.5,1.6,0,1.5-1.2C360.8,70.7,360.5,68,360.2,64.6z"/>
	<path class="st3" d="M48.7,225.2c0.6-2.7,1.3-5.4,2-8.4c6.8,9,16.2,14.8,24.3,22.1c0.6,0.6,1.8,1,1.6,1.9c-0.2,1-1.5,0.8-2.2,1.1
		c-7.8,2.2-15.6,4.4-23.3,6.5c-2.7,0.8-5.5,1.3-8.1,3.2c0.8-3.6,1.6-7.2,2.5-11.2c1.2,2.5,3.2,2.4,5.3,2c9-1.7,9.3-2,10.8-11.2
		c0.1-0.6,0.2-1.4-0.1-1.7c-2.7-2.3-5.1-5.2-8.8-6.1C51,223.2,50,224.4,48.7,225.2z M62.9,230.8c-0.7,2.9-1.2,5.2-1.8,7.6
		c-0.3,1.3,0.2,1.6,1.3,1.3c2.7-0.7,5.4-1.4,8.5-2.2C68.1,235.2,65.7,233.2,62.9,230.8z"/>
	<path class="st3" d="M490.6,402.6c-4.8-11.4-13.6-19.6-19.9-29.7c11.9-1.4,23.8,0.1,35.7-2.4c-1.6,3.3-3.2,6.6-5,10.4
		c-0.5-2.6-2.2-3.2-4.1-3.3c-2.7-0.1-5.5-0.1-8.2-0.1c-0.1,0-0.2,0-0.3,0c-1.5,0.3-6.1,9.3-5.2,10.6c1.4,2.1,3,4.1,4.7,6
		c1.7,1.8,3.7,2.6,6.2,0.8C493.2,397.2,492,399.7,490.6,402.6z M485.8,377.6c-3.3,0-6.4,0-10.1,0c2.3,3,4.2,5.5,6.3,8.3
		C483.5,382.9,485.1,380.5,485.8,377.6z"/>
	<path class="st3" d="M197,60.9c2.8-1,5.6-2,8.9-3.2c-1.3,2-1.1,3.7-0.5,5.5c1.8,4.8,3.4,9.8,5.1,14.6c2,5.4,6,7.2,11.7,5.6
		c6.3-1.9,9.1-5.8,8-11.3c-1.1-5.2-3.1-10-5.1-14.9c-0.9-2.2-2.7-3.4-5.2-4.4c2.9-1,5.3-1.9,8.7-3.1c-3.5,4.7-1.3,8.6,0,12.6
		c1,3.1,2.2,6.1,2.9,9.2c1.2,4.9-0.5,8.7-4.8,11.2c-3.8,2.2-8,3.7-12.5,3.6c-4.5,0-7.1-1.7-8.7-6c-1.9-5-3.6-10.1-5.4-15.1
		C199.6,63.6,199,61.8,197,60.9z"/>
	<path class="st3" d="M520.9,306c-0.4,3.7-0.9,7.4-1.4,12.1c-1.2-3.6-3.5-4-6-4.3c-6.5-0.7-13-1.4-19.4-2.1c-2-0.2-2.8,0.6-3,2.6
		c-0.2,2.8,0.4,5.4,1.9,7.8c0.7,1.1,1.4,2.1,2.2,3.4c-2.2-0.3-3.8-1.4-5.5-1.9c-1.2-0.4-1-1.3-0.9-2.2c1-8.7,1.9-17.4,2.9-26.1
		c0.1-1,0.5-1.5,1.6-1.7c1.7-0.2,3.4-0.5,5.4-0.3c-0.9,0.8-1.9,1.6-2.8,2.5c-1.4,1.3-2.4,2.8-3.1,4.6c-1.6,4.3-1,5.4,3.3,5.9
		c6.1,0.8,12.2,1.4,18.3,2C517,308.5,519.5,308.8,520.9,306z"/>
	<path class="st3" d="M48.2,287.7c-2-0.7-4-1.3-6-2c-0.9-0.3-1.3-0.8-1.2-1.7c0.5-8.9,0.9-17.8,1.6-26.8c1.3,2.7,3.6,3.1,6.1,3.2
		c5.7,0.3,11.5,0.7,17.2,1c2.3,0.1,4.7,0.4,6.6-1.8c-0.6,3.2-0.4,6.3-0.5,10c-1.9-2.8-4.6-2.5-7-2.7c-5.6-0.4-11.3-0.6-16.9-0.8
		c-3.7-0.1-4.3,0.6-4.9,4.2C42,276.9,43.8,282.5,48.2,287.7z"/>
	<path class="st3" d="M238.8,483.3c-3.3,3.3-7.9,25.5-6,29.2c-3.5-0.1-6.5-1.5-9.9-2.1c3.2-1.2,3.4-4,3.9-6.6
		c1.3-5.8,2.5-11.6,3.9-17.4c0.4-1.8,0.6-3.4-0.7-5.2C232.9,482,235.8,482.7,238.8,483.3z"/>
	<path class="st3" d="M379.8,461.2c-1.6-0.1-2.7-0.9-2.7-2.7c0-1.8,1-3,2.8-3c1.5,0,2.8,0.9,2.8,2.7
		C382.7,459.9,381.7,461.1,379.8,461.2z"/>
	<path class="st3" d="M316.5,476.4c-1.7-0.1-2.7-1-2.8-2.7c0-1.8,1.1-2.8,2.7-2.9c1.8-0.1,3,1.1,2.9,2.9
		C319.4,475.3,318.4,476.4,316.5,476.4z"/>
	<path class="st3" d="M249.4,468.6c2.2,0,3.2,1.1,3.2,2.7c0,1.8-1.1,2.9-3,2.8c-1.7-0.1-2.7-1.1-2.6-2.9
		C247.1,469.5,248.1,468.6,249.4,468.6z"/>
	<path class="st3" d="M72,397.9c-0.1-0.1-0.2-0.3-0.4-0.4c0.1,0,0.2-0.1,0.4-0.1C72,397.5,72,397.7,72,397.9
		C72,397.8,72,397.9,72,397.9z"/>
	<path class="st3" d="M59.2,372.7c-0.1,0-0.2,0-0.2,0C59,372.7,59.1,372.7,59.2,372.7L59.2,372.7z"/>
	<path class="st3" d="M46.9,335.2c-0.1,0-0.1-0.1-0.2-0.1C46.7,335.2,46.8,335.2,46.9,335.2C46.8,335.2,46.9,335.2,46.9,335.2z"/>
	<path class="st3" d="M423.2,459.9c0.1,0.1,0.2,0.1,0.3,0.2c-0.1,0-0.1,0-0.2,0C423.3,460,423.3,460,423.2,459.9L423.2,459.9z"/>
	<path class="st1" d="M189.2,192.3c-0.7-2.1-1.4-4.3-2.1-6.4c5,1.8,9.9,3.9,15.1,5.1c4.2,1,8.4,2.5,12.8,2.5
		c3.5,0.1,6.9-0.6,9.8-2.4c4.7-2.9,9.7-2.7,14.7-2.1c7.6,0.9,15.2,2.4,22.9,0.9c2.3-0.4,4.5-1.1,6.8-1.7c4.7-1.2,9.2-0.3,13.7,1.4
		c4.1,1.6,8.2,2,12.5,0.5c3.4-1.2,8.8,3.6,8.5,7.2c-0.1,1.9-2.7,3.2-5.9,2.7c-4.8-0.8-9.6-1.6-14.3-2.6c-8-1.8-14.9-0.4-20.8,5.6
		c-4.1,4.1-8.4,5.5-14.1,1.5c-4.4-3.1-9.4-4.4-14.9-4.2c-7.3,0.3-14.5-0.1-21.7-1.6c-2.2-0.4-4.5-0.2-6.7-0.1
		c-4.7,0.1-8.8-1.3-12.5-4.2C191.7,193.8,190.6,192.8,189.2,192.3z"/>
	<path class="st1" d="M245.1,233.7c-3.5-4.7-7.3-5.3-11.8-3.4c-3.5,1.5-6.9,0.6-10.2-0.6c-2.6-1-3.6,0.1-4.1,2.4
		c-0.3,1.2-0.6,2.5-1.1,3.6c-1,2.3-3.1,2.5-4.5,0.5c-0.7-1-1.3-2.1-1.5-3.4c-0.6-3.4-2.2-4.6-5.6-5.3c-3.6-0.7-7.2-0.5-10.8-0.5
		c-4.5,0-7.4-2.6-9.9-5.8c-1.4-1.9-0.7-2.9,1.7-3c1.8,0,3.5,0.1,5.3,0c2.8-0.1,3.8-1.5,2.5-4.1c-1.2-2.4-2.4-5-4.9-6.4
		c-1.1-0.6-1.1-1.1,0-1.8c1.9-1.4,3.8-1.6,5.7-0.2c1.6,1.1,3.4,1.8,5.2,2.5c2.3,1,4.5,0.7,6.2-1c2-2,3.7-1.2,5.3,0.4
		c1.3,1.3,2.4,2.8,3.7,4.1c3.5,3.5,6.1,3.9,9.9,0.6c4.4-3.8,6.7-3.2,9.4,1.8c3.2,6,7.7,11.2,9.6,17.9
		C245.2,232.3,245.1,232.6,245.1,233.7z"/>
	<path class="st1" d="M276.9,282c-0.1,0.5-0.3,1-0.4,1.4c-1.4,4.6-1.4,9,0,13.7c1.7,5.5-0.3,10.5-2.9,15.3c-0.4,0.7-1,1.3-1.9,1.1
		c-1.1-0.2-1.8-1-1.7-2.1c0.3-2.5-1.1-4.2-2.2-6.2c-1.2-2.2-2.2-4.5-2.8-7c-0.9-4-2.9-7.6-5.4-10.9c-3.2-4.1-4.3-8.9-5.3-13.7
		c-0.3-1.2,0.1-1.9,1.3-2.1c1.5-0.3,2.9-0.7,4.6-0.3c2.2,0.5,4.5,0.6,6.6,0c4.5-1.1,7.4,0.5,8.6,4.9
		C275.9,278.1,276.4,280,276.9,282z"/>
	<path class="st1" d="M172.6,230.9c0.2,0.4,0.5,0.8,0.6,1.1c1.9,5.6,6.8,5.6,11.4,6c4.2,0.3,8.5,0.4,12.8,0.7
		c0.9,0.1,2.3,0.1,2.4,1.1c0.1,1.3-1.3,1-2.2,1.2c-2.2,0.6-4.3,1.2-6.4,1.8c-3.7,1.2-6.4,3.4-7.9,7.8c-1.4-2.1-2.5-3.6-3.6-5.1
		c-1.7-2.3-4.3-3.6-6.4-5.4C169.3,236.7,169.3,236.1,172.6,230.9z"/>
	<path class="st1" d="M200.4,248c4.6-0.7,8.3,2.8,12.7,3.8c1.3,0.3,0.6,2.1-0.6,2.6c-3.6,1.6-7.3,3.3-11.3,3.5c-0.7,0-1.4,0-2,0
		c-4.3,0.5-4.3,0.5-4.7-3.9C193.9,248.4,194.3,248,200.4,248z"/>
	<path class="st1" d="M208.9,156.7c5.8-3.3,11.9-5.6,18.8-4.1C221.4,153.9,215.3,155.8,208.9,156.7z"/>
	<path class="st1" d="M209.6,263.2c-6.5,1.1-12.9,2-19.5,1.2c-1.5-0.2-2.6-0.8-2.8-2.4c2.6,2,5.5,1.8,8.6,1.3c4-0.6,8.1,0,12.1-0.7
		C208.6,262.6,209.2,262.7,209.6,263.2z"/>
	<path class="st1" d="M170.3,206.4c1-3.2,1.3-6.9,4.7-8.8c-0.5,0.9-1.2,1.8-1.6,2.8c-0.8,2-1.5,4.1,0.4,5.9c0.5,0.5,0.6,1.2,0.6,1.9
		l0,0C172.8,208.1,172.1,206,170.3,206.4z"/>
	<path class="st1" d="M257.1,156.2c4-0.8,7.9-1.7,12-1.2c-0.2,0.2-0.3,0.6-0.5,0.6C264.8,156,261,156.7,257.1,156.2z"/>
	<path class="st1" d="M174.5,208.2c0.1,0.2,0.3,0.4,0.4,0.6c-0.1,0-0.1,0.1-0.2,0.1C174.6,208.7,174.5,208.5,174.5,208.2
		L174.5,208.2z"/>
	<path class="st1" d="M207.7,157.3c0.3-0.5,0.8-0.6,1.3-0.6C208.7,157.2,208.2,157.2,207.7,157.3z"/>
	<path class="st1" d="M187.3,262.1c-0.2-0.2-0.3-0.4-0.5-0.6C187,261.7,187.2,261.9,187.3,262.1z"/>
	<path class="st1" d="M175,197.7c0-0.2,0-0.4,0.1-0.6c0.1,0.1,0.1,0.3,0.2,0.4C175.2,197.5,175.1,197.6,175,197.7z"/>
	<path class="st3" d="M377,219.2c-0.2-3.1,1.9-5.5,2.8-8.2c2.6-7.6,4.2-15.3,5.5-23.1c0.5-3.3,2.1-6.4,3.1-9.6
		c1.8-5.6,5.3-10.4,6.8-16.1c2-7.3,1.4-13.4-6.4-17.2c-3.3-1.6-7-2.2-10.8-1.7c-2.5,0.3-3.8-0.9-5.3-2.8c-4-5-8.1-10.1-14.3-12.9
		c-6.6-3-12.9-2.7-19,0.9c-2.3,1.4-4.7,2.8-6.4,4.9c-4.3,5.2-10.5,6.6-16.5,8.6c-5.1,1.7-10.2,3.7-15.3,5.5
		c-4.4,1.6-8.6,1.3-12.3-1.6c-1.9-1.5-3.5-1.5-5.6-0.1c-4.5,2.9-9.3,4.9-14.9,4.4c-6.9-0.6-13.5,1.3-20.1,3.1
		c-3.8,1-7.9,0.9-11.8,0.2c-0.3-0.1-0.7-0.4-0.9-0.7c-2.2-3.9-6-5.4-10.1-5.9c-3.5-0.4-7,0.4-10.2,1.5c-11.6,4-22.2,10-32.2,17
		c-2.4,1.7-4.3,3.9-5.1,6.9c-0.2,0.9-0.2,1.7,0.1,2.5c1.4,4.3,2.7,8.6,4.1,12.9c0.5,1.5,0,2-1.6,2.2c-4.3,0.7-8.7,1.5-11.3,5.6
		c-2.4,3.8-4,7.9-5.2,12.2c-2,7.4-4.2,14.7-4,22.5c0.1,6.2,2.2,11.4,7.6,14.9c4.9,3.3,8,8.1,11.1,13c1.6,2.6,3.2,5.3,4.7,8.1
		c0.8,1.5,2.2,2,3.7,2.6c-0.6,0.4-1.3,0.9-1.9,1.2c-8.3,4.3-16.5,8.6-24.8,13c-1.7-4.7-3.3-9.5-5.2-14.8c-1.8,5.2-3.4,9.6-4.8,14.2
		c-0.6,2-1.2,2.6-3.3,1.5c-4-2.2-8.3-4.1-13.1-6.4c2,4.3,3.7,8,5.4,11.6c2,4.4,2.1,4.4-2.5,6.1c-3.7,1.3-7.3,2.7-11.2,4.2
		c2.2,1.4,4.4,1.3,5.9,2.8c-5.7,4.1-11,8.7-15.8,13.8c-7.2,7.5-13.6,15.6-15.4,26.2c-3.9-8-6.1-16.5-8-25.1
		c-2.1-9.4-2.9-19-3.2-28.6c-0.2-6.7,0.4-13.6,1.5-20.3c1-5.9,1.7-11.9,3-17.7c1.7-7.6,3.6-15.3,5.9-22.7c4-12.9,8.8-25.5,15.1-37.4
		c6.5-12.3,13.9-23.9,22.9-34.6c7.9-9.4,16.5-18.1,26-25.8c12.1-9.8,25.4-17.7,39.6-23.9c7.6-3.3,15.4-6.2,23.4-8.3
		c6.1-1.6,12.2-3,18.5-4c12.4-1.9,24.7-3.5,37.2-3.2c7.4,0.2,14.8,0.9,22.2,2c3.5,0.5,7.1,0.8,10.6,1.6c4.5,0.9,9.1,1.7,13.6,3
		c4.2,1.2,8.4,2.6,12.6,3.8c9.3,2.6,18.1,6.6,26.8,10.9c10.9,5.3,21.2,11.8,30.8,19.2c13.9,10.7,26.2,23.1,36.3,37.4
		c8.6,12.1,15.6,25.1,20.8,39c4.4,11.7,7.7,23.8,9.6,36.1c2.2,13.9,2.5,27.9,1.8,41.9c-0.6,11.3-1.5,22.7-4.2,33.7
		c-1.8,7.6-4,15.1-6.9,22.5c-5.1,13-11.8,25.1-20.1,36.3c-6.4,8.6-14.1,16.2-22.5,23.1c-10.9,9-23,16.1-36,21.6
		c-3.8,1.6-7.4,3.7-11,5.7c-4.7,2.6-8.8,1.7-13.2,0c-5.3-2.1-10.7-3.9-16.2-5.4c-5.6-1.6-11.4-1.6-17-3.2c-3.1-0.9-6.3,0.1-8.7,1.3
		c-5.5,2.9-9.4,0.1-13.7-2.1c-4.3-2.1-8.6-4.2-12.8-6.4c-1.2-0.6-2.2-1.4-3.2-2.4c-4-3.8-0.5-7.2,0.4-10.6c1-3.9,3.1-7.3,5.3-10.6
		c2-3,5.3-4,8.2-5.7c5.1-3,10.1-6.3,14.8-10c6.3-5,9.4-12.2,12.4-19.4c2.2-5.3,2.9-10.8,3.4-16.3c0.1,1.3,0.2,2.6,0.2,4.1
		c15.2-5.5,29.8-11.7,44.3-18.3c4.4-2.1,8.8-4.1,13.1-6.4c2-1.1,2.8-1.1,3.5,1.3c1.4,4.8,3.2,9.5,5.1,14.9c1.9-5.5,3.6-10.2,5-15
		c0.7-2.2,1.4-2.5,3.4-1.4c4.2,2.2,8.6,4.2,13.6,6.7c-2.3-5-4.1-9.3-6.2-13.4c-1.3-2.5-1.2-3.7,1.8-4.7c4.3-1.3,8.5-3.2,13-4.9
		c-1.9-1.4-4.1-1.3-5.5-2.7c7.4-4.9,14.6-10,21.3-15.9c7.8-6.9,15-14.2,19.4-23.8c7.6-16.4-1.7-29.3-14.6-34.2
		c1.9-2.3,5.1-1.9,7.5-3.9c-4.4-1.6-8.7-3.3-13-4.7c-2.2-0.7-2.7-1.5-1.6-3.6c2.1-4.1,3.9-8.4,6.2-13.4c-5.7,2.8-10.5,5.2-15.5,7.6
		c-1-2.9-2-5.5-2.9-8.2c-0.9-2.6-1.9-5.2-2.8-8c-0.3,0.4-0.4,0.5-0.5,0.7c-1.1,3.1-2.2,6.2-3.3,9.4c-2.1,6.2-2.1,6.2-7.8,3.4
		c-3.1-1.5-6.1-2.9-9.8-4.6c2.1,4.5,3.8,8.2,5.5,11.9c2.1,4.5,1.8,5-3.2,5.5c-0.2,0-0.4,0.1-0.6,0.1C393.7,215.9,385,215,377,219.2z
		"/>
	<path class="st3" d="M203.8,269c2.3-1.2,3.2-0.1,3.4,2.1c0.5,4.8,2.4,9.2,4.8,13.3c1.4,2.4,3.5,4.1,6,5.7
		c8.3,5.1,17.1,9.4,25.3,14.8c6.1,4.1,11,10,11.1,17.7c0,5.5-0.1,11.1-0.3,16.6c-0.1,3.5,1,6.7,1.6,10c0.4,2,1.5,2.8,3.5,2.6
		c-0.4,0.2-0.9,0.4-1.3,0.5c-21.1,5.1-42.5,9-64.1,11.3c-4-0.4-4-0.4-2.3-4c1.3-2.9,2.7-5.8,4-8.8c0.5-1.2,1.5-2.2,1.2-3.8
		c-4.3,2.1-8.5,4-12.4,6.3c-2.2,1.2-2.7,0.5-3.3-1.5c-1.5-4.5-3.1-9-4.7-13.5c-1.1,0.8-1.1,2-1.5,3c-1.3,3.6-2.6,7.1-3.6,10.8
		c-0.6,2.2-1.5,2.4-3.3,1.3c-0.7-0.5-1.6-0.8-2.3-1.2c-3.4-1.6-6.8-3.3-10.9-5.2c1.8,3.7,3.2,6.7,4.6,9.7c3,6.4,3,6.4-3.7,8.6
		c-5.3-0.6-10.7-1-15.9-1.8c-7.8-1.2-15.5-3-22.2-7.5c-6.1-4.1-7.7-9.3-5.2-16.2c1.1-3.1,2.9-6,4.8-8.6c6.2-8.5,14.2-15.2,22.6-21.5
		c-1,4-3.5,7.5-4.9,11.9c4.7-2.3,9-4.3,13.2-6.5c1.6-0.8,2.3-0.8,2.9,1.1c1.2,3.8,2.6,7.5,3.9,11.3c0.2,0.6,0.2,1.5,1.1,1.5
		c0.9,0,1-0.8,1.2-1.4c1.3-3.8,2.6-7.5,3.8-11.3c0.5-1.8,1.2-2,2.9-1.2c4.2,2.2,8.6,4.2,13.5,6.5c-2.3-5-4.2-9.3-6.4-13.5
		c-1.1-2.1-0.5-2.8,1.5-3.4c4.4-1.5,8.7-3.2,13.6-5c-4.3-1.6-8.2-2.9-12-4.3c-4.5-1.7-4.5-1.7-1.9-6c10.4-5.3,20.7-10.8,31.4-15.3
		c2.5-1,3-2.1,1.2-4.1C204.2,269.4,204,269.2,203.8,269z"/>
	<path class="st3" d="M326.5,335.8c-0.5-0.7-0.4-1.5-0.4-2.2c0-9.9-0.5-19.8-1.8-29.6c-0.8-5.7-3.1-10.8-8-14.2
		c-1.7-1.2-2-2.1-0.6-3.9c2.1-2.6,4.5-5,6.8-7.4c8.7-9,18.1-17.4,25.6-27.4c5.4-7.3,13.1-12,19-18.7c1.8-2,2.9-4.6,5.3-5.9
		c-0.5,2.1,1.2,1.1,1.8,1c6.8-0.6,13.6-0.8,20.4-1c3.9-0.1,7.8,0.4,11.7-0.1c1.7,0.7,0.8,1.8,0.4,2.9c-1.9,4.2-3.8,8.4-6,13.3
		c4.8-2.4,8.9-4.2,12.7-6.4c2.4-1.4,3.1-0.7,3.9,1.7c1.3,4.4,3,8.7,4.8,13.7c1.8-5.4,3.4-10,4.9-14.6c0.5-1.7,1.2-2.2,2.9-1.2
		c2,1.2,4.1,2.1,6.3,3.1c2.2,1,4.2,2.5,6.9,3c-1.4-3-2.6-5.8-3.8-8.5c1.8,0.6,3.3,1.6,4.9,2.6c5.6,3.7,7.6,8.4,6.1,14.5
		c-0.9,3.7-2.8,7-5.1,10.1c-9.5,12.7-22.3,21.7-35.4,30.2c-0.1,0.1-0.3-0.1-0.5-0.2c1-4.4,3.8-8.1,5.1-12.8c-4.9,2.5-9.3,4.6-13.7,7
		c-1.6,0.9-2.2,0.7-2.8-1.1c-1.6-5-3.4-9.9-5.3-15.5c-1.8,5.5-3.5,10.4-5,15.3c-0.6,1.8-1.2,2.2-3,1.3c-4.3-2.3-8.8-4.3-13.9-6.8
		c1.5,3.3,2.8,5.9,3.9,8.5c1.2,2.6,3.7,5.8,3,7.9c-0.8,2.4-5.1,2.4-7.8,3.6c-2.4,1.1-4.9,1.9-8,3.1c5.4,2,9.9,3.7,14.5,5.3
		c1.9,0.6,2.4,1.4,0.9,2.9c-14.7,7-29.5,13.8-44.9,19.4C328.3,329.7,325.6,331.2,326.5,335.8z"/>
	<path class="st3" d="M257.6,363.3c-1,2.6-1,5.3-1.5,8c-1.2,6.9-5,12.7-8,18.8c-3.9,8.1-7.9,16.1-13.1,23.4
		c-1.2,1.7-2.6,3.1-4.4,4.1c-6.5,3.7-12.5,8.4-18.6,12.8c-1.3,1-2.6,1-3.8,0.6c-19.4-5.9-37.7-14.3-54.5-25.6
		c-15-10.1-28-22.4-38.9-36.9c-0.4-0.5-1-1-0.3-1.7c4.1,1.9,8.3,3.6,12.8,4.8c11.2,3,22.6,3.7,34,4.1c-2.1,4.8-4.2,9.6-6.6,15
		c5-2.5,9.3-4.6,13.5-6.8c1.5-0.8,2.1-0.6,2.6,1.1c1.5,4.7,3.2,9.2,5.1,14.7c1.8-5.4,3.5-9.9,4.9-14.5c0.5-1.7,1.2-2.1,2.8-1.2
		c4.3,2.2,8.6,4.2,13.5,6.6c-2.3-5-4.4-9.4-6.4-13.8c-0.3-0.7-1.6-1.6-0.2-2.5c14.3-1,28.5-3.3,42.6-6
		C241.5,366.7,249.6,365,257.6,363.3z"/>
	<path class="st4" d="M161.5,375.7c-11.5-0.4-22.9-1.1-34-4.1c-4.4-1.2-8.6-2.9-12.8-4.8c-2-1.5-4.2-2.8-6.1-4.4
		c-6.2-5.2-8.8-12-8-20c1.8-10.7,8.1-18.7,15.4-26.2c4.9-5.1,10.2-9.6,15.8-13.8c2.5,0,4.5,1.6,6.8,2c3.7,0.7,2.7,2.5,1.5,4.6
		c-0.1,0.2-0.4,0.4-0.6,0.6c-8.4,6.2-16.3,13-22.6,21.5c-2,2.7-3.7,5.5-4.8,8.6c-2.5,6.9-0.9,12.1,5.2,16.2
		c6.7,4.5,14.4,6.3,22.2,7.5c5.3,0.8,10.6,1.2,15.9,1.8c-2.9,1.1-5.8,2.3-9.1,3.5c3.6,1.8,7.2,2.7,10.5,4.1
		C158.4,373.5,161.1,372.9,161.5,375.7z"/>
	<path class="st4" d="M257.6,363.3c-8.1,1.7-16.1,3.4-24.2,4.9c-14.1,2.7-28.3,4.9-42.6,6c4.8-1.8,9.6-3.7,15.1-5.8
		c-2.3-0.6-3.7-1.3-5.1-1.9c-2.4-1.1-5.3-1-7.2-3.1c21.6-2.3,43-6.2,64.1-11.3c0.5-0.1,0.9-0.3,1.3-0.5c1.2-0.2,1.4,0.5,1.4,1.5
		c0,2.6-0.1,5.2,0.1,7.8C260.8,363.4,258.5,362.4,257.6,363.3z"/>
	<path class="st4" d="M326.5,335.8c-0.8-4.6,1.8-6.2,5.7-7.6c15.3-5.5,30.2-12.3,44.9-19.4c-0.3,0.8-0.5,1.7-0.8,2.5
		c-1.7,4-3.4,8-5.1,12c-14.5,6.6-29.2,12.8-44.3,18.3c-0.1-1.5-0.2-2.8-0.2-4.1C326.5,337,326.5,336.4,326.5,335.8z"/>
	<path class="st4" d="M203.8,269c0.2,0.2,0.4,0.4,0.6,0.6c1.9,2,1.3,3.1-1.2,4.1c-10.8,4.5-21.1,10-31.4,15.3
		c1.2-2.7,2.3-5.5,3.5-8.2c0.3-0.6,0.7-1.3,0.3-1.9c-0.7-1-1.5,0-2,0.2c-3.5,1.6-7.1,3.3-10.5,5.2c-1.7,0.9-2,0.1-2.4-1.1
		c8.3-4.3,16.5-8.6,24.8-13c0.7-0.4,1.3-0.8,1.9-1.2C192.8,269.9,198.3,270,203.8,269z"/>
	<path class="st4" d="M406.3,226.2c-3.9,0.5-7.8,0-11.7,0.1c-6.8,0.2-13.6,0.4-20.4,1c-0.6,0-2.2,1.1-1.8-1c1.4-1.7,2.6-3.4,3.4-5.5
		c0.7-0.4,0.9-1,1.2-1.7c0,0,0,0,0,0c8-4.2,16.6-3.4,25.2-3.2c-2.1,2-4.9,2.2-7.4,3.3c-0.6,0.3-1.8,0-1.7,1.1c0.1,0.8,1,1,1.8,1.3
		C398.8,223,402.8,223.9,406.3,226.2z"/>
	<path class="st3" d="M377.1,219.2c-0.3,0.6-0.5,1.3-1.2,1.7C375.8,220,376.2,219.4,377.1,219.2z"/>
	<path class="st1" d="M65.5,209c-4.6,0.1-8-3.9-6.7-8.3c0.8-3,2.2-5.8,3.5-8.6c0.7-1.6,2.1-1.8,3.4-1.3c3.2,1.2,6.3,2.6,9.4,3.9
		c0.8,0.3,1.1,0.7,0.7,1.5c-1.5,3.2-2.3,6.6-4.5,9.4C69.8,207.4,68.1,209,65.5,209z"/>
	<path class="st1" d="M73.8,206.8c0.1-3.8,1.9-6.9,3.2-10.2c0.4-1,1.2-0.8,1.9-0.4c2.6,1.1,5.2,2.2,7.8,3.3c0.7,0.3,1.6,0.5,1.1,1.6
		c-1.4,3.1-2.2,6.5-4.4,9.2c-1.5,1.9-3.6,2.7-6,1.8C75,211.1,74,209.1,73.8,206.8z"/>
	<path class="st1" d="M348.4,454.7c5.1,0,7.9,2.2,8.5,6.4c0.5,3.4-1.6,6-5.8,7.2c-2.2,0.6-4.6,1-6.8,1.6c-1.9,0.6-3.1,0-3.6-1.8
		c-0.9-3.3-1.6-6.6-2.5-9.9c-0.2-0.8-0.2-1.3,0.7-1.5C342.2,456,345.5,455.1,348.4,454.7z"/>
	<path class="st1" d="M344.4,442.2c3.2,0,5.4,0.8,6.3,3.7c0.9,2.9-0.4,4.9-2.7,6.4c-2.8,1.9-6.1,2.3-9.3,3c-1.2,0.3-1.4-0.6-1.6-1.5
		c-0.6-2.6-1.3-5.3-1.9-7.9c-0.3-1-0.4-1.7,0.9-1.9C339,443.4,341.8,442.4,344.4,442.2z"/>
	<path class="st1" d="M290.3,489.3c10.6-1.1,15.2,5,14.4,15.7c-0.7,9.4-7.7,11.8-15.1,11.4c-2.3-0.1-3.3-1.4-3.4-3.6
		c-0.3-7-0.7-14-1.1-20.9c-0.1-1.9,0.6-2.7,2.4-2.6C288.7,489.3,289.9,489.3,290.3,489.3z"/>
	<path class="st1" d="M275.1,466c0-5.3,0-10.7,0-16c0-1.4,0.4-2,1.8-1.9c2.2,0.1,4.5,0,6.7,0.3c6.7,1,9.9,4.6,10.1,11.4
		c0.1,2.5-0.2,5.1-0.9,7.5c-2,6.6-10.3,10.4-16.6,7.6c-1.2-0.5-1.8-1.4-1.8-2.7c0-2,0-4.1,0-6.1C274.7,466,274.9,466,275.1,466z"/>
	<path class="st1" d="M488.1,241.3c0-6,2.9-9.3,9.8-11.1c9.8-2.7,16,1.1,17.7,10.8c0.6,3.4-0.1,4.6-3.5,5.4
		c-6.6,1.5-13.3,3-19.9,4.6c-1.7,0.4-2.6,0.2-2.8-1.6C489.2,246.5,487.9,243.9,488.1,241.3z"/>
	<path class="st1" d="M379.3,488.8c0.1,6.5-6.9,13.1-12.6,12.7c-1.5-0.1-2.3-1-2.8-2.2c-2.8-6.9-5.5-13.7-8.2-20.6
		c-0.4-1-0.3-1.6,0.8-2c1.1-0.4,2.2-0.8,3.2-1.3c11.5-5.4,16.2,1.3,18.7,9.2C378.9,486.2,379.1,487.9,379.3,488.8z"/>
	<path class="st1" d="M145.7,468.7c0.8-6,4.2-11.8,10.8-15.2c3.6-1.8,7.2-1.1,10.4,1.3c3.5,2.7,4.8,6.3,3.9,10.6
		c-1.1,5.2-3.8,9.6-8.1,12.8c-3.3,2.5-7.1,3.2-11,1.3C147.8,477.7,145.6,474.6,145.7,468.7z"/>
	<path class="st1" d="M57.4,320.6c-9.3,0-14.4-4.5-14.1-11.6c0.1-3.2,1.5-5.9,4.2-7.7c5.4-3.6,11.3-4.5,17.6-2.6
		c4.2,1.3,6.7,4.2,7.2,8.6c0.5,4.7-1.2,8.2-5.2,10.5C63.7,319.8,60,320.4,57.4,320.6z"/>
	<path class="st1" d="M506.3,274.9c0.2,3.3,0.4,6.1,0.6,9.4c-3.3-1.5-6.2-2.8-9.7-4.3C500.4,278.2,503.2,276.6,506.3,274.9z"/>
	<path class="st1" d="M98.4,410.8c3.5-0.7,6.6-1.3,10.2-2c-1.3,3-2.5,5.4-3.5,7.9c-0.6,1.5-1.3,1.1-2,0.1
		C101.6,414.9,100.1,413.1,98.4,410.8z"/>
	<path class="st1" d="M482,209.3c2.4-2.9,4.4-5.3,6.7-8c1.3,2.9,2.4,5.5,3.6,8.3C488.9,210.4,485.8,209.3,482,209.3z"/>
	<path class="st1" d="M328,489.1c2.3,2.8,4.3,5.2,6.6,8.1c-3.2,0.7-5.9,1.4-9.2,2.1C326.4,495.8,327.1,492.7,328,489.1z"/>
	<path class="st1" d="M360.2,64.6c0.4,3.4,0.6,6,0.9,8.7c0.1,1.2-0.2,1.7-1.5,1.2c-2.3-0.9-4.7-1.9-7.3-2.9
		C355,69.3,357.3,67.2,360.2,64.6z"/>
	<path class="st1" d="M62.9,230.8c2.8,2.3,5.2,4.3,8,6.6c-3.1,0.8-5.8,1.6-8.5,2.2c-1.1,0.3-1.7,0-1.3-1.3
		C61.7,236.1,62.2,233.7,62.9,230.8z"/>
	<path class="st1" d="M485.8,377.6c-0.7,2.9-2.3,5.3-3.8,8.3c-2.1-2.8-4.1-5.4-6.3-8.3C479.4,377.6,482.5,377.6,485.8,377.6z"/>
	<path class="st5" d="M371.1,323.3c1.7-4,3.4-8,5.1-12c0.3-0.8,0.5-1.6,0.8-2.5c1.5-1.5,1-2.3-0.9-2.9c-4.6-1.6-9.1-3.3-14.5-5.3
		c3.1-1.2,5.6-2.1,8-3.1c2.7-1.2,7-1.2,7.8-3.6c0.7-2-1.9-5.2-3-7.9c-1.2-2.6-2.4-5.2-3.9-8.5c5.1,2.5,9.6,4.5,13.9,6.8
		c1.8,0.9,2.5,0.6,3-1.3c1.5-4.9,3.2-9.8,5-15.3c1.9,5.6,3.8,10.5,5.3,15.5c0.6,1.8,1.2,2,2.8,1.1c4.4-2.3,8.8-4.5,13.7-7
		c-1.4,4.7-4.1,8.4-5.1,12.8l0.1-0.1c-0.2,0.3-0.4,0.5-0.6,0.8c0,1.3-2.7,2.6,0,3.7c3,1.3,5.9,2.7,9.2,3.1c1.4,1.4,3.6,1.3,5.5,2.7
		c-4.5,1.7-8.7,3.5-13,4.9c-3,0.9-3.1,2.1-1.8,4.7c2.1,4.1,3.9,8.4,6.2,13.4c-5.1-2.5-9.4-4.4-13.6-6.7c-2-1.1-2.7-0.8-3.4,1.4
		c-1.4,4.8-3.1,9.5-5,15c-1.9-5.4-3.7-10.1-5.1-14.9c-0.7-2.4-1.5-2.4-3.5-1.3C379.9,319.3,375.5,321.2,371.1,323.3z"/>
	<path class="st5" d="M160.6,283.2c0.4,1.3,0.7,2.1,2.4,1.1c3.4-1.9,6.9-3.6,10.5-5.2c0.5-0.2,1.3-1.2,2-0.2c0.4,0.6,0,1.3-0.3,1.9
		c-1.2,2.7-2.3,5.5-3.5,8.2c-2.6,4.3-2.6,4.3,1.9,6c3.8,1.4,7.6,2.8,12,4.3c-4.8,1.8-9.2,3.5-13.6,5c-2,0.7-2.6,1.3-1.5,3.4
		c2.2,4.2,4.1,8.6,6.4,13.5c-4.9-2.3-9.2-4.3-13.5-6.5c-1.7-0.9-2.3-0.6-2.9,1.2c-1.2,3.8-2.5,7.6-3.8,11.3
		c-0.2,0.6-0.3,1.5-1.2,1.4c-0.9,0-0.9-0.9-1.1-1.5c-1.3-3.8-2.8-7.5-3.9-11.3c-0.6-1.9-1.3-1.9-2.9-1.1c-4.2,2.2-8.5,4.2-13.2,6.5
		c1.4-4.4,3.8-7.9,4.9-11.9c0.2-0.2,0.4-0.4,0.6-0.6c1.2-2.1,2.2-3.9-1.5-4.6c-2.3-0.4-4.4-2-6.8-2c-1.5-1.5-3.8-1.4-5.9-2.8
		c3.9-1.5,7.6-2.8,11.2-4.2c4.6-1.7,4.6-1.7,2.5-6.1c-1.7-3.7-3.4-7.3-5.4-11.6c4.8,2.3,9.1,4.2,13.1,6.4c2.1,1.2,2.7,0.6,3.3-1.5
		c1.4-4.5,3.1-9,4.8-14.2C157.3,273.7,158.9,278.5,160.6,283.2z"/>
	<path class="st5" d="M406.3,226.2c-3.5-2.3-7.5-3.2-11.3-4.6c-0.8-0.3-1.7-0.4-1.8-1.3c-0.1-1.1,1-0.8,1.7-1.1
		c2.4-1.1,5.3-1.4,7.4-3.3c0.2,0,0.4-0.1,0.6-0.1c5-0.5,5.3-1,3.2-5.5c-1.7-3.7-3.5-7.4-5.5-11.9c3.7,1.7,6.8,3.2,9.8,4.6
		c5.8,2.8,5.8,2.8,7.8-3.4c1-3.1,2.2-6.3,3.3-9.4c0.1-0.2,0.2-0.3,0.5-0.7c1,2.8,1.9,5.4,2.8,8c0.9,2.7,1.9,5.3,2.9,8.2
		c5-2.4,9.8-4.8,15.5-7.6c-2.3,5-4.1,9.3-6.2,13.4c-1.1,2.2-0.6,2.9,1.6,3.6c4.3,1.4,8.6,3.1,13,4.7c-2.4,2-5.6,1.5-7.5,3.9
		c-7.9,0.4-8.8,1.9-5,8.7c0.1,0.2,0.1,0.4,0.2,0.5c1.2,2.8,2.5,5.5,3.8,8.5c-2.7-0.5-4.7-2-6.9-3c-2.1-0.9-4.3-1.9-6.3-3.1
		c-1.7-1-2.3-0.4-2.9,1.2c-1.5,4.6-3.1,9.2-4.9,14.6c-1.8-5.1-3.4-9.4-4.8-13.7c-0.7-2.3-1.4-3.1-3.9-1.7c-3.9,2.2-8,4-12.7,6.4
		c2.2-4.9,4.1-9.1,6-13.3C407.1,228.1,408,227,406.3,226.2z"/>
	<path class="st4" d="M439.2,233.1c-0.1-0.2-0.1-0.4-0.2-0.5c-3.8-6.8-2.9-8.3,5-8.7c12.9,4.9,22.1,17.8,14.6,34.2
		c-4.4,9.6-11.6,17-19.4,23.8c-6.7,5.9-13.9,11-21.3,15.9c-3.3-0.4-6.2-1.8-9.2-3.1c-2.7-1.2,0-2.5,0-3.7c0.3-0.2,0.9-0.1,0.6-0.8
		l-0.1,0.1c0.2,0.1,0.4,0.2,0.5,0.2c13.1-8.5,25.8-17.5,35.4-30.2c2.3-3.1,4.1-6.4,5.1-10.1c1.5-6.1-0.5-10.7-6.1-14.5
		C442.5,234.6,440.9,233.7,439.2,233.1z"/>
	<path class="st5" d="M193.7,363.5c1.9,2.1,4.8,2,7.2,3.1c1.4,0.6,2.8,1.2,5.1,1.9c-5.5,2.1-10.3,3.9-15.1,5.8
		c-1.4,0.9-0.1,1.8,0.2,2.5c2,4.4,4.1,8.8,6.4,13.8c-4.9-2.4-9.3-4.4-13.5-6.6c-1.6-0.8-2.3-0.5-2.8,1.2c-1.4,4.6-3.1,9.1-4.9,14.5
		c-1.9-5.4-3.6-10-5.1-14.7c-0.5-1.7-1.1-1.9-2.6-1.1c-4.2,2.2-8.5,4.3-13.5,6.8c2.4-5.4,4.5-10.2,6.6-15c-0.4-2.8-3.1-2.1-4.7-2.9
		c-3.3-1.5-6.8-2.3-10.5-4.1c3.3-1.3,6.2-2.4,9.1-3.5c6.7-2.2,6.7-2.2,3.7-8.6c-1.4-3-2.8-6-4.6-9.7c4,1.9,7.5,3.6,10.9,5.2
		c0.8,0.4,1.6,0.7,2.3,1.2c1.7,1.1,2.6,0.9,3.3-1.3c1-3.6,2.3-7.2,3.6-10.8c0.3-1,0.4-2.1,1.5-3c1.6,4.5,3.2,9,4.7,13.5
		c0.6,1.9,1.2,2.7,3.3,1.5c4-2.3,8.1-4.1,12.4-6.3c0.3,1.6-0.7,2.7-1.2,3.8c-1.3,2.9-2.6,5.9-4,8.8
		C189.7,363.1,189.7,363.1,193.7,363.5z"/>
	<path class="st3" d="M409.2,290.1c0.3,0.7-0.3,0.6-0.6,0.8C408.9,290.7,409.1,290.4,409.2,290.1z"/>
</g>
</svg>
