<?xml version="1.0" encoding="utf-8"?>
<!-- Generator: Adobe Illustrator 24.2.0, SVG Export Plug-In . SVG Version: 6.00 Build 0)  -->
<svg version="1.1" id="Capa_12" xmlns="http://www.w3.org/2000/svg" xmlns:xlink="http://www.w3.org/1999/xlink" x="0px" y="0px"
	 viewBox="0 0 560 555" style="enable-background:new 0 0 560 555;" xml:space="preserve">
<style type="text/css">
	.st0{fill:#E1251B;}
	.st1{fill:#FFFFFF;}
	.st2{fill:#FEFEFE;}
	.st3{clip-path:url(#SVGID_2_);}
	.st4{clip-path:url(#SVGID_4_);}
	.st5{fill:#FFC629;}
	.st6{fill:#3DAE2B;}
</style>
<g>
	<path class="st0" d="M23.4,278.8c0-142,115.2-257.2,257.2-257.2c142,0,257.2,115.1,257.2,257.2c0,142-115.2,257.2-257.2,257.2
		C138.6,535.9,23.4,420.8,23.4,278.8z"/>
	<path class="st1" d="M30.6,278.8C30.6,141.4,142,30,279.4,30c137.4,0,248.8,111.4,248.8,248.8c0,137.4-111.4,248.8-248.8,248.8
		C142,527.6,30.6,416.2,30.6,278.8z"/>
	<path class="st0" d="M40.2,278.8C40.2,146,147.8,38.3,280.6,38.3C413.4,38.3,521,146,521,278.8c0,132.8-107.6,240.4-240.4,240.4
		C147.8,519.2,40.2,411.5,40.2,278.8z"/>
	<g>
		<path class="st2" d="M95.3,156.4l9.5-11.9c2.3-2.9,5.4-6.7,8.1-7.7c3-1.1,6.7-0.9,9.9,1.6c3.5,2.8,4.6,6.7,3.4,10.7l0.1,0.1
			c4.1-3.4,8.9-3.1,12.9,0.1c4.8,3.9,6.6,11,1.4,17.5l-12.7,15.8L95.3,156.4z M112.9,163.3l7-8.7c4-5,3.8-8.4,0.4-11.2
			c-4.5-3.6-7.8-0.9-10.8,2.8l-7,8.7L112.9,163.3z M127.9,175.3l8.8-10.9c3-3.8,2.6-8-0.9-10.9c-4.3-3.4-8.2-0.9-11.2,2.7l-8,10
			L127.9,175.3z"/>
		<path class="st2" d="M138.2,110.8l4.8-3.8l38.9,22.7l-4.8,3.8l-11.4-7.1l-13.9,11l4.2,12.8l-4.5,3.6L138.2,110.8z M150.3,132.7
			l11.1-8.8l-17.6-11l-0.1,0.1L150.3,132.7z"/>
		<path class="st2" d="M168.9,89.4l5-2.5l16.7,33.3l19.9-9.9l2.1,4.2L187.7,127L168.9,89.4z"/>
		<path class="st2" d="M225.8,66.1c13-3.2,22,5.5,24.8,16.6c2.7,11.1-1.4,23-14.3,26.1c-13,3.2-22-5.5-24.8-16.6
			C208.8,81.1,212.8,69.2,225.8,66.1z M235.1,104.2c9.9-2.4,12-12,10-20.2c-2-8.2-8.3-15.8-18.2-13.4c-9.9,2.4-12,12-10,20.2
			C218.9,99.1,225.2,106.7,235.1,104.2z"/>
		<path class="st2" d="M264.2,60.4l5.9,0.1l21.6,34.4l0.1,0l0.6-34l5.3,0.1l-0.7,42l-6.1-0.1l-21.4-34l-0.1,0l-0.5,33.7l-5.3-0.1
			L264.2,60.4z"/>
		<path class="st2" d="M318.6,63.2l7.4,2l3.3,37.5l22.2-30.4l7.4,2l-11.2,40.5l-5.1-1.4l9.3-33.7l-0.1,0l-22,30.1l-4.6-1.3
			l-3.3-37.2l-0.1,0l-9.3,33.7l-5.1-1.4L318.6,63.2z"/>
		<path class="st2" d="M388,89.1l5.3,3.1l-6.9,44.5l-5.3-3.1l2.4-13.2l-15.4-8.9l-10.4,8.6l-5-2.9L388,89.1z M372,108.3l12.3,7.1
			l3.8-20.4l-0.1-0.1L372,108.3z"/>
		<path class="st2" d="M419.7,109.9l4.3,4.1l-7.3,39.9l0.1,0.1l23.3-24.8l3.9,3.6l-28.8,30.6l-4.5-4.2l7.1-39.6l-0.1-0.1l-23.1,24.5
			l-3.9-3.6L419.7,109.9z"/>
		<path class="st2" d="M467.8,163.2c7.2,11.2,1.9,22.6-7.7,28.8c-9.6,6.1-22.2,6.1-29.4-5.1c-7.2-11.2-1.9-22.6,7.7-28.8
			C448,151.9,460.6,151.9,467.8,163.2z M434.7,184.3c5.5,8.6,15.3,7.5,22.4,2.9c7.1-4.6,12.3-12.9,6.7-21.5
			c-5.5-8.6-15.3-7.5-22.4-2.9C434.3,167.3,429.2,175.7,434.7,184.3z"/>
	</g>
	<g>
		<path class="st2" d="M166.2,418.4l10.6,7.5l-8.4,11.9l9.9,7l8.4-11.9l10.6,7.5l-24.3,34.2l-10.6-7.5l9.6-13.6l-9.9-7l-9.6,13.6
			l-10.6-7.5L166.2,418.4z"/>
		<path class="st2" d="M229.8,481c-4.1,10.9-11.9,13.9-23.9,9.5c-12-4.5-16-11.9-11.9-22.8l9-24.1l12.1,4.5l-8,21.4
			c-1.5,4-3.4,9,2.5,11.2c5.7,2.1,7.6-2.9,9.1-6.9l8-21.4l12.1,4.5L229.8,481z"/>
		<path class="st2" d="M245.5,458.3l34.6,3.7l-1.1,10.7l-21.7-2.3l-0.6,5.2l19.7,2.1l-1.1,9.9l-19.7-2.1l-0.6,5.2l22.3,2.4
			l-1.1,10.7l-35.2-3.7L245.5,458.3z"/>
		<path class="st2" d="M301.3,488c0.1,1,0.4,2,0.8,2.7c1.3,2.4,4.1,2.5,6.5,2.2c2.1-0.3,5.2-1.4,4.8-4.5c-0.3-2.2-2.2-2.5-9.6-3.6
			c-6.8-1-14.6-1.8-15.7-10.2c-1.3-9.6,6.4-14.8,15-15.9c9-1.2,17.5,1.2,19.1,11.3l-12.1,1.6c0-1.6-0.8-2.6-1.9-3.1
			c-1.1-0.6-2.6-0.7-3.9-0.6c-1.8,0.2-4.5,1.1-4.2,3.4c0.6,2.9,6.6,2.8,12.8,3.7c6.1,0.9,12.3,2.9,13.3,10.5
			c1.4,10.8-8.1,15.6-17.4,16.8c-4.7,0.6-18.4,0.7-20.3-12.6L301.3,488z"/>
		<path class="st2" d="M357.1,460.9c-0.8-1.3-3.6-5.2-8.6-3.3c-5.6,2.2-5.3,8.4-3.2,13.7c2.1,5.3,6,10,11.7,7.8c4-1.6,4.5-5.1,3.8-9
			l11.8-4.7c3.1,7.9,0,18.8-11.4,23.3c-12.6,5-23.3-1.1-27.9-12.6c-4.9-12.3-0.3-23.5,11.7-28.3c10.7-4.2,18.9-0.9,23.8,8.5
			L357.1,460.9z"/>
		<path class="st2" d="M377.5,431.8l10.2-7.4l37.1,24.9l-10.8,7.9l-5-3.8l-10.8,7.9l2,6l-10.5,7.7L377.5,431.8z M401.6,447.6
			l-10.7-8.2l-0.1,0.1l4.3,12.8L401.6,447.6z"/>
	</g>
	<path class="st1" d="M119.6,278.8c0-89.3,72.5-161.8,161.8-161.8c89.4,0,161.8,72.4,161.8,161.8c0,89.4-72.4,161.8-161.8,161.8
		C192,440.6,119.6,368.1,119.6,278.8z"/>
	<path class="st0" d="M129.1,278.8c0-84.1,68.2-152.3,152.3-152.3c84.1,0,152.3,68.2,152.3,152.3c0,84.1-68.2,152.3-152.3,152.3
		C197.3,431,129.1,362.9,129.1,278.8z"/>
	<g>
		<defs>
			<path id="SVGID_1_" d="M147.8,278.8c0-73.8,59.8-133.6,133.7-133.6S415.1,205,415.1,278.8c0,73.8-59.8,133.7-133.7,133.7
				S147.8,352.6,147.8,278.8z"/>
		</defs>
		<use xlink:href="#SVGID_1_"  style="overflow:visible;fill:#E1251B;"/>
		<clipPath id="SVGID_2_">
			<use xlink:href="#SVGID_1_"  style="overflow:visible;"/>
		</clipPath>
		<g class="st3">
			<rect x="142.8" y="140.3" class="st0" width="277.2" height="277.2"/>
			<g>
				<g>
					<g>
						
							<rect x="172.4" y="150.8" transform="matrix(0.7071 -0.7072 0.7072 0.7071 -61.7265 179.62)" class="st1" width="27" height="27"/>
						
							<rect x="210.9" y="150.8" transform="matrix(0.707 -0.7072 0.7072 0.707 -50.4597 206.8219)" class="st1" width="27" height="27"/>
						<polygon class="st1" points="281.4,164.3 262.5,183.2 243.5,164.3 262.5,145.4 						"/>
					</g>
					<g>
						<polygon class="st1" points="319.6,164.3 300.5,183.4 281.4,164.3 300.5,145.2 						"/>
						<polygon class="st1" points="358.1,164.3 339,183.4 319.9,164.3 339,145.2 						"/>
						
							<rect x="363.6" y="150.9" transform="matrix(0.7072 -0.707 0.707 0.7072 -5.7819 314.6601)" class="st1" width="26.8" height="26.8"/>
					</g>
				</g>
				<g>
					<g>
						
							<rect x="172.4" y="379.9" transform="matrix(0.7071 -0.7071 0.7071 0.7071 -223.6938 246.6768)" class="st1" width="27" height="27"/>
						
							<rect x="210.9" y="379.9" transform="matrix(0.7071 -0.7071 0.7071 0.7071 -212.4361 273.9029)" class="st1" width="27" height="27"/>
						<polygon class="st1" points="281.4,393.4 262.5,412.3 243.5,393.4 262.5,374.4 						"/>
					</g>
					<g>
						<polygon class="st1" points="319.6,393.4 300.5,412.5 281.4,393.4 300.5,374.3 						"/>
						
							<rect x="325.5" y="379.9" transform="matrix(0.7073 -0.7069 0.7069 0.7073 -178.8609 354.7559)" class="st1" width="27" height="27"/>
						<polygon class="st1" points="396,393.4 377,412.3 358.1,393.4 377,374.4 						"/>
					</g>
				</g>
				<g>
					<g>
						<polygon class="st1" points="166.8,355.2 185.9,374.3 166.8,393.4 147.8,374.3 						"/>
						<polygon class="st1" points="166.8,316.7 185.9,335.8 166.8,354.9 147.8,335.8 						"/>
						<polygon class="st1" points="166.8,278.8 185.8,297.8 166.8,316.7 147.9,297.8 						"/>
					</g>
					<g>
						
							<rect x="153.3" y="246.2" transform="matrix(0.707 -0.7072 0.7072 0.707 -134.8069 194.0901)" class="st1" width="27" height="27"/>
						
							<rect x="153.3" y="207.8" transform="matrix(0.7071 -0.7071 0.7071 0.7071 -107.6195 182.7932)" class="st1" width="27" height="27"/>
						
							<rect x="153.4" y="169.9" transform="matrix(0.7068 -0.7074 0.7074 0.7068 -80.7107 171.7362)" class="st1" width="26.8" height="26.8"/>
					</g>
				</g>
				<g>
					<g>
						
							<rect x="382.5" y="360.8" transform="matrix(0.7071 -0.7071 0.7071 0.7071 -148.6777 389.6412)" class="st1" width="27" height="27"/>
						
							<rect x="382.5" y="322.3" transform="matrix(0.7071 -0.7071 0.7071 0.7071 -121.4946 378.3471)" class="st1" width="27" height="27"/>
						
							<rect x="382.6" y="284.4" transform="matrix(0.7071 -0.7071 0.7071 0.7071 -94.5812 367.2332)" class="st1" width="26.8" height="26.8"/>
					</g>
					<g>
						
							<rect x="382.5" y="246.2" transform="matrix(0.707 -0.7072 0.7072 0.707 -67.6716 356.1495)" class="st1" width="27" height="27"/>
						
							<rect x="382.5" y="207.8" transform="matrix(0.7071 -0.7071 0.7071 0.7071 -40.5112 344.8032)" class="st1" width="27" height="27"/>
						
							<rect x="382.6" y="169.9" transform="matrix(0.7072 -0.707 0.707 0.7072 -13.6241 333.5933)" class="st1" width="26.8" height="26.8"/>
					</g>
				</g>
			</g>
			<g>
				<defs>
					<rect id="SVGID_3_" x="166.8" y="164.3" width="229.1" height="229.1"/>
				</defs>
				<clipPath id="SVGID_4_">
					<use xlink:href="#SVGID_3_"  style="overflow:visible;"/>
				</clipPath>
				<g class="st4">
					<g>
						<g>
							<polygon class="st5" points="281.4,278.8 166.8,278.8 166.8,164.3 							"/>
							<path class="st6" d="M220.1,217.6c-4.6,21-23.3,36.7-45.7,36.7c-2.6,0-5.1-0.2-7.6-0.6v25.2h114.6l0,0L220.1,217.6z"/>
							<polygon class="st6" points="281.4,278.8 281.4,164.3 166.8,164.3 							"/>
							<path class="st5" d="M220.1,217.6c21-4.6,36.7-23.3,36.7-45.7c0-2.6-0.2-5.1-0.6-7.6l25.2,0v114.6l0,0L220.1,217.6z"/>
						</g>
						<g>
							<polygon class="st6" points="281.4,278.8 395.9,278.8 395.9,164.3 							"/>
							<path class="st5" d="M342.7,217.6c4.6,21,23.3,36.7,45.7,36.7c2.6,0,5.1-0.2,7.6-0.6v25.2H281.4l0,0L342.7,217.6z"/>
							<polygon class="st5" points="281.4,278.8 281.4,164.3 395.9,164.3 							"/>
							<path class="st6" d="M342.7,217.6c-21-4.6-36.7-23.3-36.7-45.7c0-2.6,0.2-5.1,0.6-7.6h-25.2v114.5l0,0L342.7,217.6z"/>
						</g>
					</g>
					<g>
						<g>
							<polygon class="st5" points="281.4,278.8 395.9,278.8 395.9,393.4 							"/>
							<path class="st6" d="M342.7,340.1c4.6-21,23.3-36.7,45.7-36.7c2.6,0,5.1,0.2,7.6,0.6v-25.2H281.4l0,0L342.7,340.1z"/>
							<polygon class="st6" points="281.4,278.9 281.4,393.4 395.9,393.4 							"/>
							<path class="st5" d="M342.7,340.1c-21,4.6-36.7,23.3-36.7,45.7c0,2.6,0.2,5.1,0.6,7.6h-25.2V278.8l0,0L342.7,340.1z"/>
						</g>
						<g>
							<polygon class="st6" points="281.4,278.9 166.8,278.9 166.8,393.4 							"/>
							<path class="st5" d="M220.1,340.1c-4.6-21-23.3-36.7-45.7-36.7c-2.6,0-5.1,0.2-7.6,0.6v-25.2h114.6l0,0L220.1,340.1z"/>
							<polygon class="st5" points="281.4,278.9 281.4,393.4 166.8,393.4 							"/>
							<path class="st6" d="M220.1,340.1c21,4.6,36.7,23.3,36.7,45.7c0,2.6-0.2,5.1-0.6,7.6h25.2V278.8l0,0L220.1,340.1z"/>
						</g>
					</g>
					<polygon class="st0" points="377.6,351.1 377.6,330.3 366.7,319.4 366.7,340.2 343.3,316.8 343.3,296 332.4,285.1 332.4,305.9 
						305.5,279.1 327.2,257.4 327.2,277.4 338.1,266.5 338.1,246.5 350.3,234.3 350.3,254.3 361.2,243.4 361.2,223.4 373.9,210.7 
						373.9,230.7 384.8,219.8 384.8,199.8 420.2,164.4 396.2,140.5 353.7,183 332.8,183 321.9,193.9 342.7,193.9 319.3,217.4 
						298.5,217.4 287.6,228.3 308.4,228.3 281.6,255.1 259.9,233.5 279.9,233.5 269,222.5 249,222.5 236.8,210.3 256.7,210.3 
						245.8,199.4 225.8,199.4 213.2,186.8 233.2,186.8 222.3,175.9 202.3,175.9 166.6,140.1 142.6,164.1 185.5,207 185.5,227.8 
						196.4,238.7 196.4,217.9 219.8,241.3 219.8,262.1 230.7,273 230.7,252.2 257.6,279.1 235.9,300.7 235.9,280.7 225,291.6 
						225,311.6 212.8,323.9 212.8,303.9 201.9,314.8 201.9,334.8 189.2,347.4 189.2,327.4 178.3,338.3 178.3,358.3 147.4,389.3 
						171.4,413.2 209.5,375.1 230.3,375.1 241.2,364.2 220.4,364.2 243.8,340.8 264.6,340.8 275.5,329.9 254.7,329.9 281.6,303 
						303.2,324.7 283.2,324.7 294.1,335.6 314.1,335.6 326.4,347.8 306.4,347.8 317.3,358.7 337.3,358.7 349.9,371.4 329.9,371.4 
						340.8,382.3 360.8,382.3 390.4,411.9 414.3,387.9 					"/>
				</g>
			</g>
		</g>
	</g>
</g>
</svg>
