<?xml version="1.0" encoding="utf-8"?>
<!-- Generator: Adobe Illustrator 24.2.0, SVG Export Plug-In . SVG Version: 6.00 Build 0)  -->
<svg version="1.1" id="Capa_4" xmlns="http://www.w3.org/2000/svg" xmlns:xlink="http://www.w3.org/1999/xlink" x="0px" y="0px"
	 viewBox="0 0 560 555" style="enable-background:new 0 0 560 555;" xml:space="preserve">
<style type="text/css">
	.st0{fill-rule:evenodd;clip-rule:evenodd;fill:#019036;}
	.st1{fill-rule:evenodd;clip-rule:evenodd;fill:#B99C4E;}
	.st2{fill-rule:evenodd;clip-rule:evenodd;fill:#BF9948;}
	.st3{fill-rule:evenodd;clip-rule:evenodd;fill:#BF9949;}
	.st4{fill-rule:evenodd;clip-rule:evenodd;fill:#BF9A4A;}
	.st5{fill-rule:evenodd;clip-rule:evenodd;fill:#BF994A;}
	.st6{fill-rule:evenodd;clip-rule:evenodd;fill:#FDFCFA;}
	.st7{fill-rule:evenodd;clip-rule:evenodd;fill:#FCFBF8;}
	.st8{fill-rule:evenodd;clip-rule:evenodd;fill:#C5A158;}
	.st9{fill-rule:evenodd;clip-rule:evenodd;fill:#E5D7B8;}
	.st10{fill-rule:evenodd;clip-rule:evenodd;fill:#BB9A4A;}
	.st11{fill-rule:evenodd;clip-rule:evenodd;fill:#BD9948;}
	.st12{fill-rule:evenodd;clip-rule:evenodd;fill:#BE9948;}
	.st13{fill-rule:evenodd;clip-rule:evenodd;fill:#BD9848;}
	.st14{fill-rule:evenodd;clip-rule:evenodd;fill:#F8F4EC;}
	.st15{fill-rule:evenodd;clip-rule:evenodd;fill:#FDFDFB;}
	.st16{fill-rule:evenodd;clip-rule:evenodd;fill:#F5EFE4;}
	.st17{fill-rule:evenodd;clip-rule:evenodd;fill:#FCFAF7;}
	.st18{fill-rule:evenodd;clip-rule:evenodd;fill:#F9F6EF;}
	.st19{fill-rule:evenodd;clip-rule:evenodd;fill:#FCFAF8;}
	.st20{fill-rule:evenodd;clip-rule:evenodd;fill:#FEFEFE;}
	.st21{fill-rule:evenodd;clip-rule:evenodd;fill:#099037;}
	.st22{fill-rule:evenodd;clip-rule:evenodd;fill:#C09A4A;}
	.st23{fill-rule:evenodd;clip-rule:evenodd;fill:#C19C4E;}
	.st24{fill-rule:evenodd;clip-rule:evenodd;fill:#C39F54;}
	.st25{fill-rule:evenodd;clip-rule:evenodd;fill:#FEFEFD;}
	.st26{fill:#B99C4E;}
</style>
<g>
	<path class="st0" d="M194.9,113.7c73.7,0,147.4,0.2,221-0.1c7.1,0,9.7,1.8,8.9,8.9c-0.5,4.4,0,8.8,0,13.3
		c0.1,52.5,0.1,105.1,0.1,157.6c0,64.2-20.9,121.2-61,171c-21.7,26.9-48.4,48.3-77.9,66.2c-4.8,2.9-8.9,3.2-13.7,0.2
		c-17.4-10.9-33.8-23-49.3-36.5c-20.1-17.6-36.8-38-50.8-60.5c-18.5-29.6-30.5-61.7-36.4-96.1c-2.7-15.7-3.1-31.4-3.1-47.2
		c0.2-54.9,0.1-109.8,0.1-164.8c0-10.8,0-10.9,10.8-10.9c14.3,0,28.6,0,42.9,0C189.3,114.7,192.2,115.2,194.9,113.7z"/>
	<path class="st1" d="M194.9,113.7c0.2,4.8-3.5,2.5-5.2,2.5c-16.1,0.2-32.3,0.3-48.4,0c-5.1-0.1-7.3,0.8-7.3,6.7
		c0.2,60.9-0.8,121.8,0.4,182.7c1.1,57.6,22.4,108.4,57.7,153.5c22,28.2,49.3,50.5,79.5,69.4c5.2,3.3,9.2,3.6,14.8,0.2
		c59.8-37.1,103.3-87.3,124.8-155.2c8-25.2,12-51,12-77.5c0-50.5,0-101,0.1-151.5c0-2.9-1.4-6.3,1.6-8.7c2.4,3,1.4,6.5,1.4,9.8
		c0.1,50.8,0.3,101.5,0,152.3c-0.4,63.8-22.1,120-62.4,169.1c-22.4,27.2-49.5,48.9-79.7,66.8c-3.6,2.1-6.1,2.4-9.8,0.2
		c-68.1-40.8-115.4-97.6-135.7-175.3c-5.9-22.5-8-45.3-7.7-68.6c0.6-55.2,0.2-110.4,0.2-165.5c0-11.3,0-11.4,11.7-11.3
		C160,113.3,177.5,113.5,194.9,113.7z"/>
	<path class="st1" d="M362.2,113.7c-0.2,4.8,3.5,2.5,5.2,2.5c16.2,0.2,32.3,0.3,48.5,0c5.1-0.1,7.3,0.8,7.3,6.7
		c-0.2,60.9,0.8,121.8-0.4,182.7c-1.1,57.6-22.4,108.4-57.8,153.5c-22.1,28.2-49.4,50.5-79.7,69.4c-5.2,3.3-9.2,3.6-14.8,0.2
		c-60-37.1-103.5-87.3-125.1-155.2c-8-25.2-12-51-12-77.5c0-50.5,0-101-0.1-151.5c0-2.9,1.4-6.3-1.6-8.7c-2.4,3-1.4,6.5-1.4,9.8
		c-0.1,50.8-0.3,101.5,0,152.3c0.4,63.8,22.1,120,62.6,169.1c22.4,27.2,49.6,48.9,79.9,66.8c3.6,2.1,6.1,2.4,9.8,0.2
		c68.2-40.8,115.6-97.6,136-175.3c5.9-22.5,8-45.3,7.8-68.6c-0.6-55.2-0.2-110.4-0.2-165.5c0-11.3,0-11.4-11.7-11.3
		C397.1,113.3,379.6,113.5,362.2,113.7z"/>
	<path class="st2" d="M196.9,39.5C196.3,21,196.3,21,214.4,21c25,0,50,0,75,0c9.4,0,9.4,0,8.2,10.2c-6.1-5.9-13-6-20.1-2.7
		c-7.7,3.6-9.5,10.1-9.2,18.1c0.4,9.4,0.2,18.7,0,28.1c-0.1,5-0.5,9.9,6.8,13c-11.4,0-20.7,0-29.9,0c5.7-2.9,4.7-8.1,4.7-13
		c0-10.7-0.1-21.3,0-32c0.1-4.4-0.9-8.2-4.7-10.9c-5.8-1.7-10.8-5.6-17.1-5.8c-9.1,0.2-16.6,4-23,10.1c-0.5,0.5-1.1,0.9-1.7,1.3
		C201.3,38.3,199.7,40.9,196.9,39.5z"/>
	<path class="st3" d="M190.6,28.8c-2.6,1.1-3,3.2-3,5.7c-0.4,18.4,1.9,36.7,0.2,55.1c-0.1,1.4,0.8,2.9,1.3,4.7c-6.8,0-13.5,0-21.7,0
		c7.2-3.7,6.9-8.3,4.3-13.8c-3.3-6.7-6.2-13.6-10-20.3c1,8.9-3.1,17.7,1.5,26.9c1.5,2.9-4.5,6.2-8.7,7.5c-3.4-1.2-2.4-4.2-2.4-6.6
		c-0.1-18.1,0.2-36.2-0.2-54.4c-0.1-5.7,1.7-7.7,7.5-7.4c8.5,0.5,17.1,0,25.6,0.2C187.1,26.6,190,25.1,190.6,28.8z"/>
	<path class="st4" d="M359.7,27.7c6.7,0,12.3,0,20.3,0c-6.9,2.8-7,7.1-7,11.6c0.1,13.8,0.1,27.5,0,41.3c-0.1,9.6-5.1,14-15.5,14.1
		c-9.5,0-13.6-4-13.7-13.9c-0.1-13.5-0.1-27,0-40.5c0-4.9,0.3-9.7-7-8.9c1.2-3.4,3.6-4.1,5.5-5.3c3.1-1.9,6.4-4.2,10.1-2
		c3.3,2,1.8,5.7,1.8,8.6c0.1,16.1,0.1,32.2,0,48.3c0,3.8-0.1,7.9,5,8c5.3,0.1,4.8-4.3,4.8-7.9c0-14.8-0.1-29.6,0.1-44.4
		C364.2,33.1,363.6,30.1,359.7,27.7z"/>
	<path class="st2" d="M131.4,94.3c1.9-3.9,4.8-8.4-0.9-11.1c-3.8-1.8-8.3-0.7-8,4.8c0.5,8-3.9,7.5-9,6.2
		c3.7-12.8,7.5-25.6,11.2-38.5c3.4-11.7,3.4-11.7-8.7-13.5c6.6-8.1,14.8-12.9,24.6-15.3c8.6-0.5,8.5-0.5,8.6,8
		c0.3,18.6-1,37.3,0.8,55.9c0.3,2.7,0.1,4.8-3.4,4.5C141.6,94.7,136.4,96.3,131.4,94.3z"/>
	<path class="st2" d="M390.6,92.9c6.9-4,4.9-10.5,3.3-15.9c-1.9-6.6-5.4-12.8-9.1-18.9c0.9,10.8-4.2,21.7,1.8,32.4
		c1.9,3.5-7.3,11.7-15.2,13.2c6.8-4.5,8.1-10.2,8-17.1c-0.4-14.6-0.1-29.1-0.1-43.7c0-3.4,0.4-6.8-4.2-8.6c6.7-4.3,13.5-6.1,21-5.3
		c0.2,0,0.5,0.4,0.5,0.5c-0.4,0.5-0.9,1-1.3,1.5c-2.7,6.8,2.6,12.2,3.3,17.9c-0.1-5.2-1.7-10.8-1.6-16.6c3.5,0,7.1,0,11.6,0
		c-3.4,6.5-2.6,12.6-2.1,18.6c2.2,2.9,2,6.4,2,9.7c0.1,8.6,0,17.2,0.1,25.7c0.1,9,0,9.3-8.8,8.9C396.7,94.9,392.7,97.4,390.6,92.9z"
		/>
	<path class="st2" d="M409.3,49c9.6-12.8,22.7-19.9,39-22.6c-8.9,5-7.8,13-7.7,20.8c0.1,11.7,0,23.4,0,35.1c0,4.1-0.5,8.2,2.6,12.1
		c-6.2,0-11.6,0-17,0c0.1-3.9,6.2-9.6-3.4-9.9c-2.4-0.1-4.2,0.8-4.4,3.4c-0.3,5.3-3.7,7.1-8.3,7.7c-3.2-0.7-1.5-2.7-1-4.2
		c3.6-10.3,5.6-21,8.3-31.6c2.1-8,1.9-8.1-6.4-9.7C410.4,50.1,409.8,49.6,409.3,49z"/>
	<path class="st5" d="M226,52.2c-2.3,2.7-3,5.7-3,9.3c0.2,9.4-0.2,18.7,0.2,28.1c0.2,4.5-1.6,5.1-5.3,5.1c-3.7,0.1-5-0.9-4.3-4.8
		c0.5-3.2,1-6.7-4.5-6.9c-5.2-0.2-8,2.1-7.2,6.5c1.3,7.4-3.3,4.6-7.1,5C198.2,82,201.6,70,205,57.9c2.9-10.2,1.7-11.7-9.2-10.8
		c-1.3,0.1-2.5,0.2-6.1,0.6c3.4-2.8,5.4-4.4,7.3-6.1c1.7-2,4-3.4,6-5l-0.1,0.1c5.6-3.9,11.3-7.7,18.1-9.5c2-0.5,3.8-1.6,5.8,0
		c0,7.7-2.4,15.2-1.3,22.9C225.5,50.8,225.7,51.5,226,52.2z"/>
	<path class="st2" d="M278.8,94.1c4.8-12.6,7.1-25.9,10.9-38.8c1.2-4.2-1-5.4-4.4-4.7c-2.7,0.5-5.2,1.8-8.9,3.2
		c7.9-13.7,19.5-19,34.8-21.6c-5.9,4.8-6.6,10.1-6.5,15.9c0.3,14,0,28.1,0.3,42.1c0.1,2.8,1,5.1-3.2,4.6c-3-0.4-7.2,1.5-6.7-4.5
		c0.2-2.2,1.7-5.6-1.9-6.6c-4.3-1.2-7.2,0.5-7.3,5.3C285.8,93.9,283.9,96,278.8,94.1z"/>
	<path class="st3" d="M337.6,52.2c-1.4-2.5-3.4-4.2-6.3-2.6c-2.4,1.3-3.6,3.6-3.7,6.4c-0.2,5.4,2.9,9.3,5.6,13.4
		c3.8,5.8,6.1,11.6,1.3,17.9c-4.9,6.5-11.8,8.4-19.4,6.9c-5.8-1.1-7.7-5.6-7.4-11.1c0.2-4.9,2-8,8.6-6.8c-1.1,4.3-2.3,9.1,3,11.7
		c2.4,1.3,4.9,1.9,7.1-0.4c2.2-2.2,2-4.7,0.4-7.1c-0.7-1.1-1.6-2.1-2.4-3c-11.4-12.7-7.8-34.2,7-42.6c4.7-2.7,7.5-1.5,7.7,4.1
		c0.2,4.4-0.1,8.8-0.2,13.2C338.4,52.9,338,53,337.6,52.2z"/>
	<path class="st3" d="M226,52.2c-0.3,0-0.6,0.1-0.9,0.1c-1.2-7.7,4.2-16.8,11.1-18.8c2-0.6,3.6-0.4,4.1,2c-2.3,6.6-1,13.4-1,20
		c0.1,15.2-1,30.5,1,47.7c-5.8-5.2-9.9-7.5-8.2-16.4c2.4-12.2,0.6-25.3,0.6-37.9C229,47.8,228,51.1,226,52.2z"/>
	<path class="st6" d="M240.2,35.6c-7.3-0.4-14.1,7.1-15.1,16.8c-4.2-8.6-2.5-16.9,1.3-25.1c0.1-1.2,0.7-1.9,1.6-2.6
		c6.8,0,12.6,2,17.2,7.3C243.4,32.9,241.2,33.4,240.2,35.6z"/>
	<path class="st7" d="M397,32c5.4,6,2.3,13.2,1.8,20.3c-2.2-5.2-4.5-10.3-6.5-15.6c-1.1-2.8-0.1-5.1,3-6
		C395.8,31.2,396.4,31.6,397,32z"/>
	<path class="st8" d="M337.6,52.2c0.4,0,0.8,0,1.1,0c0.4,4.8,0.8,9.6-0.1,14.9c-4.5-1.6-5.3-4.5-3.5-7.9
		C336.4,57,337.7,54.9,337.6,52.2z"/>
	<path class="st9" d="M203,36.6c-1,2.9-3.3,4.2-6,5c0-0.7-0.1-1.4-0.1-2C199.1,38.9,200.3,36.1,203,36.6z"/>
	<path class="st10" d="M278.4,176.1c27.1,0,54.1,0.2,81.2-0.1c5.7-0.1,7.5,1.3,7.5,7.3c-0.3,41.4,0.9,82.8-0.4,124.2
		c-1.3,41.2-16.7,77.9-41.6,110.6c-11.7,15.4-25.7,28.6-40.6,40.8c-3.9,3.2-6.5,3.6-10.6,0.4c-53.9-43.1-84.3-97.9-84.8-167.9
		c-0.2-35.7,0.1-71.3-0.2-107c0-6.4,1.6-8.5,8.2-8.5C224.3,176.3,251.4,176.1,278.4,176.1z"/>
	<path class="st11" d="M383.3,128.9c7.9-0.4,15.4-0.5,18.9,7.2c4,8.6,3.9,17.7-0.9,26.1c-3.4,6-20.1,9.4-26.4,6
		c-1.8-1-1.7-2.4-1.7-3.9c0-10.4-0.3-20.7,0.1-31.1C373.6,124.5,380.8,131,383.3,128.9z"/>
	<path class="st12" d="M263.9,493.9c0-0.5,0-1,0-1.6c0-20.9,0-20.9,20.9-18.4c6.3,0.8,12.4,7.3,9.6,12.3c-4.3,7.8,0.3,14.7-0.7,21.9
		c-0.3,2,2.6,5.1-2.5,5.2c-4,0-5.7-1.2-5.6-5.3c0.1-4.1,0.8-8.5-4.8-10.1c-6.6-1.8-8.9-0.2-9,6.6c0,1.6-0.1,3.1,0,4.7
		c0.2,3.1-1.3,4.1-4.2,4c-2.7-0.1-3.7-1.3-3.6-3.8c0.1-2.6,0-5.2,0-7.8C263.9,499.1,263.9,496.5,263.9,493.9z"/>
	<path class="st11" d="M164.6,169.6c-4.7-0.2-10.3-1.1-13.1-7.3c-0.8-1.7-2.7-4.2-0.2-5.5c2-1.1,5.1-2,6.8,1.1
		c1.2,2.1,2.5,3.8,5.1,4.4c3.9,1,7.9,0.7,9.4-3.1c1.9-4.9-3-5-5.9-6.1c-2.7-1-5.5-1.5-8.2-2.3c-5.3-1.5-7.4-5.2-7.4-10.5
		c0.1-5.5,2.3-9.5,7.6-11.4c7.6-2.7,15.8-0.4,19.4,5.5c1.2,2,2.8,4.6,0.3,6.1c-2,1.2-5.1,1.7-6.7-1.3c-1.7-3.1-4.3-4.3-7.8-4
		c-2.6,0.2-4.5,1.3-4.9,4.1c-0.3,2.6,1.5,3.7,3.6,4.4c2.2,0.7,4.5,1.2,6.7,1.8c9.2,2.6,12.8,6.8,11.6,13.7
		C179.8,165.8,174.3,169.6,164.6,169.6z"/>
	<path class="st13" d="M262,149.8c0-15.6,7.6-23,20.7-21.2c5.2,0.7,8.5,3.6,10.8,8c0.9,1.7,2.9,4,0.5,5.5c-2.1,1.3-4.9,1.2-7.2-0.8
		c-7.1-6.5-10.4-6.8-14.2-1.7c-4.4,5.9-3.1,18.2,2.4,21.4c4.2,2.5,8.3,1.8,10.7-2.6c2-3.7,5.5-4.2,7.8-2.6c3,2.1-0.1,5.1-1.4,7.2
		c-3.8,6.7-10.3,7.5-17,6.4c-7.4-1.2-10.9-6.5-12.5-13.3C262,153.8,262.1,151.4,262,149.8z"/>
	<path class="st14" d="M228,24.7c-0.1,1.2-0.4,2.1-1.6,2.6c-8.6,1.3-15.3,7.3-23.5,9.4C209,27.9,217.7,24.5,228,24.7z"/>
	<path class="st15" d="M179.9,55.9c-2.7-6.3-5.5-12.6-8-18.9c-0.9-2.2-1-4.6,1-6.5c1.7-1.5,3.7-2,5.8-1.3c2.8,1,2.8,3.4,2.8,5.8
		c0,6.8,0,13.7,0,20.5C180.9,55.6,180.4,55.7,179.9,55.9z"/>
	<path class="st16" d="M133.8,50.5c0,8.1,0.1,16.2,0,24.2c-0.1,3.7-2.9,3.7-5.6,3.6c-3.8-0.1-3-2.4-2.3-4.8c2-7.7,3.7-15.4,5.6-23.1
		C132.2,50.5,133,50.5,133.8,50.5z"/>
	<path class="st17" d="M428,53.8c0,7.1-0.1,14.2,0,21.3c0.1,3.1-1.2,4.1-4.1,4c-4-0.1-3-2.4-2.4-4.7c1.7-6.9,3.4-13.8,5.1-20.7
		C427,53.7,427.5,53.7,428,53.8z"/>
	<path class="st18" d="M213.8,50.7c0,7.5-0.1,14.9,0.1,22.4c0.1,4.2-1.9,5.6-5.7,5.1c-4.5-0.6-2.4-3.9-1.9-6
		c1.6-7.4,3.6-14.6,5.4-21.9C212.4,50.5,213.1,50.6,213.8,50.7z"/>
	<path class="st19" d="M295.2,56.5c0,6.2-0.1,12.4,0,18.6c0,2.5-0.7,3.9-3.5,3.7c-3.5-0.2-2.5-2.4-2.1-4.4c1.3-6,2.6-11.9,3.9-17.9
		C294.1,56.5,294.6,56.5,295.2,56.5z"/>
	<path class="st20" d="M278.9,179.6c26.5,0,53.1,0.1,79.6-0.1c4.7,0,5.5,1.5,5.5,5.8c-0.1,41.4,1.4,82.8-0.5,124.1
		c-2,44.5-20.1,83.4-49.3,117.1c-9.4,10.9-20.1,20.3-31.1,29.4c-3,2.5-5,2.6-8,0.2c-46.8-37.4-76.6-84.8-81.6-145.2
		c-3.5-41.7-0.6-83.7-1.3-125.6c-0.1-5.7,3.3-5.4,7.1-5.4c26.5,0,53.1,0,79.6,0C278.9,179.7,278.9,179.6,278.9,179.6z"/>
	<path class="st0" d="M381.1,148.7c0-1.6-0.2-3.2,0.1-4.6c0.6-2.8-2.2-7.3,3.6-7.6c5.2-0.3,9.9-0.1,11.5,6.3
		c2,7.6-0.8,16.4-6.1,18.3c-6.3,2.3-9,0.4-9.1-6.2C381.1,152.8,381.1,150.7,381.1,148.7z"/>
	<path class="st21" d="M277.7,491.2c-2.9,0.1-6.2,0.8-6.1-4.7c0.1-4.3,1.2-6.3,5.7-5.8c3.8,0.4,8.6-0.6,9,4.9
		C286.7,491,282.3,491.3,277.7,491.2z"/>
	<path class="st22" d="M234.4,355.3c-1.8-5.2-4.9-8.4-11-7c-3,0.7-5-0.4-5.9-3.4c-5.1-15.7-7.1-31.9-7.7-48.3
		c-0.2-3.9,1.9-5.2,5.3-4.7c5.8,0.8,7-2,6.7-7.1c-0.3-7.5-0.2-15.1,0.2-22.6c0.3-5-0.7-8.1-6.5-7.6c-4.3,0.4-5.9-1.6-5.8-6
		c0.2-14.6,0.2-29.2,0.1-43.7c0-5.1,1.5-7.4,7.2-7.2c13,0.4,26,0.4,39,0c5.2-0.1,7.2,1.6,6.4,6.6c-0.9,5.8,1.7,7,7.1,6.5
		c6.2-0.6,12.5-0.4,18.7-0.1c4.7,0.3,6.8-1.1,6-6.1c-0.9-5.6,1.8-7.1,7.1-6.9c13.3,0.3,26.5,0.3,39.8,0c4.5-0.1,5.8,1.4,5.7,5.8
		c-0.2,15.1-0.3,30.2,0,45.3c0.1,5-1.9,6.6-6.4,6c-5-0.6-6.2,1.7-6.1,6.3c0.3,7.8,0.5,15.6-0.1,23.4c-0.5,6,1.9,8,7.4,7.7
		c3.2-0.2,6.4-0.6,6,4.5c-1.2,15.3-2.3,30.5-6.9,45.3c-1.5,4.8-3.6,7.2-8.8,6.3c-4.6-0.8-6.8,1.4-8.4,5.8c-4,11-9,21.6-16.2,30.9
		c-1.6,0.2-2.2-0.9-2.6-2.2c1.5-8.1,6.7-14.5,10-21.8c2.3-5.2,4.8-9.6-3.9-11.1c-3.8-0.6-3.5-4.1-2.5-7c5.1-14.6,8.1-29.5,8-45.1
		c0-4.3,2.1-7.6,6.7-8.4c4.6-0.8,5.7-3.8,5.6-7.9c-0.1-4.4-0.2-8.9,0-13.3c0.3-6-0.3-10.9-7.9-11.6c-3.4-0.3-4.2-3.5-4.4-6.5
		c-0.4-4.2-0.4-8.3-0.1-12.5c0.5-6.6-2.6-9-8.8-8.4c-2.1,0.2-4.2,0-6.2,0c-5.3,0.1-9.2-1.2-9.6-7.5c-0.2-3.4-2.7-4.8-6-4.9
		c-3.9-0.1-7.8,0.2-11.7-0.1c-5.7-0.5-10.1-0.1-10.3,7.5c-0.2,4.7-4.7,4.8-8.4,5c-13.8,0.9-14,0.8-14.7,14.5
		c-0.3,7.2-0.6,13.8-10.4,13.8c-2.5,0-3.1,2.5-3.2,4.7c-0.3,7.3-0.1,14.6-0.1,21.8c0,3.6,1.8,5.1,5.3,5.2c6,0.1,7.9,3.6,8,9.2
		c0.2,13.6,3.1,26.8,7,39.8c3,10.1,3.1,10.1-6.9,13.1c-1.3,0.4-2.3,1.2-3.1,2.3C236.6,354.7,235.8,355.6,234.4,355.3z"/>
	<path class="st23" d="M234.4,355.3c0.6-0.7,1.1-1.4,1.7-2.1c4.2,1.2,4.7,5.2,6.4,8.3c2.9,5.2,5.3,10.6,8.5,15.7
		c2.1,3.4,4.2,5.4,7.9,2.3c4.9-4.1,8.4-2.2,11.4,2.4c0.6,0.9-0.2-0.2,0.5,0.6c8.3,10.6,8.3,10.6,16.7-0.1c5.2-6.7,5.9-6.8,13-2
		c1.7,1.2,3.7,1.8,5.6,2.7c0.5,0.6,1.1,1.2,1.6,1.9c-1.7,4.3,2.3,5,4.2,7.1c1.4,1.6,5.2,3,0.9,5.5c-0.6,0.5-1.3,0.6-2,0.4
		c-0.7-0.4-1.3-0.9-1.9-1.4c-4.5-3.5-7.9-9.9-13.4-10.1c-5.5-0.2-7.4,7.2-11.1,11c-3.9,4.1-7.4,4.3-11-0.2c-1-1.2-1.9-2.5-2.9-3.7
		c-8.9-10.4-5.2-9.6-16.3-1.4c-4.1,3-4.1,6-0.9,9.8c4.8,5.8,9.6,11.6,15.1,16.8c2,1.9,4.4,3.8,4.1,7.1c-0.5,1.1-1.1,1.9-2.5,1.3
		c-9.6-8.1-17.3-17.8-25-27.6c-2.9-3.8-2.3-5.8,1.4-7.8c4.8-2.6,4.5-5.4,1.6-9.8C242.4,373.8,237.4,365,234.4,355.3z"/>
	<path class="st24" d="M310.5,397.4c0.7,0.1,1.5,0.2,2.2,0.2c-7.3,15-20.3,25.2-31.7,36.7c-1.7,1.7-3.2,1.1-4.6-0.4
		c-2.1-2.3-4.3-4.4-6.5-6.7c0.6-0.6,1.2-1.2,1.8-1.8c6.7,3.5,11.1,0.6,15.5-4.6c5.4-6.3,11.8-11.7,16.9-18.4
		C305.8,400.4,307.1,397.5,310.5,397.4z"/>
	<path class="st20" d="M305.9,383.1c-4.2,3.9-6.1-0.8-8.1-2.6c-3.2-2.8-5-2.4-7.4,0.9c-3.5,4.8-6.6,12.7-11.5,12.9
		c-4.8,0.1-8.1-7.8-11.4-12.7c-3.4-5-6-2.6-8.4,0.1c-4.1,4.4-6.6,3.2-9-1.6c-4.6-9-9.4-17.9-14.1-26.8c-1.1-3.7,0.1-5.4,4.1-4.7
		c8.3,1.5,7.9-2,5.5-8.4c-4.9-13.2-7.7-27-7.5-41.2c0.1-5.8-1.5-8.3-7.3-7.1c-4.9,1-6.4-0.8-6.1-5.7c0.4-8.3,0.5-16.7,0.2-25
		c-0.2-5,1.2-7.4,6.6-6.4c5,0.9,7.3-1,6.7-6.3c-0.3-2.3,0-4.7,0.1-7c0.5-14.2,0.5-14.6,15.1-14.1c6.9,0.2,10.2-1.4,8.9-8.8
		c-0.7-4.1,1.4-4.7,5-4.5c6.8,0.3,13.5,0.4,20.3,0c5.3-0.3,7.2,1.9,6.7,6.7c-0.6,4.9,0.9,6.6,6.2,6.6c18-0.1,18.2,0.2,17.9,18.1
		c-0.1,6.2,0.2,10.9,8.4,9.4c4.1-0.7,4.5,2.2,4.4,5.4c-0.1,8.6-0.2,17.2,0.1,25.8c0.1,4.4-1.3,6.4-5.7,5.8c-5.2-0.7-6.7,1.8-6.6,6.7
		c0.2,15-2.6,29.5-8.2,43.4c-2,5.1-1.3,7.3,4.3,6.6c7.5-0.9,6.9,2.7,4.4,7.5C315.1,365,310.5,374.1,305.9,383.1z"/>
	<path class="st20" d="M343.6,225.8c0,6-0.4,12,0.1,17.9c0.6,6.5-2.1,7.7-7.9,7.6c-14-0.3-14,0-14-13.8c0-13.4,0-13.4-13.4-13.4
		c-11.2,0-11.2,0-10.7-11.5c0.5-11.7,0.5-11.7,12-11.7c9.1,0,18.2,0.3,27.3-0.1c5.7-0.3,7.2,1.8,6.8,7.1
		C343.3,213.8,343.6,219.8,343.6,225.8z"/>
	<path class="st20" d="M213.4,226.7c0-6.8,0.1-13.5,0-20.3c-0.1-3.8,0.9-5.7,5.2-5.7c12,0.2,23.9,0,35.9,0.1c1.7,0,4.3-0.6,4.4,1.9
		c0.3,6.5,0.2,13,0.1,19.5c0,1.2-1.1,1.7-2.2,1.7c-1,0.1-2.1,0-3.1,0.1c-6.1,0.7-13.9-2.9-17.8,1.7c-3.6,4.4-1.2,12-0.9,18.2
		c0.2,5.5-1.2,7.7-7.4,7.4c-14.5-0.7-14.5-0.3-14.2-15.3C213.5,233,213.4,229.9,213.4,226.7z"/>
	<path class="st25" d="M343.7,306.8c-0.4,11-2.8,21.6-5.3,32.2c-1.1,4.7-3.6,6.8-8.2,6.1c-5.2-0.8-12.1,2.7-15-0.8
		c-3-3.6,2.1-9.4,3-14.3c1.6-8.4,4.1-16.8,3.6-25.4c-0.4-7.7,3.1-10.2,10.1-9.3c0.3,0,0.5,0,0.8,0
		C344.2,295.1,344.2,295.1,343.7,306.8z"/>
	<path class="st25" d="M233,345.2c-12.5,0.1-12.8-0.1-15.7-12.6c-2.3-9.9-3.3-20-4.2-30.1c-0.4-5.2,1-8,6.7-7.2
		c0.5,0.1,1-0.1,1.6-0.1c12.9-0.8,13-0.8,14,11.5c0.8,10.4,2.5,20.7,6.1,30.5c2.1,5.8,2.4,9.3-5.4,7.8
		C235.1,344.8,234,345.1,233,345.2z"/>
	<path class="st20" d="M310.5,397.4c-7.4,9.6-15.6,18.4-23.9,27.2c-5.3,5.6-9.5,7.5-14.9,0.9c-7.1-7.9-14-16-21.2-23.8
		c-3.3-3.7-3.9-6.2,0.7-9.8c12.2-9.6,12.4-10.1,21.8,2.4c4.7,6.3,7.5,5.2,11.8-0.1c10-12.5,10.2-12.4,22.2-1.6
		C308.5,394,310.9,394.7,310.5,397.4z"/>
	<path class="st2" d="M277.4,329.7c-2.3,0-4.7,0.3-7-0.1c-6.4-1.1-9.8,0.8-10.2,7.8c-0.1,2.2,0.3,5.4-2.7,6.7c-4.1,1.8-7-1.1-6-6.3
		c3.7-19.9,7.6-39.8,11.4-59.6c2.9-15,6-30,8.8-45.1c0.6-3.4,1.2-5.9,5.5-5.9c4,0,4.6,2.5,5.2,5.4c7.2,35.3,14.3,70.7,21.6,106
		c0.5,2.6,0.6,4.6-2.6,5.3c-2.8,0.6-5.2,0.7-5.9-3c-0.7-3.7,0-9.2-3.4-10.6c-4.3-1.8-9.7-1-14.6-1.3
		C277.4,329.4,277.4,329.5,277.4,329.7z"/>
	<path class="st25" d="M277.7,253.5c4.3,20.9,8.5,41.9,12.9,62.8c0.9,4.1-0.7,4.6-4.3,4.7c-23.3,0.9-23.2,1-18.6-21.9
		c3.1-15.2,5.9-30.4,8.9-45.6C277,253.5,277.3,253.5,277.7,253.5z"/>
	<rect x="137.3" y="113.7" class="st26" width="284.2" height="2.7"/>
</g>
</svg>
